<?xml version="1.0" encoding="UTF-8" standalone="no"?>
<svg
   xmlns:dc="http://purl.org/dc/elements/1.1/"
   xmlns:cc="http://creativecommons.org/ns#"
   xmlns:rdf="http://www.w3.org/1999/02/22-rdf-syntax-ns#"
   xmlns:svg="http://www.w3.org/2000/svg"
   xmlns="http://www.w3.org/2000/svg"
   xmlns:sodipodi="http://sodipodi.sourceforge.net/DTD/sodipodi-0.dtd"
   xmlns:inkscape="http://www.inkscape.org/namespaces/inkscape"
   width="214.28964pt"
   height="114.41148pt"
   viewBox="0 0 214.28964 114.41148"
   version="1.1"
   id="svg47"
   sodipodi:docname="lmtlogo.svg"
   inkscape:version="0.92.3 (2405546, 2018-03-11)">
  <metadata
     id="metadata53">
    <rdf:RDF>
      <cc:Work
         rdf:about="">
        <dc:format>image/svg+xml</dc:format>
        <dc:type
           rdf:resource="http://purl.org/dc/dcmitype/StillImage" />
        <dc:title></dc:title>
      </cc:Work>
    </rdf:RDF>
  </metadata>
  <defs
     id="defs51" />
  <sodipodi:namedview
     pagecolor="#ffffff"
     bordercolor="#666666"
     borderopacity="1"
     objecttolerance="10"
     gridtolerance="10"
     guidetolerance="10"
     inkscape:pageopacity="0"
     inkscape:pageshadow="2"
     inkscape:window-width="1920"
     inkscape:window-height="1017"
     id="namedview49"
     showgrid="false"
     inkscape:zoom="0.22348485"
     inkscape:cx="124.15416"
     inkscape:cy="-264.25282"
     inkscape:window-x="1912"
     inkscape:window-y="-8"
     inkscape:window-maximized="1"
     inkscape:current-layer="svg47" />
  <g
     id="surface1"
     transform="translate(-212.88438,-83.398908)">
    <path
       style="fill:#000000;fill-opacity:1;fill-rule:nonzero;stroke:none"
       d="m 279.19922,86.238281 c -15.91016,4.390625 -30.33203,11.578125 -42.52735,22.832029 -9.57421,8.83203 -17.30468,18.94141 -19.98437,32.01953 -3.33594,16.26172 1.42969,29.96875 14.28516,40.46485 10.0625,8.21875 21.9414,12 34.85156,13.07812 25.38672,2.11719 47.94531,-4.98437 67.7539,-20.71094 9.64063,-7.65234 17.59375,-16.68359 19.67579,-29.5625 0.33203,-2.05468 1.29687,-4.21093 2.57421,-5.84765 0.91407,-1.16797 3.1211,-2.42578 4.25391,-2.06641 1.8125,0.57031 2.23047,2.67578 1.30859,4.66406 -0.48828,1.04688 -0.65234,2.29297 -1.29296,3.21875 -5.97266,8.57032 -11.20704,17.83594 -18.21485,25.46094 -12.83203,13.95703 -29.47265,21.83985 -47.9414,25.72656 -17.60157,3.70313 -35.01172,3.3086 -51.72266,-4.03125 -14.99219,-6.58203 -25.55469,-17.23046 -28.60938,-33.91015 -2.33203,-12.75781 1.125,-24.41016 8.02735,-35.05859 9.84765,-15.19532 23.95312,-25.195317 40.52734,-31.85938 5.44531,-2.191406 11.17578,-3.683594 16.77735,-5.492187 0.0859,0.359375 0.17187,0.714843 0.25781,1.074218"
       id="path2"
       inkscape:connector-curvature="0" />
    <path
       style="fill:#000000;fill-opacity:1;fill-rule:nonzero;stroke:none"
       d="m 365.72266,194.39453 c 7.95312,-4.01172 16.88671,-7.82031 25.10156,-12.8125 13.01562,-7.91016 23.45312,-18.53906 29.71875,-32.71875 8.69922,-19.69141 2.39844,-40.58594 -15.66797,-52.33203 C 393.05469,88.839844 379.84766,85.980469 366.01953,86.066406 345.73047,86.1875 327.125,92.125 310.62891,104.00391 c -4.69141,3.3789 -8.89454,7.5 -13.01563,11.58984 -5.19531,5.15625 -8.05078,11.60547 -9.65234,18.74609 -0.59375,2.64844 -2.10157,5.15235 -3.53907,7.51172 -0.41406,0.67969 -2.22265,1.10547 -3.03906,0.77735 -0.74219,-0.30079 -1.50781,-1.85157 -1.38281,-2.73047 0.29297,-2.08594 0.76953,-4.27735 1.75781,-6.10938 14.20313,-26.28906 35.98047,-42.367185 65.29297,-48.292966 17.32813,-3.503906 34.33984,-2.945313 50.70313,4.1875 15.21484,6.628906 25.73046,17.535156 28.77734,34.371096 1.57031,8.6914 0.18359,17.17187 -3.28906,25.29687 -7.58594,17.7461 -21.32032,29.42188 -38.0586,37.89063 -5.57422,2.82422 -11.67578,4.61718 -17.55859,6.82031 -0.87109,0.32422 -1.86719,0.32422 -1.90234,0.33203"
       id="path4"
       inkscape:connector-curvature="0" />
    <path
       style="fill:#000000;fill-opacity:1;fill-rule:nonzero;stroke:none"
       d="m 338.14062,124.24609 c -3.46875,4.82813 -6.95703,9.64063 -10.40234,14.48047 -4.33984,6.09375 -8.61719,12.23438 -13.00781,18.29297 -0.6211,0.85938 -1.70703,1.37891 -2.57422,2.05859 -0.36719,-1.01953 -0.91406,-2.00781 -1.06641,-3.05859 -1.35547,-9.15625 -2.64062,-18.32422 -4.10937,-28.62109 -1.0586,1.67187 -1.67188,2.32031 -1.92578,3.08593 -2.39844,7.21875 -4.71875,14.46485 -7.10157,21.6875 -0.98437,2.98047 -1.40234,5.64844 2.70313,6.92579 h -11.60938 c 4.94532,-1.6875 6.1875,-6.0586 7.66407,-10.21485 2.48828,-7.02734 4.95312,-14.0625 7.37109,-21.11328 1.71094,-4.98828 1.49609,-5.32031 -3.73437,-7.14844 4,-0.96093 8.09765,-0.6875 12.08203,0.10157 0.74609,0.14843 1.30859,2.49609 1.50781,3.89062 1.125,7.86719 2.11328,15.75391 3.29297,24.75781 1.45703,-1.47656 2.38281,-2.20312 3.03906,-3.12109 5.33594,-7.4375 10.72266,-14.83594 15.85547,-22.40625 1.78125,-2.625 3.73828,-3.95703 6.94141,-3.69141 2.55468,0.21094 5.14062,0.043 7.99218,0.32032 -3.76172,1.53515 -4.6289,4.73047 -5.51172,8.10546 -2.01171,7.67579 -4.25,15.28907 -6.44921,22.91407 -0.89063,3.08984 -2.05469,6.17968 2.51562,7.70312 h -16.21875 c 5.00391,-1.33594 5.71094,-5.41015 6.78516,-9.43359 2.21484,-8.27735 4.67578,-16.48828 7.03515,-24.72656 -0.35937,-0.26172 -0.71875,-0.52344 -1.07422,-0.78907"
       id="path6"
       inkscape:connector-curvature="0" />
    <path
       style="fill:#000000;fill-opacity:1;fill-rule:nonzero;stroke:none"
       d="m 383.26172,159.23047 h -19.59375 c 0.0156,-0.28516 0.0156,-0.84375 0.0508,-0.84375 5.10156,-0.32031 6.72266,-3.86328 7.94141,-8.11328 2.67968,-9.35157 5.58593,-18.63672 8.46484,-28.17188 -3.80078,-1.01172 -7.32422,-0.98047 -10.31641,0.97657 -2.80859,1.83593 -5.15234,4.375 -7.70703,6.60546 -0.28515,-0.19531 -0.57031,-0.38672 -0.85547,-0.58203 1.26953,-2.9414 2.4375,-5.9375 3.89844,-8.78515 0.29688,-0.57032 1.73828,-0.86328 2.60938,-0.78516 11.27734,0.98047 22.53515,1.31641 34.2539,-0.39844 -0.33984,3.89844 -0.68359,7.8125 -1.02734,11.72656 -0.3086,0.10938 -0.6211,0.21875 -0.92969,0.32813 -0.68359,-1.69141 -1.34766,-3.39453 -2.05469,-5.07812 -1.1914,-2.83204 -6.23047,-5.41797 -9.01562,-4.38282 -0.85938,0.31641 -1.67578,1.5 -1.97656,2.45703 -2.97657,9.47266 -5.91407,18.95703 -8.70313,28.48828 -1.09766,3.75391 -0.39062,4.42188 4.96094,6.5586"
       id="path8"
       inkscape:connector-curvature="0" />
    <path
       style="fill:#000000;fill-opacity:1;fill-rule:nonzero;stroke:none"
       d="m 251.91016,120.31641 h 17.94531 c -5.30078,0.49609 -6.46094,4.47265 -7.66797,8.48828 -2.51563,8.39062 -5,16.79297 -7.70313,25.125 -0.97656,3.0039 -0.0898,4.04297 2.84766,3.92187 0.82813,-0.0352 1.67578,-0.0937 2.49219,0.0156 6.90625,0.92968 12.38281,-1.31641 16.26953,-7.19532 0.34375,-0.51953 0.83594,-0.9375 2.19531,-1.03515 -0.86719,3.1914 -1.6875,6.39453 -2.66015,9.55078 -0.1211,0.39062 -1.0625,0.75781 -1.6211,0.75781 -10.79687,0.0469 -21.59375,0.0352 -32.73047,-0.55469 6.78516,-2.41796 6.33985,-8.69531 8.05078,-13.63281 2.11329,-6.09765 3.88672,-12.3125 5.78125,-18.48047 1.48829,-4.83593 1.47657,-4.83984 -3.19921,-6.96093"
       id="path10"
       inkscape:connector-curvature="0" />
    <path
       style="fill:none;stroke:#000000;stroke-width:2;stroke-linecap:round;stroke-linejoin:round;stroke-miterlimit:10;stroke-opacity:1"
       d="M -2.625e-4,0.001325 C -12.886981,-2.151019 -24.238544,-8.029925 -34.949481,-15.0768 c -10.46875,-6.886719 -19.308594,-15.855469 -24.875,-27.011719 -9.15625,-18.359375 -7.707031,-39.78125 10.332031,-54.402343 10.765625,-8.722658 23.300781,-12.707028 36.992188,-13.515628 29.136718,-1.71875 54.195312,7.51953 74.96875,28.039065 6.296875,6.21875 10.371093,13.992188 14.03125,21.96875"
       transform="matrix(1,0,0,-1,279.5237,86.0482)"
       id="path12"
       inkscape:connector-curvature="0" />
    <path
       style="fill:none;stroke:#000000;stroke-width:2;stroke-linecap:round;stroke-linejoin:round;stroke-miterlimit:10;stroke-opacity:1"
       d="m -2.625e-4,0.001325 c 8.1210935,1.1875 15.5000005,4.707031 22.4101565,8.660156 11.066406,6.335938 21.152344,14.125 28.609375,24.824219 7.460937,10.707031 11.554687,22.464844 9.851562,35.496094 -1.304687,9.9375 -6.15625,18.324219 -13.84375,25.050781 -11.640625,10.183595 -25.449218,14.097655 -40.523437,15.003905 -20.84375,1.25 -39.960938,-4.30859 -57.429688,-15.156249 -13.019531,-8.089843 -23.238281,-19.054687 -28.574218,-33.878906"
       transform="matrix(1,0,0,-1,364.5237,194.0482)"
       id="path14"
       inkscape:connector-curvature="0" />
    <path
       style="fill:none;stroke:#000000;stroke-width:2;stroke-linecap:round;stroke-linejoin:round;stroke-miterlimit:10;stroke-opacity:1"
       d="m -2.625e-4,0.001325 -8.9999995,-3"
       transform="matrix(1,0,0,-1,269.5237,120.5482)"
       id="path16"
       inkscape:connector-curvature="0" />
    <path
       style="fill:none;stroke:#000000;stroke-width:2;stroke-linecap:round;stroke-linejoin:round;stroke-miterlimit:10;stroke-opacity:1"
       d="m -2.625e-4,0.001325 c -2.1679685,-0.5 -4.3320315,-1 -6.4999995,-1.5"
       transform="matrix(1,0,0,-1,248.0237,157.0482)"
       id="path18"
       inkscape:connector-curvature="0" />
    <path
       style="fill:none;stroke:#000000;stroke-width:2;stroke-linecap:round;stroke-linejoin:round;stroke-miterlimit:10;stroke-opacity:1"
       d="m -2.625e-4,0.001325 c -2.8359375,0.667969 -4.1015625,-1.796875 -5.9999995,-3"
       transform="matrix(1,0,0,-1,350.5237,120.5482)"
       id="path20"
       inkscape:connector-curvature="0" />
    <path
       style="fill:none;stroke:#000000;stroke-width:2;stroke-linecap:round;stroke-linejoin:round;stroke-miterlimit:10;stroke-opacity:1"
       d="m -2.625e-4,0.001325 c -2.4999995,-0.585938 -4.9999995,-1.167969 -7.4999995,-1.75"
       transform="matrix(1,0,0,-1,333.0237,156.7982)"
       id="path22"
       inkscape:connector-curvature="0" />
    <path
       style="fill:none;stroke:#000000;stroke-width:2;stroke-linecap:round;stroke-linejoin:round;stroke-miterlimit:10;stroke-opacity:1"
       d="m -2.625e-4,0.001325 c -2.8320315,-0.585938 -5.6679685,-1.167969 -8.4999995,-1.75"
       transform="matrix(1,0,0,-1,372.0237,156.7982)"
       id="path24"
       inkscape:connector-curvature="0" />
    <path
       style="fill:none;stroke:#000000;stroke-width:2;stroke-linecap:round;stroke-linejoin:round;stroke-miterlimit:10;stroke-opacity:1"
       d="m -2.625e-4,0.001325 c -1.3320315,1.371094 -2.4023435,2.40625 -4.0468745,0.03125 -5.371094,-7.753906 -11.097657,-15.265625 -16.367188,-23.089844 -1.722656,-2.550781 -3.75,-3.90625 -6.585937,-4.441406"
       transform="matrix(1,0,0,-1,341.5237,123.5482)"
       id="path26"
       inkscape:connector-curvature="0" />
    <path
       style="fill:none;stroke:#000000;stroke-width:2;stroke-linecap:round;stroke-linejoin:round;stroke-miterlimit:10;stroke-opacity:1"
       d="M -2.625e-4,0.001325 C -2.668231,-7.166644 -5.363544,-14.322894 -7.984637,-21.506487 c -1.085938,-2.96875 -2.015625,-5.992188 -3.015625,-8.992188"
       transform="matrix(1,0,0,-1,306.0237,126.5482)"
       id="path28"
       inkscape:connector-curvature="0" />
    <path
       style="fill:none;stroke:#000000;stroke-width:2;stroke-linecap:round;stroke-linejoin:round;stroke-miterlimit:10;stroke-opacity:1"
       d="M -2.625e-4,0.001325 C -3.090106,-9.494769 -6.121356,-9.92055 -12.000262,-9.494769 c -4.335938,0.3125 -8.667969,0.660157 -13,0.996094"
       transform="matrix(1,0,0,-1,277.5237,149.0482)"
       id="path30"
       inkscape:connector-curvature="0" />
    <path
       style="fill:none;stroke:#000000;stroke-width:2;stroke-linecap:round;stroke-linejoin:round;stroke-miterlimit:10;stroke-opacity:1"
       d="m -2.625e-4,0.001325 c -0.1679685,0.5 -0.3828125,0.988281 -0.4921875,1.5 C -1.011981,3.997419 -0.949481,8.321638 -2.097919,8.6732 -6.199481,9.915388 -10.7737,11.442731 -15.000262,8.501325"
       transform="matrix(1,0,0,-1,400.5237,131.0482)"
       id="path32"
       inkscape:connector-curvature="0" />
    <path
       style="fill:none;stroke:#000000;stroke-width:2;stroke-linecap:round;stroke-linejoin:round;stroke-miterlimit:10;stroke-opacity:1"
       d="M -2.625e-4,0.001325 C -3.000262,0.165388 -6.000262,0.309919 -9.000262,0.505231 c -2.917969,0.195313 -5.027344,-0.914062 -6.539063,-3.480468 -0.957031,-1.625 -2.292969,-3.023438 -3.460937,-4.523438"
       transform="matrix(1,0,0,-1,380.5237,121.5482)"
       id="path34"
       inkscape:connector-curvature="0" />
    <path
       style="fill:none;stroke:#000000;stroke-width:2;stroke-linecap:round;stroke-linejoin:round;stroke-miterlimit:10;stroke-opacity:1"
       d="m -2.625e-4,0.001325 c -2.3320315,0.5 -4.6679685,1 -6.9999995,1.5"
       transform="matrix(1,0,0,-1,383.5237,159.0482)"
       id="path36"
       inkscape:connector-curvature="0" />
    <path
       style="fill:none;stroke:#000000;stroke-width:2;stroke-linecap:round;stroke-linejoin:round;stroke-miterlimit:10;stroke-opacity:1"
       d="m -2.625e-4,0.001325 c -1.7265625,1.589844 -3.5585935,2.761719 -5.9999995,1.5"
       transform="matrix(1,0,0,-1,257.5237,122.5482)"
       id="path38"
       inkscape:connector-curvature="0" />
    <path
       style="fill:none;stroke:#000000;stroke-width:2;stroke-linecap:round;stroke-linejoin:round;stroke-miterlimit:10;stroke-opacity:1"
       d="m -2.625e-4,0.001325 c -1.6328125,1.765625 -3.6523435,2.367188 -5.9999995,2"
       transform="matrix(1,0,0,-1,306.5237,122.5482)"
       id="path40"
       inkscape:connector-curvature="0" />
    <path
       style="fill:none;stroke:#000000;stroke-width:2;stroke-linecap:round;stroke-linejoin:round;stroke-miterlimit:10;stroke-opacity:1"
       d="m -2.625e-4,0.001325 c 2.0000005,-0.667969 4.0000005,-1.335937 6.0000005,-2"
       transform="matrix(1,0,0,-1,335.5237,156.5482)"
       id="path42"
       inkscape:connector-curvature="0" />
    <path
       style="fill:none;stroke:#000000;stroke-width:2;stroke-linecap:round;stroke-linejoin:round;stroke-miterlimit:10;stroke-opacity:1"
       d="M -2.625e-4,0.001325 C -4.043231,0.8607 -8.051044,0.919294 -12.000262,-0.498675"
       transform="matrix(1,0,0,-1,300.5237,158.5482)"
       id="path44"
       inkscape:connector-curvature="0" />
  </g>
</svg>
