<?xml version="1.0" encoding="utf-8"?>
<!-- Generator: Adobe Illustrator 23.0.4, SVG Export Plug-In . SVG Version: 6.00 Build 0)  -->
<svg version="1.1" id="Layer_1" xmlns="http://www.w3.org/2000/svg" xmlns:xlink="http://www.w3.org/1999/xlink" x="0px" y="0px"
	 viewBox="0 0 1008 1008" style="enable-background:new 0 0 1008 1008;" xml:space="preserve">
<g>
	<path d="M672.1,771c-1.2,3-2.4,6-3.6,9.1c-1.1,2.8-2.3,5.6-3.5,8.4c-0.6,1.3-1.4,2.5-2.4,3.6c-1.6,1.8-3.7,2.7-6,1.8
		c-2.3-0.8-2.8-3-2.8-5.1c-0.1-2.4,0.1-4.8,0.1-7.2c0-0.7,0.1-1.4-0.2-2.3c-0.5,0.7-0.9,1.4-1.4,2.1c-2.3,3.8-5.2,7.1-8.8,9.7
		c-2,1.5-4.3,2.4-6.8,2.9c-4.5,0.9-8.9-1.8-8.7-6.7c0-0.5-0.2-1.1-0.3-1.9c-0.8,0.6-1.4,1.1-2,1.6c-2.6,2.2-5.6,3-8.9,2.7
		c-2.5-0.2-4.5-1.5-6-3.5c-2.4-3.3-3.1-7.1-3.2-11.1c0-0.7,0.1-1.4,0.2-2.4c-0.7,0.4-1.1,0.7-1.5,1c-2.8,1.9-5.6,4-8.5,5.8
		c-1.4,0.9-2.2,1.9-2.7,3.4c-1.8,5.5-5.3,9.4-11,11c-1.1,0.3-2.3,0.5-3.5,0.6c-2.6,0.3-4.7-0.4-6.4-2.4c-0.3-0.3-0.5-0.6-0.8-0.9
		c-0.6,0-1.1,0-1.7,0.1c-2.7,0.4-4.5-0.9-5.5-3.3c-0.6-1.6-0.9-3.4-1.2-5.1c-0.2-0.9-0.1-1.9-0.2-3.4c-0.6,0.9-1,1.4-1.4,1.9
		c-1.9,3.2-4,6.2-6.8,8.7c-2.7,2.5-5.7,4.5-9.5,5.2c-5.1,0.9-8.5-1.6-8.8-6.8c0-0.5-0.1-0.9-0.2-1.8c-0.8,0.6-1.4,1.1-2,1.6
		c-2.4,2-5.1,2.9-8.2,2.8c-3.1-0.1-5.5-1.5-7.2-4.1c-0.7-1.1-1.3-2.4-2.1-3.8c-0.4,0.8-0.7,1.4-1,1.9c-2.4,4-4.5,8.1-7.2,11.9
		c-1.6,2.3-3.8,4.4-6.1,6c-6.8,4.8-13.6,2.4-16.3-5.4c-1.1-3.1-1.5-6.4-1.5-9.7c0-2.8,0-5.5,0-8.7c-1.9,1.3-3.3,2.7-5.1,3.6
		c-3,1.4-4.1,3.7-4.6,6.9c-0.5,3.3-1.1,6.6-0.9,10c0.1,2.4,1,4.5,2.5,6.3c1.1,1.3,1.6,1.3,3,0.2c0.2-0.2,0.5-0.4,0.7-0.6
		c1.3-1,2.5-1.2,3.5-0.4c1.2,0.8,1.5,2,1.3,3.4c-0.6,3.8-4.6,5.9-8.3,4.2c-3.8-1.7-5.9-4.8-6.9-8.7c-0.9-3.5-0.6-7-0.2-10.5
		c0.2-1.7,0.5-3.5,0.7-5.4c-0.6,0.1-1,0-1.3,0.2c-6,2.2-12.2,3.1-18.5,3.7c-1.7,0.2-2.7,0.7-3.5,2.2c-2.7,4.7-5.4,9.4-8.3,14
		c-2.7,4.2-5.9,8-9.7,11.2c-2,1.7-4.2,3.2-6.6,4.3c-5.2,2.4-9.7,1-12.9-3.8c-3-4.5-3.8-9.6-3.3-14.9c0.2-2,0.5-3.9,0.7-5.9
		c-8.4-2.9-19.3,4.6-18.1,15.5c0.3,2.5,1.4,4.6,3.2,6.3c1.7,1.5,3.4,2.9,5.3,4.1c3.3,2.2,6.8,4.3,10.1,6.5c1.9,1.3,3.7,2.8,5.4,4.4
		c6.2,5.8,8.8,13,8.3,21.4c-0.3,6.2-2.3,11.9-5.3,17.3c-3,5.4-6.8,10.3-10.9,14.9c-7.3,8.2-15.3,15.5-24.4,21.5
		c-5.6,3.7-11.8,6.1-18.6,6.3c-9.8,0.3-17.9-3.6-24.5-10.6c-6.8-7-10.8-15.6-13.4-24.9c-1.6-5.6-2.8-11.3-4.4-16.9
		c-1.2-4.3-2.8-8.5-5.3-12.3c-1.4-2.1-3-4-5.1-5.3c-3.8-2.4-7.3-1.9-10.2,1.5c-2,2.4-3.3,5.2-3.8,8.2c-0.9,5.1-1.6,10.3-2.4,15.4
		c-0.6,4.2-1.3,8.4-2.9,12.3c-2.1,5.4-5.4,10-10.3,13.2c-8.5,5.7-18.6,4.7-25.8-2.5c-1.5-1.5-2.5-3.2-2.5-5.5
		c-0.1-8.8-0.3-17.6-0.6-26.4c-0.4-15.7-0.8-31.3-1.3-47c-0.7-26.9-1.5-53.7-2.3-80.6c-0.8-29.2-1.6-58.4-2.4-87.5
		c-0.3-12.2-0.7-24.3-1-36.5c0-1.5,0.4-3,0.6-4.5c0.3-2.1,0.5-4.1,0.7-6.2c1.1-16.7,2.2-33.4,3.3-50c0.9-13.3,1.7-26.7,2.6-40
		c1-15.5,2.1-31,3.1-46.4c0.7-10.9,1.4-21.7,2.1-32.6c0.9-13.1,1.8-26.2,2.7-39.3c0.5-7.9,1-15.8,1.6-23.7c0.8-11.3,1.5-22.7,2.3-34
		c0.5-8.2,1.1-16.4,1.6-24.7c0.7-11,1.5-22,2.2-33c0.5-8,1-16,1.6-23.9c0.7-11.3,1.5-22.5,2.3-33.8c0.5-8,1-16,1.6-23.9
		c0.7-11.3,1.5-22.5,2.3-33.8c0.5-7.3,1-14.5,1.5-21.8c0.5-8.1,1-16.3,1.6-24.4c0.3-3.8-0.6-7.4-2.8-10.4c-2.3-3.2-4.9-6.1-7.4-9.1
		c-2-2.4-4.2-4.6-6.3-6.9c-2.4-2.6-2.3-5.4-0.9-8.5c1.4-2.9,3.7-4.3,6.9-4.3c4-0.1,8,0,12-0.1c21.8-0.2,43.5-0.4,65.3-0.6
		c16.1-0.2,32.2-0.3,48.2-0.5c15.8-0.2,31.7-0.3,47.5-0.5c15.8-0.2,31.5-0.3,47.3-0.5c15.7-0.2,31.4-0.3,47-0.5
		c15.6-0.2,31.2-0.3,46.8-0.5c8.3-0.1,16.6-0.3,25-0.3c5.2,0,10.4,0.1,15.6,0.5c2.2,0.1,4.4,0.7,6.5,1.5c4.6,1.8,7.7,5.1,9,9.9
		c6.2,24,12.4,47.9,18.6,71.9c13.1,50.7,26.1,101.3,39.2,152c11.2,43.5,22.4,87.1,33.6,130.6c0.4,1.4,0.4,3,0.5,4.5
		c0.1,2.2,0.7,4.3,1.9,6.1c1.5,2.2,3,4.6,4.9,6.5c8.5,8,13.2,18.1,16.3,29.1c1.2,4.4,2.5,8.8,3.9,13.1c1.6,5.1,3.8,9.8,6.6,14.3
		c1.9,3,3.7,6,5.5,9c4.7,7.7,6,16.1,4.4,24.9c-0.6,3.5-1.3,6.9-1.6,10.4c-0.3,4.5-0.3,9.1-0.3,13.6c0,3.8,0.2,7.5,0.2,11.3
		c-0.1,5.5-1.6,10.5-4,15.4c-1.8,3.7-3.8,7.4-5.3,11.3c-3.1,7.9-2.1,15.5,2.2,22.8c2.2,3.7,4.5,7.4,6.5,11.2
		c6.1,12,10.3,24.8,12.6,38.1c1.2,7.2,0.9,14.3-1.4,21.3c-0.4,1.1-0.7,2.3-1.1,3.4c-2.6,7.2-2.9,14.5-1.9,22
		c1.7,12.4,0.4,24.3-5.1,35.5c-4.1,8.3-9.5,15.7-15.8,22.5c-3.6,3.9-7.9,6.5-13.4,6.7c-1.7,0.1-3.5-0.1-5.2-0.6
		c-3.7-1.1-5.4-3.7-5.5-7.5c0-0.4,0-0.7-0.1-1.5c-3.4,3.4-7.1,5.2-11.6,4.3c-4.9-0.9-6.5-4.9-8.1-9.4c-0.5,1-0.9,1.7-1.3,2.5
		c-2.3,4.5-5.1,8.7-8.5,12.4c-1.9,2.1-4,3.9-6.6,5.1c-4.1,1.8-7.2,0.2-8.3-4.2c-0.8-3.3-0.3-6.5,0.3-9.8c1.7-9.8,3.6-19.5,5.3-29.2
		c0.6-3.5,1.1-7.1,1.1-11.2c-1.4,1.4-2,2.7-2.5,4c-1.6,4.4-3.2,8.9-4.7,13.3c-2.1,6.4-4.1,13-6.3,19.4c-0.7,2-1.9,3.9-3.1,5.6
		c-1.2,1.6-2.8,2.7-5,2c-2.2-0.7-3.3-2.4-3.3-4.5c-0.1-3.2,0.1-6.4,0.2-9.6c0-1.1,0.2-2.2,0.2-3.3C672.5,771.1,672.3,771,672.1,771z
		 M744,778.2c2,0,3.2-0.8,4.2-1.8c1.3-1.2,2.5-2.5,3.5-3.9c2.5-3.5,4.9-7.1,7.2-10.8c4.5-7.2,6.8-15.1,6.4-23.7
		c-0.2-5-0.5-9.9-0.8-14.9c-0.4-5.7,0-11.3,1.6-16.9c0.9-3.1,1.8-6.1,2.7-9.2c1-3.7,1.5-7.3,0.9-11.1c-1.3-8.4-3.5-16.6-6.6-24.5
		c-2.8-7.2-6.1-14.2-10.4-20.7c-4.1-6-6-12.8-6.2-20.1c-0.2-7.8,1.7-15.2,5.1-22.2c1.1-2.2,2.1-4.5,3.2-6.7
		c2.1-4.6,2.9-9.4,2.6-14.5c-0.2-4.5-0.2-9.1-0.3-13.7c-0.1-5.8,1.1-11.4,2.1-17.1c1.1-6.1,0.4-11.9-3-17.3
		c-1.5-2.3-2.9-4.6-4.4-6.9c-3.3-4.9-5.9-10.2-7.7-15.9c-1.5-4.9-3-9.8-4.4-14.7c-2.5-9.2-6.7-17.4-13.1-24.5
		c-2.5-2.8-4.7-5.8-6.9-8.9c-2.6-3.7-4-8-4.4-12.5c-0.1-1.3-0.3-2.7-0.6-4c-3.9-15.4-7.9-30.8-11.9-46.2
		c-13.1-50.7-26.1-101.3-39.2-152c-12.2-47.5-24.5-95-36.7-142.5c-1-3.9-2-7.9-3.1-11.9c-1-0.1-2-0.3-2.9-0.3c-7,0-13.9,0-20.9,0.1
		c-15.5,0.1-31,0.3-46.5,0.5c-31.5,0.3-63,0.6-94.5,1c-15.6,0.2-31.2,0.3-46.8,0.5c-18.1,0.2-36.2,0.4-54.2,0.5
		c-23.7,0.2-47.3,0.4-71,0.6c-0.8,0-1.7,0.1-2.8,0.2c0.7,0.9,1.2,1.5,1.7,2.2c1.8,2.6,3.8,5.2,5.3,8c2.1,3.7,3.3,7.9,3,12.2
		c-0.4,7.3-0.9,14.7-1.4,22c-0.8,11.3-1.5,22.5-2.3,33.8c-0.5,8-1,16-1.6,23.9c-0.8,11.3-1.5,22.5-2.3,33.8c-0.5,8-1,16-1.6,23.9
		c-0.7,11.3-1.5,22.5-2.3,33.8c-0.5,8-1,16-1.6,23.9c-0.8,11.3-1.5,22.7-2.3,34c-0.5,8-1.1,16-1.6,23.9c-0.7,10.9-1.5,21.9-2.2,32.8
		c-0.5,8.2-1.1,16.4-1.6,24.7c-0.7,11.3-1.5,22.5-2.3,33.8c-0.5,8-1,16-1.6,23.9c-0.7,10.9-1.5,21.9-2.2,32.8
		c-0.7,10.7-1.4,21.4-2.1,32.1c-0.8,11.4-1.5,22.8-2.3,34.2c-0.6,8.4-1.1,16.8-1.7,25.1c-0.2,2.9-0.7,5.7-0.7,8.6
		c0,5.7,0.3,11.4,0.4,17c0.6,23.3,1.3,46.5,1.9,69.8c0.6,23.3,1.3,46.7,1.9,70c0.6,23.3,1.3,46.5,1.9,69.8
		c0.4,14.2,0.8,28.3,1.1,42.5c0,0.9,0,1.7,0,2.5c2,0.8,3.2-0.1,4.4-1c3.3-2.7,5.5-6,6.5-10.1c0.5-2.1,0.8-4.2,1.1-6.4
		c0.7-4.8,1.1-9.7,2-14.5c1.1-5.9,3.4-11.3,7.4-16c4.3-5,9.6-7.9,16.2-8.1c5.8-0.2,10.8,1.9,15.3,5.3c5.7,4.3,9.4,10.2,11.8,16.9
		c1.9,5.3,3.4,10.7,4.9,16c1.7,6,3.1,12.1,5.8,17.7c2,4.2,4.5,8.1,8.1,11.2c5.6,4.8,11.7,5.9,18.5,2.8c3.6-1.6,6.8-3.9,9.7-6.5
		c5-4.6,10-9.2,14.9-14c2.4-2.3,4.5-5,6.6-7.6c2.3-2.9,4-6.1,5.3-9.6c3-8.7,1.2-14.3-6.3-19.5c-2.4-1.7-5-3.1-7.5-4.7
		c-3.7-2.3-7.2-4.8-10.1-8c-6-6.6-8.2-14.3-6.5-23.1c1.3-7,5.1-12.4,10.1-17.3c2.9-2.7,6-3.6,9.8-3.2c4.3,0.5,8.4,1.7,12.5,3.2
		c0.9,0.3,1.7,0.6,2.7,1c0.4-0.8,0.7-1.5,1-2.1c1.6-3.4,3.5-6.6,6-9.5c3-3.5,6.8-5.8,11.3-6.7c3.4-0.7,6.5,0.5,8.3,3.4
		c1.7,2.6,2.4,5.6,1.8,8.7c-0.2,1-0.4,2-0.7,3.1c1.6,0.1,2.7-0.4,3.4-1.6c0.7-1.2,1.3-2.4,1.9-3.6c6.9-13.6,13.7-27.3,20.7-40.9
		c4.3-8.3,9.4-16.2,15.3-23.5c1.1-1.4,2.5-2.7,3.9-3.8c1.3-1.1,3-1.6,4.7-1.5c2.6,0.2,3.8,1.3,3.9,3.9c0,0.8,0,1.6-0.1,2.4
		c-0.7,4.1-1.2,8.2-2.2,12.3c-2.9,11.6-6,23.2-9,34.8c-0.9,3.6-1.7,7.3-2.7,11.3c0.9-0.5,1.4-0.7,1.8-1c1.6-1.3,3.2-2.7,4.8-3.9
		c1.5-1.1,2.1-2.6,2.4-4.4c1.1-5.5,2.1-11,3.5-16.4c2.5-9.4,5.7-18.5,10.8-26.8c1.8-2.9,4-5.6,6.2-8.2c1.8-2.2,4.3-3.6,7.1-4.2
		c4.7-1.1,8.5,1,9.8,5.7c0.3,0.9,0.5,1.9,0.5,2.8c0.2,3.4,0,6.9-0.8,10.2c-2.4,9.6-7,18-13.5,25.4c-3.3,3.7-7.1,6.9-10.7,10.3
		c-1.4,1.3-2.4,2.6-2.5,4.6c-0.6,6.4-1,12.8-0.7,19.2c0.1,1.9,0.4,3.8,0.8,5.7c0.6,2.8,1.4,3.1,3.8,1.5c1.8-1.2,3.5-2.6,4.8-4.3
		c2.2-3,4.3-6.2,5.9-9.6c2.3-5,4.4-10.1,6.3-15.3c3.6-9.7,13.7-16,23.9-14.6c3.1,0.4,5.9,1.6,7.1,4.6c1.2,3.1,1.3,6.4,0.4,9.7
		c-0.9,3.2-2.1,6.2-2.8,9.4c-0.6,2.6-1,5.3-1.1,8c-0.1,2.8,1.6,3.7,3.9,2.2c1.8-1.2,3.4-2.6,4.9-4.2c3.6-3.8,6.2-8.3,8.9-12.8
		c0.5-0.8,0.7-1.8,0.8-2.7c0.6-5.1,0.9-10.2,1.6-15.3c1-7.9,2.4-15.6,4.7-23.2c1.4-4.5,3.1-8.7,5.7-12.6c1.6-2.4,3.6-4.5,6.4-5.6
		c3.1-1.1,5.8-0.4,7.5,2.4c0.7,1.1,1.3,2.4,1.6,3.7c1,4.1,0.5,8.1-0.3,12.1c-2.5,12.4-6.8,24.1-12.7,35.3c-0.3,0.6-0.6,1.2-0.9,1.9
		c0.4,0,0.5,0,0.7,0c6.5-2.5,10.9-1.2,15,4.5c1,1.4,1.8,1.8,3.5,1.2c1.5-0.5,3-1.2,4.3-2.1c2.6-1.9,5-3.9,7.5-6
		c0.5-0.4,0.9-1.1,1.3-1.7c5.1-7.5,12.3-11,21.3-10.4c4.1,0.3,7.1,2.3,8.4,6.4c0.8,2.3,0.4,4.6-0.3,6.8c-1,3.5-2,6.9-3,10.4
		c-0.8,2.7-1.4,5.4-1.2,8.3c0.2,2.8,1.7,3.6,4,2.1c1.8-1.2,3.4-2.6,4.9-4.2c3.5-3.8,6.1-8.2,8.8-12.6c0.4-0.6,0.6-1.3,0.9-2
		c1.1-3.1,3.8-4.5,7-3.5c1.9,0.6,2.8,1.8,2.7,3.7c-0.1,1-0.4,2-0.7,3c-1.1,3.5-1.4,7.1-0.9,10.8c0.7-1.1,1.2-2.2,1.7-3.4
		c2.1-5.9,4.2-11.9,6.3-17.9c0.6-1.6,1.3-3.3,2.2-4.8c1.5-2.4,4.3-2.5,5.9-0.2c0.8,1.1,1.3,2.6,1.4,4c0.2,3.7,0.2,7.3,0.2,11
		c0,1.6,0,3.2,0,4.8c0.7-0.7,1-1.5,1.2-2.3c1.8-6.1,3.5-12.3,5.3-18.4c1.4-4.6,3.1-9.1,5.7-13.2c0.8-1.3,1.8-2.6,3-3.7
		c3.8-3.8,12.4-2.2,13.5,4.5c0.5,3.4,0.5,6.7-0.3,10c-1.8,7.1-3.8,14.2-5.7,21.3c-1.1,3.9-2.2,7.9-2.2,12c0,0.9,0.1,1.8,0.2,2.9
		c1.8-0.7,2.8-1.9,3.6-3.1c2.7-4.2,5.3-8.4,7.8-12.7c1.3-2.2,2.5-4.5,3.4-6.8c2.6-7.2,7.7-11.8,14.9-14.2c3.2-1,6.4-1.4,9.7-0.7
		c4.3,0.9,6.8,3.1,7.5,7.5c0.3,2.1,0.1,4.1-0.5,6.2c-1,3.3-2,6.6-2.9,9.9C744.5,776.2,744.3,777.1,744,778.2z M453.1,787
		c6.5-0.7,12.6-1.7,18.3-4.2c1.3-0.6,1.9-1.4,2.1-2.8c1.3-6.6,2.6-13.2,4.1-19.7c2.4-10.2,5.1-20.4,7.6-30.7
		c0.2-0.9,0.4-1.9,0.7-3.3C482.9,729.3,456.4,778.4,453.1,787z M500.3,761.1c0.1,0.1,0.3,0.2,0.4,0.3c0.3-0.3,0.7-0.6,1-0.9
		c6.6-6.7,12.3-14.1,16.1-22.8c1.3-2.9,2.2-6,2.9-9.1c0.5-2.2,0.3-4.6,0.1-6.9c-0.2-2.2-1.6-2.7-3.4-1.4c-1.1,0.8-2.1,1.8-2.8,2.9
		c-1.8,2.9-3.6,5.9-5,9c-3.8,8.6-6.5,17.5-8.8,26.6C500.7,759.6,500.5,760.4,500.3,761.1z M414.8,800.7c-0.2,1.9-0.5,3.6-0.7,5.2
		c-0.3,3.6,0.1,7,2,10.2c1.5,2.6,3.1,3.1,5.5,1.2c2.2-1.7,4.2-3.7,6-5.9c3.9-4.9,7.2-10.2,10-15.7c0.2-0.4,0.3-0.9,0.6-1.8
		c-3.3,0.9-6.2,1.5-8.7,3.4c-1.2,0.9-2.5,1.7-3.8,2.5c-2.7,1.5-5.5,2-8.5,1.3C416.4,800.8,415.8,800.8,414.8,800.7z M618.3,777.6
		c0.1,1.1,0.1,2.2,0.2,3.3c0,0.4,0.1,0.8,0.2,1.2c0.7,2.6,2,3.2,4.4,1.9c1.8-0.9,2.8-2.4,3.5-4.1c2.1-5.1,4.2-10.3,6.2-15.5
		c0.6-1.5,0.1-2.4-1.5-2.9c-0.9-0.3-1.9-0.4-2.8-0.3c-1.9,0.2-3.4,1.3-4.7,2.6C619.9,767.5,618.2,772.2,618.3,777.6z M528.5,778.8
		c0.1,1.3,0.1,2.6,0.2,3.8c0.5,3.5,2.7,4.4,5.5,2.1c0.6-0.4,1-1,1.4-1.6c0.6-1,1.3-2,1.7-3.1c1.9-4.7,3.7-9.4,5.5-14
		c0.1-0.4,0.3-0.8,0.3-1.2c0.1-1.6-0.6-2.3-2.2-2.5c-2.7-0.2-5,0.7-6.9,2.6C530.2,768.8,528.4,773.4,528.5,778.8z M725.5,776.1
		c0.1,1.3,0.2,2.7,0.5,4c0.6,3.1,2.1,3.8,4.7,2.1c0.8-0.5,1.6-1.3,2.2-2.2c0.9-1.3,1.6-2.7,2.2-4.2c1.5-3.8,3-7.7,4.4-11.6
		c0.7-2,0.3-2.9-1.4-4c-1.3-0.8-2.7-1.1-4.1-0.3c-1.1,0.6-2.2,1.4-3.1,2.2C727.1,766,725.5,770.7,725.5,776.1z M577.1,758.4
		c0.1,0.1,0.3,0.1,0.4,0.2c0.4-0.8,0.8-1.6,1.2-2.5c3.5-8.6,6.4-17.4,8.7-26.3c0.7-2.7,0.7-5.5,0.8-8.3c0.1-1.2-0.2-2.5-1.1-3.5
		c-1.6,1-2,1.3-2.8,3.2c-1,2.7-2.2,5.4-2.7,8.1c-1.3,6.7-2.3,13.5-3.4,20.3C577.7,752.5,577.5,755.5,577.1,758.4z M417,793.7
		c0.8,0.2,1.2,0.3,1.6,0.3c5.3,0.3,12.3-4.4,14.1-9.4c0.2-0.5,0.3-1.1,0.4-1.6c0.2-1.3-0.3-2.4-1.4-3.1c-1.1-0.8-2.3-1-3.6-0.3
		C422.6,782.8,419.4,787.7,417,793.7z M576.6,784.9c2.4,0,4.1-0.9,5.6-2.2c1.8-1.5,3.4-3.1,5.1-4.7c1.6-1.6,1.4-3.8-0.4-5
		c-1.9-1.3-4.9-1.2-6.3,0.7C578,776.9,576.8,780.6,576.6,784.9z"/>
</g>
</svg>
