<?xml version="1.0" encoding="utf-8"?>
<!-- Generator: Adobe Illustrator 23.0.4, SVG Export Plug-In . SVG Version: 6.00 Build 0)  -->
<svg version="1.1" id="Layer_1" xmlns="http://www.w3.org/2000/svg" xmlns:xlink="http://www.w3.org/1999/xlink" x="0px" y="0px"
	 viewBox="0 0 1008 1008" style="enable-background:new 0 0 1008 1008;" xml:space="preserve">
<g>
	<path d="M497.2,414.9c-0.7,0.3-1.2,0.4-1.7,0.7c-6.3,3.6-13,4.2-20,3.2c-9.5-1.3-18.8-3.6-28.1-6c-3.9-1-7.5-2.7-10.4-5.6
		c-4.1-4-6.2-8.8-4.9-14.6c0.3-1.4,0-2.5-1.2-3.3c-1.4-0.9-2.8-1.7-4.2-2.6c-3.9-2.4-6.6-5.7-7.7-10.2c-1.3-5,0-9.3,3.8-12.7
		c3-2.6,6.5-4.2,10.3-5.4c8.6-2.7,17.3-5.4,25.9-8c3.9-1.2,7.8-2.2,11.7-3.4c3-0.9,5.4-0.2,8,1.7c4.3,3,6.7,7,8.3,11.8
		c0.4,1.1,1.1,2.3,2,3.1c1.6,1.7,3.3,3.3,5.1,4.8c1.4,1.1,3,2,4.9,2.1c1.8,0.1,2.5-0.7,1.9-2.4c-0.6-1.5-1.2-3-1.9-4.5
		c-1.4-2.9-2.5-5.9-2.8-9.1c-0.3-3.1-1.8-5.6-3.9-7.8c-3.8-3.9-8.3-6.8-12.7-9.9c-2.1-1.5-4.2-3-6.1-4.7c-2.1-1.7-3.5-4-4.5-6.5
		c-0.8-2-1.6-4.1-2.3-6.1c-2.4-6.9-6.7-12.3-12.5-16.6c-0.3-0.2-0.6-0.5-0.9-0.7c-4-2.3-5.6-6.9-3.2-11.8c1.5-3.1,3.4-6,5.4-8.7
		c2.3-3.2,5.7-4.8,9.6-5.3c6.2-0.8,12-2.8,17.6-5.4c1.1-0.5,1.7-1.1,2.1-2.3c1.5-4.5,3.7-8.8,6.9-12.4c3.3-3.7,7.4-6.1,12.5-5.7
		c4.6,0.4,6.7,2.9,6.3,6.8c-0.2,2-0.6,4-0.9,6.2c1.4,0.2,2.2-0.7,2.8-1.8c1.3-2.5,2.6-5,3.9-7.5c5.5-10.3,10.8-20.7,16.4-31
		c3.4-6.3,7.5-12.2,12.2-17.7c1-1.2,2.2-2.2,3.4-3.2c0.5-0.4,1.2-0.8,1.8-1c4-1.4,6.3,0.5,5.8,4.7c-0.9,7.8-3.1,15.3-5.2,22.8
		c-1.9,6.8-3.8,13.5-5.7,20.3c-0.2,0.6-0.2,1.2-0.4,2.4c2.3-1.5,4.2-2.7,5.9-4.1c0.6-0.4,0.7-1.5,0.8-2.3c1.4-7,3.3-13.8,5.8-20.4
		c2.1-5.6,4.6-10.9,8.1-15.7c1.2-1.6,2.5-3.2,4-4.6c2.1-2,4.5-3.3,7.5-3.4c3-0.1,5.3,1.4,6.4,4.2c0.9,2.2,0.9,4.6,0.7,6.9
		c-0.3,4.7-1.7,9-3.7,13.2c-4,8.4-9.7,15.5-17.1,21.1c-2.3,1.7-3.3,3.6-3.4,6.5c-0.3,5.7-1,11.3-0.4,17c0.2,1.4,0.6,2.7,0.9,4.1
		c2.4-0.3,3.9-1.6,5.2-2.9c2.3-2.3,4.2-5,5.6-8c2.1-4.6,4.2-9.2,6-14c3-8.1,10.9-12.8,18.8-12.6c6.9,0.2,10.4,4.6,8.6,11.7
		c-0.7,2.9-2,5.6-2.8,8.4c-0.6,2.2-1,4.6-1.1,6.9c-0.1,2.5,1.1,3.2,3.2,1.8c1.5-1,3-2.1,4.1-3.5c2.8-3.6,5.3-7.3,7.9-11
		c0.7-0.9,0.6-1.8,0.1-2.8c-1.7-4.1-1.3-8.3,0.4-12.3c2-4.6,7.5-6.7,12.2-4.8c3.5,1.4,4.6,5,2.7,8.1c-0.9,1.5-2.7,2-3.5,0
		c-0.2-0.5-0.8-0.8-1.2-1.3c-0.5,0.5-1.4,1-1.5,1.6c-0.1,1.4-0.1,3,0.2,4.4c1.2,4.5,4,8,6.9,11.8c0.9-0.7,1.6-1.2,2.3-1.8
		c2-1.5,3.9-3.1,6-4.5c1.1-0.8,1.7-1.7,1.9-3c1.8-10.2,4.4-20.1,8.5-29.6c1.9-4.5,4.2-8.7,7.4-12.4c1.9-2.2,4.1-3.8,7.1-4.3
		c4.8-0.9,8.3,2,8,6.8c-0.2,2.6-0.6,5.3-1.5,7.8c-4.1,11.1-9.2,21.9-16.4,31.4c-1.2,1.6-2.5,3-3.7,4.6c-0.8,1.1-1.4,2.4-2.1,3.5
		c0.1,0.1,0.3,0.2,0.4,0.3c0.4-0.3,0.7-0.6,1.1-0.9c1.5-1.5,3-3.2,4.6-4.6c2.5-2.1,5.4-3.4,8.8-3.4c2.6,0.1,4,1.4,4.1,4.1
		c0.1,2.4-0.7,4.5-2.5,6.1c-1.6,1.4-3.3,2.5-5,3.8c-0.9,0.7-1.9,1.3-3,2.1c4,3.9,4.5,8.6,4.5,13.5c0,1.6-0.1,3.3-0.1,4.9
		c0,0.8,0.1,1.7,0.3,3c1-0.6,1.7-0.9,2.4-1.4c3.3-2.7,5.9-6,8.1-9.6c3.5-5.8,6.1-12,8.5-18.2c0.9-2.3,1.8-4.6,2.9-6.9
		c3.5-7.1,11.8-11.3,19.7-10.1c4,0.6,7.9,3.8,6.9,9.1c-0.6,3.2-1.8,6.3-2.6,9.4c-0.5,1.8-1,3.6-1.4,5.4c-0.2,1-0.2,2.1-0.3,3.6
		c1-0.5,1.6-0.8,2.1-1.2c0.5-0.3,1-0.7,1.5-1.2c3.7-4.2,8.4-4.2,13.4-3.5s7.4,4.1,8.4,8.6c1.2,5.4,2.1,10.9,3.2,16.3
		c4.1,19.5,8.1,39.1,12.5,58.6c7.4,33.1,15.2,66.1,22.6,99.2c4.4,19.4,8.4,38.9,12.5,58.3c0.7,3.4,1.3,6.9,2,10.3
		c0.1,0.6,0.3,1.2,0.5,1.9c2.7,0,5.4-0.1,8,0c8.2,0.4,15.2,3.3,20.4,9.8c2.7,3.3,5.9,5.9,9.7,8c4.1,2.3,8.1,4.7,12.2,7
		c0.5,0.3,1,0.5,1.6,0.8c0.4-0.6,0.9-1.1,1.2-1.7c1.9-3.2,3.7-6.5,5.6-9.7c0.6-1.1,1.2-2.2,1.8-3.3c2.9-5.2,7.4-7.1,13.1-6.8
		c3.5,0.2,6.7,1.3,9.8,2.9c5,2.6,9.1,6.3,13,10.2c6,6,12.5,11.2,19.6,15.9c5.2,3.4,10.2,7.2,14.7,11.6c7,7,13.1,14.7,16.7,24.1
		c0.2,0.4,0.4,0.8,0.6,1.3c1,2.8,2.9,3.8,5.9,3.9c11.5,0.4,22.5,3.1,32.8,8.4c6.5,3.3,10.2,8.5,11.6,15.6c1,5.2,1.4,10.5,0.4,15.8
		c-0.9,5-2.9,9.4-6.9,12.7c-5.1,4.1-10.8,5.5-17.4,3.1c0.2,1.1,0.4,2.1,0.5,3c0.3,2,0.8,4,0.8,6c0.1,4.4-1.9,7.2-6.1,8.6
		c-4.3,1.4-8.7,1.4-13.2,0.4c-6.6-1.5-12.2-4.9-17.1-9.6c-6.3-6-10.7-13.4-14.4-21.2c-0.7-1.5-1.5-3.1-2.3-4.9c-0.4,0.6-0.7,1-1,1.5
		c-0.6,1.2-1.2,2.4-1.8,3.5c-2.4,4-6.6,5.4-10.6,3.1c-3-1.7-5.9-3.8-8.6-6.1c-4.2-3.7-7.5-8.1-9.3-13.5c-0.5-1.5-1.1-2.9-1.6-4.4
		c-1.6-4.7-4.4-8.3-8.5-11.1c-5.3-3.6-9.2-8.6-12.2-14.2c-0.4-0.7-0.7-1.4-1.1-2.1c0-0.1-0.1-0.1-0.2-0.1c-2.5-0.3-5-0.5-7.4-0.9
		c-5.5-0.9-10.3-3.4-15-6.3c-5.2-3.2-10.3-6.5-15.5-9.6c-14.6-8.4-30.3-13.4-46.9-15.7c-0.8-0.1-1.7-0.2-2.6,0
		c-6.1,0.8-12.2,1.8-18.3,2.6c-3.6,0.5-7.1,0.8-10.7,1c-3.9,0.3-7.7-0.5-10.9-2.7c-3.9-2.6-8.2-3.6-12.7-4.3
		c-2.7-0.4-5.3-1.2-7.8-2.2c-3.8-1.6-6.5-4.4-8.1-8.3c-0.4-0.9-0.8-1.9-1.2-2.9c-2.9,0.3-5.4,1.5-7.8,2.7c0.2,7.4-3,13.1-8.2,17.7
		c-2,1.8-4.2,3.6-6.4,5c-7.3,4.7-13.6,10.4-19.7,16.5c-3.5,3.5-7.2,6.7-11.4,9.4c-3,2-6.3,3.5-9.9,4c-3.2,0.5-6.2-0.2-8.9-1.9
		s-4.2-4.2-3.8-7.5c0.2-1.3,0.9-2.6,1.5-4.1c0,0-0.2-0.4-0.4-0.7c-1.6-2.4-1.9-4.8-0.9-7.5c3.8-10.2,7.6-20.3,13.1-29.7
		c2.2-3.7,4.6-7.2,7.1-10.9c-0.5,0.1-1,0.2-1.4,0.3c-3.4,1.1-6,3.4-8.2,6c-1.6,1.8-3,3.8-4.3,5.8c-7.6,12.3-15.1,24.6-22.6,36.9
		c-0.8,1.4-1.6,2.9-2.4,4.4c0.4,0.4,0.8,0.7,1.1,1c5.4,4.8,6.5,12.3,2.9,18.5c-1.6,2.7-3.9,4.9-6.1,7c-9.3,8.9-18.6,17.8-27.9,26.7
		c-11.5,11.1-23.2,22-36.1,31.6c-14.4,10.8-30.3,18.8-47.3,24.7c-15.3,5.3-30.9,9.2-46.7,12.6c-4.9,1.1-9.9,2.1-14.9,3
		c-5.3,1-10.7,1.1-16-0.7c-0.9-0.3-1.8-0.6-2.6-1c-4.2-2-6-5.9-4.8-10.4c1.9-7,5.7-12.9,11-17.6c9.2-8.2,19.8-13.8,31.9-16.5
		c3.4-0.8,7-0.5,10.5-0.6c3.8,0,7.4-0.9,10.7-2.8c0.9-0.5,1.9-1,2.8-1.7c8.1-6.1,17.4-9.6,26.9-12.8c4.3-1.4,8.5-3.1,12.6-5
		c12.6-5.7,20.4-15.5,24.3-28.7c1-3.6,1.8-7.2,2.7-11.1c-3.8-0.2-7.2-0.2-10.5,0.6c-1.1,0.3-1.8,0.9-2,2.2c-0.5,3.1-2.3,5.2-5.4,6.1
		c-3,0.9-5.5-0.1-7.6-2.3c-1.9-1.9-3.8-3.7-5.8-5.4c-1.4-1.2-2.8-2.2-4.4-3.1c-3.8-2.4-8-3.1-12.3-1.7c-2.1,0.6-4.2,1.3-6.3,1.8
		c-8.9,2.3-16.2-3.2-16.6-12.3c-0.1-3.1,0.4-6.1,1.3-9c1-3.5,1.7-7.1,1.1-10.8c-0.3-2.2-0.9-4.1-2-5.9c-1.4,0.8-2.8,1.7-4.3,2.3
		c-7.3,2.5-13.8,0.7-19.6-4.1c-3.8-3.2-6.4-7.3-8.4-11.7c-2.5-5.4-4.2-11.1-3.6-17.2c0.2-2,0.6-4,1.1-6c0.6-2.7,0.6-5.4-0.5-8
		c-1.2-2.7-2.5-5.4-3.7-8.1c-1.7-3.7-2.5-7.5-2.1-11.6c0.4-4.3,2.1-8,5.1-11c3.4-3.4,7-6.6,10.5-10.1c4.5-4.5,8.1-9.9,11.7-15.1
		c0.4-0.6,0.6-1.4,0.7-2.2c0.6-2.8,2.4-4.5,5.1-5.3c2.6-0.7,5.2-0.6,7.1,1.6c1.5,1.7,3.1,1.9,5.1,1.1c1.1-0.5,2.2-0.9,3.1-1.6
		c1.6-1.1,3.2-2.2,4.7-3.5c3.6-3.4,8-5.4,12.7-6.7c2.2-0.6,4.4-1.2,6.5-1.9c3.1-1,3.7-2.1,2.7-5.3c-0.3-1.1-0.7-2.2-1.1-3.3
		C496.7,421.5,496.5,419.6,497.2,414.9z M895.2,613.6c0.2-0.5,0.2-0.8,0.3-1c0.8-3.1,1-6.3,0.8-9.5c-0.2-3.6,1.5-6,4.7-7.2
		s6.1-0.6,8.2,2.1c1.7,2.1,3.5,4.3,4.8,6.6c3.4,6.1,6.7,12.3,9.9,18.6c2.3,4.3,4.5,8.6,7.6,12.4c3.3,4.1,7.3,7.2,12.3,9
		c0.6,0.2,1.2,0.3,2,0.4c-0.7-3-1.5-5.6-2-8.2c-1-5.4,0.8-9.5,5.1-11.7c3.9-2,7.9-2.2,11.8,0.1c1.1,0.7,2.3,1.3,3.5,1.8
		c1.8,0.7,3.2,0.1,4.2-1.5c0.4-0.7,0.8-1.4,0.9-2.1c0.3-2.3,0.5-4.6,0.5-7c0-5.4-2.6-9.2-7.9-10.8c-4.2-1.3-8.3-2.8-12.6-3.7
		c-4.7-1-9.6-1.4-14.4-1.9c-5.8-0.7-10.3-3.3-13.1-8.6c-0.6-1.1-1.2-2.2-1.7-3.3c-3.1-6.9-7.2-13.1-12.3-18.7
		c-4.7-5.2-10.3-9.3-16-13.2c-6.2-4.3-12.5-8.5-18-13.8c-2.7-2.6-5.3-5.3-8.1-7.8c-2.2-2-4.8-3.2-7.7-3.8c-0.3,0.5-0.5,1-0.7,1.5
		c-2,3.9-4,7.8-6.2,11.5c-1.6,2.7-3.5,5.1-6.1,7c-2.9,2.1-5.9,0.5-9.4-0.7c-2.4-0.8-5.6-2.2-7.9-3.4c-2.8-1.5-5.1-2.6-7.9-4.1
		c-6.9-3.6-13-5.8-18.1-11.8c-2.6-3.1-6.1-4.4-10-4.3c-3.6,0.1-7.2,0.3-10.7,0.7c-4.8,0.5-8-0.4-9.3-6.6
		c-4.8-23.8-9.6-47.5-14.8-71.2c-7.4-33.6-15.4-67-22.9-100.6c-4.9-21.8-9.3-43.6-13.9-65.4c-0.7-3.5-1.3-7.1-2.1-10.6
		c-0.6-3-3-4.2-5.8-3.2c-0.5,0.2-1,0.6-1.5,0.7c-1.9,0.5-3.7,1.2-5.6,1.3c-3.2,0.2-5.5-2-5.9-5.2c-0.1-0.6-0.1-1.1-0.2-2
		c-2.6,2.5-5.4,3.6-8.7,3.4c-3.6-0.2-5.5-2.7-7.2-5.8c-0.4,0.9-0.6,1.4-0.9,1.9c-2.6,4.9-5.1,9.8-7.9,14.6c-1.5,2.5-3.4,4.8-5.5,7
		c-1.2,1.3-2.9,2.4-4.6,3.1c-2.6,1.2-4.5,0.5-6-1.9c-0.6-1-1.1-2.1-1.3-3.2c-0.6-3.1-0.9-6.2-1.3-9.2c-0.4-2.6-0.8-5.2-1.4-7.8
		c-0.2-0.8-0.8-1.6-1.2-2.4c-1.9,0.4-2.7,1.7-3.6,2.9c-1.3,1.9-2.6,3.9-3.9,5.9c-0.6,0.9-1.5,1.4-2.6,1.2c-1.2-0.2-2-0.9-2.3-2
		s-0.6-2.3-0.5-3.5c0-3.7,0.2-7.3,0.3-11c0-0.8,0.1-1.6,0.2-2.6c-2.7,1.3-5.3,3.3-6.5,4.9c0.2,0.5,0.5,1.1,0.8,1.6
		c2.7,5.4,4.4,11,4.5,17c0.1,5.5-2.3,11.8-10.4,13.2c-0.3,0.1-0.6,0.1-0.9,0.1c-5.1,0.8-10-1.9-11.8-6.7c-1.2-3.2-1.4-6.5-0.6-9.9
		c1.1-4.7,4-8.4,7.1-12c0.5-0.6,1-1.2,1.6-1.9c-2-2.6-4-5.2-6.1-7.9c-1.9,3-3.5,5.8-5.3,8.5c-2.1,3.2-4.8,5.9-8.2,7.9
		c-1.9,1.1-4,1.7-6.2,1.7c-3.3-0.1-5.5-2.2-5.7-5.6c0-0.4-0.1-0.9-0.1-1.8c-2.7,2.6-5.6,3.9-9.1,3.5c-3.8-0.4-5.6-3.1-7.2-6.5
		c-0.4,0.7-0.6,1-0.7,1.3c-2,3.9-4.2,7.7-7,11c-2,2.4-4.4,4.5-7.4,5.5c-3.7,1.3-7.6,0-9.6-3.3c-0.6-1-1.1-2.1-1.4-3.2
		c-1.2-3.7-1.3-7.5-1.1-11.3c0.1-2.2,0.2-4.3,0.4-6.7c-1.8,1-3.5,1.9-5.3,2.7c-1.1,0.5-1.5,1.1-1.7,2.2c-0.6,3.1-1.4,6.2-1.9,9.4
		c-0.3,1.9-0.4,3.9-0.3,5.8c0.2,2.3,1,4.4,3.2,5.7c0.6-0.5,1.1-0.9,1.7-1.3c0.9-0.7,2-1,3-0.4s1.5,2,1.2,3.3
		c-0.7,2.9-3.7,4.7-6.5,3.7c-1.2-0.4-2.4-1.2-3.4-2c-2.3-2.1-3.5-4.8-3.5-7.9c0-3,0.4-6.1,0.7-9.1c0.2-2.1,0.6-4.2,1-6.6
		c-0.7,0.2-1.1,0.3-1.4,0.4c-5.5,2.3-11,4.9-16.8,6.5c-0.6,0.2-1.1,0.8-1.5,1.3c-1.2,2-2.4,4-3.5,6.1c-3.4,5.9-7.4,11.3-12.6,15.9
		c-2,1.8-4.2,3.2-6.7,4.1c-3.3,1.1-6.1,0.4-8.6-1.9c-1.8-1.8-2.9-4-3.6-6.5c-0.2-0.8-0.5-1.6-0.8-2.6c-3.5,1.6-6.9,3-10.2,4.5
		c-2.8,1.3-4.4,3.6-5.7,6.3c0.5,0.6,1,1.1,1.5,1.6c6.4,6.1,11.1,13.2,13.3,21.9c0.7,3,2.5,5.1,5.1,6.6c5.5,3.2,10.3,7.3,15,11.5
		c4.6,4.1,7.7,8.9,8.8,15.1c0.5,3,1.8,5.9,2.8,8.9c0.7,2.1,1.6,4.1,2.2,6.2c2.2,8.2-1.9,15.6-9.9,18.4c-5.7,2-11.2,1.1-16.5-1.7
		c-3.6-1.9-6.7-4.6-9.6-7.4c-3.1-3-5.7-6.4-6.8-10.7c-0.3-1.3-1.5-1.9-2.9-1.7c-0.5,0.1-0.9,0.2-1.3,0.4c-9.9,3.1-19.8,6.2-29.6,9.4
		c-1.2,0.4-2.4,0.9-3.8,1.5c2.2,1.7,4.1,3.1,6,4.6c3.1,2.6,5.3,5.8,5.8,9.8c0.2,1.5,0.1,3,0.1,4.4c-0.1,3,0.5,4.1,3.2,5.2
		c1.2,0.5,2.4,0.9,3.6,1.1c7.4,1.6,14.8,3.1,22.2,4.6c5.2,1.1,10.1,0.2,14.7-2.3c1.2-0.7,2.6-1.1,3.9-1.6c2.7-1,5.5-1.2,8.3-0.8
		c6.8,1,11.4,6.8,10.8,13.6c-0.1,1.3-0.5,2.6-1,3.8c-0.8,2-0.7,3.9,0.1,5.9c0.6,1.4,1.2,2.9,1.6,4.4c2.1,8-0.6,14.7-7.8,19
		c-3,1.8-6.4,3-9.8,3.8c-3.6,0.9-6.9,2.5-9.9,4.6c-2.3,1.6-4.6,3.3-6.9,4.8c-4.7,3-9.8,4.5-15.3,3.7c-1.2-0.2-2,0.2-2.7,1.2
		c-5.9,8.4-12.3,16.4-20.3,22.9c-2.4,2-3,4.4-1.8,7.3c1.1,2.5,2,5.1,3.2,7.5c2.9,6.1,3.9,12.3,2,18.9c-0.7,2.3-0.8,4.8-0.2,7.2
		c1,4.1,2.7,7.8,5.4,11.1c0.7,0.8,1.5,1.6,2.4,2.2c1.6,1.1,3.2,1.1,4.8,0c0.9-0.6,1.7-1.3,2.6-2c4.1-3.4,9.4-3.4,13.5-0.1
		c2.5,2,4.2,4.6,5.6,7.4c3.8,8.2,4.6,16.6,2.4,25.3c-0.4,1.5-1,2.9-0.6,4.6c1.4-0.3,2.7-0.6,4-1c3.6-1,7.2-1.3,10.9-0.9
		c6.3,0.8,11.7,3.6,16.8,7.3c0.7,0.5,1.5,1.1,2.3,1.6c3.4-2.7,7.1-4.3,11.2-4.8c2.8-0.3,5.6-0.3,8.4-0.4c2.6-0.1,5-0.3,7.5-1.5
		c2.8-1.4,5.8-1.2,8.2,1.1c2.4,2.4,3.3,5.2,2.1,8.5c-0.3,0.9-0.5,1.8-0.6,2.7c-0.9,7-2.1,13.9-4.2,20.6c-5,16-14.7,28.1-29.9,35.3
		c-5.1,2.4-10.4,4.6-15.7,6.5c-8.4,3-16.4,6.8-24,11.5c-1.7,1.1-3.5,2.1-5.3,3c-5.4,2.6-11.3,3.6-17.3,3.6c-4.3,0-8.5,0.7-12.6,2.3
		c-5.4,2.1-10.5,4.8-15.1,8.3c-2.4,1.9-4.5,4.3-6.7,6.5c-0.3,0.3-0.5,0.9-0.8,1.5c1.4-0.1,2.5-0.1,3.5-0.3c3.6-0.8,7.3-1.7,10.9-2.6
		c9.2-2.2,18.5-4.2,27.7-6.6c16.3-4.2,31.9-10.1,46.8-18c14.1-7.5,26.6-17.1,38.2-28c14.2-13.4,28.3-27,42.5-40.5
		c0.3-0.3,0.4-0.6,0.8-1.1c-2.5-1.2-3.6-3.3-4.1-5.8c-0.7-3.2-0.6-6.3,0.1-9.5c1-4.3,2.9-8.2,5.2-12c7.2-11.9,14.5-23.7,21.8-35.5
		c2.6-4.1,5.5-7.9,9.1-11.3c6.1-5.7,13.1-9.2,21.7-8.8c5.8,0.3,10.7,2.3,15,6.2c2.8,2.6,3.6,8.2-0.2,11.2c-1.3,1-2.4,2.2-3.6,3.4
		c-5.5,5.8-9.8,12.4-13.1,19.6c-2.4,5.3-4.5,10.8-6.8,16.2c-0.4,1.1-0.9,2.2,0.4,3.3c1-0.8,2.1-1.4,3-2.3c2.3-2.1,4.7-4.2,6.9-6.3
		c6.2-6,12.5-11.7,20-16.1c1.4-0.8,2.7-1.9,4-2.9c2.5-2,3.7-4.5,3.8-7.7c0-0.7,0.1-1.4,0.1-2.1c0.3-4.2,2.2-7.5,5.8-9.6
		c5.5-3.3,11.3-5.5,17.8-5.9c5.7-0.3,10.2,2.6,12,7.7c0.3,0.9,0.6,2,0.7,2.9c0.2,2,1.4,3.1,3.3,3.3c1.7,0.2,3.4,0.5,5.1,0.6
		c4.7,0.4,9,1.6,12.9,4.4c1.9,1.4,4,2,6.4,1.7c6.2-0.7,12.4-1.4,18.6-2.2c1.5-0.2,3.2-0.3,4.6-0.9c1.9-0.9,3.8-0.9,5.7-0.6
		c4.5,0.7,9,1.3,13.4,2.2c18.8,3.8,36.2,10.8,52.2,21.5c2.5,1.6,4.9,3.3,7.5,4.8c4.5,2.7,9.3,4.4,14.7,3.5c0.8-0.1,1.6,0,2.3,0
		c3.2,0.2,5.6,1.7,7.4,4.3c0.6,0.9,1.2,1.9,1.6,2.9c2.4,5.6,6.1,10.2,10.9,13.9c5.5,4.2,9.2,9.7,11.6,16.1c0.7,2,1.5,3.9,2.5,5.8
		C891.7,609.6,893,611.7,895.2,613.6z M549.5,213.3c-0.2-0.1-0.4-0.1-0.7-0.2c-9.2,15.5-17.7,31.4-26.3,47.6
		c0.6-0.1,0.9-0.1,1.2-0.2c4.8-2,9.6-4,14.4-6c1-0.4,1.1-1.2,1.3-2c2.1-8.3,4.3-16.6,6.4-24.9C547,222.8,548.2,218,549.5,213.3z
		 M561.6,241.3c0.2,0.1,0.4,0.1,0.6,0.2c6.8-6.6,12.4-14,15.8-22.9c1-2.7,1.5-5.6,1.3-8.5c0-0.5-0.1-1.1-0.2-1.6
		c-0.4-1.4-1.2-1.7-2.4-0.9c-0.6,0.4-1.2,0.8-1.6,1.4c-1.1,1.4-2.2,2.8-3.1,4.4c-2.9,5.2-5,10.8-6.8,16.4
		C563.9,233.6,562.8,237.5,561.6,241.3z M652,241.4c0.1,0.1,0.2,0.1,0.3,0.2c0.3-0.4,0.7-0.7,1-1.2c1.3-2,2.6-4,3.9-6.1
		c4-6.7,7.8-13.5,10.3-20.9c0.6-1.8,1-3.6,1.3-5.4c0.2-1.1,0.3-2.4-0.9-2.9c-1.3-0.6-2.3,0.4-2.9,1.4c-1.3,1.9-2.7,3.9-3.5,6
		c-2.1,5.3-4,10.6-5.8,16C654.3,232.7,653.2,237.1,652,241.4z M627.2,265.8c-4,4.1-6.9,8.1-6.8,13.7c0,1.4,0.3,2.8,0.8,4.1
		c1.5,3.6,5.3,4.1,7.9,1.1c1.1-1.3,1.6-2.8,1.8-4.5C631.6,275.1,629.6,270.6,627.2,265.8z M488.1,280.5c0.1,2.6,0.5,4.8,1.8,6.9
		c1.1,1.7,2.2,2,3.9,0.9c1-0.7,2-1.5,2.9-2.3c4.6-4.8,8.1-10.4,11.3-16.3c0.1-0.1,0-0.3,0-0.5c-1.2-0.1-2.2,0.4-3,1.3
		c-2.5,2.7-5.5,4.8-8.8,6.4C493.5,278.1,490.9,279.2,488.1,280.5z M691.6,257.6c0.2,1.4,0.3,2.8,0.6,4.1c0.3,1.3,1.1,1.7,2.3,1.2
		c1-0.4,1.9-1,2.6-1.8c0.7-0.8,1.3-1.8,1.7-2.8c1.6-3.6,3.1-7.3,4.5-11c0.8-1.9,0.1-3.1-2-3.5c-2-0.4-3.5,0.5-4.8,1.8
		C693.1,248.8,691.6,252.9,691.6,257.6z M585.2,257.5c0.1,0.9,0.1,1.9,0.2,2.8c0,0.4,0.1,0.8,0.2,1.1c0.5,1.6,1.3,1.9,2.8,1.4
		c1.4-0.5,2.4-1.5,3-2.8c1.6-3.6,3.2-7.2,4.7-10.9c0.3-0.8,0.4-1.8,0.4-2.8c-0.1-2.1-1.4-3.2-3.4-2.5c-1.2,0.4-2.3,1.2-3.3,2.1
		C586.5,249,585.1,253,585.2,257.5z M655.8,257.9c0.1,0,0.5,0,0.7-0.1c2.8-1.5,5.2-3.4,6.9-6.1c0.3-0.5,0.2-1.4-0.1-1.9
		c-0.2-0.3-1.1-0.3-1.7-0.4c-0.2,0-0.5,0.1-0.7,0.1c-3.1,1.1-5.2,3.4-6.9,6C653.3,256.8,654.1,257.9,655.8,257.9z M490.9,268.2
		c5.6-2,10.3-7.1,9.4-11.5C495.6,259.3,493,263.2,490.9,268.2z"/>
	<path d="M631.3,617c-0.1,7.5-2.1,13.4-6.5,18.4c-3.4,4-7.2,7.6-11.7,10.4c-3,1.9-6.2,3.4-9.8,3.6c-6,0.3-8.7,4.5-11.2,9.1
		c-0.2,0.3-0.1,0.8-0.2,1.1c-0.4,3.6-2.8,6.3-6.2,6.9c-3.2,0.6-6.3-1.1-7.9-4.5c-1.6-3.5-2.6-7.2-3.2-11c-1.6-9.8,1.9-18,8.1-25.2
		c3.3-3.8,6.9-7.2,10.5-10.6c4.1-4,8.1-8.2,11.6-12.8c1.7-2.2,3.5-4.4,5.5-6.3c1.3-1.3,2.9-2.4,4.6-3.1c3.9-1.6,7.9-0.4,10.4,2.9
		c1.1,1.4,1.9,3,2.6,4.7C630.1,606.1,630.9,611.9,631.3,617z M592.6,637.1c2-0.5,3.5-1,5-1.3c5.1-0.8,9.2-3.2,12.9-6.7
		c1.7-1.7,3.4-3.5,4.7-5.5c2.2-3.4,1.6-7,0.7-11.2c-1.1,1.4-1.9,2.4-2.7,3.5c-3.8,5.2-8.8,9.3-13.5,13.6
		C597.2,631.8,594.8,634,592.6,637.1z"/>
	<path d="M411.2,437.2c0,0.5,0,1.1,0,1.6c0,3.5-1.8,5.7-5.3,6.4c-4.7,0.9-9.3,0.5-13.8-1.3c-2.4-0.9-4.7-2.1-7-3.3
		c-2.3-1.2-4.6-2.6-6.9-4c-3.9-2.6-8.2-4.2-12.9-4.5c-0.2,0-0.5,0-0.7-0.1c-6.6-1-9.9-4.8-10-11.4c0-3.3,0.5-6.5,1.7-9.6
		c2.4-5.9,7-8,13-5.9c1.5,0.5,3.1,1.2,4.5,2c4,2.2,8.1,4,12.5,5.2c0.9,0.2,1.8,0.6,2.7,0.9c3.8,1.2,7.1,3.3,9.8,6.2
		c3.5,3.7,7.1,7.5,10.5,11.3C411.1,432.3,411.3,433.4,411.2,437.2z"/>
	<path d="M169.5,712c1.5-0.1,3.1,0.5,4.4,1.6c2,1.7,4.2,2.3,6.7,2.3c1.7,0,3.4,0.1,5.1-0.1c5.6-0.4,10.6,1.3,15.4,3.9
		c0.7,0.4,1.4,0.8,2,1.2c2.8,1.8,5.8,2.1,9,1.8c3.9-0.4,7.8-0.7,11.7-0.7c8.6,0,17.1,1.6,25.2,4.5c4.8,1.7,6.6,6.8,4.2,11.3
		c-1.6,2.8-4.4,4-7.6,3.1c-3.8-1-7.6-2.1-11.5-3c-6.5-1.4-13.2-1.3-19.8-0.7c-2.5,0.2-5,0.3-7.5,0.2c-3.4-0.1-6.6-1.2-9.5-2.9
		c-1.4-0.8-2.7-1.5-4.1-2.3c-2.4-1.3-4.9-1.8-7.6-1.8c-3.3,0-6.7,0-10-0.4c-4.1-0.5-7.7-2.3-11-4.9c-2.9-2.3-3.8-4.9-2.9-7.7
		C162.7,714.3,166,712,169.5,712z"/>
	<path d="M396.3,716.8c-8.3-0.1-16.5,0.8-24.5,2.8c-1.7,0.4-3,1.2-4,2.8c-2.6,4-6.6,5.5-11.2,5.7c-2.5,0.1-5,0.1-7.5,0
		c-1.6,0-2.9,0.5-3.8,1.8c-0.7,1-1.5,2-2.3,2.9c-2.5,2.9-6.2,3.2-9.2,0.7c-3.7-3-4.1-7.7-1.1-11.4c0.8-1,1.7-1.9,2.5-2.8
		c3.5-4,7.8-6.1,13.1-6c2,0,4.1,0.1,6.1,0.2c1.1,0.1,1.8-0.3,2.2-1.3c1.3-3,3.9-4.6,6.8-5.7c3.8-1.5,7.8-2,11.8-2.7
		c8.6-1.4,17.3-2.1,26.1-1.9c1.1,0,2.2,0.1,3.3,0.3c2.9,0.4,4.8,2.2,5.6,5c0.9,2.9,0.5,5.7-1.8,8c-1.4,1.3-3.1,1.7-5,1.7
		C400.9,716.8,398.6,716.8,396.3,716.8z"/>
	<path d="M425.7,534.8c-0.2,4.1-0.9,7.9-3.5,11.1c-4.4,5.5-11.5,6.5-17,2.1c-2-1.6-3.8-3.5-5.3-5.6c-2.2-3.1-4-6.5-6-9.7
		c-0.6-0.9-1.3-1.8-2-2.5c-2.3-2.2-3.1-5.2-2-8.1c1.3-3.1,4.2-5.1,7.3-4.8c6,0.6,12.1,1.1,18.1,1.8c4.2,0.4,6.9,2.9,8.5,6.7
		C425.1,528.7,425.5,531.8,425.7,534.8z"/>
	<path d="M325.3,482.4c5.7,0,9.2,4.3,8.2,8.9c-0.7,3.6-0.2,5.1,2.9,7.1c1.2,0.8,2.5,1.6,3.9,2.1c4,1.6,5.4,6.3,3.8,10
		c-1.6,3.6-6,5.1-10,3.4c-4.8-2.1-8.9-5.2-12.1-9.4c-1.9-2.5-3.2-5.3-3.7-8.5s-0.1-6.2,1.3-9.1C320.8,484.1,323.1,482.4,325.3,482.4
		z"/>
	<path d="M554.9,670.4c0.8-1.1,1.3-1.9,2-2.5c2.3-2.3,5.7-2.8,8.6-1.3c0.7,0.3,1.4,0.8,2.1,1c3.4,0.9,5.7,4.6,5.1,8.2
		c-0.6,3.6-3.6,6.2-7.6,6.4c-4.4,0.2-8.1-2.1-9.8-6.2c-0.3-0.6-0.5-1.3-0.9-2.1c-1.3,2.2-2.8,3.9-5.2,4.6c-4.5,1.3-9.1-1.9-9.3-6.6
		c-0.1-2.3-0.1-4.5,0-6.8c0.1-3.8,3.1-6.8,7-7.1c3.6-0.3,6.9,2.4,7.5,6C554.8,666,554.8,668,554.9,670.4z"/>
	<path d="M494.8,704.6c-1.2,0.5-2.2,1-3.3,1.3c-4,1.3-7.5-0.4-9-4.1c-1.6-4-0.1-7.8,3.6-9.7c1.2-0.6,2.4-1.2,3.5-1.8
		c4.4-2.3,8.6-2.2,12.7,0.8c0.7,0.5,1.6,0.8,2.5,1c3.3,0.8,5.4,3.3,5.6,6.6c0.2,3.7-1.3,6.1-4.7,7.4c-2.9,1.2-5.8,1.1-8.6-0.3
		C496.5,705.5,495.7,705,494.8,704.6z"/>
	<path d="M127.6,706.7c0,3-1.9,5.7-4.6,6.7c-2.9,1.1-6.1,0.4-8.1-1.9c-2.9-3.3-5.8-6.7-8.7-10.1c-1.9-2.2-2.7-4.7-1.7-7.6
		c1.6-5.2,8.4-6.9,12.1-2.9c3.2,3.5,6.2,7.2,9.3,10.8C127.1,703.2,127.6,704.9,127.6,706.7z"/>
	<path d="M38.4,628.9c-2.1,0-4-0.6-5.2-2.3c-2.9-3.9-5.9-7.9-8.6-12c-3-4.6,0.6-10.2,4.6-11c3.1-0.6,5.8,0.4,7.7,2.8
		c2.6,3.5,5.1,7.1,7.5,10.7c2.8,4.3,1.1,9.6-3.5,11.1C40.1,628.7,39.3,628.8,38.4,628.9z"/>
	<path d="M142.8,724.2c-2-0.4-4.6-0.7-7-1.4c-4.1-1.3-6.2-5.5-4.9-9.5c1-3.3,5.3-6,9.3-4.6c2,0.7,3.9,0.7,6,0.4
		c3.2-0.3,5.8,0.7,7.5,3.6c2.6,4.3-0.4,10.4-4.7,10.8C147.1,723.7,145.2,723.9,142.8,724.2z"/>
	<path d="M85.6,682.6c-3.4-0.2-6.6-0.6-9.7-1.7c-3.2-1.2-4.8-3.8-4.7-7.3c0.1-3.1,1.9-5.7,5-6.5c1.3-0.4,2.8-0.5,4.1-0.1
		c2.4,0.6,4.7,0.9,7.2,0.9c2.4,0,4.4,1.1,5.7,3.1c3.4,4.8,0.8,10.6-5.1,11.6C87.2,682.5,86.3,682.5,85.6,682.6z"/>
	<path d="M448.1,701.2c1.9,0.3,3.8,0.4,5.6,0.8c4.2,0.9,6.4,4.3,5.7,8.8c-0.5,3.3-3.7,5.8-7.5,5.7c-2.3,0-4.7-0.2-7-0.3
		c-3.3-0.2-6.2-3.1-6.6-6.5c-0.4-3.6,1.6-6.9,4.9-7.8C444.9,701.5,446.5,701.4,448.1,701.2z"/>
	<path d="M335.1,622.8c0-5.2,4.1-8.4,9.2-7.4c5.5,1.1,9.8,6.8,9.4,12.3c-0.2,2.9-2.3,5.5-5.1,6.3c-3.1,0.9-6.3,0-8.1-2.6
		c-0.9-1.3-1.8-2.4-3-3.4C335.8,626.6,335,624.7,335.1,622.8z"/>
	<path d="M63.1,650.4c0-4.7,4.1-7.9,8.9-7c2.2,0.4,4.4,1,6.6,1.6c3.7,1.1,5.8,4.8,5.1,8.6c-0.7,3.6-4.1,6.2-7.9,5.7
		c-2.8-0.4-5.5-1.1-8.1-2C64.8,656.4,63.2,653.7,63.1,650.4z"/>
	<path d="M35,632.2c2,0.4,4,0.6,5.9,1.2c3.7,1.1,5.6,4.5,5,8.4c-0.5,3.4-3.3,5.9-7,5.9c-2.4,0-4.8-0.3-7.2-0.8
		c-3.2-0.7-5.5-4.2-5.3-7.6c0.2-3.4,2.9-6.3,6.4-6.7c0.7-0.1,1.4,0,2.1,0C35,632.4,35,632.3,35,632.2z"/>
	<path d="M317.6,716.1c3.3,0,6.7,2.5,7.4,6.4c0.6,3.6-1.7,7.1-5.3,8.1c-2,0.6-4.1,1.1-6.2,1.3c-4.1,0.4-7.6-2.3-8.2-6.1
		c-0.6-3.9,1.8-7.4,5.8-8.4C313.3,716.9,315.5,716.5,317.6,716.1z"/>
	<path d="M268.2,738.1c-0.7,0-1.4,0-2.1,0c-4.2,0.1-7.3-3.2-7.5-7.3c-0.2-3.8,3-7.1,7-7.4c1.9-0.1,3.7-0.1,5.6,0
		c3.9,0.4,6.7,3.9,6.6,7.8c-0.1,3.7-3.1,6.6-7,6.8C269.9,738.1,269.1,738.1,268.2,738.1L268.2,738.1z"/>
	<path d="M330.6,600.4c0-3.7,2-6.4,5.2-7.4c3.3-1,6.4,0.2,8.5,3.2c0.3,0.4,0.6,0.9,1,1.3c2.5,2.8,2.9,6.2,1.1,9.2
		c-1.8,2.9-5.2,4.1-8.8,3.1C333.5,608.6,330.6,604.7,330.6,600.4z"/>
	<path d="M290.5,734.8c-0.5,0-1.1,0-1.6,0c-4.2-0.2-7.1-3.2-7.2-7.4c-0.1-3.7,2.9-6.9,6.8-7.3c1.3-0.1,2.7-0.1,4,0
		c4,0.4,6.8,3.7,6.7,7.6c-0.1,3.8-3.1,6.8-7.1,7C291.6,734.9,291.1,734.8,290.5,734.8L290.5,734.8z"/>
	<path d="M140.8,692.9c-0.3,3.4-2.3,6.1-5.2,7c-3.3,1-6.4,0-8.5-2.8c-0.5-0.7-1-1.4-1.5-2.1c-2.3-3.3-1.7-7.5,1.4-10
		c2.9-2.4,7.3-2.1,10,0.7c1.1,1.2,2.1,2.6,2.8,4C140.4,690.6,140.5,691.8,140.8,692.9z"/>
	<path d="M107,672.3c4.2,0,7,2.1,7.9,5.8c0.8,3.3-0.8,6.7-3.9,8.2c-2.5,1.2-5.1,1.2-7.7,0.2c-3.3-1.3-5.1-4.6-4.5-8.1
		c0.5-3.3,3.4-5.8,6.8-6.1C106.1,672.3,106.6,672.3,107,672.3z"/>
	<path d="M49.1,630.2c0-4,3-7.1,7-7.3c3.6-0.1,6,1.9,7.7,4.7c1.5,2.6,1.5,5.3-0.3,7.9c-1.7,2.5-4.8,3.7-7.8,3
		C52.9,637.8,48.8,634.2,49.1,630.2z"/>
</g>
</svg>
