<?xml version="1.0" encoding="utf-8"?>
<!-- Generator: Adobe Illustrator 23.0.4, SVG Export Plug-In . SVG Version: 6.00 Build 0)  -->
<svg version="1.1" id="Layer_1" xmlns="http://www.w3.org/2000/svg" xmlns:xlink="http://www.w3.org/1999/xlink" x="0px" y="0px"
	 viewBox="0 0 1008 1008" style="enable-background:new 0 0 1008 1008;" xml:space="preserve">
<g>
	<path d="M260.4,211.5c2.1-4.6,2.6-9.2,2.2-13.8c-0.5-6.3-1.3-12.6-2.2-18.8c-1.4-9.5-2-19.1-1.9-28.7c0.1-13.8,1.3-27.6,2.6-41.4
		c0.2-2.2,0.7-4.4,1.2-6.6c1.5-6.2,5-11,10.3-14.5c6.9-4.5,14.4-6.8,22.6-6.7c1,0,1.9,0,2.9,0c163.5,0,327,0,490.5,0
		c5.8,0,10.6,2.1,14.5,6.2c2.6,2.7,4.2,6,4.5,9.8c0.1,1.5,0.2,3,0.2,4.6c0,253.3,0,506.5,0,759.8c0,7-3.1,12.1-8.9,15.6
		c-1.9,1.2-4.1,1.8-6.4,1.8c-6.4,0-12.8,0-19.2,0c-45.7,0-91.4,0-137,0c-6.6,0-13.1,0.1-19.7,0.2c-11.9,0.3-23.6-0.7-35.2-3.5
		c-7.3-1.8-14.8-1.7-22.2-0.6c-4.5,0.7-8.9,1.9-13.3,2.9c-3.8,0.9-7.6,1.4-11.4,0.2c-0.5-0.2-1.1-0.3-1.6-0.5
		c-4-1.7-5.6-5.7-3.8-9.7c0.5-1.2,1.2-2.4,1.9-3.8c-1.7,0.5-3.2,0.9-4.6,1.3c-3.5,0.9-6.8,0.1-9.9-1.8c-2.6-1.6-3.9-4-4.1-7
		c-0.1-1.7,0.1-3.5,0.2-5.2c0-0.6,0.1-1.2,0.2-2.1c-0.9,0.6-1.6,1.1-2.2,1.5c-7.2,5.1-14.4,10.2-22.2,14.2c-3.9,2-7.9,3.9-12.2,4.8
		c-6.2,1.3-9.2-2.8-9.6-7.5c-0.3-3.3,0.9-6.3,2.5-9.1c1.4-2.3,2.9-4.6,4.6-6.7c7.7-9.6,15.4-19.2,23.1-28.8
		c3.5-4.4,6.8-8.9,10.2-13.3c0.6-0.8,1.5-1.7,0.7-3.3c-1.1,0.4-2.3,0.7-3.2,1.3c-3.4,2.1-6.8,4.2-10,6.6
		c-9.3,7.1-18.6,14.4-27.9,21.6c-2,1.5-4,2.9-6.1,4.3c-2.2,1.4-4.6,2.2-7.2,2.4c-1.2,0.1-2.4,0-3.6-0.3c-2-0.5-3-1.9-2.8-3.9
		c0.2-1.7,0.8-3.5,1.6-4.9c2.7-4.8,5.6-9.5,8.4-14.2c0.4-0.7,0.7-1.3,1.2-2.2c-1.1,0-1.9,0-2.7,0c-5,0.1-9.9,0.1-14.8-1.2
		c-1.5-0.4-2.8,0.1-4,1c-2.2,1.5-4.3,3-6.6,4.3c-2.7,1.5-5.6,2.3-8.7,2.4c-7.6,0.1-11.8-5.9-11.3-12.2c0.3-5.1,2.8-9.1,6.2-12.7
		c0.6-0.6,1.3-1.1,2-1.7c-0.1-0.2-0.2-0.3-0.3-0.5c-0.6,0-1.2,0-1.7,0.1c-10,2.7-20,5.5-30,8.3c-0.6,0.2-1.2,0.4-1.8,0.6
		c-1.2,0.4-1.8,1.2-1.8,2.5c-0.2,10-4.7,18.3-10.6,25.9c-2.1,2.7-4.8,4.9-8,6.3c-4.3,2-9.3,1.2-12.7-2.1c-1.7-1.6-2.3-3.6-2-5.9
		c0.5-3.9,2.1-7.4,4.4-10.5c3.9-5.3,8.8-9.5,14.3-12.9c2.2-1.3,4.4-2.6,6.6-3.9c2.1-1.3,2.2-2.3,0.2-3.8c-3.2-2.4-6.8-3.7-10.8-4.3
		c-0.8-0.1-1.6-0.2-2.4-0.4c-1-0.3-1.8-1.1-1.6-2.1c0.1-0.8,0.7-1.5,1.3-2.1c0.3-0.4,1-0.5,1.6-0.5c5.2-0.3,10-2,14.9-3.4
		c5.2-1.5,10.4-3.2,15.6-4.8c1.9-0.6,3.8-1.1,5.3-3.1c-0.8-0.6-1.5-1.3-2.3-1.6c-4.1-1.5-8.3-2.2-12.6-2c-2.4,4.8-4.4,5.1-8.1,1
		c-0.6,0.4-1.3,0.8-1.9,1.3c-6.6,4.3-13.6,7.8-21.3,9.5c-3.7,0.8-7.3,0.9-10.9-0.2c-4.7-1.4-6.9-4.3-6.7-9.2c0.1-2,0.5-3.9,0.8-6.1
		c-0.8,0.6-1.4,1.1-2.1,1.6c-5.5,3.8-10.9,7.6-16.4,11.2c-3.4,2.2-7.1,3.7-11,4.7c-0.6,0.2-1.2,0.3-1.9,0.4
		c-5.6,0.8-9.7-2.6-10.2-8.2c-0.3-3.8,0.5-7.3,2.3-10.7c2.9-5.5,6.7-10.3,11.3-14.5c3.7-3.4,7.5-6.7,11.3-10.1
		c-1.8-0.3-3.6-0.3-5.3-0.8c-1.7-0.6-3.2-1.6-5.1-2.6c-0.3,0.3-1,0.8-1.5,1.3c-5.1,4.7-10.4,9.3-16.2,13.2c-3.2,2.2-6.5,4-10.2,5.3
		c-6.1,2.1-11.1-0.1-14.9-5.2c-2.6-3.5-2.7-7.4-0.5-11.3c0.9-1.6,2.1-3,3.2-4.7c-0.5-0.3-0.9-0.7-1.5-1c-5.8-3-11.7-5.5-17.9-7.5
		c-2.1-0.7-3.9-0.5-5.8,0.8c-5.6,3.7-11.3,7.3-17.1,10.6c-5.8,3.3-12,5.6-18.6,6.7c-2.1,0.3-4.3,0.4-6.4,0.1c-5-0.7-8.1-3.9-8.9-8.9
		c-0.8-4.7,0.1-9.1,2-13.3c0.7-1.4,1.4-2.8,2.2-4.3c-0.2-0.2-0.3-0.4-0.5-0.6c-4.1-2.6-6.4-6.5-7.2-11.1c-1.3-6.8-1.4-13.6,1.1-20.3
		c2.6-7,7-12.5,13.6-16.1c2.6-1.4,5.3-2.7,8-3.8c2.8-1.1,4.4-3.1,5.3-5.8c1.3-4.1,1.3-8.2,0.6-12.3c-0.3-1.6-1.3-2.8-2.7-3.5
		c-1.8-0.9-3.8-1.7-5.7-2.5c-1.8-0.8-3.8-1.4-5.4-2.5c-6.6-4.4-9.1-12-6.7-20.1c0.5-1.8,1.2-3.5,1.9-5.2c1.2-3.1,1.4-6.2,0.5-9.4
		c-0.6-2.1-1.2-4.1-1.7-6.2c-2.3-8.4-1-16.2,4.1-23.2c1.6-2.2,3.4-4.3,5.2-6.3c2.8-3.2,4.4-6.7,4.5-11.1c0-2.2,0.3-4.5,0.8-6.7
		c1-4.6,3.1-8.5,6.6-11.7c0.3-0.3,0.7-0.7,1.1-1c1.7-1.5,2.2-3.1,1.7-5.5c-1.7-7.6-3.7-15.2-4.2-23.1c-0.2-2.7-0.1-5.4,0.2-8.1
		c0.5-4,3.2-6.3,7.2-6.7c0.9-0.1,1.8-0.5,2.6-1c2.4-1.5,4.1-3.6,5.5-5.9c1.5-2.5,2.9-5.1,4.2-7.8c3.2-6.6,7.8-12,13.8-16.3
		c0.9-0.6,1.8-1.4,2.6-2.2c1.7-1.8,2.1-3.6,0.8-5.7c-1-1.6-2.2-3.1-3.7-4.3c-2.1-1.8-4.5-3.4-6.9-4.8c-7.7-4.7-13.3-11.2-16.6-19.6
		c-4.3-10.9-9.9-21.1-15.7-31.3c-3.7-6.5-7-13.3-9-20.6c-2-7.4-2.6-14.8-0.7-22.3c0.6-2.5,1.8-4.9,2.8-7.4c0.5-1.2,1.2-2.4,2-3.5
		c2.9-4.3,3.7-9,3.3-14.2c-0.6-9.2-1-18.4-1.4-27.6c-0.3-5.3-0.6-10.5-1.9-15.7c-0.4-1.6-0.8-3.3-1.5-4.8
		c-2.4-5.5-3.8-11.2-4.5-17.1c-1-7.7-2.7-15.3-4.3-22.8c-1.2-5.7-1.7-11.4-1.3-17.2c1.2-14.8,13.1-27.7,27.8-30c13-2,24,1.9,32.6,12
		C256.8,208.6,258.2,210.3,260.4,211.5z M476.3,862.7c0.1,0.2,0.2,0.3,0.3,0.5c0.9-0.1,1.8-0.1,2.7-0.4c2.1-0.7,4.2-1.5,6.2-2.4
		c11-5.2,21-11.8,30.5-19.4c2.2-1.7,4.4-3.4,6.7-5c6.2-4.1,12.9-5,20-3.6c3.3,0.7,6.4,2,9.1,4.2c5,4.1,5.6,9.5,1.7,14.6
		c-0.6,0.8-1.4,1.5-2.1,2.3c-3.4,3.5-6.8,7-10.2,10.5c-0.4,0.5-0.8,1-1.2,1.5c-1,1.6-1,3.2-0.2,4.8c0.8,1.5,2.2,2,3.8,1.9
		c1.2-0.1,2.4-0.3,3.5-0.6c4.4-1.1,8.5-3.2,12.6-5.2c4.1-1.9,8.3-3.8,12.5-5.4c4.2-1.6,8.5-1.6,12.9-0.3c8.2,2.4,16.6,3.2,25.1,3.3
		c5.7,0,11.4-0.3,17-0.3c53.1,0,106.2,0,159.4,0c0.8,0,1.6,0,2.4,0c1.8-0.1,2.9-0.8,3.2-2.6c0.3-1.3,0.4-2.7,0.4-4
		c0-251.7,0-503.3,0-755c0-0.5,0-1,0-1.4c0-2.1-0.5-2.8-2.5-3.6c-1.9-0.8-3.8-0.9-5.9-0.9c-123,0-245.9,0-368.9,0
		c-40.3,0-80.6,0-121,0c-5,0-9.4,1.4-13.6,4.1c-2.4,1.5-3.9,3.7-4.6,6.5c-0.3,1.1-0.4,2.2-0.6,3.3c-1.4,11.4-1.9,23-2.4,34.5
		c-0.6,14.1,0.7,28.1,3,42c1.2,7.5,1.7,15.1,0.3,22.7c-0.9,4.7-2.4,9.1-5.4,12.9c-2.9,3.5-6.6,5.2-11.2,5c-3.3-0.2-6.3-1.2-8.8-3.4
		c-1.9-1.6-3.6-3.4-5.3-5.2c-1.8-1.7-3.5-3.6-5.4-5.1c-4.2-3.3-9.1-4.7-14.4-3.7c-9.7,1.8-16.1,9.6-16.3,19.4
		c-0.1,4.8,0.9,9.4,1.8,14c1.2,5.7,2.6,11.4,3.3,17.2c0.8,6.3,2.2,12.4,4.9,18.2c1.5,3.2,2.2,6.7,2.7,10.2c1,7.1,1.2,14.2,1.4,21.3
		c0.2,4.6,0.6,9.3,0.8,13.9c0.2,3.7,0.3,7.4,0.3,11c0,5.7-1.7,10.8-4.7,15.6c-1.9,3-3.5,6.1-4.1,9.6c-0.9,5.2-0.1,10.2,1.3,15.2
		c1.7,5.9,4.5,11.3,7.6,16.5c5.7,9.8,11,19.8,15.2,30.4c2.4,6.2,6.4,10.9,12.1,14.4c3,1.8,5.8,4,8.5,6.2c2.8,2.3,5.1,5.1,6.8,8.3
		c3.9,7.5,3.1,15.2-2.3,21.7c-1.2,1.5-2.6,2.9-4.1,4c-4.1,3.1-7.3,7-9.9,11.3c-1.8,2.9-3.5,5.7-5.2,8.6c-3.5,5.6-7.3,10.9-13.7,14
		c0.5,2.6,0.9,5.2,1.4,7.8c1.1,5.7,2.3,11.4,3.3,17.2c0.8,4.5-0.6,8.5-3.6,12c-0.7,0.8-1.4,1.6-2.1,2.3c-2.9,2.8-4.5,6.2-4.7,10.2
		c-0.3,5.2-1.5,10.2-4.3,14.6c-1.9,2.9-4,5.6-6.1,8.3c-1.1,1.5-2.3,2.9-3.3,4.4c-1.2,1.9-1.7,4.1-1.2,6.4c0.3,1.4,0.6,2.8,1,4.2
		c0.6,2.2,1.2,4.3,1.7,6.5c1.2,5.6,1.2,11.1-1.6,16.4c-0.5,1-0.9,2.1-1.2,3.1c-1,3-0.5,4.5,2.3,5.9c2,1,4.1,1.8,6.2,2.5
		c6.6,2.2,10.5,6.8,11.9,13.5c1.4,6.4,1,12.7-0.3,19c-1.6,7.8-5.9,13.5-13.7,16.2c-1.6,0.5-3.1,1.3-4.6,1.9c-8.6,3.7-13,14.2-8,24.4
		c0.2,0.4,0.5,0.8,0.9,1.2c0.7-0.6,1.3-1.1,1.9-1.6c3.5-2.9,7.4-5.4,11.6-7.1c5-2,10.1-2.4,15.2-0.7c5.7,1.9,8.3,8.4,5.3,13.6
		c-1,1.7-2.5,3-3.9,4.5c-0.5,0.6-1.3,0.9-1.9,1.4c3.2,1.7,4.9,1.7,7.6-0.2c1.2-0.9,2.5-1.8,3.7-2.7c13.4-9.6,26.7-19.4,40.1-28.9
		c9-6.4,18.6-11.9,28.7-16.3c2-0.9,4.2-1.4,6.4-1.8c1.7-0.3,3.3,0.1,4.8,1.1c1.9,1.3,2.4,2.6,1.5,4.7c-0.5,1.1-1.1,2.1-1.8,3.1
		c-4.3,6.6-9.5,12.4-14.8,18.3c-7.7,8.6-15.5,17-23.2,25.6c-3.2,3.6-6.1,7.6-9.2,11.4c-0.5,0.7-0.9,1.4-1.4,2.2
		c1.1,0.6,1.9,1,2.7,1.5c1.1,0.7,2.3,1.4,3.3,2.3c0.4,0.4,0.7,1.3,0.6,1.9c-0.1,0.7-1.6,1.3-2.4,1c-0.5-0.2-0.9-0.4-1.3-0.6
		c-1.4-0.7-2.9-1.3-4.3-2.1c-1-0.5-1.8-0.4-2.5,0.5c-1.1,1.4-2.2,2.8-3.3,4.1c-0.8,1-0.8,2.2-0.5,3.4c0.5,1.9,1.7,3.2,3.6,3.9
		c4.5,1.6,8.9,1.6,13.2-0.6c8.1-4.2,14.5-10.4,21.1-16.5c-0.2-0.8-0.4-1.5-0.6-2.2c-0.7-2.8-0.9-5.7-0.2-8.5c0.5-1.9,1-3.9,1.5-5.8
		c1.2-4,3.2-7.7,6-10.8c2.6-3,5.9-4.6,9.9-4.8c6.8-0.2,12.9,5.5,11.1,13.3c-0.7,2.8-2,5.2-4,7.3c-2.7,2.9-6,5-9.4,7
		c-1.4,0.8-2.7,1.6-4.5,2.8c1.6,0.6,2.5,1.1,3.6,1.3c1.7,0.3,3.5,0.4,5.2,0.5c3.1,0.2,5.8,1.4,7.4,4.2c1.2,2,1,3.8-0.6,5.5
		c-0.9,0.9-1.9,1.7-2.8,2.6c-7.5,6.6-14.9,13.4-21.6,20.8c-1.9,2.1-3.6,4.3-5.2,6.6c-0.7,0.9-1.2,1.9-1.6,2.9
		c-0.8,2.1-0.2,3.2,2,3.1c1.7,0,3.6-0.2,5.2-0.8c3-1.2,6-2.7,8.8-4.3c6.7-3.8,12.9-8.3,18.9-13.1c2.7-2.2,5.4-4.2,7.4-7.1
		c0.7-1,1.7-1.9,2.6-2.8c0.6-0.6,1.4-1.1,2.2-1.5c1.8-0.8,3.7-0.4,5,1.1c1.3,1.4,1.4,2.9,0.2,4.8c-0.5,0.8-1.1,1.5-1.7,2.3
		c-2.1,2.7-4.3,5.4-6.1,8.3c-1.2,1.8-2,3.8-2.7,5.8c-0.8,2.3,0.1,3.9,2.2,4.9c1.1,0.5,2.4,0.8,3.7,0.9c3,0.3,5.9-0.5,8.6-1.7
		c5.7-2.7,11.3-5.6,16.9-8.5c0.4-0.2,0.9-0.7,1-1.2c1.6-4.1,4.8-5.8,9-6c6.8-0.3,13.1,1.7,19.1,4.7c1.7,0.9,2.8,2.3,3.4,4.2
		c0.9,3-0.2,6.2-2.9,8.2c-2.3,1.7-4.8,2.8-7.5,3.6c-5.8,1.9-11.7,3.9-17.5,5.8c-0.9,0.3-1.7,0.7-2.8,1.2c0.7,0.8,1.2,1.4,1.7,2
		c0.6,0.7,1.2,1.3,1.7,2.1c2.5,3.9,2.2,3.2,6.2,2.2c9.2-2.3,18.4-4.8,27.6-7.1c2-0.5,4.1-0.8,6.1-1.1c0.1-0.5,0.1-0.8,0.1-1.1
		c0-0.4,0-0.8,0.1-1.2c0.7-6.2,3.3-11,9.3-13.5c2.5-1,5.1-1.3,7.8-1.1c6.9,0.6,13.7,5.5,14.5,13.8c0.4,3.8-0.4,7.3-2,10.7
		c-1.2,2.7-2.7,5.3-4,7.9c-1.2,2.4-0.9,3.5,1.6,4.5c0.3,0.1,0.6,0.2,0.9,0.3c4.6,1.1,9.2,0.7,13.8,0c2.1-0.3,3.8,0.2,5.4,1.1
		c1,0.6,1.5,1.5,1.3,2.7c-0.2,1.1-0.3,2.2-0.8,3.2c-1.6,3.5-3.3,6.9-4.8,10.4c-0.3,0.7-1,1.4-0.4,2.6c1-0.6,2-1.1,2.9-1.8
		c1.6-1.1,3.1-2.3,4.6-3.5c7-5.4,13.8-10.9,20.9-16.1c3.9-2.9,8.2-5.3,12.4-7.7c1.8-1,3.8-1.6,5.9-2c6.1-1.1,11.1,4.1,10,10.1
		c-0.6,3.2-1.7,6.2-3.4,8.9c-2.6,4-5.1,8.1-8.2,11.8c-5.9,7-12.2,13.8-18.3,20.6c-3.8,4.3-7.6,8.6-11.4,13
		C477.1,861.3,476.7,862,476.3,862.7z M251.8,723.9c1.3,0.6,2.1,1,2.9,1.4c5.4,2.3,10.7,4.6,16.1,6.9c2.2,1,2.2,1,3.7-1
		c0.2-0.3,0.4-0.5,0.6-0.8c7.5-10,15.6-19.4,24-28.7c5.7-6.2,11-12.6,16.5-19c0.7-0.9,1.3-1.9,2.1-3c-2.3,0.3-3.8,0.9-6,2.4
		c-19.2,13.2-38.4,26.5-57.6,39.7C253.4,722.4,252.8,723.1,251.8,723.9z M202.6,721.9c-1.8,2.6-3.2,5.2-3.8,8.2
		c-0.4,2-0.5,4.1-0.3,6.2c0.2,2.2,1.7,3.3,3.9,3.3c0.6,0,1.3,0,1.9-0.2c2.8-0.8,5.7-1.5,8.4-2.7c7.1-3.1,13.7-7.2,20-11.7
		c0.4-0.3,0.7-0.7,1.3-1.3c-3.5-1-6.7-2.2-10.1-1.6c-4.5,0.7-9,1.2-13.6,0.8C207.9,722.7,205.4,722.3,202.6,721.9z M525.7,862.3
		c1.1-0.3,2.2-0.5,3.2-1c1.5-0.8,3-1.6,4.2-2.7c4.1-3.5,8.2-7.2,12.2-10.7c1.1-1,1.5-2.2,1.7-3.6c0.2-1-0.2-1.9-1.1-2.4
		c-2.2-1.3-4.5-2.1-7.1-1.6c-8.1,1.5-15.9,9.4-17.4,17.6c-0.1,0.4-0.2,0.8-0.2,1.2c0,1.1,0.5,2.1,1.5,2.5
		C523.7,861.8,524.7,862,525.7,862.3z M375.7,803.9c-0.2-0.1-0.4-0.2-0.5-0.3c-0.3,0.2-0.7,0.3-1,0.5c-5,3.2-9.9,6.5-13.8,10.9
		c-2,2.2-3.7,4.8-5.3,7.3c-0.7,1.2-1,2.7-1.2,4.1c-0.2,1.3,0.6,2,1.9,1.6c1.3-0.4,2.6-0.9,3.6-1.7c6.9-4.9,12.3-11.1,15.4-19.1
		C375.1,806.2,375.4,805.1,375.7,803.9z M437.5,799c0.3-0.1,0.5-0.1,0.5-0.2c0.3-0.3,0.7-0.7,0.9-1.1c2.6-4.2,4.2-8.8,4.5-13.7
		c0-0.5,0-1-0.1-1.4c-0.3-2.3-2-3.9-4.3-4.1c-2.8-0.2-5.6,1.3-6.9,3.8c-1.3,2.5-1.5,5.2-0.5,7.9c1.1,3.1,3,5.8,5.1,8.3
		C437,798.7,437.3,798.9,437.5,799z M210.4,713c4.7,3.6,12.6,4.3,17.4,1.5c1.2-0.7,2.4-1.7,3.2-2.8c1.3-1.6,2.4-3.5,1.2-5.5
		c-1.2-2-3.3-2.4-5.5-2.1C220.4,705.2,215.2,708.6,210.4,713z M421.4,795.2c-3.3,3.3-5.9,6.3-6.3,10.6c-0.4,3.8,2.1,6.4,6,6.5
		c3.5,0.1,8-2.5,10-5.9C426.7,803.9,423.6,800.3,421.4,795.2z M317.6,727.4c4.8-2.3,9.2-4.6,11.9-9.4c0.3-0.5,0.5-1,0.7-1.5
		c1-2.6,0.6-4.9-1-5.9c-1.5-1-3.9-0.5-5.8,1.4c-2.6,2.6-4.4,5.7-5.3,9.2C317.6,723.2,317.2,725.1,317.6,727.4z"/>
	<path d="M361.2,746.8c-1.8-0.2-3.2-0.9-3.9-2.4c-0.7-1.4-0.6-3,0.4-4.3c1.2-1.5,2.5-2.7,4.6-2.4c1.7,0.2,3.1,1,3.7,2.6
		c0.6,1.6,0.1,3.8-1.3,4.8C363.7,745.8,362.4,746.2,361.2,746.8z"/>
</g>
</svg>
