<?xml version="1.0" encoding="utf-8"?>
<!-- Generator: Adobe Illustrator 23.0.4, SVG Export Plug-In . SVG Version: 6.00 Build 0)  -->
<svg version="1.1" id="Layer_1" xmlns="http://www.w3.org/2000/svg" xmlns:xlink="http://www.w3.org/1999/xlink" x="0px" y="0px"
	 viewBox="0 0 1008 1008" style="enable-background:new 0 0 1008 1008;" xml:space="preserve">
<g>
	<path d="M887.9,286.3c0.8,3.5,1.7,6.5,2.2,9.6c0.9,5.2,0,10.2-1.7,15.1c-2.9,8.4-8,15.4-14.5,21.4c-3,2.7-6.1,5.4-9.1,8.2
		c-3.9,3.6-4.9,8.3-4.6,13.4c0.5,8.4,1.1,16.7,1.5,25.1c0.3,7,0.2,13.9-1.2,20.8c-1.5,7.1-4.5,13.3-9.3,18.7c-2.4,2.7-4.9,5.2-7.3,8
		c-1.5,1.7-2.9,3.6-4.1,5.6c-1.5,2.5-2.1,5.3-1.8,8.3c0.5,4.8,1.1,9.5,1.1,14.3c0,6.3-2.6,11.6-7.4,15.7c-1.5,1.3-3.2,2.4-4.9,3.4
		c-1.5,0.9-3.1,1.3-4.8,0.9c-6.8-1.6-11.8,1.2-15.9,6.4c-3,3.9-5.3,8.2-6.8,12.9c-3.6,11.3-7.2,22.7-10.4,34.2
		c-1.9,6.9-3.3,14-4.8,21c-2,9.3-6.7,16.6-14.3,22.3c-3.2,2.4-6.4,4.9-9.3,7.6c-5.5,5-9.6,11.2-12.8,17.8c-3,6.2-5.8,12.6-8.6,19
		c-1.6,3.6-2.3,7.4-1.9,11.5c0.6,5.5-1.7,9.6-6.5,12.3c-2,1.1-4,2.1-5.9,3.2c-8.7,5-13.7,12.5-14.7,22.6c-0.4,4.1-0.5,8.3-0.9,12.4
		c-0.5,5.5-2.6,10.3-6.1,14.6c-1.1,1.3-2.2,2.6-3.1,4c-1.7,2.6-1.4,3.9,0.9,6c2.2,1.9,3.9,4.2,4.5,7.2c1,4.4-0.6,8.3-4.5,10.4
		c-2.3,1.2-4.9,1.9-7.3,2.9c-2.8,1.1-5.7,2.1-8.4,3.4c-1.4,0.7-2.5,1.9-3.5,3.2c-1.4,1.9-1.2,4.1,0.4,5.9c0.9,1,1.9,1.9,2.9,2.8
		c5,4.4,6.5,9.9,5,16.3c-0.5,2.2-1.2,4.5-2.2,6.6c-2,4.1-1.6,7.9,0.4,11.9c3.7,7.4,7.2,15,10.6,22.6c1.3,2.8,2.3,5.8,3,8.8
		c1.3,5.3,0.3,10.3-2.3,15c-1.2,2.2-2.7,4.3-4,6.5c-1.7,3-3.5,5.9-5.1,8.9c-2,3.7-4.6,6.9-7.8,9.6c-5.9,4.9-11.7,9.9-18.4,13.8
		c-0.1,0.1-0.2,0.2-0.4,0.6c0.3,0.7,0.6,1.5,1,2.3c3.1,6.9,4.9,14,4.8,21.6c0,1.4-0.1,2.9-0.4,4.3c-2.1,9.5-11.9,15-21.1,11.7
		c-5.9-2-8.6-6.7-9.3-12.6c-0.6-5.2,0.3-10,3.1-14.5c2.2-3.5,4.7-6.8,7.7-9.8c0.6-0.6,1.2-1.3,1.9-2c-2.6-3.8-5.2-7.4-7.9-11.2
		c-0.4,0.6-0.8,1.2-1.2,1.8c-2.2,3.3-4.3,6.7-6.7,10c-2.7,3.7-5.9,6.7-9.9,9c-2.5,1.4-5.1,2.3-8,2.3c-4.9,0-7.9-3-7.9-7.9
		c0-0.6,0-1.3,0-2.3c-0.9,0.7-1.6,1.2-2.2,1.7c-3,2.4-6.4,3.1-10.1,2.7c-2.7-0.3-4.8-1.7-6.3-4c-2-2.9-2.8-6.2-3-9.7
		c-0.1-1.2,0-2.4,0-3.8c-0.6,0.2-1.1,0.4-1.5,0.6c-2.1,1.3-4.2,2.7-6.2,4.1c-2.1,1.5-2.1,1.6-1,3.9c1.8,3.8,3.2,7.8,4.1,12
		c1,4.7,1.7,9.5,0.8,14.3c-1.8,10.2-12.7,16.1-22.2,11.9c-4.4-1.9-7-5.5-8-10.2c-1.3-6-0.3-11.7,3.1-17c2.3-3.6,4.9-6.9,8-9.9
		c0.4-0.4,0.7-0.8,1.3-1.5c-2.4-3.3-4.7-6.7-7.3-10.3c-0.6,0.9-1,1.6-1.3,2.3c-4.8,9-9.8,17.8-15.9,25.9c-2.5,3.3-5.4,6.3-8.2,9.4
		c-1,1-2.2,1.9-3.4,2.7c-3.7,2.3-7.2,1.7-10.1-1.5c-1.7-1.9-2.5-4.2-2.7-6.8c-0.3-3.3-0.1-6.6,0.7-9.8c2.8-11.3,5.7-22.6,8.6-33.9
		c1.5-6,2.9-12.1,4.4-18.2c0.2-1,0.2-2.1,0.3-3.2c-0.2-0.1-0.3-0.2-0.5-0.2c-0.7,0.7-1.5,1.4-2,2.2c-2.3,3.7-4.7,7.3-6.7,11.1
		c-5.3,9.8-10.3,19.7-15.5,29.5c-1.8,3.5-3.6,7-7,9.3c-1.5,1-3.2,1.9-4.9,2.4c-2.6,0.8-4.7-0.5-5.3-3.1c-0.4-2-0.4-4.1-0.3-6.2
		c0.1-2.2,0.5-4.3,0.7-6.4c0.1-0.7,0.1-1.4,0.2-2.3c-1,0.2-1.2,1.1-1.6,1.7c-2.2,3.3-4.6,6.4-7.5,9c-3.6,3.1-7.4,5.5-12.3,5.9
		c-5.1,0.3-8.4-2.7-8.4-7.8c0-0.7,0-1.4,0-2.4c-2.6,1.9-4.8,3.8-7.7,4.3c-2.8,0.4-5.6,0.5-8.1-1.1c-2.6-1.6-3.9-4.1-5.1-7.3
		c-0.7,1.3-1.1,2.2-1.6,3.1c-3.7,7.6-7.9,15-13.1,21.7c-1.9,2.5-4.1,4.7-6.4,6.8c-1.5,1.3-3.3,2.3-5.1,3c-3.2,1.3-5.6,0.3-7.3-2.7
		c-0.8-1.4-1.4-2.9-1.6-4.5c-0.6-4.8-0.8-9.7-1.4-14.5c-0.3-2.8-0.8-5.7-1.6-8.4c-0.8-2.8-2.5-3.2-4.5-1c-1.9,2-3.4,4.2-5,6.4
		c-0.8,1.1-1.6,2.2-2.4,3.3c-0.8,1-1.7,1.6-3.1,1.3c-1.4-0.3-2.4-1.1-2.6-2.5c-0.3-1.8-0.5-3.6-0.6-5.5c-0.1-1.4,0-2.8-0.4-4.3
		c-0.3,0.5-0.6,1-0.9,1.5c-3,4.9-5.8,9.9-8.9,14.8c-2.3,3.6-5.1,6.8-8.4,9.4c-1.3,1-2.8,2-4.3,2.5c-4.1,1.4-8.1-0.4-10.4-4.4
		c-2.4-4.1-2.8-8.6-2.3-13.2c1-8.1,3.9-15.6,7.3-23c0.6-1.4,1.3-2.7,2.1-4.5c-3.2,1.1-6.1,1.3-9.2,0.5c-1.5,3.3-2.9,6.5-4.4,9.7
		c-2.4,5.1-5,10-8.4,14.5c-1.3,1.7-2.7,3.4-4.3,4.8c-4,3.6-8.6,4.8-13.8,3.3c-4.4-1.3-6.8-4.3-7-8.9c-0.1-1.4,0-2.9,0.1-4.3
		c0.1-1.3,0.5-2.6,0.7-4.2c-1-0.1-1.8-0.4-2.7-0.3c-5.7,0.2-11.3,0.4-17,0.7c-2.1,0.1-3.4,1.1-4.6,2.9c-3.4,5.4-7,10.7-10.6,15.9
		c-3,4.2-6.6,7.8-10.5,11.1c-2.6,2.2-5.4,4-8.6,5.1c-5.3,1.8-10,0.2-13.1-4.6c-2.5-3.9-3.5-8.2-3.4-12.8c0-1.5,0-3,0-4.7
		c-0.8-0.1-1.7-0.3-2.5-0.3c-10.2-0.5-17.9-5.4-23.7-13.6c-4.2-5.9-6.4-12.7-7.8-19.7c-1.9-9.3-2-18.7-1.5-28.2
		c0.3-6.2,0.6-12.5,1.1-18.7c0.7-8.4,0.3-16.8-0.3-25.2c-0.1-2.3-0.3-4.6-0.7-6.9c-0.6-3.2-2.2-4.5-5.5-4.6
		c-2.1-0.1-4.1,0.1-6.2,0.3c-2,0.1-4,0.3-6,0.3c-2.6-0.1-5.1-0.9-6.8-3c-1.6-2-3.5-2.4-6-2c-10.4,1.6-18.9-2.4-26.3-9.4
		c-8.7-8.3-11.9-18.8-12.6-30.4c-0.4-7.9,0.5-15.8,1.3-23.7c1-10.4,2.2-20.8,3.1-31.2c0.9-10,1.6-20.1,2-30.1c0.3-7.9,0-15.8,0-23.7
		c0-7.2-0.1-14.4-0.2-21.6c-0.1-11.1,1.5-22.2,2.3-33.2c0.7-9.6,1.4-19.3,1.8-29c0.5-11.2,0.6-22.4,0.8-33.6
		c0.2-12.7,0.3-25.4,0.5-38.1c0.1-7.4,0.7-14.9,0.7-22.3c0-6.9-0.2-13.8-0.7-20.6c-1-13.9-2.3-27.9-3.6-41.8
		c-1.4-15.4-3-30.7-4.6-46.1c-1.5-14.6-2.9-29.1-4.5-43.7c-1.4-12.9-2.9-25.7-4.6-38.6c-1.7-12.8-3.5-25.7-5.4-38.5
		c-1.4-9.2-3-18.5-4.5-27.7c-1.4-8.2-2.2-16.5-1.7-24.8c0.4-7.8,2.3-15.3,6.1-22.2c0.5-0.9,1.1-1.8,1.7-2.6c1.3-1.6,3-2.4,5-2.5
		c0.8,0,1.6,0,2.4,0c236.7,0,473.4,0,710.1,0c0.5,0,1,0,1.4,0c3.2-0.2,5.7,1.2,7.7,3.6c7.1,8.5,11.8,18.2,14.2,29c0.9,4,1.6,8,2,12
		c0.5,5.3-1.1,10-4.9,13.8c-3.7,3.7-7.5,7.2-11.3,10.8c-8,7.5-16.1,14.9-24.1,22.4c-1.7,1.6-3.2,3.4-4.3,5.4c-1.7,2.8-0.9,5,2,6.5
		c3.2,1.7,6.7,2,10.2,2.1c14.5,0.4,28.9,0.8,43.4,1.2c8.2,0.2,16.5,0.5,24.7,0.8c3.7,0.1,7.3,0.6,10.8,1.8
		c7.6,2.8,11.3,8.6,10.7,16.7c-0.5,6-2.4,11.6-4.4,17.1c-1.5,4.2-3.4,8.3-5.5,12.2c-2.8,5.4-7,9.8-12.1,13
		c-3.5,2.2-7.2,4.1-10.8,6.2C891.6,284.3,889.7,285.3,887.9,286.3z M911.3,232.6c-3.3-1.3-6.4-1.4-9.5-1.5c-3.1-0.1-6.2,0-9.4-0.1
		c-12.4-0.4-24.8-0.8-37.1-1.3c-8.1-0.3-16.1-0.6-24.2-1.1c-4.8-0.3-9.4-1.6-13.6-4.2c-8.5-5.2-12.5-16-6.8-25.9
		c1.6-2.7,3.6-5.3,5.8-7.6c3.7-3.8,7.6-7.3,11.5-10.9c7.5-6.9,14.9-13.8,22.5-20.5c3-2.7,4.2-5.7,3.1-9.6c-1.2-4.1-2.2-8.2-3.5-12.2
		c-1.3-4-3.3-7.6-5.4-11.2c-1.3-2.2-2.9-3-5.6-3c-233.1,0.1-466.2,0.1-699.4,0.1c-0.6,0-1.1,0-1.7,0c-0.6,0-1.2,0.1-1.9,0.2
		c-2.4,5.3-3.2,10.8-3.4,16.4c-0.2,7.9,0.9,15.6,2.4,23.3c3.1,14.9,5.3,29.9,7.3,45c1.5,10.6,2.8,21.2,4,31.9
		c1.4,12.1,2.8,24.1,4.1,36.2c1.3,11.6,2.4,23.2,3.6,34.8c1.4,13.8,2.8,27.5,4.1,41.3c1,10.6,2,21.2,3.1,31.7
		c1.3,12.8,1.9,25.7,1.4,38.5c-0.4,9.9-0.7,19.8-0.9,29.7c-0.2,9.8-0.2,19.7-0.4,29.5c-0.2,9.6-0.4,19.2-0.6,28.8
		c-0.3,12.7-1.2,25.4-2.7,38c-1.2,10.6-1.6,21.2-1.6,31.8c0,6.2,0.1,12.3,0.3,18.5c0.5,17.1-0.4,34.2-2,51.3
		c-1.3,14.1-3,28.1-4.5,42.2c-0.6,5.7-0.7,11.3,0.3,17c0.9,5,2.7,9.5,6.5,13c0.8,0.7,1.7,1.2,2.4,2c2.7,2.9,6.1,3.9,9.9,4.1
		c2.5,0.1,5,0.1,7.4,0.2c3.8,0,7.5,0.7,10.3,3.2c2.1,1.9,4.2,2,6.6,1.7c2.3-0.2,4.6-0.4,6.9-0.3c9.7,0.5,15.9,5.7,18.1,15.2
		c1.3,5.6,1.6,11.2,1.7,16.9c0.1,8-0.2,16-0.4,24c-0.2,9.1-0.7,18.2-0.9,27.3c-0.1,6.4,0.8,12.7,2.9,18.9
		c3.5,10.2,11.5,14.6,21.2,16.7c0.2-0.2,0.4-0.3,0.4-0.4c0.3-0.6,0.6-1.1,0.8-1.7c2-4.3,4.5-8.3,7.8-11.7c3.7-3.9,8.2-6.4,13.6-7
		c4-0.5,7.6,1.6,8.8,5.4c0.5,1.6,0.9,3.3,0.9,4.9c0.1,2.3-0.2,4.7-0.4,7c2.6-0.3,3.1-0.6,4.7-3.4c8.2-14.3,16.3-28.7,24.5-42.9
		c5.8-10.1,12.5-19.6,20.3-28.2c1.3-1.4,2.8-2.7,4.3-3.8c0.9-0.6,2-1.1,3.1-1.3c4.7-0.9,6.8,1.1,6.2,5.7c-0.4,3.3-1,6.7-1.9,9.9
		c-2.7,9.4-5.7,18.6-8.6,28c-2.9,9.6-5.7,19.1-8.6,28.7c-0.5,1.6-0.6,3.2-1,5c1.3,0.1,2.3,0.2,3.3,0.4c0.9,0.1,1.9,0.3,2.8,0.5
		c1.5,0.4,2.2,1.3,2.1,2.2c-0.1,1.1-1.4,2.2-2.7,2.2c-1.8,0-3.5,0-5.3-0.1c-1.3-0.1-2,0.6-2.1,1.8c-0.2,1.8-0.3,3.7-0.4,5.5
		c-0.1,2.9,0.9,3.8,3.8,3.5c5.4-0.6,9.9-2.7,13.1-7.4c4.4-6.5,7.5-13.7,10.3-20.5c-1.5-2.8-3-5.2-4.1-7.7c-0.7-1.8-0.9-3.9-1.3-5.8
		c-0.9-5-0.7-10,0.9-14.9c1.4-4,4.1-6.8,8.1-8.2c6-2.2,12.9,0.9,14.4,7.6c0.8,3.7,0.5,7.2-1.1,10.5c-1.5,3-3.4,5.8-5.1,8.7
		c-0.6,1-1.5,1.8-1.7,3.1c2.2,0.3,3.9-0.5,5.7-1.2c2.2-0.9,4.4-1.5,6.8-1.1c4.6,0.8,6.4,4,4.5,8.2c-1.7,4-3.5,7.9-5.2,11.9
		c-3,7.3-6,14.6-8,22.3c-0.5,2-0.7,4.1-0.8,6.2c-0.1,1.7,0.7,2.1,2.3,1.5c2.1-0.8,4-2.2,5.3-4c2.9-3.8,6-7.5,8.5-11.6
		c4-6.7,7.7-13.7,11.4-20.5c0.3-0.6,0.5-1.3,0.7-2c1-4.6,1.9-9.2,3-13.8c3-11.9,6.7-23.5,12.3-34.5c2.6-5.1,5.6-9.9,9.7-13.9
		c2.1-2.1,4.6-3.8,7.6-4.3c7.9-1.5,11.4,3.8,10.7,9.3c-0.6,4.6-1.8,8.9-3.7,13.1c-2.4,5.1-4.9,10.2-7.6,15.3
		c-4.8,9-10.2,17.6-17.3,25c-2.1,2.1-3.7,4.6-4.8,7.4c-0.2,0.5-0.2,0.9-0.3,1.4c0.2,0.1,0.3,0.2,0.5,0.3c0.2-0.3,0.3-0.8,0.6-1
		c2.5-2.5,4.9-5.1,7.6-7.3c3.5-2.9,7.5-4.5,12.2-4.2c2.6,0.2,4,1.4,4.4,4c0.2,1.1,0.1,2.2-0.1,3.3c-0.5,2.5-1.8,4.7-3.8,6.2
		c-2.1,1.5-4.4,2.9-6.6,4.3c-1.2,0.8-2.7,1.3-3.6,2.7c3.5,3.5,4.8,7.8,5.1,12.5c0.1,2.9,0,5.7,0,8.6c-0.1,2.3-0.6,4.6,0.4,7.1
		c0.9-0.4,1.8-0.7,2.5-1.3c2.2-1.8,4.5-3.7,6.4-5.8c5.4-5.8,9.2-12.6,12.6-19.7c2.9-6.1,5.5-12.3,8.4-18.3
		c4-8.3,11.1-12.3,19.9-13.5c2.9-0.4,5.8-0.2,8.5,0.8c2.5,0.9,4.7,2.3,5.5,5c1,3.3,1,6.8-0.2,10.2c-1.3,3.6-2.6,7.2-3.8,10.9
		c-0.9,2.8-1.7,5.7-1.6,8.7c0.1,3.1,1.7,4.2,4.4,2.7c2-1.1,3.9-2.6,5.5-4.2c4.5-4.4,8-9.6,11.4-14.8c0.5-0.7,0.7-1.6,1.1-2.4
		c0.4-0.7,0.8-1.6,1.5-2.1c3.4-2.4,7.4-0.7,8.1,3.4c0.1,0.7,0.2,1.4,0.2,2.1c0,3-0.1,6.1-0.1,9.1c0,0.7,0.1,1.3,0.2,2
		c0.2,0,0.3,0.1,0.5,0.1c1-1.7,2-3.4,2.9-5.1c4.4-8.3,8.6-16.6,13.1-24.8c2.2-3.9,4.9-7.5,7.5-11.1c1.1-1.5,2.5-2.7,3.9-3.8
		c4.1-3.4,12.8-2.3,14.4,5.6c0.7,3.7,0.7,7.3,0.2,11c-0.9,7-2.6,13.8-4.8,20.5c-3,9.4-6.1,18.7-9.1,28.1c-0.7,2.1-1.1,4.2-1.9,6.9
		c2.2-1.4,3.6-2.8,4.9-4.3c9-10.1,16-21.5,22-33.6c0.5-1.1,0.5-2.1,0.1-3.2c-1.9-5.8-1.1-11.4,2-16.6c3-5.1,10.5-6.8,15.7-3.9
		c3.8,2.2,4.8,6.2,2.5,9.8c-0.6,0.9-1.2,1.7-2.5,1.6c-1.2-0.1-1.5-1-1.8-1.9c-0.1-0.2-0.1-0.3-0.2-0.4c-0.7-1.3-1.8-1.5-2.9-0.4
		c-1,1-1.4,2.3-1.3,3.7c0.1,2.8,0.7,5.6,2,8.1c1.8,3.3,3.8,6.5,5.8,9.7c0.4,0.7,1,1.2,1.6,1.9c0.9-0.6,1.6-1.1,2.3-1.6
		c3.5-2.4,6.9-4.9,10.5-7.2c0.9-0.6,1.6-1.2,2.2-2.1c5.6-9.3,14.1-13.3,24.7-12.3c6.4,0.6,10.2,4.6,9.8,11.8
		c-0.2,2.9-1.2,5.6-2.2,8.3c-1.2,3.1-2.5,6.2-3.4,9.5c-0.6,2-0.9,4.2-0.9,6.4c0,2.6,1.6,3.5,3.9,2.3c1.9-1,3.7-2.3,5.2-3.7
		c4.7-4.4,8.2-9.8,11.8-15.1c0.8-1.2,0.9-2.3,0.4-3.7c-2.1-5.8-1.4-11.5,1.5-16.9c3-5.4,10.9-7.3,16.2-4.1c3.7,2.2,4.5,6.5,2,9.9
		c-1.5,2.1-3,1.9-4-0.4c-0.1-0.2-0.2-0.5-0.3-0.7c-0.7-1.4-1.7-1.5-2.9-0.4c-1.1,1.1-1.5,2.5-1.3,4c0.2,1.8,0.5,3.7,1,5.4
		c1.5,4.9,4.4,9,7.4,13.1c0.2,0.2,0.5,0.3,0.9,0.6c6.6-4.7,11.6-10.6,13.8-18.4c1-3.5,1.7-7,3.5-10.1c2.2-3.6,4.4-7.2,6.8-10.7
		c1.8-2.6,2.4-5.2,1.3-8.1c-1.1-2.9-2.3-5.8-3.6-8.6c-3.3-6.9-6.8-13.8-10-20.7c-2.6-5.6-2.5-11.5-0.3-17.3c0.8-2,1.5-4.1,2.2-6.1
		c0.5-1.5,0.3-2.8-0.8-4c-0.9-1-1.9-1.9-2.9-2.8c-2.4-2.2-4.1-4.9-4.8-8.1c-1.5-6.4-0.3-12.2,3.5-17.5c3.3-4.7,7.9-7.7,13.1-9.7
		c1-0.4,2-0.8,3.1-1.2c-4.1-7-3.1-13.6,0.8-20c0.8-1.3,1.6-2.6,2.6-3.7c3.4-3.7,4.9-8.1,5-13.1c0.1-4,0.2-8,0.9-11.9
		c2.7-14.2,10.8-24.7,23.5-31.6c0.9-0.5,1.8-0.9,2.8-1.3c0-0.6,0.1-1.1,0.1-1.5c-0.1-4.9,0.8-9.6,2.7-14c3-7.1,5.9-14.2,9.2-21.1
		c3.8-8.1,8.8-15.4,15.5-21.5c3.5-3.2,7.2-6.3,11-9.3c4.8-3.8,8.1-8.6,9.3-14.7c0.2-1,0.5-2,0.7-3c3.5-17.5,8.4-34.6,14.4-51.4
		c2.6-7.1,5.6-14,10.6-19.8c6-7,13.4-11.2,22.8-11.7c0.8,0,1.6-0.2,2.4-0.4c2.5-0.4,3.7-2.1,4-4.4c0.1-0.6,0.2-1.3,0.1-1.9
		c-0.4-3.6-0.6-7.2-1.2-10.7c-0.7-4.1-0.3-8,0.9-11.8c1.4-4.5,3.9-8.4,6.9-12c2.7-3.2,5.6-6.2,8.3-9.3c3.7-4.2,6.2-9.1,6.9-14.8
		c0.4-3.2,0.7-6.4,0.5-9.6c-0.2-6.5-0.8-13.1-1.1-19.6c-0.2-4.4-0.6-8.8-0.6-13.2c-0.1-8.1,2.7-15.2,8.5-21c2.9-2.9,6.1-5.7,9.1-8.5
		c4.2-3.9,8.1-8.2,10.5-13.6c2.4-5.3,3.2-10.7,0.7-16.2c-0.5-1-0.9-2.1-1.1-3.2c-0.3-1.3-0.5-2.7-0.5-4c0.1-4.1,2.2-7.2,5.3-9.5
		c2.5-1.9,5.2-3.4,7.9-5c3.1-1.9,6.3-3.5,9.3-5.5c5-3.2,8.8-7.5,10.9-13c2-5.1,3.6-10.4,5.3-15.7C911.2,235.3,911.1,234,911.3,232.6
		z M330.9,783.4c-0.4,0.1-0.6,0.1-0.7,0.2c-0.4,0.5-0.9,0.9-1.3,1.4c-5.1,8-10.2,16-15.1,24.2c-7.4,12.3-14.5,24.8-21.8,37.2
		c0,0,0,0.2,0.1,0.2c0,0.1,0.1,0.1,0.2,0.4c6.8-0.1,13.7-0.3,20.7-0.4c0.3-1,0.4-1.7,0.6-2.4c2.2-8.5,4.3-17,6.7-25.5
		c3.1-10.8,6.5-21.5,9.8-32.3C330.5,785.5,330.6,784.5,330.9,783.4z M399.1,825.7c0.3-0.1,0.5-0.1,0.6-0.2c0.5-0.5,0.9-1.1,1.4-1.7
		c6.5-8.8,12.1-18,17.1-27.7c2.1-4.2,4.1-8.5,5.1-13.1c0.3-1.3,0.4-2.7,0.2-4c-0.3-1.9-2-2.6-3.6-1.5c-1.3,0.9-2.5,2.1-3.3,3.4
		c-1.7,2.5-3.2,5.2-4.5,7.9c-5.4,11.5-9.1,23.7-12.8,35.8C399,824.9,399.1,825.3,399.1,825.7z M247.3,865.3
		c-0.8,4.7-0.9,9.3,1.5,13.5c1.4,2.4,3,2.9,5.4,1.4c1.7-1,3.3-2.2,4.7-3.6c6.1-6.1,10.9-13.3,15.3-20.8c0.1-0.2,0-0.4,0.1-0.7
		c-0.4,0-0.7,0-1,0c-2.2,0.4-4.2,1.2-6.2,2.4C260.9,861.2,254.6,864.3,247.3,865.3z M654.5,865.4c-4.5,2.9-8.8,9.5-9.9,14.6
		c-0.6,2.8-0.4,5.6,0.5,8.2c0.9,2.4,2.3,4.2,5,4.6c2.6,0.4,4.6-0.8,6.3-2.8c1.3-1.6,1.9-3.5,2.2-5.5
		C660,877.7,657.5,871.7,654.5,865.4z M569.7,862.3c-5.5,3.4-10.2,11.7-10.1,17.8c0,2.4,0.3,4.8,1.7,6.9c2,3,5.3,3.6,8.4,1.7
		c2.3-1.4,3.4-3.6,4-6c0.8-3,0.8-6,0.2-9C573,869.7,571.7,865.9,569.7,862.3z M450.1,847.2c0,0.8,0,1.5,0,2.3c0,0.8,0.1,1.6,0.3,2.4
		c0.5,2.7,1.9,3.5,4.5,2.4c0.9-0.4,1.8-1,2.5-1.8c0.8-0.8,1.5-1.7,1.9-2.7c2.6-5.5,5.1-11,7.5-16.5c0.9-2.1-0.5-4-2.8-4.2
		c-2.3-0.2-4.4,0.4-6.2,2c-3.7,3.1-6.5,6.8-7.1,11.8C450.5,844.3,450.3,845.8,450.1,847.2z M599.5,854.1c0.2,1.3,0.3,2.7,0.6,4
		c0.5,2.1,1.7,2.7,3.7,2.1c1.6-0.5,2.9-1.4,3.8-2.8c1.1-1.8,2.3-3.7,3.2-5.6c1.8-3.9,3.6-7.8,5.2-11.8c1.3-3.2-0.8-5.6-4.2-5.2
		c-2.5,0.3-4.4,1.8-6.1,3.5C601.2,842.5,599.8,848,599.5,854.1z M250.7,853.8c4.4,0.4,8.7-0.3,11.9-1.9c2.9-1.4,5.2-3.3,6.9-6
		c1-1.5,1.2-3.1,0.7-4.8c-0.6-2.2-2.5-3.5-4.7-2.9c-1.1,0.3-2.2,0.8-3.3,1.4c-4,2.3-6.9,5.6-9.2,9.5
		C252.4,850.6,251.7,852.1,250.7,853.8z M350.6,823c2.8-2.3,5.8-7.3,6.2-10.5c0.2-1.6,0.1-3.2-0.1-4.7c-0.2-1.3-1.1-2.4-2.5-2.7
		c-1.3-0.3-2.3,0.6-3.1,1.5c-0.2,0.2-0.4,0.5-0.5,0.8C348.2,812.6,348.4,817.8,350.6,823z M402.2,845.9c0.9-0.4,2.3-0.8,3.4-1.6
		c2.6-1.7,5.1-3.6,7.6-5.4c0.3-0.2,0.6-0.5,0.9-0.8c1.1-1.2,1.4-2.6,0.8-3.2c-1-1-2.1-0.5-3.1,0c-3.6,1.6-6.9,3.6-9.7,6.5
		c-0.7,0.7-1.2,1.5-1.7,2.3C399.6,844.9,400.2,845.9,402.2,845.9z"/>
</g>
</svg>
