<?xml version="1.0" encoding="utf-8"?>
<!-- Generator: Adobe Illustrator 23.0.4, SVG Export Plug-In . SVG Version: 6.00 Build 0)  -->
<svg version="1.1" id="Layer_1" xmlns="http://www.w3.org/2000/svg" xmlns:xlink="http://www.w3.org/1999/xlink" x="0px" y="0px"
	 viewBox="0 0 1008 1008" style="enable-background:new 0 0 1008 1008;" xml:space="preserve">
<g>
	<path d="M889.5,798.8c-4.1-2.8-8.2-5.5-12.3-8.2c-1.4-0.9-2.7-2-2.7-4c0.1-3.9-1.3-7.4-3-10.8c-0.9-2-2.1-4.2-2.6-6.3
		c-1.2-5-3.5-9.2-6.9-12.9c-1.5-1.5-3-3.2-4.5-4.7c-2.2-2.3-3.3-5-3.3-8.2c0-2.4,0.1-4.7,0-7.1c0-1.1-0.1-2.3-0.7-3
		c-1.6-2-3.2-4.4-5.3-5.8c-4.1-2.8-7.4-6.4-10.8-9.7c-9.6-9.1-19-18.5-28.5-27.7c-15.4-14.9-30.6-29.8-46-44.7
		c-9.1-8.8-18.1-17.6-27.2-26.5c-14.7-14.2-29.3-28.5-44-42.7c-8.9-8.6-17.7-17.3-26.6-25.9c-13.8-13.5-27.7-26.8-41.5-40.3
		c-10.1-9.8-20.1-19.6-30.3-29.4c-13.4-13-26.8-26-40.3-39c-9.7-9.4-19.4-18.7-29.1-28.2c-12.8-12.3-25.4-24.6-38.2-36.9
		c-9.1-8.8-18.2-17.7-27.3-26.4c-7.9-7.6-16-15.2-24-22.8c-2.2-2.1-3.2-4.3-3.1-7.3c0.1-3.8,0.1-7.7,0.1-11.6c0-61.9-0.1-124,0-186
		c0-32.7-0.7-65.4,0.5-98.1c0.2-4.6-2.5-8.1-7-9C423,15.2,421,15,419,15c-102.9,0-205.8,0-308.6-0.1c-3.7,0-7.2,1.5-10,3.7
		c-3.2,2.6-4.8,5.3-5.5,9.3c-1.1,6.1-2.4,12.7,0.4,18.5c1.5,3.2,3,6.4,4.3,9.6c1.8,4.1,3.7,8.3,5,12.6c2.4,7.4,2.5,14.8-0.7,21.9
		c-3.1,6.9-4.1,14-3.9,21.3c0.2,7.4,0.3,14.7,0.7,21.9c0.2,6.5-2.1,12-6.5,16.7c-1.9,2-3.8,4.3-5.6,6.4c-3.1,3.7-5.7,7.8-7.2,12.4
		c-2.9,8.8,0.6,16.8,2.2,25.4c0.6,3.2,1.2,6.4,3.8,8.6c1.3,1.1,2.6,2.2,4,3.1c5.3,3.6,9.9,7.8,13.8,12.9c4.1,5.4,8.4,11,12.5,16.4
		c3.9,5.1,6.8,10.9,9,16.9c1.9,5.2,2.6,10.6,1.9,16c-0.5,5.1-1.4,10-2.2,15.1c-1.2,7.2-0.4,14.2,2.7,20.8c1.9,4,3.5,8.2,5.3,12.2
		c1.6,3.7,1.3,7-0.8,10.3c-0.4,0.6-0.7,1.1-1.1,1.7c-2.1,3.5-1.8,7.1,0.4,10.4c1.5,2.4,3.5,4.3,5.9,5.7c6.2,3.7,11.3,8.5,15.4,14.2
		c2.5,3.4,4.7,7.1,7.3,10.4c7.8,10,14.4,20.7,20.8,31.7c2.7,4.6,6,6.1,11.2,4.8c7.3-1.8,12-6.5,15.2-13c1.1-2.1,1.7-4.3,2.5-6.4
		c1.9-4.8,3.7-9.7,5.7-14.5c0.8-1.8,1.8-3.5,4.3-3.7c0.1,0.7,0.2,1.4,0.2,2c-0.5,6.3,0.8,12.7,1.4,19.1c0.4,5.1,3.4,7.4,7.7,8.6
		c3.4,1,7.1,1,10.6,0.4c6-1,12.1-2.2,18.1-3.4c0.7-0.1,1.5-0.1,2.7-0.2c-0.6,1.1-0.8,1.8-1.3,2.4c-3.1,4.2-6.6,8.1-10.5,11.5
		c-4.6,4-9.5,4.7-15.2,2.2c-3.9-1.8-7.9-3.2-11.9-4.5c-5.5-1.7-11.2-1.5-16.3,1.8c-8.1,5.2-10.6,16.1-5.6,24.6
		c4,6.8,7.9,13.4,11.9,20c7,11.3,13.3,23.1,21.2,33.9c2.3,3.4,2.8,7.1,1.5,11.1c-0.5,1.7-1,3.4-1.2,5.2c-0.6,5.3,1.2,9.9,4.6,13.8
		c5.6,6.4,11.2,12.6,16.8,18.9c1.6,2,3.1,3.9,3.5,6.5c-0.3,0.4-0.4,0.5-0.5,0.6c-1,0.4-2,0.8-3.1,1.3c-14.2,6.2-27.4,14-38.9,24.5
		c-6,5.6-11,12-13.7,19.9c-1.4,4.2-2.3,8.6-1.2,13.1c1.6,6.9,6.2,11,12.2,14.1c8.4,4.3,17.4,4.1,26.4,3.2c8.9-0.9,17.8-2.8,26.4-5.2
		c0.7-0.1,1.4-0.1,2.5-0.2c-0.9,1.2-1.4,1.9-1.8,2.7c-0.9,2-2.1,4-2.7,6.1c-0.9,3.7-0.8,7.3,1.9,10.4c2.4,2.6,5.4,4.4,8.9,4.6
		c2,0.1,4.1,0,6.6,0c-1.2,1.2-1.9,2.2-2.7,3.1c-3.5,4.2-2.8,9.3,1.8,12.4c2.7,1.8,5.5,2.7,8.7,3.1c6,0.6,11.8-0.2,17.6-2
		c1.2-0.4,2.2-0.7,3.4-1.1c-0.5,1.2-1.1,1.8-1.7,2.5c-2.6,3.1-5.2,6-7.6,9.2c-2.2,2.9-3.9,6.2-4.6,9.9c-1,5.9,2,11.2,7.7,13.1
		c3.4,1.1,6.9,1.4,10.6,0.9c6.1-0.7,11.7-2.4,17.3-4.5c0.6-0.2,1.3-0.5,2.1-0.7c-0.9,2.2-2,3.8-2.6,5.7c-1.9,5.5-0.4,9.9,4.8,12.6
		c2.1,1.2,4.4,2,6.6,2.5c4.6,1,9.2,0.8,13.8,0.2c2.9-0.3,5.8-0.9,9.3-1.5c-1.1,1.1-1.7,1.8-2.4,2.4c-6.1,5.9-11.8,12.2-16.5,19.4
		c-3.6,5.5-5.9,11.7-6.3,18.3c-0.4,5.5,4,9.7,9.5,9.7c0.3,0,0.7,0,1-0.1c5.3-0.6,9.9-2.9,13.7-6.7c2.7-2.8,5.2-5.9,7.4-9.2
		c4.3-6.5,7.4-13.8,10.6-20.9c0.2-0.6,0.6-1.2,0.8-1.7c2.1,1.8,4,3.8,6.1,5.2c3,1.9,6.5,2.6,10,2.6c0.8,0,1.9-0.3,2.7,0.6
		c-1,0.7-1.9,1.3-2.7,1.9c-2.9,2-5.2,4.3-6.9,7.4c-1.8,3.3-2.6,6.8-1.8,10.6c1.3,5.6,6,9.1,12.3,9.5c5.2,0.3,9.9-1.2,14.5-3.2
		c2.1-1,4-1,6.1,0.2c1.7,0.9,3.4,1.7,5.2,2.2c4.1,1.1,8.3,2.2,12.6,3.1c1.1,0.2,2,0.2,2.6,1.4c2.3,4.7,6.2,7.1,11,8.2
		c0.6,0.1,1.1,0.4,1.9,0.8c-0.7,0.3-0.9,0.6-1.3,0.7c-5.5,2.6-11.1,5-16.5,8c-6,3.2-11.3,7.2-15.8,12.3c-2.9,3.1-4.9,6.9-5.4,11.3
		c-0.8,6.7,3.1,10.4,7.9,11.1c4.2,0.8,8.5,0,12.6-0.9c9.7-2.2,18.7-6,27.7-10c0.8-0.4,1.7-0.7,2.5-1.1c-1.4,2-3.1,3.6-4.6,5.4
		c-1.3,1.4-2.5,3-3.3,4.8c-1.1,2.2-0.2,4.2,2,5.4c1,0.6,2.1,1.1,3.2,1.2c3.1,0.4,6.2,0.4,9.2-0.7c3.5-1.3,7.1-2.6,10.5-4.1
		c11.1-4.9,22.2-10,33.4-14.7c3.7-1.6,7.6-2.7,11.5-4c1.3-0.4,2.6-0.6,4.3,0.1c-0.7,1-1.2,1.8-1.8,2.4c-1.7,1.6-3.5,3.2-5.4,4.6
		c-12.1,9.1-24.1,18.1-36.2,27.3c-4.5,3.4-8.9,7.1-13,11c-2.8,2.5-4.8,5.7-5,9.6c-0.3,5.8,2.2,8.8,7,9.6c4.4,0.7,8.6-0.3,12.9-1.1
		c8.9-1.5,17.4-4.7,25.8-7.8c0.8-0.2,1.7-0.5,2.8-0.9c-1.2,2.6-2.5,4.7-3.3,7.1c-2.1,5.6-0.3,10,4.8,12.8c3.5,1.9,7.3,2.9,11.3,3
		c5.2,0.3,10.4-0.3,15.5-1.5c1.4-0.2,2.9-0.4,4.6-0.8c-1,2-1.9,3.6-2.5,5.4c-2.6,7.4,0.1,13.4,7.3,16c1.3,0.6,2.9,0.7,4.4,0.8
		c1.6,0.1,3.2,0,5.1,0c-1.8,2.1-3.8,4.8-4.1,7.6c-0.2,2.8,1.1,5.4,3.4,7c2.2,1.6,4.7,2.8,7.4,3.3c5.5,1.1,11.1,0.6,16.5-0.8
		c3.4-1,6.9-2,10.3-3.2c4-1.4,7.4-0.6,10.5,2.5c5.1,5.2,9.4,10.9,12.5,17.4c4.8,10.3,8.2,21.1,11.9,32c1.1,2.9,0.9,5.9-0.2,8.9
		c-0.2,0.7-0.6,1.6-0.8,2.4c-1.9,5.5-0.6,9.4,4.4,12.6c1.4,1,3,1.8,4.5,2.5c1.9,0.8,2.7,2,2.7,4.1c-0.1,2.6,0.4,5.3,2.1,7.4
		c1.4,1.9,3.2,3.8,5.9,3.8c5.9-0.1,11.9,0.1,17.8-0.6c12.6-1.4,25.2-2.3,37.8-3.5c8.3-0.8,16.7-1.7,25.1-2.5
		c10.8-1.1,21.6-2.1,32.4-3.2c8.3-0.8,16.7-1.7,25.1-2.5c11.5-1.2,22.9-2.6,34.4-3.7c9.5-0.9,18.7-2.6,27.7-5.7
		c1.9-0.6,3.2-1.6,3.9-3.4c1.2-3,2.3-5.9,3.4-9c1-2.9,1.5-5.8,0.9-8.9c-0.5-3.1-1-6.1-1.4-9.2c-0.3-3.3-2.1-5-5.3-5.7
		c-2.8-0.6-5.7-1.5-8.4-2.4c-2.1-0.7-2.4-1.6-1.5-3.7c2.9-6.5,3-13,0.2-19.5c-1.4-3.3-0.7-6.2,1.9-8.7l1.4-1.4
		c5-4.8,7.4-10.4,7.2-17.3c-0.1-2.5,0.8-4.5,2.6-6.3c1.6-1.5,3-3.1,4.4-4.8c2-2.3,3.1-5.1,1.8-7.9c-2-4.5-2.7-9.2-4.1-13.8
		c-0.7-2.6-0.4-4.3,1.8-6.1c2.1-1.6,3.9-3.7,4.6-6.3c0.7-2.7,2.5-4.6,4.4-6.5c5-4.7,10-9.6,14.8-14.4c1.5-1.5,2.6-3.2,3.7-5
		c0.6-0.9,0.7-2.1,0.8-3C895.1,804.8,893.3,801.3,889.5,798.8z M278.9,634.1c-1.4-0.2-2.3-0.4-2.9-0.7c-3.2-1.1-4.2-3-2.4-5.8
		c4.9-8,11.6-13.3,21.4-13.7c2.5-0.1,4.9,0.6,6.9,2.1c3.3,2.5,3.1,5.6-0.4,7.7c-1.7,0.9-3.3,1.9-5,2.7c-3.9,2-7.9,4.1-11.9,5.9
		C282.7,633.2,280.6,633.6,278.9,634.1z M379.7,710.8c-2.5,4.7-5,9.6-7.7,14.2c-2,3.4-4.3,6.7-6.4,10c-2,3-4.4,5.6-7.2,7.6
		c-1,0.8-2.3,1.3-3.5,1.7c-1.8,0.5-2.5-0.5-2-2.2c0.4-1.3,0.9-2.5,1.5-3.7c5.6-10,12.2-19.1,20.4-27.3c2.3-2.2,3.1-2.7,5.7-3.5
		C380.1,708.9,379.9,710,379.7,710.8z M403.1,745.5c-5-0.5-7.8-5.2-5.6-9.7c1.9-3.9,5.3-6.2,9.2-8.7c1,6,3.5,10.8,7.4,14.9
		C410.5,744.3,407.1,745.9,403.1,745.5z M423.2,736c-2.5-5-4.4-9.5-3.8-14.5c0.6-4.8,4.5-8,9.1-7.8c3.3,0.2,5.4,2.5,5.2,5.8
		c0,0,0,0.1,0,0.2C432.2,726.2,428.6,731.3,423.2,736z M568.8,883.2c-2,0.6-3.9,0-5.7-1.1c-1.5-0.9-1.9-2.1-1.3-3.9
		c0.1-0.5,0.4-0.9,0.6-1.3c4.9-7.7,11.3-13.4,19.7-13.5c5.4-0.2,8.5,1.7,10,5.2c0.8,2.2,0.5,3.2-1.4,4.3c-5.3,2.8-10.7,5.7-16.3,8.4
		C572.7,882.1,570.7,882.6,568.8,883.2z M866.6,817.3c-1.9,1.7-3.8,3.4-5.7,5.1c-2.9,2.6-5.2,5.5-6.6,9.3c-0.6,1.7-2,3.4-3.4,4.7
		c-5,4.6-6,10.1-4.6,16.5c0.8,3.4,1.7,6.6,2.6,9.9c0.7,2.6,0.4,4.6-1.5,6.5c-3.3,3.4-4.9,7.5-4.8,12.3c0.1,4.3-1.5,7.8-4.7,10.8
		c-7.1,6.5-8.9,14.4-5.4,23.4c1.4,3.6,1.4,6.9-0.1,10.6c-3.9,9.5,1,19,9.6,23.3c1.5,0.7,3,1.3,4.5,1.9s2.2,1.6,2.1,3.3
		c-0.1,3.1-1.8,5.4-5.2,6.1c-3.3,0.9-6.9,1.4-10.3,1.8c-13.6,1.4-27.3,2.7-40.9,4.1c-12.4,1.3-24.8,2.6-37.2,3.8
		c-10.6,1.1-21.3,2-31.9,3.1c-12.9,1.3-25.9,2.6-38.9,3.8c-5.3,0.5-10.5,0.9-15.8,1.3c-1,0.1-2.1,0-3.4,0
		c-1.1-6.1-4.8-10.4-10.6-13.1c0.1-1.5,0.3-2.9,0.5-4.3c0.6-3.9,0.6-7.9-0.8-11.7c-3.6-10-7-20.2-10.9-30.1
		c-5.1-13.1-13.7-21.7-27.5-25.2c-3.6-0.9-6.9-0.3-10.3,0.8c-4.6,1.4-9.2,2.7-13.8,4c-4.6,1.3-11.2,3.8-15.7,1
		c-1.3-0.8-1.6-1.9-0.9-3.4c0.5-1.2,1.3-2.4,2.2-3.2c1.8-1.8,4-3.6,6.1-5c3.8-2.6,7.8-4.8,11.7-7.4c1.8-1.1,3.6-2.6,5-4.1
		c3.4-3.8,3.7-8.3,0.6-12.4c-4.2-5.7-9.8-9-16.7-10.5c-6.1-1.3-12-0.8-17.6,2.2c-2.6,1.5-5.4,2.5-8.4,3.2
		c-6.2,1.6-12.5,3.3-19.1,3.5c-3,0.1-5.7-0.3-8.3-1.7c-3.7-2-4.4-4.5-2-7.9c1.3-1.9,2.9-3.7,4.7-5.2c2.5-2.3,5.1-4.2,7.7-6.3
		c1.1-0.8,2.2-1.7,3.1-2.6c1.3-1.3,1.7-2.8,0.9-4.6c-0.8-1.7-2.1-2.9-4.1-2.8c-1.5,0.1-3,0.5-4.3,1.2c-14.4,7.3-29.5,12.4-45.5,15
		c-2,0.3-4.1,0.7-6.7-0.4c1.3-1,2.2-2,3.3-2.7c7.4-5,14.8-10,22.2-14.8c8.6-5.7,17.2-11.2,24.9-18.2c3-2.6,5.6-5.6,8.2-8.6
		c1.1-1.3,1.8-2.9,2.6-4.4c3.6-7-2-14.2-8.6-14.1c-3.1,0.1-6,0.6-9,1.3c-8.9,2.2-17.1,5.9-25.4,9.6c-6.4,2.7-12.6,5.7-18.9,8.4
		c-1.3,0.6-2.7,0.9-4.4,1.5c-0.1-1.5,0.8-2.1,1.4-2.8c2.1-2.6,4.3-5.1,6.4-7.7c0.7-0.8,1.4-1.8,2-2.7c2.4-3.5,1.7-5.9-2.1-7.8
		c-1.8-0.8-3.5-0.7-5,0.6c-1.3,1-2.6,2.1-4.1,2.8c-11.7,5.3-23.3,10.7-35.8,13.9c-2.9,0.8-5.9,1.5-8.9,1.7c-1.9,0.1-3.9-0.2-5.8-0.8
		c-1.9-0.6-2.2-1.6-1.1-3.3c0.9-1.3,1.9-2.5,3-3.4c4.7-4.2,10.3-7.4,15.7-10.6c7.1-4,14.3-7.8,21.4-11.7c0.4-0.2,1-0.5,1.5-0.7
		c4-2.2,4.6-5.7,1.9-9.2c-2.8-3.7-7.4-3.8-11.2-5.9c-0.4-0.2-2.5-1.3-2.5-1.8c0-0.5,1.9-1.1,2.4-1.2c3.3-1.1,6.6-1.9,9.7-3.3
		c2.6-1.2,5-2.7,7.4-4.5c2.7-2.1,4.2-5,4.8-8.2c1.3-6.7-3.4-13-10.4-13.9c-3.8-0.6-7.3,0.1-10.5,2.2c-3.4,2.2-6.3,5-8.5,8.5
		c-2.9,4.7-5.4,9.6-6.7,15c-3.8-0.4-7.2-1.2-10.5-2.5c-0.9-0.4-1.9-0.9-2.7-1.5c-2.4-1.7-2.5-2.9-0.5-5.1c2.3-2.8,4.8-5.4,7-8.2
		c2.9-3.7,4.5-8,4.6-12.8c0.1-4.7-1.7-8.7-5-11.9c-5.2-4.8-11.3-6.6-18.3-4.6c-6.2,1.8-9.3,6.5-11.3,12.2c-0.2,0.8-0.5,1.7-0.7,2.6
		c-6.5,0.3-12.3-0.9-16.9-5.6c-3.1-3.2-3.4-7.4-2.7-11.5c0.4-1.8,2.6-3.1,5.2-3.2c2.6-0.1,5.2-0.3,7.7-0.5c12-1,23.2-4.6,33.2-11.2
		c4-2.6,5.7-6.4,5.3-11.1c-0.3-3.8-3.8-7.3-7.9-7.7c-2.7-0.2-5.7-0.1-8.4,0.5c-9,2-17,6.3-24.7,11.1c-6.9,4.5-13.7,9.5-20.4,14.3
		c-1.4,0.9-2.7,1.8-4.5,2.2c-4.9,1.1-10,2.5-15.1,3.3c-4.6,0.8-10.9,1.5-15-1.1c-3.2-1.8-3.8-4.1-1.9-7.1c1.2-1.9,2.7-3.7,4.4-5.2
		c2.8-2.5,5.8-4.6,8.6-7c0.8-0.7,1.8-1.3,2.6-2.1c1.8-1.7,2-3.2,1.1-5.1c-0.9-1.9-2.7-3.1-4.8-2.6c-1.8,0.4-3.7,1.1-5.1,2.2
		c-5,3.8-10.8,6.1-16.5,8.6c-4.7,2.1-9.6,3.4-14.7,4c-2.6,0.4-5.2,0-7.8-0.7c-2.3-0.7-2.9-1.7-1.8-3.8c1.1-2.3,2.4-4.4,3.9-6.3
		c5.4-7.1,11.8-13.3,18.3-19.4c1.5-1.6,3.3-1.8,5.4-1.7c8,0.5,16.1,0.2,24-1.5c11-2.3,21.4-6,30.4-13.1c2.4-1.8,4.6-3.9,6.5-6.3
		c1.4-1.8,2.6-3.8,3.3-5.9c1.3-3.8,0-7.4-3.2-9.8c-2.4-1.8-5.2-2.8-8.2-3c-6.5-0.5-12.6,1.3-18.6,3.3c-11.9,4.1-22.8,10.4-33.2,17.5
		c-5.2,3.5-9.9,7.5-15,11.2c-1.4,1-2.9,2-4.6,2.5c-5.2,1.4-10.4,2.9-15.7,3.8c-2.9,0.6-5.9,0.3-9,0.4c-0.5,0-0.9-0.1-1.4-0.2
		c-3.5-0.9-4.3-2.9-2.2-6c2.2-3,5.1-5,8.2-7c3.6-2.4,7.3-4.5,10.8-6.9c1.7-1,3.1-2.2,4.5-3.5c4.7-4.4,3.8-9.8,1.2-13.6
		c-2.7-3.9-6.3-6.5-10.6-8.3c-7.8-3.3-15.7-3.4-23.5,0.5c-0.7,0.3-1.6,0.7-2.4,0.8c-7.8,1.5-15.5,2.9-23.2,4.3
		c-7.9,1.4-15.7,3.1-23.9,2.5c-3.3-0.2-6.5-0.7-9.6-2.1c-7.2-3.3-9.6-10-5.9-17.1c3-5.8,7.3-10.6,12.1-14.9
		c10.9-9.6,22.8-17.5,35.7-24c0.4-0.1,0.7-0.4,1.1-0.5c3.1-1.4,3.1-1.5,5.2,1.1c2.8,3.4,6.4,5.7,10.5,7.4c6.6,2.7,13.5,4.2,20.7,4.1
		c5.1-0.1,9.8-1.3,14.2-4.1c9.1-5.9,8.6-17.1,0.8-23.2c-3.6-3-8-4.3-12.5-5c-8.8-1.4-17.5,0-26.1,2c-3,0.7-6,1.6-9.3,2.5
		c-0.7-2.8-1.5-5.7-2.1-8.5c-1.6-7.7-4.5-14.9-9.8-20.8c-2.7-2.9-3.3-6.1-2.1-9.9c2.4-8,1.2-15.7-3.5-22.7
		c-9.5-13.8-17.8-28.4-26.2-42.8c-2.2-3.8-4.5-7.6-6.7-11.5c-0.4-0.5-0.6-1.6-0.4-2.2c0.6-1.2,1.8-1.6,3-1.2
		c2.2,0.7,4.4,1.6,6.6,2.4c3,1.2,5.9,2.3,9,3.4c7.1,2.3,13.8,1.6,20.3-1.8c4-2.2,7.5-4.8,10.5-8.2c3.7-4.3,7.4-8.4,10.9-12.8
		c4.3-5.1,5.8-11,4.3-17.5c-1.3-5.2-5.5-8.1-10.8-7.4c-8.8,1.1-17.7,2.3-26.4,3.5c-1.5,0.3-2.9,0.3-4.3,0.4c-1.3-3.4-1.4-7-1.4-10.4
		c-0.1-2.6,0-5.2-0.2-7.7c-0.5-6.4-6.4-12.4-15.4-11.8c-5.5,0.4-10.1,2.9-13.8,7c-3.4,3.9-5.7,8.3-7.2,13.1c-1.1,3.3-2.1,6.5-3,9.8
		c-0.3,0.6-0.5,1.2-1.1,2.7c-1.1-1.4-1.7-2.4-2.5-3.3c-5.2-6.1-10.4-12.2-15.6-18.3c-2-2.3-3.9-4.8-5.7-7.4
		c-6.1-9-12.6-17.4-21.9-23.4c0.4-1.7,0.8-3.3,1.2-5c0.7-3.2,0.8-6.4,0.1-9.6c-1.3-6.4-3.2-12.6-6.5-18.3
		c-3.1-5.1-3.4-10.4-2.5-16.1c1-5.9,2.2-12,2.4-18c0.5-9.7-2-18.9-6.7-27.4c-6.4-11.7-13.7-22.8-23.2-32.4c-3.4-3.5-7.3-6.8-11.1-10
		c-2.4-1.9-3.9-4.2-4.6-7.2c-0.4-1.5-1-3.1-1.7-4.5c-2.3-4.8-1.9-9.5,1.4-13.8c2.1-2.9,4.2-5.6,6.6-8.2c7.7-8.2,11.4-17.9,11.2-29.1
		c-0.1-6.3-0.3-12.4-0.7-18.7c-0.2-6.2,0.6-12.2,3-18c4.6-11.2,4.3-22.7,0.2-34c-2.3-6.4-5.2-12.5-7.9-18.8c-1.3-3-2.1-5.8-0.7-9
		c0.6-1.3,1.3-2.2,3-2c0.7,0.1,1.3,0,2,0c1.9,0,3.8,0,5.7,0c5.3,0,10.5,0,15.8,0c8,0,15.9,0,23.9,0c10,0,20,0,30,0
		c11.4,0,22.8,0,34.1,0c12.1,0,24.2,0,36.3,0c12.2,0,24.3,0,36.5,0c11.6,0,23.2,0,34.7,0c10.3,0,20.6,0,31,0c8.4,0,16.8,0,25.2,0
		c5.8,0,11.7,0,17.5,0c2.7,0,5.4-0.1,8.1,0c0.6,2.1,0.6,4,0.6,6.2c0,0,0,280.2,0,280.2c0,1.9,0,3.6-0.1,5.4
		c-0.5,5.6,1.8,10,5.8,13.8c4.3,4.1,8.5,8.1,12.8,12.1c10.6,10.2,21.3,20.3,31.9,30.6c13.2,12.7,26.5,25.6,39.9,38.5
		c9.2,8.9,18.3,17.7,27.5,26.6c13,12.5,26.1,25.2,39.1,37.8c10,9.7,20.1,19.5,30.1,29.2c14.1,13.6,28.1,27.1,42,40.7
		c8.9,8.5,17.6,17.1,26.5,25.6c14.3,13.8,28.6,27.7,42.9,41.6c10.1,9.8,20.3,19.6,30.3,29.4c14.3,13.8,28.6,27.7,42.9,41.6
		c11.9,11.5,23.9,23.1,35.8,34.7c3.6,3.6,7.4,7.3,11.2,10.8c2.7,2.5,4.2,5.4,4,9.2c-0.4,6,2,10.9,6.1,15l0.9,0.9
		c4,3.7,7.1,8.1,8.4,13.5c0.4,2,1.6,3.8,2.2,5.8c0.9,3,2.2,5.9,2.6,9c0.7,5.4,3.3,9.3,7.7,12.3c2.2,1.4,4.4,3,6.6,4.4
		c0.7,0.5,1.3,1,2.5,1.8C872,812.3,869.7,814.4,866.6,817.3z M457.3,749.7c1.8-6.5,5.1-11.3,10.5-14.4c1.1-0.6,2.4-1,3.7-1.1
		c2.8-0.1,4.4,1.9,3.7,4.6c-0.4,1.1-0.9,2.4-1.7,3.2c-1.5,1.7-3.3,3.3-5.3,4.5C465,748.3,461.4,749.3,457.3,749.7z M397.6,693.2
		c0.4-0.5,0.7-1,1.1-1.2c9-5.6,18.2-11,28.4-14.3c2-0.7,4.1-1.5,6.5-0.8c0.3,1.8-0.3,3.1-1.5,4c-2.3,1.9-4.7,3.9-7.4,5.4
		c-7.5,4-15.6,5.9-24,7c-0.7,0.1-1.3,0.1-2,0.1C398.4,693.4,398.2,693.3,397.6,693.2z M337.7,647.1c0.6-0.5,1.2-1.1,2-1.7
		c10.4-7.2,21.3-14,32.9-19.3c3.7-1.7,7.9-2.9,11.9-4.1c1.9-0.4,4-0.4,5.9-0.2c2.6,0.4,3.5,2.3,2.1,4.5c-1.5,2.3-3.3,4.4-5.3,6.3
		c-3.9,3.6-8.6,5.9-13.4,7.9c-9.8,4-20.1,6.2-30.7,7c-1.8,0.1-3.4,0.1-5.2,0.2C337.8,647.5,337.8,647.3,337.7,647.1z M270,552.1
		c0.7-0.5,1.3-0.8,1.9-1.3c7.8-2.5,15.7-4.6,24.1-4c3.1,0.3,6.2,0.9,9,2.4c4.1,2.3,4.7,6.2,1.5,9.6c-2.5,2.6-5.7,3.8-9.1,3.9
		c-3.1,0.1-6.1-0.2-9.2-0.8c-5.2-1-10-3.2-14.5-6C272.2,555.1,270.7,554.1,270,552.1z"/>
	<path d="M556.3,830.6c-2.7,0-4.7-1.3-5.2-3.1c-0.6-2.1,0.1-4,2.1-5.4c1.9-1.3,4-1.8,6.1-0.6c1.5,0.9,2.6,2.2,2.5,4.1
		c-0.2,1.9-1.1,3.4-3,4.3C557.9,830.4,556.8,830.5,556.3,830.6z"/>
	<path d="M368,668.6c-2.4-0.2-4.1-1.4-4.7-3.2c-0.6-2.1,0-4.1,2-5.3c1.1-0.6,2.4-1.2,3.7-1.3c2.1-0.1,4.3,1.7,4.7,3.7
		c0.5,1.8-0.6,4.1-2.4,5.1C370.3,668.1,369.2,668.3,368,668.6z"/>
</g>
</svg>
