<?xml version="1.0" encoding="utf-8"?>
<!-- Generator: Adobe Illustrator 23.0.4, SVG Export Plug-In . SVG Version: 6.00 Build 0)  -->
<svg version="1.1" id="Layer_1" xmlns="http://www.w3.org/2000/svg" xmlns:xlink="http://www.w3.org/1999/xlink" x="0px" y="0px"
	 viewBox="0 0 1008 1008" style="enable-background:new 0 0 1008 1008;" xml:space="preserve">
<g>
	<path d="M910.2,780.1c-1.7,3.2-3.3,6.1-5.1,9c-1.9,3.2-4.2,5.8-7.1,8c-6.3,4.5-13.4,4.1-19.1-1.2c-3.5-3.2-5.5-7.1-7.3-11.4
		c-0.7-1.9-1.5-3.9-2-5.5c-4.7,1.3-9.2,2.8-13.7,3.8c-1.9,0.4-3.9,0.3-5.8,0.1c-4.7-0.6-7.9-3.3-9.5-8.2c-0.9,1.2-1.6,2.2-2.2,3.1
		c-3.2,4.2-6.7,8.2-11.5,10.6c-2.5,1.3-5.2,2.2-7.9,2.5c-5.5,0.7-9.2-2.3-10-7.7c-0.1-0.7-0.1-1.6-0.4-3.1
		c-3.9,4.1-8.3,5.7-13.5,5.1c-5.4-0.6-8-4.5-10.3-9.5c-2.2,4.5-4.1,8.6-6.3,12.7c-2.9,5.1-5.8,10-9.2,14.8c-2,3.1-4.7,5.8-7.6,8.2
		c-6,5.1-13.1,3.6-17-3.3c-2.2-3.9-2.9-8.3-2.8-12.8c0.4-9.9,3.6-19.1,7.6-28.1c0.9-2,1.7-4.1,2.8-6.4c-1,0.1-1.5,0.1-2,0.3
		c-3.6,1.5-7.3,1.5-10.9,0.1c-1.3-0.4-2.2-0.1-3.2,0.4c-5.5,3.3-11.4,6.3-17.9,7.7c-1.7,0.4-2.6,1.7-3.5,3.2c-1.7,3.1-3.5,6-5.5,8.9
		c-1.9,2.6-4.4,4.5-7.4,5.7c-6.6,2.8-13.4,0.4-16.7-5.8c-0.7-1.2-1.2-2.5-1.9-4.1c-0.6,1-1,1.9-1.6,2.8c-3.3,4.9-6.3,10-10,14.7
		c-2.2,2.6-5.1,4.8-8.2,6.4c-7.1,3.8-14.3,1.2-17.6-6.3c-2.5-5.5-2.8-11.5-2.8-17.5c0.1-4.4,0.6-8.7,0.9-13.5
		c-0.9,0.3-1.6,0.6-2.3,0.7c-4.2,1.6-8.4,3.3-12.7,4.8c-1.7,0.6-2.9,1.7-3.6,3.3c-1.9,4.1-4.4,8-7.7,11.1c-2.9,2.5-6.1,4.2-10,4.4
		c-5.2,0.1-8.9-2.2-11.6-6.4c-1.6-2.5-2.5-5.2-2.6-8.3c0-0.7-0.1-1.6-0.7-2.6c-0.9,1.3-1.7,2.5-2.8,3.8
		c-5.4,7.6-11.2,14.6-17.8,21.1c-6.3,6.1-13.5,10.2-22.3,11.5c-8.2,1.3-16-2.2-20.4-9.3c-4.9-8-6.3-16.9-5.7-26.2
		c1-15.4,5.7-29.8,11.9-44c0.4-1,0.9-2,1.5-3.5c-6.4-0.3-11.9,0.9-15.4,6.1c-2.5,3.9-4.7,8-6.6,12.2c-3.8,8.6-9.9,14.8-18.3,18.8
		c-4.4,1.9-8.9,3.2-13.5,4.5c-2,0.6-4.4,0.7-6.6,0.7c-146.3,0-292.5,0-438.8,0c-3.8,0-7.1-0.6-9.9-3.5c-1.7-1.9-2.8-4.1-2.9-6.6
		c0-1.2,0-2.3,0-3.5c0-215.9,0-431.8,0-647.6c0-9,2.8-12.2,11.6-13.1c1.6-0.1,3.2-0.3,4.8-0.3c309.3,0,618.8,0,928.2,0
		c3.8,0,7.4,0.3,10.3,3.3c1.9,1.9,2.9,4.2,3.1,6.8c0,1,0,2,0,3.2c0,209.8,0,419.4,0,629.2c0,8.6-3.3,15.3-9.9,20.5
		c-2.5,1.9-5.1,3.8-7.9,5.1c-6.8,3.3-13.7,7.1-21.1,8.9c-1.6,0.4-2.5,1.5-3.3,2.9c-1.3,2.6-2.8,5.1-4.4,7.6
		c-1.7,2.8-4.2,4.9-7.1,6.6c-7,3.8-13.8,2-18.2-4.7C911.1,781.4,910.8,781,910.2,780.1z M754.5,807.2c3.1-0.6,4.9-2.2,6.6-4.1
		c2.2-2.6,4.2-5.2,6.1-8.2c6-8.9,10.5-18.3,14.8-27.9c0.9-2,1.7-4.1,2.2-6.3c3.9-16.2,19.7-23.6,32-21.3c8,1.5,10,5.4,9.8,11.8
		c-0.1,2.8-0.7,5.5-1.5,8.2c-1.5,5.5-3.1,10.9-4.5,16.4c-0.4,1.6-0.3,3.5,0.1,5.1c0.3,1.7,1.3,2.3,3.1,1.7c1.3-0.4,2.6-1.2,3.6-2
		c6.6-5.7,11.6-12.5,15.1-20.7c2.3-5.4,4.9-10.3,9.9-13.5c3.3-2.2,6.8-2.8,10.6-1.6c1,0.3,1.9,0.4,3.2,0.9c0.3-2.2,0.6-4.1,0.9-6.1
		c1-8.7,2.6-17.2,5.5-25.5c2-6,5.1-11.5,9.5-16.2c8-8.9,18.2-6.7,22.3,4.4c2,5.8,1.9,11.6,0.9,17.6c-1.6,10.6-5.8,20.4-10.9,29.7
		c-3.9,7-7.9,14-13.7,19.7c-0.7,0.7-1.2,2.3-1,3.5c0.7,3.8,1.5,7.6,2.6,11.2c1,3.2,3.3,5.8,6,8c2.5,1.9,4.2,1.9,6.7,0.1
		c1.3-1,2.6-2,3.5-3.5c1.9-2.9,3.8-5.8,5.1-9c2.5-6,4.4-12.2,6.7-18.3c0.9-2,0.7-3.8-0.1-6c-3.1-7.3-2.8-14.4,3.1-20.4
		c4.1-4.2,9.3-6.1,15.1-5.8c8.7,0.4,15.6,6.8,17,16.2c0.6,3.9,0.4,8.2,0.6,12.2c0,0.7,0.1,1.5,0.3,2.6c2.2-1.2,4.1-2,6-2.9
		c6.1-3.3,9.3-8.7,9.9-15.6c0.1-2.5-0.1-5.1-0.1-7.7c0-204.1,0-408.3,0-612.4c0-1.3,0-2.6,0-3.8c0-0.9-0.1-1.7-0.3-2.6
		c-304.7,0-609.2,0-913.6,0c-0.7,6.3-0.4,627.4,0.3,630.2c1.5,0,2.9,0,4.5,0c142.1,0,284.2,0,426.2,0c1.6,0,3.2-0.1,4.9-0.1
		c8.6,0,15.6-3.3,21-9.9c2.2-2.6,4.5-5.4,7.1-7.7c7.6-7,16.4-10.9,26.9-10.5c1,0,2,0,2.3,0c4.7-6.3,8.7-12.2,13.1-17.9
		c3.9-4.9,8.6-9.2,14.1-12.4c3.8-2.2,7.7-3.8,12.2-3.9c11.1-0.3,18.2,8.7,15.3,18.9c-0.9,3.2-2.3,6.1-4.2,8.7
		c-4.1,5.4-9.6,9.2-15.6,12.1c-6.8,3.5-14,5.8-21.8,4.2c-0.4-0.1-0.9,0-1.5,0c-0.3,0.6-0.6,1-0.9,1.6c-6.6,15.1-10.9,30.9-12.5,47.3
		c-0.6,5.2-0.3,10.5,1.3,15.6c2,6.6,7.6,9.5,14.3,7.6c3.5-1,6.4-2.8,9.2-4.9c4.9-3.8,9-8.4,12.8-13.2c6.1-7.6,12.1-15,18.2-22.6
		c0.1-0.1,0.1-0.4,0.1-0.7c-0.4-0.9-0.9-1.7-1.2-2.8c-1.9-5.5-2.5-11.1,0.7-16.4c3.9-6.4,11.9-10.2,19.1-9
		c7.7,1.2,13.5,6.3,15.3,14.4c0.9,3.9,0.7,8,0.9,12.1c0.1,1.9,0,3.9,0,5.8c2,0.9,3.8,0.7,5.4,0c2.8-1.2,5.4-2.6,8.2-3.9
		c1.6-0.7,2.2-2,2.3-3.5c1.7-9.9,4.4-19.5,7.7-29c3.8-10.6,8.3-20.8,15.4-29.6c2.2-2.6,4.8-5.1,7.7-7c7.3-4.7,17.6-3.2,18.1,9.9
		c0.1,3.9-0.3,8-1.3,11.8c-3.2,13.4-10.2,24.6-19.7,34.5c-3.5,3.6-7.4,7-11.4,10.3c-2,1.7-3.5,3.5-3.6,6.4c-0.1,3.9-1,7.9-1,11.8
		c0,6,0.1,11.8,0.4,17.8c0,1.5,0.9,2.8,1.3,4.2c3.8-0.9,6.4-2.8,8.4-5.4c2.8-3.6,5.5-7.3,7.6-11.2c3.1-6,5.5-12.4,8.3-18.5
		c0.6-1.5,0.4-2.6-0.1-3.9c-1.6-3.5-2.6-7.3-2-11.2c1-8,7.3-14,15.9-15.6c7.6-1.3,15,2.2,18.8,9c1.9,3.5,2.8,7.1,2.9,11.1
		c0,3.2,0,6.3,0,9.5c0,2.9,0.4,3.5,3.5,3.1c4.1-0.6,7.6-2.6,10.3-4.7c-1.3-5.5-2.8-10.3-3.8-15.4c-1-4.9-0.4-9.8,1.3-14.4
		c2-5.4,6-8.6,11.6-9.5c8.7-1.5,15.7,5.5,15,14.8c-0.4,6-3.3,11.1-6.4,16c-0.7,1.2-1.5,2.3-2.2,3.3c0.1,0.3,0.3,0.4,0.4,0.7
		c1.9-0.7,3.8-1.3,5.7-2.2c2.3-1,4.5-1.6,7.1-1.5c5.7,0.4,8.2,4.4,6.1,9.8c-1.6,4.4-3.6,8.6-5.1,13c-2.9,8.7-5.7,17.5-8.3,26.2
		C753.9,800.9,753.3,803.8,754.5,807.2z M878,761.5c0.3,0,0.4,0.1,0.7,0.1c0.7-1,1.6-1.9,2.3-3.1c7.3-10.2,12.5-21.4,15.9-33.5
		c1.2-4.2,1.7-8.6,2.2-13.1c0.3-3.2-0.1-6.6-1.6-9.5c-1.3-2.6-2.8-3.1-4.9-1.2c-1.3,1-2.5,2.5-3.2,3.9c-1.5,2.6-2.6,5.4-3.6,8.3
		c-5.5,15-7,30.7-7.7,46.6C878,760.6,878,761,878,761.5z M662,746.8c1-0.9,1.6-1.3,2.2-1.7c6.4-6.6,12.2-13.7,16.7-21.7
		c2.8-4.8,5.4-9.6,6.3-15c0.6-3.2,0.9-6.7,0.6-10c-0.1-3.2-1.9-3.8-4.5-1.7c-1,0.7-2,1.6-2.6,2.8c-2.2,3.3-4.5,6.8-6.3,10.5
		c-5.4,11.2-9,23.1-12.2,35.1C662.2,745.2,662.2,745.7,662,746.8z M556,720.8c2.5-0.3,4.7-0.4,6.8-0.9c6.8-1.5,13.4-4.1,18.6-8.9
		c2.6-2.3,4.5-5.1,4.9-8.6c0.6-4.5-2.5-7-6.8-5.8c-3.9,1-7.1,3.2-10.2,6c-5.1,4.7-9,10.2-12.7,16.2
		C556.5,719.1,556.3,719.7,556,720.8z M797.4,770.1c0.1,1.6,0.1,3.2,0.4,4.8c0.7,3.8,2.9,4.8,5.8,2.3c1.9-1.6,3.5-3.8,4.5-6.1
		c2.5-5.5,4.8-11.4,7-17c1.2-3.1-0.3-4.9-3.6-4.8c-2.5,0.1-4.7,1.2-6.6,2.9C799.9,757.1,797.5,763.1,797.4,770.1z M867.1,770.2
		c-0.4-4.7-0.9-8.9-1.3-13c-0.3-2.9-2-3.8-4.7-2.6c-0.7,0.3-1.5,0.7-2,1.2c-4.4,3.8-6.8,8.4-7.3,14.1c-0.3,3.5,1.7,5.1,5.2,4.5
		C860.7,773.8,864.1,772.1,867.1,770.2z M619.1,758.8c0.6-6.1,0-11.5-2.3-16.6c-1.7-3.8-5.4-4.2-8.2-1.2c-2.8,2.9-2.8,7.6,0.1,11.1
		C611.5,755.4,614.9,757.2,619.1,758.8z M708.3,758.8c1.2-5.4,0.1-13.2-2.2-17c-1.7-2.9-4.8-3.5-7.3-1.3c-2.9,2.5-3.6,6.1-1.6,9.8
		C699.6,754.8,703.9,756.8,708.3,758.8z M934.2,759.3c0.4-1.6,0.7-2.3,0.7-3.2c0-4.5-0.6-9-2.3-13.4c-0.3-0.6-0.6-1.3-1-1.7
		c-1.6-2-3.6-2.3-5.8-1.2c-2.5,1.3-3.9,4.2-3.6,7c0.3,2.6,1.3,4.9,3.5,6.7C928.3,755.5,931,757.1,934.2,759.3z M601.8,766.4
		c-1,2.8-1.6,6-1,9.2c0.9,5.1,5.8,7,10,3.8c2.6-1.9,3.8-4.8,4.8-7.4C610.8,770.1,606.3,768.3,601.8,766.4z M691.1,766.4
		c-0.9,3.2-1.7,6.6-0.7,10c1.3,4.2,4.9,5.7,8.7,3.6c3.3-1.9,4.7-5.1,5.7-8C700.2,770.1,695.8,768.3,691.1,766.4z M917.2,766.4
		c-1,3.1-1.5,6.3-0.9,9.5c0.7,3.9,4.1,6,7.7,4.8c3.3-1.2,6.4-5.4,6.6-8.7C926.1,770.1,921.7,768.3,917.2,766.4z M744.6,746.6
		c2.8-3.5,4.9-6.7,5.7-10.5c0.4-2.2,0.3-4.7-0.1-6.8c-0.1-1-1.6-2.2-2.6-2.3c-1-0.1-2.2,1-3.1,1.7c-0.3,0.3-0.4,0.7-0.6,1.2
		C741.6,735.4,741.9,740.8,744.6,746.6z"/>
</g>
</svg>
