<?xml version="1.0" encoding="utf-8"?>
<!-- Generator: Adobe Illustrator 23.0.4, SVG Export Plug-In . SVG Version: 6.00 Build 0)  -->
<svg version="1.1" id="Layer_1" xmlns="http://www.w3.org/2000/svg" xmlns:xlink="http://www.w3.org/1999/xlink" x="0px" y="0px"
	 viewBox="0 0 1008 1008" style="enable-background:new 0 0 1008 1008;" xml:space="preserve">
<g>
	<path d="M770.8,679.3c-0.2,0.7-0.4,1.4-0.4,2.2c-0.1,1.9,0,3.8,0,5.8c0,2.9-0.7,5.7-2.1,8.3c-2.5,4.8-5.9,8.7-10.3,11.8
		c-0.8,0.6-1.6,1-2.5,1.4c-4.2,1.8-7.9,0.5-10.1-3.6c-0.5-0.8-0.8-1.7-1.1-2.5c-1.5-0.5-2.2,0.5-3.2,0.9c-3.8,1.7-7.5,3.7-11.4,5
		c-8.7,2.8-16.7,1.7-23.5-5.1c-0.3-0.3-0.7-0.6-1.1-0.9c-0.1-0.1-0.3-0.1-0.5-0.1c1.1,5.6,1.1,5.6-0.5,9.9c0.6,1.1,1.4,2.3,2,3.5
		c3.4,6.4,1.3,12.6-5.3,15.5c-2.3,1-4.8,1.7-7.3,2.2c-5.7,1-11.4,1.8-17.1,2.7c-2.9,0.4-5.7,0.4-8.6-0.4c-4.5-1.1-7.2-4.1-8.1-8.5
		c-0.5-2.5-0.4-5.1-0.4-7.6c0-1.6,0.2-3.2,0.3-4.8c0.1-2.1-1.1-3.4-2.9-3.9c-1.8-0.5-3.8-0.9-5.7-1c-3-0.1-6.1,0.2-9.1,0.4
		c-2.3,0.1-4.4,0.9-6.3,2.1c-2.7,1.7-5.5,3.2-9,3.5c-0.4,1.1-0.8,2.2-1.1,3.2c-0.8,2.3-2.2,4.3-4,5.8c-2.9,2.4-6.2,3.2-9.9,2
		c-1.5-0.5-2.9-1.3-4.6-2c-0.8,0.7-1.8,1.5-2.8,2.2c-4.5,3.5-9.3,3.9-14.4,1.4c-1.9-0.9-3.7-2-5.3-3.2c-5.2-3.7-11-5.9-17.3-6.7
		c-5.1-0.6-10.2-0.9-15.3-1.4c-4.4-0.4-7.8,1.2-10.3,4.8c-1.9,2.8-4.2,5.3-6.9,7.3c-2.9,2.1-6,3.7-9.4,4.7c-6,1.7-11.7,1.1-16.9-2.7
		c-2.6-1.9-5-4-7.5-6c-2.6-2.2-5.5-3.8-8.9-4.4c-4.2-0.8-8-0.1-11.3,2.5c-2.4,1.8-4.7,3.8-7.2,5.6c-2.8,2.1-5.9,3-9.5,2.6
		c-2.7-0.3-4.7-1.8-6.8-3.6c-3,1.7-5.9,3.2-8.8,4.9c-3.6,2.2-7.3,4-11.4,4.9c-3.8,0.9-7.6,0.8-11.3-0.5c-1.8-0.7-3.4-1.7-4.6-3.3
		c-1.3-1.8-1.3-3.8-1.1-6c0.6-6.8,1.2-13.7,1.7-20.6c0.1-1.6,0-3.2-0.1-4.8c-0.1-1.5-0.7-2.8-2.4-3.3c-1.6,1.1-1.4,2.7-1.5,4.3
		c-0.3,2.9-0.4,5.7-0.8,8.6c-0.8,6.4-4.2,10.9-9.6,14.1c-0.7,0.4-1.4,0.8-2.1,1.1c-2.2,1-3.7,2.6-4.6,4.7c-2.1,4.9-5.5,8.5-9.9,11.4
		c-2.8,1.9-5.3,4.1-7.4,6.8c-0.4,0.5-0.8,1-1.2,1.5c-4.7,5.9-10.8,8.7-18.4,8.4c-2.4-0.1-4.9-0.1-7.1,0.5c-8.5,2.2-14.5,7.3-16.9,16
		c-0.4,1.5-0.8,3.1-1.2,4.7c-1.8,8.6-8.9,14.2-18.5,14.3c-5.3,0-10.1-1.5-14.3-4.8c-1.9-1.5-3.7-3-5.4-4.7c-2.3-2.3-5.1-2.8-8-1.7
		c-5.1,1.9-10.1,4.1-14.5,7.4c-2.2,1.6-3.9,3.8-5.2,6.2c-1.2,2.3-2.4,4.5-3.7,6.7c-4.2,7-10.7,10.4-18.6,11.1
		c-2,0.2-4.1-0.2-6.1-0.7c-3.2-0.7-6.2-0.5-9.3,1.1c-7.4,3.9-15.3,5.4-23.6,5.2c-0.6,0-1.3,0-1.9,0c-0.2,0-0.3,0.1-0.6,0.2
		c-0.1,0.1-0.5,0.3-0.5,0.6c-1.1,4.2-4.1,6.3-8.1,7.2c-1.1,0.3-2.2,0.8-3.3,0.7c-3.3-0.2-5.9,1.1-8.2,3.3c-0.4,1.7-0.7,3.4-1.1,5.1
		c-1.8,6.5-6.1,10.4-12.6,11.8c-2.8,0.6-5.7,0.8-8.6,1c-1.7,0.1-3.2,0.5-4.3,1.8c-2.4,2.9-5.6,4.7-9,5.8c-1.1,2.1-2,4.2-3.3,6
		c-1.4,2.1-3.6,3.3-6.1,3.4c-2.2,0.1-4.4-0.5-6.9-0.8c-1.5,3.4-4.4,5.7-8.4,6.9c-0.8,3-2,5.7-5.3,6.9c-3.2,1.2-5.9,0.2-8.4-1.6
		c-1.5,0.4-1.3,1.8-1.7,2.7c-2,4-4.9,6.7-9.3,7.5c-5.2,1-9.6-1.5-11.3-6.5c-0.6-1.7-0.9-3.4-1.4-5.3c-1.4-0.4-2.9-0.9-4.1-1.3
		c-1.9,0.8-2.5,2.3-3.4,3.7c-1.3,1.9-2.5,3.8-3.9,5.5c-3.3,4-7.1,7.1-12.7,5.4c-1.3,1.1-2.3,2.1-3.5,2.9c-4.2,3-9.5,1.4-11.5-3.4
		c-1.1-2.6-1-5.3-0.4-8c0.3-1.6,0.8-3.1,1.4-4.6c0.5-1.3,1.3-2.6,2.1-4.2c-0.8-1-1.5-2.2-2.4-3.3c-11-13.2-20.5-27.4-28.7-42.5
		c-1.1-2-2-4-2.7-6.1c-1.7-4.5-0.6-8.6,2.7-11.9c2-2,4.4-3.7,6.9-5.2c15.9-9.6,31.9-19,48.2-27.8c17.5-9.4,34.8-19.1,51.6-29.6
		c2.4-1.5,4.8-3.2,7.2-4.8c0.4-0.3,0.6-0.7,1-1.2c-1.4-3.4-2.9-6.7-5-9.7c-3-4.3-6.1-8.6-9.2-12.9c-2.8-3.9-5.6-7.8-8.2-11.8
		c-6.5-9.9-9.9-20.7-10.4-32.5c-0.2-4.5-0.1-9,0.1-13.4c0.3-7.3,1-14.7,1.4-22c0.9-16.5,2.9-32.8,4.7-49.2
		c2.1-18.4,3.9-36.9,5.8-55.4c0.6-5.7,0.8-11.5,1.1-17.2c0.8-17.7,1.4-35.5,2.2-53.2c0.7-14.7,1.6-29.4,2.5-44.1
		c0.7-11.8,1.4-23.6,2.3-35.4c0.7-10.5,1.6-21,2.5-31.6c0.7-8.9,1.4-17.9,2.2-26.8c1.1-12.4,2.3-24.8,3.5-37.3
		c1-10.7,2.1-21.3,3.2-32c1.1-10.7,2.3-21.3,3.5-32c0.4-3.3,0.8-6.7,1.2-10c0.1-1,0.2-1.9,0.5-2.8c1-3.6,3.2-5.4,7-5.4
		c5.3,0,10.6,0.2,15.8,0.4c12.1,0.4,24.3,0.9,36.4,1.4c13.9,0.5,27.8,0.9,41.7,1.3c22.4,0.8,44.8,1.7,67.1,2.5
		c9.8,0.4,19.5,0.7,29.3,1c23.7,0.8,47.3,1.6,71,2.4c18.4,0.6,36.8,1.3,55.2,1.9c0.6,0,1.3,0,1.9,0.1c4.1,0.4,6.7,2.9,7.3,7
		c0.3,1.9,0.2,3.8,0.3,5.7c0.1,1.3,0.1,2.5,0.2,3.9c2,1,3.9,0.4,5.7,0.2c1.9-0.2,3.8-0.5,5.7-0.8c1.9-0.3,3.7-0.7,5.7-1.1
		c0.2-0.8,0.5-1.4,0.5-2c0.4-6.3,3.7-10.8,9-13.9c3-1.7,6.3-3.1,9.6-4.2c7.8-2.7,15.7-5.3,23.7-7.9c1.6-0.5,2.3-1.6,2.9-2.9
		c2.2-5,5.2-9.6,8.6-13.8c2-2.5,4.1-4.9,6.4-7.1c2.5-2.5,5.5-4.4,8.8-5.8c2.7-1.1,5.5-1.5,8.5-0.9c5.6,1,8.9,5.3,8.5,11
		c-0.3,4-2,7.4-4.8,10.2c-3.8,4-8.4,6.8-13.7,8.6c-3.2,1.1-6.4,2-9.6,3c-1.1,0.3-2.1,0.7-3.4,1.2c-0.8,2.3-1.8,4.6-2.6,7
		c-2.7,7.9-4.2,16.1-4.9,24.4c-0.2,3.1,0.1,6,0.8,9c0.9,4.2,5,6.5,9.3,4.8c1.8-0.7,3.5-1.6,5.1-2.6c1.2-0.8,2.3-1.8,3.3-2.8
		c6.7-6.9,12.4-14.6,18.4-22.3c-0.4-1.5-0.8-2.8-1.1-4.2c-1.1-5.3,0.2-9.9,4.6-13.2c4.5-3.4,9.5-3.7,14.5-1.4
		c4.1,1.9,6.2,5.4,6.9,9.8c0.3,2.4,0.3,4.8,0.5,7.2c0.1,1.2,0.2,2.5,0.3,3.8c2.1,0.7,3.6-0.3,5.1-1c1.8-0.9,3.5-2.2,5.4-3.1
		c1.1-0.6,2.4-1.1,3.6-1.2c2.5-0.3,4,0.9,4.4,3.3c0.3,1.4,0.3,2.9,0.5,4.3c0.1,0.7,0.3,1.5,0.4,2.2c1.5-0.5,1.7-1.7,2.1-2.6
		c2.7-5.6,5.3-11.3,8.2-16.8c1.9-3.5,4.1-6.8,6.4-10.1c1-1.4,2.5-2.6,4-3.4c4.2-2.2,8.9-0.3,10.7,4.1c1,2.6,1.2,5.3,1.1,8
		c-0.3,5.1-1.2,10.2-2.5,15.1c-2.1,7.9-4.3,15.7-6.4,23.6c-0.3,1-0.4,2.1-0.8,4.1c1.4-1.4,2.2-2,2.9-2.8
		c5.9-7.6,10.7-15.9,14.5-24.8c0.4-0.9,0.6-1.8,1.1-2.7c1.2-2.2,4.4-3.2,6.7-2.1c1.1,0.5,1.7,1.4,1.9,2.6c0.2,1.3,0.2,2.6,0.4,3.8
		c0.1,1.1,0.4,2.1,0.6,3.3c1.7-0.7,2-2.3,2.7-3.4c2.9-4.8,5.7-9.6,8.7-14.3c1.2-1.9,2.7-3.6,4.3-5.2c4.9-4.8,12.4-1.6,13.3,4.3
		c0.5,3.2,0.7,6.3,0.3,9.5c-1.1,8.3-2.6,16.4-4.7,24.5c-0.2,0.7-0.3,1.5-0.7,3c1.2-1,1.8-1.4,2.3-1.9c6.2-7.4,11.4-15.4,14.6-24.6
		c0.6-1.7,1.2-3.3,2-4.9c4.5-8.3,15.1-9.9,21.6-5.9c4.5,2.8,5.2,7.4,1.9,11.5c-1.6,1.9-3.5,3.3-6,3.8c-1.7,0.4-3.5,0.5-5.2,0.7
		c-1.1,0.1-2.2-0.1-3.5-0.2c-1.2,2.6-1.5,5.2-0.9,7.9c0.6,2.6,2.5,3.7,5.1,2.7c1.9-0.7,3.9-1.6,5.5-2.9c3.8-3.1,7.5-6.4,11-9.9
		c1.3-1.3,2-3.2,2.7-5c1.5-3.4,3.4-6.5,6.2-9.1c4.9-4.6,11-3.7,14.7-1.8c3,1.5,4.3,4,3.9,7c-0.3,1.9-1.8,2.7-3.5,1.8
		c-0.7-0.4-1.3-0.9-2-1.3c-1.9-1-3.7-0.8-5.3,0.7c-0.7,0.6-1.4,1.4-1.8,2.2c-2.2,3.8-3.2,8-2.9,12.4c0.1,2,1.1,2.9,3.1,2.8
		c1.4,0,2.9-0.1,4.3-0.5c5.5-1.6,10.1-4.8,13.7-9.2c1-1.2,1.2-2.6,1.4-4c1.2-7.3,2.7-14.5,5-21.5c0.5-1.6,1.6-3.2,1.3-5.2
		c-5.2-1.3-10.3-2.1-15.4,0.4c-0.4,0.2-0.9,0.4-1.4,0.4c-1.1,0.1-2.3,0.1-3-0.9c-0.5-0.7-0.2-1.9,0.8-3c2.3-2.4,5.1-3.9,8.5-4
		c3.7-0.1,7.4,0,11,0.3c2.2,0.2,3.5-0.6,4.6-2.5c1.8-2.8,3.9-5.4,6-8.1c1.1-1.3,2.6-1.8,4.3-1.5c1.8,0.3,3,1.5,2.8,3.3
		c-0.2,1.6-0.6,3.1-1.1,4.6c-0.6,1.8-1.5,3.5-2.3,5.5c1,0.3,1.8,0.6,2.5,0.7c7.3,1,14.6,1.5,22,0.6c3.2-0.4,6.2-1.3,8.6-3.8
		c0.5-0.6,1.2-1,1.9-1.4c1.3-0.7,2.6-0.6,3.5,0.4c0.9,0.9,1.2,2.5,0.4,3.5c-1,1.2-2.1,2.5-3.4,3.3c-2.1,1.2-4.3,2.1-6.6,2.8
		c-6.8,2.1-13.8,2.6-20.9,2.3c-3.5-0.1-7-0.6-10.6-0.9c-0.4,0.7-0.9,1.3-1.2,2c-4.4,13.3-7.1,26.9-7,41c0,2.7,0.5,5.4,1,8
		c0.4,2,1.3,4,3.7,4.9c2.1-0.3,3.6-1.7,5-3.3c5.5-6.2,9.6-13.1,11.6-21.3c0.4-1.7,1-3.4,1.8-4.9c1.2-2.3,4-2.8,6.2-1.5
		c1,0.6,1.6,1.6,1.6,2.8c-0.1,1.6-0.3,3.2-0.5,4.8c-0.3,2.2-0.8,4.4-1.1,6.6c-0.2,1.7-0.3,3.5,0.8,5.4c0.9,0,2.1,0.3,3-0.1
		c1.4-0.6,2.9-1.4,4-2.5c4.9-4.7,9-9.9,10.8-16.7c1.2-4.4,3.7-8.1,7.1-11.2c4.7-4.2,11.2-3.3,14.8-1.3c2.9,1.7,4.1,4.3,3.3,7.2
		c-0.4,1.4-1.7,2.1-3,1.5c-0.7-0.3-1.4-0.8-2-1.2c-2.6-1.7-4.9-0.6-6.4,1.1c-2.4,2.9-3.4,6.5-4,10.1c-0.2,1.3-0.2,2.6-0.1,3.8
		c0.1,2,1.1,2.9,3.1,2.8c1.7-0.1,3.6-0.1,5.2-0.7c5.3-2,10.1-4.7,12.8-10.1c1.7-3.5,4.7-5.1,8.6-4.8c2.8,0.3,4.1,1.7,3.8,4.4
		c-0.4,3.5-1,7-1.4,10.5c-0.3,2.5-0.9,5-0.4,7.5c1.1,0.5,1.6-0.1,2-0.8c1.6-3.5,3.3-6.9,4.8-10.5c1.3-3.1,2.4-6.3,3.6-9.4
		c1.1-2.9,3.3-4.2,6.2-4.6c2.3-0.3,3.7,1.1,3.3,3.4c-0.3,1.9-0.8,3.7-1.2,5.6c-1.3,6.6-2.6,13.2-3.7,19.8c-0.4,2.2-0.2,4.5-0.2,6.7
		c0,0.9,0.6,1.8,1,2.9c0.9-0.4,1.8-0.5,2.2-1c1.1-1.2,2.1-2.4,2.9-3.8c3.6-7.1,7.1-14.3,10.6-21.5c0.7-1.4,1-3,1.3-4.6
		c1.3-9.2,3.1-18.3,6.4-27c0.3-0.7,0.3-1.5,0.4-2.4c-5.4-1.3-10.5-2.1-15.6,0.4c-0.6,0.3-1.3,0.5-1.8,0.4c-0.9-0.2-1.9-0.5-2.5-1.1
		c-0.7-0.8-0.1-1.8,0.6-2.6c2.4-2.6,5.3-4.2,8.8-4.3c3.4-0.1,6.7,0,10.1,0.2c4,0.3,3.9,0.3,6-3.2c1-1.8,2.1-3.6,3.4-5.2
		c1-1.2,2.3-2.2,3.7-3c1.4-0.9,3.1-0.9,4.5,0.2c1.2,1,1.5,2.5,1,3.9c-0.6,1.8-1.3,3.6-2,5.4c-0.4,1-0.8,2.1-1.3,3.3
		c0.9,0.3,1.7,0.5,2.4,0.6c7.3,1,14.6,1.5,22,0.6c3.1-0.4,5.9-1.3,8.2-3.5c0.8-0.8,1.7-1.4,2.7-1.9c0.9-0.5,1.9-0.3,2.7,0.3
		c1,0.8,1.3,1.8,1,3c-0.5,1.8-1.7,3.1-3.3,3.9c-2.3,1.1-4.6,2.2-7,3c-6.8,2.1-13.8,2.6-20.9,2.3c-3.5-0.1-7-0.6-10.6-0.9
		c-0.4,0.7-0.9,1.4-1.1,2.1c-4.1,12.2-6.7,24.7-7,37.6c-0.1,3.5,0.5,7,0.8,10.5c0,0.3,0.1,0.6,0.2,0.9c1.3,5.1,3.9,5.9,7.7,2.4
		c1.4-1.3,2.7-2.8,3.8-4.3c4.2-5.5,7.1-11.7,9.5-18.2c0.5-1.5,1.1-3.1,2.2-4.2c1.9-1.9,4.3-2.6,7.1-1.7c2.8,0.9,4.9,2.4,5.3,5.5
		c0.6,4.4,1.2,8.9,1.6,13.3c0.7,7.2,1.2,14.3,2,21.5c0.7,6.8,1.7,13.7,2.4,20.5c0.9,8.1,1.9,16.2,2.5,24.3c2.3,30,2.3,60.1,3,90.2
		c0.4,17.8,1.2,35.5,1.6,53.2c0.5,22.2,1.2,44.5,1.1,66.7c0,21.9-0.8,43.8-1.3,65.7c-0.1,4.8-0.2,9.6-0.6,14.4
		c-0.3,3.2-0.9,6.3-1.8,9.4c-1.6,5.3-5.1,9.3-10.3,11.3c-3.7,1.4-7.6,2.5-11.4,3.6c-2,0.6-4,0.9-6.4,1.4c0.3,1,0.3,2,0.7,2.7
		c1.7,3.3,2.7,6.9,2.9,10.6c0.6,8.1,0.8,16.3-0.7,24.4c-0.7,3.8-2.1,7.4-4.5,10.5c-2.2,2.9-4.8,5.2-8.3,6.3
		c-4.6,1.5-8.9,1.1-12.4-2.6c-2.2-2.3-4.8-3-7.8-2.8c-1,0.1-1.9,0.3-2.9,0.2c-3.1-0.4-5.9,0.1-8.7,1.6c-2.2,1.3-4.9,1.2-7.5,0.8
		c-2.2-0.3-4.4-0.8-6.9-1.2c-1.8,2.5-3.3,5.3-6.5,6.6c-3,1.2-6,0.5-9.2,0.1c-0.4,1.1-0.7,2.2-1.2,3.1c-0.9,1.7-1.7,3.5-2.9,4.9
		c-3.8,4.4-9.9,5.2-14.7,1.8c-1.6-1.1-2.9-2.5-4.5-3.9c-1.3,0.4-2.6,1-3.9,1.3c-2.2,0.5-4.4,1.1-6.6,1c-4.6-0.2-8.3-2.4-10.7-6.4
		c-1.8-3-3.2-6.3-4.5-9.5c-1.3-3.3-2.1-6.7-3.1-10.1c-0.3-1-0.4-2.2-1.7-3c-0.4,3.6-0.6,7-1.1,10.4c-0.6,4-1.2,7.9-2.1,11.8
		c-0.7,3.1-1.9,6.1-3.7,8.8c-2.3,3.4-5.4,5.4-9.4,5.9c-6.4,0.8-12.4-0.3-18-3.5c-5.2-3.1-8.7-7.5-9.9-13.5c-0.1-0.6-0.3-1.2-0.4-1.8
		C771.4,679.3,771.1,679.3,770.8,679.3z M614.7,706.5c2.5-2.9,5.6-4.2,8.8-5.2c2-0.6,3.9-1.4,5.7-2.4c3-1.6,6.2-2.7,9.5-3.2
		c6-1,12.1-0.9,18.1,0.2c2.9,0.6,5.9,1.5,8.6,2.9c4.9,2.4,7.9,6.5,8.6,11.9c0.3,2.4,0.2,4.8,0.3,7.2c0,0.9,0.1,1.8,0.2,2.9
		c4.4,0,8.4-0.5,12.7-1.7c-1.2-1.7-2.2-3.1-3.1-4.6c-3-5.2-2.3-10,1.8-14.3c0.2-0.2,0.3-0.5,0.7-1.1c-0.2-1.2-0.4-2.6-0.8-4
		c-1.3-6-1.7-12-1.6-18.1c0.1-5.4,4.3-8.7,9.7-8c2.9,0.4,5.6,1.5,7.6,3.7c2.1,2.2,4,4.6,5.8,7c2,2.9,3.8,5.9,5.7,8.9
		c1,1.5,2.1,2.8,3.2,4.2c1.9,2.1,4.3,2.8,7,2.1c1.5-0.4,3.1-0.8,4.5-1.5c2.4-1.2,4.8-2.6,7.2-3.9c2.4-1.3,4.7-2.7,7.2-3.8
		c3.5-1.5,7.1-1.6,10.6,0.3c0.6,0.3,1.4,0.5,2.5,0.8c0-2,0.1-3.5,0-5.1c-0.3-4.1,0.5-7.9,2.3-11.6c2.2-4.6,4.1-9.3,4.1-14.6
		c0-3.6,3.4-6.8,7.3-6.8c6.1,0,10.8,2.4,14.2,7.5c2.1,3.3,3.2,6.9,3.1,10.9c-0.1,3-0.2,6.1-0.1,9.1c0.1,3.2,1.9,5.3,4.9,6.4
		c1.8,0.6,3.7,1,5.7,0.1c0.5-1.2,1-2.3,1.3-3.6c0.6-2,1.1-4,1.5-6.1c1.4-7,1.3-14,1.2-21c0-5.1-0.2-10.2,0-15.4
		c0.1-2.7,0.3-5.5,1-8.1c1.6-5.8,7.3-8.4,12.9-6.2c2.6,1.1,4.7,2.8,5.9,5.3c1.1,2.1,2,4.3,2.8,6.6c3.9,11.3,7.8,22.7,11.7,34
		c0.7,2.1,1.3,4.3,2.7,6.1c3-0.7,5.9-1.4,8.8-2c3.1-0.6,5.8,1.2,8.8,2.2c3.3-7.2,8.6-10.2,16.3-8.1c0.6-0.8,1.1-1.4,1.6-2
		c2.5-3,5.8-4.6,9.6-4.7c2.4,0,4.8,0.4,7.1,0.7c1.1,0.1,2.1,0.4,3.2,0.7c0.9-1.1,1.7-2.1,2.6-3c2.6-2.5,5.8-3,8.7-0.8
		c2,1.5,3.9,1.9,6.2,1.8c1.1,0,2.2,0,3.4,0c4.6,0.1,8.9,0.9,12.5,4.1c0.3,0.3,0.8,0.2,1.3,0.3c1.5-1.9,2.1-4.1,2.2-6.3
		c0.1-5.3,0.2-10.5,0.1-15.8c-0.1-3.9-1.3-7.5-3.4-10.9c-0.7-1.1-1.4-2.2-1.9-3.3c-2.3-5.1-0.9-10.4,3.7-13.6c1.5-1.1,3.3-2,5.1-2.5
		c2.7-0.9,5.6-1.4,8.4-2.1c3-0.7,5.9-1.4,8.9-2.1c2.9-0.8,4.6-2.8,5-5.8c0.3-3,0.7-6,0.8-9.1c0.1-4.8-0.1-9.6,0-14.4
		c0.3-10.6,0.9-21.1,1.1-31.6c0.7-24.5,0.4-49-0.3-73.4c-0.7-27-1.6-54-2.4-81.1c-0.3-11.7-0.4-23.4-0.8-35c-0.4-12-0.7-24-1.4-36
		c-0.6-10.4-1.6-20.7-2.6-31.1c-1-10.3-2.3-20.7-3.4-31c-0.4-3.8-0.7-7.6-1-11.5c-0.1-0.8,0.1-1.9-1.4-2.3c-0.7,1-1.3,2.1-2,3.1
		c-2.2,2.9-4.4,5.9-6.8,8.6c-2.4,2.6-5.4,4.5-8.8,5.6c-5.4,1.7-10.3-0.4-12.9-5.5c-0.6-1.1-1-2.4-1.3-3.6c-0.4-1.5-0.7-3.1-1.1-4.7
		c-0.2-0.8-0.7-1.6-1.2-2.8c-1,1.9-1.7,3.3-2.5,4.7c-1.8,3.4-3.9,6.6-6.6,9.4c-1.1,1.1-2.3,2.2-3.7,3c-4.1,2.4-8.7,1.4-11.5-2.4
		c-1.8-2.4-2.5-5.2-2.5-8.1c0-1.1,0-2.1,0-3.4c-0.8,0.3-1.3,0.5-1.7,0.7c-9.1,5.1-14.4-0.4-15.4-7.5c-0.2-1.4-0.5-2.8-0.9-4.5
		c-2.1,1.2-3.8,2.3-5.6,3.3c-4,2.2-8.1,3.7-12.8,3.6c-3.2-0.1-5.9-1.3-8.1-3.6c-0.7-0.8-0.9-2.1-2.6-2.2c-0.8,0.9-1.7,2.1-2.7,3
		c-1.9,1.9-3.9,3.8-5.9,5.6c-1.7,1.5-3.8,2.3-6,2.8c-3.7,0.9-7,0.5-9.4-2.9c-0.3-0.3-0.7-0.6-1.2-0.9c-0.6,0.8-1.2,1.6-1.7,2.4
		c-2.1,3.2-4.5,6.2-7.4,8.8c-2.2,1.9-4.5,3.6-7.3,4.5c-5.8,1.8-11-0.3-13.6-5.8c-0.8-1.7-1.4-3.6-1.9-5.4c-1.2-4.1-1-8.2-1-12.4
		c0-0.9,0.4-2-1-2.5c-1.1,0.7-2.2,1.6-3.4,2.3c-2.6,1.5-5.2,3.1-8,4.4c-2.9,1.4-6,2-9.3,1.9c-4.6-0.2-7.8-2.4-9.7-6.6
		c-0.4-1-0.8-2-1.2-3c-0.4,0.1-0.6,0-0.7,0.1c-2.6,1.9-5.2,3.8-7.8,5.6c-2,1.4-3.9,2.8-6.1,3.8c-5.8,2.7-11.9,1.2-15.9-3.8
		c-0.5-0.6-1-1.1-1.6-1.9c-1,1.6-1.8,3-2.7,4.3c-3,4.9-6.3,9.6-10.3,13.8c-1,1-2,2.1-3.1,2.9c-3.9,2.9-8.2,2.1-10.6-2.1
		c-0.8-1.5-1.3-3.3-1.5-5c-0.2-2-0.1-4.2,0.2-6.2c1.4-9,2.8-18,4.2-27c0.1-0.6,0.6-1.5-0.5-2.1c-0.7,1.1-1.4,2.2-2,3.2
		c-3.7,6.7-7.4,13.4-11.1,20.2c-0.8,1.4-1.5,2.8-2.5,4.1c-1.5,2.1-3.5,3.7-6,4.5c-2.5,0.8-4.4,0-5.4-2.5c-0.4-1.1-0.8-2.2-1.3-3.8
		c-1.5,2.4-2.6,4.3-3.8,6.2c-2.5,4.1-5.2,8.1-8.5,11.6c-1.2,1.3-2.5,2.5-4,3.4c-3.6,2.1-7.5,1.1-9.4-2.6c-0.9-1.6-1.5-3.6-1.6-5.4
		c-0.2-2.2,0.1-4.5,0.5-6.7c2.5-12.5,5.2-25,7.8-37.6c0.2-0.8,0.8-1.7-0.5-2.6c-1,1.8-1.9,3.4-2.8,5.1c-4.2,8.6-8.4,17.2-12.7,25.8
		c-0.7,1.4-1.4,2.9-2.2,4.2c-1.3,2.3-3.3,3.9-5.7,5c-4.1,1.8-6.8,0.1-6.8-4.1c0-1.8-0.1-3.5,0-5.3c0.1-2.1,0.2-4.2,0.3-6.2
		c0-0.7,0.3-1.6-0.9-2.2c-2,0.7-4.2,1.7-6.5,2.3c-2.8,0.8-4.7,2.4-6,5.1c-1.4,2.7-3.2,5.1-5.8,6.9c-5.7,3.9-12.4,2-15.1-4.3
		c-0.5-1.1-0.8-2.3-1.4-3.9c-1.1,1.3-1.9,2.2-2.6,3.2c-3.3,4.5-6.9,8.8-11,12.6c-3.6,3.3-7.6,5.8-12.4,7c-8.9,2.2-15.4-1-19-9.4
		c-1.9-4.5-2.5-9.2-2.2-14.1c0.3-5.6,1.3-11.1,2.8-16.5c0.3-1,0.3-2.1,0.5-3.4c-2.1,0.5-3.5,1.6-5,2.5c-4.2,2.7-8.1,5.7-12.5,8
		c-4.2,2.2-6.5,4.8-6.9,9.8c-0.4,5.4-4.1,8.9-9.4,10.2c-1.7,0.4-3.4,0.9-5.2,1.1c-4.4,0.6-8.9,1.2-13.3,1.7c-4,0.4-8,0.8-12,0.9
		c-4.6,0.2-7.6-2.6-7.8-7.2c-0.1-2.1,0.3-4.1,0.4-6.2c0.1-1.4,0-2.8,0-4.2c-0.6-0.2-1-0.5-1.5-0.5c-99.9-3.5-199.8-7-299.7-10.5
		c-0.8,0-1.6,0.1-2.2,0.2c-1.1,1.5-1,3.2-1.2,4.7c-0.5,4.1-0.9,8.3-1.3,12.4c-1.5,13.7-3,27.3-4.4,41c-1.5,15.3-2.9,30.6-4.2,45.9
		c-1.5,17.5-3.1,35.1-4.4,52.6c-1.5,20.9-2.7,41.8-3.9,62.7c-1.1,19.6-2,39.3-2.9,59c-0.8,19.2-1.9,38.3-3.9,57.4
		c-1.4,13.8-2.9,27.7-4.3,41.5c-1.3,12.7-2.5,25.5-3.7,38.2c-0.6,6.4-1.1,12.7-1.4,19.1c-0.3,6.1-0.4,12.2-0.3,18.2
		c0.1,6.8,1.9,13.3,5.3,19.2c1.8,3.2,3.8,6.3,5.9,9.3c3.6,5.1,7.4,10.1,10.9,15.2c2.8,4.1,5.4,8.3,8,12.5c1.4,2.3,2.3,4.9,2.8,7.6
		c0.8,4.6-0.3,8.6-3.4,12c-1.4,1.5-3,2.9-4.7,4.1c-5.8,4-11.6,8-17.6,11.6c-8.8,5.2-17.8,10.1-26.8,15
		c-21.1,11.5-42.2,22.8-62.5,35.7c-0.9,0.6-1.7,1.3-2.5,1.9c0.1,0.5,0.1,0.6,0.1,0.8c1.3,2.2,2.5,4.4,3.8,6.7
		c8.3,14.5,18,28,29.2,40.4c0.7,0.8,1.2,2,2.6,1.8c0.3-0.3,0.7-0.6,1-1c2.7-3.3,6.1-5.6,10.2-6.8c1-0.3,2.1-0.9,2.8-1.7
		c2.6-2.8,5.8-3.3,9.2-2.5c2.6,0.6,5.2,1.6,8.1,2.6c0.4-0.2,1.1-0.5,1.8-0.9c3.7-2,7.4-1.7,11,0.2c0.8,0.4,1.6,1.1,2.5,1.4
		c0.6,0.2,1.4,0,2.1,0c0.2-1.9,0.4-3.5,0.7-5.1c0.3-2.1,1.4-3.9,2.9-5.4c3.4-3.2,7.4-4.3,11.9-3.4c1.4,0.3,2.7,0.8,3.4,1
		c2.7-1.3,4.8-2.5,7.1-3.2c2.1-0.7,3.8-1.7,5.2-3.3c2.8-3.2,6.4-4.5,10.7-4.7c2.2-0.1,4.4-0.4,6.7-0.7c2.8-0.3,3.9-2.4,4-4.6
		c0.1-1.3-0.2-2.5-0.3-3.8c-0.5-4.6,0.7-6.7,5.2-8.4c1.4-0.5,2.5-1.2,3.4-2.5c1.4-1.9,3.5-2.7,5.8-2.8c1.2-0.1,2.5,0,4,0
		c0.2-1.3,0.4-2.4,0.5-3.4c0.5-4.5,4.8-7.2,9.1-6.3c1.1,0.2,2.2,0.6,3.2,0.9c5.9,1.5,11.7,1.6,17.5-0.2c2.9-0.9,5.7-2.1,8.5-3.4
		c4.5-2,9.2-2.7,14-1.7c1.1,0.2,2.2,0.4,3.3,0.5c3.9,0.3,6.9-1.3,8.8-4.6c0.9-1.5,1.7-3.1,2.4-4.7c1.9-4.2,4.6-7.7,8.2-10.5
		c7-5.6,15-9.2,23.6-11.5c6.9-1.8,13.3-0.5,18.4,5.2c1.2,1.3,2.5,2.5,3.9,3.6c1.8,1.4,3.8,2.4,6.1,2.5c2.3,0.1,3.6-0.6,4.4-2.9
		c0.7-2,1.2-4,1.7-6c2.8-11.8,15-23.5,28.8-25.9c3.2-0.6,6.4-0.7,9.6-0.5c3,0.2,5.3-0.9,7.1-3.3c0.9-1.2,1.8-2.2,2.7-3.3
		c2.2-2.6,4.5-5,7.5-6.7c3.3-1.9,5.7-4.6,7.3-8c2-4.4,4.9-7.8,9.7-9.4c3.1-1.1,4.3-3.4,4.4-6.7c0.1-3,0.5-6.1,0.9-9.1
		c0.4-2.7,1.3-5.3,2.7-7.6c3.5-5.6,9.6-8.2,16.1-6.9c6.1,1.3,10.3,5,12.8,10.6c1.3,2.9,2,6.1,1.9,9.3c-0.1,3.8-0.4,7.7-0.6,11.5
		c-0.1,2-0.7,4,0.1,6.4c1.3-0.6,2.3-1,3.2-1.6c2.1-1.2,4.1-2.6,6.2-3.6c2.7-1.3,5.5-2.7,8.4-3.5c4.5-1.2,8.9-0.5,12.8,1.5
		c0.5-0.1,0.6-0.1,0.8-0.2c0.7-0.6,1.5-1.2,2.2-1.8c7.8-7.1,16.9-8.5,26.9-6.5c5,1,9.3,3.4,13.1,6.7c1.8,1.6,3.7,3.1,5.5,4.7
		c2.7,2.3,5.5,2.5,8.4,0.5c2.1-1.5,4.1-3.1,5.9-4.8c1.9-1.7,3.5-3.7,5.3-5.6c2.7-2.7,6-4.3,9.7-5c4.1-0.8,8.2-1.1,12.4-0.6
		c4.3,0.5,8.6,0.9,12.9,1.6c8.6,1.3,16.8,3.8,23.7,9.6c0.5,0.4,1.3,0.5,2.1,0.8c0.5-1.9,0.8-3.4,1.3-4.9c2.1-6.5,8.1-8.8,14.1-5.5
		C612.3,704.8,613.3,705.5,614.7,706.5z M552.4,200.8c4.9-1.1,9.8-2,13.9-5c1.3-0.9,2.4-2.1,3.5-3.2c1.1-1.2,1.7-2.7,1.7-4.4
		c0.1-2.6-1.6-3.9-4-3c-3.2,1.2-6,3-8.4,5.5C556.4,193.6,554.2,196.9,552.4,200.8z M594,226.1c0.7-3.9-0.5-7.2-1.8-10.4
		c-0.5-1.2-2.1-1.6-3.3-0.9c-2.2,1.3-3,3.8-1.7,6.2C588.7,223.7,591,225.2,594,226.1z M583.3,233.8c-1,2-1,3.8-0.5,5.7
		c0.6,2.2,2.9,3.1,4.9,2.1c1.8-0.9,3-2.4,3.4-4.5C588.7,235.5,586.2,234.4,583.3,233.8z M726.7,223.2c1.7,1.1,3.1,1,4.5,0.8
		c1.3-0.2,2.4-1,3-2.2c0.3-0.6,0.3-1.5,0-2.2c-0.2-0.4-1.1-0.6-1.7-0.5C730.1,219.5,728.1,220.6,726.7,223.2z"/>
	<path d="M816.1,215.4c0.1-2.9,2-4.9,4.8-4.8c2.6,0,4.1,1.7,4.1,4.3c-0.1,2.8-2.1,4.8-4.9,4.9C817.6,219.7,816,218,816.1,215.4z"/>
</g>
</svg>
