<?xml version="1.0" encoding="utf-8"?>
<!-- Generator: Adobe Illustrator 23.0.4, SVG Export Plug-In . SVG Version: 6.00 Build 0)  -->
<svg version="1.1" id="Layer_1" xmlns="http://www.w3.org/2000/svg" xmlns:xlink="http://www.w3.org/1999/xlink" x="0px" y="0px"
	 viewBox="0 0 1008 1008" style="enable-background:new 0 0 1008 1008;" xml:space="preserve">
<g>
	<path d="M589.8,682.5c3.5-6.3,7.5-11.3,13.4-14.5c2.9-1.6,6.1-2.5,9.5-1.8c2.1,0.4,4,1.3,5.5,2.6c3.9,3.4,4.8,8.8,1.8,13.1
		c-2,2.9-4.8,4.8-8.2,5.5c-2.5,0.5-5.1,0.8-7.7,1.1c-0.9,0.1-1.7,0.1-2.8,0.1c0.7,1.3,1.7,1.6,2.6,2.3c1.6,1,3.3,2.1,4.1,3.9
		c0.4,1,0.9,2.1,1,3.1c0.3,2.9-0.9,4.6-3.8,5.3c-4,1.1-8.1,1.8-12.1,2.9c-5.3,1.5-10.6,3-15.9,4.8c-4,1.3-5.4,2.3-7.3,4.1
		c1.6,1.4,3.7,1.8,5.7,2c6,0.3,11.9,0,17.9-0.8c4.2-0.5,8.5-1.2,12.6-2c1.5-0.3,2.9-0.9,4.3-1.5c4.7-2.3,9.4-3.6,14.5-2.5
		c6.9,1.4,12.7,7.8,13.2,15c0.5,6-2.9,9.4-8.9,9c-3.7-0.2-6.7-1.8-9-4.7c-1.5-1.8-2.8-3.9-4.2-6.1c-2.5,0.8-5,2.1-7,3.9
		c-2.5,2.3-2.4,4.8,0.3,6.7c1.6,1.2,3.6,2.2,5.4,2.9c13.4,5.2,26.7,4.6,39.5-2c1.2-0.7,2.5-1.3,3.7-1.8c5.1-2.2,10,0,11.6,5.2
		c6.4,19.6,11.3,39.7,14,60.2c2.1,16,2.4,32.2,1.1,48.2c-0.1,0.9-0.2,1.7-0.3,2.6c-0.4,3.4-2.3,5.5-5.4,6.6c-3.3,1-6.2,0.4-8.6-2.2
		c-1.1-1.2-2.1-2.6-2.8-4.1c-2-3.9-3.8-8-5.7-11.9c-2.2-4.2-4.2-8.6-6.7-12.6c-2-3.3-4.7-5.9-7.9-7.7c-1.7-1-3.5-2-5.5-1.7
		c-1.3,10.1-15,18.6-24.4,18.6c-0.8,0-1.5,0-2.5,0.4c0.5,0.2,1.1,0.7,1.6,0.7c5,0.8,10,1.5,15,2.1c3.6,0.4,7.3,0.8,10.6,2.1
		c1.7,0.7,3.4,1.4,4.9,2.4c5.2,3.4,7.2,9,5.2,15c-1.5,4.7-4.4,8.1-8.6,10.7c-4.4,2.7-9.3,4.2-14.5,4.7c-7,0.5-14.2,0.8-21.2,1
		c-15.1,0.3-29.9,1.7-44.5,5.5c-1.8,0.4-3.7,0.9-5.5,1.4c-1.2,0.3-2.3,0.9-3.3,1.5c-0.9,0.5-2,1.3-1.6,2.4c0.2,0.8,1.3,1.4,2.1,1.7
		c1.6,0.5,3.4,1,5.1,1.1c6.2,0.2,12.5,0.3,18.8,0.5c3.4,0.1,6.7-0.1,10.2,0.1c5.4,0.4,9,5.3,7.6,10.5c-0.2,1.1-0.9,2.1-1.5,2.9
		c-2.4,3.4-2.8,6.8-0.3,10.3c1.6,2.3,2.9,4.7,6,6c0.8-2.1,1.5-4,2.2-6c1.4-4.7,3.1-9.2,5.6-13.4c2-3.4,4.2-6.4,7-9
		c8.2-7.5,18.3-8,27.3-1.6c3.7,2.6,6.6,5.9,9.5,9.1c1.1,1.2,2.3,2.4,3.5,3.7c2.2-1.7,3.3-3.8,4.1-6.1c1.1-2.9,2.1-5.9,3.5-8.7
		c2.2-4.4,4.6-8.8,6.9-13.1c1.2-2.3,3.3-3.9,5.4-5.1c4.9-2.7,10.9,0.8,11.8,6.6c0.7,4.3,1.1,8.8,1.5,13.2
		c1.4,13.5,2.6,27.1,4.1,40.6c1.2,11.5,2.7,23.1,4,34.6c0.5,4.9,0,9.8-1.8,14.3c-3.8,9.2-13.3,12-21.6,6.4c-3-2.1-5.2-4.8-7.3-7.8
		c-3.3-5-5.2-10.5-6.6-16.3c-0.8-3.3-1.5-6.4-2.6-9.5c-0.7-2-1.8-3.7-2.9-5.5c-0.4-0.8-1.2-1.4-2.2-2.4c1.1,7,0.5,8.6-5.7,16
		c0.3,0.1,0.7,0.2,0.9,0.4c8.9,3.7,13,10.7,14,19.9c0.2,1.7,0.1,3.5,0,5.2c-0.3,4.9-3.9,8-8.9,7.7c-2.5-0.1-5-0.3-7.5-0.3
		c-16.2,0-32.3,0-48.3-0.1c-27.6-0.1-55.3-0.3-82.9-0.4c-23.4-0.1-46.8-0.3-70.2-0.5c-26.4-0.2-52.9-0.3-79.3-0.5
		c-27-0.1-54-0.2-80.9-0.3c-2.6,0-5-0.5-6.8-2.5c-1.3-1.4-2.1-2.9-2.2-4.9c0-0.8,0-1.5,0-2.4c-0.2-25.6-0.2-51.2-0.7-76.7
		c-0.3-24.9-1-50-1.5-74.9c-0.5-23.1-1.3-46.1-2.1-69.2c-1-29.2-2.1-58.2-3.1-87.4c-0.9-22.2-1.7-44.3-2.6-66.6
		c-1.1-27-2.2-53.9-3.1-80.9c-0.9-24.8-1.8-49.5-2.6-74.4c-1-28.8-1.7-57.7-2.6-86.6c-0.9-28.7-1.7-57.3-2.7-86.1
		c-1.1-30.7-2.2-61.4-1.7-92c0.3-21,1.1-42.2,2.1-63.2c0.5-12.5,2.8-24.6,7.6-36.2c6.7-16.2,16.8-29.7,30.5-40.4
		c4.3-3.4,8.7-6.7,12.9-10.1c8-6.5,17.3-10.3,27-13.8c12.8-4.6,25.9-7.2,39.5-7c15.1,0,29.9,1.5,44.2,6.6
		c9.1,3.3,17.3,7.8,24.2,14.7c3.9,3.9,6.8,8.5,9.3,13.3c2.1,4.2,0.1,10.1-4.2,12.1c-6,2.8-10.6,7.4-14,13.2c-2,3.5-2.6,7.3-2.1,11.3
		c0.5,3.5,1.1,7,1.5,10.5c1.1,8.7-2.5,15.5-10.4,19.4c-2.3,1.1-4.8,2.1-7.3,2.7c-2.1,0.5-3.4,1.7-4.1,3.6c-0.7,1.6-1.2,3.5-1.7,5.2
		c-0.4,1.5-0.9,3.1-1.3,4.8c-2.7,9.1-8,16.3-15.9,21.5c-3.3,2.2-6.6,4-10,6.1c-3.9,2.4-7.9,4.7-11.7,7.3c-2.5,1.8-4.7,4.1-6.7,6.4
		c-2.2,2.6-3.3,5.7-3.3,9.1c0,1.2,0.4,2.1,1.3,2.9c12.4,10.7,18,24.7,19,40.8c0.7,11.6-1.3,22.8-4,33.9c-0.9,3.6-2.1,7.2-2.9,10.7
		c-0.4,1.8-0.8,3.7-1,5.6c-0.2,2.8,0.5,5.4,2.4,7.5c2.5,2.9,5.1,5.9,7.9,8.6c4.2,4,8.7,7.8,12.9,11.7c6.4,5.9,11.5,12.7,15.4,20.5
		c5,9.8,9.2,19.8,12.5,30.2c1.1,3.3,2.2,6.6,3.1,9.4c4.9,1.7,9.5,3.1,14,5c13.2,5.6,23.4,15,31.9,26.3c6.9,9.3,11.8,19.7,16.3,30.5
		c1.6,3.9,1.8,7.8,0.4,11.9c-0.7,1.8-0.8,3.9-1,5.9c-0.2,2-0.1,3.8,1.5,5.4c1.4,1.4,1.6,3.4,1.3,5.4c-0.3,2.2-1.3,4.1-2.9,5.7
		c-1.2,1.3-2.3,2.6-3.5,4c0.7,0,1.4,0,2.3,0c5.5,0,10.6,1.2,15.4,4.1c2.3,1.4,4.2,3.1,5.5,5.4c2.2,3.9,2.4,7.9,0.2,11.9
		c-1.5,2.9-3.7,5.3-6.2,7.3c-7.8,6.4-16.9,10.4-26.4,13.4c-2,0.7-3.9,1.2-6.5,2.1c2.2,1.4,4,2.4,5.6,3.6c1.5,1.1,2.8,1.3,4.8,0.8
		c6.5-2.1,12.6-1.2,17.7,3.6c3.7,3.5,5.6,7.7,5.3,12.8c-0.2,4.1-2.9,6.7-7,6.9c-3.8,0.2-7.2-0.9-9.6-3.6c-2-2.2-3.6-4.6-5.5-7
		c-2.4,0.8-4.9,2-6.9,3.9c-2.5,2.3-2.4,4.9,0.3,6.7c1.7,1.2,3.7,2.2,5.7,3c4.7,2,9.6,2.6,14.6,3.7c2.5,0.5,4.7,0.2,6.9-0.9
		c9.6-4.3,19.7-7.6,30.2-9.3c6.2-1.1,12.4-1.5,18.6-0.2c2.9,0.5,5.5,1.8,7.6,4.2c2.7,3,3,6.9,0.5,10.2c-1.1,1.3-2.4,2.6-3.8,3.6
		c-5.3,3.8-11.5,5.6-17.9,6.5c-10.2,1.4-20.1,0.5-29.8-2.6c-2.1-0.7-3.8-0.5-5.6,0.5c-5,3.1-10,6.3-14.8,9.5
		c-1.7,1.2-3.5,2.6-4.6,4.7c1.8,1.7,4,2.2,6.2,2.5c4.6,0.7,9,0.2,13.4-0.7c4.3-0.9,8.7-1.7,12.9-2.8c10.5-2.7,19.8,3,24,9.5
		c1.1,1.7,1.8,3.7,2.1,5.9c0.3,3-0.7,5.5-3.4,7c-2.2,1.3-4.4,2.4-6.7,3.4c-2.6,1.1-5.3,1.6-7.9,2.6c-2.1,0.8-4,1.6-5.9,2.8
		c-2.3,1.4-2.1,2.6,0.2,3.7c0.8,0.3,1.6,0.7,2.5,0.9c5.1,1.2,10.2,1,15.3,0.8c0.8,0,1.5-0.5,2.3-0.7c1.3-0.2,2.6-0.5,3.8-0.5
		c2.6,0,4.2,1.4,4.9,3.9c0.5,2.1-0.4,4.2-2.7,5.4c-2.2,1.2-4.3,2.2-6.5,3.3c-2.2,1.2-4.2,2.4-6.3,3.7c-0.5,0.3-0.9,0.8-1.8,1.5
		c1.5,0.1,2.6,0.3,3.5,0.1c3-0.8,6-1.6,9-2.6c2-0.7,3.9-1.4,6-2c2.5-0.8,4.6,0.3,5.7,2.8c1.1,2.2,0.7,4.1-1.5,5.6
		c-2,1.4-4.1,2.5-6.2,3.8c-3.1,2-6.4,3.8-9.5,5.9c-2.1,1.3-2.7,2.4-3.5,4.4c1.1,1.1,2.5,1.1,3.8,1c5.4-0.4,10.5-2.3,15.6-3.9
		c1.3-0.4,1.3-1.5,1.5-2.5c1.2-4.4,3.9-7.7,7.8-9.9c3-1.7,6.4-2.2,9.8-1.1c3.4,1,4.8,3.8,3,6.8c-1,1.7-2.4,3.5-4,4.7
		c-2.2,1.7-4.7,2.9-7,4.3c-1,0.7-2,1.3-3.3,2.1c0.8,1.1,1.2,2.1,2,2.7c2.9,2.4,6.2,3.8,10.1,3.1c9.2-1.5,16.5,2,21.9,9.3
		c1.1,1.5,1.8,3.4,2.3,5.2c0.9,3.6-0.2,6.6-3.5,8.5c-2,1.2-4.1,2.2-6.3,3c-2.5,1-5.1,1.6-7.6,2.6c-1.7,0.7-3.6,1.4-5.2,2.3
		c-1,0.5-1.8,1.4-2.7,2.2c0.5,1.6,1.7,2.2,2.8,2.4c2.8,0.5,5.6,1.2,8.5,1.4C582,682.8,585.9,682.5,589.8,682.5z M290.7,972.2
		c4.2,0.7,348.4,2.3,350.4,1.5c-2.1-0.4-4.2-0.8-6.3-1.1c-5.6-0.9-10.4-3.4-13.4-8.3c-3.4-5.5-2.3-12,2.7-16.2
		c0.4-0.4,1-0.8,1.5-1.2c-0.5-0.4-1.1-0.8-1.5-1.2c-4.3-3.4-5.5-7.8-3.6-13c1.7-4.7,5.3-7.7,9.8-9.5c4.8-2,9.8-2.4,14.8-1.6
		c11.2,1.6,19.9,7,25.6,17.1c2.3,4,3.5,8.5,4.6,12.9c0.8,3.4,1.6,6.7,2.6,10.1c0.5,2,1.6,3.6,3.6,5c0-1.3,0.1-2.2,0-3.1
		c-3.4-19.9-4.1-40.2-6.9-60.9c-0.8,1.2-1.1,2-1.5,2.7c-2,3.5-4.3,6.5-7.6,8.8c-6.5,4.7-13.2,4.3-19.3-0.8c-2.1-1.8-3.9-3.9-5.9-5.9
		c-1.7-1.8-3.4-3.8-5.2-5.4c-3.1-2.9-5.7-2.8-9-0.1c-2.5,2.2-4.1,4.9-5.3,7.9c-1.2,2.9-2.1,5.9-3.1,8.8c-1.1,2.8-2.2,5.6-3.6,8.3
		c-2.2,3.9-5.5,6.1-9.9,6.8c-5.6,1-10.5-0.7-14.7-4.2c-4.4-3.8-7.8-8.3-10.3-13.7c-0.8-1.7-1.3-3.6-1.6-5.4c-0.3-2-0.3-3.9-0.5-6.1
		c-1,0-1.8,0-2.8,0c-5.9-0.3-11.8-0.4-17.7-1c-4.2-0.4-8.3-1.7-11.9-4c-6.2-4-9.3-11.6-7.7-18.8c1.1-4.9,4.1-8.3,8.1-11.1
		c3.9-2.6,8.2-4.3,12.8-5.6c9.5-2.7,19.3-4.3,29.2-5.1c10-0.9,20.1-1.1,30.1-1.7c4.8-0.3,9.4-0.9,14.2-1.4c0.7-0.1,1.2-0.3,2.4-0.8
		c-0.9-0.2-1.2-0.4-1.5-0.4c-3.3-0.3-6.5-0.7-9.9-1c-5.4-0.4-10.6-1.5-15.5-4.1c-6.6-3.5-11.3-8.6-14.4-15.4
		c-2.2-4.7-2.8-9.4-1.7-14.4c0.8-3.1,2.7-4.9,5.7-5.6c2.2-0.5,4.2-0.1,6.3,0.8c2.8,1.2,5.6,2.3,8.6,3.1c2.6,0.8,5.2,1.1,7.9,0.4
		c4.2-1,6.1-3,6.3-7.3c0.2-5.9,3.7-9.9,9.4-11.1c3.8-0.8,7.6-0.5,11.4,0.3c8.5,1.7,15.1,6.5,20.5,12.9c0.7,0.9,1.4,1.6,2.1,2.5
		c-1.1-23.8-6.2-46.8-13.3-69.4c-1.2,0.2-2,0.4-2.8,0.7c-4.9,1.1-9.9,0.9-14.7,0.5c-9.2-0.5-18.2-2.6-26.7-6.3c-2.2-1-4.1-2.2-6-3.7
		c-3.6-3-6.6-8.9-3.8-15.1c0.2-0.4,0.3-0.9,0.4-1.4c-0.5,0-0.8,0-1.1,0c-5.7,0.8-11.5,1.6-17.2,2.3c-4.4,0.4-8.9,0.2-13.2-0.9
		c-6.8-1.6-9.3-7.4-5.9-13.5c1.8-3.1,4.4-5.4,7.7-7.3c4.1-2.3,8.5-4,13-5.2c3.4-0.9,6.7-1.6,10.2-2.4c-1.1-1.1-2.1-2.1-2.9-3
		c-0.9-1.1-1.4-2.3-2.1-3.4c-4.7,0.2-9.2,0.4-13.7,0.7c-3.9,0.1-7.6-0.7-11.2-2.2c-2.3-1-4.2-2.4-5.7-4.3c-2.4-2.9-2.2-6.6,0.3-9.4
		c0.3-0.3,0.7-0.7,1.2-1.2c-0.8-0.3-1.3-0.5-1.8-0.8c-7.2-2.9-9.2-10-4.7-16.2c0.7-1,1.6-1.8,2.4-2.7c0.4-0.4,0.9-1,1.3-1.4
		c-1.8-1.1-3.7-2-5.2-3.3c-1.5-1.3-2.5-3-3.9-4.7c-1.1,0.3-2.3,0.8-3.6,1.2c-3.8,1.1-7.5,2.2-11.3,3.1c-3.1,0.8-6.3,0.8-9.5-0.2
		c-2.7-0.8-4.6-2.5-5.4-5.2c-1.2-3.9-0.4-7.6,2.2-10.7c0.9-1.1,1.8-2.2,2.9-3.5c-1-0.3-1.7-0.4-2.5-0.7c-4.9-1.5-6.9-5.7-5-10.4
		c0.7-1.5,1.8-2.9,2.8-4.2c0.3-0.5,0.9-1,1.4-1.5c-2-0.3-3.7-0.4-5.4-0.8c-4.2-0.9-8.1-2.4-11.1-5.9c-2.5-3-2.4-6.7,0.2-9.6
		c0.3-0.3,0.7-0.8,1-1.2c-8.5-3.7-10.2-7.6-7.3-16.3c-1.3,0.1-2.5,0.2-3.7,0.3c-3.3,0.1-6.6,0.4-9.9,0.3c-3.9-0.1-7.6-1-10.8-3
		c-4.3-2.8-5.7-7.9-3.4-12.6c0.9-1.6,2-3.4,3.4-4.6c2.7-2.4,5.6-4.6,8.5-6.8c1.1-0.9,2.3-1.5,3.8-2.4c-0.9-0.3-1.3-0.5-1.8-0.7
		c-3.8-1.2-7.6-2.3-11.4-3.7c-2.3-0.9-4.6-2.2-6.5-3.7c-5.1-4.1-7.9-11.6-2.2-18.9c0.8-1,1.7-2,2.7-2.8c0.4-0.4,1-0.9,1.7-1.6
		c-3.4-2.1-6.3-4.2-9.9-5.4c-1.1-0.3-2.4-0.2-3.6,0c-6.4,1.2-12.8,2.3-19.3,2.5c-7,0.3-13.9-0.7-20.4-3.4c-2.2-0.9-4.3-2.3-6.1-3.8
		c-2.7-2.4-4-5.6-3.6-9.3c0.7-4.9,4.3-8.2,9.9-9.2c3.9-0.7,7.8-0.5,11.6,0.3c6.1,1.3,11.6,3.9,17,6.8c2.6,1.4,5.2,2.7,7.9,4
		c1.4,0.7,2.9,0.9,4.6,0.4c6.4-1.7,12.8-3.1,19.1-5c5.9-1.7,11.6-4.1,16.7-7.7c1.7-1.2,3.4-2.8,4.7-4.4c1.8-2.4,1.4-5.3-0.9-7.3
		c-1.4-1.2-3.1-2.2-4.9-2.8c-3-1.1-6.3-1.4-9.5-0.8c-6.7,1.3-13.4,2.5-20.1,4.2c-10.8,2.8-21.5,6.2-32.2,9.2
		c-2.2,0.7-4.7,0.8-6.9,0.8c-1.7,0-3.7-0.4-4.2-2.5c-0.5-2.1,1-3.3,2.5-4.1c1.6-1,3.4-1.8,5.1-2.6c2-0.9,3.9-1.5,5.9-2.2
		c12.4-3.9,24.3-8.8,35.9-14.4c1.8-0.9,3.7-2,5.9-3.1c-4.4-2.3-4.9-6.1-4.9-10.1c0-4.2,0.3-8.5,1.3-12.7c0.2-0.8,0.1-1.7-0.1-2.5
		c-4.8-13.5-11.6-25.7-22-35.8c-8-7.8-17.5-13.2-28.5-15.1c-7.2-1.2-11.2-5-12.5-11.9c-0.2-1-0.4-2.1-0.7-3c-0.5-2.1-1-4.2-1.6-6.3
		c-2.7-8.8-6.2-17.3-10.3-25.5c-4.2-8.3-9.8-15.5-16.8-21.6c-2.9-2.5-5.9-4.9-8.6-7.6c-3.5-3.5-6.8-6.8-9.9-10.7
		c-5.4-7-7.2-15.2-5.4-23.8c0.9-4.6,2.3-9.1,3.5-13.5c3.4-11.8,5-23.7,3.4-36c-1.1-7.9-4.1-14.8-10.1-20.3c-1.6-1.5-3.3-3-5-4.6
		c-2.7-2.3-4.2-5.2-4.7-8.7c-1.1-8.2,1-15.6,5.5-22.4c2.5-3.6,5.6-6.6,9-9.3c4.4-3.6,9.3-6.6,14.3-9.3c3.5-2,6.8-4,10.2-6.2
		c3.7-2.4,6.3-5.7,7.8-9.8c1.2-2.9,2.1-5.9,3.1-8.8c1.2-3.6,2.5-7.2,4.7-10.4c2.4-3.6,5.5-6.2,9.8-7.3c2-0.5,3.8-1.2,5.7-1.7
		c2-0.7,2.8-2,2.6-4c-0.2-2.1-0.5-4.1-1.2-6.1c-2.2-7.8-1.3-15.3,2.2-22.5c3-6.6,7.8-11.8,13.3-16.5c0.8-0.5,1.4-1.2,2.2-1.8
		c-2.3-3.3-5-5.6-8-7.7c-4-2.7-8.2-4.8-12.7-6.5c-6.9-2.6-14.2-4-21.5-4.9c-14-1.6-27.9-1.1-41.5,2.3c-11.6,2.9-22.8,6.9-32.3,14.3
		c-5.2,4-10.4,8-15.5,12.2c-11.2,9.3-19,21-23.8,34.7c-3.4,9.4-4.9,19.3-5.4,29.3c-0.5,9.2-0.8,18.3-1.1,27.5
		c-1,27.2-0.9,54.4-0.2,81.6c0.4,16,0.9,32.1,1.4,48.1c0.8,22,1.6,44,2.4,66c0.7,20.6,1.2,41.3,1.7,61.9c0.8,26.9,1.6,53.8,2.4,80.5
		c0.4,12.7,0.8,25.3,1.2,37.9c0.8,20.2,1.6,40.3,2.4,60.6c0.7,15.4,1.2,30.9,1.7,46.3c0.8,20.7,1.6,41.4,2.4,62.1
		c1.1,28.7,2.1,57.6,2.9,86.3c0.9,26.6,1.6,53.2,2.1,79.8c0.5,31.3,0.9,62.5,1.2,93.9C290.7,961.8,290.7,966.9,290.7,972.2z
		 M550.5,542.5c-1.5-0.5-2.5-1.2-3.6-1.2c-3.1,0-6.3-0.1-9.3,0.3c-8.8,1.3-17.1,3.9-25.5,6.9c-0.4,0.2-0.9,0.5-1.7,1
		c8.6,1.5,16.6,1.8,24.7,0.5c4.7-0.7,9.1-2.1,12.9-5C548.7,544.4,549.4,543.5,550.5,542.5z M443.6,501.1c-1-0.7-1.3-1-1.7-1.2
		c-5-2.1-9.9-4.2-14.8-6.2c-1.8-0.7-3.9-0.9-5.9-1.1c-1.3-0.1-2.6,0-3.9,0.3c-1.6,0.3-2.8,1.8-2.9,3.3c-0.1,1.4,0.7,2.5,2.5,3.3
		c0.7,0.3,1.3,0.4,2,0.7C426.8,502.6,434.8,502.2,443.6,501.1z M528.7,583.9c-0.7-3-2.3-4.7-4.8-5.4c-7.3-2.2-13.7,1.4-17.8,5.7
		c-0.3,0.3-0.4,0.8-0.5,1.1c0.4,1.3,1.4,2,2.5,2.2c1.4,0.2,2.9,0.3,4.3,0C517.7,586.4,523.1,585.1,528.7,583.9z M560.2,663.9
		c0.8,1.5,2,2.2,3.6,2.3c1.4,0,2.9,0,4.3-0.3c3.9-0.8,7.8-1.7,11.6-2.6c1.2-0.3,2.4-0.7,3.7-1c-1-3-2.2-4.3-4.6-5.1
		c-7.3-2.3-14,1.3-18.2,5.9C560.5,663.2,560.3,663.5,560.2,663.9z M602.9,682.7c3.7,0.2,6.8,0,9.5-1.8c0.9-0.5,1.6-1.3,2.2-2.2
		c0.9-1.3,0.2-2.6-1.4-2.7c-0.5-0.1-1.1,0-1.5,0.1C608.3,677.3,605.3,679.3,602.9,682.7z M622.8,721.5c0.3,2.1,1.1,3.7,2.5,4.9
		c1.3,1.1,2.9,1.8,4.8,1.5c1.7-0.3,2.4-1.7,1.2-3C629,722.5,626.2,721.3,622.8,721.5z M484,523.1c0.8,1.5,1.3,2.9,2.2,4
		c1.3,1.6,3.1,2.5,5.3,2.2c1.8-0.2,2.5-1.8,1.1-3.1C490.3,523.8,487.7,522.6,484,523.1z"/>
</g>
</svg>
