<?xml version="1.0" encoding="utf-8"?>
<!-- Generator: Adobe Illustrator 23.0.4, SVG Export Plug-In . SVG Version: 6.00 Build 0)  -->
<svg version="1.1" id="Layer_1" xmlns="http://www.w3.org/2000/svg" xmlns:xlink="http://www.w3.org/1999/xlink" x="0px" y="0px"
	 viewBox="0 0 1008 1008" style="enable-background:new 0 0 1008 1008;" xml:space="preserve">
<g>
	<path d="M657.3,411.4c-0.1,1.4-0.6,2.8-0.5,4.2c0.6,6.9,1.4,13.9,2.1,20.8c0.7,7,1,13.9-0.9,20.8c-0.4,1.4-0.9,2.6-1.5,3.8
		c-3.7,7.6-11.5,9.9-18.8,5.6c-4.4-2.6-7.5-6.5-9.7-11.2c-2-4.4-3.1-9.1-3.7-13.9c-3.1-26-0.5-51.4,8-76.4c2-5.6,3.6-11.4,4.9-17.2
		c1.6-6.9,0.9-13.8-2.1-20.1c-4.7-9.8-9.5-19.6-14.6-29.2c-4.4-8.1-10.9-14.4-18.3-19.6c-6.3-4.4-12.6-8.6-19.2-12.6
		c-8.1-5.2-16.3-10.2-23.8-16.2c-7.5-6-14-12.9-19.6-20.6c-7.2-9.9-14.9-19.5-23.5-28.2c-10.4-10.6-22.3-18.9-35.4-25.5
		c-6.9-3.4-13.8-6.8-21-9.2c-4.4-1.5-8.8-2.5-13.5-2.7c-0.6,0-1.2,0-1.7,0c-3.3,0.1-4.1,0.7-4.1,4.1c0.1,2.9,0.5,5.9,0.9,8.7
		c0.1,1.6,0.5,3.1,0.7,4.7c0.9,6.8-2.9,12.8-9.3,15c-3.1,1.1-6.3,1.4-9.6,1.4c-6.5,0-12.9,0.7-18.9,3.6c-5,2.3-9.3,5.4-12.9,9.6
		c-1.7,2.1-3.4,4.1-4.9,6.3c-6.3,9-14.9,14.5-25.2,17.3c-4.9,1.4-9.9,2.5-15,3.1c-7.6,0.9-14.9-0.7-21.9-3.7
		c-6.5-2.7-12.4-6.4-18.1-10.4c-6.8-4.9-10.6-11.4-11.4-19.8c-0.2-2-0.6-3.9-0.9-5.8c-0.9-5.6-3.4-10.3-7.4-14.5
		c-2-2.1-3.8-4.2-5.8-6.3c-4.8-5.3-7.4-11.3-6.9-18.5c0-0.4,0-0.7-0.1-1.5c-1.2,0.4-2.2,0.6-3.2,1c-8.3,2.8-16.5,2.6-24.7-0.7
		c-7.5-3.1-15.2-5.9-22.8-8.6c-6.9-2.5-13.5-5.5-18.9-10.6c-7.5-6.9-16.1-8-25.5-5.6c-13,3.2-25.5,7.5-38.2,11.9
		c-5.5,2-11.2,3.8-16.7,5.8c-2.8,1-5.6,1-8.2-0.6c-3.1-1.8-5-4.4-4.7-8.2c0.2-2.5,0.4-5,0.6-8.2c-1.2,1.1-2,1.8-2.8,2.6
		c-5,4.8-10.6,8.8-16.9,11.7c-4.8,2.1-9.8,3.3-15.2,2.7c-8.5-1-14.1-7.9-13.6-16.3c0.4-5.3,2.2-10.1,5.2-14.5
		c1.2-1.8,2.6-3.7,3.8-5.5c1.8-2.9,1.6-5.8-0.4-8.5c-0.7-1.1-1.6-2.2-2.6-3.2C63.7,95.6,59,88.7,55,81.6c-2.2-3.8-3.8-8-4.4-12.4
		c-0.9-7.7,1.8-13.9,8.2-18.3c5.3-3.6,11.2-5.2,17.4-6c11.4-1.6,22.8-1.7,34.4-1.7c13.3-0.1,26.5-0.1,39.8,0.1
		c12.4,0.2,24.7,1,37.1,1.5c11.9,0.5,23.9,1.1,35.9,1.5c12.5,0.4,25.2,0.6,37.7,0.6c21.9,0,43.6-1.6,65.1-5.2
		c5.6-1,11.3-1.4,17.1-0.9c12.8,1.4,23.2,11.4,24.8,24.2c0.4,2.5,0.7,4.8,1,7.4c3.4,0.2,6.6,0.5,9.8,0.9c3.3,0.4,6.5,1.1,9.6,2.7
		c3.3,1.7,5.8,4.2,6.6,7.9c0.9,3.6,1.2,7.4,1.7,11.1c0.2,1.6,0.2,3.3,0.4,5.4c2.6-3.8,9.3-32.4,9.1-38.2c-2.1,0.1-4.1,0.2-6.1,0.4
		c-1.2,0.1-2.6,0.1-3.8,0.1c-1.7-0.1-2.8-1.2-3.1-2.7s0.5-2.8,2.3-3.3c1.6-0.5,3.2-0.7,4.9-0.9c1.2-0.1,2.6,0,3.8,0
		c3.8,0,4.1-0.2,4.9-3.9c0.5-2,0.9-4.1,1.2-6c1-4.9,2.6-9.5,5.6-13.5c0.2-0.4,0.5-0.9,0.7-1.2c0.1-0.1,0.1-0.4,0.2-0.9
		c-3.8-2-7.7-2.2-11.8-1.2c-3.2,0.7-6,2.5-8.5,4.5c-0.9,0.7-1.7,1.7-2.8,2.1c-0.9,0.4-2.1,0.5-2.9,0.1c-1.1-0.5-1.4-1.7-1-2.8
		c0.6-1.6,1.2-3.2,2.2-4.4c5.9-7.4,13.6-9.7,22.6-7.9c6.8,1.4,13.4,3.2,20,4.7c5.3,1.2,10.7,1.4,16.1,0.2c2.3-0.5,4.4-1.2,6.3-3.1
		c1.8-1.8,4.1-3.1,6.6-3.7c4.9-1,8.6,1.2,9.8,6.1c0.9,3.7,0.5,7.4-0.4,11.1c-1.2,5.2-3.4,10.1-6.1,14.6c-0.5,0.9-1.1,1.8-1.4,3.1
		c0.6-0.6,1.2-1.2,2-1.8c5.8-5,14.7-4.7,19.6,0.9c2.6,2.8,3.3,6.4,3.4,10.1c0.1,2.6,0.1,5.3,0.2,8.1c2.9,0.1,5-1.2,7.4-2.7
		c-0.7-3.2-1.5-6.4-2.1-9.5c-0.9-4.3-0.7-8.6,1.6-12.5c0.9-1.5,2.1-2.9,3.6-3.8c3.6-2.3,7.4-2.7,11.1-0.5c3.4,2.1,5.4,6.5,4.5,10.7
		c-0.5,2.3-1.6,4.7-2.6,6.9c-0.5,1.4-1.2,2.6-2.1,4.4c1.5-0.5,2.3-0.9,3.3-1.2c2.2-0.7,4.4-0.6,6.6,0.4c2.2,1.1,3.2,2.8,2.7,5.3
		c-0.2,1.1-0.6,2.2-1,3.3c-2.3,6.5-4.9,13-7.1,19.6c-1.1,3.2-1.6,6.6-2.5,10.3c2.5-0.2,3.6-1.6,4.5-2.9c4.3-5.4,7.6-11.4,10.6-17.7
		c1.6-3.3,3.2-6.8,3.8-10.4c0.2-1.1,0.7-2.2,1.4-3.2c1.4-2.2,3.7-3.1,6-2.1c2.1,0.7,3.1,2.7,2.7,5.3c-0.5,3.2-1.2,6.4-1.6,9.6
		c-0.2,1.4,0,2.7,0.1,4.1s1,2,2.3,1.5c1.4-0.5,2.8-1.1,3.8-2c4.8-4.5,9.1-9.5,11.5-15.8c0.9-2.3,2.7-4.3,4.4-6.1
		c2.5-2.5,5.5-3.3,9-2.6c0.5,0.1,1,0.1,1.7,0.1c0.5-3.1,0.7-6,1.5-9c1-4.5,2.1-9,3.6-13.4c1.5-4.3,4.2-8,7.5-11.2
		c4.8-4.5,11.2-3.4,14.4,2.3c2.2,3.9,2.7,8.2,2.1,12.5c-2,13.6-8,25.3-16.7,35.9c-0.7,0.9-1.4,2.1-1.4,3.1c0.2,4.2,1.5,8.1,4.5,11.2
		c2.5,2.5,3.7,2.5,5.6-0.2c1.7-2.5,3.4-5,4.7-7.7c1.7-4.1,3.2-8.2,4.5-12.4c2.7-8.3,8.3-13.3,16.9-14.9c1.4-0.2,2.7-0.4,4.1-0.2
		c7.9,1,10.2,4.5,9.5,11.7c-0.1,1.6-0.7,3.1-1.1,4.5c-0.9,3.4-1.8,6.9-2.7,10.4c0.2,0.1,0.4,0.4,0.6,0.5c1.1-0.6,2.3-1.1,3.4-1.8
		c4.5-3.1,8-7.2,10.8-11.9c4.1-6.5,11.1-7.9,17.3-3.3c3.7,2.7,6.8,6.1,8.5,10.4c1.4,3.3,2.3,6.6,3.4,9.9c0.6,1.8,1.4,3.7,2.2,5.4
		c1.1,2.1,2.8,3.4,5.3,3.9c2.6,0.5,4.5-0.5,5.4-2.9c0.5-1.4,0.7-2.8,0.7-4.3c0.2-6.4-1.1-12.5-2.7-18.5c-1.1-3.9-2.2-8-2.8-12
		c-2.1-12.6,5.2-23.1,17.7-25.7c5.2-1.1,10.2-0.7,15.1,1c3.1,1,6.1,2.1,9.1,3.3c5.6,2.3,11.4,3.4,17.4,3.9c1.7,0.1,3.3,0.4,4.9,0.6
		c6.9,0.9,12,4.5,15.6,10.4c3.3,5.6,5,11.9,6,18.3c0.5,3.1-0.4,4.8-3.4,8.3c2,2.3,3.8,4.9,4.4,8c0.6,3.1,0.2,6-1,8.8
		c0.1,0.4,0.2,0.6,0.4,0.6c9.8,8.3,14.9,19.4,17.7,31.6c1.7,7.1,3.1,14.4,4.5,21.6c1.5,7.1,3.7,14,7.2,20.5
		c4.8,8.7,7.5,18.1,9.3,27.8c3.7,19.4,12.9,35.9,26.8,49.9c3.2,3.2,6.3,6.6,9,10.2c2.2,2.8,4.1,6,5.6,9.3c2.5,5.2,5.6,9.6,10.2,13.1
		c9.7,7.6,17.8,16.6,24.4,27c6.3,9.8,11.4,20.1,14.1,31.6c0.7,3.2,1.1,6.4,0.5,9.7c-0.6,3.7-2.1,6.9-5.2,9.2
		c-0.4,0.2-0.7,0.6-1.1,1.1c4.3,16.7,11.1,32.3,18.9,47.5c8.5,16.6,18.5,32.2,28.7,47.6c7.2,11.1,14.6,22.1,21.6,33.4
		c5.3,8.6,9.5,17.9,11.8,27.8c0.7,2.8,0.9,5.5,0.2,8.5c-0.2,1,0,2.2,0.5,3.1c1.8,3.8,3.9,7.5,6,11.2c2.8,4.9,5.8,9.8,7.4,15.3
		c2.3,8,2.7,16.1,2.1,24.2c-0.7,8.8-1.6,17.8-2.3,26.6c-0.7,8.1-0.1,16.1,0.6,24.1c0.9,9.8,2,19.5,1,29.3c-1.2,13-4.5,25.4-9.5,37.6
		c-0.9,2.1-1.7,4.2-2.6,6.3c-2.2,5-2.5,10.2-2.1,15.6c0.7,8,1.2,16.1,1.5,24.1c0.1,5.4-0.7,10.8-2.2,16
		c-2.9,10.2-9.2,17.3-19.3,21.1c-6.1,2.3-12.4,3.7-18.8,4.5c-9.7,1.5-18.9,4.3-27.4,9.3c-4.8,2.8-9.9,5-15.6,5.9
		c-4.9,0.7-9.8,0.5-14.6-1.1c-9.5-3.1-15-10.4-15.6-21c-0.2-3.6,0-7.1,0.2-10.6c0.2-5,0.6-9.9-0.2-15c-1-5.8-3.6-10.7-7.6-15
		c-7.7-8.1-16.9-14-27-18.5c-8.2-3.8-16.8-6.6-25.4-9.3c-7.2-2.3-14.1-5.5-19.4-11.2c-3.7-3.8-6.1-8.5-8.2-13.1
		c-4.4-10.1-8-20.5-10.9-31.1c-1.2-4.7-2.6-9.3-4.2-13.8c-2.9-8.1-9.3-11.8-17.6-12.6c-2.2-0.2-4.5-0.1-6.8,0
		c-14.2,0.6-21.6-10.8-20-22.5c0.7-5.2,2.8-9.8,5.4-14.2c4.2-7,9.5-13.3,14.9-19.4c0.7-0.9,1.5-1.8,2.2-2.7c0.1-0.1,0-0.4,0-0.9
		c-6.1,1.6-12,0.6-17.7-2.7c0.4,2.6,0.9,4.8,0.9,7c0,2.1-0.1,4.3-0.9,6.4c-2,5.9-7.6,9-13.8,8c-5.4-0.9-9.6-3.9-13.1-7.9
		c-3.6-3.9-6.1-8.3-8.7-12.9c-4.9-9.1-9.7-18.2-14.9-27.1c-7.2-12.6-16.3-23.9-27.1-33.9c-2.8-2.6-5.3-5.9-7.4-9.1
		c-1.4-2.2-2.1-4.9-2.5-7.5c-0.9-5,1.4-8.5,5.9-10.6c4.8-2.1,9.7-2.3,14.7-1.5c0.6,0.1,1.1,0.1,1.8,0.2c0.2-7.2,4.9-11.4,10.2-15.1
		c4.5-3.1,9.3-5.9,13.9-8.8c3.3-2.1,6.5-4.4,9-7.6c2-2.6,3.4-5.5,3.9-8.7c0.6-3.6-1.7-5.5-5.2-4.3c-1.4,0.5-2.6,1.5-3.7,2.3
		c-0.6,0.4-1,1-1.5,1.4c-2.7,2.7-5.9,3.9-9.7,2.6c-3.9-1.5-6-4.5-6.6-8.6c-0.4-2.5-0.6-4.9-1.2-7.2c-0.4-1.6-1.2-3.2-2.1-4.5
		C661.7,411.8,659.9,411,657.3,411.4z M734.6,605c0.6-0.1,1.1-0.1,1.6-0.2c15.5-2.3,34,7.5,40.4,22.6c1,2.5,2,4.9,2.7,7.5
		c3.9,13.1,8.1,26.3,13.3,38.9c2.8,7,7.6,11.3,14.9,13.5c8.3,2.5,16.6,5.4,24.7,8.6c13.6,5.5,25.9,13.1,36.1,23.8
		c10.6,10.9,15,23.9,13.8,38.9c-0.4,4.1-0.7,8.2-0.7,12.3c0,4.8,2.1,6.8,6.9,6.8c3.4,0,6.6-1,9.6-2.5c3.2-1.5,6.3-3.2,9.3-4.9
		c5.3-3.1,10.8-5.2,16.7-6.3c3.2-0.5,6.4-1.1,9.6-1.7c4.3-1,8.6-1.8,12.9-3.1c5.8-1.7,9.2-5.6,10.4-11.7c0.1-1,0.4-2,0.5-2.9
		c1.2-8.7,0.7-17.4-0.4-26.2c-1.1-9.1-0.5-17.8,3.2-26.2c1.7-3.8,3.1-7.9,4.5-11.8c4.3-11.8,6.9-23.9,6.1-36.6
		c-0.4-7-1.1-14.1-1.6-21.1c-0.4-4.5-1-9.2-0.6-13.8c0.6-9.9,1.7-19.8,2.5-29.6c0.5-5.4,0.6-10.8-0.1-16.2c-1-7.4-3.8-13.9-7.6-20.3
		c-2.6-4.4-4.9-9-7-13.6c-1.5-3.2-2.1-6.8-1.5-10.3c0.4-2.1,0.1-3.8-0.5-5.8c-3.3-10.1-8.5-19.3-14.1-28
		c-6.5-9.9-13.1-19.8-19.8-29.7c-17.6-26.3-32.7-53.9-43.1-83.9c-1.5-4.3-2.7-8.6-3.7-13c-1.1-5.8,0.6-10.8,5.2-14.5
		c1.6-1.4,1.7-2.5,1.2-4.3c-3.9-14.9-11.8-27.5-22.3-38.6c-3.4-3.6-7.2-6.6-10.9-9.8c-5-4.3-9.6-9.1-12.2-15.3
		c-2.6-6.6-6.8-12.2-11.7-17.2c-1.4-1.4-2.7-2.8-4.1-4.3c-15-15.6-24.4-34.1-28.6-55.1c-1.8-9-4.1-17.7-8.5-25.9
		c-3.7-6.8-6.4-13.9-7.9-21.5c-0.9-4.7-1.7-9.2-2.6-13.9c-1.2-6.8-2.8-13.4-6-19.6c-3.7-7.4-9.2-12.6-17.7-14.1
		c-3.4-0.6-5.3-2.8-5.9-6.1c-0.6-3.1,0-5.9,1.7-8.5c0.4-0.6,0.9-1.2,1.5-2c-1.1-0.6-2.1-1.1-2.9-1.6c-5.3-2.9-8.3-7.4-8.7-13.4
		c-0.2-3.6,0.5-6.9,3.7-9.1c2-1.4,4.1-2,6.4-1.7c1.6,0.1,3.2,0,5.2,0c-1.1-2.8-2.8-4.3-5.4-4.8c-1.5-0.4-3.1-0.5-4.7-0.6
		c-6.3-0.1-12.3-1.5-17.9-3.9c-3.1-1.4-6.3-2.5-9.5-3.3c-2-0.5-4.1-0.6-6.1-0.4c-2.1,0.1-3.1,1.5-3.2,3.6c0,1.5,0.1,2.9,0.4,4.4
		c1.1,4.9,2.3,9.7,3.4,14.6c1.7,7.2,2.2,14.6,1,21.9c-2.1,12.3-11.2,19.8-23.6,19.3c-9.5-0.4-16.2-5.3-21.2-12.9
		c-2.3-3.6-3.7-7.6-4.8-11.7c-0.7-2.6-2.1-4.7-4.2-6.3c-2.2-1.6-4.5-2-6.9-0.6c-1.5,0.9-2.8,2.1-4.1,3.3c-2.9,3.2-6,6-10.3,7
		c-4.5,1-8.2-0.2-9.7-4.8c-0.1-0.4-0.4-0.6-0.6-1c-5.4,2.8-10.3,3.3-14.7-1.6c-0.7,1.4-1.2,2.5-1.8,3.3c-1.8,2.6-3.6,5.5-5.9,7.6
		c-5.3,4.9-12.2,4.1-16.5-1.7c-1.2-1.6-2.1-3.3-2.9-5c-0.7-1.5-1.5-2.9-2.2-4.4c-2.8,0.7-5.3,1.5-7.9,2.2c-3.8,1-7.2,0.4-10.1-2.5
		c-0.5-0.5-1.2-0.9-1.6-1.2c-1.7,1.6-3.2,2.9-4.7,4.3c-2.8,2.6-5.9,4.5-9.7,5.3c-3.8,0.7-7-0.2-9.2-3.7c-0.2-0.5-0.6-0.9-1.1-1.6
		c-0.6,1.1-1.1,2-1.6,2.8c-2.2,3.7-4.3,7.5-6.9,10.9c-1.6,2.2-3.6,4.2-5.8,5.8c-4.1,2.9-8.7,2-11.5-2.2c-0.9-1.4-1.5-2.8-2-4.3
		c-1-2.9-0.7-6-0.4-9.1c0.7-5.6,2.6-10.9,4.7-16.1c0.4-1,0.7-1.8,1-2.8c-2.5-0.1-4.4-0.1-6.5-0.4c-1.1-0.1-2.1,0-3.1,0.5
		c-2.2,1.2-4.4,2.7-6.9,3.3c-4.7,1.1-7.5,3.8-9.6,7.9c-1.2,2.5-3.3,4.4-5.9,5.6c-4.5,2.2-9.3,1.1-12.4-2.7c-0.5-0.6-1-1.4-1.7-2.2
		c-0.5,0.9-1,1.5-1.4,2.1c-1.8,2.6-3.3,5.4-5.4,7.6c-1.8,2-4.1,3.8-6.4,5c-5.2,2.7-10.6,0.7-13-4.7c-0.9-1.8-1.4-3.9-1.7-5.9
		c-0.9-5.5-0.4-10.9,0.4-16.5c0.5-3.8,1.2-7.5,1.8-11.3c-5.5,0-10.9,0-16.3,0c-2.9,0-2.9,0.1-3.7,3.1c-2,7.9-3.8,15.8-5.8,23.7
		c-1.7,7-3.6,13.9-7.1,20.1c-1.6,2.7-3.3,5.4-5.4,7.6c-4.2,4.5-10.8,3.3-13.8-0.5c-1.2-1.5-2.2-3.3-2.9-5c-1.7-4.1-3.7-8.1-4.9-12.3
		c-1.5-5.3-4.8-6.9-9.8-6.8c-7.7,0.1-16.9-5.2-17.9-15.7c-0.4-3.4-1.1-7-2.2-10.3c-1.2-3.9-4.3-6.1-8.3-6.4c-2.9-0.2-6,0-9.1,0.2
		c-11.3,1.4-22.6,3.2-33.9,4.2c-19.4,1.7-38.8,2.1-58.3,1.5c-18.7-0.6-37.3-1.4-55.9-2c-15.6-0.5-31.2-1.2-46.8-1.4
		c-15.7-0.1-31.4,0.2-47.2,0.6c-3.7,0.1-7.5,0.4-11.2,0.9c-3.3,0.5-6.6,1-9.6,3.2c0.6,1.5,1.1,2.9,1.7,4.4c2.9,6.3,7,11.8,11.2,17.3
		c2.6,3.4,5.3,6.9,7.4,10.6c3.6,6.1,3.7,12.8,0.7,19.2c-1.6,3.3-3.4,6.4-5.3,9.6c-0.5,0.9-0.9,1.8-1.4,2.7c0.1,0.1,0.4,0.4,0.5,0.5
		c2-1.1,4.1-2,5.6-3.4c2.8-2.3,5.5-5,8.2-7.6c1.8-1.7,3.6-3.7,5.5-5.4c3.2-2.8,6.9-4.4,11.2-4.7c8-0.5,13.6,4.4,15.2,12.2
		c0.4,2,0.6,4.1,0.9,6.1c0.6-0.1,1.1-0.1,1.5-0.4c5.9-2,11.8-3.8,17.6-5.8c7.2-2.3,14.5-4.8,21.9-7c5-1.5,10.2-2.2,15.3-2.3
		c9.2-0.2,17.6,2.3,24.6,8.1c7.7,6.4,16.5,10.4,26,13.4c4.7,1.5,9.3,3.2,13.6,5.4c5.4,2.7,10.6,3.3,16,0.2c0.2-0.1,0.5-0.2,0.9-0.4
		c4.4-1.8,9-2.2,13.5-1.2c9.2,2.1,14.4,9.9,12,18.9c-1.1,4.1,0,6.9,2.7,9.8c2.9,3.1,5.6,6.3,8.2,9.6c3.7,4.9,6.4,10.3,7.6,16.5
		c0.6,2.9,1,6,1.4,9c0.4,2.8,1.6,5,3.9,6.6c3.6,2.3,7.2,4.8,10.9,6.9c7.2,4.1,15,4.8,23.1,2.8c8.6-2.1,16-6,21-13.6
		c0.7-1.1,1.6-2.2,2.5-3.3c9.5-12.4,22.1-19.2,37.3-21.4c3.4-0.5,6.8-0.9,10.3-1.2c-0.5-5-1.2-9.8-0.5-14.7
		c1.4-8.5,5.9-14.5,14.1-17.2c2.7-0.9,5.5-1.2,8.3-1.5c5.6-0.4,11.2,0.9,16.6,2.5c29.3,9.1,54.6,24.8,75.1,47.8
		c5.6,6.3,10.7,13.1,15.6,20c8.3,11.9,18.5,21.7,31.1,29.3c8.7,5.3,17.3,10.8,25.9,16.5c10.2,6.6,19,15,25.7,25.3
		c7.2,11.3,13.1,23.2,18.4,35.5c1.8,4.3,2.9,8.7,3.4,13.4c0.9,8.6-0.2,17.1-2.7,25.3c-2.5,8.2-5.2,16.3-7.5,24.4
		c-1.2,4.5-2,9.1-2.9,13.8c1.1-0.2,1.6-0.9,2.2-1.2c2.1-1.2,4.1-2.9,6.4-3.6c9.1-2.3,17.4-0.7,23.8,6.6c2,2.3,3.3,5,4.9,7.6
		c0.5,0.9,0.9,1.7,1.4,2.7c1.7-0.4,3.2-0.7,4.7-1c11.9-2.1,21.6,3.9,24.4,15.3c1.5,5.8,0.9,11.3-1.4,16.7
		c-3.8,9-10.2,15.7-18.2,21.2c-3.4,2.3-7,4.4-10.4,6.6c-1.4,0.9-2.6,1.7-3.9,2.7c0.9,1.4,1.6,2.3,2.2,3.4c2.2,4.1,2.6,8.2,0,12.3
		c-2.5,3.7-6,5.5-10.4,5.8c-1.8,0.1-3.7,0-5.8,0c3.1,3.6,6,6.8,8.7,10.2c2.7,3.4,5.4,7,7.9,10.7c2.5,3.7,4.9,7.4,7.1,11.2
		c2.2,3.7,4.3,7.6,6.6,11.7c2.1-4.9,5.2-7.7,9.8-8.7c3.7-0.9,7.2,0.2,10.6,2c3.9,2,7.1,4.9,9.9,8.1c1.4,1.6,2.7,3.1,4.2,4.5
		c3.2,2.9,5,3.1,8.6,0.4c8.2-6.3,17.6-10.7,27.1-14.6c3.6-1.4,6.6-0.6,9.2,2c2.8,2.9,3.7,6.4,2.3,10.3c-2.6,7.5-6.3,14.5-11.2,20.6
		c-5.6,7.2-11.8,14.2-17.7,21.4c-4.2,5-8.1,10.3-10.9,16.3C734.9,601.4,734,602.9,734.6,605z M448.2,34.2c-0.6-0.1-0.9-0.2-1.1-0.2
		c-5.8,0.4-11.4-0.2-16.9-1.5c-1.5-0.4-2.5,0.2-3.2,1.5c-0.5,0.9-1.1,1.8-1.4,2.9c-1.2,4.2-2.5,8.2-3.6,12.4
		c-0.5,1.6-0.6,3.3-0.9,5.3c3.4,0,6.4,0,9.5,0c3.3,0.1,6.6-0.6,9.7,1.4C442.9,48.6,445.5,41.6,448.2,34.2z M464,55.3
		c-0.2,0.1-0.5,0.1-0.6,0.2c-3.6,4.3-7.6,8.1-11.9,11.8c-1.1,0.9-2,2.6-2.2,3.9c-0.9,6.4-1.2,12.9-0.5,19.4c0.1,0.9,0.5,1.6,0.7,2.3
		c3.3-1.5,5.6-3.3,7.9-7.6c2.6-4.8,4.8-9.8,6.9-14.9c0.5-1,0.2-2.6-0.1-3.7c-1.2-3.6-1.5-7.1-0.2-10.7C464.1,56,464,55.7,464,55.3z
		 M585.2,68.2c4.9-7,8.8-14.4,10.9-22.7c0.9-3.3,1.5-6.8,1.2-10.2c-0.1-2-0.2-3.9-1.7-5.5c-2.1,0.7-2.9,2.5-3.7,4.1
		c-2.5,4.9-3.9,10.1-4.9,15.3C585.7,55.5,585.1,61.7,585.2,68.2z M452.2,57.1c0.2,0.1,0.4,0.2,0.6,0.4c4.7-5.8,9.7-11.3,12.6-18.2
		c1.2-2.9,2.1-6.1,2.2-9.3c0-1.1-0.2-2.2-0.4-3.7c-3.1,1.7-4.7,4.2-5.9,6.9c-2.3,5.4-4.5,10.8-6.8,16.3
		C453.7,51.9,452.9,54.5,452.2,57.1z M626.8,64.6c-2.6-1.1-3.7-1-5.6,0.5c-2.8,2.2-4.5,5.2-5,8.6c-0.4,2.7-0.7,5.4,0.5,8
		c2.2,0,3.3-1.1,4.1-2.7C622.8,74.1,624.9,69.3,626.8,64.6z M574.1,67c-4.4,0.9-8.6,7.2-7.5,10.8c0.2,1,1,1.5,2,1.4
		c0.9-0.1,1.7-0.5,2.5-0.9c4.2-1.6,4.2-1.6,3.7-6C574.8,70.6,574.4,68.9,574.1,67z M481.6,68.4c0.4-3.9,0-7-1.2-9.8
		c-1.1-2.5-3.2-2.6-4.7-0.4c-1.2,1.8-1.1,4.1,0.6,5.9C477.8,65.5,479.5,66.6,481.6,68.4z M478.7,78.9c-2.5-1-4.8-2-7.2-2.9
		c-1.1,1.8-1.1,3.7-0.4,5.5c0.7,2.2,2.7,2.8,4.7,1.6C477.3,82.2,478.2,80.9,478.7,78.9z M507.5,58.9c2.3-2.7,3.1-5.3,2.9-8.2
		c0-0.9-0.6-1.6-1.2-2.8C506.1,51.3,506.2,54.7,507.5,58.9z"/>
	<path d="M788.8,884.6c17.4,0.2,34-3.9,50-10.8c18.2-8,34.6-18.9,50-31.4c3.6-2.9,6.4-6.6,9.6-9.9c9.6-9.6,19.3-19,29-28.5
		c4.2-4.1,8.3-8,12.4-12.2c4.4-4.5,9.7-7.4,15.8-8.3c3.1-0.5,6.3-0.9,9.3-1.2c3.9-0.4,6.6,1.7,8.2,5.3c1.8,4.1,1.4,7.6-1.1,11.4
		c-8.1,12.6-18.7,23-30.7,31.9c-10.3,7.7-21.5,14.1-32.7,20.4c-2.6,1.5-5,3.1-7.4,4.9c-13.4,10.7-27.3,20.5-42.5,28.5
		c-14.9,7.9-30.3,13.9-46.9,16.8c-9.9,1.8-19.9,2.5-29.8,1.8c-7-0.4-10.9-5.2-9.9-11.7c0.7-4.4,3.7-7,8.1-7
		C783.1,884.6,786,884.6,788.8,884.6z"/>
	<path d="M673.7,913.4c0.2-1.2,0.4-2.2,0.7-3.2c1.1-3.6,3.3-6,7-6.8c0.7-0.1,1.5-0.4,2.3-0.5c1.1-0.1,1.6-0.7,2.2-1.7
		c1.8-3.3,4.7-4.8,8.5-5c4.8-0.2,9.6-0.5,14.7-0.7c0.2-0.4,0.6-1.1,0.9-1.7c2.8-5.6,8.3-8.5,14.6-7.6c1.2,0.1,2.5,0.5,3.8,0.7
		c1.8,0.2,3.2-0.2,4.3-1.8c2.3-3.4,5.6-4.8,9.7-3.8c4.1,1,6.8,4.2,7.4,8.6c0.1,0.5,0.1,1,0.1,1.5c-0.4,2.9,0.5,5.2,2.7,7.4
		c2.6,2.5,2.8,6,1.8,9.5c-1.1,3.8-3.8,6-7.9,5.6c-3.4-0.2-6.5,0.7-9.9,2c0,1,0,2,0,3.1c-0.1,4.2-2.3,7-6.4,7.6
		c-4.5,0.7-9.2,1.2-13.8,1.4c-19.4,0.2-38.6,2.8-57.1,8.7c-5.3,1.7-9.5-0.2-11.1-5.2c-1.8-5.3,0.4-10.6,5.4-12.4
		c5-1.7,10.2-2.9,15.2-4.4C670.4,914.2,672,913.8,673.7,913.4z"/>
	<path d="M575.5,955.7c0,7.4-6,11.7-12.5,9.2c-3.4-1.4-6.9-2.8-10.3-4.4c-4.2-2-5.9-6.6-4.3-11.4c1.4-4.2,6-6.9,10.3-5.8
		c2.3,0.6,4.5,1.7,6.9,2.6c1.6,0.6,3.1,1.4,4.5,2C573.9,949.3,575.5,952.2,575.5,955.7z"/>
	<path d="M597.8,961.7c-3.6-0.2-6.5-0.9-9.2-2.5c-3.9-2.2-5.5-6.8-4.1-11.2c1.4-4.1,4.9-6.4,9.3-6c2.3,0.2,4.7,0.5,7,0.9
		c4.3,0.6,7.9,4.7,8,9c0.1,4.3-3.2,8.3-7.5,9.2C600.1,961.4,598.7,961.6,597.8,961.7z"/>
	<path d="M624.5,952.3c-6.4-0.1-10.4-4.1-10.2-10.1c0.1-3.2,1.6-5.6,4.3-7.2c3.8-2.2,7.9-2.2,11.8-0.1c3.4,1.8,4.9,5.2,4.4,8.8
		c-0.4,3.9-2.7,6.6-6.5,7.9C626.9,952.1,625.7,952.1,624.5,952.3z"/>
	<path d="M547.3,56.6c0,3.1-2.2,5.4-5.3,5.4c-2.8,0-4.5-1.7-4.5-4.5c0-3.3,2.1-5.4,5.2-5.4C545.5,52,547.3,53.7,547.3,56.6z"/>
</g>
</svg>
