<?xml version="1.0" encoding="utf-8"?>
<!-- Generator: Adobe Illustrator 23.0.4, SVG Export Plug-In . SVG Version: 6.00 Build 0)  -->
<svg version="1.1" id="Layer_1" xmlns="http://www.w3.org/2000/svg" xmlns:xlink="http://www.w3.org/1999/xlink" x="0px" y="0px"
	 viewBox="0 0 1008 1008" style="enable-background:new 0 0 1008 1008;" xml:space="preserve">
<g>
	<path d="M686.9,330.7c6.3-0.9,12.3,0,18,2.3c4.8,1.9,9,4.5,12.8,7.9c3.5,3.1,7.1,6.2,10.4,9.4c6.6,6.5,13.3,13.1,19.7,19.7
		c2.8,2.9,5.3,6,7.7,9.1c3.9,4.9,5.5,10.6,6,16.7c0.1,2.2,0.4,4.4,0.4,6.6c0,1.5,0.7,2.4,2.1,2.9c1.8,0.6,3.4,1.4,5.1,2.2
		c4.6,2.1,7.9,5.6,9.6,10.4c0.6,1.4,1.1,2.8,1.7,4.2c1.5,4,4.1,7.1,7.9,9c3.6,1.9,7.5,3.5,11.3,5.2c3.2,1.4,6.6,2.5,9.8,3.9
		c2.1,0.9,4.2,1.9,6.2,2.9c7,3.5,11.3,9.3,12.6,17c1.4,8.1,3.6,16,7.1,23.6c1.5,3.4,3,6.9,4.3,10.3c4,9.8,5.5,20,4.8,30.6
		c-0.2,3.1,0,6.3,0.2,9.5c0.2,2.7,2,4.4,4.4,5.5c3.6,1.8,7.3,3.5,10.7,5.6c9.8,6.1,16.1,15.2,20.5,25.7c3.3,8.2,5,16.7,6.4,25.4
		c0.8,4.4,1.7,8.8,2.5,13.3c2.4,11.1,8.4,19.6,18.2,25.5c6,3.6,11.7,7.6,17.4,11.7c4.2,3.1,7.5,7.2,10.3,11.7
		c3.1,5.2,0.9,11.6-5.2,13.3c-4,1.1-8.1,1.8-12.3,1.5c-0.9,0-1.8,0-2.8,0c-0.2,0.3-0.4,0.7-0.6,1.1c-2.2,7.9-6.4,14.3-12.5,19.7
		c-3,2.7-6,5.3-8.7,8.1c-3.2,3.2-5.4,6.9-6.1,11.5c-0.9,6.1-7.2,9.1-12.7,6.4c-0.3-0.1-0.7-0.3-0.8-0.4c-1.4,0.4-2.8,0.9-4.4,1.4
		c0.8,0.9,1.4,1.7,2.1,2.4c3.2,3.6,5,7.9,4.9,12.8c-0.1,3.3-0.9,6.4-3,8.8c-1.3,1.7-1.5,3.1-1.2,5.1c1.1,5.9,0.1,11.5-2.3,16.8
		c-3.2,7-8.7,11.4-15.9,13.9c-2.1,0.8-4.2,1.3-6.5,2c0.4,0.4,0.8,0.9,1.2,1.2c7.5,5.5,10.2,13.1,7.6,21.9c-0.8,2.7-1.8,5.4-3,8
		c-3.9,8-8.1,15.9-12.1,23.9c-1.3,2.7-3.1,4.9-6.2,5.6c-0.8,2.9-1.4,5.5-2.3,8.5c0.2,0.1,0.6,0.4,1,0.7c8.5,3.4,13.8,15.6,8.1,25.9
		c-2.5,4.6-6.3,8-10.8,10.6c-0.4,0.2-0.9,0.6-1.5,0.9c0.4,3.8,0.9,7.6,1.4,11.5c0.2,1.9,0.4,3.9,0.8,5.8c0.8,4.4-3,8.2-6.3,9
		c-5.6,1.3-11.4,1.4-17.1,0.8c-9.6-1.1-18.4-4.8-27.2-8.5c-6.9-3-13.8-5.9-20.8-8.5c-5.1-1.9-10.4-2.7-15.9-2.3
		c-2.9,0.2-3,0.1-3.4,2.9c-0.3,3-0.7,6-0.7,9c0,8,0.1,15.9,0.2,23.9c0.1,10.3-0.1,20.5-2.8,30.5c-1,3.6-2.2,7.1-4.2,10.3
		c-5.8,9.6-16.3,13.3-26.5,8.7c-8.6-3.8-13.9-10.7-16.6-19.6c-1.7-5.6-1.8-11.5-2-17.4c-0.1-1.5,0-3.2,0-4.9c-1-0.2-1.7-0.4-2.3-0.4
		c-7.4-0.4-14.8-0.8-22.2-1.1c-7.3-0.4-14.6-0.9-22-1.3c-7.1-0.4-14.2-0.9-21.1-1.3c-6.9-0.4-13.7-0.9-20.7-1.3
		c-6.4-0.4-12.8-0.9-19.4-1.2c-6.4-0.4-12.8-0.9-19.4-1.3c-6.2-0.4-12.4-0.9-18.5-1.3c-6.5-0.4-13.1-0.9-19.6-1.4
		c-5.9-0.4-11.8-0.8-17.7-1.2c-6.6-0.4-13.3-1-19.8-1.4c-6-0.4-11.9-0.9-18-1.2c-6.3-0.4-12.7-0.9-19-1.3
		c-5.9-0.4-11.8-0.8-17.7-1.2c-6.7-0.4-13.4-1-20.1-1.4c-6.1-0.4-12.2-0.8-18.2-1.2c-6.7-0.4-13.4-0.9-20.1-1.4
		c-6-0.4-11.9-0.8-18-1.2c-7.3-0.6-14.6-1-21.9-1.5c-9.3-0.7-18.5-1.4-27.8-1.8c-9.7-0.3-19.5-0.2-29.2-0.3c-2.7,0-5.3-0.2-7.9-0.8
		c-5.2-0.9-11.2-3.9-12.8-11.9c-1.3-0.3-2.7-0.4-4-0.9c-3.5-1-6.2-4.1-6.1-7.5c0.6-15.5-3.9-29.9-9.7-43.9c-3.8-9-7.6-17.9-10.9-27
		c-4.6-12.4-6.9-25.2-5.6-38.5c0.6-5.6,1.9-11.2,2.9-16.7c1.2-6.5,2.9-12.9,3.9-19.5c1.2-7.7-0.2-15.4-2.9-22.7
		c-1.9-5-4-9.8-5.9-14.8c-2.1-5.4-3.9-10.9-4.6-16.8c-0.9-7,0-13.6,2.4-20c0.3-0.9,0.7-1.9,1.1-2.8c3.2-6.6,4.2-13.8,4.6-21.1
		c0.2-3.6,0.8-7.2,1.5-10.7c1.5-7.1,5.3-12.8,11.2-17.3c4.2-3.2,8.3-6.5,12.5-9.8c0.4-0.3,0.9-0.6,1.5-0.9c-1.8-1.7-3.2-3-4.5-4.2
		c-2.1-2-4.3-3.9-6.4-6c-5.8-5.8-7.1-12.8-5.5-20.6c0.7-3.3,1.5-6.7,2.4-10.1c0.8-3.1,0.4-6-1.1-8.7c-1.1-1.9-2.1-3.6-3.4-5.3
		c-5.8-7.6-9.7-16.1-11.8-25.5c-1.9-8.2-5.2-15.9-8.5-23.7c-3-7.2-6.1-14.4-7.9-21.9c-2.2-9.5-2.3-18.9,1-28.2
		c0.1-0.1,0-0.3,0.1-0.7c-0.4-0.2-0.9-0.4-1.3-0.7c-2.8-1.2-4.4-3.3-5.3-6.2c-2.7-8.5-4.2-17.4-5.4-26.2
		c-1.8-11.9-3.6-23.8-5.5-35.6s-3.8-23.8-5.6-35.6c-2-12.5-4-25-6-37.4c-2-12.6-4.1-25.3-6.2-37.9s-4.1-25.1-6.2-37.7
		c-2-12.6-4.1-25.1-6.1-37.7c-2.1-12.6-4.1-25.3-6.2-37.9c-1.9-11.4-3.4-22.9-5.5-34.3c-1.4-7.9-3.8-15.6-5.5-23.4
		c-1.4-6.4-3-12.7-4.2-19.1c-1-5.4-1.1-10.9,0.2-16.4c2.2-9.1,8.8-14.9,18-16.4c5.3-0.8,10.5-0.7,16,0.7c0.4-0.9,1-1.8,1.4-2.7
		c4.3-8,9.7-15,16.9-20.5c5.5-4.2,11.6-7.1,18.8-6.6c1.7,0.1,3.3,0.6,4.9,1.2c5.9,2.7,8.2,8.7,5.5,14.6c-2.4,5.2-6.7,7.9-12.2,8.5
		c-1.8,0.2-3.5,0.2-5.3-0.1c-4.5-0.9-7.3-4.2-8.1-9.4c-0.7,0.7-1.2,1.1-1.8,1.8c-8.3,10.3-13.9,21.9-15.9,35.1
		c-0.3,2.1,0,4.4,0.4,6.5c0.6,2.7,2.5,3.8,5.2,3.3c1.1-0.2,2.2-0.6,3.2-1.1c5.4-2.5,9.8-6.2,13.1-11.3c1.4-2.2,2.8-4.5,4.2-6.7
		c1.4-2.4,3.4-2.7,5.3-0.6c1.4,1.7,2,3.5,1.4,5.6c-0.9,4.2-1.8,8.5-2.7,12.7c-0.1,0.4-0.1,1-0.2,2.1c3.1-2.5,5.9-4.8,8.5-7.1
		c1-0.8,1.8-1.8,2.8-2.4c2.9-2.2,4.8-4.8,5.9-8.4c2.8-8.8,11.1-13.3,19.6-10.7c1.9,0.6,3.8,1.7,5.3,2.9c2.2,1.8,2.5,4.4,1.5,7
		c-1.3,3.2-3.8,5.4-7,6.4c-2.2,0.6-4.5,0.7-6.7,0.8c-1,0.1-1.9-0.1-3-0.2c-1,3-1.3,6-0.7,8.8c0.6,2.8,2.9,4.2,5.5,3.3
		c1.9-0.7,3.8-1.5,5.4-2.8c3-2.2,5.6-4.8,8.4-7.3c1.9-1.7,3.6-3.5,5.5-5.3c-0.6-1.4-1-2.5-1.3-3.8c-2.7-8.4,3.2-15,10-16.5
		c8.3-1.8,15.5,3.6,16.4,12.7c0.2,2.3,0.2,4.8,0.3,7.2c0,1,0.1,1.9,0.2,3c4,0.2,6.7-1.9,9.7-3.8c-1.8-4-3.2-7.9-3.4-12.1
		c-0.1-2.8,0.1-5.6,0.8-8.4c1.1-4.6,5.3-7.6,9.6-7.7c4.9-0.1,8.3,2.5,9.3,7.3c0.7,2.9,0.3,5.6-0.9,8.3c-0.9,2.2-2.1,4.3-3.2,6.4
		c-0.4,0.8-0.8,1.4-1.3,2.4c1.8,0.3,3-0.8,4.2-1.1c1.5-0.4,3.1-1.1,4.5-1.1c4.6,0,6.5,2.9,5,7.2c-2.3,6.7-4.8,13.5-7,20.4
		c-1,3.2-1.5,6.5-2.2,9.8c-0.2,1.3-0.4,2.7,0.6,3.9c1.9-0.1,3.3-1.3,4.3-2.8c2.8-4.1,5.6-8.2,8-12.5c2.7-4.9,4.8-10.1,7.1-15.2
		c0.4-0.9,0.4-2,0.4-3.1c0.3-5.9,2.3-10.8,6.9-14.7c3.4-2.9,7.3-3.3,11.5-1.9c1,0.3,2.1,0.3,3.1,0.2c3-0.3,3.9,0.3,3.8,3.1
		c-0.3,5.2-0.9,10.4-1.3,15.6c-0.1,1.3-0.2,2.5,0.1,4.2c1.1-1,2.2-1.9,3.2-3c2.3-2.7,4.6-5.3,6.9-8.1c1-1.2,2.1-2.1,3.8-2
		c2.5,0.1,4.1,2,3.6,4.8c-0.3,2.4-1,4.9-1.2,7.3c-0.2,2.2-0.3,4.4-0.2,6.6c0.2,2.5,1.7,3.4,4.1,2.7c1.5-0.6,3.2-1.3,4.3-2.4
		c5-4.9,9.1-10.4,11.7-16.9c3.4-8.6,12.9-14.3,21.9-12.7c4.5,0.8,7.2,3.8,7.4,8.3c0.3,4.5-1.1,8.5-3,12.5c-1.1,2.4-1.4,4.9-1.4,7.5
		c0,0.6,0.2,1.2,0.4,2.2c0.9-0.6,1.8-0.9,2.3-1.4c3.2-3.2,6.4-6.3,9.4-9.7c1.4-1.7,2.4-3.9,3.4-6c1.8-3.6,5.8-5.9,11.1-4.1
		c1.9,0.7,3.6,1.3,5.4,2.1c1.8,0.8,3.4,1.9,5.1,2.9c1.7-1.3,3.4-2.8,5.1-4.1c3.3-2.5,7.1-3.8,11.3-4.3c5.1-0.7,10.2,0,15.4,0.3
		c4.1,0.2,8.1,0.7,12.2,0.8c14.8,0.1,29.8,0.1,44.6,0c2.9,0,5.8-0.4,8.7-0.6c1.4-0.1,3.1-0.1,4.4,0.2c4.5,1.2,6.7,5.4,5.3,10
		c-2,6.7-6.1,12.4-10.8,17.4c-4,4.1-8.1,8.2-11.9,12.4c-2.1,2.3-3.9,5.1-5.6,7.6c-0.8,1.1-1.3,2.5-1.8,3.9c-2,5.8-0.7,9.4,4.5,12.6
		c0.7,0.4,1.3,0.9,2.1,1.2c7,3.3,11.9,8.6,16.3,14.8c2.9,4.1,5.3,8.3,8.3,12.4c2.5,3.5,5.4,6.7,8.2,10.1c0.9,1.1,2.1,1.9,3.2,2.8
		c3.9,2.9,8.3,3.9,13.1,2.7c2.1-0.6,4.3-0.9,6.5-1.3c5.6-1,10.4,1,13.9,5.3c1.9,2.3,3.1,5.1,4.4,7.7c0.7,1.4,1.1,3,1.7,4.4
		c1,2.4,2.3,4.6,4.3,6.3c6.6,5.6,10.9,12.8,14.3,20.8c3.1,7.3,6,14.7,9.3,22c9.4,20.1,21.8,38.3,36.8,54.5
		c3.6,3.9,7.7,7.2,11.5,10.9c2.4,2.4,4.8,5,6.7,7.7c4.6,6.6,4.8,13.5,0.7,20.4c-0.2,0.3-0.4,0.8-0.7,1.1
		C686.9,330.2,686.9,330.3,686.9,330.7z M194,81.6c-0.1-0.1-0.3-0.1-0.4-0.2c-1.2,1.1-2.4,2.2-3.8,3.2c-4.3,3.5-9.2,6-14.7,7
		c-6.4,1.1-11.4-2-13.2-8.2c-0.9-2.9-1.2-5.9-0.9-9c0.1-1.2,0.2-2.4,0.3-4c-2,0-3.8,0-5.5,0c-1,0-2,0.1-2.9,0.2
		c-3,0.6-4.3,1.9-4.4,5c-0.1,2.4-0.1,5,0.3,7.4c0.9,4.9,1.8,9.7,3.2,14.5c3.4,11.6,6.3,23.3,8.1,35.4c2.4,16.7,5,33.4,7.6,50.1
		c3,19.1,6.2,38.2,9.4,57.3c3.6,22.3,7.2,44.7,10.8,67c3.3,20.5,6.6,40.8,9.8,61.3c3.1,19.9,6.2,39.8,9.3,59.7c0.3,1.9,0.7,3.8,1,6
		c3.4-2.4,6.6-4.5,9.5-7c2.2-1.7,4.5-2,7-1.4c3.5,0.7,5.8,3.1,6.3,6.6c0.8,5.1-0.2,10-2.9,14.3c-2.2,3.6-4.9,7.2-7.4,10.6
		c-2.8,3.8-4.4,8-4.9,12.7c-0.4,4.9,0.3,9.5,1.5,14.2c1.9,7.1,5,13.6,8,20.2c3.6,8,6.5,16.1,8.3,24.9c1.1,5.4,3.2,10.4,6.6,14.9
		c2,2.7,3.9,5.5,5.6,8.3c4.4,7,5.6,14.4,3.6,22.3c-0.7,2.5-1.3,5.1-2.2,7.6c-1.3,3.9-0.1,6.9,3,9.4c1.3,1,2.5,2.1,3.9,3.3
		c1.5,1.3,3,2.8,4.4,4.2c6,6.4,6.6,13.9,2,21.3c-2.2,3.4-5.1,6.1-8.4,8.4c-2.9,2-5.9,4-8.6,6.2c-3.6,2.8-5.8,6.5-6.2,10.9
		c-0.4,4.1-0.8,8.3-1,12.4c-0.1,3.5-0.8,6.9-1.9,10.1c-1.2,3.2-2.4,6.4-3.6,9.6c-1.9,5.1-3.2,10.4-1.9,15.8c0.8,3.2,1.8,6.5,3,9.6
		c1.9,5,4.1,9.8,6.1,14.7c4.9,11.7,6.4,23.8,3.8,36.3c-1.4,6.9-3,13.8-4.6,20.7c-3.3,13.8-2.4,27.4,2.7,40.6c2.9,7.4,6,14.7,9.2,22
		c4.5,10.5,8.7,21,11.1,32.3c0.8,4,1.3,8,2.1,12.4c1-0.9,1.8-1.8,2.7-2.4c2.4-2,4.9-4.1,7.4-6c3-2.1,6.5-3.1,10.2-3.3
		c7.7-0.3,14.7,4.2,16.9,11.1c0.4,1.2,0.7,2.7,0.4,3.9c-0.4,4.1-3.6,7-8.1,7.4c-4.5,0.6-9.1,1.2-13.4,3c-0.8,0.3-1.4,0.8-2.2,1.1
		c0,0.2,0.1,0.4,0.1,0.7c1.2,0,2.3,0.1,3.5,0c7.4-0.6,14.8-0.7,22.2-0.1c5.4,0.3,10.9,0.6,16.4,1c6.1,0.4,12.2,0.9,18.2,1.3
		c6.3,0.4,12.7,0.8,19,1.2c7.2,0.4,14.3,1,21.5,1.4c6.3,0.4,12.5,0.8,18.8,1.2c6.6,0.4,13.3,1,19.8,1.4c6,0.4,11.9,0.8,18,1.2
		c6.6,0.4,13.3,1,19.8,1.4c5.8,0.4,11.5,0.8,17.1,1.2c6.2,0.4,12.4,1,18.5,1.4c6.1,0.4,12.2,0.8,18.2,1.2c8.5,0.7,17.1,1.3,25.7,1.9
		c8.8,0.7,17.6,1.1,26.4,1.8c9,0.7,17.8,1.3,26.7,1.9c9.4,0.7,18.7,1.1,28.1,1.8c12.7,0.8,25.4,1.7,38,2.4
		c10.7,0.7,21.3,1.1,32.1,1.7c4.4,0.2,8.8,0.4,13.3,0.9c3.9,0.3,6,2.3,6.4,6.2c0.4,4.2,0.8,8.4,0.9,12.7c0.2,5,0.3,9.8,1.8,14.7
		c1.1,3.5,3,6.6,6.2,8.7c2.7,1.8,4.8,1.2,6.6-1.3c1.8-2.4,2.7-5.2,3.2-8.1c1.2-6.4,1.5-12.8,1.4-19.2c0-10.4-0.4-20.7-0.6-31.1
		c-0.1-4.5,0.3-9,1.5-13.4c1.7-6,5.4-9.8,11.4-11.5c3.2-0.9,6.5-1.3,10-1.5c5.6-0.3,11.3,0.8,16.7,2.3c8.2,2.3,15.8,5.9,23.6,9.4
		c6.1,2.7,12.1,5.4,18.6,7c2.8,0.7,5.6,1.2,8.7,1c-0.1-1.1-0.1-2-0.2-2.8c-0.6-4.3-1.1-8.6-1.7-12.9c-0.6-4.4,2-7.9,6.3-9.1
		c2-0.6,4.1-1.2,6-2.1c1.5-0.7,2.5-1.9,2.9-3.5c0.1-0.6-0.1-1.2-0.2-1.9c-1.4,1.3-2.4,2.5-3.8,3.4c-2.8,2-5.8,2-8.4,0.1
		c-7.9-5.6-10.7-15.6-7-24.6c1.3-3.1,3.8-4.6,7-4.9c0.9-0.1,1.9,0,3,0c0-5,0-9.6,0-14.3c0-4-0.1-8,0-11.9c0.1-3.5,2.3-6.3,5.8-7
		c3.6-0.8,6.9,0.2,9.3,3.1c0.4,0.6,0.8,1.1,1.3,1.8c0.3-0.4,0.6-0.7,0.7-1c1.5-3.3,3.1-6.5,4.5-9.8c0.3-0.8,0.7-1.7,0.7-2.5
		c0.2-2.4-1.4-4.1-3.9-3.8c-0.7,0.1-1.3,0.3-2.1,0.4c-3.9,0.8-7.9-1.3-9.2-5c-2.4-6.9-1.2-13.1,3.8-18.5c3.8-4.1,8.5-6.2,13.7-7.4
		c2.1-0.4,4.3-1.1,6.3-1.8c1.7-0.6,3.1-1.5,4.2-3.1c-2.7-0.2-5.2-0.2-7.5-0.6c-3.8-0.6-6.3-2.8-7.4-6.3c-1.2-3.5,0.1-6.3,2.8-8.5
		c2.4-2,5.1-3.8,7.9-5.3c2.5-1.4,5.3-2.4,7.9-3.8c1-0.4,1.9-1.1,3.2-1.9c-1.1-1.2-2-2.1-2.9-3c-1.5-1.5-3.3-3-4.8-4.5
		c-4.1-4.4-6.3-9.6-5.5-15.7c0.3-3.3,1.8-6.1,4.3-8.3c2.3-1.9,5-2.4,8.1-1.7c-0.2-1.3-0.3-2.5-0.4-3.6c-0.3-4,1-7.4,4.5-9.5
		c3.3-2.1,6.4-1,9.3,1.1c1.9,1.4,3.6,3,5.6,4.5c1.8-1.9,3.4-3.9,5.2-5.6c3.1-3.1,6.4-5.9,9.3-9.1c2-2.1,3.6-4.5,5.2-7
		c1.7-2.8,1.7-5.8,0.1-8.6c-2.5-4.6,0.1-9.7,3.6-11.6c0.7-0.3,1.3-0.7,2.1-1.2c-1.4-0.9-2.7-1.5-3.8-2.3c-4.1-2.9-8.3-5.4-12.1-8.6
		c-6.6-5.8-10.4-13.3-12.9-21.6c-2.5-8.4-3.8-17-5.3-25.7c-1.3-7.4-3.3-14.6-7-21.3c-4.1-7.5-10-13.3-17.9-16.6
		c-1.4-0.6-2.8-1.2-4.1-1.9c-7.1-3.1-10.8-8.6-11.8-16c-0.6-4.4-0.6-9-0.7-13.5c-0.1-3.1,0.1-6.2-0.2-9.3c-0.7-7.1-3.1-13.6-5.8-20
		c-4-9.5-8.3-18.9-9.2-29.4c-0.3-4.1-2.7-6.7-6.4-8.3c-4.3-1.7-8.6-3.5-13.1-5.2c-5-2-10-4-14.6-7c-6.2-4-11.2-9-13.8-15.9
		c-2.1-5.4-1-5.8-8.2-8.6c-6.2-2.4-10.1-7.2-10.9-13.8c-0.4-2.7-0.4-5.4-0.4-8.2c0-3.1-0.9-5.8-2.5-8.2c-1-1.3-1.9-2.8-3.1-4
		c-3.8-4-7.5-8-11.4-11.8c-5.1-5.1-10.1-10.2-15.3-15.2c-3.3-3.1-6.9-5.9-10.5-8.4c-3.5-2.5-7.7-3.5-12.1-3.1
		c-3.3,0.3-6.6,1-9.8,1.7c-5.9,1.3-11.7,2.7-17.8,2.2c-2.3-0.2-4.8-0.6-7.1-1.2c-4.9-1.3-9.2-8.2-4.1-13.7c2.5-2.8,5.2-5.3,8.4-7.3
		c2.8-1.7,5.8-3.2,8.5-4.9c1.4-0.9,2.9-1.8,4-3c1.3-1.3,1.3-2.5,0.1-4c-0.3-0.4-0.9-0.9-1.3-1.3c-10.9-9.6-20.6-20.5-29.4-32
		c-10.1-13.2-18.8-27.2-25.5-42.4c-3.1-7-5.8-14-8.6-21.1c-2.4-6.1-6.1-11.4-11.2-15.6c-4.3-3.5-7.1-8.1-8.6-13.4
		c-0.7-2.2-1.7-4.2-2.5-6.6c-1.4,0.3-2.7,0.6-3.8,0.9c-5,1.5-10,1.8-15.2,0.6c-8.3-2.1-14.9-6.9-20.2-13.3
		c-3.6-4.5-7.1-9.3-10.2-14.3c-5-8.2-11.3-14.9-19.8-19.5c-3.3-1.8-6-4.4-8.1-7.5c-4.1-6-4.8-12.6-3.3-19.6
		c1.7-8,5.5-14.7,10.9-20.6c3.2-3.4,6.7-6.5,10.1-9.8c0.7-0.7,1.7-1.2,1.9-2.5c-1.1,0-2.1,0-3.1,0c-8.3,0-16.6,0.2-25,0
		c-7.6-0.1-15.2-0.6-22.8-0.9c-4-0.2-8-0.6-11.9-0.8c-2.5-0.1-4.6,0.8-6.4,2.5c-1.1,1.1-2.2,2.3-3.3,3.4c-4.3,4.4-9.4,5.3-15,2.5
		c-1.2-0.7-2.4-1.3-3.8-2c-1.3-0.7-2.7-1.4-4-2.1c-5.2-2.3-8.8-1.5-12.9,2.5c-2,2.1-4.3,4-6.7,5.5c-1.8,1.1-3.9,1.8-6,2
		c-3.9,0.6-6.6-1.9-7.1-5.8c0-0.4-0.1-0.8-0.2-1.7c-3.1,3.1-6.6,4.4-10.6,3.6c-4.4-0.9-5.8-4.6-7.3-8.4c-0.9,1.2-1.5,2.3-2.4,3.2
		c-2.5,2.7-4.9,5.3-7.7,7.6c-1.8,1.4-4,2.3-6.2,2.9c-4.9,1.2-8.4-0.9-9.8-5.6c-0.8-2.5-0.9-5.4-1.2-8.1c-0.1-0.6-0.1-1.1-0.2-1.9
		c-2,2.3-3.5,4.3-5.3,6.2c-2.5,2.7-3.6,5.8-4,9.3c-0.2,2.7-0.7,5.3-1.2,7.9c-1.5,7.1-4.8,13.3-10.2,18.2c-2.9,2.7-6.2,4.4-10.3,4.3
		c-3.5-0.1-5.8-2.3-5.4-5.8c0.2-2.1,0.9-4.2,1.8-6.1c4.4-9.2,10.8-16.7,17.8-24c1.9-2,2.1-4,1.9-6.3c-2.5,0.6-4.9,1.4-7.2,1.7
		c-2.7,0.2-4.8-1.3-6.9-3.1c-0.4,1.1-0.8,1.9-1.1,2.7c-2.7,5.5-5.2,11.1-8,16.5c-2.1,3.9-4.6,7.5-8.2,10.4
		c-3.9,3.2-8.6,2.5-11.5-1.7c-0.9-1.3-1.5-3-2-4.5c-0.9-2.9-0.7-6-0.3-9c0.8-6.5,3-12.5,5.4-18.5c0.3-0.8,0.6-1.5,1-2.8
		c-3.1,1.4-5.8,1.9-8.5,1c-1.3-0.4-2.3,0-3.4,0.7c-3.4,1.8-6.9,3.6-10.5,5c-2.1,0.8-3.4,1.8-4.3,3.8c-1.5,3.4-3.5,6.5-6.7,8.6
		c-4.8,3.1-10.4,2.3-13.4-2.2c-1-1.5-1.8-3.5-2.1-5.3c-0.3-1.8-0.1-3.6-0.1-5.9c-0.8,0.7-1.3,1.1-1.9,1.5c-3.1,2.5-6.1,5.1-9.3,7.5
		c-2.4,1.9-5.1,3.3-8.1,3.9c-6.4,1.2-11.8-1.1-14.3-7.5c-0.4-1.2-0.8-2.5-1.2-3.9c-0.4,0.3-0.8,0.6-1.1,0.8
		c-2.7,2.1-5.5,4.2-8.1,6.4c-2.4,2.1-4.8,4.3-6.7,6.6c-1.2,1.3-2,3.1-2.5,4.9c-1.9,5.2-3.5,10.5-5.4,15.8c-1.7,4.6-4.4,8.6-7.9,12.2
		c-3.9,4-8.4,6-14,5.4c-6.1-0.6-9.1-4.5-7.6-10.4c0.6-2.1,1.4-4.2,2.4-6.1c3.1-5.8,7.3-10.6,12.5-14.6c3.6-2.9,7.6-5.4,11.5-8.2
		c0.9-0.6,2-1.2,2.3-2.1C192.7,88.2,193.2,84.8,194,81.6z M190.1,100.1c-1,0.2-1.3,0.2-1.7,0.3c-0.9,0.4-1.9,1-2.8,1.5
		c-6.5,4.5-11.8,10.3-15.8,17.3c-0.8,1.4-1.4,3.1-1.9,4.6c-0.8,2.8,0.3,4,3.2,3.6c3.2-0.4,5.8-2,8-4.4c4.4-4.8,7-10.6,9.1-16.6
		C189,104.6,189.4,102.6,190.1,100.1z M391.7,77.5c0.1,1.3,0.2,2.7,0.4,3.9c0.6,2.4,2,3.1,4,1.5c1.3-1.1,2.4-2.8,3.2-4.4
		c1.7-4,3.1-8.1,4.5-12.1c0.8-2,0.1-3-1.9-3.3c-2.1-0.3-3.8,0.6-5.2,2C393.3,68.6,391.6,72.7,391.7,77.5z M191.9,36.5
		c3,0,3.6,1.5,4.1,3.8c0.8,4.3,2.1,5.1,6.5,4.3c3.1-0.6,5.3-2.3,6.4-5.2c1.7-4-0.4-7.4-4.8-7.7C199.5,31.3,195.6,33.2,191.9,36.5z
		 M269.4,72.9c0.4-4.4-0.2-8.4-2.1-12.1c-1.1-2.1-3.3-2.3-5.1-0.8c-2.2,1.9-2.4,5-0.6,7.6C263.6,70.2,266.3,71.6,269.4,72.9z
		 M257.2,78.8c-0.8,2.1-1,4.3-0.4,6.6c0.7,3.1,3.5,4.4,6.3,2.8c2.3-1.3,3.3-3.6,4-5.8C263.7,81.1,260.7,80,257.2,78.8z M333.7,76.4
		c4.8-0.9,8.3-8.2,6.9-13.8c-2.7-0.1-4.1,1.9-5.2,3.8C333.7,69.5,331.8,72.6,333.7,76.4z M323.6,117.4c5.9-3.8,12.8-14.7,13.1-20.4
		C331.5,103.5,326.6,109.8,323.6,117.4z M294.9,63.4c2.1-3,3.8-5.6,4-8.8c0.1-1.1,0-2.3-0.4-3.4c-0.2-0.7-1.1-1.5-1.9-1.7
		c-0.7-0.1-1.7,0.6-2.1,1.2c-0.6,0.8-0.9,1.8-1.1,2.7C293,56.7,293.2,60,294.9,63.4z M229.2,70.2c1.5,0.3,2.5,0.7,3.5,0.8
		c2.4,0.3,5.3-1.1,6.2-3.2c0.3-0.8,0.4-1.9,0.1-2.4c-0.3-0.6-1.5-1.1-2.2-0.9C233.5,65,230.9,66.7,229.2,70.2z"/>
	<path d="M364.2,53.5c2.3,0,4,1.7,4,4c0,2-2,4.9-4.8,4.8c-2.3-0.1-3.8-1.4-3.6-3.9C359.8,55.4,361.4,53.5,364.2,53.5z"/>
</g>
</svg>
