<?xml version="1.0" encoding="utf-8"?>
<!-- Generator: Adobe Illustrator 23.0.4, SVG Export Plug-In . SVG Version: 6.00 Build 0)  -->
<svg version="1.1" id="Layer_1" xmlns="http://www.w3.org/2000/svg" xmlns:xlink="http://www.w3.org/1999/xlink" x="0px" y="0px"
	 viewBox="0 0 576 576" style="enable-background:new 0 0 576 576;" xml:space="preserve">
<g>
	<path d="M359.4,299.9c1.3,4.7,2.6,9,3.6,13.6c0.4,1.9,0.5,4,0.3,5.9c-0.5,5.3-4.8,7.9-9.7,5.8c-1.8-0.8-3.3-2.2-4.9-3.2
		c-0.5-0.3-1-0.9-1.5-1.4c-0.5,1.5-0.9,3-1.4,4.3c-1.6,3.4-4.7,4.8-8.4,3.6c-1.4-0.5-2.8-1.4-4.1-2.2c-0.8-0.4-1.5-1.1-2.7-1.8
		c-0.3,1.8-0.6,3.4-0.9,5.1c-0.1,1-0.1,2-0.2,3.1c-0.2,3.6,0.3,6.8,2,9.9c1.7,3.2,3.2,6.7,4.6,10.1c1.9,4.5,2.7,9.3,1.7,14.1
		c-0.8,3.9-2.9,6.8-6.5,8.5c-3,1.5-5.6,1-7.4-1.8c-1.3-2-2.4-4.4-3-6.8c-1.8-6.3-1.2-12.8,0.1-19.2c0.3-1.7,0.8-3.3,1.1-5.1
		c0.4-1.6,0.3-3-0.8-4.4c-0.9-1.2-1.6-2.4-2.7-4.2c-0.2,1.2-0.4,1.7-0.5,2.3c-0.3,3.9-1.4,7.4-3.3,10.8c-0.6,1.2-1.5,2.4-2.5,3.3
		c-2.7,2.8-6.2,3.4-9.7,1.7c-1.7-0.9-3.2-1.9-4.6-3.2c-4.6-4.5-7.4-10.1-9.3-16.1c-0.9-2.9-1.4-6-2.2-9c-0.2-0.9-0.3-1.6-0.5-2.8
		c-2.5,1.6-4.7,2.8-6.8,4.3c-2.3,1.7-2.5,3.1-0.9,5.5c1,1.4,2,2.8,3,4.2c1.3,1.7,1.7,3.7,1.6,5.8c-0.2,2.4-1.3,4.3-3.3,5.5
		c-1.7,1.1-2.9,2.6-3.7,4.5c-1.7,4.4-4.2,8.5-7.4,11.9c-2.8,3-3.7,6.2-2.5,10.2c1.4,4.7,0.6,9.6-1.1,14.2c-1,2.8-2.2,5.4-3.4,8.1
		c-2.4,4.8-3,9.8-1.5,15.1c0.9,3.2,1.7,6.5,2.3,9.8c1.1,5.7-0.4,10.9-3.7,15.7c-0.9,1.3-1.7,2.5-2.8,4c0.9,0.4,1.5,1,2.3,1.3
		c2.9,1.5,4.8,4,5.2,7.3c0.3,3.2,0.5,6.6,0.4,9.8c-0.2,7-0.5,13.9-0.9,20.9c-0.1,2.4-0.3,4.6-0.6,6.9c-0.5,3.7-1.9,7.1-4.1,10.2
		c-1.3,1.8-2.6,3.7-3.8,5.6c-1.5,2.5-2.4,5.2-2.8,8c-1.1,6.3-4.2,11.4-9.7,14.8c-3.3,2.2-6.6,4.4-10,6.3c-5.3,2.9-9.6,6.9-13.1,11.8
		c-2.8,3.9-5.7,7.5-8.7,11.2c-5.7,6.7-13,10.3-21.6,11.2c-5.7,0.5-11.4,1.3-17.2,1.6c-5.5,0.3-10.8-0.8-15.8-3.1
		c-2.8-1.3-5.2-3-7.1-5.4c-0.6-0.8-1.3-1.4-1.9-2c-1.4-1.5-3.1-2.4-5.3-2.4c-6.8,0-12-3-16.5-7.9c-3.1-3.4-5.4-7.3-7.2-11.5
		c-1.5-3.6-2.9-7.2-4.1-10.9c-2-6.2-4.5-12.3-8-17.9c-2.9-4.8-3.7-10.1-2.7-15.7c0.6-3.7,0.2-7.2-1.5-10.5c-3.9-7.5-6-15.5-6.6-24
		c-0.2-4.4-2.3-7.9-6.1-9.9c-3.4-1.8-7-3.4-10.5-4.7c-5.3-1.8-7.1-5.9-4.3-10.7c2.3-3.8,4.6-7.5,7.4-10.9c5.7-7,9-15,10.3-23.9
		c0.5-3.3,1.3-6.6,1.9-9.9c0.9-4.3,2.8-8.1,5.5-11.5c1.8-2.4,3.8-4.7,5.6-7.1c4.4-5.7,5.9-12,5.2-19.2c-0.4-3.9-2.5-6.6-6-8
		c-2.3-0.9-4.6-1.5-7-1.9c-4.3-0.8-7.5-2.9-9.9-6.7c-3.4-5.5-8.6-9.3-14.3-12.4c-3.7-1.9-7.2-4.1-10.7-6.3c-1.8-1.2-3.4-2.6-4.9-4.1
		c-4.9-4.7-6-10.7-4.9-17.1c0.3-2,1.7-3.3,3.6-4.1c3.7-1.5,7.5-2,11.3-0.9c3.6,1.2,7,2.4,10.3,4.1c5.8,3,11.8,4,18.2,3.3
		c6.5-0.5,12.9-0.9,19.3-1.5c4.3-0.4,8.5-1,12.8-1.6c1.4-0.2,2.8-0.6,4-2c-0.6-0.2-1.1-0.4-1.6-0.5c-1-0.2-1.9-0.2-2.8-0.5
		c-8.4-2.9-14.3-8.6-17.3-16.9c-2.7-7.4,1.7-13.4,9.6-14.2c4.9-0.4,9.8,0.4,14.6,1.4c6.1,1.2,12.4,2.4,18.6,2.3
		c2.8-0.1,5.5-0.2,8.3-0.5c2.5-0.2,2.7-0.5,2.6-3.1c-0.1-2.4-0.2-4.6-0.1-7c0-1.4,0.2-2.8,0.6-4.1c1.1-3.3,3.8-4.9,7.1-4.5
		c1.4,0.2,2.7,0.5,4,1.1c2.6,1,5.2,2,7.5,3.2c3.9,1.9,8,2.7,12.3,2.5c9.1-0.4,18.2,0.2,27.3,0.9c7.9,0.6,15.6,0.9,23.3-0.8
		c7.2-1.5,10.8-7.1,8.8-14.2c-0.4-1.6-1-3.3-1.5-4.9c-1-3-1.1-6.1-0.2-9.1c1.7-6.8,6.9-11.1,13.9-11.5c2.3-0.1,4.5,0.1,6.7,0.2
		c3.2,0.1,6.6,0.4,9.8,0.3c4.8-0.1,7.6-2.3,8.9-7c1.1-4,1.8-8.1,2.6-12c1.6-8.2,2.9-16.5,5.1-24.5c3-11.4,8.5-21.9,14.2-32.3
		c3.1-5.6,6.5-11,9.7-16.5c1.9-3.3,4-6.7,6-9.9c4-6.5,5.3-13.4,5.1-21c-0.2-6.3-0.2-12.7,0.2-19c0.4-7.2,3.2-13.7,7.4-19.6
		c1.3-1.9,2.8-3.7,4-5.7c2-3.4,3.9-6.9,5.7-10.3c1.3-2.5,2.3-5.2,3.6-7.7c0.8-1.5,1.6-3,2.6-4.4c4.7-6.8,11.3-9.4,19.3-7.5
		c7.6,1.7,14.2,5.4,19,11.6c6.2,8,13.2,15.2,20.3,22.3c1.8,1.8,3.6,3.8,5.3,5.7c4.3,4.9,7.4,10.5,9.5,16.8c0.8,2.3,1.6,4.5,2.6,6.8
		c1.4,3.3,4,5.6,7.3,6.9c4.2,1.6,8.5,2.6,13,3.1c3,0.3,5.8-0.2,8.6-1.1c9.6-3.2,19.4-2.8,29-0.8c5.5,1.2,8,4.5,8.3,10
		c0.1,3.3-0.3,6.6-1.4,9.7c-1.9,6-4.5,11.7-7.7,17.1c-2.7,4.7-5.6,9.3-8.4,13.9c-1.8,3-2.8,6.2-2.6,9.8c0.4,6.5-0.8,12.7-3.6,18.5
		c-3.9,8.1-7.3,16.4-10.2,24.7c-3,8.7-8.9,15.1-17,19.3c-2.8,1.5-5.7,2.8-8.7,3.8c-6.2,2.2-12.5,4.3-18.3,7.5
		c-1.6,0.9-3.2,1.5-4.9,2.3c-1.9,0.8-2.9,2.2-2.9,4.1c0,1.1-0.1,2-0.1,3.1c0,3.4-0.6,6.9-1.9,10.1c-0.5,1.4-1.1,2.7-1.5,4.1
		c-1.1,2.9-1.3,5.8-0.2,8.8c1.1,3.3,1.5,6.9,1.2,10.4c-0.1,1.4-0.4,2.9-1,4.2c-1.1,2.7-3.3,3.6-5.8,2c-1.5-1-2.9-2.2-4-3.6
		c-2.7-3.6-5.2-7.3-7.7-11c-1.9-2.8-3.8-5.6-5.6-8.4c-0.9-1.3-1.8-2.4-2.8-3.7c-0.1,0.1-0.3,0.2-0.4,0.2c0.4,1,0.8,2,1.3,3
		c2.7,5.5,5.5,10.9,8.1,16.5c1,2,1.6,4.2,2.3,6.2c0.2,0.8,0.2,1.5,0,2.3c-0.4,2.3-2.3,3.3-4.4,2.4c-1-0.4-1.7-1.1-2.6-1.7
		c-1-0.8-1.7-1.6-3.1-2.9c0.2,1.1,0.3,1.6,0.4,2c0.9,2.4,1.9,4.6,2.7,7c0.4,1.4,0.6,3,0.4,4.5c-0.3,3-3,4.1-5.5,2.4
		c-1.4-1-2.5-2.3-4.1-3.8c0,1-0.1,1.7,0,2.4c0.4,2.7,0.3,5.4-0.4,8c-1.6,5.6-4.4,7-10.1,4.8C368.2,297.6,365.5,301.1,359.4,299.9z
		 M488.3,93.9c-1.5-0.2-2.7-0.3-3.9-0.5c-6.2-1-12.4-0.8-18.4,1.2c-1.2,0.4-2.5,0.9-3.8,1c-2.5,0.3-4.9,0.8-7.4,0.5
		c-4.5-0.5-9-1.5-13.4-2.4c-9.3-1.9-15.8-7.3-19.3-16.1c-0.8-1.7-1.5-3.4-2-5.3c-2.6-8-7.1-14.6-13.2-20.2
		c-7.1-6.5-13.8-13.6-19.7-21.1c-2.8-3.6-6.5-5.9-10.7-7.3c-4.6-1.5-7.1-0.6-9.4,3.8c-1.4,2.8-2.6,5.6-4,8.4
		c-2.5,5.2-5.1,10.3-8.5,15.1c-5.7,7.6-8.4,16.2-8.1,25.8c0.2,4.9,0.1,10,0.1,15c0,5.5-1.2,10.8-3.9,15.6c-1.9,3.6-3.9,7.1-5.8,10.7
		c-5.1,8.9-10.4,17.6-15.3,26.7c-8.2,15.2-13.2,31.3-15,48.5c-0.4,4.2-1.3,8.5-2.7,12.6c-3.3,10.2-12.2,16.1-22.9,15.5
		c-2.4-0.1-4.7-0.6-7.2-0.8c-2.2-0.1-4.3-0.1-6.3,0.2c-2.6,0.4-3.3,1.7-2.9,4.2c0.3,1.9,0.9,3.9,1.5,5.7c1.2,3.9,1.4,7.7,0.4,11.7
		c-2.2,9.3-7.4,15.6-17.1,17.5c-1,0.2-1.8,0.4-2.8,0.5c-8.6,1.7-17.3,1.4-25.9,0.8c-8.7-0.5-17.5-1.2-26.3-0.9
		c-5.5,0.2-10.8-0.9-15.9-2.9c-0.9-0.3-1.7-0.6-2.8-1c-0.1,0.9-0.1,1.5-0.1,2c-0.2,7.2-3.3,11.3-10.3,13.2
		c-4.6,1.3-9.4,1.7-14.1,1.2c-4.3-0.4-8.5-1.1-12.8-1.7c-3.9-0.5-7.6-1.3-11.5-1.8c-1-0.1-2-0.2-3.1,0.1c3,4.7,4.8,5.8,9.7,6.3
		c0.9,0.1,1.7,0.2,2.6,0.3c8.8,1.2,12.7,9.1,8.3,16.8c-2.7,4.5-6.7,7.3-11.5,9c-3.8,1.4-7.7,1.7-11.6,2c-9.9,0.8-19.7,1.5-29.6,2.4
		c-6.2,0.5-12.2-0.6-17.6-3.8c-2.3-1.3-4.5-2.4-6.9-3.6c-0.6-0.3-1.5-0.9-2.4-0.8c0.2,2,1.8,3,3.1,3.9c1.3,0.9,2.7,1.5,4,2.3
		c4.5,2.6,9.1,5.1,13.7,7.9c4.3,2.6,8,6,10.7,10.3c1.2,1.8,2.7,2.8,4.6,3.3c2.8,0.8,5.6,1.7,8.3,2.7c6.8,2.5,10.8,7.4,12.3,14.4
		c1.3,5.7,1,11.4-0.3,17.1c-1.4,6-4.4,11.2-8.6,15.6c-3.9,4.2-6.7,8.9-8,14.5c-0.5,2.2-0.9,4.4-1.2,6.6c-1.3,10-4.8,19.2-11.1,27.1
		c-1.5,1.9-2.9,4.1-4.4,6.2c1,0.6,1.8,1.1,2.6,1.6c2,1.3,4.2,2.4,6.1,3.8c5.9,4.1,9.4,9.8,10.2,16.9c0.2,1.7,0.2,3.4,0.4,5.2
		c0.6,5.9,2.7,11.5,5.4,16.9c2.4,4.7,3.4,9.8,2.5,15.1c-0.8,4-0.1,7.5,1.9,10.9c3.6,6,6.2,12.5,8.2,19.2c0.9,3,2,5.8,3.1,8.7
		c1.4,3.4,3.3,6.6,5.9,9.3c2.4,2.4,5.3,3.8,8.7,3.8c5.5,0.1,10,2.3,13.2,6.8c1.6,2.3,3.8,3.7,6.5,4.5c3.1,1,6.3,1.5,9.7,1.2
		c5.2-0.5,10.2-1.1,15.4-1.9c6.1-1,11.2-4,15-8.8c2.2-2.7,4.2-5.5,6.1-8.3c4-5.9,9-10.5,15.2-14.1c2.8-1.6,5.6-3.4,8.4-5.1
		c4.4-2.5,7-6.2,7.7-11.3c0.6-4.3,2.5-8.1,4.9-11.5c0.9-1.3,1.8-2.5,2.7-3.8c1.8-2.6,2.7-5.5,2.8-8.7c0.2-8.8,0.4-17.8,0.8-26.6
		c0.1-2-0.5-3.6-2.3-4.8c-5.4-3.9-6.7-10.9-3.1-16.5c0.6-1,1.3-2,2-3c2.3-3.1,2.9-6.6,1.8-10.2c-0.6-2.5-1.2-5.1-1.8-7.5
		c-1.8-7.6-1-14.7,2.8-21.7c1.5-2.8,2.6-6,3.4-9.1c1.1-3.4,0-6.9-0.6-10.2c-0.9-4.5,0.3-8.5,2.8-12.3c1.5-2.3,3.3-4.4,4.7-6.8
		c2.8-4.4,5.4-8.9,8-13.3c-1-1.4-1.7-2.4-2.5-3.4c-2-3.2-2.5-6.7-1.3-10.3c2.2-6.9,6.8-11.2,13.4-13.6c2-0.6,4.2-1.2,6.2-1.6
		c1.1-0.2,1.7-0.8,2.2-1.8c1.1-2.7,2.2-5.4,3.4-8.1c1.2-2.6,3.3-4.4,5.9-5.5c5.2-2.2,10.2,0.2,11.9,5.6c2.2,6.6-3.1,14.8-9.7,15.1
		c-0.9,0-1.7,0.2-2.6,0.4c-2.2,0.4-2.6,1.1-2.3,3.2c1.3,8,3.9,15.5,8.4,22.3c1.1,1.5,2.4,3,3.8,4.2c2.5,2,4.2,1.6,5.8-1.2
		c0.2-0.3,0.3-0.6,0.4-1c1.7-4.2,2.4-8.6,1.4-13.1c-0.5-2.3-1.1-4.5-1.3-6.9c-0.2-2.2,0.9-3.2,3.1-2.9c1.8,0.2,3.1,1.3,4.1,2.8
		c1.5,2.4,2.9,4.6,4.4,7c0.3,0.4,0.8,0.8,1.4,1.4c0.4-5.7,2-11,0.2-16.2c-0.6-2,1.4-5.5,3.4-6.5c1.5-0.6,2.7-0.1,4.5,2.5
		c0.2,0.3,0.5,0.6,0.8,1.1c1.8,2.4,3.7,4.8,5.5,7.1c0.6,0.9,1.5,1.4,2.4,2.2c0.2,0,0.4,0,0.6-0.3c-0.1-1-0.1-1.9-0.3-2.9
		c-0.2-1-0.8-1.9-1.2-2.9c-1.7-4-3.4-7.9-5.3-11.8c-1-2.2-0.9-4.2,0.5-6c1.2-1.6,2.6-1.7,3.8-0.1c1,1.2,1.6,2.5,2.5,3.7
		c3.6,5.1,7.1,10.1,10.8,15.2c1.1,1.5,2.5,2.9,4.3,3.2c1.3-0.8,1.4-1.8,1.2-3c-0.4-1.6-0.6-3.2-1.2-4.7c-2.5-6.7-4.8-13.4-7.5-20
		c-2.7-6.5-0.9-14.3,4.6-18.6c3.7-2.9,7.6-2.4,10.3,1.4c1,1.4,1.7,2.9,2.7,4.4c1.3,2.2,2.5,4.3,3.9,6.5c0.6,1,1.3,2,2.8,1.9
		c1.1-1,1.2-2.2,1.3-3.6c0.1-4.4-0.8-8.7-2-12.9c-0.3-1.1-0.5-2.2-0.5-3.2c0.1-1.6,1.4-3,3-3.4c1.6-0.4,2.6,0.5,3.4,1.7
		c0.8,1.1,1.3,2.3,2,3.2c0.3,0.4,0.6,0.8,1.1,1.1c0-1.1-0.3-1.8-0.6-2.6c-1.3-2.8-2.7-5.6-4-8.4c-0.5-1.1-1-2.3-1.3-3.3
		c-0.3-1.3-0.5-2.6,0.8-3.6c1.3-1,2.6-1,3.9-0.1c1.4,1,2.7,2.2,4,3.2c0.8,0.6,1.5,1.4,2.3,2c-0.2-1.5-0.9-2.6-1.5-3.7
		c-1.5-3-3.1-5.9-4.6-8.9c-1.3-2.8-2.2-5.8-2.4-8.9c-0.2-2.7,1-4.5,3.1-5.7c2.2-1.3,4.3-1.1,6.2,0.4c2.6,1.8,4.4,4.3,6,7
		c2.2,3.8,4.2,7.6,6.5,11.5c1.3,2.2,2.7,4.2,4.1,6.2c0.3,0.4,0.8,1.1,1.5,1.4c0.1-0.8,0.1-1.2,0.1-1.6c-1-6.7-2-13.2-6.1-18.9
		c-1.7-2.4-1.8-5.1-0.2-7.7c0.6-1.2,1-2.6,1.2-3.9c0.4-2.4,0.5-4.7,0.9-7.2c0.9-5.5,4-8.9,9.5-10.3c1.8-0.4,3.6-1.2,5.3-1.9
		c3.7-1.5,7.2-3.2,10.9-4.7c3.6-1.4,7.2-2.7,11-3.9c7.7-2.5,12.8-7.7,15.5-15.4c0.4-1.2,0.9-2.5,1.2-3.7c1.7-6,4.1-11.8,7.1-17.4
		c3.2-5.9,4.8-12,4.3-18.8c-0.4-4.9,0.6-9.6,3.7-13.7c0.9-1.1,1.5-2.3,2.3-3.4c4.4-6.9,8.6-13.9,11.7-21.5
		C486.3,99.6,487.2,96.8,488.3,93.9z M328.6,371.7c0.1,0.1,0.3,0,0.4,0c2.2-1.6,3.3-3.7,3.3-6.2c0.1-6.9-2-13.1-5.9-18.8
		c0,0-0.1-0.2-0.4-0.1c-0.2,0.5-0.4,1.2-0.5,1.8c-0.3,2-0.6,4.1-0.9,6.1c-0.4,4.7-0.1,9.5,1.6,14
		C326.7,369.6,327.2,370.9,328.6,371.7z M293.6,310c2,0,3.8,0.1,5.4,0c3-0.2,5.2-2.4,5.6-5.5c0.3-2.2-1.1-4.7-3-5.5
		c-1.6-0.6-3.3-0.1-4.9,1.8C294.6,303.2,293.6,306.2,293.6,310z M364,293.9c0.2,0.1,0.4,0.1,0.5-0.1c1.3-1.4,1.4-2.9,0.8-4.4
		c-1.4-3.7-2.9-7.3-4.4-11c-0.2-0.4-0.3-1-0.9-1.2c-2.7,1.7-3.1,2.6-3.1,5.3C357,287.7,359.8,291.1,364,293.9z"/>
</g>
</svg>
