<?xml version="1.0" encoding="utf-8"?>
<!-- Generator: Adobe Illustrator 23.0.4, SVG Export Plug-In . SVG Version: 6.00 Build 0)  -->
<svg version="1.1" id="Layer_1" xmlns="http://www.w3.org/2000/svg" xmlns:xlink="http://www.w3.org/1999/xlink" x="0px" y="0px"
	 viewBox="0 0 1008 1008" style="enable-background:new 0 0 1008 1008;" xml:space="preserve">
<g>
	<path d="M843.6,556.2c3.9,0,7.2,0.1,10.6-0.1c1,0,1.9-0.8,2.9-1.3c3.7-2.2,7.2-4.6,11-6.6c2.8-1.4,5.9-2.4,8.9-3.3
		c1.2-0.3,2.8-0.1,4.1,0.3c1.7,0.6,2.6,2,2.3,3.8c-0.3,2.6-1.1,5-3.3,6.5c-2,1.3-4.2,2.8-6.5,3.6c-3.3,1.1-6.9,1.8-10.4,2.7
		c-1.4,0.3-3,0.7-4.3,1.3c-6.8,4.1-13.7,8.4-19.4,14.1c-0.9,0.9-1.7,1.9-2.3,2.9c-1.1,1.9-0.6,2.9,1.6,3c1.7,0.1,3.5,0,5-0.3
		c7.6-1.7,14.9-4.1,21.8-7.6c6.3-3.1,12.2-2.2,17.7,2c0.9,0.7,1.7,1.6,2.2,2.6c2.1,3.6,1.4,7-2.1,9.6c-2.1,1.6-4.2,2.9-6.3,4.5
		c-1,0.8-2,1.4-2.9,2.3c-0.7,0.6-1,1.3-1.9,2.4c1.6,0.1,2.6,0.3,3.6,0.2c4.2-0.6,8.5-1.4,12-3.9c0.7-0.4,1.4-0.7,2.2-0.8
		c2-0.3,3.7,0.4,4.5,2.1c0.7,1.4,0.3,3.3-0.9,4.7c-1.7,1.7-3.3,3.2-5,4.9c-0.7,0.7-1.2,1.3-1.9,2.1c0.1,0.2,0.2,0.3,0.4,0.6
		c1.7-1.1,3.3-2.1,5-3.2c1.4-1,2.7-2.1,4.1-3c1.9-1.2,3.8-0.9,5.2,0.8c1.3,1.4,1.4,3,0,4.8c-1.2,1.6-2.6,2.9-3.9,4.3
		c-2.3,2.4-4.8,4.7-6.1,8.2c0.8,0,1.3,0.1,1.9,0c3.6-1.2,6.6-3.6,9.6-5.7c0.8-0.6,0.7-1.3,0.7-2.1c0-3.6,1.3-6.6,4-9
		c1.9-1.7,4.1-2.4,6.6-2.3c2.3,0.1,3.5,1.4,3.6,3.8c0,2.1-0.8,3.8-2.1,5.3c-1.6,1.9-3.2,3.7-4.9,5.6c1.9,2.1,5.1,2.7,8,1.2
		c4-2,8.2-2.2,12.5-0.9c2.6,0.8,4.9,2.2,6.7,4.2c2.4,2.8,2.6,5.8,0.3,8.7c-1,1.2-2.1,2.3-3.3,3.3c-1.8,1.4-3.8,2.7-5.7,4
		c-1.2,1-2.6,1.9-3.1,3.6c0.8,0.8,1.8,0.7,2.8,0.6c4.3-0.4,8.6-1.6,12.4-3.8c1-0.6,2.1-1,3.2-1.1c1.6-0.2,2.8,0.7,3.5,2
		c0.8,1.3,0.6,2.8-0.4,4c-0.4,0.6-1,1-1.6,1.4c-1.4,1.3-3,2.6-4.3,3.9c-0.9,0.9-1.7,2.1-2.3,3c0.7,1.8,2.1,2.1,3.3,2
		c1.8,0,3.6-0.1,5.2-0.6c3.1-0.8,6.5-1.3,9.1-3.5c0.3-0.2,0.8-0.4,1.2-0.6c1.9-0.6,3.7,0.1,4.6,1.8c0.9,1.6,0.8,3.1-0.8,4.6
		c-1.4,1.4-3.1,2.7-4.6,4c-0.9,0.8-1.7,1.6-2.3,2.6c-1.2,1.8-1,2.8,1.2,3.2c1.3,0.3,2.9,0.3,4.2,0.1c2.9-0.6,5.7-1.4,8.5-2.2
		c1.2-0.3,2.3-0.8,3.6-1.2c2.2-0.8,4.6-0.8,6.8-0.1c5.2,1.4,8,5.9,6.3,11c-0.8,2.3-2,4.6-3.3,6.6c-4.7,7-10.9,12.6-17.5,17.8
		c-8.4,6.7-17.5,12.2-27.3,16.7c-14.3,6.6-28.3,13.5-43.1,18.6c-6.8,2.3-13.7,4.5-20.6,6.7c-13.3,4.2-23.7,12.4-32.1,23.4
		c-1.6,2.1-2.8,4.6-4,6.9c-1.9,3.5-3.5,7.1-5.6,10.4c-4.8,7-11.6,10.6-20,10.8c-10.6,0.2-20.3-2.6-28.7-9c-4.2-3.1-7.3-7.1-10-11.7
		c-3-5-3.3-10.4-2.9-16c1.2-14.4,1.4-28.8,0.4-43.2c-0.9-12.5-2.6-24.8-6.5-36.7c-2-6.1-4.9-11.9-9.8-16.4c-1.7-1.6-3.6-3-5.6-4.1
		c-5.8-3.2-8.6-8.4-9.7-14.6c-1.7-9.7,1.1-18,8.6-24.5c3.9-3.5,8.4-6.3,12.7-9.2c4.2-2.9,8.6-5.8,12.2-9.4c7.5-7.2,9.7-16,7.2-25.9
		c-1-4-2.4-7.8-3.7-11.7c-1.6-4.9-2.7-9.9-2-15.3c1.4-10.5,8.5-17.7,18.9-19c6-0.8,12-1.4,18-2.3c1.6-0.2,3.1-0.8,4.7-1.2
		c9.4-2.6,18.8-3.9,28.5-2.9c2.7,0.2,5.5,0.9,8.1,1.6c3.9,1.1,6.9,3.7,8.9,7.1c3,5,1.4,9.8-1.3,14.4c-2.3,3.7-5.5,6.8-8.8,9.7
		c-2.3,2-4.9,3.9-7.3,5.8C844.8,555.1,844.5,555.4,843.6,556.2z M844.6,562.6c0-0.1-0.1-0.3-0.1-0.4c-1.4,0-3,0.2-4.5,0
		c-2.9-0.4-5.3,0.6-7.7,2.2c-4.5,3.3-9.2,6-14.4,8.1c-3.1,1.2-6.2,2-9.7,1.4c-3.1-0.6-5.3-2.3-6.6-5.2c-0.9-2.2-0.8-4.5,1-6.1
		c1.4-1.3,3.1-2.7,4.9-3.6c4.3-2,9.1-3.6,13.9-3.2c5.2,0.3,9.2-1.3,13.1-4.6c5.1-4.3,10.6-8.1,15.7-12.5c2.2-1.9,4.2-4.3,5.9-6.9
		c2.3-3.6,1.6-5.9-2.4-7.1c-2.2-0.7-4.7-1.1-7-1.1c-7-0.2-13.6,1.3-19,6.1c-1.9,1.7-3.7,3.3-5.5,5.1c-2.3,2.2-5,3.7-8.4,3.8
		c-4.2,0.1-8.4,0.2-12.6,0.4c-1.7,0.1-3.3,0.1-5,0.4c-2.4,0.4-3.9,2-4.1,4.6c-0.1,1-0.2,2,0,2.9c0.8,2.9,1.6,5.9,2.8,8.6
		c4,9.2,5,18.7,3.2,28.5c-1.7,9.5-5.9,17.8-13.6,23.8c-6.2,4.9-12.7,9.5-19.2,14c-1.6,1.1-3.1,2-4.6,3.2c-1.2,1-2.2,2.2-3.1,3.6
		c-1.2,2-1.1,4.2-0.8,6.5c0.3,2,1.9,2.7,3.2,3.6c3.3,2.2,6.6,4.6,9.2,7.6c5.6,6.2,9.2,13.5,11.9,21.3c5.6,16.5,7.6,33.6,7.7,51
		c0.1,11.8-0.3,23.7-0.9,35.5c-0.2,5,1.6,8.6,5.1,11.7c5.8,5,12.6,6.7,20,6.7c0.8,0,1.6-0.3,2.2-0.8c2.4-1.4,4.1-3.5,5.5-6.1
		c1.8-3.7,3.5-7.5,5.7-10.8c10.9-16.1,25.5-27.5,44.2-33.6c7.9-2.6,15.8-4.9,23.6-7.7c13-4.7,25.4-11,38-16.9
		c7.7-3.6,15-7.8,21.6-13.1c4.1-3.3,7.9-7.1,11.8-10.8c1.3-1.2,2-2.8,2.1-4.7c-2.8,0.4-5.5,0.9-8,1.2c-2.9,0.3-5.7-0.1-8.4-1.4
		c-3.5-1.7-4.7-4.6-3.7-8.2c0.2-0.8,0.4-1.4,0.8-2.6c-1.2,0.1-2.3,0.2-3.3,0.2c-2.9,0.2-5.9,0.1-8.6-1.2c-3.7-1.8-5-4.7-3.9-8.6
		c0.2-0.7,0.4-1.3,0.8-2.3c-1.2,0.1-2.3,0.2-3.3,0.4c-2.6,0.4-5,0-7.3-0.9c-3.6-1.4-5.2-4.5-3.9-7.9c0-0.1-0.1-0.3-0.2-0.4
		c-3-0.7-5.8-1.8-7.1-4.9c-1.3-3.1,0-6,1.3-8.9c-1.3-0.4-2.6-0.7-3.7-1.2c-1.1-0.6-2.1-1.3-3.1-1.9c-3.1,1.9-6.2,3.9-9.2,5.8
		c-1.9,1.1-3.9,1.7-6.1,1.8c-3.2,0.1-5.5-1.3-6.6-4.5c-0.7-2-0.7-4,0-6c0.2-0.8,0.4-1.4,0.8-2.3c-2.7-0.2-5.1-0.8-6.3-3.5
		c-1.1-2.4-0.2-4.8,0.3-7c-2.1,0-4.1,0.1-6,0c-6-0.4-8.5-3.3-7.7-9.4c-2.4-0.3-4.6-1.3-6.2-3.1c-1.8-1.9-1.2-4.5-1.6-6.9
		c-1,0.3-1.9,0.6-2.7,0.9c-4.2,1.6-8.7,2.8-13.1,3.3c-2.9,0.3-5.7,0.3-8.5-0.8c-2.6-1-4-2.9-4.3-5.6c-0.4-2.9,0.1-5.6,1.9-7.8
		c1.8-2.2,3.8-4.3,5.9-6.1C839.3,566.2,842.1,564.5,844.6,562.6z M865,589.6c1.4,0,2.3,0.2,3.1,0c4.1-1.4,7.7-3.9,11.4-6.2
		c-2-1.9-2.7-2.1-4.7-1.8C870.2,582.2,867.4,585.1,865,589.6z M919,631.2c2.9,0.8,10.6-2.8,13.7-6.2
		C928.8,621.6,921.4,624.8,919,631.2z M877.2,549.4c-3.8,0.7-10.4,4.3-12.4,6.8C870.3,556.2,875,553.5,877.2,549.4z M819.2,561.9
		c-4.9-0.8-9.4,1-11.1,4.7C812.3,566,815.4,563.9,819.2,561.9z"/>
	<path d="M677.9,446.1c-4.2,0-8.1,0.1-12,0c-3.7-0.1-7.3-0.1-10.9-0.7c-7.1-1.2-12.7-5.1-16.6-11.1c-6.3-9.8-8.5-20.5-5.9-32
		c0.9-4,2.6-7.6,5.5-10.6c6.1-6.6,13.7-7.9,22-5.6c6.8,1.9,11.9,6.2,16.1,11.7c1.2,1.6,2.4,3.2,3.9,5.2c2.3-1.3,4.6-2.3,6.6-3.7
		c4.2-2.7,8.6-5,13.5-6.3c10-2.8,18.8-0.4,26.4,6.7c3.9,3.7,6.8,8.2,9.8,12.6c1.3,1.9,2.7,3.8,4,5.7c3.1,4.3,7.2,6.2,12.7,6
		c3.1-0.1,6.5,0.1,9.6,0.7c7.6,1.3,14,7.3,14.3,17.3c0.3,11.8-4.9,21.4-14.3,28.4c-4.6,3.5-10,4.6-15.7,3.9c-3.6-0.4-7.1-1.2-10.7-2
		c-2.9-0.7-5.7-0.2-8.4,0.8c-1.8,0.7-3.5,1.4-5.1,2.2c-10.8,4.7-21.6,4.6-32.5,0.6c-5.6-2.1-9-6.1-10.9-11.6
		c-1.4-4.1-1.6-8.4-1.3-12.7C677.7,449.7,677.8,448.1,677.9,446.1z M694.5,449.9c-0.1,0-0.1,0-0.2,0c0,2.2-0.1,4.5,0,6.7
		c0.1,2.4,0.9,3.5,3.1,4c5.6,1.7,11.2,1.8,16.8-0.1c3.2-1.1,6.5-2.4,9.7-3.7c5.5-2,10.9-2.3,16.5-0.6c2.2,0.7,4.5,1.2,6.8,1.4
		c1.7,0.1,3.8,0,5.1-0.9c4.3-2.9,6.8-7.2,7.7-12.4c0.3-2.1-0.6-3.3-2.7-3.7c-1.8-0.3-3.6-0.2-5.3-0.2c-7.6,0.2-14.4-1.7-20.2-6.8
		c-4-3.6-7-8-10-12.4c-2-2.8-3.9-5.8-6.2-8.2c-4.2-4.6-8.4-5.2-14-2.7c-2.7,1.2-5.2,2.7-7.8,4c-3,1.4-6,3.1-9.1,4.3
		c-7.2,2.7-12.1,1.2-17-4.7c-0.4-0.6-0.9-1.1-1.3-1.7c-2.2-2.4-4.3-4.9-6.8-7.2c-1.2-1.2-2.8-2.1-4.5-2.9c-2.1-1-3.8-0.3-5,1.7
		c-0.4,0.7-0.8,1.4-1,2.2c-1.8,6.9-0.7,13.3,3.5,19c1.6,2.2,3.9,3.6,6.6,4.1c3.9,0.8,7.8,0.4,11.7,0.2c3.6-0.2,7.1-0.6,10.7-0.2
		c7.6,0.6,12.7,6,13.1,12.5C694.6,444.3,694.5,447.1,694.5,449.9z"/>
	<path d="M372.8,278.4c3.2-0.2,6.5-0.2,9.5-0.9c7-1.4,12.6-5.2,16.5-11.4c1.3-2,2.4-4.1,3.9-6c1.6-2,3.1-3.9,5-5.5
		c6.1-5.1,14.4-4.5,19.6,1.7c1.8,2.1,3.3,4.5,4.3,7c5,11.6,11.6,22.3,18.4,32.8c1.1,1.7,2.1,2.8,4.5,2.6c5.2-0.4,9.2,2.2,12.2,6.3
		c2.2,3.1,3.6,6.6,4.3,10.2c1.3,5.9,3.3,11.5,7.1,16.3c1.1,1.3,2.3,2.7,3.5,4c2.8,3.2,3.1,7.2,0.9,10.9c-3.5,5.6-8.7,8.5-15,8.8
		c-4.1,0.2-8.4-0.4-12.5-0.7c-2.8-0.1-5.7-0.3-8.5-0.1c-6.7,0.7-12.9-0.2-18.6-4.1c-4-2.8-8.6-3.3-13.3-2.2c-3.8,0.9-7.6,2.1-11.4,3
		c-1.7,0.4-3.5,0.8-5.2,0.9c-5.2,0.2-9.2-2-11.4-6.9c-2.2-5.1-5.3-9.6-8.7-14c-8.1-10.8-15.3-22.4-21-34.6c-1.2-2.6-2.1-5-2.1-7.9
		c-0.1-3.9,1.8-6.6,5-8.5s6.8-2.1,10.4-2.1c0.9,0,1.8,0.1,2.7,0.1C372.8,278.1,372.8,278.3,372.8,278.4z M416.4,270.2
		c-9.2,16-22.6,24.6-41.2,24.8c0.4,1.1,0.8,1.9,1.2,2.7c2.6,4.3,4.9,8.7,7.6,12.8c3.2,4.8,6.7,9.5,10,14.1c2.2,3.1,4.3,6.2,6.5,9.4
		c3.7-0.9,7.3-1.8,11-2.6c9.4-2,18.3-1.2,25.9,5.2c2.1,1.8,4.6,2,7,1.4c4.6-1.1,9.1-0.8,13.8,0c1.2,0.2,2.6,0.3,4.3,0.7
		c-4.8-6.9-6.9-14.3-8.8-21.7c-0.1-0.7-0.6-1.2-0.8-1.8c-0.7,0-1.1-0.1-1.6,0c-4,0.7-7.3-0.8-10.2-3.6c-1.4-1.3-2.7-2.9-3.8-4.5
		c-7.6-10.8-14.6-21.9-19.8-34.1C417.6,272.4,417,271.6,416.4,270.2z"/>
	<path d="M596.4,397c-7.5-0.2-14.7-1.9-21.7-4.1c-4-1.3-8.1-2.8-12.4-3.2c-4-0.6-8.1,0-12.2,0.2c-4.6,0.2-9.2,0.7-13.8,0.7
		c-4.8,0-9.5-0.8-13.6-3.2c-1.7-1-3.2-2.2-4.5-3.7c-1.8-2-2.1-4.5-1.7-7c1.8-8.5,3.5-16.9,5.2-25.3c0.3-1.8,0.9-3.7,1.7-5.3
		c1.9-4.3,5.3-6.5,10-6.7c3.5-0.1,6.7,1,9.9,1.9c8.9,2.6,17.8,5,26.7,7.3c4.3,1.1,8.5,0.7,12-2.3c0.4-0.3,0.9-0.6,1.3-0.9
		c4.5-2.9,8.9-2.8,13.3,0.1c0.1,0.1,0.3,0.2,0.4,0.3c3.8,3.3,8.4,3.7,13,3c4.1-0.6,8.2-1.2,12.5-1.7c5.3-0.6,10.7-0.7,15.9,0.8
		c4.7,1.3,8.6,3.8,11,8.1c2.1,3.9,2.3,7.9,0.4,12c-1.4,3.1-3.6,5.8-6.1,8c-10.6,9.5-22.5,16.5-36.5,19.5
		C603.9,396.3,600.1,396.5,596.4,397z M534.3,373.8c2.2,0,3.8,0.1,5.3,0c4.8-0.3,9.6-0.9,14.4-1.2c5.2-0.4,10.5-0.2,15.6,1.2
		c5.2,1.4,10.4,3.1,15.6,4.7c6.2,1.9,12.6,2,19,0.6c10.4-2.3,19.3-7.7,27.5-14.3c0.2-0.2,0.3-0.6,0.6-1c-2.9,0-5.5-0.2-8,0
		c-5.3,0.6-10.8,1.4-16.1,1.8c-5.8,0.3-11.4-0.3-16.3-3.9c-0.4-0.3-0.9-0.4-1.3-0.7c-2.8,1.9-5.7,3.2-8.8,3.9
		c-5.7,1.3-11.4,1-16.9-0.3c-7.3-1.8-14.6-3.9-21.8-5.9c-1.6-0.4-3-0.7-4.7-1C536.8,363,535.6,368.1,534.3,373.8z"/>
	<path d="M147.8,160.8c3.6-3.3,7.8-5.2,12.7-5.8c3.3-0.3,6.6,0.1,9.8,0.9c7.2,1.8,13.7,4.9,18.9,10.4c6.2,6.5,8.1,14,5.1,22.6
		c-1,2.9-2.3,5.8-3.7,8.6c-1.8,4-2.9,8.1-2.9,12.6c-0.2,9.6-4.2,17.7-10.5,24.7c-1.8,2-3.8,4-6,5.7c-3.3,2.6-7.1,3.6-11.2,2.6
		c-5.7-1.3-11.2-2.4-16.9-3.7c-2.1-0.4-4.1-1-6.1-1.7c-6.3-2.1-11.2-6-14-12.2c-0.3-0.7-0.7-1.2-1-1.9c-1.4-2.9-3.6-4.7-6.7-5.6
		c-9.5-2.8-14.6-9.5-16.5-18.8c-1.9-9.2,2.8-19.5,10.9-24.4c1.4-0.9,3.1-1.3,4.7-1.9c1.6-0.6,3.3-0.8,4.9-1.2
		c2.4-0.7,4.3-1.9,5.8-3.9c3.3-4.8,8-7.5,13.7-8.5C141.8,158.9,143.8,159.2,147.8,160.8z M162.7,225.6c4.9-4.7,8.9-10.1,8.4-17.8
		c-0.1-1,0-2,0-2.9c0-3.5,0.7-6.7,2-9.8c1-2.2,2.1-4.5,3.2-6.8c0.6-1.3,1.2-2.6,1.7-3.9c1.1-3.1,0.2-5.9-2.4-7.8
		c-2.2-1.4-4.6-2.7-7-3.7c-3.9-1.7-7.3-1.4-10.8,1.8c-4.3,4.1-9.8,4.7-15.5,2.7c-2.4-0.9-2.9-0.8-4.6,1.1c-0.4,0.4-0.8,1-1.1,1.4
		c-3,4-7,6.5-11.9,7.6c-1.3,0.3-2.8,0.6-4.1,1c-3.3,1-5.3,3.3-5.6,6.5c-0.2,2.9,1.6,5.7,4.7,7.1c1.2,0.6,2.4,1,3.7,1.4
		c5.1,1.9,9,5.1,11.6,10c0.8,1.6,1.7,3.1,2.7,4.6c1.6,2.4,3.9,4.1,6.8,4.8c1.8,0.3,3.7,0.7,5.5,1
		C154.1,224.4,158.1,224.9,162.7,225.6z"/>
	<path d="M47,196c2.8,0.1,5.6,0.2,8.2,0.4c6.2,0.7,10,4.2,12,9.9c3.8,10.8,0.1,25.1-8.7,32.4c-2.7,2.2-5.6,4.2-8.7,5.8
		c-4.9,2.6-9.1,5.8-12.2,10.4c-1.9,2.7-4.2,4.8-7,6.5c-2,1.2-4.1,2-6.6,2.1c-4.6,0.2-7.8-1.9-10.1-5.7c-1.3-2.2-2-4.8-2.1-7.3
		c-0.3-8.5,0.4-16.9,2.9-25.1c1.9-6.7,5.8-12.2,10.6-17c3.5-3.6,7.2-6.9,10.8-10.4c1.7-1.7,3.7-2.3,6.1-2c1.6,0.2,3.2,0.2,4.8,0.2
		C47,196.1,47,196,47,196z M29.4,238c0.4-0.2,0.8-0.2,0.9-0.3c3.1-3,6.9-5,10.6-7.1c1.8-1,3.6-2,5.2-3.1c2.7-1.8,4.5-4.3,5-7.6
		c0.4-2.2,0.4-4.6,0.6-6.8c-2.7-1-6.2-0.9-7.6,0.3c-3.9,3.5-7.7,6.9-10.6,11.2C31,228.6,29.8,233.1,29.4,238z"/>
	<path d="M586.9,405.3c8.9-0.1,17,2.3,24.3,7.6c3.7,2.7,7.2,5.6,10.5,8.7c3.5,3.2,5.7,7.2,5.5,12.4c-0.2,4.8-2.2,8.5-6.5,10.7
		c-2.4,1.3-5.2,2.3-7.9,3.1c-4,1.1-7.7,2.9-11,5.3c-3,2.1-5.9,4.2-8.9,6.3c-2.1,1.4-4.5,2.2-7,2c-5-0.2-9.1-4.3-9.6-9.8
		c-0.2-2.2,0.1-4.5,0.3-6.7c0.1-0.9,0.3-1.7-0.6-2.3c-5.9-4.7-7.3-11.6-8.8-18.4c-0.7-3.2-1.2-6.5-1.2-9.7c0-4,2-6.2,5.9-7.2
		C576.9,406,581.9,405.3,586.9,405.3z M584.3,422.2c0.4,1.7,0.9,3.2,1.2,4.8c0.3,1.1,0.9,2,2,2.6c2.3,1.2,3.9,3.2,5,5.7
		c0.3,0.8,0.7,1.6,1,2.2c4.6-2.1,8.9-4.1,13.5-6.1C601,424.8,593.6,421.3,584.3,422.2z"/>
	<path d="M653.8,500.2c-3.1,0-6.2,0.1-9.4,0c-2-0.1-4.1-0.4-6-1c-5.1-1.6-7.9-5.1-8.6-10.5c-0.1-1.4-0.2-2.9,0.1-4.2
		c1-4.5,2-9,3.5-13.4c2.9-8.8,9.5-13.1,18.5-13.5c5.5-0.2,10.8,0.2,16.3,0.7c4.1,0.3,6.9,2.6,8,6.7c1.3,5.2,2.9,10.5,4,15.7
		c0.4,2,0.4,4.2,0.2,6.3c-0.4,4.6-2.7,8-6.5,10.5c-3.2,2.1-6.8,3.1-10.6,3.2c-3.2,0.1-6.3,0-9.6,0
		C653.8,500.5,653.8,500.3,653.8,500.2z M664,483.4c-0.9-3-1.9-6-2.9-9.2c-2.8,0-5.6-0.1-8.2,0.1c-1,0.1-2.4,0.7-2.9,1.4
		c-1.4,2.2-2,4.8-1.9,7.8C653.4,483.4,658.5,483.4,664,483.4z"/>
	<path d="M952.6,637.9c-2.2,0-3.9-1.8-3.9-3.9c0.1-2.1,2.2-4,4.6-4c2.1,0,4,1.9,3.9,3.9C957.1,636,955.1,637.9,952.6,637.9z"/>
	<path d="M967.7,649.7c-2.2-0.1-3.9-1.8-3.8-3.9c0.1-2.1,2.3-4.1,4.6-4c2.1,0.1,4,2,3.8,4C972.1,647.9,970,649.7,967.7,649.7z"/>
</g>
</svg>
