<?xml version="1.0" encoding="utf-8"?>
<!-- Generator: Adobe Illustrator 23.0.4, SVG Export Plug-In . SVG Version: 6.00 Build 0)  -->
<svg version="1.1" id="Layer_1" xmlns="http://www.w3.org/2000/svg" xmlns:xlink="http://www.w3.org/1999/xlink" x="0px" y="0px"
	 viewBox="0 0 1008 1008" style="enable-background:new 0 0 1008 1008;" xml:space="preserve">
<g>
	<path d="M538.4,482.7c1-3,1.8-6,3-8.8c2.2-5.4,6.3-7.9,12.6-7.7c6,0.2,10.1,3.7,11.7,9.3c0.2,0.9,0.4,1.8,0.8,2.7
		c0.4,1.4,1.4,2.3,2.8,2.8c5.3,2.1,6.3,3.2,7.4,9c0.5,0.2,1.2,0.3,1.8,0.5c3.9,1.4,6.3,5.5,5.3,9.5c-1.9,7.5-0.9,14.6,2.2,21.6
		c3.8,8.7,9,16.6,14.7,24.2c1.2,1.5,2.7,3,4.4,4c6.3,3.7,8.1,9.3,7.6,16.1c-0.1,1.5-0.3,3.1-0.4,4.7c-0.3,2.9-1.6,5.2-3.9,7.3
		c1.3,2.7,2.7,5.2,4.9,7.4c1-0.5,1.7-1,2.6-1.4c3.8-2.1,7.7-2.3,11.4,0c2.9,1.8,5.8,3.8,8.6,5.8c2.4,1.8,4.2,4.3,5.5,7.1
		c2.5,5.5,5,11,7.1,16.7c2.6,6.6,3.2,13.4,1.4,20.4c-0.8,2.8-0.6,2.8,2.9,4.9c0.5-1.9,1.1-3.8,1.5-5.6c1.3-5,4.2-7.4,9.3-6.9
		c9.5,0.6,19.2,1.2,28.7,2.9c0.4,0.1,0.9,0,1.4,0c0.2-1.2,0.5-2.4,0.6-3.5c0.3-2.4,1.3-4.2,3.2-5.7c0.8-0.5,1.5-1.2,2.2-1.8
		c3.7-4.3,8.4-5.5,13.9-4.7c3.2,0.5,6.3,1.8,9,3.9c0.1,0.1,0.3,0.2,0.4,0.3c1.9,1.8,3.9,2.1,6.4,1c2.5-1,5.1-1.6,7.7-2.1
		c2.5-0.3,5-0.3,7.5-0.1c3,0.3,5.8,1.5,8.3,3.9c0.8-0.5,1.4-1.1,2.1-1.6c2.5-2.2,5.3-3.2,8.6-3.4c2.9-0.2,5.8-0.4,8.9-0.5
		c0.3-2.8,0.8-5.5,1.1-8.2c0.8-5.5,3.5-9.7,8.6-12.2c0.9-0.4,1.8-1.1,2.5-1.8c2.3-2.8,8.7-3.1,11.7,0.3c2.1,2.3,4.1,4.5,6.2,6.7
		c2.6,2.8,5.2,5.5,7.8,8.3c2.7,2.9,4.5,6.2,4,10.3c-0.1,1,0.3,1.6,1,2.3c1.8,1.6,3.6,3.2,5.5,4.8c5.7,4.5,8,10.5,8,17.8
		c-0.1,49.5-0.1,99-0.2,148.4c0,1.2,0,2.4,0.1,3.7c0.2,2.2-0.2,4.1-1.5,5.8c-0.6,0.9-0.6,1.6-0.2,2.6c1.2,2.3,1.4,4.8,1,7.4
		c-0.2,1.1-0.1,2.3-0.1,3.4c0,43,0,86,0,128.9c0,1.1,0,2.3-0.1,3.4c-0.5,3.9-3.5,6.8-7.3,6.8c-6.8,0.1-13.6,0.2-20.6,0
		c-3.6-0.1-6.2-2.1-7.5-5.4c-0.2,0.1-0.5,0.1-0.5,0.2c-2.4,3.5-5.8,4.8-9.9,4.8c-0.6,0-1.4,0-2.1,0c-41.2,0-82.3,0-123.5,0.1
		c-21.6,0-43.1,0.1-64.8,0.1c-7.8,0-15.6,0.2-23.4,0.1c-7.4-0.1-14.7-0.4-22.1-0.8c-1.2-0.1-1.8,0.3-2.5,1.3
		c-1.3,2.2-2.7,4.2-4.3,6.2c-1.7,2.2-3.9,3.7-6.5,4.5c-4.1,1.4-8.2,0.2-11-3c-0.4-0.5-0.9-1.1-1.4-1.8c-0.4,1.1-0.9,1.8-1.2,2.7
		c-2.8,6.3-5.8,12.6-10,18.2c-1.5,1.9-3.2,3.8-5.1,5.5c-1,0.9-2.3,1.5-3.6,2.1c-2.9,1.1-5.4,0.2-7.3-2.3c-1.6-2.3-2.2-4.9-2.6-7.6
		c-1-6-0.6-11.9,0.3-17.9c0.5-3.6,1.3-7.1,2.2-11.3c-0.9,1.2-1.4,1.8-1.9,2.6c-2.3,3-4.5,6.1-6.9,9.1c-0.9,1.1-1.8,2.1-2.9,2.9
		c-3,2.3-6.5,1.3-7.6-2.4c-0.4-1.4-0.4-3-0.5-4.7c-0.1-1.2,0-2.4,0-3.9c-0.8,0.9-1.4,1.4-1.9,2.1c-2.2,2.4-4.5,4.4-7.5,6.1
		c-1.9,1.1-4.1,1.7-6.4,1.8c-4.5,0.2-7.3-1.9-8-6.3c-0.1-0.3-0.1-0.6-0.2-1.3c-2.8,1.8-5.7,2.8-9.1,2.5c-3.5-0.3-5.6-2.4-7.5-5.3
		c-0.5,1-1,1.7-1.4,2.5c-1.7,3.1-3.6,6.2-6.3,8.6c-2.3,2.1-4.8,3.7-8,4c-4.4,0.4-8-1.6-10.5-5.1c-1.7-2.5-2.8-5.3-4.1-8
		c-0.4-1-0.6-2.2-1-3.2c-3.2,0.8-6.4,1.7-9.6,2.2c-3.2,0.5-6.4-0.1-9.2-2.2c-0.9,0.9-1.6,1.6-2.5,2.4c-3.2,3.1-6.7,6-10.8,8
		c-4.5,2.2-9.2,2.8-14.1,1c-1.2-0.4-1.9-0.1-2.8,0.5c-3,1.9-6.1,4.1-9.3,5.6c-15.7,7.4-30.2,1.6-38.3-13c-0.4-0.9-0.9-1.7-1.3-2.6
		c-9.7,1.2-19.5,1.3-29.3,1.5c-4.4,0.1-8.9-3.1-8.9-8.4c0-0.5,0-1.1,0-1.5c0-59.7,0-119.3-0.1-179c0-15.8,0-31.7-0.1-47.5
		c0-2.4,0.5-4.5,1.6-6.7c4.9-10.1,8.1-20.6,8.6-31.8c0.1-2.9-0.2-5.8-0.4-8.8c0-0.5-0.3-1.1-0.5-1.7c-1.5-0.5-2.8,0.2-4,0.6
		c-3,1-6.1,2.2-9.1,2.8c-2.5,0.5-5.2,0.5-7.7,0.3c-5.6-0.8-8.9-4.3-9.5-10.1c-0.9-6.9-0.1-13.6,1.3-20.4
		c2.8-13.3,8.8-25.2,16.5-36.4c4.9-7.1,10.3-14,16.2-20.3c0.6-0.6,1.2-1.3,1.7-1.9c4.1-4.1,6-9.2,6.3-14.9c0.3-4.4,0.6-8.8,1.3-13.2
		c1.8-11.7,6.2-22.5,11.7-32.9c3-5.6,6-11.4,8.7-17.1c2.8-6,4.8-12.2,4.9-19c0.1-6.6-2.3-12.2-7.4-16.6c-3-2.6-6.4-4.8-9.6-7
		c-4-2.9-8.1-5.6-11.9-8.8c-4.1-3.4-7.3-7.6-9.2-12.7c-1.5-4.1-1.7-8.2-1.3-12.6c0.2-2.2,0.5-4.3,0.8-6.5c0.5-5.2-0.3-10.2-1.6-15.2
		c-1.5-5.6-3-11.4-4.1-17.1c-0.5-2.8-0.6-5.8-0.5-8.8c0.9-19.6,0.6-39.3,0.5-59c-0.1-11-0.3-22-0.3-33c0-86.1,0-172.2,0-258.3
		c0-1.8,0.2-3.7,0.5-5.4c0.9-3.7,3.5-5.7,7.3-6c1,0,1.9,0,2.8,0c27.6,0,55.2,0,83,0c1.1,0,2.3,0,3.4,0.1c3.6,0.3,6.4,2.7,7,6.2
		c0.2,1.3,0.3,2.7,0.3,4.1c0,44.3,0,88.6,0,132.8c0,2.5,0.3,4.8,1.2,7.1c2.2,6.6,5.4,12.8,9.5,18.3c2.9,3.9,6.2,7.5,10.5,10
		c6.6,3.8,10.3,9.5,11.8,16.9c0.3,1.7,0.8,3.4,1.3,5c1.2,3.5,1.2,6.8-1.6,9.7c1.5,1.7,2.8,3.5,4.2,5c2.8,3,3.5,6.5,2.2,10.4
		c-0.1,0.2-0.1,0.5-0.1,0.9c3.1,2.2,5.5,5.1,7,8.9c1.2,0.2,2.5,0.3,3.8,0.5c3.2,0.5,6.5,1.4,9.2,3.2c1.5,1,2.8,2.5,4,3.9
		c0.9,1.1,1.4,2.4,1.8,3.7c1.8,5,5.1,9,9.2,12.3c2.9,2.4,5.7,4.8,8.6,7.3c2.6,2.3,4.3,5.1,5.7,8.2c0.5,1.2,1.1,2.4,1.6,3.6
		c1.1,2.3,2.7,4.2,4.9,5.6c1.7,1.2,3.5,2.4,5,3.7c3.5,2.9,5.7,6.5,5.7,11.2c0,1.9,0.9,3,2.6,3.7c5.7,2.2,11.5,4.4,17.2,6.4
		c5.2,1.7,7,3.8,7.6,9.2c0.1,0.6,0.2,1.3,0.3,2.3c2.7,0,5.4,0,8,0c3.1,0,6.3-0.1,9.3,0.1c4.4,0.2,7.7,3.7,7.8,8.1
		c0.1,6.1,0,12.1,0,18.2c0,2.9-1.4,5.1-3.5,6.9c0.2,0.8,0.4,1.4,0.5,2.1c0.6,2.5,0.4,5-0.9,7.3c-0.3,0.5-0.5,1.1-1,1.5
		c-2.9,3.6-4,7.6-3.7,12.1c0.2,3.1-0.5,6.1-2.9,8.6c0.4,1.2,0.9,2.4,1.4,3.6c2.1,5,1.2,8-3.6,10.9c-0.2,0.1-0.4,0.3-0.9,0.5
		c0.8,3.5,1.7,7.1,0.2,10.8c0.4,0.4,0.9,0.9,1.3,1.2c3.6,2.2,5.2,5.5,5.4,9.5c0.3,4.5,0.4,9.2,0.4,13.8c0,3.1-1.8,5.3-4.4,6.8
		c-1.1,0.6-2.4,1.1-3.5,1.6c-0.6,0.3-1.4,0.8-1.9,1.2c-1.8,1.4-1.8,2.4-0.4,4.3c1.2,1.6,2.4,3.2,3,5.1c1.7,4.5,0.9,8.7-2.8,12
		c-0.5,0.4-1,1-1.6,1.5c1.6,3.1,4,5.6,6.5,8c1.9-2.2,3.6-4.4,5.6-6.2c2.1-1.7,4.4-3,6.8-4.2C533,484.2,535.7,483.5,538.4,482.7z
		 M593.5,563.1c-2.9-3.5-6-6.6-8.4-10.1c-4.9-6.6-9-13.5-12.7-20.9c-3-6.3-5.2-12.8-6.1-19.7c-0.2-1.8-0.2-3.8-0.4-5.6
		c-9.5-1-11.5-6.1-9.5-13.4c-0.9-1.1-1.6-2.1-2.6-3.2c-1,5.8-4.3,8-9.5,8.1c-1.7,0-3.4,0.5-5.1,1c-3,0.8-5.5,2.5-7,5.3
		c-0.6,1.2-1.4,2.4-2.3,3.5c-2.5,3.2-5.6,5.3-9.9,5.4c-3.4,0.1-6.3-1-9-2.8c-4.8-3.2-8.9-7.3-12.1-11.9c-1.9-2.8-3.6-6-4.5-9.3
		c-1.3-4.9-1.1-9.4,3-13.1c0.1,0,0.1-0.1,0.2-0.4c-2.9-4.7-3-9.6-1.3-14.8c1.7-5.3,5.7-8.7,10.4-11.5c-0.1-1.2-0.2-2.2-0.2-3.2
		c0-1.3-0.4-2.2-1.4-3.1c-2.3-2.2-4.3-4.5-6.3-6.9c-2.5-3.1-2.4-7.1,0.3-10.2c1-1.1,1.1-1.9,0.6-3.2c-1.3-3.7-2.6-7.4-3.9-11
		c-1.4-4.2,0.1-7.8,4-9.9c0.6-0.3,1.4-0.6,1.6-0.8c1.1-2.1,1.9-3.7,2.9-5.3c0.9-1.3,1.4-2.5,1.3-4c-0.3-4.2,0.8-8,2.9-11.7
		c0.3-0.5,0.6-1.2,0.8-1.5c-1.3-2.4-2.7-4.4-3.6-6.6c-1.6-4.3,0.1-8.3,4.2-10.5c1.2-0.5,2.4-1.1,3.5-1.6c0-1.4,0-2.6,0-4.1
		c-1.3,0-2.5,0-3.6,0c-4.1,0.1-8.1,0.3-12.2,0.5c-3.4,0.2-5.6-1.4-7.1-4.2c-0.5-1.2-0.9-2.4-1.1-3.7c-0.3-1.8-0.5-3.7-0.8-5.6
		c-1-0.4-1.9-0.8-2.8-1.1c-5.2-2.1-10.4-4.1-15.6-6.4c-1.8-0.8-3.6-1.8-5.2-2.9c-3.2-2.3-5-5.4-4.9-9.5c0-0.8-0.1-1.6,0.1-2.4
		c0.3-1.4-0.3-2.3-1.5-2.9c-1.1-0.5-2.2-1.2-3.1-1.8c-4.4-2.9-7.7-6.7-9.3-11.8c-1.4-4.2-3.9-7.5-7.6-9.9c-0.3-0.2-0.5-0.4-0.9-0.6
		c-7-5.2-12.9-11.4-16-19.7c-0.3-1-1.1-1.5-2.1-1.7c-2.9-0.8-5.8-1.4-8.8-2.2c-4-1-7-2.9-7.9-7.3c-0.4-2.2-1.8-3.5-3.8-4.3
		c-1.6-0.6-3.2-1.2-4.9-1.8c-3.8-1.4-7-3.6-9.7-6.7c-3-3.6-2.9-10.1,2.2-12.8c0.3-0.2,0.6-0.4,1.1-0.8c-1.3-1.5-2.6-2.9-3.7-4.3
		c-3.1-4.2-2.4-9.3,1.9-12.2c0.4-0.3,1-0.6,1.4-1c-0.6-4.2-0.6-4.2-4-6.5c-0.8-0.4-1.4-1-2.1-1.5c-11.9-9.4-19.7-21.7-24.7-35.8
		c-1.4-4-2.1-8.1-2.1-12.5c0.1-41,0-82.1,0-123.2c0-1.1,0-2.2,0-3.4c-23.9,0-47.5,0-71.4,0c0,1.4,0,2.6,0,3.8
		c0,64.9-0.1,129.7-0.1,194.7c0,6-0.1,11.9-0.1,18c0.1,27.2,0.2,54.4,0.2,81.5c0,15.2-0.1,30.3-0.1,45.5c0,2.7,0.1,5.5,0.6,8.2
		c1,5.3,2.3,10.6,3.6,15.9c1.6,6.7,3,13.3,1.7,20.3c-0.2,1.4-0.3,2.9-0.6,4.3c-1.1,5.8,1.1,10.6,5.6,14.2c2.6,2.1,5.5,3.9,8.2,5.8
		c5.2,3.6,10.5,7,14.9,11.6c5,5.1,8.2,11,9.5,18.1c1.2,6.1,1,12-0.1,18.1c-1.4,7.1-4.1,14-7.3,20.5c-3.8,7.7-7.7,15.3-11.4,23.1
		c-2.5,5.2-4.4,10.7-5.2,16.6c-0.8,5.4-1.3,10.8-1.9,16.2c-0.9,7.3-3.4,14-8,19.7c-2.6,3.1-5.3,6.2-8,9.2
		c-6.2,6.6-11.4,14-15.8,21.8c-4.5,8.1-7.9,16.7-9.4,26c-0.3,2.1-0.8,4.2-0.4,6.4c3.4-1,6.4-2.1,9.6-2.8c9.1-1.9,17.3,2.7,20.3,11.6
		c1.3,4,1.7,8.1,1.5,12.3c-0.5,13.3-3.2,26.2-8.8,38.4c-1,2.2-1.3,4.2-1.3,6.5c0,28.7,0,57.4,0.1,86c0,42.7,0,85.2,0,127.9
		c0,1,0,2.1,0,3c0.5,0.2,0.8,0.3,1,0.3c7.5,0.5,14.8,0.8,22.3,0.2c6.5-0.4,13-0.4,19.5,0.1c2.6,0.2,4,1.8,3.9,4.2
		c-0.1,2.4-1.6,3.8-4.2,3.8c-3,0-6.1,0-9.1,0c-1.4,0-2.7,0.2-4.3,0.3c0.6,1.7,1.2,3.1,1.8,4.5c3.1,7,10.8,12,18.2,11.7
		c6.4-0.3,11.7-3.4,16.9-6.9c-2.9-4.1-4.4-8.4-5.5-13c-1.2-5.7-1.6-11.5-1.8-17.3c-0.6-17.7,3.1-34.2,11-49.9
		c1.7-3.5,3.7-6.6,6.4-9.4c2.4-2.5,5.1-4.4,8.4-5.4c6.6-1.8,12,0.8,14.3,7.3c0.9,2.4,1.3,4.9,1.6,7.4c0.9,8.4-0.3,16.8-2.4,25
		c-3.1,12.5-6.6,24.9-10,37.4c-1.5,5.6-3.7,11-7.5,15.6c-0.1,0.2-0.2,0.4-0.4,1.1c1.2-0.2,2.1-0.2,2.9-0.6c1.9-1,4-1.8,5.6-3.1
		c2.9-2.5,5.4-5.3,8.1-8c1.1-1,1.5-2.2,1.7-3.6c1.1-5.1,3.5-9.6,7.4-13.1c3.4-2.9,7-3.9,11.3-2.2c0.3,0.1,0.6,0.1,1.1,0.2
		c0.1-0.6,0.2-1.1,0.3-1.6c1.2-6.7,2.6-13.4,5.1-19.8c1.7-4.4,4-8.7,7.5-12.1c1.5-1.5,3.2-2.8,5.2-3.8c3.4-1.6,6.7-1.2,9.4,1.4
		c1.3,1.2,2.3,2.9,2.9,4.5c1.8,4.3,1.6,8.8,0.9,13.3c-1.2,6.8-3.9,13.1-7.4,19.1c-3.8,6.6-7.8,13.1-13.5,18.3
		c-0.4,0.4-0.8,1.4-0.8,2.1c0,3.2,0.5,6.4,1.9,9.3c0.9,1.8,2.3,3.5,3.7,5c1.3,1.4,2.6,1.4,4.2,0.3c0.9-0.5,1.7-1.2,2.3-2.1
		c1.5-2.2,3.2-4.3,4.3-6.7c2.2-4.7,4.2-9.5,6.1-14.3c3.4-8.7,10.9-14.3,20.3-14.6c3.1-0.1,6.3,0.3,8.9,2.4c3.6,2.8,3.8,5.7,0.4,8.9
		c2.2,1.7,1.8,3.8,1,6.1c-1.3,3.1-2.3,6.4-3.4,9.5c-0.4,1.4-0.6,2.9-0.6,4.3c0,1.8,0.9,2.4,2.5,1.5c1.5-0.8,3.1-1.7,4.2-3
		c3.2-3.7,6.3-7.6,9.4-11.4c0.5-0.6,0.8-1.7,1-2.6c2.8-11.9,6.3-23.6,11.4-34.8c2.3-5,4.9-9.9,8.4-14c1.4-1.5,3-2.9,4.8-3.9
		c2.7-1.5,5.6-1.9,8.3-0.1c2.7,1.8,2.9,4.8,2.5,7.7c-0.8,5.2-2.4,10.1-4.8,14.7c-3.6,7.1-7.4,14.2-11.3,21.1
		c-2.6,4.7-5.5,9-8.2,13.5c-1.5,2.5-2.5,5.6-2.3,7.4c3-3.4,6.2-6.9,9.5-10.3c1.2-1.2,2.7-2.2,4.2-2.8c2.4-1,4.3,0.2,4.7,2.8
		c0.2,1.6,0.1,3.2-0.1,4.9c-0.6,5.4-1.7,10.8-2.2,16.2c-0.5,5.7-0.6,11.6-0.9,17.3c0,1.1,0,2.2,1.1,3.2c0.8-0.9,1.6-1.5,2.2-2.4
		c1.5-2.2,3-4.4,4.3-6.8c4.2-7.7,7.8-15.6,10.6-23.9c0.5-1.7,1.2-3.5,1.9-5.1c0.8-1.4,0.6-2.7,0.1-4.2c-1.5-4.2-1.7-8.4,0.9-12.5
		c3.2-5.2,9.6-7.9,15.8-6.6c5.7,1.2,10.2,6,10.8,12.1c0.3,3.2,0.1,6.6,0,9.9c0,0.9,0,1.7,0,3.1c2.1-0.9,3.8-1.5,5.4-2.3
		c8.8-3.9,18-6.3,27.6-6.3c14.5,0,29.1-0.1,43.6-0.1c50,0,100,0,150-0.1c1,0,1.8,0,3,0c0.2-0.9,0.4-1.7,0.6-2.6
		c0.5-1.8,0.9-3.7,1.5-5.5c2.3-6.1,8.6-9.6,14.9-8.8c6.9,1.1,11.2,5.2,13,11.8c0.4,1.5,0.5,3.2,0.9,4.9c0,0.2,0.2,0.4,0.5,0.8
		c0.6-0.1,1.4-0.1,2.3-0.2c0-1,0-1.7,0-2.5c0-41.2,0-82.3,0-123.5c0-1.4-0.3-2.7-1-4c-2.4-4.1-4.8-8.2-7.1-12.3
		c-1.5-2.6-3.1-5-4.4-7.7c-2.4-4.8-0.1-9.9,5-11.4c2.1-0.6,4.1-0.5,6.1,0.3c0.6,0.2,1.2,0.4,2.1,0.8c0-1.3,0-2.4,0-3.4
		c0-40.4,0-80.8,0-121.1c0-3.2,0.3-6.4,0.4-9.6c0.1-1.3-0.2-2.4-1.2-3.2c-2.8-2.6-5.5-5.2-8.3-7.8c-3.2-2.9-5.2-6.4-5-10.9
		c0-0.8-0.1-1.8-0.6-2.4c-2.3-2.6-4.8-5.2-7.6-8.1c-0.2,1.7-0.4,2.9-0.5,4.2c-0.3,3-0.3,6.1-0.9,9.1c-0.9,5.3-3.7,7.7-9,7.9
		c-2.8,0.1-5.7,0.5-8.6,0.3c-4.7-0.3-8.1,1.2-11.5,4.5c-5,4.9-12,4-16.4-1.5c-0.4-0.5-1-1.2-1.5-1.9c-2.5,0.5-5,1.1-7.4,1.6
		c-1.8,0.4-3.7,1-5.5,1.2c-4.4,0.6-8.6-0.6-12.3-3c-1.5-1-2.9-2.1-5.1-2.3c-0.1,1-0.2,1.7-0.4,2.6c-0.4,2.1-0.8,4.1-1.5,6.1
		c-2.1,5.4-5.6,7.7-11.4,7.7c-1.3,0-2.6,0-3.9-0.3c-6.8-1.5-13.9-2.1-20.8-2.8c-1.4-0.1-2.9,0-4.2,0c-1.7,4.4-3.2,8.9-5.1,13.2
		c-1.2,3-3.9,4.4-7,4.2c-2.1-0.2-4.1-0.9-5.7-2.2c-3.1-2.5-6.4-4.9-9.4-7.4c-1.9-1.6-3.9-3.5-5.6-5.3c-2.2-2.3-3.1-5-2.8-8.1
		c0.2-1.8,0.3-3.8,0.9-5.6c1.3-4.8,0.8-9.4-1.2-14c-1.7-4.3-3.6-8.7-5.4-13c-1.1-2.7-3.1-4.4-5.7-5.6c-1.1,0.8-2.1,1.5-2.9,2.3
		c-3.6,2.7-6.7,2.8-10.5,0.4c-5-3.1-9-7.5-11.8-12.6c-2.4-4.4-4.4-9-6.4-13.6C586.9,569.3,587.7,567.1,593.5,563.1z M373.7,876.5
		c-3.4-0.2-5.8,1-7.9,3.5c-1.1,1.3-2.1,2.6-2.7,4.1c-3.5,7.7-6.3,15.6-7.3,24c-1.3,10.8-0.9,21.7,0.5,32.4c0.2,1.6,0.6,3.2,0.9,5
		c1-0.9,1.6-1.8,2.1-2.8c1.3-3.5,2.7-6.9,3.7-10.5c2.3-8.4,4.2-17,6.5-25.4c1.8-7.1,3.7-14.3,4.2-21.7
		C373.9,882.3,373.7,879.5,373.7,876.5z M409,935.7c0.2,0.1,0.5,0.2,0.8,0.3c1.5-2.2,3.1-4.2,4.7-6.5c5-7.6,8.9-15.7,10.7-24.6
		c0.6-2.9,1.1-6,0.2-9c-0.3-1.1-0.4-2.6-1.7-2.6c-1,0-2.1,0.8-2.8,1.5c-0.9,0.9-1.5,1.9-2.1,2.9c-0.9,1.5-1.5,3.1-2.3,4.7
		c-3.1,7.5-5.1,15.3-6.2,23.3C409.9,928.9,409.4,932.3,409,935.7z M455.8,932.1c-2.9-1.2-5-1.1-7.1,0.5c-1.3,1.1-2.6,2.3-3.6,3.7
		c-2.9,4-3.4,8.7-2.9,13.4c0.2,1.7,1.2,2.3,2.8,1.3c1.2-0.8,2.4-1.7,3.1-2.9C451.1,943.1,453.3,937.6,455.8,932.1z M399.5,943.3
		c-0.2-3.6-0.3-6.8-0.5-10c-0.1-1.3-0.9-1.8-2.2-1.5c-0.8,0.2-1.6,0.6-2.3,1.2c-2.9,2.4-4.8,5.4-5.4,9.2c-0.4,2.7,1,4,3.6,3.4
		C394.9,945,397.1,944.1,399.5,943.3z M538.6,941.8c0.3-3.8,0.2-7.1-0.8-10.4c-0.1-0.5-0.4-1.2-0.8-1.6c-1-1.6-2.6-1.9-4.2-0.9
		c-2.4,1.5-3,5-1.3,7.6C533.2,938.9,535.6,940.4,538.6,941.8z M525.6,948.1c-0.2,2.1-0.5,4.1-0.5,6c0.1,3.5,3.1,5,6.1,3.2
		c1.9-1.2,3-2.9,3.7-4.9C531.9,951,529.1,949.7,525.6,948.1z M504.5,893.7c-3.5,2.9-11,21-11.8,27.4c4.3-8.2,8.4-15.9,11.2-24.4
		C504.2,895.8,504.3,894.7,504.5,893.7z"/>
</g>
</svg>
