<?xml version="1.0" encoding="utf-8"?>
<!-- Generator: Adobe Illustrator 23.0.4, SVG Export Plug-In . SVG Version: 6.00 Build 0)  -->
<svg version="1.1" id="Layer_1" xmlns="http://www.w3.org/2000/svg" xmlns:xlink="http://www.w3.org/1999/xlink" x="0px" y="0px"
	 viewBox="0 0 1008 1008" style="enable-background:new 0 0 1008 1008;" xml:space="preserve">
<g>
	<path d="M539.9,90.5c0.4-0.7,0.8-1.4,1.2-2.1c3.1-6.6,6.3-13.4,9.6-19.9c2-4,4.4-7.6,6.8-11.4c0.9-1.5,2.2-2.7,3.7-3.8
		c4.5-3.3,10.5-1.3,11.9,4.2c1,4,0.8,8,0.3,11.9c-1.3,9.7-4.3,19-7,28.5c-1,3.7-2,7.2-3,10.9c-0.2,0.9-0.4,1.9-0.6,3.3
		c0.7-0.5,1.2-0.7,1.5-1.2c1-1.2,2.2-2.3,3.1-3.6c6.3-8.1,11.4-17,15.5-26.3c0.5-1.3,0.6-2.2,0.1-3.6c-4.3-10.6,3.6-17.6,10.9-18.4
		c6.2-0.7,11.8,2.8,13.9,9.1c0.6,1.8,0.8,3.8,0.9,5.7c0.2,2.2,0,4.4,0,6.5c0,2.3,0.4,2.6,2.7,2.2c0.9-0.2,2-0.5,2.8-0.9
		c2.5-1.3,5-2.3,6.9-4.4c1.2-1.3,3.1-1.3,4.7-0.5c1.6,0.8,2,2.2,1.8,3.9c-0.4,2.7-1.2,5.4-1.5,8.2c-0.3,2.1-0.4,4.3-0.2,6.5
		c0.2,2.3,1.3,3.1,3.6,2.7c1.5-0.3,2.9-0.9,4.1-1.8c1.6-1.2,3.1-2.6,4.3-4.2c2.9-3.8,5.7-7.6,8.5-11.5c-1.2-2.8-2.2-5.5-1.9-8.4
		c0.3-2.3,0.6-4.7,1.6-6.8c2-4.9,8-7.1,12.9-5.1c3.8,1.6,5.1,5.2,3,8.6c-1.3,2-2.6,1.9-3.8,0c-0.3-0.5-0.8-0.9-1.3-1.4
		c-0.5,0.5-1.5,1-1.7,1.7c-0.3,1-0.3,2.2-0.1,3.2c1,5.5,4.3,9.8,8,14.2c0.9-0.7,1.7-1.4,2.4-2c8-7.4,17.5-11.3,28.2-12.6
		c7.4-0.8,13.2,5,12.2,12.6c-0.5,4.2-1.6,8.2-2.4,12.3c-2,9.4-3.7,18.9-3.2,28.6c0.2,4.2,0.8,8.4,2.6,12.2c1.2,2.6,2.6,5,4.2,7.4
		c1.3,2,2.8,3.8,4.3,5.7c4.4,5.4,7.7,11.5,10.3,18c3.1,8.2,6.3,16.2,9.7,24.3c3.7,8.9,4.9,18,4.1,27.5c-0.8,9.6-0.7,19.3-0.6,28.9
		c0,1.4,0.1,2.7,0.1,4c0,93.6,0,187.2,0,280.8c0,13.1,0,26.2,0,39.1c0,6.9-1.5,13.6-2.5,20.4c-0.6,4.1-1.2,8.2-1.7,12.1
		c-0.4,4,0.4,7.8,1.2,11.7c0.7,3.6,1.4,7,0.9,10.7c-0.7,5.5-3.2,9.9-7.5,13.4c-0.8,0.7-1.8,1.4-2.6,2c-2.2,1.8-2.6,4-1.8,6.5
		c1,3,2.8,5.4,4.9,7.7c2,2.2,4.2,4.4,6.2,6.6c4.9,5.3,7.8,11.5,8.8,18.7c0.7,6,0,11.8-1.5,17.7c-2.1,8-5.3,15.3-9.1,22.5
		c-7.3,13.8-14.8,27.6-22.2,41.3c-1.6,2.9-3.5,5.8-5.3,8.5c-2.6,3.8-6,6.7-10.2,8.8c-2.9,1.5-5.8,3-8.7,4.5
		c-7.6,3.7-11.1,9.8-11,18.2c0,4.5,0.2,9,0.6,13.5c0.6,8.2-0.4,15.9-4,22.7c3.6,6.1,4.1,12.6,2.3,19.4c-0.7,2.9-2.2,5.7-4,8.1
		c-1.4,2-2.9,3.9-4.3,6c-1.2,1.8-2.2,3.8-3.1,5.8c-0.6,1.4-0.6,2.9-0.1,4.4c0.5,1.6,0.9,1.9,2.5,1.6c2.6-0.4,4.6,0.5,6.4,2.2
		c3.6,3.1,4.7,8.6,2.9,13.4c-2,5.1-5.8,8.6-10.6,10.9c-4.3,2-8.8,3.1-13.4,4.1c-5.5,1-11.1,1.9-16.5,3c-5.5,1.2-10.8,3.1-15.2,6.9
		c-2.2,1.9-4.1,4-5.3,6.6c-1.9,3.8-1.9,7.5,0.5,11.2c1.3,2,2.5,4,3.5,6.1c3.2,7.3,0.8,14.5-6.2,18.4c-5,2.8-10.6,3.3-16.1,2.1
		c-4.4-0.9-8.7-2.4-12.9-4c-4.8-1.8-9.5-4.1-14.4-5.9c-3.2-1.2-6.7-2.1-10.2-2.6c-6.5-1-12.5,0.7-17.6,5c-2.9,2.5-4.3,5.5-3.5,9.6
		c0.5,2.5,0.6,5.1,0.7,7.7c0.1,7.3-7.3,14-15.4,11.5c-2.5-0.7-4.9-2.1-7.4-3.2c0,0-0.2,0.1-0.3,0.3c-2.7,3.9-8.3,4-11.6,1
		c-2.9-2.5-5.8-5.1-8.2-8.1c-6.8-8.2-10.8-17.7-12.7-28c-2-10.7-1.7-21.5-1.3-32.3c0.3-8.6,0.6-17.1-0.2-25.6
		c-0.9-9.4-3.9-18-10-25.2c-5.7-6.6-11.5-12.9-18.2-18.3c-3-2.4-6.5-4.5-9.8-6.4c-3.6-2-7.5-2.9-11.6-2.8c-4.7,0.1-7.4-3.2-8.2-6.7
		c-0.2-1.3-0.4-2.5-0.7-3.7c-0.9-3.2-2.8-6-5.4-8c-3.8-2.9-7.7-5.5-11.6-8.3c-4-2.8-8.2-5.3-11.9-8.4c-2.8-2.3-5.4-5-7.7-7.8
		c-6.2-7.5-8.6-16.3-7.8-26.1c0.5-8.1,2.8-15.8,5-23.5c5-17.7,10-35.4,15-53.2c0.8-2.9,1.5-5.9,1.8-8.8c0.8-7.8-2.9-12.6-11.4-14.4
		c-4.1-0.9-8-0.2-11.8,1.3c-3.8,1.4-7.3,3.3-10.5,5.9c-3.1,2.4-6.3,5-9.3,7.6c-0.7,0.6-1.5,1.4-2.3,1.9c-3.5,2.4-7.5,2.1-10.5-0.8
		c-4-3.9-6.6-8.6-8.5-13.8c-2.1-6-3-12.1-3.5-18.4c-0.5-6.3-0.8-12.6-1.4-18.7c-0.8-9.7-5.1-17.8-12.1-24.4
		c-6.1-5.8-12.2-11.4-18.7-16.6c-16.7-13.7-31.8-29-44.6-46.5c-10.4-14.1-18.6-29.4-23.9-46.2c-3.1-9.9-4.8-20.2-4.7-30.7
		c0.2-11.3,3-21.7,10-30.7c1.6-2.1,3.1-4.2,4.6-6.3c1.2-1.6,2.2-3.1,3.1-4.8c2.2-3.6,2.3-7.2,0.6-11.1c-1-2.4-2.1-4.9-2.7-7.5
		c-1.9-7.8,2.2-14.4,10-16.4c1.9-0.5,3.8-0.6,5.7-0.8c1.3-0.1,2.5-0.2,3.8-0.2c4.5-0.1,8.2-2.1,11.2-5.3c1.2-1.3,2.4-2.6,3.5-4
		c7.3-10.6,13.8-21.6,18.6-33.5c2.1-5.2,3.3-10.7,3.7-16.3c0.4-8-1.6-15.2-5.3-22.2c-2-3.7-3.9-7.4-5.4-11.3
		c-2.1-5.3-3.2-10.9-2.4-16.7c0.7-4.7,2.7-8.9,5.7-12.8c4.4-5.9,10.2-9.8,16.7-12.9c6.7-3,13.8-4.6,20.9-6c5.9-1.2,11.8-2.4,17.6-4
		c7.5-2.1,14-6.1,19-12c3.2-3.8,6.5-7.7,9.1-12c8.9-14.9,16.6-30.3,22.5-46.8c2.2-6.2,3.9-12.5,3.8-19.2c-0.1-8.1-3.8-13-11.3-15.6
		c-2.4-0.8-4.9-1.6-7.4-2.4c-1.5-0.5-2.9-1.2-4.4-1.8c-7.8-3.8-12-10-13.1-18.6c-0.1-1-0.3-2.2-0.3-3.2c-0.1-2.7-1.5-4.7-3.7-6.3
		c-0.8-0.5-1.7-1.2-2.5-1.7c-6.7-3.9-11.1-9.8-15.1-16.2c-3.1-5.1,1.6-12.1,7.1-11.6c3.2,0.3,6.5,0.7,9.7,0.7c7.7,0.1,15.4,0,23.1,0
		c5.7,0,11.2,0.1,16.8,0.3c1.9,0.1,3.1,1.6,3.3,3.5s-0.9,3.7-2.8,4.2c-3.3,0.9-6.8,1.9-10.2,2.8c-0.8,0.2-1.6,0.4-2.5,0.7
		c0,0.4,0,0.8,0.1,1.3c3,7.3,11.7,12.2,19.6,11.1c4.3-0.6,10.4-3.5,13.9-6.6c0-0.1,0.1-0.3,0-0.4c-3.7-5.4-5.1-11.6-6-17.9
		c-1-9-1.3-18-0.1-27c1.6-12.2,5.3-23.8,11.3-34.6c1.8-3.2,4-6.2,6.8-8.6c2.7-2.3,5.8-3.7,9.3-3.8c4.7-0.2,8.1,2,10,6.2
		c1.5,2.9,2,6.2,2.2,9.5c0.5,7.6-0.4,15.1-2.3,22.4c-3.3,13.1-6.9,26.1-10.5,39c-1.4,4.9-3.6,9.5-7.2,13.6c1.5,0.3,2.5,0,3.3-0.5
		c1.9-1,3.9-2,5.5-3.2c1.6-1.2,2.9-2.7,4.4-4.1c1.8-1.6,2.5-3.5,2.7-5.9c1.6-16.5,5.3-32.5,12.3-47.6c1.6-3.5,3.8-6.7,5.9-9.9
		c1-1.7,2.5-3.1,4.1-4.4c1.3-1,2.8-1.9,4.4-2.4c4.3-1.5,8,0.4,9.3,4.7c1.2,3.6,0.9,7.1,0.3,10.7c-2,12.1-7.7,22.4-15.8,31.4
		c-2.2,2.5-4.7,4.7-7.2,7c-1.5,1.4-2.3,2.7-2.4,4.7c-0.2,6-0.6,11.8-0.8,17.8c-0.1,2.1,0.2,4.2,0.5,6.3c0.1,1,0.6,2,0.9,3
		c2.1-0.4,3.6-1.5,4.7-2.7c1.6-1.8,3.2-3.7,4.4-5.8c4.3-7.7,7.8-15.9,9.6-24.7c1.9-9,4.3-17.7,8-26.2c2-4.7,4.5-9.2,7.6-13.2
		c1-1.3,2.2-2.6,3.5-3.6c1.4-1,2.9-2,4.6-2.5c4.6-1.5,8.4,0.8,9.3,5.7c0.6,3,0.3,6-0.3,9c-1.7,8.6-5.9,16-11.4,22.6
		c-2.9,3.5-6.4,6.4-9.7,9.3c-1.6,1.4-2.5,2.7-2.6,4.8c-0.2,4.4-0.6,8.7-0.8,13c-0.1,2.3,0.2,4.7,0.5,7c0.1,0.8,0.5,1.7,0.8,2.6
		c1.7,0.1,2.8-0.7,3.8-1.6c2-2.1,4.1-4.1,5.4-6.5c2.7-5.1,5-10.6,7.4-15.9c0.4-0.8,0.6-1.8,1.2-2.5c1.2-1.7,3-2.2,4.9-1.6
		c1.7,0.6,2.5,1.9,2.2,4c-0.3,2.6-0.9,5.1-1.4,7.6c-0.4,2.4-0.9,4.8-0.3,7.2c0.5,2.2,1.4,2.9,3.5,2.5c1.5-0.3,3.1-0.9,4.3-1.9
		c1.9-1.6,3.8-3.3,5.2-5.3c2.3-2.9,4.4-6.1,6.6-9.2c0.4-0.6,0.6-1.4,0.9-2.1c0.7-2.2,2.3-3.1,4.9-2.9c2,0.1,3.1,1.2,3.3,3.7
		c0.3,2.7,0.3,5.5,0.4,8.3c0,0.6,0.1,1.3,0.1,1.9C539.7,90.5,539.8,90.5,539.9,90.5z M347.7,674.1c0.9-0.6,1.6-1.2,2.2-1.7
		c6-4.5,12.2-8.5,19.4-10.9c10.6-3.6,20.8-2.9,30.3,3c7.1,4.4,11.4,10.7,12.5,19c0.7,5.5-0.1,10.9-1.6,16.1
		c-4.6,16.5-9.3,33-14,49.5c-2.3,7.8-4.8,15.7-6,23.9c-1.3,9.4,1.2,17.5,8.8,23.4c3.1,2.4,6.4,4.6,9.5,6.9c4,2.8,8.1,5.4,11.8,8.4
		c5.4,4.2,9.9,9.2,12.6,15.7c0.3,0.8,0.8,1.4,1.8,1.5c8.7,1.6,16.1,5.9,23,11.3c7.7,6.1,14.5,13.1,21.1,20.4
		c8.7,9.8,13.1,21.6,14.1,34.4c0.5,6.6,0.5,13.2,0.5,19.8c-0.1,9.5-0.8,19,0,28.6c0.6,7.2,2,14.2,5.2,20.8c1.3,2.6,2.6,5.2,4.8,7.6
		c1.8-2.6,4.1-4,7.1-4.1c3.1-0.1,5.2,1.6,7.3,4.3c0.1-0.9,0.1-1.3,0.1-1.7c0-5.4,1.9-10.2,5.2-14.3c3.6-4.6,8.2-7.8,13.5-10
		c7.4-3.1,15.2-3.1,22.9-1.8c7.7,1.5,15.1,4.3,22.3,7.4c3.6,1.6,7.3,2.8,11.1,4.1c2.1,0.7,4.4,0.5,7,0.1c-0.8-1.2-1.4-1.9-2-2.7
		c-3.9-5.2-5.3-11.1-4.4-17.5c1-7,4.5-12.9,9.3-18c5.5-6,12.6-9.7,20.4-11.7c6.3-1.6,12.8-2.7,19.2-4.1c2.9-0.6,6-1.4,8.9-2.1
		c0.1-0.3,0.2-0.5,0.4-0.8c-0.4-0.2-1-0.3-1.4-0.6c-5.7-5.2-9.6-15.7-4.1-25.5c1.4-2.4,2.9-4.6,4.4-7c1.6-2.5,3.3-5,4.7-7.7
		c0.7-1.5,1-3.3,1.2-5c0.1-1.5-0.5-2.5-2.3-3c-3.1-0.9-4.7-3.3-4.8-6.6c-0.1-3,0.9-5.7,3.5-7.4c2.5-1.8,3.7-4.3,4.3-7.1
		c0.7-3.7,0.6-7.3,0.2-11c-0.7-7.1-1-14.2,0.2-21.2c1.6-8.9,6-15.9,13.9-20.4c2.5-1.5,4.9-2.9,7.5-4.1c6.4-2.9,10.9-7.6,14.1-13.7
		c9-16.5,17.9-33.2,26-50.1c1.7-3.7,3-7.4,4.4-11.2c0.7-2,1-4.2,1.3-6.4c0.5-5.2-0.7-10-4.1-14.1c-2.7-3.3-5.7-6.6-8.5-9.9
		c-2.4-2.8-4.6-5.8-6.2-9.1c-3.5-7.6-3-17.1,4.2-23.8c1-0.9,2-2,3.1-2.9c2.7-2.1,3.3-4.8,2.7-8.1c-0.2-0.9-0.5-2-0.6-2.9
		c-0.4-3.3-1-6.8-1.2-10.2c-0.3-5.8,0.7-11.3,1.8-17c1.9-9.8,3-19.7,2.7-29.7c-0.2-7.5-0.4-15.1-0.4-22.6c0-90.6,0-181.2,0-271.8
		c0-4.4-0.1-8.9-0.1-13.3c-0.1-11.8-0.3-23.7,0.7-35.4c0.6-6.9-0.1-13.5-2.6-20c-2.2-5.5-4.7-10.9-6.6-16.5
		c-3.6-10.5-8.4-20.1-15.6-28.4c-0.1-0.1-0.1-0.1-0.1-0.2c-6.3-8.2-9.3-17.5-9.8-27.7c-0.4-8.3,0.3-16.4,1.8-24.5
		c1.2-6,2.4-11.9,3.6-18c0.5-2.4,0.3-2.8-2.1-3.8c-2.6-0.9-5.1-0.5-7.5,0.5c-4.4,1.8-8.4,4.2-11.7,7.5c-1,0.9-1.9,2.1-2.8,3.1
		c0.4,0.8,0.7,1.6,1,2.2c2.4,5.3,4.1,10.8,4.2,16.6c0.2,8.2-4,13.2-11.9,14.4c-6.1,0.9-11.4-2.3-13.2-8.3c-0.7-2.5-0.9-5-0.6-7.7
		c0.3-2.5,1-4.9,2.5-7c2.2-3.2,4.5-6.4,7-9.8c-1.9-2.4-3.9-5-6-7.7c-1.8,2.6-3.3,5-5,7.4c-2.7,3.8-5.9,7.1-9.8,9.6
		c-2.2,1.5-4.6,2.2-7.3,2.4c-3.5,0.2-5.9-1.3-7.3-4.3c-0.8-1.8-1.4-3.8-1.6-5.8c-0.2-3.1,0-6.3,0-9.5c-0.1,0-0.3,0-0.5,0.1
		c-3.2,1.3-6.4,2.4-9.6,3.7c-0.7,0.3-1.4,0.9-1.9,1.5c-0.6,0.8-0.9,1.8-1.5,2.6c-1.6,2.8-3.5,5.5-6.3,7.3c-5.8,3.7-12,1.8-14.7-4.6
		c-0.3-0.7-0.6-1.5-1-2.4c-1.6,2.7-2.9,5.2-4.3,7.7c-3.1,5.3-6.5,10.6-10.8,15.1c-1,1.2-2.3,2.2-3.7,3c-2.7,1.7-5.2,1.4-7.6-0.7
		c-1.3-1.2-2.3-2.5-2.6-4.2c-0.3-2.1-0.7-4.2-0.5-6.2c0.4-3.8,1-7.4,1.8-11.1c2.3-10.8,4.7-21.6,7-32.3c0.4-1.8,0.6-3.7,0.8-5.5
		c-0.2-0.1-0.3-0.1-0.5-0.2c-0.5,0.6-1,1.2-1.5,1.9c-1,1.8-2.2,3.6-3.1,5.4c-3.7,7.5-7.2,15.1-10.9,22.6c-1.6,3.3-3.3,6.6-5,9.8
		c-1.3,2.3-3,4-5.3,5.1c-3.7,1.9-6.6,0.3-6.8-3.9c-0.1-2.2,0.1-4.4,0.1-6.5c0-0.7,0-1.4,0-2.5c-0.8,1-1.3,1.7-1.8,2.3
		c-2.5,2.6-5,5.3-7.7,7.8c-1.8,1.7-4.1,2.6-6.5,3.2c-5.1,1.3-8.9-0.7-10.6-5.9c-0.3-0.8-0.5-1.7-0.8-2.9c-0.5,0.8-0.9,1.5-1.4,2.1
		c-1.4,2.1-2.7,4.2-4.2,6.2c-1.9,2.5-4.2,4.6-7,6c-4.7,2.2-9.5,0.5-11.5-4.2c-0.9-2.3-1.3-4.8-1.8-7.2c-0.1-0.6-0.2-1.2-0.4-2.3
		c-0.7,1.3-1,2.1-1.6,2.9c-1.8,3-3.5,6.1-5.4,9c-1.9,2.8-4.3,5.2-7.3,6.7c-4.4,2.3-9.3,0.8-11.6-3.6c-0.8-1.7-1.4-3.6-1.9-5.4
		c-0.3-0.8-0.4-1.7-0.6-2.7c-0.8,0.6-1.5,1.3-2.2,1.7c-2.6,1.6-5.2,3.3-8.1,4.6c-3.7,1.7-7.5,1.8-11.2,0.3c-1.5-0.6-2.3-0.2-3.3,0.6
		c-3.3,2.5-6.9,4.7-10.9,6.2c-5.4,2.1-11,2.9-16.7,1.5c-8.5-2.2-14.1-7.6-18.2-15.1c-0.4-0.8-0.8-1.6-1.3-2.4c-3.6,0.3-7,0.6-10.9,1
		c1,0.8,1.6,1.3,2.2,1.7c4.8,3.3,7.7,8.1,8.9,13.7c0.4,2,0.7,4,1,6c0.4,3.1,2,5.4,4.9,6.8c1.8,0.8,3.8,1.5,5.7,2.1
		c2.7,0.9,5.7,1.8,8.3,2.9c11,4.9,16.6,13.6,17.5,25.4c0.6,8.2-0.9,16-3.3,23.8c-4.2,13.3-10,25.8-16.1,38.4
		c-3.8,7.7-8.2,15.2-13.3,22.1c-9.7,13.3-22.5,22.1-38.6,25.6c-6.3,1.4-12.7,2.6-18.9,3.9c-4.8,1-9.6,2.4-14,4.7
		c-4.3,2.2-7.7,5.2-9.9,9.6c-1.4,2.7-1.9,5.7-0.9,8.5c0.8,2.4,1.8,4.8,2.9,7.1c1.6,3,3.3,6,4.9,9c2.2,4.3,3.9,8.7,4.8,13.4
		c1.8,9.3,0.8,18.4-1.8,27.3c-4.7,15.7-12.2,30-21.9,43.2c-2.2,3-4.7,5.9-7.3,8.6c-5.7,5.7-12.5,8.7-20.5,8.7c-1.2,0-2.3,0-3.8,0
		c0.4,0.9,0.6,1.6,0.9,2.1c3.7,8.4,4,16.7-0.7,24.8c-1.7,2.8-3.6,5.4-5.3,8.2c-2.1,3.1-4.4,6.2-6.4,9.3c-2.5,3.9-4.1,8.2-4.3,12.7
		c-0.3,4.3-0.4,8.7,0.1,13c1.6,13.6,6,26.4,12.1,38.6c8,15.7,18.5,29.4,30.6,42.1c9.9,10.5,20.7,20,31.9,29.1
		c5.9,4.7,11.4,9.8,16.3,15.6c5.3,6.3,8.9,13.3,10.9,21.2c1.4,5.8,2.1,11.5,2.4,17.4c0.3,5.1,0.5,10.2,1,15.3
		C344.9,666.6,345.8,670.3,347.7,674.1z M427.8,92.8c0.2,0,0.3,0,0.5,0c0.4-0.7,0.9-1.4,1.2-2.1c1.3-3.2,2.6-6.4,3.6-9.6
		c2.2-8.1,4-16.2,6.2-24.3c2.1-7.6,4-15.4,4.6-23.3c0.2-2.4,0.4-4.8,0.1-7.1c-2.8-0.4-5.1,0.5-6.8,2.3c-1.3,1.3-2.5,2.8-3.2,4.4
		c-3.6,7.6-6.4,15.5-7.3,23.9c-1,9.2-0.8,18.4,0.1,27.5C426.9,87.3,427.4,90.1,427.8,92.8z M460.5,70.7c0.3,0.2,0.5,0.4,0.8,0.6
		c0.4-0.6,0.7-1.4,1.3-1.9c3.8-4.3,7.2-8.8,10-13.7c2.7-4.6,5.1-9.4,6.3-14.7c0.7-2.9,1-6,0.5-8.9c-0.4-2.3-1.6-2.6-3.2-1.2
		c-0.8,0.7-1.6,1.6-2.1,2.4c-1.4,2.3-2.8,4.5-3.9,7c-2.2,5.7-4.3,11.4-6.2,17.2C462.8,62.1,461.7,66.4,460.5,70.7z M488.7,71.4
		c0.2,0.1,0.3,0.1,0.5,0.2c0.4-0.3,0.7-0.6,1.2-0.9c5-5.2,9.5-10.8,12.7-17.4c1.3-2.6,2.3-5.3,3.1-8.2c0.6-2.2,0.8-4.6,0.3-6.9
		c-0.4-1.6-1.2-2-2.5-1.2c-0.8,0.5-1.7,1.3-2.2,2c-1.5,2.1-3,4.3-4,6.6c-2.2,5-4.1,10.3-6,15.4C490.6,64.5,489.7,67.9,488.7,71.4z
		 M658,97.6c-3.8,3.6-6.3,7.3-7.2,11.9c-0.5,2.6-0.3,5.3,1,7.8c1.8,3,5,3.6,7.6,1.3c1.3-1,1.9-2.5,2.3-4.1
		C663.1,108.4,660.7,103.2,658,97.6z M601.1,80.7c0.4-4.5,0.1-8.6-1.8-12.2c-1.2-2.3-3.5-2.6-5.4-0.9c-2.4,2.1-2.5,5.9-0.1,8.6
		C595.7,78.1,598.1,79.4,601.1,80.7z M588.5,85.9c-0.6,2-0.9,4.1-0.7,6.2c0.2,1.9,0.9,3.3,2.7,4.2c1.8,0.7,3.2,0.1,4.6-0.9
		c1.9-1.4,2.7-3.5,3.3-5.3C595.2,88.6,591.9,87.3,588.5,85.9z"/>
	<path d="M627.1,72.1c-2.2,0-3.8-1.6-3.8-3.8c0-2.7,1.8-4.8,4.3-4.8c2.4-0.1,4.1,1.6,4.1,4C631.7,69.8,629.4,72.1,627.1,72.1z"/>
	<path d="M516,67.3c0.1,2.4-2.1,4.7-4.5,4.8c-2.2,0-3.8-1.5-3.8-3.8c0-2.8,1.8-4.8,4.3-4.9C514.5,63.4,516,64.9,516,67.3z"/>
</g>
</svg>
