<?xml version="1.0" encoding="utf-8"?>
<!-- Generator: Adobe Illustrator 23.0.4, SVG Export Plug-In . SVG Version: 6.00 Build 0)  -->
<svg version="1.1" id="Layer_1" xmlns="http://www.w3.org/2000/svg" xmlns:xlink="http://www.w3.org/1999/xlink" x="0px" y="0px"
	 viewBox="0 0 1008 1008" style="enable-background:new 0 0 1008 1008;" xml:space="preserve">
<g>
	<path d="M477.1,903c-0.6,4.3-2.4,7.7-5.1,10.5c-4.6,4.7-5.7,10.4-5.1,16.7c0.2,2.7,0.6,5.4,0.9,8.1c0.5,3.8-1.1,6.4-4.8,7.4
		c-0.9,0.2-1.9,0.3-3,0.3s-1.9-0.2-3.2-0.3c-0.7,1.9-1.5,3.9-2.2,6c-1,2.9-2.5,5.4-4.8,7.4c-4.1,3.7-8.8,5-14.2,3.3
		c-4-1.3-6.3-4-6.8-8.2c-0.1-0.9-0.2-1.9-0.5-2.9c-1.4-0.2-2.6-0.3-3.9-0.6c-5.7-1.1-10-4.3-12.2-9.7c-1-2.4-1.8-4.8-2.7-7.2
		c-0.5-1.1-0.9-2.3-1.6-3.7c-1,0.7-1.8,1.1-2.5,1.7c-1.6,1.5-3.3,3-4.8,4.6c-3,3-6.5,5-10.5,6.2c-1.5,0.5-3,0.9-4.5,1.3
		c-2.6,0.7-4.1,2.3-4.7,4.9c-0.6,2.3-0.9,4.7-1.6,7c-0.7,2.6-1.4,5.3-2.5,7.8c-2.2,4.8-5.8,8.2-11,9.6c-6.1,1.6-11.3,0-15.4-4.8
		c-1.5-1.7-2.6-3.5-3.8-5.5c-2.6-5-6.6-8.6-11.6-11.2c-6.9-3.7-14.1-6.4-21.6-8.2c-3.8-0.9-7.7-0.9-11.6-0.1
		c-2.4,0.6-4.8,0.9-7.3,1.3c-3.2,0.3-6.3-0.6-9.6-1.9c0.3,1.1,0.6,1.9,0.8,2.9c0.9,2.6,1.1,5.4,0.7,8c-1.7,9.2-9.6,12-15.8,11.1
		c-6.1-0.9-10.4-4.3-13.2-9.8c-0.8-1.5-1.4-3.2-2.1-5c-1.6,0.7-3.2,1.4-4.8,1.9c-2.7,0.9-5.4,2.1-8.2,2.7c-4.2,1-8.4,0.6-12.1-1.7
		c-0.3-0.2-0.7-0.3-1.6-0.7c0.5,1.3,0.7,2.2,1,3c1.1,3.4,2.6,6.8,2.7,10.5c0.1,4.7-1.1,8.8-4.3,12.2c-3.9,4.3-9.5,5.5-14.9,3.2
		c-0.6-0.2-1.1-0.5-1.5-0.8c-3.7-2.7-7.9-3.5-12.1-4.5c-3.1-0.7-6.3-1.5-9.5-1.8c-3.8-0.6-6.5-3.8-6.9-7.7c-0.1-2.3,0-4.6,0.9-6.8
		c0.2-0.5,0.3-0.9,0.6-1.5c-0.7-0.5-1.3-0.9-1.8-1.3c-3.3-2.3-5-6.2-4.2-9.8c0.9-4.1,3.7-6.9,8-7.2c3.2-0.2,5-1.7,6.3-4.5
		c1.4-3.2,3.1-6.2,4.5-9.4c0.6-1.4,0.7-2.9,1-4.3c0.2-0.9,0-1.6-0.7-2.2c-2.9-2.5-2.7-7.3-0.1-10.5c1.1-1.4,2.5-2.6,3.8-3.9
		c-1.9-9.4,3.5-14.1,11.3-17.3c-0.8-1.1-1.4-1.9-1.9-2.9c-5.3-7.7-4.9-18.1,0.9-25.4c1.9-2.4,4.3-4.3,7.4-5.1
		c3.3-0.9,6.3-2.3,8.8-4.7c1.3-1.3,3.5-1.5,6-2.4c2.7-6.6,7.2-13,12.5-18.9c-0.9-2.2-1.7-4.3-1.4-6.8c0.7-4.7,3-8.1,6.9-10.6
		c1.7-1,3.5-1.8,5.3-2.7c0.9-0.5,1.9-0.9,2.9-1.4c-0.2-1.7-0.5-3.2-0.6-4.8c-0.3-5.3,1.7-9.5,6-12.6c1-0.8,1.6-1.5,1.6-2.7
		c0.1-4,1.8-7.4,4.6-10.4c2.2-2.3,4.7-4.1,7.4-5.6c1.5-0.8,2.9-1.6,4.3-2.4c2.1-1.3,3.2-3.2,3.5-5.7c0.5-4.3,0-8.6-0.9-12.8
		c-0.3-1.5-1.4-2.7-2.2-4.1c-0.6-0.9-1.5-1.6-2.1-2.4c-3.2-4.2-4.1-8.8-2.3-13.7c0.7-1.9,1.7-3.7,2.7-5.5c0.8-1.4,1.7-2.7,2.7-4.3
		c-7.6-2.2-9.8-7.8-10.2-14.6c-0.1-1.8-0.2-3.7-0.5-5.4c-0.8-6.6-4.3-11.7-9.8-15.3c-0.5-0.3-0.9-0.7-1.5-0.9
		c-4.6-2.3-5.1-7.3-2.3-11.1c0.9-1.3,2.3-2.4,3.8-3.1c7.7-3.9,10.5-13,6.5-20.7c-1.1-2.3-2.3-4.6-3-7c-1.3-5.3,1-10.4,5.7-13
		c2.1-1.1,4.3-2.1,6.5-3c7-2.9,9.2-6.1,9-13.6c0-2.2-0.2-4.2-0.5-6.4c-1-13.8-0.9-27.7-0.7-41.5c0.1-6.8,0.2-13.5,0.2-20.3
		c0-147.2,0-294.2,0-441.3c0-1,0-2.2,0-3.2c0.2-3.4,2.6-6.3,6.1-6.9c0.9-0.2,1.8-0.2,2.7-0.2c11.4,0,22.9-0.2,34.4-0.1
		c4.3,0,8.7,0.8,13,0.9c6.6,0.2,13.4,0.2,20,0.3c5.1,0.1,10.4,0.2,15.6,0.5c2.2,0.1,3.5,1.6,3.7,3.7c0.1,2.1-1,3.5-3.1,4.1
		c-3.4,0.9-6.9,1.8-10.3,2.6c-0.7,0.2-1.4,0.5-2.4,0.7c0.8,1.3,1.4,2.5,2.2,3.7c3.3,4.8,7.8,8.1,13.7,8.7c1.3,0.1,2.6,0,3.9-0.1
		c5.1-0.8,9.6-3.1,14-6.1c-0.9-1.7-1.8-3.3-2.5-4.9c-1.9-4.5-2.9-9.2-3.3-13.8c-1.3-12.6-0.6-25.1,2.7-37.3
		c2.1-7.4,4.8-14.5,8.5-21.3c1.8-3.3,3.9-6.3,6.6-8.9c2.6-2.4,5.6-4,9.2-4.5c4.6-0.6,8.4,1.3,10.5,5.4c1.5,2.9,2.2,5.8,2.4,9
		c0.6,7.6-0.3,15-2.3,22.3c-2.6,10-5.5,19.8-8.4,29.8c-1,3.4-2.1,7-3.2,10.4c-1.4,4.1-3.3,7.9-6.1,11.2c-0.2,0.3-0.5,0.7-0.8,1.1
		c2.1,0.2,3.5-0.6,5-1.3c4-1.9,7.1-5,10-8.4c0.5-0.5,0.6-1.4,0.7-2.1c0.3-2.9,0.6-5.7,0.9-8.6c0.2-2.1,1-3,2.9-3.5
		c3.2-0.8,5.3,0.5,5.5,3.8c0.2,2.5,0.1,5.1,0.2,7.7c0,0.7,0,1.3,0,2.5c0.7-0.9,1-1.4,1.3-1.8c3-6.1,5.8-12.1,9-18.2
		c2.2-4.1,4.6-8,7.1-11.9c1-1.6,2.5-3.1,3.9-4.5c3.8-3.5,11.1-2.2,12.4,4.1c0.8,3.9,0.6,7.7,0,11.6c-1.5,9.6-4.6,18.8-7.3,27.9
		c-1.3,4.1-2.4,8.2-3.5,12.4c-0.1,0.3-0.1,0.8,0.1,1.4c0.7-0.6,1.4-1,1.8-1.7c2.6-3.3,5.5-6.6,7.9-10.2c4-6,7.7-12.1,10.4-18.8
		c1.1-3,3-5.5,5.4-7.6c2.9-2.3,6-3.1,9.5-1.7c0.5,0.2,0.9,0.2,1.6,0.5c0.6-3.5,1-6.9,1.7-10.3c0.9-4.8,2.1-9.5,4-14
		c1.6-3.8,3.8-7.2,6.6-10.1c1.7-1.6,3.7-2.9,6.1-3.1c3.3-0.2,5.7,1.1,7.4,3.9c1.6,2.5,2.4,5.4,2.5,8.5c0.2,4.9-0.8,9.7-2.4,14.3
		c-3,8.5-7.2,16.2-12.6,23.5c-1,1.4-2.3,2.5-3.4,3.9c-0.5,0.6-1,1.3-1,1.8c0.2,4.3,1,8.6,3.7,12.1c3.4,4.5,6.2,4.6,9.6,0
		c3.5-4.8,5.8-10.1,7.2-15.9c0.5-2.2,1.1-4.3,1.9-6.4c0.7-1.6,1.9-2.6,3.8-2.6c2.3,0,3.8,1.5,3.7,3.8c-0.1,1.5-0.6,2.9-0.7,4.3
		c-0.5,3.1-1.1,6.2-1.3,9.3c-0.1,4,1.9,5.3,5.6,3.5c1.8-0.9,3.8-2.2,5-3.8c3.2-3.8,6.1-7.8,9-11.8c0.6-0.7,0.7-1.6,1-2.5
		c3.7-8.5,13.4-13.6,22.1-11.8c4.6,0.9,6.9,3.8,6.8,8.4c-0.1,1.8-0.6,3.5-1,5.3c-1,3.4-2.3,6.9-3.2,10.4c-0.5,1.6-0.6,3.3-0.5,4.9
		c0.1,1.8,1.1,2.5,2.9,1.7c1-0.5,2.1-1.1,2.9-1.9c1.4-1.3,2.6-2.5,3.8-3.9c3-3.9,6.2-7.7,8-12.4c0.6-1.6,2.5-2.3,4.9-1.9
		c1.7,0.2,2.7,1.1,2.9,3.2c0.2,2.9,0.2,5.7,0.3,8.7c0,0.6,0.1,1,0.5,1.7c0.5-0.8,0.9-1.5,1.3-2.3c3.3-6.6,6.5-13.4,10-19.9
		c1.8-3.4,4.1-6.8,6.3-10.1c0.8-1.3,2.1-2.4,3.2-3.4c4-3.8,11.3-2.3,12.6,4.3c0.8,4,0.5,8-0.2,12c-1.5,9.5-4.6,18.5-7.4,27.7
		c-1.1,3.8-2.2,7.6-3.2,11.4c-0.1,0.6-0.2,1-0.3,2.2c1.1-1.1,2.1-1.7,2.6-2.6c3.1-4,6.2-7.9,8.9-12.1c3.5-5.3,6.4-11,9.2-16.7
		c4-8.4,10.4-13.3,20-13.4c0.2,0,0.5,0,0.7,0c7.3,0.5,10.3,5.3,8.5,12.4c-0.8,3-1.9,5.7-2.9,8.7c-0.6,1.9-1,4-1.4,6.1
		c-0.1,0.8,0,1.6,0,2.5c1.7,0.2,3.1-0.3,4.3-1.1c2.2-1.4,4.1-3,6.2-4.6c1.8-1.5,3.3-3.2,5.1-4.7c6.3-5,13.3-8.1,21.5-8
		c10.4,0.1,20.8,0,31.2,0c0.7,0,1.4,0,1.9,0c4.9,0.1,7.8,2.7,8.1,7.8c0,0.7,0,1.5,0,2.2c0,143.8,0,287.7,0,431.5
		c0,16.5-0.2,33-0.2,49.5c-0.1,14.1-0.1,28.3-0.1,42.3c0,9.2,0.1,18.3,0.5,27.5c0.1,5.1,0.8,10.4,1.1,15.6c0.3,4.3,0,8.7-1.3,12.9
		c-1,3.3-2.7,6.2-5.1,8.6c-1.5,1.5-3.3,2.3-5.3,3.1c-2.1,0.8-2.3,1.3-1.5,3.4c0.5,1.3,0.9,2.5,1.6,3.7c3.5,6.8,3.9,13.8,2.7,21.2
		c-0.1,0.6-0.1,1.1-0.2,1.8c1.1,0.3,2.2,0.8,3.3,1.1c7.8,2.2,9.3,8.5,8.2,14.2c-0.7,3.4-1.9,6.6-3,10c-0.1,0.3-0.2,0.6-0.3,1
		c2.1,3,2.3,6,0,8.9c-1.9,2.5-4.6,3.7-7.8,3.4c-2.1-0.1-4.1-0.5-6.2-0.3c-3.8,0.1-7.3,1.1-10.6,2.9c-3.4,1.7-7,3.4-10.9,4
		c-0.2,0-0.5,0.1-0.7,0.1c-5.3-0.1-9.5,2.5-13.4,5.7c-1.8,1.5-3.5,2.9-5.5,4.2c-9,6-18.9,5.4-27.1-1.7c-1.5-1.3-2.9-2.6-4.3-4
		c-1.1-1-2.4-2.1-3.7-3c-2.5-1.8-3.7-1.8-6,0.2c-3.2,2.9-6.6,5.1-11.3,5.6c0.3,2.2,0.5,4.2,0.9,6.2c1,6.1,2.9,12,4.9,17.9
		c0.9,2.5,1.6,5.3,1.8,7.9c0.5,4.1-1.1,7.8-4.6,10.2c-4.9,3.4-9.3,7.3-13,12c-2.4,3-5.7,4.3-9.6,4.6c-0.5,0-1,0.1-1.5,0.1
		c-5,0-8.4,2.7-10.6,6.9c-1,1.8-1.9,3.7-3,5.5c-3,6-6.5,11.7-11.4,16.4c-0.3,0.3-0.7,0.7-0.9,1.1c-1,2.4-2.9,3.8-5.1,4.7
		c-3.3,1.4-6,3.5-8.1,6.3c-4.5,5.4-8.1,11.3-11.6,17.5c-1.9,3.4-2.2,7.2-2.2,11.1c0.1,8.6-2.9,16-8.1,22.5c-1.8,2.2-4,4.1-6.3,5.8
		c-5.4,3.8-11.3,4.1-17.5,2.5c-2.7-0.7-5-2.2-6.9-4.2c-1.5-1.7-2.7-3.4-3.9-5.4c-1.8-3.4-1-3.9-6.5-3.4c-5.6,0.5-11.2,0.8-16.8,1.4
		c-3.8,0.3-6.2-1.4-7.8-4.5c-1-1.9-1.8-4.1-2.6-6.2c-1.4-3.2-2.6-6.4-4.1-9.7C487.6,902.7,482.5,903.2,477.1,903z M213.5,915.8
		c0,0.6-0.1,0.9,0,1.3c0.8,3.5,0.3,7.1-0.6,10.5c-1.7,7-4.9,13.3-8.7,19.3c-1,1.6-2.1,3.1-3.2,4.8c1.7,2.6,2.1,5.6,1.6,8.7
		c2.5,0.7,4.8,1.4,7.1,2.1c2.2,0.7,4.5,1.5,7,2.3c-0.5-1.3-0.8-2.3-1.1-3.3c-0.8-2.3-1.7-4.5-2.3-6.8c-1.3-5.3-0.6-10.3,2.6-14.9
		c2.3-3.3,5.5-5.5,9.6-5.8c3.9-0.5,7.4,0.7,10.1,3.7c1.7,1.9,3.8,2.3,6.1,1.5c1.4-0.5,2.7-1.1,4.1-1.6c2.3-0.8,4.5-1.8,6.8-2.4
		c4.2-1.1,8.5-1.3,12.7,0.3c0.5,0.2,1,0.3,1.6,0.6c0.1-0.9,0.1-1.7,0.2-2.4c1.1-7.9,7.1-12.2,14.3-10.5c1.7,0.5,3.3,1.4,4.9,2.3
		c1.5,0.8,2.7,1.8,4.1,2.7c1.9,1.3,3.9,1.5,6.2,0.8c7.2-2.2,14.5-1.9,21.7-0.2c8.8,2.2,16.9,6.1,24.8,10.3
		c7.2,3.9,13.2,9.2,16.9,16.5c0.5,1,1.3,1.8,2.1,2.9c1.8-1.8,2.1-3.9,2.5-5.8c0.6-2.5,0.9-5,1.6-7.6c2.3-8.4,7.4-14.1,16-16.1
		c4.3-1,7.9-3.1,10.9-6.4c2.2-2.4,4.7-4.3,7.7-5.8c4.2-2.1,8.6-2.5,12.9-0.8c5,1.9,8,6,9.7,10.9c0.6,1.6,0.9,3.2,1.5,4.7
		c0.3,1,0.8,1.9,1.4,2.9c1.1,1.7,2.4,1.8,3.9,0.6c0.2-0.2,0.5-0.5,0.7-0.7c3.1-3.8,8.5-2.9,11.4,0.6c0.6,0.6,1,1.3,1.3,1.8
		c2.4-2.1,4.9-4.1,7.6-6.4c0-1.1,0-2.6,0-4c0.1-7.4,1.9-14.5,7-20.1c3.2-3.5,3.9-7.2,2.2-11.6c-1.3-3.1-0.5-6,2.1-8
		c2.6-2.2,5.6-2.7,8.8-1.4c0.7,0.2,1.3,0.6,2.2,0.9c0-0.9-0.1-1.6-0.1-2.3c-0.2-5.8,2.6-10.2,8.1-12.2c6.1-2.2,12.2-0.6,16.4,4.8
		c1.9,2.5,3.5,5.4,4.8,8.4c2.6,5.7,4.9,11.7,7.4,17.5c0.3,0.8,0.7,1.6,1.1,2.5c1.3-0.1,2.4-0.1,3.5-0.2c4.6-0.3,9.3-0.7,13.8-0.9
		c5.5-0.2,9.7,2.3,12.7,6.8c1,1.6,2.1,3.3,3,5.1c0.5,0.8,0.9,1.3,1.7,1.6c2.1,0.8,3.7,0.5,5.3-1c3.7-3.5,6.5-7.4,6.4-12.8
		c0-1.1,0-2.3,0-3.4c-0.1-5.1,0.9-10.2,3.2-14.9c2.2-4.5,4.6-8.8,7.1-12.9c3.9-6.1,8.7-11.4,14.6-15.7c2.3-1.6,4.9-2.7,6.4-5.3
		c0.2-0.3,0.6-0.6,0.9-0.8c2.2-1.6,4-3.8,5.4-6.1c1.5-2.5,2.7-5.1,4.1-7.7c1.4-2.5,2.7-5.1,4.3-7.4c4.8-7,11-11.8,20-11.8
		c1.7,0,3.1-0.7,3.9-2.2c2.3-3.8,5.6-6.4,9.3-8.7c0.7-0.5,1.3-0.9,1.9-1.4c-0.3-0.9-0.7-1.6-0.9-2.3c-2.6-8.1-4.9-16.2-6.1-24.7
		c-0.5-3.8-0.9-7.6-0.1-11.3c0.9-3.9,3-6.9,6.9-8c1.5-0.5,3.2-0.5,4.9-0.5c1.8,0,3.1-0.5,4.3-1.8c5.5-6,12.6-7.3,20.1-4.2
		c3.9,1.6,7.1,4.1,10.1,7c1.7,1.6,3.5,3.2,5.5,4.6c1.6,1.3,3.5,1.4,5.4,0.7c1.3-0.5,2.6-1.1,3.7-1.9c1.8-1.3,3.5-2.7,5.1-4.2
		c4.8-4,10.1-6.9,16.5-7.1c2.9-0.1,5.5-1,8-2.3c2.5-1.3,5.3-2.3,8-3.1c2.7-0.8,5.6-1.3,8.6-1.8c0.9-2.2,1.8-4.5,2.9-7
		c-0.7-0.2-1.1-0.5-1.5-0.6c-2.2-0.7-4.2-1.3-6.4-1.9c-2.9-0.9-4.6-2.7-5.3-5.6c-0.5-2.1-0.1-3.9,0.7-5.8c2.7-6.3,2.7-12.6,0.2-19
		c-0.9-2.3-1.8-4.6-2.5-7c-2.3-8,0.8-14.9,8.1-18.7c0.3-0.1,0.6-0.3,0.9-0.5c1.8-0.7,2.7-2.1,3.2-4c0.7-4,0.5-8,0.2-12.1
		c-0.2-3.9-0.8-7.8-0.8-11.6c-0.1-7,0-14.1,0-21.1c0-173,0-346,0-519.2c0-0.7,0-1.5,0-2.2c0-0.6-0.1-1.3-0.2-1.9
		c-0.8,0-1.5-0.1-2.1-0.1c-8.1,0-16.4,0-24.5,0c-1.7,0-3.4-0.1-5.1,0c-6.9,0.9-13.5,2.7-19.8,6c-2.2,1.1-4.2,2.2-6.5,3
		c-2.1,0.7-4.3,1.1-6.5,1.1c-3.5,0-5.8-2.3-6.1-5.8c0-0.6,0-1,0-1.6c-0.1-0.1-0.2-0.2-0.3-0.3c-2.7,2.9-6.2,4-10,3.3
		c-4.1-0.7-5.7-4-7.1-7.7c-1.3,2.2-2.2,3.9-3.2,5.7c-3.5,6.2-7.3,12.2-12.2,17.4c-1.1,1.1-2.4,2.3-3.8,3.2c-3,1.8-5.7,1.6-8-0.9
		c-1-1-1.8-2.4-2.2-3.8c-0.5-1.8-0.7-3.9-0.6-5.8c0.3-3.5,1-7,1.8-10.4c2.5-11.3,5.3-22.7,7.9-34c0.3-1.4,0.5-2.7,0.7-4.1
		c-0.2-0.1-0.3-0.1-0.6-0.2c-0.6,0.8-1.3,1.5-1.7,2.3c-1.5,2.5-3.1,5-4.5,7.8c-3.4,6.8-6.8,13.6-10.2,20.4c-1.5,3-3.1,6.1-4.9,8.9
		c-1.6,2.6-3.9,4.7-7.2,5.3c-1.9,0.3-3.4-0.5-4.1-2.3c-0.3-1.1-0.6-2.4-0.6-3.7c0-2.1,0.3-4.1,0.5-6.2c0-0.5,0-1-0.1-1.9
		c-0.8,1-1.3,1.7-1.7,2.4c-2.4,3.5-5.1,6.6-8.8,8.8c-1.9,1.1-4,1.8-6.3,2.1c-3.1,0.3-7-1.8-6.9-6.1c0-0.5,0-0.9-0.1-1.8
		c-3.3,2.9-6.9,4.3-10.9,3.2c-4.3-1.1-5.5-5-6.9-8.8c-0.7,0.9-1.3,1.5-1.7,2.2c-2.5,3.2-5.4,6.1-8.7,8.4c-2.3,1.5-4.8,2.5-7.6,2.7
		c-3.1,0.2-5.5-0.9-7.1-3.5c-0.5-0.7-0.8-1.4-1.3-2.2c-0.9,1.4-1.5,2.6-2.4,3.8c-1.5,1.8-2.9,3.7-4.6,5.1
		c-4.8,3.8-10.2,3.3-14.4-1.1c-1-1-1.9-2.3-2.6-3.5c-1-1.9-1.7-3.9-2.6-5.8c-0.3-0.7-0.6-1.5-0.9-2.4c-0.9,0.3-1.7,0.7-2.4,0.9
		c-2.4,0.7-4.7,1.5-7.1,1.9c-3.9,0.7-7.3-0.2-9.8-3.5c-0.1-0.1-0.3-0.1-0.6-0.1c-0.6,1-1.1,2.1-1.8,3.1c-3.7,6.3-7.4,12.5-12.6,17.7
		c-1,1.1-2.3,2.2-3.5,3c-2.7,1.7-5.3,1.4-7.7-0.8c-1.5-1.4-2.4-3.1-2.7-5.1c-0.6-2.9-0.3-5.7,0.2-8.6c1.5-6.6,3-13.2,4.5-19.8
		c1.6-7.2,3.3-14.4,4.9-21.7c0.2-1,0.6-2.2-0.1-3.2c-1.6,1.9-3,4-4.1,6.2c-3.2,6.1-6.2,12.2-9.3,18.3c-2.3,4.5-4.5,8.8-6.8,13.2
		c-1,2.1-2.6,3.8-4.6,5.1c-1.4,0.9-2.9,1.8-4.6,1.5c-1.3-0.2-2.4-1.1-3.8-1.9c-0.6,0.3-1.3,1-2.1,1.6c-2.4,1.4-4.8,3-7.3,4.1
		c-3.7,1.6-7.6,1.8-11.3,0.2c-1.5-0.6-2.4-0.3-3.5,0.6c-3.5,2.6-7.3,4.8-11.6,6.2c-5.1,1.7-10.4,2.3-15.8,0.8
		c-8.1-2.3-13.5-7.7-17.4-14.8c-0.5-0.8-0.9-1.7-1.4-2.7c-18.5,1.9-37.2,0.3-56,1.1c0,1.4,0,2.5,0,3.7c0,153.4,0,306.8,0,460.2
		c0,1.4,0,2.6,0,4c0.1,9,0.2,18,0.2,27c0,4.8,0.5,9.7,0.1,14.5c-0.7,9.7-5.5,16.7-14.4,20.8c-1.7,0.8-3.4,1.5-5.3,2.4
		c6.5,13.3,4.8,25.5-4.8,36.6c7.2,7.8,10.4,17,10.3,27.5c1.4,0.5,2.5,0.8,3.7,1.1c4.9,1.6,8,5.7,8.1,11c0.2,5.3-1.6,9.8-5,13.8
		c-1,1.1-2.3,2.2-2.5,3.8c0.2,0.2,0.3,0.5,0.6,0.6c3.9,2.6,5.6,6.5,6.5,11c1.3,6.4,1.7,12.8,0.8,19.2c-0.9,7.2-4.3,12.9-10.8,16.7
		c-1.9,1.1-3.9,2.2-5.8,3.3c-3.7,2.2-4.1,1.4-2.3,6.5c1.7,4.7,0,8.4-4.8,10c-1,0.3-2.1,0.6-3.1,0.8c0.1,0.7,0.3,1.1,0.5,1.6
		c1.6,6.4-0.3,11.8-6,15.4c-1.7,1.1-3.8,1.9-5.7,2.9c-0.9,0.5-1.8,0.8-2.9,1.3c2.4,5.5,1.1,10.1-2.3,14.3c-0.7,0.9-1.5,1.7-2.3,2.6
		c-3.4,3.7-6.1,7.8-8.1,12.4c-1.9,4.5-3.3,9.2-4,14c-0.5,3.3-2.3,5.3-5.4,6.1c-3.7,0.9-7.7,0-9.3-4.1c-0.1-0.2-0.2-0.3-0.5-0.7
		c-1.4,0.5-2.7,1-4.2,1.3c-1.6,0.3-2.2,1.4-2.4,2.7c-0.2,1.6,0.1,3.1,0.9,4.5c1.3,1.9,2.4,3.9,3.8,5.8c4.6,6.9,1.3,14.5-3.9,17.9
		c-0.7,0.5-1.4,0.9-1.9,1.3c0.2,2.3,0.6,4.5,0.6,6.5c0,3.7-2.1,6.2-5.7,7.2C215.6,915.1,214.6,915.5,213.5,915.8z M411.3,100.3
		c0.2,0,0.5,0.1,0.7,0.1c0.5-0.9,1.1-1.8,1.5-2.7c1.3-3.1,2.5-6.3,3.4-9.5c2.3-8,4.2-16.1,6.5-24.1c2.1-7.1,3.9-14.3,4.7-21.7
		c0.2-2.4,0.5-4.8,0.1-7.3c-3.4-0.2-6,1-7.9,3.4c-1.4,1.7-2.6,3.7-3.4,5.7c-1.6,3.7-3,7.6-4.1,11.3c-1,3.5-1.8,7.2-2.4,10.9
		c-1,8-0.9,16-0.3,23.9C410.3,93.7,410.9,97,411.3,100.3z M508.5,92.7c0.8-0.9,1.4-1.5,1.8-2.1c5.7-7.8,9.8-16.4,12.4-25.6
		c0.9-3.3,1.5-6.6,1.1-10.1c-0.1-1.6-0.6-3.2-1.3-4.7c-0.6-1.4-1.6-1.6-2.9-0.8c-1.1,0.8-2.2,1.8-2.7,3c-1.4,2.5-2.5,5.1-3.4,7.9
		c-3.2,9-4.5,18.5-5,28.1C508.5,89.8,508.5,91,508.5,92.7z M565.7,99.3c0,1,0.1,1.9,0.1,3c0,0.5,0.1,0.8,0.2,1.3
		c0.5,1.7,1.3,2.2,3,1.6c0.8-0.3,1.6-0.8,2.2-1.5c0.8-0.9,1.6-1.9,2.1-3.1c1.9-4.3,3.8-8.8,5.6-13.2c0.7-1.6,0.1-2.3-1.5-2.5
		c-2.3-0.3-4.3,0.3-6.2,1.9C567.5,90.1,565.7,94.2,565.7,99.3z M659.9,101c0,0.7,0,1.5,0,2.2c0,0.5,0.1,1,0.2,1.5
		c0.5,2.1,1.5,2.5,3.4,1.7c1.6-0.7,2.6-1.9,3.3-3.5c2.1-4.7,4.1-9.3,6.1-14.1c0.7-1.6,0-2.5-1.7-2.6c-2.4-0.2-4.3,0.6-6.1,2.2
		C661.3,91.8,659.7,96.1,659.9,101z M489.6,97.3c-0.1,3.1,1.1,4.5,3.5,3.9c2.3-0.6,4.5-1.6,6.6-2.5c0.3-0.1,0.7-0.9,0.7-1.4
		c-0.2-3-0.6-6-0.9-8.8c-0.1-1.3-1.3-1.9-2.5-1.6c-0.8,0.2-1.6,0.6-2.2,1.1C491.8,90.5,490,93.9,489.6,97.3z"/>
	<path d="M538.4,82.4c-2.2,0-3.7-1.6-3.7-3.8c0-2.7,2.1-4.9,4.6-4.8c2.2,0.1,3.8,1.8,3.8,4C543,80.3,540.7,82.6,538.4,82.4z"/>
</g>
</svg>
