<?xml version="1.0" encoding="utf-8"?>
<!-- Generator: Adobe Illustrator 23.0.4, SVG Export Plug-In . SVG Version: 6.00 Build 0)  -->
<svg version="1.1" id="Layer_1" xmlns="http://www.w3.org/2000/svg" xmlns:xlink="http://www.w3.org/1999/xlink" x="0px" y="0px"
	 viewBox="0 0 1008 1008" style="enable-background:new 0 0 1008 1008;" xml:space="preserve">
<g>
	<path d="M807.7,767.8c1.4,4.2,2.5,7.9,3.6,11.6c1.5,4.9,3,9.9,2.6,15c-0.5,8.5-4.2,15.4-11.8,19.6c-9.9,5.4-23.2,1.8-29.1-7.8
		c-1.2-2-2.2-3.9-3-6c-5.1-13.6-14.9-22.4-27.5-28.7c-11.3-5.7-23.5-7.8-36.1-6.7c-9.9,0.9-19.7,2.3-29.7,3.3
		c-4.9,0.5-9.2,2.2-13.4,4.7c-6.9,3.9-13.1,8.8-19.2,13.8c-3,2.5-6.2,4.6-10.1,5.1c-5.8,0.7-9-2-9.2-7.8c0-0.2-0.1-0.5-0.2-1.1
		c-0.9,0.6-1.5,1-2.2,1.6c-3.1,2.5-6.7,3-10.4,2.3c-2.5-0.4-4.6-1.7-5.7-3.9c-1.2-2.2-2-4.7-2.8-7c-0.4-1.1-0.4-2.3-0.6-3.7
		c-2.3,1.1-4.4,2.5-6.7,3.1c-2.3,0.6-4.8,0.5-7.5,0.7c-0.4,1.1-0.7,2.5-1.2,3.7c-1.7,4.9-3.5,9.9-5.3,14.7c-1,2.7-2.8,4.9-5.2,6.8
		c-3.5,2.8-7.5,3-11.2,0.4c-2.8-2-4.7-4.6-5.4-7.9c-0.4-1.7-0.7-3.5-1.1-5.4c-1.1,0.9-2,1.6-2.8,2.3c-4.7,3.7-9.9,3-12.7-2.2
		c-1-1.7-1.7-3.8-1.7-5.8c-0.1-3.8,0.2-7.6,0.5-11.5c0-0.5,0-1,0-1.7c-1,0.4-1.7,0.7-2.6,1.1c-2.7,1.1-5.4,2.2-8.3,3.1
		c-1.8,0.5-2.8,1.5-3.7,3c-1.2,2.2-2.5,4.4-3.9,6.5c-1.6,2.2-3.6,3.9-5.9,5.2c-6.3,3.2-13.1,0.9-15.7-5.7c-1.1-2.6-1.4-5.4-2.1-8.5
		c-0.6,0.6-1.5,1.2-2.2,2c-3.5,3.1-7.1,5.8-11.5,7.6c-5.1,2.1-10.1,2.7-15.2,0.6c-1.2-0.5-2.2-0.2-3.2,0.4c-3.2,2-6.3,4.2-9.6,5.8
		c-17.7,8.6-35.4,2.7-44.5-14.9c-0.5-1-1-2-1.5-3c-4.2,0.2-8.3,0.4-12.4,0.6c-12.7,0.7-25.4,0.4-38.1-0.2
		c-6.5-0.4-13.2-0.4-19.8-0.4c-15,0-30,0-45,0.1c-15.5,0.1-31.2,0.6-46.7,0.7c-22.3,0.1-44.5,0.2-66.8,0.1c-9,0-17.9-0.6-26.9-1
		c-1.6,0-3.2-0.1-4.7,0c-6.7,0.5-11.1-5.2-9.7-11.2c0.1-0.5,0.2-1,0.4-1.7c-2-1.7-3.8-3.6-5.8-5.3c-4.8-4.1-8.4-8.9-9.6-15.2
		c-1.2-5.9-0.7-11.6,2.1-17c2.2-4.2,4.3-8.4,5.1-13.2c0.1-0.9,0.4-1.8,0.9-2.5c1.8-2.5,2.1-5.1,1.6-8c-0.6-2.8-0.7-5.9-1.1-8.8
		c-0.1-1-0.4-1.8-1.4-2.5c-5.9-3.8-7.4-9.6-6.2-16c0.9-4.6,1.2-8.9,0.5-13.4c-0.4-1.7,0.6-3.8,0.1-5.5c-0.5-1.6-2.2-2.7-3.1-4.2
		c-1.7-2.8-2.2-6-1.7-9.4c0.5-3.1,0.9-6.3,1.1-9.4c0.1-0.7-0.2-1.8-0.7-2.3c-6.8-5.5-6.5-16.3-2.7-22.8c0.7-1.4,1.5-2.7,2.3-4.3
		c-2.1-0.6-4.1-1-5.8-1.7c-1.6-0.7-3-2.2-4.6-2.6c-1.6-0.5-3.6,0.1-5.3,0c-5.3-0.5-10.1-5.2-10.5-10.8c-0.4-4.1-0.7-7.8-3.1-11.3
		c-2-3.1-1.6-6.9,0-10.2c0.9-1.8,0.6-3.2-0.2-4.9c-2.5-4.6-2.8-9.1-0.1-13.8c0.4-0.5,0.6-1.4,0.4-1.8c-1.6-4.9,0-9.1,3.2-12.8
		c0-0.1,0-0.1,0.1-0.4c-2.5-3.8-4.8-7.8-7.4-11.6c-4.3-6.2-4.3-11,0.2-17c0.2-0.4,0.6-0.7,1.2-1.5c-1.1-0.2-1.8-0.5-2.6-0.7
		c-2.5-0.7-5.2-1.4-7.5-2.5c-2.8-1.2-4.7-3.6-5.4-6.7c-0.1-0.7-0.6-1.5-1.1-2c-3.2-2.7-4.8-6.3-5.3-10.2c-0.6-4.2-2.2-7.9-4.7-11.3
		c-1.4-1.8-2.6-3.7-3.9-5.5c-5.1-7.1-6-14.7-1.5-22.6c-6.7-10.6-10.2-21.8-7.4-34.6c-0.7-0.2-1.5-0.5-2.2-0.7
		c-5.7-1.7-9.6-6.8-10-12.6c-0.1-2.1,0-4.2,0.4-6.2c0.6-3.8-0.2-7.1-2.7-10.2c-3.6-4.4-6.9-9.1-9.6-14.2c-0.9-1.7-2.5-3.1-3.8-4.4
		c-0.9-0.9-1.8-1.5-2.8-2.1c-6.9-4.9-7.4-12.4-4.7-18.6c1.7-3.9,4.6-7,8.1-9.2c4.4-2.6,5.8-6.3,5.5-11.1c-0.2-4.8,0.2-9.6,2.6-14.1
		c0.6-1.2,0.4-2.1-0.2-3.3c-2.7-4.8-2-9.9,2.1-13.7c0.9-0.9,1.6-1.5,1.8-2.8c0.9-4.7,3.5-8.3,7.5-10.8c2.1-1.4,2.6-2.2,1.6-4.4
		c-1.4-3.2-3-6.4-4.7-9.5c-0.9-1.7-2.5-2.3-4.4-2.1c-3,0.4-5.7-0.7-7.9-2.8c-2.5-2.3-3.6-5.2-2.3-8.5c0.2-0.7,0.5-1.5,0.7-2.2
		c0.7-2.1,0.5-4.1-0.9-5.9c-1.6-2.1-2.3-4.6-2.2-7.1c0.2-4.4,3-7.5,7.4-8.4c0.6-0.1,1.1-0.2,2-0.5c-0.4-1.2-0.5-2.6-1-3.7
		c-1.5-3.5-3.1-6.9-4.6-10.2c-1.7-3.6-3-7.3-2.8-11.3c0.2-6.5,4.7-11.6,11.2-12.1c4.4-0.4,8.9-0.1,13.3-0.1c1.8,0,3.7,0.1,5.7,0.1
		c252.3,0,504.6,0,756.9,0c2.2,0,4.3-0.1,6.5-0.1c7.5,0,12.1,6.3,9.2,13.3c-2.3,5.8-1,10.5,2.6,15c3,3.7,6.5,6.5,10.6,8.9
		c3.9,2.2,7.1,5.2,9.6,9c3.2,4.9,4.6,10.2,4.1,16c-0.2,2.6-1.1,4.8-3,6.7c-1.2,1.2-2.6,2.5-3.9,3.6c-6.4,5.3-9.5,12.2-10.2,20.2
		c-0.6,6.9,0.4,13.6,2.5,20.1c3.3,10.8,7.6,21.3,12.9,31.4c3.7,7.1,9.5,11,17.1,12.1c5.9,0.9,12,1.4,17.9,2.3
		c15.3,2.6,25,13.1,26.5,28.6c0.5,5.2,0.7,10.5,0.9,15.7c0.1,6,2.6,11.1,6.9,15.2c5.2,5.1,10.6,10,16,14.9
		c5.9,5.4,10.6,11.8,13.8,19.4c2,4.8,3.9,9.7,7.5,13.9c3.7-0.9,7.5-0.7,11.3,0.1c11,2.2,19.2,10.5,21,21.4
		c0.9,5.2-0.1,10.4-1.2,15.5c-1,4.7-2.2,9.4-2.8,14.2c-0.6,4.1-0.6,8.3-1,12.3c-0.4,3-0.6,5.9-1.4,8.8c-1.7,6.7-5.8,11.8-11.5,15.7
		c-1.1,0.7-2.3,1.6-3.6,2.1c-6.8,3.3-9.9,9-10.8,16.1c-0.5,4.3-0.9,8.6-1.7,12.8c-2.7,12.1-10.5,19.6-22.4,22.6
		c-4.1,1-7.8,2.7-11.3,4.8c-5.3,3-10.6,6-16,8.8c-6.9,3.6-14.4,5.1-22.2,5.8c-7.3,0.6-14.5,1-21.7,2.8c-1.8,0.5-3.6,1.1-5.3,2
		c-6.4,3.2-9.2,10-7.3,16.9c1,3.5,3,6.4,5.1,9.2c1.8,2.3,3.6,4.7,5.4,7c6.7,8.6,9.7,18.5,9.5,29.2c-0.1,7.4-0.9,14.8-1.5,22.1
		c-0.4,3.8-2,7.1-4.8,9.9c-5.4,5.2-9.6,11.2-12.8,17.9c-3,6-4.1,12.6-4.7,19.1c-0.1,1.1-0.2,2.1-0.5,3.2
		c-1.6,10.8-8.6,16.6-18.5,18.4c-4.4,0.7-9,0.9-13.6,1.2C812.9,767,810.6,767.3,807.7,767.8z M552.6,785.7c2.5-1.5,3.5-3.1,4.2-4.9
		c1-2.8,2-5.8,2.8-8.8c0.7-2.5,1.4-4.9,2.2-7.4s2.7-3.2,5.8-2.7c2.2,0.4,3.3,1.5,3.3,4.1c0,2.8-0.2,5.7-0.5,8.5
		c-0.2,4.1-0.7,8.3-0.7,12.3c0,1.8,0.5,3.7,1.1,5.4c0.6,1.8,2,2.1,3.3,0.7c1-1,1.7-2.1,2.5-3.3c3-5.2,4.4-11,6-16.6
		c0.1-0.6-0.2-1.6-0.7-2.3c-0.7-1.2-1.8-2.3-2.6-3.6c-3.7-6.3-2.7-14.8,2.1-19.4c2.7-2.7,7.3-3.2,9,2.1c0.7,2.3,1,4.8,1,7.3
		c0,3-0.5,5.9-0.7,8.9c-0.2,3.3,0.7,4.3,3.9,3.6c4.4-1,8.3-3.2,10.2-7.6c2.2-4.9,5.7-8.8,10.5-11.2c5.2-2.7,10.6-3.8,16.3-2.5
		c4.1,1,7.4,3.9,7,8.9c-0.2,2.8-0.6,5.7-1.2,8.4c-0.9,3.7-2.2,7.4-3.2,11.1c-0.2,1.1-0.2,2.2-0.2,3.3c2.5,1,4.2-0.1,5.8-1.2
		c5.2-3.5,9.1-8,12.6-13.2c2.1-3.2,4.3-6.3,6.5-9.5c3-4.3,7-6.4,12.3-6.4c2.3,0,4.7,0,7.1-0.2c7.4-0.7,14.9-1.8,22.3-2.6
		c7.8-0.7,15.5-1,23.3-0.1c18.1,2.1,33.9,9.5,47.1,22.1c6.7,6.4,12.7,13.3,14.9,22.7c0.2,1.1,0.9,2.2,1.5,3.2c0.5,0.7,1,1.5,1.7,2.1
		c2.1,1.8,4.4,1.4,5.5-1.1c0.6-1.4,0.9-3.1,0.6-4.6c-0.7-3.8-1.7-7.4-2.7-11.2c-0.9-3.5-2.1-6.8-2.7-10.2
		c-1.7-9.4,2.8-16.8,12.1-19.5c3-0.9,6.2-1.4,9.2-1.7c4.7-0.5,9.4-0.7,14.2-1.2c3.3-0.4,3.5-0.7,3.7-4.1c0.7-9.9,3.2-19.2,7.6-28
		c3.6-7.1,8.4-13.6,13.7-19.6c1.1-1.2,1.6-2.3,1.7-3.9c0.2-4.2,0.5-8.5,1-12.7c0.9-8-0.7-15.3-5.5-21.8c-1.7-2.3-3.7-4.7-5.3-7
		c-2-2.7-3.9-5.4-5.4-8.4c-6.3-12.6-6-24.9,2.7-36.4c4.8-6.2,11.2-10.1,18.7-12.3c6.5-1.8,13.2-2.6,19.8-3
		c11.1-0.6,21.6-3.6,31.1-9.5c2.7-1.7,5.5-3.3,8.4-4.9c3.9-2.2,8.1-4.1,12.6-5.1c7-1.5,9.4-5.5,10.2-11.1c0.6-4.1,1.1-8.3,1.8-12.3
		c1.7-10,6.4-18.1,15.3-23.5c2-1.2,3.8-2.7,5.8-4.1c2.6-1.7,4.1-4.3,4.8-7.3c0.4-1.5,0.6-3,0.7-4.3c0.6-6.3,0.4-12.6,1.7-18.9
		c1.1-4.9,2.2-9.9,3.1-14.8c0.9-4.8-1.1-8.1-5.9-9.2c-2.3-0.5-4.9-0.6-7.3-0.5c-6.3,0.5-11.2-1.6-15.2-6.4c-2-2.3-3.6-4.9-5.1-7.6
		c-1.7-3.1-3.1-6.4-4.4-9.6c-2.6-6.2-6.4-11.2-11.3-15.7c-5.1-4.4-9.9-9-14.7-13.7c-8.3-8-12.8-17.5-12.6-29.2
		c0.1-3.9-0.2-7.9-0.6-11.8c-0.7-8.4-4.4-12.4-12.7-13.9c-0.2,0-0.4-0.1-0.6-0.1c-5.2-0.6-10.4-1-15.5-1.7
		c-13.4-2-23.8-8.4-30.1-20.7c-5.2-10.4-10.1-20.7-13.8-31.7c-2.2-6.5-3.7-13.3-4.4-20.2c-1.7-16.4,3.2-30.3,14.7-42
		c0.6-0.7,1.4-1.4,1.8-2c-1.5-2.7-2-3.3-5.5-5.5c-4.9-3.2-9.4-6.9-13.2-11.3c-4.9-5.5-7.9-12-8.5-19.4c-0.1-1-0.2-1.8-0.4-2.8
		c-253.8,0-507.2,0-761,0c0.4,1,0.6,1.7,0.9,2.3c0.7,2,1.6,3.8,2.3,5.8c3,8.5,2.3,16.4-3.7,23.5c-1.4,1.7-0.7,4.6,1.1,5.8
		c2,1.4,4.2,2.7,5.8,4.6c5.9,6.5,10.1,14.2,11.2,23c1,7.6-1.4,14.2-7.6,19c-0.7,0.5-1.2,1.5-1.6,2.3c-1,2.5-2,4.9-2.8,7.4
		c-0.2,0.6-0.2,1.4-0.1,2c0.5,3.2,0,6.3-1.5,9.1c-2,3.7-2.6,7.6-2.6,11.7c0,1-0.1,2-0.1,3c0.1,8.4-3.5,14.8-10,19.8
		c-0.6,0.5-1.4,1.1-1.6,1.4c2.7,3.5,5.4,6.5,7.8,9.9c3.3,4.8,6.3,9.7,9.6,14.5c3.7,5.4,5.7,11.2,5.1,17.9c-0.1,0.7,0,1.5,0,2.2
		c0.6,0.2,0.9,0.4,1.2,0.5c6.3,1.6,9.6,5.8,10.7,12c0.7,3.8-0.1,7.6-0.5,11.5c-0.9,7.1,0.7,13.6,4.9,19.2c1.5,2.1,3.3,3.8,5.2,5.7
		c2.2,2.3,3.1,4.9,2.3,8.1c-0.9,3.9-3.3,6.4-7.3,7.8c0.9,1.2,1.6,2.5,2.3,3.6c1.4,1.8,2.8,3.6,4.2,5.4c3,4.1,5.3,8.4,5.3,13.6
		c0,1.2,0.5,2,1.5,2.7c1.2,1,2.6,2,3.3,3.3c1,2,2.6,2.6,4.6,3.2c3.3,1,6.5,2.3,8.5,5.4c2,3.1,3.9,6,5.9,9.1c2.3,3.6,2,7.3,0.1,11
		c-0.7,1.5-1.7,2.8-2.6,4.2c1.2,3.7,3.2,6.9,6.2,9.6c3.3,3,4.9,6.8,4.7,11.3c-0.2,3.1-1.7,5.5-3.7,8c2.2,5.3,1.2,10-3,14.1
		c2.2,4.7,2.1,9.5,0.5,14.3c7.6,1.4,12.3,5.8,14.9,12.7c2,0.6,3.9,1.2,5.9,2c5.4,2.2,8.3,6.4,9.1,12.2c0.5,3.7,0,7.3-1.5,10.7
		c-1.1,2.6-2.3,5.2-3.5,7.8c3.9,3.9,5.5,8.8,5.4,14.2c-0.1,3.7-0.5,7.4-0.7,11.3c1.2,0.4,2.7,0.9,4.1,1.2c4.1,1.1,6.2,3.8,6.2,7.9
		c0,3.6-1.2,6.7-4.1,8.9c-1.6,1.2-2.1,2.6-1.4,4.6c0.7,2.1,0.7,4.2,0.2,6.4c-0.2,1-0.2,2-0.4,2.8c3.8,3,5.1,4.9,5.5,8.8
		c0.7,6.4,1.6,12.9,2.3,19.4c0.5,4.7,0.2,9.2-2,13.6c-0.7,1.5-1.5,3.1-1.8,4.7c-1,4.3-2.6,8.4-4.9,12.3c-2.2,3.7-1.7,6.5,1.2,9.7
		c0.5,0.6,1.1,1.1,1.7,1.7c4.4,3.8,8.9,7.6,10.5,13.4c0.6,0.1,1.1,0.1,1.5,0.1c16.4,0.4,32.9,0.9,49.3,1.1c10,0.1,19.8-0.2,29.8-0.4
		c9.2-0.1,18.5-0.2,27.7-0.4c13.7-0.2,27.4-0.6,41-0.5c20.2,0,40.4,0.4,60.6,0.6c4.3,0,8.6,0.1,12.9,0.5c11.5,1.2,23,2,34.5,1.4
		c6.3-0.4,12.4,0.2,18.6,0.6c3,0.1,4.4,1.7,4.7,4.4c0.2,2.7-1.1,4.3-3.9,5.1c-3.9,1.1-8,2.1-12,3.2c-0.9,0.2-1.8,0.5-2.8,0.9
		c1.2,3.2,3.1,5.7,5.2,7.9c6.2,6.2,13.3,8.4,21.8,5.9c3.9-1.2,7.6-3.1,11.2-5.3c0.6-0.4,1.2-1,1.7-1.4c-1.1-2.2-2.2-4.2-3.1-6.3
		c-2.2-5.4-3.2-11.1-3.8-17c-2.1-21.8,1-42.9,10.2-62.9c2.3-5.1,4.9-10.1,8.6-14.4c2.7-3.1,5.7-5.7,9.6-7c8.4-3,15.3,0.4,17.9,8.9
		c1,3.3,1.4,6.8,1.6,10.2c0.5,8.9-1.1,17.5-3.3,26c-3.9,14.4-8.1,28.8-12.3,43.1c-1.8,6.2-4.4,12-8.8,16.9c-0.1,0.1,0,0.4,0,0.6
		c3.7-0.2,6.9-1.8,9.6-4.2c3.6-3.2,6.9-6.8,10.4-10.1c1.4-1.2,1.6-2.6,1.2-4.4c-1.5-7.1,2.2-13.8,9.1-16.6c7.1-3,14.8-1,19,5.1
		c2.3,3.3,3.3,7.1,3.5,11.1c0.1,2.7,0,5.5,0,8.3c0,1.8,0.6,2.3,2.3,2.1c0.7-0.1,1.6-0.1,2.3-0.5c3.2-1.7,6.4-3.3,9.5-5.3
		c2-1.2,4.4-2,6.3-0.9c2,1.1,2.3,3,2.2,5.1c0,0.6-0.1,1.2-0.2,1.7c-0.5,3.6-1.1,7.1-1.5,10.8C552.3,780.5,552.6,782.9,552.6,785.7z
		 M494,687.1c-3-0.2-5.4,0.5-7.4,2.3c-1.8,1.7-3.6,3.7-4.7,6c-4.2,8.5-7.4,17.4-8.8,26.9c-1.6,11.2-1.5,22.4-0.5,33.6
		c0.2,3.1,0.9,6.2,1.2,9.1c1.1-0.7,1.7-1.5,2.1-2.3c1.2-3,2.7-5.9,3.6-9c3.2-11.1,6-22.2,9.1-33.3c2.1-7.3,3.9-14.7,4.8-22.2
		C494,694.5,494.8,690.9,494,687.1z M614.6,774.3c0.1,1.4,0.2,2.7,0.5,4.1c0.5,2.7,2,3.3,4.4,2.1c1.8-1,3-2.6,3.7-4.4
		c2.2-5.2,4.4-10.5,6.5-15.8c0.9-2.2-0.2-3.6-2.7-3.7c-2.7-0.1-4.7,1.1-6.5,2.8C616.3,763.5,614.7,768.6,614.6,774.3z M522.1,764.5
		c0.2-1,0.5-1.6,0.5-2.2c0-3.8-0.4-7.6-1.8-11.2c-1.6-3.8-4.9-4.2-7.6-1c-1,1.2-1.5,2.6-1.4,4.1c0.1,2.1,1,3.9,2.5,5.5
		C516.6,761.7,519.1,763.1,522.1,764.5z M519.3,775.6c-3.9-1.6-7.8-3.2-12-4.9c-0.2,2.5-0.5,4.8-0.5,7.3c0,2.2,1.1,4.1,3.2,4.9
		c2.1,0.9,4.1,0.1,5.7-1.4C517.6,780,518.8,777.9,519.3,775.6z M586.1,753.3c-3.1,3-3,4.7,0,6.7
		C586.1,757.8,586.1,755.9,586.1,753.3z"/>
</g>
</svg>
