<?xml version="1.0" encoding="utf-8"?>
<!-- Generator: Adobe Illustrator 23.0.4, SVG Export Plug-In . SVG Version: 6.00 Build 0)  -->
<svg version="1.1" id="Layer_1" xmlns="http://www.w3.org/2000/svg" xmlns:xlink="http://www.w3.org/1999/xlink" x="0px" y="0px"
	 viewBox="0 0 1008 1008" style="enable-background:new 0 0 1008 1008;" xml:space="preserve">
<g>
	<path d="M109.5,247.2c0,137.5,0,274.8,0,412.2c272.5,0,545,0,817.5,0c0-98.1,0-196,0-294.1c-1.6-0.6-3-1.1-4.5-1.6
		c-6.9-2.4-12.5-6.6-17.1-12.3c-2.4-3-4-6.2-3.7-10.1c0-0.5,0-1-0.1-1.6c-0.6-0.2-1.2-0.3-1.8-0.5c-1.4-0.5-2.9-0.9-4.3-1.5
		c-2.5-1.2-4.4-3-5.3-5.6c-0.9-2.7-2.6-4.7-4.9-6.4c-2.8-2.1-5.3-4.6-7.4-7.5c-3.7-5.4-4.3-11-2-17.1c2-4.9,4.9-9.4,8.1-13.6
		c3.1-4,6.3-7.8,9.6-11.7c0.9-1,2.1-1.7,3.1-2.5c0.2-1.7,0.6-3.4,0.6-5.1c0-1.3-0.7-2.5-1.2-4c-0.9,0.5-1.6,0.8-2.2,1.2
		c-3.9,2.4-8,2.7-12.2,0.8c-4.1-1.9-8.2-3.6-12.4-5c-3.4-1.1-5.7-3.6-6.8-7c-0.8-2.7-3.1-3.8-5-5.3c-0.9-0.7-2.6-0.7-3.9-0.7
		c-14.2-0.1-28.5-0.3-42.7-0.3c-24.2-0.1-48.3-0.3-72.5-0.4c-18.7-0.1-37.4-0.1-56.2-0.1c-13.7,0-27.4,0-41,0.1
		c-9.5,0-19,0-28.6,0.1c-8.7,0-17.4,0.1-26.2,0.2c-18.2,0.1-36.5,0.2-54.7,0.2c-12.2,0-24.5,0.1-36.7,0.1c-19.1,0-38.2,0.1-57.4,0.2
		c-6.9,0-14.2,2.9-18.6,7.2c0.9,2.3,1.9,4.5,2.7,6.8c1.3,3.6,2,7.2,2.1,11c0,1.5-0.1,3.1-0.5,4.5c-1.8,7.3-10.3,11.5-17.3,8.6
		c-3.6-1.5-5.7-4.4-6.6-8c-1-4.4-0.7-8.6,1.6-12.5c1.6-2.7,3.5-5.1,5.3-7.7c0.5-0.7,1.1-1.3,1.9-2.2c-2-2.7-4-5.3-6.2-8.1
		c-0.5,0.8-1,1.5-1.3,2.1c-2.2,3.7-4.3,7.5-7.3,10.6c-2.7,2.8-5.7,5.1-9.8,5.7c-4.5,0.7-7.2-1.4-7.8-5.9c0-0.3-0.1-0.6-0.1-1.2
		c-0.6,0.4-1,0.6-1.4,1c-2.4,2-5.1,2.5-8.1,2.2c-2.3-0.2-4-1.5-5.3-3.4c-1.6-2.3-2.2-4.9-2.4-7.7c-0.1-0.6-0.1-1.3-0.1-2.2
		c-2.4,1.3-4.3,2.8-6.2,4.4c-0.9,0.8-0.2,1.6,0.1,2.4c1,2.5,2.2,5,3.1,7.5c1.2,3.7,1.9,7.5,1.7,11.3c-0.5,10-8.3,13.2-15.2,12.4
		c-4.9-0.6-8.4-4.4-9.3-9.4c-0.8-4.6-0.2-9,2.3-12.9c2-3,4.2-5.8,6.5-9.1c-1.6-2.1-3.4-4.5-5.5-7.2c-0.6,1.1-1,1.9-1.5,2.7
		c-3.2,6.6-6.6,13.1-10.9,19.2c-2.1,2.9-4.5,5.6-6.8,8.4c-0.4,0.4-0.8,0.8-1.2,1.1c-4.3,3.5-9.4,2-11.2-3.4c-0.9-2.6-1-5.4-0.5-8.1
		c1.2-6.4,2.5-12.7,3.8-19c1.6-7.6,3.2-15.2,4.8-22.7c0.2-1,0.3-2.1,0.4-3.2c-0.2-0.1-0.4-0.1-0.6-0.2c-0.9,1.3-1.8,2.5-2.6,3.9
		c-2.4,4.5-4.7,9.1-6.9,13.7c-2.8,5.7-5.5,11.5-8.3,17.3c-1.3,2.6-2.7,5.2-5.1,6.8c-1.2,0.8-2.7,1.5-4.1,1.8
		c-1.8,0.4-3.2-0.6-3.7-2.3c-0.4-1.3-0.5-2.7-0.5-4c0-2.2,0.3-4.5,0.1-6.9c-0.4,0.5-0.8,1-1.1,1.5c-2.1,3.3-4.6,6.3-7.9,8.6
		c-2,1.4-4.2,2.3-6.6,2.6c-3.9,0.5-7.5-2.1-7.1-6c0-0.3,0-0.6-0.1-1.2c-0.6,0.4-1.2,0.7-1.6,1.1c-2.3,2-5.1,2.6-8.1,2.3
		c-2-0.2-3.6-1.2-4.9-2.8c-2.2-2.8-2.9-6.1-2.9-9.5c0-11.6,10-20.5,21.5-19.4c1.2,0.1,2.4,0.4,3.5,0.9c3.4,1.5,5.1,4.3,4.4,7.9
		c-0.7,3.8-1.9,7.4-2.9,11.1c-0.5,2.1-1,4.2-1.4,6.3c-0.2,1.3-0.5,3,1,3.7c1.4,0.7,2.7-0.3,3.6-1.2c2.3-2.2,4.4-4.6,6.4-7.1
		c1.6-2.1,2.9-4.4,4.4-6.6c0.4-0.7,0.8-1.4,1-2.2c0.9-2.6,3.8-3.9,6.1-2.7c0.7,0.4,1.5,1.3,1.7,2.2c0.4,1.4,0.4,3,0.5,4.5
		c0.1,1.8,0.1,3.5,0.2,5.3c0,0.1,0.1,0.3,0.2,0.6c0.9-0.3,1-1.2,1.3-1.8c3.2-6.5,6.2-13.2,9.5-19.7c1.8-3.6,4.1-7,6.4-10.4
		c0.8-1.2,2-2.2,3.2-3.2c3.3-2.8,10.1-1.8,11.5,3.9c1.1,4.4,0.8,8.7,0.1,13.1c-1.4,9-4.2,17.7-6.7,26.5c-1,3.5-1.9,7.1-2.9,10.6
		c-0.1,0.5-0.2,1.1,0.1,1.9c0.8-0.8,1.7-1.6,2.4-2.5c5.4-6.2,9.5-13.3,13.3-20.5c1.1-2.2,2.1-4.5,3.2-6.7c0.4-0.8,0.4-1.5,0.1-2.3
		c-1.5-3.7-1.2-7.5,0-11.3c1.8-5.5,7.7-8.2,13-6c3.6,1.5,4.8,5.1,2.7,8.3c-1.2,1.8-2.5,1.8-3.6,0c-0.3-0.5-1-1.2-1.2-1.1
		c-0.6,0.2-1.3,0.8-1.4,1.4c-0.3,0.9-0.4,1.9-0.2,2.8c0.4,1.7,0.9,3.4,1.6,5c1.5,3.2,3.5,6,5.9,8.8c0.7-0.5,1.3-0.9,1.9-1.3
		c1.5-1.1,2.8-2.4,4.3-3.4c2.9-1.8,5-4.2,7-7c4.4-5.9,10.6-8.4,17.9-7.6c4.7,0.5,7.2,3.1,7.3,7.9c0.1,2.3-0.5,4.4-1.2,6.6
		c-1.1,3.5-2.1,7-3,10.6c-0.3,1-0.2,2.2,0,3.3c0.3,1.6,1.2,2.1,2.6,1.3c1.5-0.8,2.9-1.8,4-2.9c3.6-3.7,6.3-8,9-12.4
		c0.5-0.8,0.6-1.5,0.2-2.5c-1.8-4-1.5-8.1,0-12.2c2.3-6.4,8.6-7.1,12.8-5.6c3.6,1.3,4.8,5,2.8,8.2c-1.2,1.8-2.5,1.9-3.6,0.1
		c-0.4-0.6-0.6-1.5-1.5-1.2c-0.6,0.2-1.2,0.9-1.3,1.5c-0.2,1.2-0.2,2.4,0,3.5c1,4.8,3.9,8.5,6.9,12.5c1.5-1.4,2.9-2.7,4.3-4
		c2.8-2.6,5.5-5.4,8.3-7.9c1.2-1.1,2.7-2,4.1-2.9c1.9-1.2,3.9-1.6,6.2-1.6c7.3,0.1,14.6,0,21.8,0c23.4,0,46.7,0,70.1-0.1
		c9.4,0,18.9-0.1,28.3-0.2c16.6-0.1,33.3-0.2,49.9-0.2c9.4,0,18.9,0,28.3-0.1c12.5,0,25-0.1,37.4-0.2c21.6-0.1,43.2-0.1,64.8-0.2
		c10.8,0,21.6,0.1,32.4,0.2c16.2,0.1,32.3,0.2,48.5,0.3c12,0.1,24,0.3,36,0.4c4,0,7.5,1.2,10.6,3.8c1.4,1.2,2.9,2.3,4.3,3.4
		c1.8,1.4,3.3,3,4.2,5.1c0.4,1,1.1,1.6,2.1,2.1c2.8,1.2,5.5,2.5,8.2,3.9c0.8,0.4,1.5,0.4,2.2-0.1c0.7-0.5,1.4-1,2.1-1.6
		c4.4-3.4,9.3-3.5,14.3-1.9c3.6,1.2,5.6,4.1,6.7,7.7c0.3,1.2,0.8,2.2,1.6,3.1c2.7,2.9,3.4,6.4,3.1,10.2c-0.1,1-0.1,2.1,0.3,3
		c3.5,8.4-2,15.7-10.3,16.7c-3,0.4-5,1.5-6.6,3.9c-2.5,3.8-5.3,7.4-7.8,11.2c-2.2,3.4-1.9,5.4,1.1,8.3c1.6,1.5,3.4,3,5.1,4.4
		c2.5,2.1,4.6,4.7,5.7,7.5c2.8,0.6,5.4,1,7.9,1.8c5,1.7,7.6,6.4,6.7,11.6c-0.1,0.4-0.1,0.8-0.2,1.2c-1.2,2.7,0.2,4.5,2.1,6.2
		c3,2.7,6.4,4.5,10.3,5.5c1.3,0.3,2.6,0.6,3.9,1.1c4.9,1.6,7.8,5.3,8.2,10.4c0.1,0.9,0.1,1.8,0.1,2.6c0,100.4,0,200.8,0,301.2
		c0,0.7,0,1.4,0,2.2c-0.2,3.9-3.2,6.8-7.1,7.1c-0.7,0-1.4,0-2.2,0c-276.5,0-552.9,0-829.4,0.1c-7.1,0-9.1-4-9.3-9.2
		c0-0.6,0-1.3,0-1.9c0-140.2,0-280.3,0-420.5c0-2.1,0.2-4.2,0.8-6.1c0.8-3,3.1-4.5,6.2-4.8c0.8-0.1,1.6,0,2.4,0
		c22.9,0,45.8,0,68.6,0c3,0,5.2-1.2,7.1-3.3c2.7-3.2,4.3-6.9,5.7-10.8c3.1-8.3,8.3-15.1,15.3-20.4c3.6-2.7,7.5-5,12.1-5.5
		c5.1-0.5,8.3,1.3,10.3,6c1.8,4.3,2.1,8.9,1.9,13.4c-0.2,3.4-0.8,6.8-1.2,10.2c-0.1,0.6-0.2,1.2,0.1,2.1c0.9-0.9,1.7-1.8,2.6-2.6
		c4.6-4.3,9.1-8.8,13.8-12.9c2.3-2,5.1-3.5,7.8-5.2c1.5-1,3.3-1.1,5.1-0.9c1.1,0.1,2,0.5,2.4,1.7c0.3,1.1-0.2,2-1,2.5
		c-0.9,0.6-1.9,1.1-3,1.5c-2.6,1.1-5.2,2-7.7,3.2c-1.7,0.9-3.3,2.2-4.8,3.6c-5.1,5-10.1,10-15.1,15.1c-0.1,0.1-0.1,0.3-0.3,0.8
		c0.9-0.1,1.7-0.2,2.6-0.3c2.2-0.3,4.5-0.3,6.7,0.3c2.8,0.8,4.2,2.6,4.3,5.6c0.2,4.7-0.6,9.3-1.6,13.8c-1.8,7.9-3.4,15.8-4.3,23.8
		c-0.6,4.9-0.6,9.7,0.3,14.6c0.2,0.9,0.4,1.9,0.8,2.7c0.8,1.7,1.7,2,3.2,0.8c2.2-1.8,4.2-3.7,6.1-5.8c1.4-1.5,2.3-3.5,3.4-5.2
		c0.9-1.4,1.7-2.9,2.6-4.3c0.5-0.8,1.3-1.6,2.4-1.1c1.2,0.4,1.3,1.6,1.1,2.6c-0.1,0.8-0.4,1.6-0.8,2.2c-3.2,5.3-6.9,10.2-11.5,14.4
		c-1.7,1.6-3.8,2.7-6.1,3.2c-3.7,0.8-6.9-0.6-8.2-4.1c-0.8-2.2-1.2-4.6-1.4-7c-0.6-7.5,0.3-15,1.6-22.4c1.2-6.8,2.6-13.5,3.8-20.3
		c0.4-2.1,0.6-4.3,0.7-6.4c0-1.9-0.6-2.4-2.4-1.9c-3.1,0.9-5.6,2.7-7.6,5.2c-0.5,0.6-0.6,1.6-0.9,2.5c-2.3,7.5-4.4,15-6.9,22.4
		c-2.5,7.3-6.1,14.1-10.9,20.1c-1.1,1.4-2.5,2.7-4,3.7c-0.9,0.7-2.1,1.1-3.3,1.4c-3.3,0.6-5.6-1-6.1-4.4c-0.5-3.1,0.1-6,0.8-9
		c1.6-7,4.6-13.5,8.3-19.6c3.9-6.2,8.2-12.2,12.4-18.3c1.4-2.1,2.7-4.1,3.3-6.6c2-7.8,4.2-15.6,4.7-23.7c0.1-1,0-1.9,0.2-2.9
		c0.6-2.8-2.7-5.9-5.6-6c-2.8-0.2-5.2,0.8-7.4,2.4c-5.9,4.3-10.2,9.9-12.5,16.9c-2.4,7.5-5.6,14.6-9.1,21.7c-2,4.1-5.2,6.2-9.9,5.6
		c-0.7-0.1-1.4-0.1-2.2-0.1c-19.3,0-38.6,0-57.8,0C111.5,247.2,110.6,247.2,109.5,247.2z M345,260.6c-3.8,3.6-6.5,7.5-7,12.5
		c-0.2,1.8,0.3,3.6,0.7,5.4c0.5,1.9,1.9,3.2,3.9,3.4c1.9,0.2,3.4-0.8,4.5-2.3c0.6-0.8,1-1.8,1.3-2.8C350,271,347.6,265.9,345,260.6z
		 M411.6,260.6c-3.6,3.3-6.2,7-6.9,11.6c-0.3,2,0,4.1,0.5,6.1c0.5,1.9,1.9,3.4,4,3.6c2.1,0.2,3.7-1,4.8-2.7c0.5-0.7,0.8-1.6,1-2.4
		C416.6,270.9,414.2,265.9,411.6,260.6z M368.5,252.2c0.1,1.2,0.2,2.4,0.4,3.5c0.5,2.1,1.7,2.7,3.5,1.5c1.2-0.8,2.3-2,2.9-3.3
		c2-4.4,3.8-9,5.6-13.4c0.1-0.2,0.1-0.5,0.2-0.7c0.2-1-0.2-1.7-1.3-1.9c-2.3-0.4-4.2,0.2-6,1.7C370.2,242.9,368.5,247.2,368.5,252.2
		z M263.9,238.3c-2.7-0.9-4.9-0.7-6.9,0.8c-5.7,4.4-6.7,11.1-5.5,17c0.3,1.5,1.3,2,2.7,1.4c0.9-0.3,1.7-0.9,2.3-1.6
		c0.8-1,1.5-2.1,2-3.2c1.7-4.1,3.4-8.3,5-12.4C263.8,239.7,263.8,239.1,263.9,238.3z M206.6,250.5c-0.5,0.6-0.8,1-1.1,1.4
		c-4.8,7.1-8.8,14.6-11.7,22.7c-0.9,2.5-1.5,5.2-2.1,7.8c-0.3,1.1-0.4,2.3,0.1,3.5C195.4,282.9,206.3,256.9,206.6,250.5z"/>
</g>
</svg>
