<?xml version="1.0" encoding="utf-8"?>
<!-- Generator: Adobe Illustrator 23.0.4, SVG Export Plug-In . SVG Version: 6.00 Build 0)  -->
<svg version="1.1" id="Layer_1" xmlns="http://www.w3.org/2000/svg" xmlns:xlink="http://www.w3.org/1999/xlink" x="0px" y="0px"
	 viewBox="0 0 1008 1008" style="enable-background:new 0 0 1008 1008;" xml:space="preserve">
<g>
	<path d="M814.4,793.1c-0.1-1.3-1.4-1.7-2.2-2.3c-4-3.1-7.1-6.9-8.7-11.8c-1.8-5.5-5.4-9.3-10.2-12.2c-3.3-2-6.6-3.9-9.8-6.1
		c-2.8-1.9-5.4-4-7.9-6.2c-3.2-3-5.5-6.6-6.7-10.9c-1.5-5.3,1.6-9.7,7-10.1c3.7-0.2,7.3,0.4,10.9,1.5c2.9,0.9,5.7,2,8.6,2.8
		c2.1,0.6,4.3,1.1,6.5,1.4c2,0.3,3.9-0.5,4.9-2.4c2.2-4.1,5.7-6.4,10.6-7.4c-1.1-0.8-1.8-1.3-2.5-1.9c-3.8-2.8-3-7.7-0.9-10.2
		c2.2-2.5,5-3.4,8.2-2.9c3.2,0.5,6.3,1,9.5,1.4c1.6,0.2,3.1,0.3,5.3,0.5c-0.8-1.3-1.4-2-1.9-2.8c-2.2-3.7-1.9-6.4,1.2-9.5
		c1.2-1.3,2.6-2.3,3.9-3.5c0.7-0.6,1.4-1.2,2-1.8c-1.3-4-6.1-15.6-7.4-17.4c-0.9,0.9-1.8,1.8-2.7,2.7c-4.4,4.6-8.8,9.3-13.2,13.9
		c-2.1,2.2-4.5,4.1-6.8,6.1c-0.6,0.5-1.3,0.9-2,1.3c-9.3,5.6-17.5,3.9-23.9-4.7c-0.4-0.5-0.8-1-1.1-1.6c-1.1-1.7-2.5-2.9-4.5-3.2
		c-0.5-0.1-0.9-0.3-1.4-0.4c-11.7-2.7-16.8-15.9-12-26.4c2.5-5.4,6.6-9,12-11.1c2.4-0.9,4.9-1.4,7.4-2.1c0.7-0.2,1.5-0.4,2.3-0.5
		c-0.3-1.6-0.6-3-0.7-4.4c-0.5-6.2,4.1-10.4,10.2-9.4c1.6,0.3,3.1,0.8,4.6,1.2c1.4,0.3,2.8,0.5,4.3,0.7c0-0.8,0.2-1.3,0.1-1.6
		c-2.9-6.6-4.9-13.5-6.9-20.4c-1.6-5.4-3.2-10.7-4.6-16.1c-1.2-4.6-3.6-8.4-7.4-11.4c-12.7-10.3-19.4-23.8-21.6-39.9
		c-1.4-10.1,0-19.8,3.7-29.2c1.8-4.6,3.9-9.1,5.9-13.7c2.1-5,4.3-10,5.4-15.4c0.2-0.8,0.2-1.5,0.4-2.6c-1.1-0.2-2-0.4-2.9-0.4
		c-1.4-0.1-2.9,0-4.3,0c-92.3,0-184.6,0-277,0c-1.8,0-3.5,0.1-5.3-0.1c-3.5-0.2-5.6-1.9-6.5-5.3c-0.5-1.8-0.8-3.7-1.2-5.6
		c-1.8-9.3-2.8-18.7-3.6-28.1c-0.2-2.7,0-5.4,0.5-8.1c0.7-4.3,3.2-7.2,7.4-8.6c0.9-0.3,1.7-0.7,2.5-1c0.5-2.1-0.6-3.6-1.3-5.2
		c-1.3-3-1.8-6.1-1.8-9.3c0-7.5,5.1-13.7,13.1-13.3c0.6,0,1.2-0.1,2-0.1c0.2-19.7,4.7-37.8,20.2-51.7c-0.7-1.1-1.3-2.1-2-3.1
		c-3-5.2-3.5-10.6-1.3-16.1c2.1-5.2,5.8-8.9,11.6-9.5c2.7-0.3,4-1.7,4.5-4.1c0.3-1.4,0.8-2.8,1.2-4.1c1.5-5.1,4.8-8.6,9.5-10.8
		c2.9-1.3,5.9-2.4,9.1-3.7c0.1-1.1,0.3-2.1,0.4-3.2c0.2-1.6,0.2-3.2,0.4-4.8c0.6-4.9,3.2-8.6,7.3-11.3c0.9-0.6,1.9-1.1,3.2-1.9
		c-0.9-0.5-1.5-0.9-2.1-1.3c-0.1-0.1-0.3-0.1-0.5-0.1c-7.6-3.1-10.8-10-7.8-18.6c2.2-6.4,7-10.2,13.4-11.9c2.4-0.7,5-0.8,7.6-1.1
		c2.1-0.2,4.2,0,6.2-0.1c3.7-0.1,4.2-0.7,5.2-5c-8.7-5.8-14-14.7-20.3-22.7c-1.5-2-2.5-4.5-3.3-6.9c-1.8-5.4-0.7-10.4,2.9-14.9
		c0.6-0.7,1.2-1.5,1.8-2.1c-0.2-1.3-1.2-0.9-1.9-1c-2-0.4-4.2-0.4-6.1-1.1c-7.8-2.7-10.2-10.5-7.3-17.1c0.9-2,2.3-3.8,3.7-5.6
		c0.9-1.3,2.1-2.4,3.3-3.8c-0.8-0.8-1.5-1.7-2.3-2.4c-5.6-4.7-7.4-10.6-5.7-17.6c1.1-4.8,3.5-8.9,7.1-12.2c1.9-1.7,3.8-3.4,5.7-5.2
		c1.7-1.7,3.3-3.5,4.1-5.8c0.1-0.4,0-0.9,0-1.9c-3.1,3.1-5.9,5.8-10.1,6.3c-3.9,0.5-7.6-0.1-11-2.3c-3.5-2.4-5.1-6-6.7-9.8
		c-145.1,0-290,0-435,0c-0.6,0-1.2,0.2-1.8,0.3c-0.9,3.6-1,16.5-0.2,21c6.7,1.3,10.2,2.7,10.7,13.3c1.2,0.5,2.6,1,3.8,1.6
		c7.7,3.9,9.2,13.3,2.8,19.2c-1.7,1.6-3.9,2.7-6.1,3.7c-2,1-4.2,1.4-6.3,2.2c-1.5,0.5-3,1-4.5,1.7c-1.7,0.8-2.7,2.2-2.6,4.2
		c0,1,0,1.9,0,2.9c0,36,0,72,0,108c0,1,0,1.9,0,2.9c-0.1,2.3,1,3.6,3.1,4.2c1.2,0.3,2.5,0.7,3.7,0.9c7.4,1.4,13.4,5.1,17.9,11.2
		c1.5,2.1,2.9,4.2,4.3,6.4c2.6,4.1,5.4,7.9,8.8,11.4c1.3,1.4,2.6,2.8,3.8,4.3c4.3,5.2,5.4,11.1,4,17.6c-0.6,2.6-1.2,5.3-1.9,8.3
		c1.4,0,2.4,0.1,3.5,0c2.9-0.2,5.4,0.5,7.5,2.5c2.2,2.1,2.8,4.6,1.6,7.4c-0.5,1.2-1.2,2.3-1.5,3.5c-0.5,1.8,0.2,3.1,2,3.7
		c0.7,0.3,1.6,0.3,2.3,0.6c2.9,1.1,4.8,3.2,5,6.4c0.2,3.1-1,5.6-3.8,7.2c-0.8,0.5-1.7,0.7-2.6,1.1c0,1.2,0,2.2,0,3.4
		c1.1,0.3,2,0.6,2.9,0.8c3.5,0.6,5.8,2.7,7.1,5.8c0.8,1.9,1.4,3.9,1.8,5.9c3.6,17.9,8.6,35.4,13.6,52.9c1.1,3.8,2.1,7.7,2.4,11.7
		c0.3,5.1-0.4,9.9-3.8,14c-1.5,1.8-2.2,3.9-1.8,6.3c1.4,7.9,0,15.6-2,23.2c-2.2,8.9-6.1,17.2-10.2,25.3c-4.3,8.4-8.8,16.7-13.1,25.1
		c-0.9,1.7-1.7,3.5-2.6,5.5c0.6,1.3,1.1,2.8,1.8,4.2c3.4,7,3,13.6-1.7,19.8c-1.2,1.7-2.4,3.4-3.5,5.1c-2.3,3.6-2.3,7.1,0.4,10.7
		c4.3,5.9,7,12.5,8.2,19.8c0.9,5.2,0.7,10.5,0.3,15.8c-0.3,3.4-1.9,6.4-3.8,9.4c0.4,0.7,0.8,1.4,1.2,2c1.6,2.4,2,5.1,1.4,7.8
		c-0.6,2.8-1.3,5.6-2.4,8.3c-1.4,3.2-3,6.4-5,9.3c-6.5,9.9-13.2,19.7-19.8,29.5c-0.9,1.3-1.7,2.6-2.5,3.9c0.4,0.5,0.5,0.9,0.7,0.9
		c4.5,1.6,8,4.5,11.7,7.4c3.3,2.6,6.6,5.1,10.8,6c1.1,0.2,2.2,0.4,3.3,0.6c1.8,0.3,3.5-0.2,4.9-1.5c1.2-1.1,2.4-2.2,3.7-3.1
		c1.1-0.7,2.7-0.5,3.6,0.3c1,0.9,1.2,2.6,0.3,3.9c-0.4,0.7-0.9,1.3-1.6,1.8c-0.9,0.6-1.9,1.1-3,1.5c-3.4,1.2-7,1.4-10.4,0.3
		c-3.3-1-6.6-2.4-9.8-3.8c-3.1-1.4-6-3.1-9-4.5c-2-1-4.1-1.7-6.1-2.7c-2.7-1.3-4.7-0.8-6.8,1.4c-3.5,3.5-7.8,4.8-12.8,3.8
		c-0.8-0.2-1.6-0.4-2.3-0.7c-2.6-1.3-3.5-3.7-2.4-6.5c0.9-2.2,2.5-3.8,4.7-4.5c2.3-0.7,4.6-1.3,7-1.5c2.5-0.2,4.2-1.3,5.5-3.3
		c3.3-4.7,6.8-9.3,10-14.1c5.1-7.6,10.1-15.2,14.9-22.9c1.9-3,3.3-6.2,4.8-9.4c0.4-0.8,0.4-1.8,0-2.9c-1.2,1.7-2.3,3.3-3.5,5
		c-2,2.9-4.2,5.6-7.1,7.8c-2.8,2.1-5.8,3.3-9.4,2.9c-0.8-0.1-1.6-0.2-2.3-0.5c-2.6-0.9-3.8-2.9-3.4-5.6c0.3-2.1,1.3-3.9,2.7-5.5
		c3.8-4.4,8-8.3,13.3-10.8c0.7-0.3,1.4-0.8,2.3-1.3c1.4-7.4,1.8-14.8,0.9-22.3c-0.5-3.7-1.9-7.1-3.9-10.2c-1.1-1.7-2.2-3.5-3.4-5.3
		c-5.1-8-3.8-18.9,1.4-24.7c1.3-1.4,2.3-3.1,3.4-4.7c1.4-2.2,1.6-4.5,0.5-6.8c-0.4-0.9-0.8-1.7-1.3-2.6c-2.3-4-2.4-8.2-0.9-12.5
		c0.7-1.8,1.4-3.6,2.3-5.3c3.1-6,6.2-11.9,9.3-17.9c3.2-6.3,6.5-12.5,9.5-18.9c2.6-5.5,4.4-11.3,5.6-17.3c0.9-4.6,1-9.2,0.6-13.8
		c-0.1-1.3-0.2-2.5-0.2-3.8c-0.1-2.8,0.6-5.4,2.3-7.7c0.7-0.9,1.3-1.9,1.8-2.8c1.5-2.4,2.2-5,1.5-7.8c-0.4-1.7-0.7-3.4-1.3-5.1
		c-5.2-17.1-10-34.4-13.6-51.9c-0.2-1.1-0.7-2.1-1-3.3c-1-0.2-2-0.3-2.9-0.6c-5-1.4-7.8-4.8-8.6-9.8c-0.2-1.4-0.3-2.9-0.3-4.3
		c-0.1-2.6-0.2-5.1-1.2-7.5c-0.5-1.3-0.9-2.9-0.5-4.2c0.8-3.1-0.3-5.6-1.6-8.4c-1.3-0.2-2.7-0.4-4.1-0.7c-2.9-0.6-4.8-2.3-5.7-5.2
		c-1.3-3.9-1-7.9-0.4-11.9c0.5-3,1.1-6,1.7-9c0.8-3.8-0.3-6.9-3.1-9.5c-4.8-4.5-8.7-9.8-12.1-15.4c-0.7-1.1-1.4-2.1-2.2-3.2
		c-2.4-3.2-5.4-5.3-9.2-6.5c-3.1-0.9-6.1-1.9-9-3.2c-4.1-1.7-7.2-4.7-9-8.9c-0.8-2-1.3-3.9-1.3-6c0-3.5,0-7,0-10.6
		c0-34.9,0.1-69.8-0.1-104.6c0-8.6,4.2-14.1,11.2-18c1.5-0.8,3.2-1.5,4.8-2.2c-1-1.8-2.1-2.8-4.3-2.7c-1.2,0.1-2.5-0.3-3.7-0.7
		c-4.9-1.7-6.3-3.6-6.3-8.9c0-13.4,0-26.9,0-40.3c0-2.9,0.8-5.3,2.9-7.3c1.5-1.4,3.1-2.2,5.1-2.3c1.3,0,2.6,0,3.8,0
		c148.6,0,297.3,0,445.9,0c1.4,0,2.9,0,4.3,0.1c3.4,0.3,5.6,2.4,6.2,5.7c0.3,1.4,0.3,2.7,0.5,4.7c1.1-0.9,1.8-1.5,2.4-2.1
		c3.9-3.4,8.6-4.3,13.5-3.2c5.7,1.3,8.9,5.4,10.4,10.8c1.4,5.4,0.7,10.6-2.3,15.2c-1.8,2.8-4.1,5.3-6.3,7.8c-1.5,1.7-3.3,3-4.9,4.6
		c-1.1,1.1-2.2,2.4-3,3.7c-1.3,2.1-0.9,3.5,0.8,5.1c0.7,0.6,1.6,1.1,2.3,1.7c6.2,4.8,7.6,12,3.6,18.8c-0.8,1.4-1.8,2.6-2.9,4.1
		c1.3,0.4,2.2-0.1,3.1-0.5c3.3-1.5,6.7-2.2,10.3-1.7c7.9,1.1,12.5,8.2,10.1,15.9c-1.8,5.7-5.8,9.4-11,12.1c-1.4,0.7-2.9,1.4-4.2,2.2
		c-1.4,0.9-1.7,2.3-0.9,3.8c0.5,1,1.2,1.9,1.9,2.8c2.9,3.7,5.7,7.3,8.6,10.9c0.9,1.1,1.8,2.2,2.8,3.3c1.5,1.6,3.2,2.3,5.6,1.7
		c3.6-0.8,6,0.4,7.7,3.3c1.8,3,1.6,6.8-0.9,9.3c-1.6,1.6-2.3,3.3-2.6,5.4c-0.2,1.4-0.6,2.8-1.1,4.2c-2.2,6.7-6.9,10.2-13.8,10.8
		c-3.8,0.4-7.7,0.5-11.5,0.8c-1.1,0.1-2.2,0.2-3.3,0.5c-0.7,0.2-1.2,0.7-1.8,1.1c0.6,1.4,1.7,1.1,2.6,1.3c1.9,0.4,3.8,0.7,5.6,1.4
		c6.7,2.7,9.4,10.3,6.1,16.8c-2,3.8-5.2,6.5-8.9,8.5c-1.3,0.7-2.6,1.2-3.9,1.8c-1.4,0.7-2.2,1.7-2.2,3.4c0,1.6-0.1,3.2-0.2,4.8
		c-0.2,5.4-2.8,9.5-7.4,12.1c-2.4,1.3-4.9,2.4-7.5,3.2c-3.5,1-5.2,3.3-6,6.7c-0.5,2.3-1.3,4.6-2.4,6.7c-1.9,3.6-4.9,5.8-8.9,6.8
		c-1.4,0.3-2.8,0.6-4.2,0.9c-1.4,0.4-1.8,2-0.9,3.1c1.2,1.4,2.8,2.1,4.5,2.6c1.4,0.4,2.8,0.6,4.2,0.9c3.4,0.8,5.5,3.3,5.7,6.8
		c0.3,3.7-1.3,6.2-4.6,7.6c-0.7,0.3-1.5,0.5-2.3,0.7c-7.2,2.4-12.6,7-16.2,13.5c-4.5,8.1-7,16.8-6.7,26.2c0.1,3.5,0.3,7.1,0,10.5
		c-0.5,5.3-3.7,8.8-8.7,10.4c-1.8,0.6-3.8,0.5-5.7,0.7c-0.6,1.4,0.4,2.4,0.8,3.5c1.3,3.3,2.2,6.7,2,10.3c-0.3,4.8-2.2,8.6-6.8,10.7
		c-1.4,0.7-2.8,1.5-4.5,2.3c0.4,8.5,1.3,16.8,3.1,25.4c1,0.2,2.1,0.5,3.2,0.6c1.6,0.1,3.2,0,4.8,0c92,0,184,0,276,0
		c1.9,0,3.8,0,5.8,0.1c2.7,0.1,4.8,1.5,6.7,3.3c1.5,1.4,1.9,3.2,2,5.2c0.1,4.5-0.3,9-1.7,13.3c-1.7,5.3-3.6,10.6-5.6,15.8
		c-1.5,4-3.4,7.9-5,11.9c-2.4,6-3.9,12.2-4.1,18.7c-0.3,13.6,4.7,25,14.3,34.4c1.5,1.5,3.1,2.8,4.6,4.2c4.3,4,7.3,8.9,9,14.5
		c2.8,9.3,5.7,18.7,8.5,28c0.6,2,1.2,4,1.9,5.9c1.1,3.2,2.8,6.1,5.7,8.1c1.5,1.1,2.5,2.4,3.1,4.1c1.5,4,0.2,7.4-3.6,9.2
		c-3.3,1.6-6.8,2.7-10.5,3.3c-2.8,0.4-5.7,0.7-8.7,1.1c-2,7.6-7.5,10.6-14.8,11.5c-1.7,0.2-3.5,0.6-5.2,1.1
		c-1.9,0.5-3.6,1.5-4.7,3.1c-1.7,2.5-0.9,5.2,1.9,6.2c0.9,0.3,1.8,0.6,2.8,0.8c3.8,0.8,6.7,2.9,9,5.9c1.5,1.9,2.9,3.8,4.3,5.6
		c2.6,0.4,4.1-1.2,5.6-2.6c2.6-2.4,5.1-4.9,7.5-7.4c6.2-6.5,12.2-13.1,18.3-19.6c1-1.1,2-2.1,3-3.1c3.7-3.9,11.5-2.7,12.9,3.6
		c0.2,1.1,0.4,2.2,0.7,3.3c2.4,9.8,5.9,19.3,10.7,28.2c0.3,0.6,0.6,1.1,0.9,1.7c1.9,4.1,2.5,7.9-1.9,11.3c1.2,0.7,2.1,1.4,3,1.9
		c3.3,2,6.6,3.9,9.9,5.8c1,0.6,1.9,1.2,2.7,1.9c4.4,4,3.1,10.7-2.5,12.7c-1.6,0.6-3.4,0.8-5.2,0.8c-6.6,0.2-13.1,0.2-19.7,0.3
		c-0.9,0-1.9,0-3,0c0.1,0.9,0.1,1.5,0.2,2.1c0.7,4.9-1.8,8.5-6.7,9.3c-2.5,0.4-5.1,0.6-7.6,0.8c-1.6,0.1-3.2,0.2-4.8,0.3
		c-2.1,0.1-3.8,0.7-5.2,2.8c-2.6,3.9-6.9,5.6-11.3,6.6c-1.2,0.3-2.4,0.5-4.2,0.9c1.4,1.2,2.3,2,3.3,2.8c3.8,2.9,6.6,6.4,8.6,10.8
		c4.8,10.5,5.7,10.5,15,16c3.4,2,7.1,3.7,10.7,5.5c9.3,4.6,19.1,6.2,29.3,5.3c2.2-0.2,4.5-0.2,6.7,0c4.2,0.4,7.8,2.4,9.7,6.2
		c2.5,5,6.2,8.8,10.7,12.1c7.3,5.4,9.7,13,8.6,21.6c-1.3,10.1-6.2,18.4-14,24.9c-1.8,1.5-3.9,2.8-6.1,3.7c-9.3,4-19.6-0.2-23.5-9.5
		c-1.1-2.6-1.6-5.5-2.2-8.3c-0.5-2.2-0.6-4.4-0.9-6.7c-0.2-1.9-0.8-3.7-2.3-5.3c-1.4,1-2.6,1.9-3.9,2.7c-4.4,3-9.2,4.1-14.5,3.9
		c-8.9-0.4-18.8-10.2-13.8-22.3c0.3-0.7,0.6-1.4,1-2.1c-1.2-1.8-3.1-2.4-4.9-3.1c-25.1-11-49.5-23.1-73.6-36c-3-1.6-5.9-3.2-8.8-4.9
		c-4.8-2.9-9.2-6.3-13.1-10.4c-0.7-0.8-1.5-1.5-2.5-2.5c-1.3,1.3-2.5,2.3-3.6,3.5c-1.3,1.4-1.5,2.8-0.1,4.3c1.4,1.5,3,3,4.7,4
		c2.8,1.6,5.7,2.9,8.6,4.2c4.7,2.1,8.4,5.2,11.3,9.3c2.1,2.9,3.4,6.2,3.4,9.8c0.1,6.3-2.7,11.1-7.9,14.4c-1.2,0.8-2.5,1.3-3.7,1.9
		c0.2,4.4,2.3,7.3,5.9,8.4c1.9,0.6,3.8,0.3,5.5-0.7c1.1-0.7,2.1-1.5,3.2-2.1c3.4-2,7.2-1,9.6,2.4c2,2.8,2.3,7.1-0.7,9.5
		c-1,0.8-2,1.6-3,2.3c-9.4,6.9-19.5,12.9-29.7,18.6c-2.5,1.4-5.2,2.6-7.9,3.4c-8,2.5-15.1-0.5-19.1-7.9c-1.5-2.7-2.4-5.6-2.7-8.6
		c-0.3-3.3-0.6-6.7-0.7-10c-0.3-11.3-11.9-18-19.5-17.1c-2,0.3-4.1,0.7-6,1.5c-2.7,1.3-5.5,2.7-7.9,4.5c-7.4,5.4-14,11.7-19.2,19.3
		c-1,1.4-2,2.9-3.1,4.2c-5.3,6.7-12.2,8.4-20.2,6.5c-2.6-0.6-5.3-1.2-8-1.6c-4-0.6-7.7-1.9-11-4.4c-5.2-3.8-9.5-11.6-6.6-20
		c0.3-0.9,0.5-1.8,0.8-2.8c-2-2.6-4.8-3.6-8-4.6c-0.3,0.9-0.6,1.6-0.8,2.3c-2.8,9.4-11.2,16.3-21,17.1c-4.9,0.4-9.6-0.2-14.1-2.1
		c-7.6-3.1-13.7-8.2-18.5-14.8c-1.8-2.5-2.9-5.3-3.6-8.3c-0.6-3-0.2-5.7,1-8.4c1.9-4.3,6-6.7,10.8-6.5c0.6,0,1.3,0.2,1.9,0.3
		c0.5,0.1,0.9,0.1,1.8,0.1c-0.5-1-0.9-1.8-1.4-2.4c-4.8-5.8-10.8-9.4-18.5-10c-2.9-0.2-5.8-0.4-8.6-0.3
		c-10.3,0.4-17.9-3.9-23.1-12.7c-1.6-2.8-3.3-5.5-5-8.2c-3.7-6-8.8-10.5-15.2-13.5c-3.5-1.6-7-3.1-10.6-4.4
		c-6.8-2.5-13.2-5.7-18.9-10.3c-1-0.8-2.1-1.5-3.1-2.2c-4.4-3-9.1-4.5-14.5-4.1c-4.4,0.3-8.8,0.7-13.7,1.4c0.6,1.4,1,2.4,1.5,3.3
		c1.6,3,3.3,5.9,4.7,8.9c1.4,2.9,1.9,6.1,1.9,9.3c0,4.3-1.7,7.8-5.1,10.3c-3.7,2.8-7.6,5.4-11.3,8.1c-2.2,1.6-4.4,3.2-6.5,4.9
		c-2.4,1.9-4.7,3.9-7.6,4.9c-1.6,0.5-3.4,0.9-5.1,0.9c-3.6,0.1-5.1-1.3-6-4.9c-0.1-0.6-0.3-1.2-0.4-1.8c-8.5,1.6-10.4,0.7-13.2-6.4
		c-1.7,0.5-2.4,2-3.5,3.2c-3.5,3.9-7,7.9-11.3,11.1c-1.4,1.1-2.8,2.2-4.4,2.9c-4.4,2.2-8.6,0-9.1-4.9c-0.2-1.9,0-3.9,0.6-5.7
		c0.9-3,2.2-6,3.4-8.9c3.5-7.9,7.1-15.8,10.6-23.6c0.7-1.6,1.3-3.2,1.9-4.8c-1.4-0.5-1.8,0.4-2.2,0.9c-3.2,4-6.5,7.9-9.6,12
		c-3.1,3.9-6,7.9-9,11.8c-0.8,1-1.5,2.1-2.5,2.9c-1.3,1.1-2.8,2.2-4.3,3c-1.6,0.9-3.4,1.1-5,0c-1.7-1.2-1.5-3.1-1.2-4.8
		c0.2-1.6,0.6-3.1,1.1-5.2c-1.2,0.6-1.8,0.9-2.4,1.3c-2.4,1.9-4.8,3.8-7.8,4.7c-1.2,0.4-2.5,0.7-3.7,0.8c-4.1,0.2-6-1.5-6.7-5.7
		c-0.1-0.3-0.1-0.6-0.2-1c-0.9-0.6-1.8,0.1-2.6,0.3c-5.7,1.2-8.8-0.7-10.4-6.3c-0.2-0.6-0.3-1.2-0.5-2.1c-1.4,1-2.5,1.9-3.7,2.6
		c-2.2,1.3-4.3,2.7-6.6,3.8c-2.2,1.1-4.6,1.2-7,1c-2.7-0.3-4.4-1.8-5.3-4.3c-0.7-2-0.9-4.1-0.5-6.1c0.3-1.6,0.6-3.1,0.9-5
		c-2.2-0.2-3.5,0.8-4.9,2c0.4,2.2,0.9,4.4,1.2,6.6c0.6,4,0.6,8-0.4,11.9c-2.2,8.6-10.1,10.3-16.2,7.7c-3.6-1.5-5.8-5.5-5.6-9.8
		c0.2-3.6,1.1-7,3.6-9.7c1.6-1.8,3.4-3.4,5.1-5c0.8-0.8,1.7-1.4,2.6-2.2c-0.6-2.6-1.8-4.8-3.5-7c-1.3,1.2-2.4,2.3-3.6,3.4
		c-2.6,2.4-5.3,4.7-8.5,6.2c-1.7,0.8-3.5,1.5-5.4,1.9c-4.6,1-7.1-0.4-9.2-4.6c-0.2-0.4-0.5-0.7-1-1.4c-0.9,1.1-1.7,2.1-2.5,2.9
		c-2.3,2.4-4.6,4.9-7.2,7.1c-1.3,1.1-2.9,2-4.6,2.6c-3.9,1.5-7.8-0.3-9.3-4.3c-0.7-1.9-1.2-4-0.6-6.1c0.4-1.3,0.6-2.7,1-4.5
		c-1.6,0.5-2.7,1-3.9,1.2c-5.2,0.8-8.8-0.4-9.8-7.5c-0.2-1.2,0-2.6,0.2-3.8c0.3-1.9,0.7-3.7,1.1-5.8c-2.8-0.5-5.4,0.3-8,0.8
		c-0.5,0.1-1,0.8-1.4,1.2c-1.2,1.3-2.4,2.6-3.7,3.8c-1.7,1.5-3.6,2.6-5.9,2.9c-4.8,0.7-8.6-2-9.4-6.7c-0.5-2.8-0.3-5.5,1.1-7.9
		c1.5-2.6,1.9-5.2,1.4-8.2c-0.8-5.4,1.8-9.6,6.7-11.4c7.7-2.7,15.1,1.4,15.6,9.7c0.2,2.3-0.4,4.7-0.7,7.1c-0.2,1.4-0.4,2.7-0.6,4.1
		c4.1,0.9,6.1,0.7,9.2-1.7c2.1-1.6,4.3-1.9,6.8-1.4c2.3,0.5,3.2,2.1,2.4,4.3c-1,2.7-2.2,5.3-3.2,8c-0.9,2.5-2,5-1.8,8.2
		c0.9-0.2,1.6-0.2,1.9-0.6c1.2-1.2,2.5-2.5,3.5-3.9c2-2.9,3.8-5.9,5.7-8.9c0.9-1.3,1.8-2.7,2.7-3.9c1.1-1.5,2.7-2.2,4.6-2.3
		c2.5-0.1,3.6,1.3,2.7,3.6c-0.6,1.6-1.4,3.2-2.1,4.8c-2.2,5.3-4.5,10.6-6.7,15.9c-0.9,2.2-1.5,4.6-1.3,7c0.1,1.5,1.4,2.3,2.7,1.4
		c1.3-0.9,2.6-1.9,3.6-3.1c3.9-4.7,7.6-9.5,11.4-14.3c0.8-1,1.2-2.3,1.8-3.4c0.7-1.2,1.5-2.5,2.4-3.6c1.1-1.2,3-1.3,4.4-0.5
		c1.3,0.8,1.8,2.1,1.3,3.8c-0.6,1.7-1.4,3.2-2,4.9c-0.7,2.1-1.5,4.2-2,6.4c-0.5,2.3,1.1,3.8,3.4,3.2c1.8-0.5,3.6-1.3,5.2-2.3
		c3.8-2.4,6.9-5.7,10-8.8c0-1.6,0-3,0-4.5c0-3,1-5.7,2.7-8.1c2.6-3.8,7.5-4.8,11.5-2.5c1.7,1,3,2.5,2.9,4.6c-0.1,2-1.1,3.6-3.2,4.2
		c-0.3-0.2-0.6-0.3-0.9-0.4c-0.8-0.5-0.6-1.9-1.9-1.8c-0.9,0.1-1.5,1.1-1.6,3.1c-0.2,4.5,1.5,8.4,3.7,12.5c1-0.3,1.9-0.4,2.7-0.8
		c2.6-1.2,5.2-2.5,7.8-3.8c0.6-0.3,1.1-0.6,1.7-0.8c2.7-0.7,4.9,1.5,4,4.2c-0.5,1.7-1.4,3.2-2,4.9c-0.7,2.1-1.5,4.2-2,6.4
		c-0.4,2.1,0.9,3.3,3,3.2c1.8-0.1,3.4-0.8,4.9-1.8c4.4-3,8.5-6.3,11.6-10.7c2.8-4,6.6-6.4,11.3-7.4c2.9-0.6,5.7-0.4,8.5,0.5
		c4.9,1.6,6.8,5.7,4.7,10.7c-1.2,2.8-2.9,5.3-4.3,8c-0.9,1.9-1.7,3.8-2.3,5.8c-0.5,1.7,0.8,2.9,2.5,2.1c1.6-0.7,3.2-1.6,4.5-2.6
		c3.6-2.7,6.9-5.7,9.6-9.4c1.2-1.6,2.6-2.3,4.5-1.7c1.7,0.4,2.5,1.4,2.5,3.1c0,1.6-0.3,3.2-0.5,4.8c-0.1,0.9-0.2,1.7-0.4,3
		c1.9-0.9,2.6-2.4,3.6-3.6c3.1-4,6.2-8.2,9.4-12.1c2-2.5,4.3-4.8,6.5-7c1.1-1.1,2.5-2.1,3.9-2.7c4.2-2,9.3,0.6,9.3,5.5
		c0,2.5-0.2,5.2-1,7.5c-1.3,4.1-2.9,8.1-4.8,12c-2.8,5.8-5.9,11.3-8.9,17c-0.9,1.7-1.9,3.2-2.3,5.1c0.9,0.8,1.3,0.1,1.8-0.2
		c7-5.4,12.8-12,18.2-19c1.5-2,3.1-4.1,5-5.8c4.8-4.3,10.5-5.3,16.6-3.8c4.9,1.2,6.9,5.2,5.3,10c-0.6,1.8-1.6,3.5-2.5,5.2
		c-1.6,2.9-3.6,5.7-4.3,9.4c0.8,0,1.6,0.2,2.2,0c0.9-0.3,1.7-0.8,2.5-1.4c5.1-3.7,9.4-8.3,11.9-14.2c2.3-5.3,2.2-10.6-1-15.6
		c-0.9-1.5-2-2.9-2.8-4.5c-0.8-1.5-1.7-3.1-2.2-4.8c-2-6.4,0.4-12.3,6.1-15.6c1.8-1,3.8-1.8,5.8-2.2c6.3-1.2,12.6-2.1,19-2
		c6.7,0,13,1.7,18.7,5.3c2,1.3,4.1,2.6,6,4c5.1,3.9,10.8,6.8,16.9,8.9c2.6,0.9,5.1,1.9,7.6,2.9c10.8,4.5,19.3,11.7,25.2,22
		c1.2,2.1,2.4,4.2,3.6,6.2c2.5,4.2,6.3,6.1,11.2,6.2c4.3,0.1,8.6,0.2,12.9,0.7c7.9,0.9,14.6,4.6,20.5,9.7
		c5.3,4.6,9.1,10.3,11.7,16.8c1.1,2.7,1.7,5.5,1.6,8.4c-0.1,5.7-3.3,9.7-8.8,11.1c-1.1,0.3-2.2,0.4-3.3,0.5
		c3.5,4.5,10.5,6.4,15.4,4.3c1.8-0.8,3.2-2.1,4-4c0.6-1.5,1.2-3,1.7-4.5c3-8.7,9.4-11.6,18.2-10.1c6.3,1.1,11.7,4.3,16,9.1
		c4.3,4.8,5.6,10.3,2.7,16.4c-1.3,2.7-0.5,4.8,2.3,5.6c2.4,0.7,5,0.9,7.5,1.2c1.3,0.2,2.6-0.1,3.8,0.1c1.2,0.2,2.4,0.7,3.7,1.1
		c2-0.7,2.7-2.6,3.8-4.1c6.5-9.3,14.4-17.1,23.7-23.6c4.1-2.8,8.4-5.2,13.2-6.8c19.8-6.5,35.6,5.5,41.2,18.1
		c1.7,3.8,2.7,7.8,2.7,12.1c0,2.1,0,4.2,0,6.2c0,2.1,0.4,4.1,1.9,5.6c3.7-0.8,11.5-4.9,15.3-8.1c-0.9-0.9-1.7-1.8-2.5-2.7
		c-5.9-6.5-8.2-17-3.4-26.9c1.4-2.8,3.6-4.4,6.7-4.7c0.8-0.1,1.5-0.1,2.8-0.2c-0.7-1.3-1-2.3-1.7-3.1c-1.7-2-4-3.1-6.3-4.3
		c-3-1.5-6.1-2.9-8.9-4.7c-2.5-1.6-4.9-3.6-7-5.7c-3.1-3.2-4.7-7.2-5-11.7c-0.3-4.3,0.7-8.3,3.8-11.5c0.6-0.6,1.1-1.2,1.6-1.7
		c1.9-1.9,2.9-4.1,2.7-6.9c-0.2-2.3,0.2-4.5,1-6.6c2-5.2,5.8-7.9,11.2-8.5c3.6-0.4,7.4,2.6,7.9,6.2c0.1,0.8,0.1,1.6,0,2.4
		c-0.2,5.1,1.7,9.4,5.1,13c1.7,1.9,3.7,3.6,5.7,5.1c3,2.1,6.1,4.1,9.4,5.7c19.6,9.8,39.2,19.5,58.8,29.2c1.4,0.7,2.7,1.9,4.5,1.4
		c-0.2,0.9,0.3,0.9,1,0.7c0.1,0,0.1-0.2,0.1-0.3C815.1,793.3,814.7,793.2,814.4,793.1z M837.8,824.7c1.5,0.3,2.5,0.8,3.2,0.5
		c1.5-0.5,2.8-1.4,4.2-2.2c1.6-1,3.1-2.2,4.8-3.1c6.7-3.4,12.7-1.3,16.7,2.6c3.1,3,5.1,6.6,6.1,10.7c0.6,2.6,0.7,5.4,1.2,8
		c0.3,2,0.6,4.1,1.2,6.1c0.8,2.2,3,3,5.1,2c1.5-0.8,3-1.9,4.1-3.1c2.9-3.3,4.6-7.3,5.6-11.5c0.9-3.9-0.1-7.3-3-10.1
		c-1.3-1.2-2.6-2.4-4-3.4c-3.7-2.9-6.9-6.2-8.8-10.6c-0.2-0.4-0.5-0.8-0.8-1.2c-1.7,0.1-3.1,0.1-4.5,0.4c-4.8,1-9.5,0.8-14.3,0.1
		c-5.7-0.8-11.2-2.6-16.5-4.8c-0.8-0.3-1.6-1-2.9-0.3C842.1,810.3,842.6,816.9,837.8,824.7z M251.1,742.2c-3.4,1.7-5.4,3.9-6.9,6.6
		c-1.4,2.4-2.2,5-1.4,7.8c1,3.2,4.3,4.2,6.7,1.8c1-1,1.7-2.3,2.2-3.6C253.4,750.7,252.4,746.7,251.1,742.2z M386.5,750.6
		c-2.1-1.7-3.9-1.6-5.8-0.8c-4.5,2.1-8.2,8.4-7.8,13.4c0.1,1.4,1.5,2.2,2.8,1.5c1-0.5,2-1.2,2.7-2
		C381.5,759.1,384.1,755.1,386.5,750.6z M307.5,734c-1.7-2-3.6-1.7-5.6-0.7c-5.2,2.7-7.1,7.4-7.6,12.9c-0.1,1.4,1.1,2.2,2.6,1.9
		c1.5-0.4,2.5-1.3,3.4-2.5c2.4-3.4,4.7-6.8,6.9-10.2C307.4,735,307.4,734.5,307.5,734z M170.8,709.5c1.5-3.2,1.5-6.2,0.9-9.2
		c-0.5-2.6-3.1-3.3-5.1-1.5c-1.6,1.5-1.8,3.9-0.6,6.1C167.2,706.7,168.6,708.2,170.8,709.5z M133.3,676.6c2.8,0.9,4.9-0.3,6.5-2
		c1.8-2,3.3-4.2,4.9-6.4c0.3-0.5,0.8-1,0-1.6c-3.4,1.4-5.6,2.7-8.2,5.4C135.3,673.3,133.7,674.5,133.3,676.6z M160.1,712.7
		c-1.4,1.5-1.7,3.3-1.7,5c-0.1,2.8,2.2,4.4,4.8,3.4c1.8-0.7,3.2-1.9,3.6-3.8C164.5,715.7,162.5,714.3,160.1,712.7z"/>
	<path d="M441.6,739.3c1.4,0.3,4.3,0.7,7,1.5c7.7,2.3,14.9,5.6,21.9,9.4c2.1,1.1,4,2.7,5.7,4.4c4.9,5,5.3,11.8,1.1,17.5
		c-2.1,2.9-13.4,11.9-16.7,13.4c-5.2,2.3-10.2,2-15.1-0.9c-1.1-0.6-2.1-1.4-3.2-2.2c-4.6-3.2-9.6-5.7-15.2-6.7
		c-1.8-0.3-3.3-1.1-4.6-2.4c-2.8-2.8-3.4-6.5-0.9-9.5c2.3-2.8,3.1-5.8,3-9.3c0-0.2,0-0.3,0-0.5C424.8,744.5,431.7,739.4,441.6,739.3
		z M463.4,764c-13.4-7.4-18.5-9.4-23.5-9.5c-0.7,2.9-0.6,5.8-0.5,8.7c2.6,1.3,5,2.6,7.5,3.8c2.6,1.2,4.1,4.1,7.1,4.7
		C457.7,770,460.3,767,463.4,764z"/>
	<path d="M881.5,667c-0.2,3.2-1.4,5.5-3.9,7c-2.4,1.4-4.8,1.5-7.3,0.1c-0.6-0.3-1.1-0.7-1.6-1.1c-0.9-0.9-1.9-1-3-1
		c-1.3,0-2.6,0-3.8-0.4c-3.1-0.9-4.8-3.2-4.9-6.4c-0.3-7.8,4.9-13.5,10.5-14.8c2.1-0.5,4.1-0.3,6.1,0.4c2.6,1,4.5,2.8,4.8,5.5
		c0.3,2.8,1.3,5.2,2.3,7.7C881.1,665.1,881.3,666.2,881.5,667z"/>
	<path d="M848.7,879.5c-3.8,0-7.1-2-8.1-4.6c-1.1-2.8-0.5-6.3,1.8-8.3c2.9-2.5,5.9-4.8,9.1-7c3.1-2.1,7.3-1,9.8,2.1
		c2,2.6,1.9,6.7-0.4,9.3c-0.3,0.4-0.6,0.7-1,1c-2.8,2.1-5.5,4.3-8.4,6.3C850.4,879,849.1,879.3,848.7,879.5z"/>
	<path d="M928.8,695.5c0-1.4-0.1-2.9,0-4.3c0.3-4.2,3.4-7.2,7.4-7.4c3.7-0.2,7.3,2.9,7.6,7.1c0.3,3.2,0.3,6.4,0,9.6
		c-0.3,4-4,7-7.8,6.9c-3.6-0.1-6.8-3.2-7.2-7.1C928.6,698.7,928.8,697.1,928.8,695.5C928.8,695.5,928.8,695.5,928.8,695.5z"/>
	<path d="M940.4,718.9c-0.3,2.2-0.6,4.9-1.2,7.5c-0.8,3.5-4,5.5-8.1,5.2c-3.5-0.2-6.5-2.9-6.4-6.5c0.1-3.5,0.8-7,1.3-10.4
		c0.1-0.7,0.7-1.5,1.2-2.1c1.9-2.2,6-3.2,8.8-2c2,0.8,4.5,2.9,4.4,6.8C940.4,717.8,940.4,718.1,940.4,718.9z"/>
	<path d="M235.2,711.4c0,2.2-2.1,4.1-4.4,3.9c-1.7-0.1-2.9-1.4-2.9-3.1c0-2.4,1.9-4.4,4.1-4.3C233.7,708.1,235.2,709.7,235.2,711.4z
		"/>
	<path d="M279.2,721.1c-0.3,2.2-2.7,4-4.8,3.6c-1.7-0.4-2.8-2.1-2.5-4c0.4-2.2,2.4-3.7,4.4-3.4C278.2,717.7,279.5,719.4,279.2,721.1
		z"/>
</g>
</svg>
