<?xml version="1.0" encoding="utf-8"?>
<!-- Generator: Adobe Illustrator 23.0.4, SVG Export Plug-In . SVG Version: 6.00 Build 0)  -->
<svg version="1.1" id="Layer_1" xmlns="http://www.w3.org/2000/svg" xmlns:xlink="http://www.w3.org/1999/xlink" x="0px" y="0px"
	 viewBox="0 0 1008 1008" style="enable-background:new 0 0 1008 1008;" xml:space="preserve">
<g>
	<path d="M782.7,652.4c-7.6,6.5-15.7,9.3-25.4,4.4c-0.2,2.3-0.3,4.5-0.5,6.7c-0.2,3.2-0.9,6.1-2.9,8.7c-0.4,0.6-0.5,1.5-0.6,2.2
		c-0.2,3.1-1.1,5.8-3.5,7.9c-4.1,3.7-10,3.2-13.3-1.2c-1.1-1.5-1.9-3.1-2.8-4.7c-0.4-0.7-0.8-1.4-1.2-2.1c-4.9,2-9.5,1.9-13.7-1.9
		c-0.1,0.8-0.2,1.2-0.3,1.7c-0.6,7.1-3.4,13.4-7,19.5c-0.6,1-1.4,2-2.1,2.9c-4.1,4.8-8.1,5.7-14.1,3c-0.4,0.6-0.7,1.3-1.1,2
		c-1.8,3.3-4,6.2-7,8.4c-5.9,4.2-12,3.3-15.8-2.9c-1.6-2.5-2.8-5.4-3.6-8.3c-1.5-4.8-2.5-9.7-3.8-14.6c-0.1-0.5-0.6-1.1-1-1.4
		c-2.7-1.6-5.5-3.2-8.5-4.9c-0.6,1-0.7,2.3-0.1,3.5c0.9,1.6,1.9,3.1,3,4.6c4,5.1,6.8,10.9,7.9,17.3c1,6.1-0.6,11.6-4.3,16.5
		c-2.2,2.9-4.4,4-9.2,4.7c-0.2,0.5-0.3,1.1-0.5,1.7c-1.8,6.7-7.1,10.5-14,10.2c-6.4-0.3-11.4-3.2-15.5-8c-0.4-0.5-0.9-1.1-1.6-1.9
		c-0.1,0.6-0.2,0.9-0.2,1.1c-0.5,4.6-2.9,7.2-7.5,8.1c-3.2,0.6-6.2,0.1-9.1-1.2c-3.3-1.4-6.1-3.5-8.8-5.7c-1.2-1-2.4-2.1-3.6-3.1
		c-3.9-3.4-8.3-6.2-13.1-8.4c-2.6-1.2-5.2-2.5-7.5-4.1c-7.3-5.3-9.7-12.8-7.1-21.4c0.9-2.9,1.8-5.8,1.5-9.4
		c-4.4,3.4-8.6,6.7-12.7,9.9c0.6,2.4,1.3,4.8,1.7,7.2c1,6.9-0.9,13.3-4.2,19.3c-1,1.8-2.1,3.6-3.4,5.2c-5,5.8-8,12.4-9.1,20
		c-0.2,1.7-0.7,3.4-1,5.2c-0.1,0.6,0,1.5,0.4,2c3.6,4,3,8.4,1.3,12.8c-1.1,2.9-3.1,5.3-5.5,7.2c-4.2,3.2-7.1,7.3-9.2,12.1
		c-1.3,3-2.9,5.9-5.2,8.3c-2.7,2.8-5.7,4.8-9.8,4.8c-3.6-0.1-8-2.6-8.6-7.2c-0.1-0.6-0.3-1.2-0.4-1.8c-3.2-0.7-6.4-1.4-9.7-2.2
		c-0.1,0.3-0.3,0.9-0.4,1.4c-1.8,7.7-6.4,13.5-12.4,18.3c-3.4,2.7-7.6,4.4-13.9,2.4c-4.5,4.7-9.9,6.7-16.4,4.1
		c-0.1,0.3-0.3,0.5-0.3,0.7c0.1,6-2.5,10.7-6.7,14.6c-4.3,3.9-8.9,7.5-13.5,11.1c-1.5,1.2-3.5,2-5.4,2.5c-4.4,1.1-8.5-1.5-10.2-6.3
		c-0.5-1.4-0.7-2.9-1.1-4.6c-0.9,0.6-1.5,1.1-2.2,1.6c-4,2.7-8.2,4.2-13.1,3.3c-4.8-0.9-7.9-4.1-8.8-9c-0.1-0.6-0.3-1.2-0.5-2.2
		c-0.3,0.5-0.5,0.7-0.6,0.9c-1.9,3.4-4.7,6-7.6,8.5c-1.9,1.7-3.5,3.7-5.2,5.6c-0.5,0.5-0.7,1.2-1,1.9c-0.6,1.1-0.5,2.2,0.2,3.1
		c1.4,1.9,2,4.1,2.5,6.4c0.6,2.5,1.3,4.9,2,7.4c0.1,0.3,0.2,0.6,0.2,0.9c1.8,6.8-2.3,12.4-9.4,12.7c-0.4,0-0.8,0.1-1.2,0
		c-2.7-0.4-4.9,0.3-7,2.2c-1.2,1.1-3.1,1.6-4.8,2c-1.3,0.3-2,0.8-2.6,1.8c-1.5,2.4-2.1,5-1.8,7.8c0.1,1,0.1,1.9,0.2,2.9
		c0.4,3.4-0.6,6.3-3.1,8.7c-1.3,1.3-2.2,2.7-2.7,4.5c-2.5,8.6-8.3,11.8-17.2,10.7c-0.7-0.1-1.4-0.2-2.2-0.3
		c-2.2,5-3.8,10.1-4.1,15.5c-0.7,10-4.7,18.8-9.8,27.2c-1.9,3.1-4,6.2-5.8,9.4c-1.9,3.3-4.5,5.1-8.3,5c-1.9,0-3.7-0.5-5-1.9
		c-1.7-1.8-3.9-2.6-6.3-3.1c-7.5-1.7-11.7-6.8-13.5-14c-0.9-3.6-0.2-7.2,0.4-10.7c0.2-1.3,0.4-2.7,0.6-4.1c-2.9-1.7-5.4-3.7-7.4-6.4
		c-2.1-2.9-3.7-6-4.8-9.4c-0.7-2.3-2.1-3.8-4.3-4.4c-3.4-1-5.4-3.5-6.3-6.7c-1.5-5.4-1.7-10.9-0.2-16.3c0.5-1.9,1.7-3.6,2.7-5.7
		c-0.5-1.5-1.1-3.5-1.7-5.5c-0.8-2.5-0.2-4.7,1.2-6.8c1-1.5,2-3.1,2.9-4.7c0.6-1,0.4-1.8-0.3-2.8c-2-2.8-3.3-5.9-3.4-9.5
		c-0.1-9.5-0.6-19-0.9-28.5c-0.4-11.8-0.9-23.6-1.3-35.5c-0.3-7.6-0.4-15.2-0.7-22.8c-0.4-12.1-0.9-24.3-1.3-36.4
		c-0.3-7.7-0.4-15.5-0.7-23.3c-0.4-11.7-0.8-23.3-1.2-35c-0.3-7.5-0.5-15-0.7-22.5c-0.2-6.6-0.2-13.3-0.5-19.9
		c-0.1-2-0.6-3.9-1.1-5.9c-0.7-2.7-1.4-5.5-0.8-8.3c0.4-1.7,1.1-3.3,1.5-4.3c-1-1.3-1.9-2.4-2.8-3.5c-1.5-1.9-2.1-4-2-6.5
		c0.1-3.8-0.1-7.7-0.2-11.5c-0.2-7.3-0.5-14.7-0.8-22c-0.5-12.1-1.1-24.1-1.6-36.2c-0.3-6.3-0.5-12.6-0.6-18.9
		c-0.1-5.8,2.1-10.5,7.1-13.9c1.6-1.1,2.8-2.6,4.2-3.9c0.9-0.9,1.7-1.9,2.7-2.7c3.6-3.2,8.3-3.6,12.4-0.9c4.4,3,7,7.3,8.5,12.4
		c0.4,1.4,0.7,2.9,1.2,4.9c1.8-3.4,3.3-6.4,3.2-9.9c-0.1-3.3-0.6-6.7-0.7-10c-0.1-2.2-0.3-4.5,0.1-6.7c1-6.4,6.2-10.3,12.7-9.8
		c2,0.2,4,0.8,6,1.2c0-0.1,0-0.2-0.1-0.3c-4-5.8-4.1-12.1-2.2-18.6c2.1-7,6.1-12.8,11-18c5.7-6,12.5-10.7,19.6-14.9
		c2.6-1.5,5.2-2.9,7.7-4.4c0.9-0.5,1.8-1.1,2.6-1.7c1.4-1,1.8-2.4,1.3-4c-0.2-0.7-0.4-1.4-0.7-2c-3.5-8.2-0.6-18.5,7.1-24.2
		c2.3-1.7,4.8-2.8,7.5-3.7c2.7-0.9,5-2.4,6.7-5c-4.3-1.3-6.7-4.2-7.7-8.4c-1-4.2,0.2-7.9,2.4-11.6c-0.2-0.7-0.5-1.4-0.8-2.1
		c-2-5.2-1-10.1,2.1-14.6c1.2-1.7,2.6-3.3,3.8-4.9c1.1-1.5,2.2-2.9,3.4-4.6c-0.7-0.7-1.3-1.3-1.9-1.9c-1-1-2.1-2-3-3.1
		c-1.9-2.6-2.6-5.5-1.7-8.6c0.3-1.2,0.7-2.5,1.3-3.6c2-3.7,3.3-7.6,4.2-11.7c0.4-1.9,1.6-3.8,2.8-5.5c1.7-2.3,3.2-4.6,3.6-7.4
		c0.4-2.4,1.8-4.5,3.6-6.1c1.8-1.6,3.8-3.1,5.9-4.4c2.3-1.4,4.4-2.9,5.8-5.2c2.3-3.9,5.7-6.1,10.5-7c0.2-3.6,0.6-7.2,0.7-10.9
		c0.3-10.8,0.6-21.6,0.7-32.4c0-1.6-0.3-3.2-0.8-4.7c-1.1-3.5-2.7-6.6-5.1-9.4c-5.9-7-11.8-14.1-17.7-21.1c-0.8-0.9-1.7-1.7-2.5-2.6
		c-2-2.3-1.2-4.8,1.7-5.3c1.2-0.2,2.5,0.1,3.7,0.5c1.9,0.7,3.3,2.3,4.5,3.8c5.6,7.1,11.3,14.1,16.9,21.2c1.3,1.7,2.9,3.2,4.6,5.1
		c0-1.7-0.5-2.8-1-3.9c-2.8-6-5.7-12-8.4-18c-3.6-7.9-7.2-15.8-10.7-23.8c-1.1-2.5-1.6-5.3-2.3-8c-0.2-0.6-0.2-1.3-0.2-1.9
		c0.1-3.3,2.9-5.1,5.8-3.6c1.7,0.9,3.5,2.1,4.8,3.5c3.2,3.6,6.5,7.1,9.2,11c5.4,7.7,10.5,15.7,15.7,23.5c1.8,2.7,3.5,5.4,5.5,7.9
		c-0.2-0.5-0.3-1.1-0.6-1.6c-6.4-14.2-12.7-28.5-17.7-43.2c-1.9-5.7-3.4-11.6-4.9-17.5c-0.5-2.3-0.6-4.8-0.3-7.1
		c0.5-4.9,4.8-6.9,8.9-4.2c2.3,1.5,4.4,3.5,6.2,5.6c5,5.6,8.9,11.9,12.6,18.3c5.5,9.4,10.7,18.9,16.2,28.3c2.4,4.1,4.9,8.1,7.4,12.1
		c0.9,1.4,2.1,2.6,3.2,4c1-1.1,1-2.2,0.8-3.1c-0.7-3.2-1.1-6.5-2.2-9.5c-2.7-7.6-5.7-15.1-8.6-22.6c-0.5-1.2-1.3-2.4-2.1-3.4
		c-5.8-6.9-5.9-16.5-0.1-23.3c1-1.1,2.1-2.2,3.4-2.9c4.4-2.3,8.1,0.1,10.1,3.1c1.7,2.6,3.3,5.3,5.2,7.8c1.2,1.6,2.5,3.1,4,4.4
		c1.5,1.3,2.5,0.8,2.8-1.1c0.3-1.3,0.4-2.7,0.2-4c-0.8-3.7-1.7-7.5-2.7-11.2c-0.2-0.8-0.8-1.5-1.2-2.3c-0.5-0.9-1-1.8-1.3-2.8
		c-0.5-1.5,0.2-3,1.6-3.9c1.4-0.9,2.6-0.8,4,0.3c0.5,0.5,1,1.1,1.4,1.6c1.5,1.8,3,3.6,4.5,5.3c0.5,0.6,1.1,1.1,1.7,1.6
		c3.2,2.6,5.6,1.7,6-2.4c0.2-2.5-0.1-5.1-0.5-7.6c-0.6-3.1-1.6-6.2-2.5-9.2c-0.2-0.7-0.7-1.4-1.1-2.1c-1-1.7-0.7-3.3,0.9-5
		c1.2-1.2,2.4-1.5,4.1-0.4c1.8,1.1,3.4,2.4,5.1,3.6c0.6,0.5,1.2,1,2.2,1.3c-0.3-0.8-0.6-1.6-0.9-2.3c-2.8-5.9-5.6-11.8-8.3-17.8
		c-1.8-3.9-3.3-8-3.8-12.3c-0.3-2.2,0.1-4.3,1.6-6c2.1-2.3,4.7-2.9,7.6-1.7c2.5,1,4.7,2.5,6.5,4.5c3.4,3.9,6.9,7.8,10,11.9
		c4.3,5.8,8.3,11.9,12.5,17.9c0.5,0.8,1.2,1.5,1.7,2.2c0.2,0,0.3-0.1,0.5-0.1c-0.2-1.3-0.3-2.7-0.6-4c-1.8-8.6-4.9-16.7-8.7-24.6
		c-0.6-1.3-1.5-2.5-2.3-3.7c-3.3-4.8-4.4-9.9-1.8-15.4c1.7-3.5,4.4-5.9,8-7.1c4.2-1.3,7.6,0.9,8.3,5.2c0.6,3.8-0.7,7.1-3.2,9.9
		c-0.8,0.9-1.7,1.7-2.6,2.6c1,1.9,2.6,3.1,4.4,4c2.1,1,4,0.6,5.3-1.4c1.2-1.9,2-4,2.8-6c0.6-1.6,0.8-3.4,1.2-5.1
		c1.5-6.2,9.9-11.5,16.8-8.4c2.4,1.1,4.8,2.4,6.7,4c3,2.6,3.9,6.4,4.1,10.2c0.3,3.5-0.6,6.8-2,10c-1,2.5-2.3,4.9-3.4,7.4
		c-2.7,6-1.8,10.2,3.2,14.6c4.2,3.8,9.2,6.3,14.2,8.9c1.3,0.7,2.8,0.8,4.2,0.2c3.1-1.2,6.2-2.4,9.3-3.7c2-0.8,3.9-1.8,5.9-2.7
		c9.8-4.4,14.3-5.3,25-4.8c2.7-4,6.5-6.8,11.2-8.3c4.6-1.5,9.3-1.2,14-0.5c0.5-1.1,1-2.2,1.5-3.2c4.2-8.6,13-13,22.6-12.1
		c6.9,0.6,12.5,3.6,17,8.8c1.7,2,3.4,4.1,4.9,6.2c2.4,3.3,5.4,5.9,9,7.8c0.8,0.4,1.5,0.9,2.3,1.3c7.5,3.7,12.7,9.6,15.9,17.2
		c1.4,3.2,2.7,6.3,4.1,9.5c1.4,3.1,3.2,5.9,5.6,8.3c2.1,2.1,4.4,3.1,7.6,2.3c4-1,7.9,1.9,8.6,6c0.2,1,0.2,2.1,0.2,3.1
		c0,75.4,0,150.7-0.1,226.1c0,3.1,0.5,5.3,2.9,7.5c4.4,4.2,4.3,10,0.5,14.7c-1,1.2-2.2,2.4-3.4,3.7c0.5,0.7,1,1.5,1.5,2.3
		c4,6.1,2.3,12.8-4.3,16.1c-0.3,0.1-0.6,0.3-1.1,0.5c0.3,4.5,0.5,9-2.2,13.1c0.8,0.9,1.5,1.6,2.3,2.4c0.6-0.7,1-1.3,1.5-1.9
		c2-2.2,4.5-3.4,7.4-3.2c2.5,0.2,4.3,1.5,5.4,3.8c2.1,4.3,4.3,8.6,6.5,12.9c0.6,1.1,1.2,1.9,2.5,2.4c2.9,0.9,5.6,2.1,8.5,3.1
		c0.4,0.1,0.8,0.2,1.2,0.2c2.3-0.4,4.5,0.2,6.5,1.1c1.2,0.5,2,0.3,3-0.5c2.1-1.9,4.5-3,7.4-2.7c4.5,0.5,7.2,3.2,8.5,7.4
		c1.1,3.9,0.8,7.8-0.4,11.6c-0.5,1.6-0.4,3,0.2,4.6c0.6,1.6,1,3.4,1.2,5.1c0.5,4.5-2.3,7.7-6.8,8.1c-0.8,0.1-1.7,0-2.9,0
		c4,5.6,5.9,11.5,5.7,18c-0.2,6.2-0.5,12.5-4.7,18c0.9,1.7,1.9,3.5,2.9,5.3c2.6,4.6,5.3,9.1,6.5,14.4c0.1,0.3,0.2,0.6,0.4,0.8
		c0.2,0.2,0.5,0.4,0.9,0.7c0.3-0.5,0.5-1,0.8-1.4c0.6-1.2,1.2-2.5,2-3.6c4.2-5.7,11.9-6.4,17-1.5c1.7,1.6,3.4,2.5,5.7,2.5
		c2.1,0,3.7,1,4.9,2.6c1,1.2,1.9,2.6,2.5,4.1c1.4,3.4,3.3,6.6,5.5,9.5c2.3,3,3.6,6.4,3.7,10.2c0.2,4.4,1.6,8.2,4.1,11.8
		c2.4,3.4,3.7,7.2,3.3,11.5c-0.6,6.4-6.9,12.2-13.9,10.5c-0.1,0-0.3,0-0.8,0c-0.6,2.1-1.8,3.8-3.4,5.5c-0.6,0.7-0.4,2.1-0.7,3.7
		c4-2.1,7.6-4,11.2-5.9c1.9-1,3.7-2.2,5.7-3c6.9-2.6,14.1,1.3,15.6,8.6c0.5,2.5,1,4.9,2.4,7.3c1.8,3,0.7,6.9-2.2,9.5
		c-1.4,1.2-3,2.2-4.6,3c-3.2,1.6-6.2,3.5-9,5.8c-1.9,1.6-3.9,3-5.5,5.2c-0.9,1.3-2.5,2.2-4,2.9c-1.2,0.6-1.7,1.2-2,2.4
		c-0.9,3.9-2.5,7.4-5.3,10.3c-1.2,1.3-2.7,2.5-4.3,3.3c-5.4,2.8-11,5.5-16.5,8.2c-2.2,1.1-4.3,1.5-6.7,0.8c-2.1-0.6-3.7-1.8-4.6-3.9
		C783.1,653.1,782.9,652.8,782.7,652.4z M709.8,144.2c-1.5-0.6-2.8-1-4.1-1.7c-7.1-3.6-12.2-9.2-15.5-16.4c-1.3-2.8-2.4-5.7-3.5-8.7
		c-2.4-6.3-6.5-10.9-12.7-13.6c-5.8-2.5-10.3-6.6-13.9-11.8c-1.5-2.2-3.3-4.4-5.2-6.2c-1.3-1.2-2.9-2.3-4.6-2.9
		c-5.6-2-10.8,1.9-10.5,7.9c0,0.8,0.1,1.6,0,2.4c-0.6,5.1-4.8,7.8-9.7,6.4c-1.7-0.5-3.3-1.1-5.1-1.4c-2.6-0.4-5.2-0.9-7.8-0.8
		c-3,0.1-3.8,1.1-4.3,4.1c-1,5.5-5.5,8.1-10.7,6.2c-1-0.3-1.9-0.8-2.9-1c-4.3-1.2-8.5-0.3-12.4,1.2c-3.9,1.5-7.7,3.5-11.6,5.2
		c-3.6,1.5-7.2,3.1-10.9,4.3c-4.7,1.5-9.5,1.4-14.1-0.7c-7.8-3.5-15-8-20.8-14.3c-6.8-7.4-9-15.9-5.7-25.5c0.9-2.7,2.3-5.3,3.3-8
		c0.7-1.9,1.4-3.7,1.8-5.7c0.4-2.1-0.4-3-2.5-3.6c-2.5-0.7-5.8,1.1-6.6,3.5c-0.4,1.1-0.6,2.3-1,3.5c-1,3.3-2.6,6.4-5.4,8.6
		c-2.3,1.8-4.9,2.6-7.9,2c-0.7-0.1-1.4-0.2-2.4-0.3c0.5,1.1,0.8,1.9,1.1,2.7c1.9,5.5,4,11,5.6,16.6c0.8,2.7,1.1,5.7,1.1,8.5
		c0,3.9-2.5,6-6.4,5.8c-1.2-0.1-2.4-0.4-3.4-1c-1.9-1.2-3.7-2.5-5.2-4.1c-2.5-2.6-4.7-5.5-6.9-8.3c-5.5-6.9-11-13.9-16.6-20.9
		c-0.7-0.9-1.5-1.7-2.3-2.6c-0.2,0.1-0.4,0.2-0.6,0.3c0.5,1.5,0.8,3,1.5,4.5c2.4,5.4,4.9,10.8,7.3,16.1c2.1,4.7,4.3,9.3,6.3,14
		c1.1,2.5,1.3,5.1,0.5,7.7c-0.9,2.8-3,3.7-5.6,2.3c-1.3-0.7-2.4-1.8-3.6-2.8c-0.9-0.7-1.7-1.5-2.8-2.4c0.4,2.7,0.9,4.8,1.2,7.1
		c0.4,3.5,0.3,7-1.1,10.4c-2,4.7-5.9,6.1-10.6,4c-1.1-0.5-2.1-1-3.4-1.7c0.1,0.6,0.2,1,0.2,1.4c0.3,2.7,0.6,5.4,0.7,8.1
		c0.1,2.3-0.7,4.4-1.9,6.3c-2,3-5.1,3.7-8.1,1.9c-0.3-0.2-0.6-0.4-1-0.7c-1.1,8.2-4.1,10.6-11,10.2c0.8,1.6,1.5,3.1,2.2,4.6
		c3.2,6.9,6.1,13.9,7.5,21.4c0.5,2.4,0.8,4.9,0.3,7.4c-0.6,2.9-2.4,4.8-5.1,5.8c-2.6,0.9-4.7,0.1-6.6-1.7c-1-0.9-2-1.9-2.9-2.8
		c-4.3-4.5-7.9-9.7-11.2-15c-6.5-10.6-12.9-21.3-19.5-32c-2.5-4-5.2-7.8-7.9-11.8c-0.3-0.4-0.7-0.7-1.4-1.4c0.2,1.3,0.2,2.1,0.4,2.9
		c1,3.9,1.9,7.8,3.1,11.6c4.6,14.3,10.8,28,17,41.7c2.2,4.9,4.5,9.9,6.7,14.8c0.8,1.8,1.1,3.7,0.8,5.6c-0.3,2.3-1.4,4.2-3.5,5.1
		c-2.1,0.9-3.8-0.4-5.3-1.9c-0.1-0.1-0.1-0.1-0.2-0.2c-2.2-2.7-4.5-5.2-6.4-8c-5.6-8.1-10.9-16.4-16.4-24.5
		c-3.2-4.8-6.7-9.4-10.1-14c-0.6-0.8-1.3-1.5-2-2.2c-0.2,0.9-0.1,1.6,0.1,2.2c1.1,2.6,2.1,5.2,3.3,7.7c4.4,8.9,9,17.7,13.3,26.6
		c2.4,5,4.6,10.2,6.7,15.4c0.9,2.3,1.7,4.8,1.7,7.2c0.1,6.2-0.4,12.5-0.5,18.7c-0.1,4.2-0.1,8.5-0.1,12.7c0,4.7,0.1,9.4-0.7,14.1
		c-1.1,6.1-4.2,10.5-10.4,12.2c-0.4,0.1-0.8,0.3-1.1,0.3c-1.4,0.3-2.4,1.1-3.1,2.4c-1.2,2.4-3.1,4-5.3,5.4c-1.3,0.9-2.7,1.8-4.1,2.6
		c-1.8,1-2.9,2.5-3.2,4.5c-0.4,2.8-1.9,5-3.6,7.2c-1.1,1.4-2.1,2.9-2.6,4.5c-1.1,3.7-2,7.5-4.1,11c1.4,1.3,2.6,2.5,3.9,3.8
		c3.8,3.8,4.6,7.1,2.2,11.9c-1.4,2.9-3.4,5.6-5.3,8.3c-0.9,1.2-2,2.3-2.9,3.5c-1.7,2.1-2.2,4.3-0.5,6.8c1.9,2.8,1.7,5.7,0.3,8.7
		c-0.3,0.7-0.7,1.4-1.1,2.1c1.6,0.8,3.2,1.4,4.6,2.2c4.1,2.4,5.8,6.5,4.5,11c-0.4,1.5-1.1,3-2,4.3c-4.2,6.7-9.6,12.1-17.3,14.9
		c-1,0.4-2.1,0.9-3,1.5c-2.5,1.7-3.4,3.9-2.7,6.8c0.4,1.8,0.9,3.6,1.3,5.4c1.4,6.3,0,11.8-4.8,16.2c-1.6,1.5-3.4,2.9-5.3,4.1
		c-4.7,3-9.4,5.7-14.1,8.6c-5.2,3.2-9.9,7.1-13.7,11.9c-2.2,2.8-4,5.8-4.9,9.3c-0.6,2.3-0.2,4.3,1.4,6c0.9,1,1.8,2,2.7,3.1
		c4.1,5.1,6.2,11,5.8,17.6c-0.3,6-4.2,10.3-10.1,11c-4.6,0.6-8.9-0.4-12.7-3.3c-0.5-0.4-1.1-0.8-1.9-1.4c0,0.9,0,1.4,0,1.9
		c0.2,5.2-0.3,10.2-2.2,15.1c-1.6,4-3.1,8-3.9,12.3c-0.7,3.5-3.1,5.7-6.5,6.8c-3.3,1.1-6.6,0.7-9.5-1c-5.8-3.6-9.7-8.7-10.9-15.6
		c-0.2-1.3-0.5-2.6-0.8-3.9c-1.9,1.4-3.6,2.7-5.4,4.1c0,2.6-0.1,5.4,0,8.2c0.4,8.8,0.9,17.6,1.3,26.3c0.6,15.4,1.1,30.8,1.6,46.3
		c0.1,1.7,0.1,3.3,0.2,5c1.7,0.6,3.2,1.1,4.7,1.7c1.6,0.7,3.3,1.3,4.8,2.2c2.8,1.8,4.3,4.4,4.3,7.8c0,3.6-1.8,6.1-4.7,7.9
		c-1.7,1-3.5,1.8-5.5,2.8c1.3,3.9,1.7,8.1,1.8,12.2c0.4,12.5,0.6,24.9,1,37.4c0.3,11.7,0.7,23.5,1.1,35.2
		c0.4,12.7,0.9,25.4,1.3,38.1c0.3,9.8,0.6,19.7,1,29.5c0.5,14.9,1,29.7,1.4,44.6c0.4,11.1,0.6,22.2,1.1,33.3
		c0.1,2.4,0.6,4.9,2.5,6.8c2.1,2.1,2.4,4.8,2.1,7.6c-0.4,3.5-1.5,6.7-3.4,9.7c-0.9,1.4-1,2.6-0.5,4.2c1.4,4.4,1.2,8.7-1.4,12.7
		c-0.4,0.6-0.7,1.3-1,1.9c-0.6,1.4-0.8,3-0.3,4.5c0.1,0.5,0.5,1,0.9,1.2c4.4,1.9,6.9,5.6,8.7,9.8c0.8,1.7,1.3,3.4,2.1,5.1
		c1.1,2.7,3,4.5,6,5c3.7,0.7,5.3,3.2,6,6.6c0.6,3,0.1,5.9-0.3,8.8c-0.4,2.6-1,5.2-1.2,7.8c-0.2,2.5,1,3.9,3.4,4.5
		c1.7,0.5,3.4,0.8,5.3,1.2c4.7-6.4,8.5-13.3,10.1-21.1c0.9-4.4,1.2-8.9,2-13.3c0.8-4.7,2.1-9.4,4.9-13.4c3-4.4,7.1-6.8,12.5-6.7
		c1.7,0,3.3,0,5,0c1.2-3.2,2.3-6.6,5-9.1c0.3-0.2,0.3-0.9,0.2-1.3c-0.9-4.5,0.3-8.7,2.1-12.8c1.9-4.4,5-8.2,7.9-12
		c1.8-2.3,4.1-3.2,7-2.5c0.6,0.1,1.3,0.2,1.8-0.1c2-0.8,4-1.8,6.1-2.7c0-2.2-0.9-4.2-2-6.2c-1.3-2.3-2.3-4.7-2-7.3
		c0.3-2.5,0.8-5.1,1.7-7.4c1.5-4.3,4.2-7.9,7.6-10.9c4.3-3.7,7.8-7.9,10.6-12.8c1.5-2.6,3.4-5.1,5.6-7.1c4.3-4.2,9.5-6.1,15.5-5.3
		c4.9,0.7,8.5,4.2,9.2,9c0.1,0.4,0.2,0.9,0.3,1.5c0.5-0.3,0.8-0.5,1.2-0.6c4.2-2.3,8.6-1.9,12.3,1.2c2.2,1.8,3.3,4.2,3.9,7
		c0.3,1.3,0.5,2.6,0.9,4.3c2.2-2.1,4.3-3.7,6-5.7c0.9-1.1,1.3-2.7,1.8-4.1c0.3-1.1,0.2-2.4,0.5-3.6c0.6-2.5,1.1-5,2.1-7.3
		c1.7-4,5-5.7,9.3-5.2c2.3,0.3,4.5,0.8,6.6,1.2c1.4-2.4,2.5-4.9,4.1-7.1c3.6-5.3,11.2-5.3,14.9-0.1c0.4,0.5,0.7,1.1,1.1,1.7
		c2.2-1.9,3.8-4.2,4.5-7c0.6-2.5,1-5,1.5-7.5c0.9-4.3,2.6-8.3,6.2-11.1c4.4-3.4,10-2.2,12.6,2.8c0.3,0.6,0.5,1.4,0.9,2
		c0.4,0.6,0.9,1.4,1.5,1.6c1.4,0.4,3,0.7,4.4,0.6c3.3-0.2,6.2,0.4,8.5,2.9c0.2,0.2,0.5,0.3,1,0.6c1.2-5.9,4.7-10,9.2-13.5
		c-1-2.3-1-4.5-0.6-6.8c1.4-6.5,2.8-13,4-19.5c1.2-6.9,4-12.9,8.6-18.1c1.9-2.1,3.4-4.4,4.9-6.8c2-3.3,2.6-6.9,1.6-10.6
		c-0.6-2.2-1.2-4.5-1.7-6.7c-1.6-7.6,0.9-10,5.2-12.8c3.9-2.6,7.6-5.5,11.5-8.3c2.9-2.1,4.8-4.7,6.1-8.1c0.6-1.7,1.7-3.3,3-4.5
		c3.5-3.4,8.6-2.7,11.4,1.3c0.4,0.6,0.8,1.2,1,1.9c1.2,3.1,2.5,6.2,3.5,9.4c1.8,5.8,2.6,11.7,1.1,17.7c-0.5,2.1-1.3,4.1-1.9,6.2
		c-0.7,2.4-0.6,3.3,1.4,4.8c1.4,1,3,1.9,4.6,2.6c6.6,2.5,12.3,6.4,17.5,11.1c0.6,0.6,1.3,1.1,2.2,1.8c0.1-0.6,0.1-0.9,0.1-1.2
		c-0.2-3.7-0.4-7.5-0.7-11.2c-0.3-5.4-0.7-10.9,0.8-16.2c2-7.1,5.8-13,12.4-16.6c5.1-2.7,10-2,14.6,1.5c0.6,0.5,1.2,1.1,1.7,1.6
		c5.8,6.4,8.9,14.9,4.2,24c-0.8,1.6-1.7,3.1-2.4,4.7c-1.7,3.4-3.1,6.9-2.7,10.8c0.3,3.3,1.8,5.7,5.3,6.9c0.2-1,0.4-1.9,0.5-2.8
		c0.9-5.2,3.8-7.9,9.1-8.1c1.2-0.1,2.5-0.3,3.6-0.4c1-3.4,1-3.9-0.2-6.7c-0.5-1.1-0.9-2.2-1.6-3.2c-1.8-2.8-3.7-5.6-5.5-8.4
		c-5.3-8.1-4.9-16.3-0.4-24.5c3.5-6.3,10.4-8.2,16.7-4.9c2,1.1,3.8,2.6,5.6,4.1c1.7,1.4,3.4,2.6,5.6,3.1c3.3,0.7,5.6,2.7,6.9,5.8
		c0.6,1.5,1.1,3,1.5,4.5c0.8,3.4,1.6,6.9,2.4,10.3c0.1,0.6,0.4,1.2,0.7,1.8c0.5-1.1,0.6-2.1,0.8-3.1c0.4-2,0.6-4.2,1.4-6
		c2.9-6.8,11.5-8.4,16.7-3.2c0.3,0.3,0.6,0.6,1,1c2-3.7,2.8-7.2,0.7-10.9c-0.4-0.7-0.7-1.4-0.9-2.2c-0.3-1.2-0.7-2.4-0.5-3.5
		c0.9-7,4.6-12.2,10.6-15.6c4.1-2.3,9-1.3,12.2,2.2c1.4,1.6,2.4,3.4,2.9,5.4c0.4,1.7,1,3.3,1.4,4.7c2.6-0.2,5-0.8,7.2-0.5
		c2.3,0.3,4.4,1.4,6.8,2.3c-0.1-2.4-0.2-4.8-0.4-7.2c-0.2-3.3-0.9-6.5-0.2-9.8c1.4-6.9,8.6-10.7,14.9-7.5c2,1,3.7,2.8,5.5,4.1
		c1.3,1,2.5,2,3.8,2.8c1.2,0.6,2.5,0.5,3.5-0.8c-0.8-1.3-1.6-2.6-2.5-3.8c-2.6-3.3-3.5-7.1-3.3-11.2c0.3-4.8,3.1-7.9,7.8-8.6
		c2.4-0.3,4.6,0.4,6.6,1.8c1.1,0.8,2.2,1,3.5,0.8c7.6-1.1,15,4,16.8,11.5c0.3,1.1,0.4,2.3,0.7,3.7c1.5-0.7,2.9-1.3,4.3-1.9
		c1.2-0.5,1.8-1.4,2.3-2.5c1-2.3,0.9-4.7,0.8-7.1c-0.2-3.7,1.6-6.3,5.2-7.3c1.1-0.3,2.2-0.4,3.2-0.6c0.6-1.2,1.2-2.4,1.8-3.6
		c-0.3,0-0.5,0-0.6,0c-7.2,1.8-14.4-2.1-16.7-9.6c-1.3-4.1-1.4-8.2-0.7-12.3c0.3-1.7,1.1-3.6,2.1-5c1.4-1.8,2.5-3.6,3.1-5.8
		c0.5-1.6,1.4-3.1,2.3-4.4c1.4-2,3.5-3.2,6-3.7c0.5-0.1,1-0.2,1.5-0.3c0-0.3,0-0.5-0.1-0.6c-2.5-4.1-3.3-8.8-3.8-13.5
		c-0.2-1.6-0.8-3.3-1.7-4.6c-2-3-4-6-5.4-9.3c-0.2-0.5-0.8-1-1.3-1.2c-1.5-0.6-3.1-1-4.8-1.5c-1.3,4.7-4.2,7.7-9,8.7
		c-3.9,0.8-7.5-0.2-10.7-2.3c-5.2-3.4-9-7.9-10.7-13.9c-0.5-1.9-1.5-3.6-2.3-5.5c-4.7,3.5-7,3.7-11.9,1.4c-0.6-0.3-1.3-0.3-2-0.2
		c-0.8,0.1-1.6,0.4-2.3,0.5c-4.1,0.5-7.8-2.2-8.2-6.3c-0.3-2.9-0.1-5.9,0-8.9c0-0.8,0.3-1.8,0.8-2.5c0.9-1.3,1.2-2.7,1.4-4.2
		c0.6-3.9,3.8-6.5,7.7-6.4c0.9,0,1.7,0.2,2,0.2c1.8-1.2,3-2.4,4.5-3c1.6-0.6,3.4-0.5,5.1-0.7c0.8-3,0.7-5.9-0.4-9.4
		c-1-3.1-2.9-5.7-4.8-8.2c-1.4-1.8-2.8-3.7-3.8-5.8c-2-4.4,0.1-9.7,4.8-11.1c3-0.9,4.3-3.6,6.5-5.3c0.1,0,0-0.3-0.1-0.5
		c-0.6-0.2-1.2-0.3-1.7-0.6c-1.5-0.6-2.9-0.7-4.6,0c-1.2,0.5-2.8,0.3-4.2,0c-1.4-0.4-2.7-1.3-4.1-1.8c-0.6-0.2-1.3-0.4-2-0.3
		c-2.4,0.3-4.6,0.2-6.6-1.3c-0.3-0.2-0.7-0.5-1.1-0.5c-2.8,0.1-4.9-1.2-6.5-3.5c-3,0.6-5.6-0.3-8-2c-2.7-1.9-4.7-4.3-6.4-7
		c-0.6-1-1.4-1.6-2.6-1.9c-1.2-0.4-2.6-0.9-3.3-1.8c-2.1-2.4-4.7-3.8-7.4-5.3c-4.6-2.5-5.8-7-5.2-12c0.2-2.2,1.2-3.9,3-5.2
		c1.3-0.9,2.5-1.9,3.8-2.9c-0.7-6.2,0.1-11.8,5.3-15.9c-4.2-6.6-2.7-12.3,2.5-17.5c-3.7-3.3-4.4-7.6-4.4-12.1
		c0.1-3.1,0.2-6.2,0.2-9.3c0-70.3,0-140.6,0-211C709.8,146,709.8,145.1,709.8,144.2z M433.7,139.3c0.2,1.5,0.3,2.6,0.6,3.6
		c1.1,4.7,4.3,7.7,8.4,9.9c1.2,0.7,2.1,0.3,2.3-1c0.2-1.2,0.3-2.6-0.1-3.7c-1.8-4-4-7.8-6-11.7c-0.1-0.2-0.3-0.4-0.5-0.6
		c-1.3-1.3-2.6-1.2-3.5,0.4C434.3,137.3,434.1,138.4,433.7,139.3z M618,702.2c0.6-1.5,1.1-3,1.8-4.4c1-2,2.1-3.9,3.1-5.9
		c1.2-2.5,0.8-4.3-1.2-6.2C616.8,690.3,617.5,696.3,618,702.2z M500,60.6c1.9-0.7,3.2-1.8,3.9-3.5c0.6-1.4,0.8-2.8,0.1-4.2
		c-0.9-1.8-2.4-1.9-3.4-0.2C499.1,55.2,498.9,57.8,500,60.6z M822.8,610.9c1.5-0.1,1.5-0.1,2.6-1.4
		C824.4,610.1,823.8,610.4,822.8,610.9z"/>
	<path d="M448.1,116.2c-2,0-4-2.2-4-4.3c0-2,1.5-3.6,3.3-3.7c2.2-0.1,3.9,1.7,4,4.1C451.5,114.4,450,116.1,448.1,116.2z"/>
</g>
</svg>
