<?xml version="1.0" encoding="utf-8"?>
<!-- Generator: Adobe Illustrator 23.0.4, SVG Export Plug-In . SVG Version: 6.00 Build 0)  -->
<svg version="1.1" id="Layer_1" xmlns="http://www.w3.org/2000/svg" xmlns:xlink="http://www.w3.org/1999/xlink" x="0px" y="0px"
	 viewBox="0 0 1008 1008" style="enable-background:new 0 0 1008 1008;" xml:space="preserve">
<g>
	<path d="M755.8,708.3c-1.3-0.3-2.4-0.5-3.5-0.7c-6.9-1.6-11.2-6.6-11.7-13.7c-0.3-3.8,0.1-7.5,1.8-11c1.4-3,2.4-6.1,3.5-9.2
		c0.3-0.9,0.3-2,0.5-3.1c-3.9-0.6-7.6-1.1-11.3-1.6c-4.2-0.6-8.4-1.2-12.6-1.9c-9.1-1.5-16.5-5.9-22.5-12.8
		c-1.8-2.1-3.5-4.3-5.2-6.6c-3.6-4.7-7.2-9.4-10.7-14.1c-1.2-1.7-2.4-3.4-3.5-5.2c-2.2-3.5-2.3-7.3-0.6-11c1.2-2.5,2.7-4.9,4.3-7.2
		c3.4-4.7,7-9.4,10.5-14c1.4-1.8,2.8-3.5,4.4-5.1c3.6-3.7,7.9-5.6,13.1-5.5c3.2,0,6.4,0.2,9.6,0.3c0.5,0,1.1,0,2,0
		c-0.5-0.7-0.8-1-1.1-1.3c-6.6-6.4-13.8-12.1-22-16.5c-4.3-2.4-8.5-5.1-12.6-7.9c-4.8-3.4-8.2-8-9.5-14c-0.6-3-0.7-6,0-9
		c2.4-10.1,12.7-14.2,22-10.3c1.5,0.6,2.9,1.4,4.3,2.1c0.8,0.4,1.6,0.6,2.4,1c2.4-4.7,1.7-10-1.5-13c-2.2-2.1-4.7-2.8-7.7-1.6
		c-4.2,1.7-7.4,0.6-10-3.1c-3.6-5.2-3.4-12.2,0.6-18c1.8-2.5,4-4.5,6.6-6.2c1.5-1,3.2-1.9,4.7-2.9c1.5-1,2.9-1.9,4.3-3.1
		c1.8-1.5,1.9-2.1,0.8-4.1c-0.9-1.6-1.8-3.2-2.8-4.8c-5.5-8.4-6.7-17.7-5.5-27.4c1.6-12.7,7.8-23,16.5-32.1
		c6.1-6.4,13.1-11.7,20.5-16.5c0.7-0.5,1.5-0.9,2.2-1.4c2.2-1.5,2.4-2,1.8-4.6c-0.7-3.2-1.4-6.4-2.1-9.6c-0.3-1.4-0.5-2.8-0.8-4.2
		c-0.1-0.7-0.3-1.3-0.9-2.1c-0.8,1.7-1.6,3.4-2.4,5.1c-3,6.4-7.6,11.3-13.9,14.4c-6.5,3.2-13.4,4.1-20.5,2.7
		c-0.3-0.1-0.6-0.1-0.9-0.2c-0.1,0-0.2,0-0.4,0c-0.3,0.5-0.7,1.1-1.1,1.7c-3.4,5.2-6.7,10.3-10.1,15.5c-0.4,0.6-0.9,1.1-1.3,1.7
		c-5.9,8-14,10.7-23.6,9.7c-1.9-0.2-3.8-0.4-6.1-0.7c0.4,1.1,0.6,2,1,2.8c2.1,4.8,4.2,9.5,6.3,14.3c3.7,8.7,7.3,17.4,9,26.8
		c0.7,4.1,1.2,8.2,1.2,12.4c0.1,6.6-2.9,11.8-8.7,15c-2.3,1.2-2.9,2.7-2.4,5c0.4,1.8,0.7,3.6,1.2,5.4c2.1,8.4,1.5,16.5-2.3,24.3
		c-1,2.1-1.9,4.2-2.9,6.3c-3.8,7.7-4.6,15.8-3.2,24.1c1.3,8,3,16,4.5,24c1.8,9.4,3.5,18.9,5.2,28.3c1.1,6.1,3.4,11.4,7.9,15.8
		c1.2,1.2,2.4,2.6,3.4,4c6,8,4.4,17.5-3.7,23.3c-0.3,0.2-0.6,0.5-1,0.8c0.3,0.5,0.6,1,0.9,1.4c11,14.1,18.1,29.9,21.2,47.5
		c1.2,7,1.8,14.1,1.4,21.2c-0.2,3.6-2.9,6.8-6.3,7.6c-2.7,0.7-5-0.1-6.8-2.4c-3.2-4-6.8-7.6-10.8-10.9c-5.8-4.8-12.3-8.4-19.3-11
		c-0.5-0.2-0.9-0.4-1.3-0.5c-11.1-3.4-20.6-9.7-29.3-17.3c-8.2-7.1-16.6-14.1-24.9-21.1c-0.6-0.5-1.2-1-2-1.6
		c-0.4,0.6-0.7,1.1-1,1.6c-1.3,1.9-2.5,4-4.1,5.6c-4.5,4.6-10.9,5.3-16.7,1.7c-2-1.2-3.9-2.8-5.5-4.6c-1.9-2-3.5-4.4-5.1-6.7
		c-4.8-6.9-9.5-13.8-14.3-20.7c-0.4-0.6-0.9-1.1-1.4-1.8c-1.5,0.9-2.8,1.8-4.1,2.6c-4.6,2.9-9.5,5.3-14.9,6.5c-7,1.6-13.8,1-20.4-2
		c-11.5-5.3-16.6-16.8-12.9-28.9c1.5-4.7,3.7-9.1,6.7-12.9c5.7-7.2,11.6-14.3,17.5-21.3c5.1-6.1,10.4-12.1,15.6-18.2
		c1-1.2,2-2.5,3-3.7c2.5-3.4,3.8-7.3,4-11.6c0.1-3.1,0.2-6.2,0.7-9.3c1-6.7,4.5-12,9.4-16.6c2-1.9,4-3.9,5.8-6.1
		c1.2-1.5,2.2-3.2,1.8-5.4c-2.2-0.5-4.5-0.1-6.6,0.3c-8.5,1.7-16.2-0.2-23.3-5c-1.8-1.2-3.6-2.5-5.2-3.8c-2.7-2.2-5.4-4.5-8.1-6.8
		c-7.4-6.3-15.7-11-25.1-13.7c-6.5-1.9-13-3.9-19.1-7.1c-6.3-3.3-11.7-7.6-15.8-13.3c-5.5-7.5-7.4-15.8-4.6-24.9
		c0.8-2.5,1.4-5.1,1.9-7.7c1.6-8.4-3-16.1-11.2-18.3c-3.1-0.8-6.3-1.1-9.4-1.5c-3.8-0.5-7.7-0.7-11.4-1.5c-8.9-1.9-13.3-9-13.3-16
		c0-1.3-0.4-2.1-1.6-2.7c-1.4-0.7-2.8-1.6-4.2-2.3c-4.2-1.9-7.1-5-8.6-9.2c-1.2-3.3-2.3-6.7-2.9-10.1c-3.2-19.8-22.5-35-40.6-37.3
		c-7-0.9-13.9,0.1-20.6,2.1c-3.8,1.1-7.6,2.4-11.5,3.5c-8.2,2.5-16.5,4.6-25.1,4.4c-0.2,0.4-0.4,0.6-0.5,0.9
		c-3.6,12.1-12.2,18.5-23.9,21.6c-7.2,1.9-14.3,0.8-21.2-1.7c-7.2-2.6-13.6-6.6-19.9-11c-3.5-2.5-7-5-10.6-7.5
		c-0.7-0.5-1.5-0.9-2.3-1.5c-2,2.9-4,5.7-5.9,8.5c-5.6,7.9-11.2,15.8-17.6,23c-1.4,1.5-3,2.9-4.7,4.1c-3.7,2.5-7.6,2.7-11.6,0.8
		c-1.6-0.7-3.1-1.6-4.6-2.6c-3.6-2.3-7.4-2.6-11.5-1.8c-6.9,1.4-12.1,5.2-16.3,10.6c-3.6,4.5-6.1,9.6-8.3,14.8
		c-1.4,3.2-2.5,6.6-3.9,9.8c-1.3,3.2-3.8,5.1-7.3,5.3c-2.5,0.2-4.5-0.8-6-2.9c-1.6-2.2-2.6-2.5-4.7-0.7c-2,1.7-3.8,3.7-5.3,5.8
		c-2,2.8-3.7,5.8-5.6,8.7c-1.9,2.9-4.1,5.5-6.8,7.7c-1.8,1.4-3.7,2.5-5.9,3c-5.3,1.3-9.9-0.5-12.9-5c-2.2-3.3-3-7.1-3.2-10.9
		c-0.3-5.4-0.5-10.9-0.5-16.3c-0.1-9.3,0-18.6,0.1-27.8c0.1-24.4,0.1-48.8,0.2-73.2c0-0.5,0-1,0-1.4c0.2-5,3.6-8.5,8.6-8.8
		c0.7,0,1.4,0,2.2,0c106.2,0,212.5,0,318.7,0c1.2,0,2.4,0,3.9,0c0.4-1.9,0.8-3.8,1.1-5.7c1.6-8.5,3.2-17,4.8-25.4
		c0.3-1.5,0.3-3,0.5-4.5c0.2-1.4,0.7-2.7,2.3-3.1c1.7-0.5,3,0.3,4,1.5c1.1,1.2,1.7,2.8,1.6,4.4c-0.1,2.1-0.3,4.3-0.7,6.4
		c-2,10.1-4.2,20.2-6.3,30.3c-0.3,1.6-0.4,3.3-0.3,5.2c0.6-1,1.4-1.9,1.9-2.9c2.5-4.9,4.8-9.9,7.3-14.9c4.9-10,9.7-20,14.6-29.9
		c1.2-2.5,2.8-4.8,4.4-7.1c0.8-1.2,1.9-2.4,3-3.4c2.9-2.4,6.5-1.2,7.1,2.4c0.4,2.1,0.5,4.3,0.3,6.4c-0.7,8.2-2.9,16-5.3,23.8
		c-3.1,10-6.3,20-9.5,29.9c-0.3,1-0.6,2-0.9,2.9c0.1,0.1,0.3,0.1,0.4,0.2c0.5-1,1-2,1.5-3c7.7-15.7,15.7-31.3,24.9-46.2
		c3.6-5.9,7.4-11.6,12.1-16.7c1.2-1.3,2.5-2.5,3.9-3.5c1.1-0.7,2.4-1.3,3.7-1.5c3.1-0.5,5.5,1.1,6.4,4.1c0.9,3.2,0.7,6.5,0.1,9.7
		c-1.6,9.6-4.7,18.7-8.1,27.8c-4.6,12.2-9.3,24.3-13.9,36.5c-1.3,3.4-2.3,7-3.3,10.5c-0.3,1.2-0.3,2.4-0.5,3.9c2-0.3,3.1-1.4,4-2.6
		c2.2-2.8,4.4-5.7,6.4-8.7c4.9-7.6,9.3-15.5,13.3-23.6c0.5-1,0.7-2.1,0.9-3.2c1.9-11.1,12.5-17,21.6-15.9c5.9,0.7,8.4,4.6,7.1,11
		c-0.7,3.3-1.9,6.4-2.8,9.7c-0.5,1.9-0.9,3.9-1.2,5.9c-0.2,1.2-0.3,2.8,1.1,3.4c1.2,0.6,2.3-0.4,3.2-1.1c1-0.8,2-1.6,2.9-2.5
		c2.6-2.7,7.1-9.2,9-12.9c-2.4-3.8-3.4-8.1-3.9-12.6c-0.3-2.7-0.1-5.4,0.7-8.1c1-3.3,3.1-5.6,6.2-6.9c5.9-2.5,11.9,1.4,12.4,8.1
		c0.2,2.2-0.3,4.3-1.2,6.3c-1,2.2-2.3,4.2-3.4,6.3c-0.4,0.7-0.9,1.4-1.5,2.4c1.9,0.1,3.1-0.6,4.4-1.2c1.8-0.8,3.6-1.3,5.6-0.8
		c3.6,0.9,4.8,3,3.5,6.6c-2.5,6.9-5.1,13.8-7.6,20.7c-0.9,2.6-1.4,5.2-2,7.9c-0.3,1.4-0.5,2.8,0.2,4.4c1.5-0.1,2.8-0.8,3.7-1.9
		c1.6-1.8,3.2-3.6,4.5-5.6c3.7-5.4,6.8-11.2,9.4-17.2c0.3-0.7,0.4-1.5,0.7-2.3c1-2.9,1.9-5.9,3.1-8.8c0.7-1.9,2.2-3.4,3.9-4.4
		c1.5-0.9,3.1-1.3,4.8-0.3c1.6,1,1.9,2.5,1.7,4.2c-0.1,1-0.5,2-0.8,3c-0.9,3.2-1.9,6.4-2.6,9.7c-0.3,1.3-0.7,3.2,1,3.8
		c1.6,0.6,2.6-1,3.4-2.1c1.7-2.3,3.2-4.8,4.7-7.2c1.7-2.5,3.3-5.1,5-7.6c0.7-1,1.6-1.9,2.5-2.5c2.1-1.4,4.1-0.7,5,1.6
		c0.4,1,0.5,2.2,0.5,3.3c0.1,2.9,0,5.9,0,9.2c0.9-0.9,1.7-1.6,2.5-2.3c2.2-1.9,4.3-3.9,6.5-5.7c0.9-0.7,1.3-1.5,1.5-2.6
		c2-10.9,5-21.5,10.1-31.4c1.9-3.6,4.2-7,6.6-10.3c1.8-2.5,4.2-4.4,7.3-5.3c4.9-1.4,8.6,0.8,9.6,5.8c0.8,3.9,0.2,7.7-0.9,11.4
		c-2.5,9-7.3,16.7-13.8,23.2c-2.4,2.4-4.9,4.5-7.5,6.7c-1.3,1-2,2.2-2.2,3.8c-0.5,6.3-1.2,12.6-0.6,18.9c0.1,1.6,0.2,3.2,1.4,4.6
		c2.4-0.5,4.1-2,5.7-3.7c2.4-2.7,4.4-5.7,5.8-9c1.9-4.2,3.7-8.5,5.4-12.8c3.2-8.4,11.5-13.6,20.5-12.7c5.2,0.5,8.1,3.8,7.8,9
		c-0.1,1.4-0.5,2.8-0.9,4.2c-1,3.6-2.2,7.2-3.1,10.8c-0.4,1.4-0.4,3-0.2,4.5c0.1,1.4,1.1,2,2.4,1.3c1.2-0.6,2.4-1.3,3.4-2.3
		c4.5-4.5,8.1-9.6,10.7-15.4c0.8-1.8,2.4-2.6,4.8-2.3c1.8,0.2,2.8,1.1,3.1,3.1c0.3,2.4,0.3,4.8,0.5,7.2c0,0.8,0,1.7,0.5,2.6
		c0.3-0.6,0.7-1.1,1-1.7c3.5-7.2,6.9-14.4,10.5-21.6c1.4-2.8,3.3-5.5,5-8.1c0.8-1.2,2-2.3,3-3.4c3.7-3.6,11-2.3,12.2,4.2
		c0.9,4.5,0.5,8.9-0.2,13.3c-1.5,8.9-4.2,17.4-6.7,26c-1.1,3.9-2.1,7.8-3.2,11.8c0.1,0.1,0.3,0.2,0.4,0.3c0.8-0.8,1.7-1.5,2.4-2.4
		c4.7-5.3,8.3-11.3,11.7-17.5c1.7-3.2,3.2-6.4,4.7-9.7c1.3-2.9,2.8-5.7,5.3-7.9c2.7-2.3,5.7-3,9.2-1.8c0.4,0.1,0.8,0.2,1.5,0.4
		c0.1-0.8,0.3-1.6,0.4-2.3c0.8-6.4,1.8-12.8,3.9-19c1.4-4.1,3.4-7.9,6.3-11.2c0.8-0.9,1.7-1.7,2.7-2.4c4.3-3,9-2,11.7,2.4
		c1.5,2.5,2.2,5.3,2.3,8.2c0.2,4.7-0.7,9.2-2.2,13.7c-2.7,8.1-6.6,15.6-11.6,22.5c-1,1.4-2.3,2.6-3.4,4c-0.5,0.6-1,1.4-0.9,2
		c0.5,4.4,1.2,8.7,4.4,12.1c0.5,0.5,1,1,1.6,1.5c1.7,1.3,3.1,1.4,4.8,0c1.1-0.9,2.2-2,2.9-3.2c1.5-2.6,2.7-5.4,4-8.2
		c0.7-1.4,1.2-3,1.8-4.4c1.6-3.7,4.6-5.1,8.5-4.9c5.5,0.2,11,0.3,16.5,0.4c0.6,0,1.3,0,1.9,0.1c3.5,0.4,6,2.9,6.4,6.4
		c0.9,9.9,1.7,19.7,2.5,29.6c0.9,10.7,1.8,21.3,2.7,32c0.7,8.5,1.4,17.1,2.1,25.6c0.7,9,1.5,18,2.2,27c0.7,8.6,1.4,17.2,2.1,25.8
		c0.7,9,1.5,18,2.2,27c0.7,8.4,1.4,16.9,2.1,25.3c0.8,9.2,1.5,18.3,2.3,27.5c0.7,8.4,1.4,16.9,2.1,25.3c0.7,9.1,1.5,18.2,2.2,27.2
		c0.7,8.7,1.4,17.4,2.1,26.1c0.2,2.1,0.4,4.3,0.6,6.6c2.5,0.1,4.9,0.2,7.2,0.3c7.3,0.1,14.6,0.1,21.8,0.2c11.5,0.1,23,0.3,34.5,0.5
		c11.1,0.2,22.2,0.3,33.3,0.5c2.6,0,5.1,0.1,7.7,0.2c1.6,0,3.2,0.3,4.6,1.2c1.7,1.1,3,2.5,3.1,4.6c0.4,4.6,1,9.2,1.2,13.8
		c0.3,13.3-1.3,26.3-5.2,39.1c-3,10-8.1,18.9-14.1,27.4c-7.6,10.7-16.2,20.6-24.8,30.5c-4.2,4.9-8.3,9.9-12.6,14.8
		c-2.5,2.8-5,5.6-7.8,8.2c-4.4,4.1-9.8,5.9-15.8,5.8c-3.4,0-6.7-0.1-10.1-0.3c-6-0.4-12,0.3-17.9,1.3c-6.2,1.1-12.4,2.4-18.6,3.3
		c-9.2,1.4-18.5,1.4-27.6-1.2c-6.1-1.7-11.6-4.6-16.3-8.8c-3.6-3.2-4-7.4-0.9-11c1-1.1,1.1-2.1,0.5-3.2c-0.7-1.3-1.5-2.6-2.4-3.9
		c-2.1-3-4.2-6-5.3-9.6c-1.5-5-0.8-10,0.6-14.9C755.3,709.6,755.5,709.1,755.8,708.3z M598.4,303.6c-2.2,1.9-4,3.7-5.9,5.3
		c-2.8,2.5-4.6,5.5-5.6,9c-1.8,6.5-3.6,12.9-5.6,19.3c-1.4,4.6-3.5,8.9-6.3,12.9c-2.2,3.2-4.9,5.6-8.7,6.7c-4.2,1.2-7.8-1.5-7.7-5.9
		c0-1.5,0.4-3,0.8-4.4c1.4-4.4,3.5-8.4,6.1-12.2c2.8-4.1,5.7-8.1,8.7-12c3.9-5,6.2-10.6,7.4-16.7c0.3-1.8,0.7-3.6,1-5.3
		c-0.8,0.4-1.1,1-1.5,1.6c-1.6,2.6-3,5.3-4.9,7.7c-1.7,2.2-3.7,4.2-6,5.8c-4.5,3.2-8.8,2.5-12.6-1.5c0,0-0.1,0-0.4,0
		c-0.1,0.2-0.3,0.6-0.5,0.9c-1.8,3.3-3.6,6.6-5.5,9.8c-2.1,3.4-4.5,6.6-7.6,9.2c-4.1,3.3-9,2.3-11.5-2.3c-1.5-2.7-2-5.5-1.9-8.5
		c0.2-4.9,1.3-9.7,3.1-14.2c1.2-3.3,2.6-6.5,4.1-10.1c-3,1.3-5.9,1.5-8.8,0.8c-1.9,3.2-3.7,6.3-5.6,9.3c-2.2,3.5-4.9,6.5-8.4,8.7
		c-1.9,1.2-3.9,1.9-6.1,2.1c-3.3,0.3-6.9-1.8-6.9-5.7c0-0.5-0.1-0.9-0.2-1.8c-2.6,2.6-5.4,3.7-8.8,3.6c-3.8-0.1-5.7-2.6-7.4-5.7
		c-0.3,0.6-0.5,0.9-0.7,1.3c-2.8,5.5-5.6,11.1-8.6,16.6c-2.2,4.1-5,7.8-8.2,11.2c-1.7,1.8-3.6,3.4-6.1,4c-5.1,1.3-9.6-2.1-9.5-7.3
		c0-1,0.1-2.1,0.2-3.1c0.5-5.6,1.7-11.1,3.5-16.4c3.8-11.5,7.8-23,11.8-34.5c3-8.4,6-16.9,8.1-25.6c0.1-0.5,0.1-0.9,0.2-1.9
		c-0.9,1-1.5,1.5-2,2.1c-2.2,2.9-4.5,5.8-6.6,8.8c-6.7,9.9-12.3,20.4-17.7,31c-4.7,9.3-9.1,18.7-13.7,28c-0.9,1.9-1.9,3.7-3.1,5.4
		c-1.8,2.6-4.3,4-7.6,3.7c-2.4-0.2-3.7-1.3-3.9-3.7c-0.1-1-0.1-2.1,0-3.1c0.5-3,0.9-6,1.7-8.9c2.9-10,6-19.9,8.9-29.9
		c2.1-7.2,4-14.5,5.9-21.7c0.3-1.1,0.3-2.2,0.4-3.4c-0.2,0-0.4-0.1-0.5-0.1c-0.5,0.8-1.1,1.5-1.5,2.3c-1.6,3.1-3.3,6.2-4.7,9.4
		c-5.5,12.1-10.8,24.2-16.4,36.3c-1.9,4.1-4.4,8-6.8,11.8c-0.7,1.1-1.7,2.2-2.7,3c-2.5,2-4.9,1-5.3-2.2c-0.1-1.1-0.1-2.2-0.1-3.4
		c0-1.6,0-3.1,0-4.8c-105.3,0-210.4,0-315.7,0c-0.1,0.8-0.1,1.4-0.1,2c-0.1,18.2-0.3,36.5-0.4,54.7c0,13.7,0.1,27.4,0.2,41
		c0,3.1,0.2,6.2,0.3,9.3c0,0.9,0.2,1.8,0.3,2.7c0.2,0,0.4,0.1,0.5,0.1c1-1.5,1.9-3.1,2.9-4.6c2.2-3.3,4.2-6.9,6.8-9.8
		c4.9-5.4,11-8.4,18.5-8.1c0.9,0,1.9,0,2.8,0c0.3-0.7,0.6-1.4,0.9-2c2.7-6.1,5.7-12,9.7-17.4c5.4-7.2,12.1-12.5,20.7-15.3
		c9.9-3.3,19.5-2.9,28.6,2.8c0.2,0.1,0.4,0.1,0.7,0.2c1.2-1.4,2.4-2.8,3.5-4.3c6.2-7.7,11.8-15.7,17.2-24c1.4-2.2,3.1-4.3,5-6.1
		c2.9-2.9,6.5-4.2,10.5-3c2.4,0.7,4.7,1.6,6.8,2.8c2.7,1.6,5.1,3.5,7.7,5.3c4,2.9,8,5.9,12.2,8.5c3.2,2,6.7,3.7,10.3,5
		c6.7,2.6,13.2,1.3,19.3-2.1c0.6-0.3,1.1-0.7,1.6-1.1c3.2-2.7,4.6-5.9,3.6-10.2c-1.4-5.7,2.9-10.2,8.7-9.4c0.6,0.1,1.3,0.3,1.9,0.4
		c2.9,0.5,5.8,0.8,8.8,0.5c5.3-0.5,10.4-1.9,15.4-3.4c6.2-1.8,12.4-3.9,18.7-5.3c12.6-2.8,25-2.1,36.9,3.1c19.5,8.6,32.6,23,37.7,44
		c0.5,1.9,0.7,3.8,1.1,5.7c0.5,2.6,1.9,4.5,4.4,5.7c2.1,1.1,4.3,2.2,6.2,3.6c2.7,1.9,4.3,4.6,4.6,8.1c0.1,1.1,0.3,2.2,0.5,3.3
		c0.5,2.5,1.6,3.6,4.1,4c1.3,0.2,2.5,0.2,3.8,0.3c4.3,0.3,8.7,0.2,12.9,1c10.4,1.9,17.8,8.1,22.4,17.4c3.6,7.2,4.4,14.8,1.7,22.6
		c-0.6,1.7-1,3.4-1.5,5c-1.6,5-0.4,9.5,2.8,13.5c0.9,1.1,1.9,2.1,3,3.1c2.7,2.4,5.8,4.3,9,5.9c6.2,2.9,12.7,4.7,19.2,6.7
		c8.1,2.5,15.6,6.2,22.1,11.8c3.8,3.2,7.5,6.5,11.3,9.6c1.9,1.6,4,3,6.1,4.2c2.7,1.6,5.8,2.3,9,1.9c2.1-0.3,4.1-0.5,6.2-0.8
		c2.7-0.4,5.4-0.2,8.1,0.5c8.7,2.5,13.3,10.6,11.2,19.7c-1,4.2-3.1,7.7-5.9,10.8c-2.3,2.6-4.7,5-7,7.5c-2.5,2.6-3.8,5.7-4.1,9.2
		c-0.2,2.1-0.3,4.3-0.5,6.5c-0.4,6.2-2,12-5.5,17.2c-2.2,3.2-4.5,6.4-7.1,9.4c-6.3,7.3-12.9,14.5-19.3,21.7
		c-5,5.5-9.9,11.1-13.5,17.7c-0.8,1.5-1.5,3.2-2,4.9c-1.2,4.7,1,8.9,5.5,10.7c2.6,1,5.2,1.4,8,1.1c5.3-0.7,9.9-3.1,14.2-6.1
		c2.6-1.8,5.2-3.7,7.7-5.7c2.2-1.7,4.5-1.8,7-0.7c1.9,0.8,3.2,2.3,4.4,3.9c7.3,10.4,14.6,20.8,21.9,31.2c0.7,1,1.5,1.9,2.6,3.3
		c0.8-1.8,1.5-3.2,1.9-4.6c0.5-1.8,0.7-3.8,0.9-5.7c0.6-4.1,3.7-6.7,7.8-6.6c2.1,0.1,3.8,0.9,5.4,2.3c10.8,9.1,21.8,18,32.4,27.4
		c9.2,8.2,19.3,14.7,31,18.6c6.6,2.2,12.7,5.3,18.2,9.5c0.3,0.2,0.6,0.3,1.1,0.5c0-0.5,0-0.9-0.1-1.2c-4.5-21.7-15-39.8-32.4-53.7
		c-1.1-0.9-2.2-1.9-3-3.1c-2.6-3.8-1.3-8.7,3-10.7c2.6-1.2,5.1-1.1,7.5,0.5c2.1,1.3,4.2,2.6,6.4,3.7c1.5,0.8,3.2,0.8,4.9-0.2
		c-0.4-1.5-1.5-2.5-2.5-3.4c-4-3.8-7.1-8.2-9.2-13.3c-2.3-5.9-3.8-12-4.8-18.3c-1.1-6.5-2-12.9-3.2-19.4c-1.5-8.2-3.2-16.3-4.6-24.5
		c-2.1-12-0.6-23.6,4.9-34.5c1.1-2.3,2.1-4.6,3.1-7c1.7-4,1.9-8,0.9-12.2c-0.7-2.8-1.4-5.6-1.8-8.4c-1.3-7.9,2.1-15.7,8.5-18.1
		c2.8-1.1,3.2-2.5,2.7-5.6c-1.7-10.8-4.8-21.2-9.5-31.1c-3.1-6.4-6.2-12.8-8.2-19.7c-0.7-2.5-1-5-0.9-7.6c0.3-5.1,3.6-9.2,8.6-10.2
		c2.3-0.4,4.8-0.4,7.1-0.3c3,0.2,6,0.7,9.1,1c3.8,0.4,6.9-0.9,9.3-3.9c0.8-1.1,1.6-2.2,2.4-3.3c4.2-6.3,8.2-12.8,11.5-19.6
		c1.3-2.6,3.4-3.7,6.2-3.8c1.7-0.1,3.3,0.4,4.8,1.1c7.4,3.4,15.5,1.3,20.2-5.3c1.2-1.7,2.2-3.5,3.2-5.3c1.5-2.6,2.8-5.2,4.4-7.7
		c1.8-2.8,4.3-4.9,7.4-6.3c4.4-1.9,8.8-1.1,12.2,2.2c2.4,2.3,3.8,5.2,4.5,8.3c0.7,3,1.2,6,1.7,8.9c1,5.1,2,10.2,2.9,15.3
		c0.8,5.2-0.4,9.8-4.5,13.3c-2.8,2.4-5.8,4.5-8.8,6.6c-5.9,4-11.5,8.4-16.4,13.6c-4.8,5.2-8.6,11.1-10.6,18
		c-2.4,8.5-1.8,16.6,3.5,24c0.9,1.2,1.6,2.6,2.4,3.9c3.8,7,3,14.2-2.3,20.2c-2.1,2.5-4.8,4.2-7.6,5.8c-1.4,0.8-2.8,1.7-4.5,2.7
		c0.9,0.3,1.3,0.4,1.8,0.6c9.4,2.8,15.1,9,17.2,18.5c0.9,3.9,0.7,7.8,0,11.7c-0.5,3.2-1.4,6.2-3,9c-2.8,4.9-6.8,6.7-12.3,5.7
		c-4-0.7-7.6-2.3-11.3-3.9c-0.9-0.4-1.9-0.7-2.9-1.1c-1,1.4-0.6,2.6-0.1,3.8c0.9,1.9,2.3,3.3,4,4.3c2,1.2,4,2.4,6,3.5
		c17.4,9.6,31.9,22.7,43.8,38.5c1.9,2.5,2.1,5.1,0.7,7.8c-1.5,2.7-3.8,4.4-7,4.2c-9.1-0.5-18.2-1-27.3-1.8c-2.8-0.2-4.5,0.6-6,2.8
		c-2.3,3.5-4.8,6.8-7.2,10.1c-2.1,2.9-4.3,5.8-6.5,8.8c0.9,1.2,1.8,2.5,2.7,3.7c2.7,3.5,5.5,7,8.3,10.6c1.5,1.9,2.9,3.8,4.4,5.7
		c4.2,5.2,9.6,8.7,16.2,9.9c2.7,0.5,5.5,0.9,8.3,1.3c5.4,0.8,10.8,1.5,16.1,2.4c3.8,0.6,6.5,2.9,8.4,6.2c1.9,3.3,2.5,6.8,2.2,10.6
		c-0.4,4-1.9,7.7-3.3,11.5c-1,2.7-1.6,5.5-2.5,8.5c1.5,0.3,2.5,0.5,3.6,0.7c9.1,1.5,13.8,8,12.1,17c-0.4,2.1-0.9,4.2-1.6,6.3
		c-0.8,2.4-0.4,4.6,1,6.6c1.2,1.7,2.5,3.3,3.6,5.1c3,4.5,4.4,9.4,3.6,14.8c-0.1,0.5,0,1.1,0,1.9c1.8,0.7,3.5,1.5,5.3,2.1
		c5.6,1.8,11.4,1.9,17.1,1.2c6.9-0.9,13.7-2.2,20.6-3.4c7.7-1.4,15.5-2.5,23.4-2.1c2.6,0.1,5.1,0.3,7.7,0.6c3.7,0.3,6.6-1.1,9-4
		c6.2-7.2,12.6-14.2,18.9-21.4c7.7-8.8,15.3-17.7,22-27.3c5.6-8,10.2-16.4,12.9-25.8c2.5-8.7,3.7-17.7,4.1-26.7
		c0.1-3.3,0.1-6.7-0.4-10.1c-0.7,0-1.2-0.1-1.8-0.1c-5.3-0.1-10.5-0.2-15.8-0.3c-11.7-0.2-23.3-0.3-35-0.5
		c-13.1-0.2-26.2-0.3-39.3-0.5c-4.2-0.1-8.3-0.1-12.5-0.2c-2.9-0.1-5.3-1.2-6.6-3.9c-1-2.2-1.9-4.4-2-6.8c-0.3-4.5-0.7-9.1-1.1-13.6
		c-0.7-8.7-1.4-17.4-2.1-26.1c-0.7-8.9-1.5-17.8-2.2-26.8c-0.7-8.8-1.4-17.5-2.1-26.3c-0.9-10.9-1.8-21.8-2.7-32.7
		c-0.7-8.6-1.4-17.2-2.1-25.8c-0.9-10.9-1.8-21.8-2.7-32.7c-0.7-8.6-1.4-17.2-2.1-25.8c-0.7-8.8-1.5-17.7-2.2-26.5
		c-0.7-8.6-1.4-17.2-2.1-25.8c-0.8-9.2-1.5-18.5-2.3-27.7c-0.3-3.6-0.6-7.1-1-11c-4.7,0-9.3,0-13.8,0c-0.5,0-1,0.2-1.4,0.3
		c-2.4,0.8-4.3,2.4-5.9,4.4c-1.2,1.5-2.5,3-4,4.1c-4.1,3.2-8.8,3.1-12.7-0.2c-1.2-1-2.3-2.3-3.1-3.6c-1.2-2.1-2.1-4.5-3.2-6.7
		c-0.3-0.6-0.5-1.2-0.8-1.7c-2.7,0.9-5.2,1.8-7.7,2.4c-4.4,1-8.5,0.8-11.4-3.5c-0.6,1-1.1,1.9-1.6,2.8c-3.6,6.4-7.3,12.8-12.4,18.2
		c-0.9,1-2,1.9-3.1,2.6c-3,1.9-5.8,1.5-8.2-1.1c-0.8-0.9-1.6-2.1-1.8-3.3c-0.4-2.2-0.8-4.4-0.6-6.6c0.2-2.9,0.8-5.9,1.4-8.7
		c2.3-11.1,4.8-22.2,7.1-33.3c0.3-1.4,0.6-2.8,0.3-4.3c-0.7,0.6-1.3,1.3-1.7,2c-1.2,2.1-2.5,4.1-3.5,6.3c-4,8.3-8,16.7-12,25.1
		c-0.9,1.8-1.8,3.6-2.9,5.2c-1.5,2.2-3.4,4.1-6.1,4.8c-2.7,0.7-4.5-0.4-4.9-3.1c-0.3-1.6-0.1-3.3-0.2-5c0-1.6,0-3.2,0-5.3
		c-0.8,1.2-1.4,2.1-1.9,2.9c-2.2,3.2-4.8,6-8.1,8.1c-1.9,1.2-3.9,1.9-6.1,2c-3.8,0.3-6.5-1.9-6.8-5.8c0-0.4-0.1-0.8-0.2-1.8
		c-2.8,2.8-5.9,3.9-9.4,3.5c-3.8-0.4-5.5-3.3-7.2-6.5c-0.5,1-0.9,1.7-1.3,2.4c-1.9,3-3.6,6-5.6,8.9c-1.8,2.6-4.1,4.7-6.9,6.2
		c-4.9,2.5-10.3,0.9-12.5-4.5c-1.1-2.7-1.6-5.5-1.6-8.4C598.4,310.5,598.4,307.3,598.4,303.6z M741.4,299.2c0.2,0.1,0.4,0.2,0.6,0.3
		c0.6-0.8,1.3-1.6,1.9-2.4c4.3-6.2,7.6-13,9.9-20.1c1.4-4.3,2.4-8.6,2.2-13.2c-0.1-1.8-0.6-3.6-1.3-5.3c-0.6-1.4-1.5-1.6-2.7-0.7
		c-1,0.7-1.9,1.7-2.5,2.8c-1.1,2-2,4.2-2.8,6.3c-2.4,6.8-3.8,13.9-4.4,21C741.8,291.7,741.6,295.4,741.4,299.2z M611.4,288.7
		c0.3-0.1,0.5,0,0.6-0.1c0.3-0.2,0.5-0.4,0.8-0.6c6-6.3,11.3-13.1,14.6-21.2c1.2-2.9,2-5.9,1.9-9.1c0-1.4,0.4-3.3-1.3-3.8
		c-1.5-0.5-2.7,1-3.5,2.1c-1.8,2.6-3.6,5.3-4.9,8.2c-3.5,7.3-5.8,15-8,22.8C611.5,287.6,611.5,288.1,611.4,288.7z M493.7,305.5
		c0.2,1.3,0.3,2.7,0.6,4c0.4,1.4,1.1,1.8,2.5,1.4c1.5-0.4,2.6-1.4,3.2-2.7c2.1-4.9,4.2-9.8,6.2-14.7c0.1-0.1,0.1-0.3,0.1-0.5
		c0.3-1.1-0.2-1.7-1.3-1.8c-2.4-0.4-4.4,0.3-6.1,1.9C495.4,296.4,493.8,300.6,493.7,305.5z M648.1,291.6c-2.6-1-4.7-0.8-6.8,0.7
		c-4.7,3.3-7.4,11.5-5.7,17c0.5,1.7,1.4,2.2,3.1,1.4c0.8-0.4,1.5-0.9,2.1-1.6c0.7-0.8,1.3-1.8,1.8-2.8c1.8-4.3,3.5-8.7,5.3-13.1
		C648,292.8,648,292.3,648.1,291.6z M723.3,304.6c-0.1,2.9,1.4,4.3,3.7,3.6c2.1-0.6,4-1.5,6-2.4c0.4-0.2,0.9-1,0.8-1.5
		c-0.2-2.9-0.6-5.7-1-8.6c-0.2-1.2-1.1-1.8-2.3-1.5c-0.7,0.2-1.5,0.6-2.1,1.1C725.4,297.8,723.8,301.1,723.3,304.6z M532.1,289
		c2-2.4,3.5-4.7,4-7.5c0.2-1.2,0.1-2.5,0-3.8c-0.1-1.1-0.8-2-1.9-2.2c-1.2-0.2-1.9,0.7-2.4,1.6c-0.4,0.7-0.7,1.5-0.8,2.2
		C530.3,282.5,530.5,285.7,532.1,289z M574.8,329.1c-4.6,6.3-9.4,12.5-10.9,20.5C570,344,572.4,336.6,574.8,329.1z"/>
</g>
</svg>
