<?xml version="1.0" encoding="utf-8"?>
<!-- Generator: Adobe Illustrator 23.0.4, SVG Export Plug-In . SVG Version: 6.00 Build 0)  -->
<svg version="1.1" id="Layer_1" xmlns="http://www.w3.org/2000/svg" xmlns:xlink="http://www.w3.org/1999/xlink" x="0px" y="0px"
	 viewBox="0 0 1008 1008" style="enable-background:new 0 0 1008 1008;" xml:space="preserve">
<g>
	<path d="M687,493.6c0.5-2.3,1-4.2,1.5-6.1c0.8-2.9,2.7-4.6,5.5-5.6c1.9-0.7,3.8-0.5,5.5,0.7c9.2,6.3,18.8,12.2,27.6,19.1
		c7.2,5.6,12.5,12.6,15.2,21.4c2,6.5,5.4,12,10.1,16.9c2.3,2.4,4.5,5,6.4,7.8c5.8,8.4,5.6,17.7-0.6,25.8c-1.9,2.5-4.2,4.8-6.4,7.1
		c-0.6,0.6-1.2,1.2-1.9,2c3.1,3.7,6.4,6.8,10.6,8.6c1.8,0.8,4.1,1,6.1,1c6.7,0,11.3,3.4,14.9,8.6c3.7,5.4,5.6,11.6,6.9,18
		c1,4.9,1.8,9.7,2.9,14.6c2.3,10.9,9.1,18.4,19.1,22.8c16.7,7.4,33.3,7.1,49.9-0.5c3.7-1.7,7.3-3.6,11.1-5.2c4.5-1.9,9.1-2.8,14-2.5
		c5.6,0.4,7.4-0.9,9.6-6c1.3-3,1.9-6.1,2-9.3c0.3-6.9-0.8-13.7-2.4-20.5c-0.7-0.2-1.4-0.4-2.1-0.5c-3.3-0.6-5.9-2.4-7.7-5.2
		c-1.8-2.8-2.6-6-3.2-9.2c-0.4-2-0.7-4.1-1.1-6.1c-0.6-3.7-2.7-6-6.2-7.1c-3.9-1.2-8-1.3-12.1-1.6c-4.6-0.3-9.1-1-13.4-2.4
		c-2.8-0.9-5.4-2.1-7.7-3.8c-7.6-5.8-8-16.1-1-22.5c3-2.8,6.6-4.6,10.6-5.3c9.1-1.4,18.3-1.6,27.5-0.7c4.6,0.4,8.7,2.1,12.3,4.9
		c1.7,1.2,3.2,2.7,4.8,4c2.8,2.3,5.4,4.8,8.5,6.7c9.7,6,16.4,14.6,21.1,24.9c4.4,9.5,6.9,19.5,8.5,29.9c1.9,12.5,1.8,25,0.4,37.5
		c-0.2,2.1-0.7,4.2-1.3,6.3c-1.1,3.6-3.6,6.2-6.9,8.2c0.4,0.4,0.7,0.8,1.1,1.1c3.7,3,5.6,7,6.2,11.6c1.1,9.5-0.3,18.5-5.1,26.9
		c-3.6,6.2-8.7,10.5-15.6,12.8c-1.6,0.5-3.1,0.6-4.7,0.2c-4.1-1.1-6.3-4.4-5.5-8.5c0.5-2.3,1.3-4.5,2-6.6c0.8-2.5,1.8-4.9,2.7-7.5
		c-1.9-0.5-3.4,0-4.9,0.4c-10.3,2.5-20.5,5-30.7,7.5c-10.5,2.6-21.1,4.6-31.9,5.4c-5.6,0.4-11.2,0.3-16.7-0.5
		c-1.8-0.3-3.7-0.2-5.5-0.2c-2.4,0.1-4.2,1.3-5.5,3.4c-0.4,0.8-0.9,1.5-1.3,2.3c-3.1,5.6-7.8,9.5-13.9,11.5c-3.1,1-6.3,1.8-9.5,2.4
		c-4,0.8-7.4,2.6-9.9,5.8c-0.6,0.8-1.3,1.4-1.9,2.1c-5.1,5.4-11.3,7.4-18.5,6.4c-8.1-1.1-13.2-7-13.9-15.7
		c-0.3-4.2,0.3-8.3,1.1-12.4c1.2-6.5,2.6-13,3.8-19.5c0.7-3.7,2.1-7,3.9-10.3c1.7-3,3.2-6.1,3.8-9.5c0.2-1.1,0.2-2.2,0.4-3.5
		c-3-0.5-5.8-1.2-8.6-1.5c-3.8-0.3-5.2,0.9-5.9,4.7c-0.4,2-0.6,4.1-1,6.1c-1.7,8.4-6.4,14.5-14,18.4c-2.7,1.4-5.6,2.3-8.7,3.6
		c-0.1,0.8-0.2,2-0.3,3.1c-0.5,3.4-1.8,6.3-4.3,8.6c-5.1,4.5-12.3,3.5-15.9-2.3c-0.3-0.5-0.6-0.9-1-1.5c-1.4,2-2,4-2.3,6.1
		c-0.3,2.5-0.5,4.9-0.8,7.4c-0.8,5.3-3.5,9.5-7.8,12.4c-2.5,1.7-5.3,3.3-8.2,4.4c-7.7,2.8-15.6,4.8-23.7,5.6c-2.7,0.3-5.4,0-8.1-0.9
		c-3.2-1-5.6-3.1-6.6-6.4c-0.7-2.2-1.1-4.5-1.5-6.8c-1.2-6.5-2.3-13.1-3.4-19.6c-0.9-5-1.7-10.1-2.7-15.1c-0.3-1.6-0.9-3.1-1.5-4.5
		c-0.8-1.8-1.9-3-4.2-2.8c-2.2,0.2-4.2-0.7-5.9-2.2c-2.7-2.4-3.2-5.7-1.5-8.9c0.2-0.4,0.5-0.8,0.7-1.2c-0.1-0.2-0.2-0.4-0.3-0.5
		c-6.4-1.9-11.7-5.6-16.1-10.5c-4.1-4.6-8.6-8.4-14.1-11.3c-7.6-4-10.5-10.8-10.1-19.2c0.2-4.2,1.3-8.2,3.1-12c0.5-1,0.9-2,1.4-3.2
		c-1.8,0.1-3.4,0.5-4.9,0.3c-1.8-0.2-3.7-0.6-5.3-1.4c-3-1.4-4.5-3.9-4.2-7.4c0.5-6.6,1-13.2,1.3-19.9c0.3-4.8,0.3-9.6,0.4-14.4
		c0-0.5-0.1-0.9-0.1-1.5c-0.5,0-0.9-0.1-1.2-0.1c-17.7,0.7-35.3,1.3-53,2c-9.3,0.4-18.5,1.1-27.7,2.5c-2.3,0.4-4.6,0.3-6.9,0.2
		c-4.6-0.2-7.7-2.7-10-6.5c-0.4-0.6-0.6-1.3-1-2.1c-2,0.2-4.1,0.4-6.2,0.5c-9.3,0.4-18.5,0.7-27.8,1c-10.9,0.4-21.7,0.9-32.6,1.4
		c-11.7,0.4-23.5,0.9-35.2,1.2c-13.6,0.3-27.2,0.7-40.8,0.7c-12,0-24-0.6-35.9-1.7c-8.9-0.8-17.8-1.8-26.8-1.5c-0.8,0-1.6,0-2.5,0
		c-0.3,1-0.5,1.8-0.8,2.6c-2.3,6.7-6.8,10.9-14,11.9c-8.2,1.1-15.5-4.5-16.6-12.7c-0.1-0.4-0.1-0.8-0.2-1.5
		c-1.9-0.3-3.9-0.8-5.8-0.9c-6.8-0.2-13.6-0.5-20.4-0.5c-12.8,0-25.6,0.4-38.4,0.3c-11.8-0.1-23.6-0.8-35.5-1.2
		c-7.9-0.3-15.8-0.4-23.7-0.7c-7.6-0.2-15.2-0.5-22.8-0.8c-0.6,0-1.1-0.1-1.7-0.2c-10.3-1.8-13-7.2-14.4-15.7
		c-1.2-7.3-0.2-14.5,1.7-21.6c2.3-8.3,5.1-16.5,7.4-24.8c4.8-17.4,9.5-34.8,14.2-52.3c8.7-32.7,17.3-65.3,25.9-98
		c3.3-12.5,6.1-25.1,9.4-37.7c1.6-6.2,3.7-12.2,5.5-18.4c1.4-5,2.7-10,4.1-15c0.2-0.8,0.4-1.6,0.7-2.3c1.2-2.6,4.2-3.1,6.1-1
		c0.7,0.7,1.2,1.7,1.6,2.6c1.3,3.3,1,6.6,0.2,9.9c-0.3,1.2-0.6,2.3-1,3.4c-3.6,9.7-5.9,19.7-8.1,29.8c-0.2,0.8-0.2,1.7-0.4,2.7
		c1.1-0.2,1.4-1,1.8-1.7c2.7-4.9,5.5-9.8,8.1-14.7c5.5-10.1,11-20.2,16.6-30.3c1.6-2.8,3.7-5.4,5.7-8c0.7-0.9,1.6-1.8,2.6-2.4
		c2.8-1.9,5.9-0.7,6.7,2.6c0.8,3.1,0.3,6.2-0.3,9.3c-1.6,8.4-4.3,16.5-7.2,24.6c-3.3,9-6.7,18-10.1,27c-0.4,0.9-0.6,1.9-0.6,3
		c0.5-0.8,0.9-1.6,1.4-2.4c8.4-15.2,17-30.3,26.7-44.7c4.1-6,8.3-11.9,13.4-17.2c1.2-1.2,2.4-2.3,3.8-3.3c0.8-0.6,1.7-1.1,2.7-1.5
		c4.4-1.7,8.1,0.6,8.6,5.3c0.3,3.1-0.1,6.2-0.7,9.3c-1.8,8.1-4.7,15.9-8,23.6c-5.2,12.3-10.7,24.5-16,36.7
		c-1.8,4.1-3.3,8.3-4.8,12.5c-0.5,1.3-0.6,2.8-0.8,4.1c0.2,0.1,0.3,0.2,0.5,0.3c0.8-0.4,1.7-0.7,2.4-1.3c1.5-1.4,3-2.9,4.3-4.5
		c5.5-6.8,10.1-14.2,14.6-21.7c0.8-1.3,1.5-2.6,2.3-3.9c1.2-2.1,2.1-4.2,2.7-6.6c2.1-8.5,9.9-14.3,18.7-14.4c2.1,0,4.1,0.1,6.1,0.9
		c2.6,1,4.1,2.7,4.2,5.5c0.1,2.5,0,4.9-0.9,7.3c-1.3,3.6-2.5,7.2-3.6,10.9c-0.4,1.3-0.5,2.8-0.4,4.3c0.1,1.7,1.1,2.3,2.6,1.5
		c1.5-0.8,3.2-1.7,4.3-3c3.1-3.5,5.9-7.3,8.9-11c0.7-0.9,0.5-1.7,0.1-2.7c-0.5-1.3-0.8-2.7-1-4.1c-0.3-2.3,0.7-4,2.4-5.5
		c2.8-2.5,7.2-3.1,10-1.3c1.1,0.7,1.9,1.4,1.8,2.9c-0.1,1.4-1.2,2-2.3,2.4c-0.7,0.3-1.6,0.3-2.3,0.5c-1.2,0.4-1.6,1-1.1,2.1
		c0.2,0.5,0.5,1,0.8,1.5c1.3,1.7,2.6,3.4,3.8,5.2c1.2,1.8,2.3,3.6,3.5,5.6c0.4-0.3,0.8-0.4,1.1-0.7c6.3-5.8,12.5-11.7,18.8-17.5
		c1.3-1.2,2.8-2.4,4.4-3.3c1.2-0.7,2.7-1.2,4.1-1.2c2.4,0,3.4,2.4,2,4.3c-0.5,0.7-1.2,1.3-1.8,1.9c-4.1,4.4-6.4,9.5-6.2,15.6
		c0.1,2.8,0.8,5.3,2.1,8c0.7-0.4,1.3-0.8,1.8-1.2c3.9-3.1,7.8-6.1,11.7-9.2c0.6-0.4,1.1-0.9,1.7-1.4c2.8-2.1,5.4-4.2,7.7-7
		c4.3-5.3,10.3-7.4,17.1-6.7c7,0.7,9.3,5.5,7.4,12.1c-0.9,3-2.1,5.9-3.1,8.8c-0.6,2-1.1,4-1.5,6c-0.1,0.7-0.1,1.4,0,2.1
		c0.2,1.3,1,1.9,2.2,1.3c1.3-0.5,2.7-1.2,3.7-2.2c2.1-2.1,4-4.3,6-6.5c0.5-0.6,0.9-1.3,1.4-1.9c1.7-2,2.8-4.2,3.5-6.7
		c1.3-4.7,3.9-8.7,7.6-12c4.9-4.4,11.7-3.2,15.1-0.7c2,1.4,3.2,3.2,2.7,5.7c-0.1,0.8-0.6,1.8-1.2,2.2c-0.9,0.6-1.8-0.2-2.5-0.8
		c-3.1-2.6-5.9-2.5-8.4,0.7c-3.2,4-4.5,8.8-4.5,13.9c0,2.6,1.1,3.5,3.8,3.6c2.8,0.1,5.4-0.5,7.9-1.5c3.7-1.5,7-3.8,9.9-6.6
		c1.4-1.4,2.3-2.9,2.7-4.9c2.2-9.8,5.1-19.3,9.1-28.5c1.9-4.3,3.9-8.4,6.8-12.1c1-1.3,2.1-2.7,3.4-3.7c1.4-1.1,3-2,4.6-2.4
		c4.5-1.1,7.5,1.7,7.2,6.3c-0.3,3.9-1.4,7.5-2.8,11.1c-3.1,7.7-6.9,14.9-11.1,22.1c-2.5,4.4-5.2,8.8-7.9,13.1c-2,3.1-2.6,6.6-3,10.3
		c0.5-0.7,1-1.4,1.5-2c2.9-3.4,5.8-6.8,8.8-10.1c0.8-0.9,1.8-1.6,2.9-2.1c2.5-1.3,4.3-0.2,4.5,2.5c0.1,1.3,0,2.7-0.2,4.1
		c-1.3,9.4-2.7,18.8-2.7,28.4c0,3.6,0.1,3.9,1.1,6.2c1.3-0.2,2.1-1.2,2.7-2.1c2.2-3.6,4.4-7.2,6.4-10.9c1.4-2.6,2.5-5.3,3.8-8
		c1.1-2.5,1.9-5,2.1-7.8c0.2-3.6,1.2-7.1,3.1-10.2c2-3.1,5.2-4.4,8.7-3.5c2.3,0.6,3,1.6,2.5,4c-0.9,4.7-1.9,9.4-2.8,14.1
		c-0.3,1.8-0.6,3.8,0.3,5.6c1.6-0.2,2.4-1.2,3.1-2.2c1.1-1.9,2.2-3.9,3.2-5.9c2-4.5,3.9-9.1,5.9-13.6c1-2.4,2.9-3.5,5.3-3.9
		c2.7-0.5,3.9,0.7,3.2,3.3c-1.3,5.1-2.8,10.2-4,15.3c-1,4.3-1.8,8.8-2.5,13.2c-0.3,1.6-0.1,3.4,0.2,5c0.3,2.1,1.9,2.7,3.4,1.3
		c1.5-1.3,2.8-2.9,3.8-4.6c2.7-4.5,5.3-9.1,7.8-13.8c1.6-3,3.1-6.1,4.7-9.2c0.5-1,0.6-1.9,0.1-3c-1.6-4.2-1.1-8.4,0.6-12.4
		c2.2-5.1,8.2-7.2,13.1-4.8c3.4,1.7,4.5,5.5,2.3,8.4c-1.3,1.7-2.6,1.6-3.7-0.2c-0.3-0.5-0.9-1.3-1.2-1.2c-0.6,0.2-1.1,0.8-1.5,1.3
		c-0.3,0.3-0.3,0.9-0.3,1.4c0,0.6,0,1.1,0,1.7c0.7,5.4,3.7,9.7,6.9,14.1c2.4-1.7,4.4-3.4,6.7-4.7c2.5-1.5,4.1-3.3,5.3-6.1
		c2.3-5.8,7-8.8,13.1-9.4c3.6-0.3,7,0.6,9.9,2.9c3.3,2.6,3.8,6.3,1.2,9.7c-2.1,2.8-5.1,4.1-8.5,4.4c-1.6,0.1-3.2-0.1-4.8-0.2
		c-0.9-0.1-1.7-0.3-2.6-0.4c-0.9,2.6-1.5,5.1-1.3,7.7c0.1,1.1,0.4,2.2,1,3.1c0.8,1.4,2.2,2.2,3.9,1.6c2.2-0.7,4.5-1.4,6.4-2.7
		c3.1-2,5.9-4.4,8.8-6.6c0.8-0.6,1.4-1.6,2.3-2.1c2.5-1.5,3.4-4,4.4-6.6c2.6-6.8,5.5-13.5,8.3-20.2c0.3-0.6,0.5-1.3,1-2.3
		c-1.1,0-2,0-2.8,0c-4.5,0-8.9-0.5-13.3-1.6c-3.3-0.8-6.3-2.2-8.8-4.7c-2-2-2.8-4.5-2.7-7.2c0.6-10.7,11.2-20.5,21.9-20.1
		c2.1,0.1,4.2,0.7,6.2,1.5c1.7,0.6,3,1.9,3.5,3.7c0.6,2.2-0.7,3.7-2.9,3.4c-1.1-0.1-2.2-0.5-3.2-0.8c-7.6-2.6-15.6,0.3-19.7,7.1
		c-0.3,0.5-0.5,1-0.7,1.5c-1.1,3-0.4,4.9,2.4,6.4c2.5,1.4,5.2,2.1,8,2.3c5.4,0.4,10.8,0.5,16.2,0.8c1-1.7,1.8-3.2,2.7-4.6
		c1.3-1.8,2.5-3.7,4-5.4c1-1.2,2.4-2.1,4.1-2.2c1.8-0.1,2.8,0.8,2.6,2.6c-0.2,1.3-0.7,2.6-1.2,3.9c-0.6,1.5-1.5,3-2.4,4.8
		c4.8-0.4,9.3-0.7,13.7-1c1.8-3.2,3.4-6.3,5.3-9.2c1.3-2,2.8-3.9,4.5-5.5c0.9-0.9,2.3-1.3,3.6-1.6c1.4-0.3,2.2,0.5,2.2,1.9
		c0,1-0.1,2.1-0.5,3c-1.1,2.6-2.4,5.2-3.7,7.8c-0.6,1.3-1.3,2.5-2.1,4c2.3,0.4,4.3,0.7,6.4,1.1c3.5,0.7,6.8,1.9,9.4,4.4
		c0.3,0.3,0.7,0.7,1,1c1.8,1.9,2.2,3.9,1.2,5.7c-0.9,1.7-2.6,2.2-5.6,1.6c0.3-3.2-1.9-4.4-4.5-4.9c-3.5-0.6-7.1-0.9-10.7-1.3
		c-0.9-0.1-1.4,0.4-1.8,1.2c-8.1,16.8-16,33.6-20.6,51.8c-0.8,3.2-0.9,6.6-1.2,10c-0.1,1,0.1,2.1,1.2,3.1c1.2-0.8,2.5-1.5,3.6-2.5
		c1.9-1.8,3.8-3.7,5.5-5.7c6.6-7.9,12.2-16.4,17.8-25c0.7-1,0.8-1.9,0.4-3.1c-1.4-4.2-0.8-8.4,1.2-12.3c2.4-4.8,8.9-6.6,13.4-3.9
		c3.1,1.9,3.8,5.5,1.6,8.2c-1.3,1.6-2.5,1.5-3.5-0.4c-0.3-0.5-0.5-0.9-0.9-1.5c-1.5,0.4-2.1,1.3-2.2,2.6c-0.1,1.2,0,2.4,0.2,3.6
		c1,4.6,3.6,8.4,6.5,12.4c0.8-0.9,1.4-1.5,1.9-2.1c3.6-4.4,7.2-8.7,11.5-12.5c1.9-1.7,4-2.6,6.4-3c1.9-0.3,3.8-0.4,5.5-0.6
		c0.4-3.3,0.6-6.5,1.2-9.6c0.8-4,2.9-7.5,6-10.2c5.5-4.8,11.7-5.6,18.4-2.9c1,0.4,1.9,0.9,2.9,1.3c2.1,0.8,3.3,0.6,4.6-1.2
		c1.1-1.6,2-3.3,2.8-5c2-4.2,4.4-8,7.9-11c5-4.2,10.9-5.9,17.3-6.1c8.7-0.2,17.2,1,25.5,3.6c7.7,2.5,12.9,7.5,15.6,15.1
		c0.6,1.7,1.2,3.3,1.7,5c1.9,6.8,2.9,13.8,3.5,20.8c0.4,4.7,0.8,9.4,1.4,14.1c0.3,1.9,1,3.9,1.8,5.7c2.4,4.9,7.2,7.2,12.5,6.1
		c2.6-0.6,5.2-1.5,7.8-2.4c6.8-2.3,12.8-0.6,17.9,4.2c5.7,5.2,7.2,13,4.3,20.5c-2.1,5.3-5.7,9.5-10.6,12.4c-2.9,1.7-6,3.1-9.1,4.2
		c-7.3,2.8-14.7,5.5-22.1,8.1c-2.7,1-5.5,1.7-8.3,2.4c-4,0.9-7.9,0.4-11.9-0.6c-2.2-0.5-4.4-0.9-7.1-1.4c0.5,0.9,0.7,1.3,1,1.7
		c1.4,1.5,2.8,3,4.2,4.6c0.5,0.6,1,1.2,1.5,1.9c3.4,4.9,3.3,9.5-0.5,14.1c-1.8,2.2-4.1,4.1-6.4,5.8c-4.6,3.4-9.6,6-15.1,7.8
		c-2.1,0.7-3.1,2.1-3.5,4.1c-0.2,1-0.3,2.1-0.4,3.1c-0.9,10.4-6.2,18.1-14.4,24.1c-1.5,1.1-3.1,2-4.7,2.9c-1.2,0.7-1.5,1.7-1.1,2.8
		c0.4,1.1,0.9,2.2,1.6,3.1c2.5,3.2,5.7,5.4,9.4,6.8c1.9,0.7,3.9,1.3,5.9,1.8C683,493,684.9,493.2,687,493.6z M696.1,422.7
		c-0.8-0.8-1.4-1.3-2-1.9c-1.9-2.2-3.9-4.3-5.5-6.6c-4.7-7-2.7-14.7,4.7-18.6c3.3-1.8,6.9-2.6,10.6-2.3c2.5,0.2,5.1,0.7,7.5,1.3
		c4.9,1.2,9.7,0.9,14.3-1c1.8-0.7,3.5-1.5,5.3-2.2c3.9-1.5,7.8-2.9,11.7-4.3c2.3-0.8,4.8-1.4,7-2.5c2.2-1.1,4.3-2.5,6.2-4
		c1-0.8,1.8-2.1,2.3-3.3c0.6-1.3,0.4-2.7-0.6-3.8c-1-1.2-2.3-1.4-3.7-0.9c-0.9,0.3-1.8,0.6-2.7,1c-8.9,4.1-17.6,3.3-25.9-1.7
		c-6.8-4.1-10.6-10.4-11.9-18c-1-5.8-1.4-11.7-1.9-17.6c-0.6-7-1.9-13.8-3.9-20.4c-1.2-4-3.8-6.6-7.8-7.7c-4.9-1.4-9.7-2.7-14.8-3
		c-9.8-0.6-13.8,2.4-17.2,9.5c-0.8,1.6-1.6,3.1-2.4,4.7c-1.9,3.4-4.5,6-7.9,7.9c-3.3,1.9-6.9,2.7-10.6,1.8c-2.4-0.6-4.7-1.5-7.1-2.3
		c-2.8-1-4.6-0.3-5.2,2.6c-0.4,1.8-0.3,3.8-0.2,5.7c0.1,1.7,0.6,3.5,0.8,5.2c0.5,3.6-0.4,7.4-5.3,9c-1.4,0.5-2.9,1-4.4,1.2
		c-3.2,0.4-6.4,0.8-9.5,0.9c-7.2,0.2-13.1,3.7-18.9,7.4c-0.2,0.1-0.3,0.4-0.4,0.5c0,0.1,0,0.2,0,0.3c0.3,0.7,0.5,1.3,0.8,2
		c2,5.1,3.2,10.4,3,15.9c-0.2,5-2.5,11.2-10.2,12.7c-7.4,1.5-13.3-2.3-14.5-9.5c-0.7-4.2-0.2-8.3,2.2-12c1.6-2.4,3.4-4.6,5.2-6.9
		c0.8-1,1.7-1.8,2.6-2.8c-1.8-3-3.8-5.7-5.9-8.6c-0.7,1.3-1.3,2.3-1.8,3.3c-4.1,7.7-8.7,15.1-14.1,22c-2.4,3.1-5.1,6-8.3,8.3
		c-2,1.5-4.3,2.5-6.8,2.8c-3.5,0.3-6.4-1.3-7.5-4.7c-0.6-2-1-4.2-0.9-6.3c0.1-4.9,1.2-9.7,2.6-14.4c0.2-0.6,0.3-1.1,0.4-1.7
		c-1.1,0.9-1.8,1.9-2.6,2.9c-0.8,1-1.6,2-2.6,2.8c-1.6,1.2-3.2,2.5-5,3.1c-3.1,1.2-6.4-0.5-7.6-3.6c-0.4-1-0.7-2.2-0.8-3.2
		c0-2.7,0.2-5.4,0.3-8.1c0-0.9,0.2-1.8,0.3-2.7c-3.7,2.5-7,5-10.5,7.1c-1.9,1.2-4,2.2-6.1,2.8c-8.5,2.2-14.5-2.1-15.7-10.2
		c-0.1-0.9-0.2-1.8-0.4-3.2c-2.1,1.3-3.8,2.4-5.5,3.6c-2.1,1.4-2.1,1.4-1,3.8c2.4,5.4,3.8,11,3.7,17c-0.1,8-4.2,12.7-12.1,13.7
		c-5.8,0.7-11-2.9-12.3-8.6c-1.1-4.6-0.6-9.1,2-13.2c1.7-2.7,3.8-5.1,5.8-7.6c0.6-0.7,1.3-1.4,2-2.2c-1.7-2.4-3.3-4.6-4.9-7
		c-2.8,5.3-5.4,10.2-8,15.2c-1.9,3.6-4.2,7-7,10c-1.5,1.5-3.2,3-5,4c-4.1,2.3-8.5,0.8-10.9-3.2c-1.7-2.8-2.2-5.8-1.7-9
		c0.2-1.4,0.5-2.8,0.7-4.2c-2.4,2.2-4.9,3.6-8.1,4c-3.5,0.4-6-1.1-7.9-4.1c-0.6,1.3-1.1,2.4-1.6,3.4c-2.3,4.9-4.7,9.6-8.1,13.8
		c-1.2,1.5-2.7,3-4.2,4.2c-4.5,3.3-8.2,2.1-10.1-3.1c-0.3-0.7-0.5-1.5-0.7-2.3c-0.4-2.6-0.8-5.2-0.9-7.8c-0.3-7,0.9-13.9,2.6-20.6
		c0.2-0.8,0.4-1.6,0.6-2.3c-0.9,0.6-1.4,1.3-1.9,2c-2.7,3.7-5.4,7.3-8.2,11c-0.7,0.9-1.6,1.8-2.6,2.5c-2.2,1.6-4.7,0.9-5.8-1.5
		c-0.5-1.1-0.7-2.3-0.7-3.5c0.1-3.5,0.4-7,0.6-10.5c-0.1,0-0.2-0.1-0.2,0c-0.9,0.6-1.8,1.3-2.7,1.9c-4.7,3.2-9.8,5.8-15.5,6.7
		c-6.2,1-11.7-1.9-13.2-7.6c0-0.2-0.3-0.3-0.5-0.5c-0.6,0.8-1.1,1.5-1.6,2.2c-2.4,3.4-5.2,6.5-9,8.5c-1.8,0.9-3.9,1.6-5.9,1.9
		c-3.9,0.5-6.7-1.9-7-5.8c0-0.5-0.1-1-0.2-1.8c-1,0.6-1.7,1.2-2.6,1.7c-4.5,2.4-11.1,2.2-13.3-5c-0.6-1.9-0.6-4.1-0.9-6.1
		c-0.1-0.5-0.1-1-0.1-1.9c-4.9,3.9-9.6,7.3-13.4,11.7c-0.5,0.5-1,1.1-1.2,1.8c-0.2,0.6-0.4,1.4-0.2,2c1.9,5.8,2.4,11.7,2.1,17.8
		c-0.3,4.5-1.3,8.7-3.9,12.4c-2.6,3.7-6.4,5.2-10.8,5c-4.6-0.2-7.1-3.1-7-7.7c0-1.6,0.2-3.2,0.6-4.7c1.6-6.5,4.2-12.7,8-18.1
		c2.2-3.2,2.3-5.8,0.7-9c-0.3-0.5-0.5-1-0.6-1.5c-1.4-3.9-1.9-7.9-1.3-12c0.2-1.3,0.3-2.6,0.6-4.2c-0.5,0.4-0.8,0.5-1,0.8
		c-3.8,3.7-7.5,7.4-11.3,11.1c-1,1-1.2,1.8-0.8,3.1c1.3,4,2,8.1,1.7,12.3c-0.7,9.2-4.9,13.5-11.5,15.3c-7.5,2.1-13.6-3.8-11.7-11.4
		c0.9-3.9,2.8-7.3,5.4-10.3c2-2.2,4-4.4,6-6.5c0.5-0.6,1.2-1.1,0.7-2.1c-1.4-3.1-3.2-6-5.7-8.5c-1.9,2.7-3.6,5.3-5.4,7.8
		c-2.3,3.2-5,5.8-8.5,7.7c-2,1.1-4.1,1.7-6.4,1.8c-3.6,0-6.1-2.2-6.3-5.8c0-0.6-0.1-1.2-0.1-2c-2.8,2.4-5.7,3.5-9.1,3.1
		c-3.7-0.4-5.6-3-7-6.1c-0.2,0.3-0.4,0.4-0.5,0.5c-0.6,1.1-1.2,2.3-1.8,3.4c-4,7.7-8.4,15.3-14.3,21.8c-1.6,1.8-3.5,3.5-5.5,5
		c-1.7,1.3-3.7,1.8-5.9,1.6c-4.4-0.4-7.3-3.8-6.8-8.2c0.4-3,0.8-6,1.5-9c2-8.5,5.3-16.6,8.6-24.6c4.8-12,9.7-24,14.4-36.1
		c1.3-3.4,2.3-6.9,3.4-10.4c-0.1-0.1-0.3-0.2-0.4-0.3c-0.7,0.7-1.3,1.3-2,2c-5,5.4-9.2,11.3-13.2,17.4
		c-9.2,14.1-17.3,28.9-25.3,43.8c-1.7,3.2-3.5,6.5-5.5,9.5c-1.6,2.4-3.7,4.2-6.8,4.3c-4.1,0.2-6-1.9-5.4-5.9c0.5-3,1-6,2-8.9
		c2.2-6.9,4.7-13.7,7.1-20.6c3.4-9.9,6.8-19.8,10.1-29.7c0.6-1.8,0.8-3.7,1.4-6c-1.9,1.2-2.6,2.7-3.4,4c-2.5,4.5-4.9,9-7.2,13.5
		c-4.9,9.5-9.5,19.2-14.5,28.6c-2.6,4.8-4.5,9.7-5.9,14.9c-0.4,1.5-0.7,3-1.1,4.4c-11.6,43.7-23.2,87.4-34.9,131.1
		c-4,15.1-7.8,30.3-12.8,45.2c-1.7,4.9-2.9,10-3.5,15.1c-0.4,3.8-0.1,7.6,0.6,11.4c1.6,0.2,3,0.5,4.4,0.5
		c12.3,0.4,24.6,0.8,36.9,1.2c8.9,0.3,17.9,0.5,26.8,0.8c9.2,0.3,18.4,0.6,27.6,0.8c4.8,0.1,9.6-0.2,14.4-0.3
		c3.4-0.1,6.7-0.1,10.1-0.2c8.5-0.2,16.9-0.5,25.4,0.6c4,0.6,7.9,1.5,11.4,3.6c3.2,1.9,5.3,4.6,5.6,8.4c0,0.5,0.3,0.9,0.5,1.5
		c0.2-0.2,0.3-0.3,0.3-0.4c0.2-0.6,0.3-1.2,0.5-1.8c1.6-5.5,5.2-9,10.7-10.1c2.9-0.6,5.9-1.1,8.8-1c7.2,0.3,14.4,0.7,21.5,1.4
		c12.4,1.2,24.9,1.9,37.3,2c12.9,0,25.9-0.3,38.8-0.6c14.1-0.4,28.3-1,42.4-1.5c11.5-0.4,23-0.9,34.5-1.4c5.7-0.2,11.3-0.6,17-0.9
		c3.8-0.2,7.7-0.4,11.5-0.5c6.5-0.2,11.5,2.4,14.4,8.3c0,0.1,0.1,0.1,0.2,0.2c0.8,0,1.6,0.1,2.3,0c6.8-1.3,13.6-1.7,20.5-2
		c13.9-0.6,27.8-1.3,41.7-2c5.7-0.3,11.3-0.5,17-0.7c2.6-0.1,5.3-0.5,7.9-0.4c5.7,0.2,9.1,3,10.3,8.6c0.5,2.4,0.7,4.9,0.7,7.4
		c-0.2,7.8-0.7,15.6-1,23.5c-0.1,1.3,0,2.6,0,4c0.7-0.1,1.3-0.2,1.9-0.2c4.7-0.4,8.5,1.3,11.2,5.2c2.7,3.9,3.2,8.2,1.5,12.6
		c-1,2.6-2.4,5-3.4,7.7c-0.9,2.3-1.6,4.7-2.1,7.1c-0.5,2.7,0.7,4.8,3.1,6.2c1.1,0.6,2.2,1.3,3.3,1.9c4.1,2.3,7.8,5.2,10.9,8.9
		c2.1,2.4,4.4,4.6,6.8,6.8c2.8,2.5,5.8,3.4,9.7,2c5.3-1.9,9.9,1.7,10,7.3c0,2.2-0.4,4.4-0.6,6.7c-0.1,0.6-0.2,1.2-0.2,1.8
		c0.2-0.2,0.4-0.3,0.6-0.5c1,1.3,2,2.5,3,3.7c3.5,4.1,5.1,9,6.1,14.1c1.7,8.7,3.2,17.4,4.8,26.2c0.5,2.8,1.1,5.6,1.7,8.7
		c2.8-0.4,5.4-0.7,8-1.2c4.7-1,9.4-2.1,13.7-4.1c2.9-1.4,4.4-3.6,4.3-6.8c-0.1-8.6,3.6-15.8,9-22.2c1.5-1.7,3.4-3.2,5.3-4.4
		c3.3-2.1,6.9-2.4,10.6-0.9c0.6,0.2,1.2,0.4,1.5,0.5c1.8-1.3,3.2-2.6,4.9-3.4c1.9-0.9,4.1-1.4,6.2-1.9c6.2-1.4,9-4.3,10.2-10.6
		c0.4-2.4,0.9-4.9,1.5-7.3c0.8-3.1,2-6.1,4.3-8.4c4.5-4.6,10-6.1,16.2-5.6c2.9,0.2,5.8,1,8.8,1.5c0.2-0.3,0.4-0.6,0.7-0.9
		c2.4-2.8,5.5-3.6,8.8-2.4c3.1,1.1,4.7,3.6,4.8,7.3c0,1.7,0,3.4,0,5c-0.1,9.6-1.9,18.8-6.6,27.2c-1.4,2.5-2.2,5.1-2.6,7.9
		c-0.5,2.9-1,5.8-1.6,8.7c-0.8,4.6-1.7,9.1-2.5,13.7c-0.2,0.9-0.2,1.8-0.2,2.6c0.1,1.6,0.9,2.4,2.5,2c1.3-0.3,2.6-0.9,3.6-1.7
		c1.4-1.1,2.7-2.3,3.7-3.7c3.8-4.9,8.8-7.5,14.8-8.6c2.4-0.4,4.7-0.9,7.1-1.4c3.5-0.7,6.2-2.4,8-5.5c0.8-1.5,1.7-2.9,2.6-4.3
		c3.3-5.3,8.2-8,14.3-8.4c3.7-0.2,7.5-0.2,11.3,0.1c9.2,0.7,18.2,0,27.2-1.9c10.8-2.2,21.5-5,32.2-7.5c6-1.4,12-2.9,18-3.9
		c5-0.9,9.9-0.2,14.1,3.2c0.2,0.1,0.4,0.2,0.7,0.3c0.4-2.7,0.4-5.1-2.2-6.8c-0.8-0.5-1.5-1.3-2.1-2c-5-5.5-5.3-15.6,1.7-20.3
		c1.1-0.7,2-1.6,2.9-2.5c0.5-0.5,0.9-1.2,0.9-1.8c1.1-11.6,1.5-23.1-0.2-34.7c-1.9-13.2-6.2-25.4-14-36.3c-2.1-3-4.6-5.5-7.9-7.2
		c-3.1-1.7-5.8-3.9-8.3-6.4c-1.3-1.2-2.6-2.4-3.9-3.6c-3.4-3.1-7.5-4.6-12-4.6c-5.4,0.1-10.7,0.3-16.1,0.5c-1.8,0.1-3.5,0.5-5.3,1.8
		c1.4,0.6,2.5,1.2,3.6,1.4c3.4,0.6,6.8,1.1,10.2,1.4c4.9,0.5,9.9,1,14.6,2.5c8,2.5,13.4,7.5,15.3,15.9c0.3,1.3,0.5,2.7,0.7,4
		c0.4,2.3,0.7,4.5,1.1,6.8c1,0.1,1.7,0.1,2.4,0.2c3.8,0.4,6.6,2.2,8.4,5.6c0.7,1.3,1.3,2.6,1.6,4c0.7,2.9,1.2,5.8,1.7,8.7
		c1.1,7,2.1,13.9,1.2,21c-0.8,6.5-2.5,12.7-6.3,18.2c-3.9,5.7-9.3,8.9-16.4,8.8c-1.4,0-2.9,0-4.3,0c-2.9,0-5.7,0.5-8.4,1.7
		c-2.4,1.1-4.8,2.2-7.1,3.4c-9.6,5.1-19.9,7.8-30.8,8.3c-12.8,0.6-25-1.7-36.4-7.6c-12.3-6.4-21.1-16.1-24.9-29.6
		c-1.3-4.5-1.9-9.2-2.7-13.9c-0.9-4.7-1.9-9.2-4.1-13.5c-1.6-3.1-3.9-5-7.5-5c-0.4,0-0.8-0.1-1.2-0.1c-3.6,0.1-6.9-1.1-10-3
		c-6.1-3.7-11.2-8.6-15.3-14.3c-3.8-5.2-3.5-9.9,0.5-14.9c1.5-1.9,3.2-3.5,4.8-5.3c1.5-1.7,3.1-3.3,4.4-5.1c1.9-2.6,2-5.3,0.3-8.1
		c-0.5-0.8-1-1.6-1.6-2.4c-1.4-1.6-2.8-3.1-4.2-4.6c-5.3-5.5-9.5-11.6-11.8-19c-0.6-1.7-1.2-3.5-1.9-5.2c-1.5-3.8-3.6-7.2-6.9-9.6
		c-5.7-4.2-11.6-8.2-17.4-12.3c-0.1,0-0.2,0-0.3,0c-0.1,0.2-0.2,0.4-0.3,0.6c-1.8,4.4-4.3,6-8.9,5.5c-4.5-0.5-9.1-1-13.5-1.8
		c-7.3-1.3-14.2-3.9-20.1-8.6c-4.8-3.9-8.2-8.7-9.8-14.7c-2.1-7.7,0.2-13.9,6.7-18.4c1.8-1.2,3.6-2.4,5.4-3.6
		c4.3-2.9,6.8-6.9,7.6-12c0.3-2,0.7-3.9,1-5.9c1.1-6.1,4.4-10.5,10-13.2c1.7-0.8,3.5-1.6,5.3-2.3C689.2,427,692.6,425.1,696.1,422.7
		z M561.6,315.3c-4,0.3-7.6,0.6-11.2,0.7c-1.5,0-2.1,0.7-2.6,1.9c-3.2,8.7-6.7,17.3-9.7,26c-1.8,5-2.9,10.3-4.3,15.5
		c-0.2,0.9-0.2,2-0.2,2.9c0.2,0.1,0.3,0.2,0.5,0.2c0.8-0.6,1.7-1.2,2.3-1.9c2-2.6,4.2-5.1,5.9-7.9c6.4-10.6,11.7-21.7,17.1-32.7
		C560,318.7,560.7,317.2,561.6,315.3z M588.7,363.7c-3.8,3.1-6.3,6.6-7.5,11c-0.6,2.3-0.5,4.6,0.3,6.8c1.5,4.1,5.8,4.8,8.4,1.3
		c0.8-1,1.3-2.4,1.7-3.7C593,373.8,590.9,368.9,588.7,363.7z M478,358.7c-3.7,2.8-6.6,6.9-7.5,10.9c-0.6,2.6-0.5,5.2,0.7,7.7
		c1.4,2.8,4.3,3.4,6.9,1.6c1.4-1,2.2-2.5,2.7-4.1C482.3,369,480.3,364,478,358.7z M329.1,328.4c-2.2,0-3.8,0.8-5.2,2
		c-4.8,4.1-5.9,9.5-5.4,15.4c0.2,2.4,1.6,3.2,3.6,1.9c1.3-0.8,2.5-2.1,3.2-3.5c2.2-4.3,4.2-8.8,6.2-13.2c0.7-1.5,0.2-2.2-1.4-2.5
		C329.7,328.5,329.3,328.5,329.1,328.4z M219.4,338.7c0.2,1.2,0.2,2.4,0.5,3.5c0.4,1.3,1,1.6,2.4,1.3c1.6-0.4,2.8-1.3,3.5-2.7
		c2.4-4.9,4.8-9.9,7.1-14.8c0.5-1,0-1.7-1.1-1.9c-2.4-0.5-4.5,0-6.5,1.6C221.2,329.1,219.5,333.5,219.4,338.7z M262,351.3
		c-0.2,0-0.5-0.1-0.7-0.1c-4.2,3.5-7.6,7.6-9.4,12.9c-0.2,0.6-0.2,1.3-0.2,1.9c0,1.4,0.6,2.2,1.9,2.7c2.9,1.1,5.3,0.3,6.8-2.5
		c1.8-3.4,2.1-7.1,2-10.9C262.4,354,262.2,352.6,262,351.3z M286.4,361.9c-3.3,5.2-6.3,10.5-7.6,16.6c-0.2,0.9-0.2,1.9-0.1,2.9
		c0.1,1.5,0.8,2,2.2,1.6c1.9-0.5,2.9-1.9,3.7-3.5C287.1,373.9,287.2,368,286.4,361.9z M396.8,324.2c0.1,0,0.2,0.1,0.3,0.1
		c0.2-0.3,0.4-0.6,0.6-1c2.1-4,4.3-8,6.2-12.2c2-4.5,3.7-9.2,5.5-13.8c0.4-1,0.6-2.1,0-3.5c-0.6,0.6-1.2,0.9-1.5,1.4
		c-1,1.6-1.9,3.1-2.7,4.8c-3.5,7.6-5.9,15.5-8.4,23.4C396.7,323.7,396.8,324,396.8,324.2z M505.4,340.1c1.8,0.3,3.3,0.8,4.9,0.8
		c2.2,0,4-1.1,5-3.1c0.8-1.7,0-3-1.9-3.1C510.6,334.4,507,336.8,505.4,340.1z"/>
</g>
</svg>
