<?xml version="1.0" encoding="utf-8"?>
<!-- Generator: Adobe Illustrator 23.0.4, SVG Export Plug-In . SVG Version: 6.00 Build 0)  -->
<svg version="1.1" id="Layer_1" xmlns="http://www.w3.org/2000/svg" xmlns:xlink="http://www.w3.org/1999/xlink" x="0px" y="0px"
	 viewBox="0 0 1008 1008" style="enable-background:new 0 0 1008 1008;" xml:space="preserve">
<g>
	<path d="M614.5,895.9c-0.7,1.1-1.4,2.2-2.2,3.3c-1.7,2.5-3.4,5-5.2,7.5c-0.5,0.7-1.1,1.4-1.7,2c-2.4,2.2-5.4,1.4-6.3-1.8
		c-0.4-1.7-0.4-3.5-0.4-5.2c0-1.8,0.2-3.7,0.3-5.9c-0.7,0.5-1.2,0.8-1.7,1.1c-4.2,3.3-8.7,6-14,7.1c-3,0.6-6,0.6-8.5-1.3
		c-1.5-1.2-2.7-2.8-4.1-4.4c-0.4,0.5-0.9,1.1-1.5,1.8c-2.3,2.9-4.8,5.6-8,7.5c-1.9,1.2-3.9,1.8-6.1,2c-2.9,0.2-4.9-1-6.3-3.5
		c-0.2-0.4-0.5-0.8-0.7-1.2c0,0-0.1,0-0.4-0.1c-0.4,0.8-0.9,1.7-1.4,2.6c-3,5.9-6.1,11.8-10.4,16.9c-1.4,1.7-3.1,3.3-4.9,4.6
		c-2.8,1.9-5.7,1.8-8.5-0.1c-1.6-1-2.4-2.5-2.5-4.4c-0.1-3.7,0.5-7.3,1.2-10.9c1.9-8.7,5.1-17,8-25.3c3.8-11.1,8.1-22,11.2-33.4
		c0.2-0.8,0.4-1.7,0.3-2.8c-0.7,0.9-1.5,1.7-2.2,2.6c-4.9,6.1-8.9,12.7-12.7,19.5c-7.2,12.7-13.4,25.8-19.7,38.9
		c-0.9,1.9-1.9,3.7-3.1,5.4c-1.3,1.8-3.1,3-5.4,3.2c-3.2,0.3-5-1.2-4.9-4.4c0.1-2.1,0.3-4.3,0.9-6.4c1.6-6.2,3.4-12.3,5.2-18.4
		c2.7-9.4,5.5-18.7,8.1-28.1c0.5-1.6,0.6-3.3,1-5.2c-1.2,0.5-1.6,1.3-1.9,2c-1.9,3.8-3.8,7.6-5.6,11.4c-4.2,9.2-8.1,18.4-12.4,27.5
		c-2,4.2-4.6,8.2-7,12.2c-0.6,0.9-1.4,1.8-2.3,2.4c-2.3,1.6-4.5,0.5-4.7-2.3c-0.3-6.1-0.5-12.2,0.4-18.2c1.1-7,2.5-14,3.7-21
		c0.9-4.9,1.6-9.8,2.5-14.6c1.2-6.5,3.8-12.5,5.9-18.7c4.8-13.8,9.1-27.8,11.8-42.2c2-10.3,3.1-20.7,3-31.2c0-12.2-2.5-24-6.9-35.3
		c-2.5-6.4-4.9-12.8-7.2-19.3c-2.6-7.4-4.2-14.9-4.2-22.8c0-4.6,0.4-9.3,0.8-13.9c0.6-6.7,0-13.4-0.9-20.1
		c-0.6-4.8-1.3-9.5-1.5-14.3c-0.3-6.3,0.7-12.5,3.5-18.2c2.2-4.5,4.7-8.7,7.1-13.1c1.3-2.4,2.7-4.7,4.1-7.1c3.7-6.5,5.7-13.5,6.3-21
		c0.6-6.7,0.9-13.4,1.5-20.1c0.9-10.5,3.1-20.5,8.6-29.7c3.3-5.5,7.5-10.2,12.3-14.4c3.7-3.2,7.5-6.5,11.4-9.5
		c6.7-5.3,12.5-11.4,17.4-18.4c3.1-4.4,6.3-8.6,10.4-12.2c1-0.8,1.9-1.7,3-2.4c2.7-2,5.6-1.7,8.3-0.1c2.6,1.6,3.7,3.9,3.5,7.1
		c-0.8,8.9-1.5,17.8-2,26.8c-0.3,5.5-0.1,11-0.1,16.6c0.9-0.5,1.2-1.4,1.5-2.2c2-4.5,3.2-9.2,4-14c1-5.7,1.8-11.4,2.9-17
		c1.2-6.1,3.3-11.9,6.7-17.1c1.5-2.3,3.2-4.4,5-6.4c4.4-4.7,10-7.1,16.3-7.7c2.8-0.2,5.6-0.6,8.3-0.9c0.8-0.1,1.5-0.3,2.6-0.6
		c-0.7-0.7-1.2-1.2-1.7-1.6c-8.7-6.7-11.7-15.7-10.4-26.3c1.3-10.6,6.7-18.3,16.7-22.6c1.9-0.8,4-1.1,6-1.8c2.1-0.7,4.4-1.1,6.2-2.9
		c-0.6-1.2-1.2-2.5-1.9-3.8c-8-13.3-19.8-20.8-35.1-22.6c-10.7-1.3-20.6,1.1-29.6,7.1c-3.3,2.2-6.7,4.4-10.1,6.5
		c-3.9,2.4-8.1,4.1-12.8,4.5c-3.7,0.3-7.3-0.3-10.9-1c-1.6-0.3-3.1-0.7-4.7-0.9c-4-0.8-7.8,0-11.2,2.2c-4.1,2.6-7.4,6.1-10,10.2
		c-2.7,4.3-5.2,8.6-7.7,13c-3.1,5.2-6.3,10.4-10.8,14.6c-2.9,2.8-6.3,4.9-10.4,5.6c-7.9,1.2-14.6-3.9-15-12
		c-0.3-5.4,1.3-10.2,4.5-14.6c1-1.3,2-2.6,3.3-4.3c-1.4,0.2-2,0.9-2.5,1.5c-1.6,2.1-3.1,4.3-4.6,6.4c-1.6,2.3-3.1,4.7-4.9,6.8
		c-3,3.5-6.8,4.9-11.4,3.5c-2.8-0.8-4.7-2.7-5.9-5.3c-0.9-2-1.6-4.1-2.6-6.5c-0.4,0.7-0.8,1.3-1.1,1.9c-6.7,14.2-14.3,27.9-23,41
		c-8.1,12.3-17.1,24-26.8,35.1c-2.3,2.6-4.8,3.4-8.3,2.6c-5.6-1.4-9-4.7-10.2-10.2c-0.5-2.5-0.9-5-1.3-7.6c-0.1-0.7-0.2-1.4-0.3-2.1
		c-0.1-1.6-1-2.6-2.5-3.1c-6.9-2.5-9.7-7.8-10.3-14.8c-0.4-4.5,0.4-8.9,1.3-13.3c0.9-4.7,1.7-9.4,1.3-14.3c-0.6-6.7-3.1-12.1-9-15.8
		c-2.3-1.4-4.4-3.2-6.4-5c-3.1-3-4.9-6.9-6.2-11c-0.5-1.6-1-3.2-1.6-4.8c-1-2.6-2.9-4-5.6-4.2c-1.9-0.2-3.8-0.2-5.7-0.2
		c-6.3,0.2-12.6,0.5-18.9,0.6c-7.6,0.1-14.7-1.9-21.6-4.9c-4.4-2-8.7-4.1-13-6.2c-9.9-4.9-20.5-8.1-31-11.4
		c-24.8-7.7-49.5-15.5-74.3-23.3c-1.5-0.5-3-1.2-4.3-2.1c-2.3-1.7-3-4-2.4-6.8c0.3-1.2,0.6-2.5,0.7-3.8c0.3-3.2-1-5.8-3.4-7.8
		c-2.8-2.3-6.1-3.6-9.5-4.2c-3.6-0.6-7.3-1-10.9-1.2c-4.2-0.2-6.5-1.6-7.5-5c-1.1-3.6,0.2-7.2,3.5-9.4c5-3.3,10-6.6,15-9.9
		c8.9-5.9,17.7-11.8,26.6-17.5c3.7-2.4,7.6-4.4,11.5-6.3c5-2.4,10.3-3.3,15.8-3.6c4.3-0.2,8.6-0.3,12.9-0.7
		c8.1-0.8,15.4-4.1,22.1-8.6c8.5-5.5,16-12.2,23.4-19.1c9.4-8.9,18.6-18,28.7-26.2c10.6-8.5,21.7-16,34.5-21
		c13.9-5.4,28.2-7.4,43-6.2c5.7,0.4,11.3,1.4,16.8,2.6c2.6,0.6,4.3,2,5.5,4.5c3.7,7.4,0.1,16-6.2,19.5c-2.1,1.2-4.5,2.2-6.8,2.8
		c-7.7,1.7-14.3,5.4-20.2,10.6c-11.3,9.9-21.5,21-30.4,33.2c-0.2,0.3-0.4,0.6-0.4,1.2c0.5-0.3,1-0.7,1.5-1c3-2.2,6.4-3.4,10.1-3.4
		c7.8-0.1,15.7-0.2,23.5,0.1c12.5,0.3,23,5.2,31.2,14.6c7.2,8.1,13.3,17,18.2,26.7c2.4,4.7,3.5,9.7,4.1,15.1
		c3.3,0.3,6.5,0.5,9.7-0.6c2.8-1,5.6-1.8,8.4-2.8c5.9-2.1,11.8-1.9,17.5,0.8c1,0.5,2.1,0.9,3.1,1.4c2.8,1.5,5.6,1.4,8.3,0.2
		c2-0.8,3.9-1.8,5.8-2.9c1.8-1,3.7-1.4,5.8-1.2c3.1,0.4,5.2,2.2,6.1,5.3c0.1,0.3,0.2,0.6,0.3,1.1c0.5-0.5,0.9-0.8,1.3-1.2
		c5.3-5.4,10.8-10.5,17-14.7c8.7-5.8,18.3-8.9,28.5-10.6c9.2-1.5,18.5-1.8,27.7-2.3c13.4-0.8,26.8-2.2,40-4.6
		c6.8-1.3,13.8-2.2,20.7-1.6c3,0.2,6,0.7,9,1.4c3.1,0.7,5.2,3.2,5.2,6.3c0,2.1-0.3,4.3-0.8,6.4c-0.8,3.2-1.9,6.3-2.8,9.4
		c-0.5,1.8-0.9,3.7-1,5.6c-0.2,3,1.1,5,4,5.8c2.4,0.6,4.9,1,7.3,1c12.5,0,24.9-1.4,36.8-5.5c3.6-1.2,7.2-2.2,11-2.2
		c8.8-0.1,15.6,5.6,17.1,14.3c0.6,3.8,0.2,7.5-0.9,11.1c-1,3.6-2.3,7.2-3.3,10.8c-0.6,2.4-1,4.8-1.4,7.2c4.8,2.5,7.9,6.4,10.8,10.4
		c1.2,1.6,2.3,3.2,3.6,4.8c2.2,2.8,5.1,3.8,8.5,2.5c2.7-1,5.3-2.2,7.8-3.6c3.8-2,7.6-3.7,11.8-4.5c6.2-1.2,12.1-0.8,17.5,2.9
		c6.7,4.6,10,13,8.3,21.3c-1.6,7.8-8.2,14.4-16.1,16c-5.2,1.1-10-0.1-14.7-2.2c-1.5-0.7-3-1.5-4.4-2.4c-3.6-2.3-7.5-2.9-11.7-2.4
		c-6.1,0.7-12.3,1.1-18.4,1.9c-6.5,0.8-12.1-1.1-17.5-4.5c-6.9-4.3-14.1-8.2-21.1-12.3c-1.2-0.7-2.4-1.2-3.7-1.8
		c-3.4-1.6-6.5-1-9.3,1.4c-2.3,2-3.9,4.4-5.6,6.9c2.1,2.8,4.1,5.6,6.2,8.5c0.4-0.3,0.8-0.5,1.1-0.8c3.5-3,7.5-4.2,12-3.8
		c1.5,0.1,3.2,0.7,4.4,1.6c4.4,3.4,9.6,4.6,14.9,5.6c3.7,0.7,7.4,1.4,11,2.5c3.3,0.9,6.1,2.8,8.3,5.4c3.1,3.6,3.4,7.4,1.1,11.5
		c-1.9,3.4-4.8,6-8.1,8c-0.6,0.4-1.2,0.7-2.1,1.2c1,0.5,1.8,0.8,2.6,1.1c13.4,5.8,26.9,11.3,40.3,17.3c10.5,4.7,20.4,10.7,29.2,18.3
		c10.7,9.4,18.1,20.8,21.5,34.7c0.6,2.5,0.7,5.1,0.9,7.6c0.2,3.7-1.6,6.4-4.6,8.4c-2,1.3-4.2,2.1-6.5,2.1c-2.6,0-5.2-0.1-8-0.2
		c1.1,2,2,4.3,3.3,6.2c7.9,11.6,10.8,24.5,10.1,38.5c-0.7,13.3-4.6,25.6-10.9,37.2c-5.2,9.7-11.2,18.8-17.9,27.5
		c-4.4,5.7-9.6,10.5-15.6,14.4c-3.2,2.1-6.5,4.2-9.5,6.5c-2.5,2-4.9,4.1-7,6.5c-2.8,3.3-3.4,7.3-2,11.5c2.3,6.8,11.6,11,18.4,4.8
		c2.6-2.4,4.5-5.2,6.1-8.2c2-3.7,3.8-7.4,5.9-11c7.3-12.4,18.2-20.7,31.3-26.1c7.4-3,15-5.2,23-5.4c8.9-0.3,16.9,2.2,23.5,8.4
		c4.7,4.4,7.6,10,9.8,16c2.3,6.4,3.4,13,4.3,19.6c1.8,13.1,2.8,26.4,5.7,39.4c2.4,10.5,4.9,21,7.4,31.5c2.3,9.3,4.2,18.6,4.6,28.1
		c0.4,8.8-0.2,17.4-2.9,25.8c-2.3,7.2-6,13.6-11.2,19.1c-2.5,2.7-5.5,3.1-8.8,1.9c-2.9-1.1-4.6-3.1-4.6-6.3c0-0.5-0.1-0.9-0.2-1.7
		c-0.7,0.3-1.4,0.4-1.8,0.7c-2.4,1.9-4.7,4-5.5,7.1c-1,3.5-1.7,7.1-2.5,10.7c-0.6,2.7-1,5.3-1.6,8c-1.6,6.3-4.4,12-8.7,16.9
		c-1.4,1.6-2.8,3.3-4.2,5c-2.8,3.3-5.1,6.9-6.8,11c-2.1,5.3-5.2,10.1-8.6,14.7c-4.5,6.1-8.9,12.3-13.3,18.5c-2.2,3.1-4,6.3-4.8,10.1
		c-0.7,3.3-2.4,6.3-4.5,8.9c-5,6.3-11.4,10.9-18.6,14.4c-4.2,2-8.1-0.2-9.2-4.8c-0.7-3-0.4-5.9,0.2-8.8c2-9.6,4.1-19.2,6.2-28.8
		c0.6-2.6,1-5.3,1.5-7.9c-0.2-0.1-0.4-0.2-0.6-0.2c-0.7,1.1-1.6,2.1-2.2,3.3c-2.6,5.2-5.2,10.4-7.8,15.7c-2.1,4.3-4.1,8.7-6.3,12.9
		c-0.9,1.7-2.3,3.1-3.5,4.5c-0.5,0.6-1.3,1-2,1.3c-3.1,1.5-5.5,0.2-5.8-3.3c-0.1-1.6,0-3.2,0-4.8c0-0.8,0-1.5,0-2.8
		c-0.7,1-1.2,1.6-1.6,2.2c-1.9,2.8-4.2,5.3-7.1,7c-1.2,0.7-2.4,1.3-3.7,1.6c-3.9,1-7.8-0.5-7.9-5.9c-0.5,0.3-1,0.5-1.4,0.8
		c-1.1,0.5-2.1,1.2-3.2,1.6c-4.2,1.2-7.7-0.3-9.4-4.3c-0.6-1.4-0.8-2.9-1.2-4.4c-0.1-0.5-0.2-1-0.3-1.8c-0.6,0.6-1,0.9-1.4,1.3
		c-1.6,1.8-3.2,3.6-4.8,5.4c-1.8,1.9-2.6,4.3-3.1,6.9c-0.6,3.6-1.3,7.2-2.4,10.7c-1.5,4.8-4.4,8.8-8.3,12.1c-1.9,1.6-4,2.7-6.4,3
		c-1.2,0.2-2.6,0.1-3.8-0.3c-1.7-0.5-2.6-1.8-2.8-3.5c-0.2-1.9,0.2-3.7,1.1-5.3c1.6-2.8,3-5.7,5-8.2c3.5-4.4,7.3-8.7,11.1-12.9
		c1.8-2,2-2.2,1.6-5.3c-6.7,2.1-8.6,1.8-12.2-2.4c-0.5,0.6-0.9,1.2-1.4,1.8c-2.4,3.4-5.1,6.6-8.6,9c-2.1,1.5-4.5,2.4-7.1,2.5
		c-2.3,0.1-4.1-0.7-5.4-2.5c-0.2-0.3-0.5-0.6-0.9-1.1c-0.4,0.9-0.8,1.7-1.1,2.5c-1.9,4.8-4,9.6-7.1,13.8c-1.3,1.8-2.9,3.5-4.7,4.7
		c-3.1,2.2-5.9,1.4-7.7-2c-1.5-2.7-1.9-5.7-2.2-8.8c-0.6-6.2,0-12.3,1.2-18.4c0.1-0.6,0.2-1.3,0.3-2
		C614.7,895.9,614.6,895.9,614.5,895.9z M840.5,783.4c0.3-0.7,0.7-1.4,1-2.1c2-4.5,3-9.3,3.3-14.2c0.5-8.2-0.3-16.3-2.1-24.3
		c-2.3-10.2-4.8-20.4-7.1-30.6c-3.9-17.2-6.8-34.6-8.6-52.2c-0.5-5.5-1.4-10.9-3.3-16.2c-1.3-3.7-3.1-7.2-6-10
		c-4.6-4.4-10.2-5.3-16.3-4.4c-6.9,1.1-13.4,3.7-19.6,6.8c-4.2,2.1-8,4.7-11.5,7.8c-4.7,4.2-7.8,9.4-10.5,15.1
		c-2.5,5.2-5,10.4-8.9,14.7c-6.6,7.2-14.7,10.4-24.4,8.7c-10.5-1.8-17.9-7.8-21.3-17.9c-3.4-10.1-1.3-19.3,6.1-27.1
		c2.3-2.4,5-4.5,7.6-6.5c3.1-2.3,6.3-4.4,9.5-6.6c5.1-3.5,9.7-7.6,13.4-12.6c6.2-8.5,12-17.4,17.1-26.6c4.7-8.7,7.7-17.9,8.4-27.8
		c0.8-11.6-2-22.4-8.4-32.1c-1.9-3-3.6-6-4.5-9.5c-0.8-3.1-1-6.1,0-9.2c2-6.6,8.1-10.6,15.3-10.1c0.8,0.1,1.6,0.1,2.6,0.2
		c-1.1-5-2.9-9.3-5.4-13.4c-4.2-6.8-9.9-12.1-16.3-16.8c-8.1-5.9-16.8-10.5-25.9-14.4c-16.7-7.1-33.4-14.1-50.1-21.1
		c-9.2-3.9-18.3-7.9-27.5-11.9c-1-0.4-1.8-0.9-3-0.4c-3.2,1.4-6.5,2.6-9.8,3.9c-2.8,1.2-4.8,3.2-6.1,5.8c-2.2,4.5-3,11.6,3,16.6
		c1.6,1.3,3.2,2.6,4.7,4.1c4.9,4.6,5.8,11.2,2.3,16.8c-3.1,5-7.7,8-13.6,8.8c-2.7,0.3-5.4,0.3-8.1,0.5c-4,0.2-7.5,1.8-9.9,5
		c-1.4,1.9-2.7,4-3.8,6.1c-2.1,4.2-3.1,8.7-3.9,13.3c-1,5.6-1.8,11.2-2.9,16.8c-1.4,6.8-3.7,13.2-7.9,18.9c-2.6,3.4-5.5,6.4-9.5,8.2
		c-6.8,3.1-13.6,0.2-16.1-6.8c-1-2.9-1.5-5.9-1.4-9c0.1-7,0.4-14.1,0.5-21.1c0-0.6-0.1-1.2-0.2-2.1c-6.6,7.9-14.4,13.8-21.9,19.9
		c-1.7,1.4-3.3,2.8-4.9,4.2c-9.2,8-14.4,18-15.3,30.2c-0.5,6.4-0.9,12.8-1.3,19.1c-0.7,11.3-3.7,22.1-9,32.1
		c-2.6,4.9-5.6,9.7-8.3,14.6c-2.8,5-4.4,10.3-4,16.1c0.3,4.1,0.8,8.3,1.4,12.4c1.2,8.3,1.9,16.5,0.8,24.8c-1.6,11.4,0,22.3,4.2,32.9
		c1.9,4.8,3.7,9.5,5.7,14.3c3.3,8.1,5.6,16.5,6.8,25.2c1.8,13.6,1.3,27.1-0.6,40.6c-1.8,13.2-5,26-8.9,38.7c-2.2,7-4.5,14-6.9,20.9
		c-2.4,7-6.2,13.3-9.8,19.8c-0.6,1.1-1.3,2.3-1.6,3.5c-1.6,7.6-3.1,15.2-4.7,22.8c-0.1,0.7,0,1.4,0,2.2c0.9-0.8,1.5-1.6,1.9-2.6
		c4.8-10,9.4-20,14.3-29.8c2.5-5.1,5.4-10,8.3-14.9c0.8-1.4,2-2.7,3.3-3.7c2.4-1.9,5.4-0.8,6.2,2.1c0.3,1.1,0.4,2.2,0.4,3.3
		c0.1,5.4-1.1,10.7-2.6,15.8c-3.2,10.8-6.6,21.5-9.9,32.3c-0.3,1-0.6,2.1-0.9,3.1c1.4-1.8,2.4-3.8,3.4-5.8
		c6.7-13.5,13.6-26.8,21.8-39.4c2.6-4,5.6-7.8,8.6-11.5c1.3-1.6,3.2-3,5.1-3.9c3.6-1.7,7.1,0.2,7.7,4.2c0.3,1.6,0.3,3.4,0.2,5
		c-0.4,5.8-1.9,11.4-3.8,16.8c-4.1,11.5-8.5,22.9-12.7,34.4c-2.2,6.1-4.2,12.2-6.3,18.4c-0.3,0.8-0.2,1.7-0.4,2.7
		c1.7-0.2,2.5-1.1,3.3-2.1c1.5-1.9,3.1-3.7,4.3-5.7c3.9-6.6,7.8-13.2,11.6-19.9c0.5-0.9,0.8-2.1,1.1-3.1c0.5-1.7,0.8-3.4,1.3-5.1
		c0.2-0.7,0.6-1.5,1.1-2.1c1-1.2,2.7-1.6,4.1-1c1.4,0.5,2.1,1.6,1.9,3.2c-0.3,2.2-0.9,4.4-1.2,6.6c-0.3,2-0.4,4-0.3,6
		c0.1,2.1,1.3,2.9,3.3,2.2c1.4-0.4,2.8-1.3,3.9-2.2c3.1-2.6,5.3-5.9,7.5-9.3c0.8-1.2,1.3-2.5,1.7-3.9c1.4-5,3.7-9.5,8-12.8
		c3.6-2.7,9.8-1.8,12.4,0.3c1.2,1,2.1,2.2,2.2,3.8c0,1.1,0.1,2.4-1.1,3c-1.1,0.6-1.9-0.3-2.7-1c-1.8-1.5-4-1.5-5.6,0.1
		c-1,1-2,2.2-2.5,3.4c-0.9,2.5-1.7,5-2,7.6c-0.6,4.8,0.9,6,5.6,5.1c4.9-1,8.9-3.5,12.3-7c1.5-1.5,2.7-3.1,2.8-5.4
		c0.1-1.4,0.5-2.8,0.8-4.2c1.9-8.9,4.2-17.6,8.1-25.8c1.4-2.9,3.2-5.7,5.1-8.4c1.2-1.8,3.1-3,5.3-3.5c3.6-0.8,6.2,1.1,6.4,4.8
		c0.1,1.2,0,2.4-0.2,3.6c-0.6,4.2-2.1,8.2-3.7,12.1c-3.7,9-8.2,17.7-13,26.2c-1.6,2.7-2.3,5.7-2.7,9.3c0.9-1.2,1.4-2,2-2.8
		c2.2-2.8,4.3-5.5,6.6-8.2c0.7-0.8,1.7-1.5,2.6-2c2.1-1.1,3.7-0.2,4,2.1c0.2,1.4,0.1,2.9,0,4.3c-0.4,5.1-1,10.2-1.2,15.3
		c-0.2,3.8,0.1,7.7,0.3,11.5c0,1,0.5,1.9,0.9,3.4c1-1.2,1.9-1.8,2.3-2.6c2-3.8,4.1-7.6,5.8-11.5c2.5-5.6,4.5-11.3,5.6-17.3
		c0.3-1.5,0.8-2.9,1.5-4.3c0.9-1.8,2.7-2.4,4.5-1.8c1.6,0.6,2.3,1.7,2,3.8c-0.2,1.3-0.6,2.5-0.7,3.8c-0.3,2.7-0.8,5.4-0.7,8.1
		c0,2.3,1.4,3.2,3.6,2.3c1.5-0.6,3.1-1.5,4.2-2.7c2.5-2.7,4.6-5.7,6.9-8.6c1-1.2,1.5-2.6,1.7-4.1c0.4-3.3,1.8-6.3,4-8.8
		c3.4-3.9,8.1-4.8,11.9-3c0.7,0.3,1.7,0.2,2.5,0.2c2.5-0.2,3.3,0.5,3.2,2.9c-0.2,2.6-0.5,5.2-0.8,7.9c-0.4,2.8-0.8,5.7-1.2,8.5
		c0.3,0,0.5,0,0.6-0.1c3.6-3,7-6.3,9.6-10.3c4.2-6.3,9.9-9.3,17.3-8.6c4.9,0.5,7.1,3.4,6.7,8.2c-0.1,1.1-0.4,2.2-0.7,3.3
		c-0.8,2.7-1.7,5.3-2.4,8c-0.4,1.7-0.7,3.5-0.7,5.2c0,1.9,1.1,2.4,2.7,1.5c1.1-0.6,2.2-1.4,3-2.3c3.5-3.9,6.7-8.1,8.8-13
		c0.6-1.5,2.2-2.3,4.1-2.2c1.7,0.1,2.5,0.8,2.9,2.7c0.2,1,0.3,2.1,0.3,3.1c0.1,1.8,0.1,3.6,0.2,5.3c0.2,0,0.3,0.1,0.5,0.1
		c1.2-2.5,2.3-5,3.6-7.5c3-5.9,6-11.8,9.1-17.7c1-1.9,2.5-3.5,4-5.1c3.6-3.7,10.4-2.4,11.3,3.7c0.4,2.5,0.6,5.1,0.3,7.6
		c-0.7,4.9-1.7,9.8-2.9,14.6c-1.7,6.7-3.7,13.4-5.6,20.1c-0.2,0.8-0.5,1.6-0.2,2.5c4.4-3.9,6.9-8.5,7.6-14.2
		c0.8-7.6,3.5-14.5,8.1-20.8c4.4-6,8.7-12.1,12.9-18.2c2.6-3.8,5.3-7.7,7.2-11.9c3-6.7,7-12.6,11.7-18c4.6-5.2,7.3-11.2,8.7-17.9
		c1-4.9,1.9-9.7,3.3-14.5c1.7-6.2,5-11.4,10.3-15.2c4.3-3,9-4.6,14.2-3.4C836.5,781.8,838.3,782.6,840.5,783.4z M377.6,458
		c7.9,2,11.8,6.9,12.7,14.5c0.1,0.7,0.3,1.4,0.5,2.4c0.7-0.8,1.2-1.4,1.6-1.9c13.6-16.8,25.4-34.9,35.2-54.2
		c4.8-9.4,9-19.1,12.8-28.9c1.6-4.1,4.6-6.2,8.6-5.9c3.4,0.2,5.4,2.2,6.6,6.5c1.2,4.4,2.5,8.8,3.7,13.2c0.1,0.5,0.4,1,0.6,1.6
		c1.6-1.9,2.9-3.7,4.5-5.3c4-4.3,8.6-7.6,14.4-9c6.6-1.5,12.6,1.5,15,7.7c1.1,2.7,1.4,5.6,0.9,8.5c-0.2,0.9-0.3,1.8-0.5,2.7
		c0.6-0.4,1-0.9,1.3-1.5c1.6-2.7,3.1-5.4,4.8-8c4.2-6.7,9.2-12.7,16-17c6.1-3.9,12.7-5.9,20.1-4.8c3.1,0.5,6.1,1.1,9.2,1.7
		c3.5,0.7,6.9,0.4,9.9-1.5c2.7-1.6,5.3-3.3,7.8-5.1c9.7-6.9,20.4-10.8,32.3-11.5c13.2-0.7,25.4,2.2,36.5,9.4c0.5,0.3,1.1,0.6,1.7,1
		c0.9-1.2,1.7-2.3,2.6-3.3c1.6-1.8,3.2-3.6,5-5.2c7.2-6.1,15.3-7.4,23.9-3.6c3.9,1.7,7.5,3.9,11.2,5.9c6.1,3.3,12.2,6.6,18.2,10.1
		c3.5,2,6.9,1.1,10.4,0.7c-2.4-3.1-4.9-5.9-7-9c-2.2-3.2-4.8-5.9-8.4-7.6c-3.3-1.5-5.4-4.4-5.6-8.1c-0.2-2.6-0.1-5.3,0.3-7.9
		c0.7-5.3,2.4-10.4,4.2-15.5c0.6-1.7,1.1-3.5,1.4-5.3c0.4-3-1.2-4.4-4.1-3.8c-1.2,0.2-2.5,0.7-3.7,1.1c-1.5,0.5-3,1.2-4.5,1.6
		c-11.7,3.4-23.6,5-35.7,5.3c-5.4,0.1-10.9-0.5-16-2.6c-8.6-3.5-13.4-11.5-12.2-20.7c0.5-3.5,1.3-6.9,2-10.3
		c0.2-0.9,0.4-1.8,0.6-2.7c-4.7-0.4-9.8,0-17.2,1.5c-14.3,2.9-28.8,4.1-43.3,5c-7.7,0.5-15.5,1-23.2,2c-8.4,1-16.1,3.9-23.1,8.8
		c-7.6,5.3-13.9,12-20,18.9c-3.6,4-6.8,4.7-11.3,1.7c-1.9-1.3-3.5-3-5.2-4.6c-0.5-0.4-0.8-1-1.3-1.5c-1.1,0.4-2.2,0.7-3.2,1
		c-4.1,1.2-8.3,1.8-12.5,0.6c-2.5-0.7-4.9-1.9-7.3-3.1c-2.1-1-4.2-1.5-6.5-0.7c-2.9,0.9-5.8,1.7-8.7,2.7c-5.8,1.9-11.6,2.8-17.7,2.2
		c-6.7-0.7-10.8-4.3-12.1-11c-0.2-0.9-0.2-1.7-0.3-2.6c-0.4-3.8-1-7.6-2.9-11c-4.3-7.6-8.9-15-14.5-21.7c-5.8-6.8-13-10.6-22.1-10.6
		c-6.3,0-12.6,0-18.9-0.3c-3-0.1-5.2,0.9-7.1,3.1c-2.2,2.5-4.5,5-7,7.2c-2.9,2.7-6,5.3-9.1,7.8c-3,2.4-6.6,3.2-10.4,2.5
		c-3.9-0.7-6.7-3.4-7.1-7.4c-0.2-2.3-0.1-4.6,0.3-6.9c0.9-5.3,3-10.2,5.7-14.9c4.4-7.8,9.8-14.8,15.5-21.6
		c8.2-9.7,16.6-19,26.4-27.1c6-4.9,12.3-9.2,19.8-11.4c0.2-0.1,0.4-0.3,0.7-0.6c-0.5-0.1-0.7-0.2-0.9-0.2
		c-10.7-0.9-21.2,0.1-31.5,3.1c-10.6,3.1-20,8.4-28.8,14.8c-11.6,8.4-21.9,18.4-32.3,28.2c-7.5,7.1-15,14.1-23.3,20.3
		c-12.7,9.4-26.6,15-42.6,15c-7.8,0-15.3,1.4-21.9,5.8c-1.2,0.8-2.5,1.4-3.7,2.2c-7.9,5.2-15.9,10.5-23.8,15.8
		c-0.4,0.2-0.7,0.6-1.1,1c5.2,2.2,9.7,5.3,13.1,9.7c3.5,4.5,5.2,9.6,5.6,15.3c0.8,0.3,1.4,0.5,2,0.7c21.6,6.7,43.1,13.5,64.7,20.2
		c10.5,3.3,21.1,6.4,31.1,11c5.2,2.4,10.3,5.1,15.5,7.6c4.6,2.3,9.4,3.9,14.7,4c3.9,0.1,7.8,0,11.7-0.1c5.4-0.1,10.8-0.7,16.3-0.1
		c8.9,0.9,15.4,5,18.6,13.5c0.7,1.8,1.4,3.6,2,5.4c1.2,3.6,3.4,6.2,6.5,8.3c2.5,1.7,4.9,3.7,7,5.8c7.1,7.4,9.4,16.6,9.1,26.5
		c-0.2,5.6-1.4,11.2-2,16.9C378.1,453.1,377.9,455.5,377.6,458z M733.8,377.2c0,0.2,0,0.4,0,0.6c3.6,1.9,7.1,3.8,10.8,5.5
		c1.1,0.5,2.7,0.5,4,0.2c4.1-0.9,5.6-5.7,2.9-8.9c-1.7-1.9-3.9-2.7-6.3-1.9C741.3,374.1,737.6,375.7,733.8,377.2z M685.2,409.9
		c0-0.2,0-0.3,0-0.5c-1-0.2-2.1-0.4-3.1-0.5c-6.8-0.5-13.2-2.4-18.9-6.1c-0.3-0.2-0.7-0.3-1.3-0.5c-0.7,2.1-1.3,4-1.9,6.1
		c4.6,2,8.8,3.9,13.2,5.7c0.5,0.2,1.2,0.1,1.8-0.1c1.8-0.7,3.5-1.5,5.3-2.2C681.8,411.1,683.5,410.5,685.2,409.9z M694.9,896.4
		c0,0.9,0.1,1.8,0.2,2.6c0,0.3,0.1,0.6,0.2,0.9c0.5,1.4,1.2,1.8,2.5,1c1-0.6,2.1-1.6,2.6-2.6c1.9-4.1,3.6-8.3,5.3-12.6
		c0.4-1.1,0.1-1.6-1.1-1.8c-1.8-0.3-3.5,0.1-4.9,1.4C696.4,888.3,694.8,892,694.9,896.4z M612.1,876.3c0.3-0.5,0.6-0.8,0.7-1.1
		c2.4-5.8,4.9-11.6,7.3-17.4c0.7-1.8,1.1-3.8,1.5-5.8c0.1-0.4-0.1-1-0.2-1.6C618.6,853.1,612.6,869.8,612.1,876.3z M673.3,882
		c-3.4,0.9-4.7,3.5-5.8,6.3c-0.7,1.8-1.6,3.7,0.1,5.4C671.4,892.9,674.6,886.5,673.3,882z M658.2,928.5c5.4-4.3,9.1-9.8,11.5-16.6
		C666,914.8,659,924.9,658.2,928.5z"/>
	<path d="M225,154.4c0-3.3,1.1-6.3,2.6-9.1c3.5-6.4,8.5-11.6,14.4-15.9c5.3-3.8,10.7-7.3,16.2-10.7c11.2-7.1,22.4-14.2,33.8-21
		c5.3-3.1,10.9-5.6,16.5-8.2c1.9-0.9,4.1-1.4,6.2-1.9c10.5-2.4,15.6,7.2,14.3,14.3c-0.8,4.1-2.5,7.8-5.3,10.8
		c-2.5,2.7-5.2,5.2-8.1,7.4c-10.3,8.1-20.7,16.1-31.1,24.1c-7.6,5.8-16,10.3-24.7,14.1c-6,2.6-12,5.4-18.4,6.8
		c-2,0.5-4.1,0.7-6.2,0.7c-5.6-0.1-9.8-4.3-10.2-9.8C225,155.5,225,155,225,154.4z M244.3,148.1c11.2-3.7,21.7-8.9,31.1-15.9
		c10.1-7.5,20.1-15.4,30.1-23.1c0.6-0.5,1.2-1,1.9-1.5c0.5-0.4,1-0.7,1.4-1.1c-0.1-0.2-0.3-0.3-0.4-0.5c-3.6,2-7.2,4-10.8,6.1
		c-10.3,6.3-20.6,12.6-30.8,19c-5.4,3.4-10.7,6.9-16,10.5C248.2,143.5,246,145.5,244.3,148.1z"/>
	<path d="M586.5,422.4c0,1.6-0.7,3.8-2.6,5.2c-1.2,0.9-1.5,1.9-1.7,3.2c-0.3,2-0.6,4-1,5.9c-0.6,2.4-1.7,4.5-3.3,6.3
		c-2.4,2.9-6.5,3.5-9.7,1.6c-3.1-1.9-4.8-5.9-3-9.1c1.7-3.1,2-6.3,2.6-9.6c0.8-4.1,2.6-7.5,6.1-9.9c1.6-1.1,3.4-1.8,5.4-1.7
		C583.4,414.4,586.5,417.6,586.5,422.4z"/>
	<path d="M528.4,486.4c0.2-1.3,0.3-2.5,0.5-3.8c0.7-4,3.7-6.4,8-6.2c3.8,0.1,6.7,2.9,6.8,6.9c0,2.6,0.3,5.2,0.8,7.8
		c0.6,3.4-1.9,7-5.2,7.9c-3.6,1-7.5-0.7-9-4.1C529.2,492.2,528.5,489.1,528.4,486.4z"/>
	<path d="M530.8,500.5c0,3.7-2.5,6.8-6.2,7.4c-1.5,0.3-3,0.6-4.5,0.7c-4,0.5-7.8-2.4-8.4-6.5c-0.6-3.9,2.2-7.7,6.1-8.4
		c1.4-0.3,2.8-0.5,4.2-0.7C526.6,492.4,530.8,496,530.8,500.5z"/>
	<path d="M557.7,424.3c-1.8,0.2-3.9-0.1-5.7-1.5c-2.7-2-3.4-4.8-2.8-7.9c0.6-3,2.6-5,5.7-5.5c2.1-0.3,4.3-0.3,6.4,0
		c3.9,0.5,6.4,4.1,6.1,8.1c-0.3,3.7-3.4,6.6-7.2,6.7C559.5,424.3,558.8,424.3,557.7,424.3z"/>
	<path d="M584.5,403.3c-0.4,3.1-1.7,5.5-4.4,6.8c-2.7,1.3-5.3,1.1-7.7-0.6c-3-2-4.5-4.9-4.8-8.4c-0.3-3.7,2.2-7.1,5.6-7.9
		c3.8-0.9,7.2,0.7,8.9,4.3c0.3,0.7,0.8,1.4,1.1,2.1C583.6,400.8,584,402,584.5,403.3z"/>
	<path d="M549.6,460.9c-1.2-0.1-2.4,0-3.6-0.3c-3.4-0.8-5.7-4.1-5.6-7.7c0.2-3.5,2.9-6.6,6.4-7c1.9-0.2,3.8-0.2,5.7,0
		c3.9,0.5,6.6,3.9,6.4,7.9c-0.2,3.8-3.2,6.8-7.2,7C551,460.9,550.3,460.8,549.6,460.9C549.6,460.9,549.6,460.9,549.6,460.9z"/>
	<path d="M593.8,412.1c-5.7-0.2-9.2-5.4-7.2-10.7c1.8-4.9,7.8-7.5,11.9-5.5c4.3,2.1,5.9,7.7,2.8,11.5c-1.1,1.3-2.5,2.5-3.9,3.5
		C596.3,411.5,595,411.7,593.8,412.1z"/>
	<path d="M559.6,878.4c0,2.2-2,4.1-4.2,4c-2-0.1-3.1-1.3-3.1-3.4c0-2.6,1.6-4.1,4-4.1C558.4,875,559.7,876.3,559.6,878.4z"/>
	<path d="M643.6,874.9c2.2,0,3.4,1.1,3.5,3.3c0.1,2.3-1.7,4.2-4,4.2c-2,0-3.3-1.3-3.4-3.2C639.7,876.7,641.3,875,643.6,874.9z"/>
</g>
</svg>
