<?xml version="1.0" encoding="utf-8"?>
<!-- Generator: Adobe Illustrator 23.0.4, SVG Export Plug-In . SVG Version: 6.00 Build 0)  -->
<svg version="1.1" id="Layer_1" xmlns="http://www.w3.org/2000/svg" xmlns:xlink="http://www.w3.org/1999/xlink" x="0px" y="0px"
	 viewBox="0 0 1008 1008" style="enable-background:new 0 0 1008 1008;" xml:space="preserve">
<g>
	<path d="M872.8,596c1.7-0.1,3.1-0.1,4.5-0.3c5.6-0.5,10.4,1.3,14.4,5.1c0.2,0.2,0.5,0.4,0.7,0.7c8.5,8.5,17,16.9,25.5,25.4
		c1.1,1.1,2.2,2.4,3.3,3.5c3.5,3.5,5.7,7.6,6.8,12.4c0.9,3.7,2,7.4,3,11.1c1.7,6.3,3.6,12.6,6.2,18.6c1.1,2.5,1.8,5.1,2.5,7.7
		c1.4,5.2,0,9.8-3.4,13.9c-1.4,1.7-3,3.3-4.5,5c-0.6,0.7-1.2,1.5-2,2.4c0.5,1,0.7,2.1,1.4,3c0.8,1.2,1.9,2.2,2.9,3.2
		c3.7,3.9,6.2,8.5,7.3,13.8c0.7,3.1,1.3,6.3,2.1,9.4c0.2,0.9,0.7,1.7,1.1,2.8c1.2-1,2.1-1.8,3.1-2.6c4.7-3.2,10.5-2.6,14.3,1.7
		c1.3,1.4,2.3,3.1,3.5,4.6c1.9,2.4,4,4.6,7,5.6c5,1.6,7.2,5.6,8.3,10.3c0.8,3.3,0.7,6.7-0.6,9.9c-1,2.5-2.1,5-3.3,7.4
		c-1.1,2.3-2.5,4.4-3.9,6.8c0.2,0.7,0.3,1.5,0.6,2.2c1.7,4,1.3,7.8-0.5,11.6c-0.3,0.7-0.6,1.5-1,2.2c-1.1,1.9-1.1,3.9-0.5,6
		c0.8,2.6,1.5,5.2,1.9,7.9c1.5,8.9-4.3,16.2-13.3,17c-2.7,0.2-5.4,0.1-8-0.9c-1-0.4-2.1-0.7-3.6-1.1c0.1,0.9,0.1,1.6,0.1,2.3
		c0.1,1.8,0.4,3.5,0.2,5.2c-1,10.1-10.3,15.2-19.3,10.6c-1.4-0.7-2.7-1.7-3.9-2.7c-0.9-0.7-1.7-1.4-2.5-2.2
		c-0.8,1.2,0.2,1.9,0.5,2.7c0.8,2.4,1.9,4.7,2.6,7.2c1.1,4.4,0.2,8.6-2.4,12.3c-0.5,0.8-1.1,1.5-1.6,2.3c0.5,0.6,0.9,1.1,1.2,1.6
		c3.7,5.1,1.3,11.1-4.9,12.4c-1.2,0.3-2.4,0.5-4,0.8c0.7,1.5,1.2,2.6,1.7,3.7c2.8,7,0.9,13.3-5.7,16.8c-3.7,1.9-5,4.5-5.3,8.2
		c-0.1,1.1-0.2,2.2-0.4,3.3c-0.5,2.4-1.4,4.6-3.1,6.4c-1.8,2-4,3-6.8,3c-21.9-0.1-43.8-0.1-65.8-0.2c-5.1,0-10.2,0-15.4,0
		c-0.8,0-1.6,0-2.4,0c-6.6-0.2-9.7-5-7.3-11.2c1.5-4.1,3.7-7.8,7-10.8c1.8-1.6,3.5-3.3,5.3-4.8c2.5-2.1,4.6-4.5,5.7-7.6
		c2.3-6.2,6.7-10.4,12.5-13.3c1.6-0.8,3.1-1.7,4.5-2.7c4.6-3.4,5.5-8.1,2.5-13.1c-0.2-0.3-0.3-0.5-0.5-0.8
		c-2.3-3.1-4.2-6.4-4.7-10.4c-2.6-0.9-5.2-0.7-7.7-0.7c-16.3,0-32.6,0-49,0c-80,0-160-0.1-240-0.1c-93.6,0-187.2-0.1-280.8-0.1
		c-1.6,0-3.2,0.1-4.8,0c-3.8-0.3-6.5-2.9-6.8-6.7c-0.1-1.3-0.1-2.6-0.1-3.8c0-142.9,0-285.7,0.1-428.6c0-4.5-1.5-7.8-4.9-10.3
		c-2.8-2.1-5.9-3.8-8.9-5.7c-3.2-2-6.6-3.9-9.8-6.1c-2.2-1.5-4.2-3.4-6.2-5.3c-2.9-2.9-4.9-6.3-5.9-10.3c-0.5-2.2-1.2-4.3-1.7-6.5
		c-1-4.2-3.1-7.7-6.4-10.5c-1.4-1.3-2.9-2.5-4.3-3.8c-1.2-1.1-2.4-2.1-3.6-3.2c-7.6-7.4-9.2-16.2-5.7-26c1.3-3.6,3.4-6.9,5.8-9.9
		c2.7-3.3,5.7-6.5,8.3-9.9c1.9-2.4,3.6-4.9,5.2-7.5c1-1.7,1.8-3.7,1.2-5.9c-1.9-0.3-3.2,0.7-4.7,1.3c-7.6,3.3-15,2.7-22.1-1.4
		c-2.7-1.6-5.3-3.6-7.7-5.7c-7.9-7.3-15.4-14.9-22.3-23.2c-6.9-8.3-12.3-17.5-16-27.7c-1.3-3.6-2.9-7.1-4.4-10.6
		c-1.6-3.7-4.1-6.8-7.4-9.3c-1.7-1.2-3.3-2.5-4.9-3.9c-3.7-3.2-5.7-7.3-5.5-12.2c0.1-2.6,0.2-5.1,0.4-7.7
		c0.8-9.4-3.2-16.4-11.1-21.3c-0.9-0.6-2-1.1-2.9-1.7c-1.7-1.2-2.6-2.8-2.7-4.9c-0.1-4.1,3.7-8.6,7.7-9.1c0.9-0.1,1.9-0.1,2.9-0.1
		c16,0.2,32,0.5,48,0.6c22.2,0.1,44.5,0,66.7,0c1.6,0,3.2-0.1,5-0.2c0.7-3.2,1.4-6.3,2-9.4c1.4-7.7,2.7-15.4,4-23.1
		c0.1-0.5,0.2-1,0.3-1.4c0.7-2,2.9-2.7,4.7-1.6c1.4,0.9,2.3,2.2,2.7,3.8c0.6,2.6,0.2,5.1-0.3,7.6c-1.3,6.3-2.7,12.5-4.1,18.7
		c-0.7,3.4-1.5,6.9-2.1,10.3c-0.3,1.6-0.8,3.4-0.2,5.1c1.4-0.1,1.6-1.1,2-1.9c1.9-3.9,3.8-7.7,5.7-11.6c4.1-8.5,8-17.1,12.2-25.6
		c2.2-4.4,4.8-8.7,7.3-12.9c1-1.6,2.3-3.1,3.7-4.3c3-2.5,6.5-1.2,7.2,2.6c0.6,3.5,0.3,7-0.3,10.5c-1.4,7.9-3.5,15.6-5.9,23.2
		c-2.3,7.5-4.8,14.9-7.2,22.4c-0.5,1.5-0.9,3-0.7,4.7c0.7-1.4,1.5-2.7,2.2-4.1c5.7-10.8,11.1-21.6,17-32.2c4-7.1,8.5-13.9,13-20.7
		c1.7-2.7,3.9-5.1,6-7.5c1.5-1.7,3.3-3.1,5.4-3.9c3.8-1.4,7.2,0.4,8,4.3c0.9,4,0.4,8-0.5,11.9c-1.4,5.7-2.8,11.5-4.8,17.1
		c-4.3,12-9.1,23.9-13.5,35.9c-2.3,6.3-4.4,12.7-6.5,19.1c-0.3,1-0.3,2.1-0.5,3.7c1.3-0.6,2.3-0.7,2.9-1.3c1.6-1.6,3-3.3,4.3-5.1
		c5.7-8,10.5-16.4,14.8-25.2c0.9-1.8,1.1-4,1.7-5.9c0.5-1.7,1-3.4,1.9-4.9c1.1-1.9,3.2-2.3,5-1.3c1.1,0.6,1.8,1.4,1.8,2.6
		c0,1.1-0.2,2.2-0.3,3.3c-0.4,2-0.9,4.1-1.2,6.1c-0.2,1.6-0.3,3.2-0.2,4.8c0.2,3.1,2.1,4.2,5,3c1-0.4,2-1,2.9-1.7
		c1.1-0.9,2.2-1.9,3.1-3c2.9-3.4,5.5-7,7.9-11c-0.5-1.1-1.1-2.3-1.4-3.5c-0.9-3-0.5-5.7,2-7.9c2.5-2.1,5.3-2.9,8.5-2
		c0.6,0.2,1.2,0.5,1.7,0.9c1.7,1.2,1.7,3.4-0.1,4.3c-1.2,0.7-2.6,1.1-4.1,1.8c0.2,0.8,0.2,1.7,0.6,2.3c2.7,3.6,5.4,7,8.3,10.8
		c1.8-1.2,3.1-2.8,4.6-4.3c4.6-4.7,9.1-9.4,13.8-14.1c1.2-1.2,2.6-2.4,3.9-3.5c1.9-1.6,4.3-2.1,6.7-2.1c2.6,0.1,4.6,1.3,6,3.4
		c0.9,1.4,0.8,2.8-0.3,3.9c-1.2,1.1-2.3,1.1-3.8-0.1c-0.6-0.5-1.2-1-1.7-1.5c-7.2,3.9-9.5,16-4.6,23.7c3.2-1.7,11.1-8.3,17.6-14.8
		c-0.3-1.5-0.7-3-0.9-4.5c-0.8-6.4,2.6-11.5,8.9-13.5c6-1.8,11.8,0.5,14.7,5.9c1.4,2.6,1.9,5.4,2,8.3c0.1,1.8,0,3.5,0,5.3
		c0,0.8,0.3,1.5,0.4,2.5c4-0.1,7.3-1.5,9.8-4.4c2.2-2.7,4.9-3.4,8.1-2.9c1.6,0.2,2.6,1.3,2.5,3c-0.1,1.7-0.5,3.5-0.7,5.2
		c-0.5,3.8-1,7.6-1.4,11.4c-0.1,1,0.2,2.1,0.3,3c1.2,0.6,1.9,0.1,2.4-0.5c1-1.5,2-2.9,2.7-4.5c1.5-3.5,2.7-7.2,4.1-10.8
		c0.9-2.2,1.7-4.5,2.8-6.6c1.2-2.4,3.4-3.2,6-3.1c1,0.1,1.9,0.8,1.8,1.8c-0.1,1.4-0.3,2.9-0.6,4.3c-1.3,6.1-2.7,12.2-3.8,18.3
		c-0.6,3.1-0.6,6.4-0.7,9.5c0,0.9,0.2,1.9,0.4,2.8c0.4,1.4,1.9,1.9,3,1.1c0.6-0.5,1.2-1,1.8-1.6c0.4-0.5,0.8-1,1.1-1.5
		c4.8-8.5,9.2-17.2,12.8-26.3c-2.3-3.9-3.3-8.1-4-12.3c-0.6-3.3,0-6.4,1-9.4c1.5-4.2,5.4-6.8,9.6-6.7c4,0.1,7,2.4,8.1,6.2
		c0.8,2.9,0.6,5.7-0.5,8.5c-0.9,2.1-2,4-3.1,6c-0.4,0.8-0.8,1.6-1.3,2.5c1.6,0.8,2.7-0.1,3.8-0.6c1.8-0.7,3.6-1.1,5.6-0.7
		c3.2,0.7,4.6,2.9,3.5,6c-1.1,3.2-2.6,6.2-3.6,9.4c-2,6.1-3.9,12.2-5.8,18.3c-0.5,1.7-0.7,3.4-0.1,5.5c0.8-0.2,1.7-0.1,2.2-0.5
		c1.5-1.2,3-2.5,4.1-4c5.1-6.8,9-14.4,12.4-22.1c0.6-1.3,0.6-2.8,1.1-4.2c0.5-1.5,1-3,1.9-4.4c0.9-1.5,2.7-1.9,4.2-1.3
		c1.7,0.6,2.6,1.8,2.4,3.7c-0.3,2.7-1,5.3-1.4,8c-0.3,2-0.4,4.1-0.3,6.2c0.2,2.2,1.8,3,3.7,2c1.7-0.9,3.3-2,4.7-3.3
		c3.6-3.2,6.5-7,9.3-11c1.3-1.8,2.7-3.6,4.1-5.3c1.6-2,3.7-2.9,6.3-2.9c4.2,0.1,8.3,0,12.5-0.1c13.6-0.1,27.2-0.4,40.8-0.4
		c11.2,0,22.4,0.3,33.6,0.6c2.2,0.1,4.5,0.4,6.7,0.8c7.1,1.3,12.7,5,16.9,10.9c1.7,2.3,3.2,4.8,5,7.1c2.5,3.1,5,6.2,7.8,9.1
		c3.4,3.6,7.6,6.4,12.2,8.4c0.7,0.3,1.5,0.6,2.2,0.9c3.7,1.9,5,4.7,4.2,8.7c-0.3,1.5-1,3-1.6,4.5c-3.4,8-6.1,16.1-7.6,24.7
		c-1.2,7.1-1.5,14.3-0.3,21.5c0.7,4.1,1.9,8.1,4.1,11.7c2.7,4.5,3.9,9.4,3.5,14.7c-0.1,1.3,0,2.6-0.1,3.8c-0.6,8.6,2,16.4,6.5,23.6
		c3.7,5.9,8.4,10.9,13.5,15.5c5.1,4.6,10.5,8.9,16.4,12.4c1.9,1.1,3.8,2.4,5.6,3.7c3.2,2.3,5.8,5.1,7.2,8.8
		c2.1,5.5,6.2,9.2,10.9,12.4c1.8,1.3,3.8,2.4,5.7,3.6c6,3.8,11.2,8.5,15.8,13.9c7.9,9.3,12.2,20.2,13.4,32.3
		c0.5,5.2,0.8,10.5,0.9,15.8c0.1,5.8,1.2,11.4,3,16.9c0.5,1.3,1.2,2.6,1.9,3.8c0.5,0.8,1.8,0.8,2.6,0.2c0.6-0.5,1-1.2,1.6-1.7
		c1.8-1.6,3.6-3.2,5.6-4.5c6.7-4.6,13.9-5.5,21.4-2.4c7.7,3.2,15.1,7,21.9,11.9c2.3,1.7,4.6,3.4,6.8,5.3c1.7,1.5,3.3,3,4.7,4.8
		c3.5,4.4,4.1,9.3,1.7,14.4c-0.9,1.9-1.9,3.7-3,5.5c-2.3,3.8-3.6,7.8-4,12.2c-0.4,4.3-0.8,8.6-1.4,12.9c-1,6.7-3.4,13-6.7,18.9
		c-1.3,2.2-2.6,4.4-3.8,6.7c-1.3,2.5-2.7,5.1-3.8,7.8c-2.7,6.8-2.7,13.7,0,20.6c2.1,5.3,5.1,9.9,8.9,14.2c5.3,6,11.6,10.9,18.5,15.2
		c5.1,3.2,10.1,6.8,15,10.3c3.1,2.1,4.5,5.4,5.2,8.9C872,590.3,872.3,592.9,872.8,596z M264.5,109.9c-1.8,1.4-2.5,3.2-3.3,4.9
		c-3,6.5-5.9,13.1-8.9,19.6c-3.8,8.3-7.5,16.6-11.4,24.8c-1.6,3.3-3.6,6.4-5.6,9.5c-0.9,1.3-2,2.5-3.3,3.4c-2.1,1.5-4.3,0.5-4.5-2.1
		c-0.3-2.4-0.1-4.8-0.1-7.2c0-1.2-0.1-2.4-0.2-3.9c-33.6,0-66.8,0-100.3,0c0.4,1,0.6,1.9,1,2.7c3.3,7,4.8,14.2,2.9,21.9
		c-0.8,3.2,0.2,5.6,3.2,7.2c3,1.6,5.6,3.7,7.6,6.5c1.9,2.6,3.7,5.2,5.1,8.1c2,4.2,3.8,8.5,5.4,12.8c3.5,9.3,8.3,17.7,14.9,25
		c6.2,6.9,12.8,13.5,19.2,20.1c1.1,1.1,2.4,2.1,3.7,3c3.5,2.6,7.3,3,11.4,1.6c1.5-0.5,3-1.1,4.5-1.7c1.4-0.5,2.7-1,4.1-1.4
		c6.7-1.5,12.6,1.5,15.1,7.9c1.5,3.8,1.9,7.7,1.1,11.8c-0.8,4.3-2.4,8.3-4.9,11.9c-2.8,3.9-5.8,7.6-8.8,11.4c-1.6,2-3.5,3.8-4.9,5.9
		c-1.3,1.8-2.3,3.8-3.2,5.8c-1.3,2.9-0.7,5.7,1.3,8.1c1.3,1.6,2.9,3,4.4,4.4c2.3,2.2,4.8,4.2,7.1,6.5c3.9,3.9,6.5,8.7,7.5,14.2
		c0.3,1.4,0.6,2.8,0.9,4.2c0.7,3.4,2.5,6.3,5.1,8.5c2.2,1.8,4.6,3.5,7,5c2.7,1.7,5.6,3.2,8.3,4.8c4.3,2.6,8.2,5.6,11.4,9.4
		c3.4,4.1,5.2,8.7,5.3,14.1c0,1.9,0,3.8,0,5.8c0,137.4,0,274.9,0,412.3c0,1.9,0,3.8,0,5.8c0,0.8,0.2,1.5,0.3,2.4
		c2.2,0.8,4.2,0.5,6.3,0.5c99.8,0.1,199.7,0.1,299.5,0.2c54.4,0,108.8,0.1,163.2,0.2c35.7,0,71.4,0.1,107,0c5.6,0,10.1,3.5,11.7,8.2
		c0.4,1.1,0.7,2.1,0.8,3.2c0.3,2.7,1.4,4.9,3,6.9c6.6,8.2,6.4,25.5-6.1,34c-1.7,1.2-3.5,2.3-5.4,3.2c-3.3,1.6-5.6,4-7,7.5
		c-1.2,3.3-3.4,6.2-5.9,8.6c-0.9,0.9-1.7,1.8-3,3.1c1.2,0.2,1.8,0.3,2.3,0.3c19.8,0,39.7,0,59.5,0c0.7,0,1.5-0.3,2.5-0.4
		c0.3-3.5,0.3-6.9,1.9-10c1.7-3.2,4.9-4.8,7.3-7.4c-1.6-1.1-2.9-1.9-4.3-2.8c-2-1.4-3.7-3.1-5-5.1c-3.2-5.2-1.8-10.5,3.7-13.3
		c1.4-0.7,3-1.1,4.6-1.7c0.1-0.5,0.3-1.1,0.4-1.8c0.4-3.6,2.6-5.7,5.7-7c1.3-0.5,2.7-0.9,4-1.5c0.8-0.4,1.5-1,2.2-1.6
		c-0.4-2.4-1.5-4.1-2.6-5.9c-2.1-3.5-3.2-7.3-3.8-11.3c-0.6-3.9,0-7.7,2-11.1c2.9-4.9,7.7-6.8,13.2-5c1.2,0.4,2.3,1,3.5,1.5
		c0.7,0.3,1.3,0.5,2.3,0.9c0-1.3,0-2.3,0-3.2c0.3-6.9,4.2-10.9,11.1-11.3c3.8-0.2,7.3,0.6,10.7,2.3c2.4,1.2,4.9,2.4,7.4,3.5
		c0.9,0.4,1.8,0.6,2.9-0.4c-0.5-1.8-1-3.8-1.6-5.7c-1.6-4.8-1.3-9.4,0.9-14c0.6-1.3,1.2-2.6,1.8-3.9c-2.5-4.2-2.2-8.4-0.4-12.5
		c0.8-1.8,1.7-3.4,2.7-5.1c0.9-1.5,1.9-3,2.7-4.5c0.9-1.7,1.6-3.5,0.9-5.7c-1.6-1-3.2-2.2-5.1-2.8c-0.5,0.3-0.8,0.4-1,0.6
		c-4.5,4.1-9.5,4.1-14.7,1.6c-1.3-0.6-2.6-1.3-3.7-2.1c-5.2-3.6-8.8-8.4-10.5-14.4c-1.3-4.5-2.3-9-3.3-13.5c-0.7-3.4-2-6.3-4.6-8.7
		c-2.7-2.5-4.8-5.5-6.3-9c-2.4-6-1.9-11.6,2.3-16.6c1.4-1.7,2.9-3.4,4.5-5c1.9-1.8,2-3.7,1-6.1c-4.3-9.9-7.1-20.2-9.4-30.7
		c-0.9-4.4-2.7-8-6-11.2c-9.2-8.7-18.2-17.5-27.3-26.3c-1.1-1.1-2.3-1.6-3.8-1.5c-2.1,0.1-4.2,0.2-6.2,0.1c-6.1-0.3-10.3-3.3-12.3-9
		c-0.8-2.4-1.4-4.9-1.7-7.5c-0.3-2.8-0.9-5-3.8-6c-0.6-0.2-1.1-0.6-1.6-1.1c-3.3-3.1-7.2-5.4-11-7.7c-5.7-3.4-10.8-7.5-15.4-12.1
		c-5.2-5.1-9.6-10.7-13-17.1c-4.5-8.3-6.4-17.1-5.1-26.4c1-7.3,3.4-14.3,7.1-20.8c1.4-2.5,2.9-5,4.4-7.5c2.5-4.3,4.1-9,4.8-14
		c0.6-4.8,1.2-9.5,1.8-14.3c0.7-5.4,2-10.7,5.7-15c0.7-0.8,1-1.9,1.5-2.6c-0.3-0.6-0.4-0.9-0.7-1.2c-7.5-7.5-16.8-12.1-26.3-16.3
		c-2.3-1-4.7-0.6-6.9,0.8c-1.3,0.9-2.6,1.9-3.8,3c-1.3,1.2-2.5,2.5-3.8,3.6c-4.3,3.7-9.2,4.3-14.4,2.7c-3.5-1.1-6.1-3.5-8.3-6.3
		c-2.5-3.2-4.1-6.8-5.5-10.6c-1.9-5.7-2.5-11.6-2.8-17.5c-0.3-5.4-0.5-10.9-1.1-16.3c-1.2-12.5-6.5-23-16.6-30.7
		c-3.2-2.4-6.4-4.8-9.8-6.8c-4.5-2.6-8.2-6.1-11.8-9.8c-1.9-2-3.6-4.2-4.4-6.8c-1.1-3.5-3.4-5.6-6.4-7.4
		c-8.6-5.1-16.3-11.3-23.5-18.2c-5.3-5.1-10-10.7-13.9-17.1c-6.3-10.3-9.4-21.3-8.3-33.4c0.3-3.3-0.3-6.3-1.9-9.2
		c-1.9-3.4-3.3-6.9-4.2-10.7c-2.4-9.3-2.6-18.7-1.4-28.1c1-8.1,3.2-16,6-23.7c0.5-1.5,1-3,1.5-4.5c-0.7-0.6-1.2-1-1.7-1.3
		c-9.3-5.8-16.6-13.5-22.3-22.7c-0.8-1.2-1.6-2.4-2.4-3.6c-2.1-2.8-4.9-4.5-8.4-5c-2.4-0.3-4.8-0.6-7.2-0.6
		c-9.3-0.1-18.6-0.2-27.8-0.2c-18.2,0.1-36.5,0.3-54.7,0.3c-1.7,0-3.2,0.3-4.5,1.3c-2,1.6-4,3.2-6,4.8c-2.3,1.8-4.5,3.6-6.8,5.3
		c-2.4,1.7-5.1,2.8-8,3c-4,0.2-7.3-0.9-9.2-4.7c-0.3-0.6-0.3-1.6-1.6-1.7c-0.6,1-1.2,2.1-1.8,3.2c-2.3,4.2-4.5,8.5-7.6,12.2
		c-1.6,1.8-3.2,3.6-5.2,4.9c-3.2,2.2-6.9,1.6-9.5-1.4c-1.6-1.9-2.5-4.1-2.8-6.5c-0.4-3.4-0.1-6.7,0.5-10c1-4.9,2.8-9.5,4.7-14.1
		c0.4-1,0.7-2,1.2-3.2c-2.7,0.3-5,0.6-7.3,0.9c-2.7,5.8-5.2,11.5-7.9,17.1c-1.9,4.1-4.2,7.9-7.2,11.3c-1.3,1.4-2.7,2.7-4.4,3.7
		c-4,2.4-8.3,1.3-10.9-2.5c-1.6-2.3-2.4-4.9-2.2-7.7c0.1-1.5,0-3,0-4.9c-1.1,0.9-1.9,1.6-2.9,2.2c-5.7,3.2-11.3,2.2-13.6-5
		c-0.5-1.7-0.7-3.4-0.9-5.2c-0.1-1.4,0-2.9,0-4.3c0-0.7,0.4-1.6-0.8-2.1c-0.5,0.1-1.1,0.3-1.7,0.5c-2.1,0.7-4.5,1.1-6.2,2.4
		c-1.7,1.3-2.5,3.6-3.7,5.5c-1.7,2.6-3.7,4.8-6.7,6c-4.5,1.9-9.1,0.4-11.5-3.9c-1.4-2.4-1.9-5.1-1.7-7.9c0.1-0.9,0-1.7,0-2.7
		c-5.8,3.6-11.8,9.6-14.3,14.4c0.2,0.8,0.4,1.7,0.7,2.6c1.7,5.4,2.6,10.9,2.4,16.5c-0.1,4-1,7.9-3.1,11.5c-2.2,3.8-5.7,5.6-9.9,5.9
		c-4.7,0.3-8.3-2.4-8.2-7.3c0.1-2.4,0.3-4.8,0.9-7.1c1.4-5.9,3.9-11.5,6.8-16.8c0.6-1.1,1.2-2.2,1.7-3.3c-0.4-1.2-0.7-2.3-1.2-3.3
		c-2.6-5.1-3.8-10.5-3.1-16.2c0.1-0.6,0-1.3-1.1-1.5c-1.9,2-3.8,4.1-5.8,6.2c-1.9,2.1-4.1,4-5.6,6.4c0.5,1.6,1,2.9,1.3,4.3
		c1.3,5,2,10,0.5,15.1c-1.6,5.2-5,8.5-10.1,10c-7,2.1-13-3.2-12.1-9.9c0.5-3.4,1.6-6.5,3.6-9.3c1.8-2.5,3.7-4.8,5.6-7.2
		c0.8-1,1.6-2,2.3-2.9c-2.1-4.9-2.8-5.8-6-8.2c-0.8,1.2-1.6,2.3-2.4,3.5c-2.3,3.5-5,6.6-8.1,9.4c-2.3,2-4.9,3.6-7.9,4.4
		c-3.6,0.9-6.7,0.2-8.9-3c-0.5-0.7-0.6-1.8-1.9-1.8c-0.4,0.7-0.7,1.4-1.1,2.1c-2.1,3.9-4.1,8-6.5,11.7c-2.1,3.4-4.6,6.6-7.1,9.6
		c-1.3,1.6-3.1,2.8-4.8,3.9c-4.2,2.5-12.1,0-11.3-6.9c0.2-2.1,0.2-4.2,0.6-6.2c1-6.3,2.7-12.5,4.8-18.6c4.4-12.5,8.8-25,13.1-37.6
		c1.6-4.5,2.9-9.1,4.3-13.7c0.3-1,0.3-2.1,0.5-3.9c-1.1,1-1.8,1.4-2.2,2c-2,2.7-4.1,5.3-6,8.1c-6.5,9.7-12.1,20-17.3,30.4
		c-4.7,9.4-9.3,19-14,28.4c-1.1,2.1-2.3,4.2-3.7,6.1c-1.4,1.8-3.4,2.9-5.8,3c-3.1,0.1-4.9-1.4-5-4.4c-0.1-1.3,0-2.6,0.3-3.8
		c0.7-3.6,1.4-7.2,2.4-10.8c2.4-8.4,5.1-16.8,7.6-25.2c2-6.7,3.8-13.5,5.7-20.3C264.6,113.7,265.2,112,264.5,109.9z M347.8,162.9
		c-4.6,3.8-7.3,7.9-8.9,12.6c-0.5,1.5-0.7,3.2,0.6,4.5c1.4,1.3,3.3,1.2,5,0.7c1.5-0.4,2.3-1.7,2.9-3
		C349.1,173.1,349.2,168.5,347.8,162.9z M373.1,173.3c-0.7,0.2-0.9,0.1-0.9,0.2c-3,4.9-5.2,10.1-6.2,15.8c-0.2,0.9-0.1,1.9,0.1,2.8
		c0.2,1.2,1.6,1.9,2.6,1.2c1-0.7,2.1-1.5,2.7-2.6c0.8-1.3,1.3-2.9,1.6-4.4C373.6,182.1,373.8,177.8,373.1,173.3z M411.3,143.7
		c0.6-3.2,0.4-5.7-0.3-8.2c-0.3-1.2-0.7-2.4-1.4-3.5c-1.1-1.9-3.2-2.1-4.8-0.6c-2.1,1.8-2.4,4.7-0.7,7.3
		C405.7,141.1,408.2,142.5,411.3,143.7z M399.4,149.1c-0.2,1.8-0.4,3-0.5,4.3c-0.1,0.6,0,1.3,0.1,1.9c0.6,3.5,3.9,4.9,6.7,2.7
		c1.6-1.3,2.9-2.9,3-5.1C405.7,151.6,402.8,150.5,399.4,149.1z M478.3,134.9c2.9-2.8,4.4-6,4.2-9.8c0-0.7-0.4-1.5-0.8-2.2
		c-0.6-1-2-1.2-2.9-0.3c-0.4,0.4-0.9,1-1.1,1.5C476.4,127.6,476.3,131.1,478.3,134.9z"/>
	<path d="M315.4,131.7c0.2-2.7,2.2-4.5,4.6-4.2c2,0.3,3.3,1.9,3.2,4c-0.2,2.4-2.4,4.4-4.8,4.2C316.5,135.6,315.2,134,315.4,131.7z"
		/>
	<path d="M509.3,131.7c0.2-2.7,2.2-4.5,4.6-4.2c2,0.3,3.3,1.9,3.2,4c-0.2,2.4-2.4,4.4-4.8,4.2C510.4,135.6,509.2,134,509.3,131.7z"
		/>
</g>
</svg>
