<?xml version="1.0" encoding="utf-8"?>
<!-- Generator: Adobe Illustrator 23.0.4, SVG Export Plug-In . SVG Version: 6.00 Build 0)  -->
<svg version="1.1" id="Layer_1" xmlns="http://www.w3.org/2000/svg" xmlns:xlink="http://www.w3.org/1999/xlink" x="0px" y="0px"
	 viewBox="0 0 1008 1008" style="enable-background:new 0 0 1008 1008;" xml:space="preserve">
<g>
	<path d="M485.3,822.8c-1,0-1.7,0-2.4,0c-16.9,0-33.8-0.1-50.6-0.2c-21-0.1-41.9-0.3-62.9-0.5c-18-0.1-36-0.3-54-0.5
		c-27-0.2-53.9-0.3-80.9-0.5c-7.2,0-14.4-0.1-21.6-0.1c-6.4,0-9.9-3.3-10.2-9.7c-0.1-2.1-0.1-4.2,0.2-6.2c1-6.2,0.3-12.3-1.5-18.2
		c-1.8-5.9-3.5-11.8-5.1-17.7c-1.1-4.1-1.4-8.4-0.3-12.6c1.2-4.7,4-8.1,8.4-10.2c0.7-0.3,1.4-0.7,2.2-1c1.1-0.6,1.6-1.5,2-2.7
		c0.9-2.9,2-5.7,3.3-8.4c5.1-10.7,10.3-21.5,15.6-32.1c4.1-8.4,6.4-17.2,7.3-26.4c0.5-5.9,2.4-11.4,5.8-16.3c2.7-4,5.6-7.8,8.7-11.4
		c6.3-7.5,12.9-14.9,19.3-22.3c2.3-2.7,4.4-5.5,6.6-8.4c-0.8-0.8-1.6-1.5-2.4-2.3c-5.5-5.2-6.7-11.4-4.5-18.4
		c1.7-5.3,4.9-9.6,9.5-12.6c3.4-2.2,7.1-4,10.7-6c1.9-1,3.8-2.1,5.6-3.2c0.7-0.5,1.4-1.1,2-1.7c2.6-2.7,2.7-5.2,0.3-8.1
		c-1-1.2-2.2-2.3-3.4-3.3c-5.8-4.9-9.1-11.2-10.6-18.6c-1.2-5.8-1-11.6-0.3-17.4c0.1-0.6,0.2-1.1,0.2-1.7c0-0.2-0.1-0.5-0.1-0.8
		c-1.6-0.3-3.3-0.4-4.9-0.8c-6.1-1.5-10.2-5.2-11.5-11.5c-0.5-2.2-0.3-4.3,0.4-6.4c1.3-3.9,0.9-7.5-0.9-11.1
		c-2.8-5.6-2-10.8,1.3-15.9c1.2-1.9,2.5-3.7,3.6-5.7c2.6-4.6,3.3-9.4,1.8-14.8c-0.7,0.2-1.3,0.4-1.8,0.5c-3.8,1-7-0.3-9.1-3.6
		c-3.9-6.5-4.7-13.5-2.9-20.8c1.4-5.6,4-10.6,7.2-15.3c3.5-5.1,7.6-9.7,11.8-14.2c2.9-3.1,3-3.7,0.4-7.1c-3.4-4.3-5.8-8.9-5.2-14.5
		c0.3-2.7,1.3-5.4,2-8.3c-10.8-6.8-16.4-16.8-15.4-29.8c0.9-12.9,8.5-21.7,19.3-28.2c-0.2-0.7-0.4-1.2-0.6-1.8
		c-1.2-3.6-0.3-6.6,2.8-8.9c2.3-1.7,4.2-3.6,5.3-6.3c1.4-3.3,1.4-6.7,0.2-10.1c-0.7-2.2-1.6-4.3-2.4-6.5c-1.2-3.2-1.9-6.5-1.5-9.9
		c0.8-7.6,5.9-13.1,13.6-14.8c1.4-0.3,2.8-0.4,4.3-0.6c0.4,0,0.8,0,1.2-0.1c4.8-0.4,5.7-1.7,5.4-6.4c-0.7-10.1,1.3-19.7,5.3-29
		c3.4-7.9,8.5-14.6,15.1-20.2c4.6-3.9,9.5-7.3,14.1-11.1c3.7-3,7.4-6.1,10.8-9.5c3.4-3.4,5.7-7.5,6.5-12.3c0.5-3.1,0.1-6.2-0.5-9.3
		c-0.8-3.8-1.7-7.7-2.3-11.5c-1.2-7.6,1.1-14.1,7.3-18.6c4.1-3,6.1-6.4,6-11.5c0-2.8,0.6-5.7,1.3-8.5c1.3-5.7,4.7-9.9,9.8-12.7
		c4.7-2.6,9.8-4.3,14.9-5.8c2.8-0.9,5.7-1.7,8.6-2.6c0.8-4.3,1.6-8.6,2.4-12.9c1.3-6.8,2.6-13.5,3.8-20.3c0.2-1.2,0.2-2.4,0.4-3.6
		c0.2-1.3,0.7-2.5,2.2-2.9c1.4-0.3,2.5,0.3,3.4,1.4c1.7,2,1.8,4.4,1.3,6.8c-0.9,4.5-1.9,8.9-2.9,13.4c-1,4.9-2,9.7-2.9,14.6
		c-0.2,1-0.2,2-0.3,3c0.1,0.1,0.3,0.1,0.4,0.2c0.5-0.8,1-1.5,1.4-2.3c2.2-4.5,4.3-8.9,6.4-13.4c3.7-7.6,7.3-15.1,11-22.6
		c1.2-2.4,2.8-4.7,4.3-6.9c0.7-1,1.6-2,2.6-2.8c2.5-2,5.4-0.9,6,2.2c0.4,1.8,0.4,3.7,0.3,5.5c-0.6,6.7-2.4,13.2-4.3,19.6
		c-2.6,8.5-5.3,16.9-8,25.4c-0.1,0.3-0.2,0.6,0,1c0.3-0.6,0.7-1.2,1-1.9c6-12.2,12.1-24.3,19.3-35.9c2.9-4.8,6.2-9.3,9.5-13.8
		c1.1-1.5,2.5-2.9,3.9-4.2c0.8-0.7,1.8-1.3,2.8-1.8c3.4-1.4,6.6,0.3,7.2,3.9c0.7,3.6,0.1,7.2-0.7,10.7c-2,9.1-5.3,17.8-8.6,26.4
		c-3.3,8.8-6.8,17.6-10.1,26.4c-0.8,2.1-1.4,4.3-2,6.4c-0.2,0.9-0.3,1.9-0.4,2.9c1.3,0.2,2-0.6,2.6-1.3c1.4-1.6,2.7-3.2,3.9-4.9
		c4.5-6.5,8.4-13.4,12-20.5c0.5-1,0.6-2.1,0.9-3.2c0.5-1.7,0.9-3.4,1.5-5c0.6-1.5,1.8-2.2,3.5-2c1.7,0.1,2.8,1.2,2.8,3
		c0,0.9-0.1,1.7-0.3,2.6c-0.3,1.9-0.8,3.8-1.1,5.7c-0.2,1.1-0.2,2.2-0.1,3.3c0.2,2.6,1.5,3.5,3.9,2.5c1.4-0.6,2.6-1.5,3.7-2.5
		c3.3-3,5.5-6.8,8-10.5c-0.4-1-0.9-1.9-1.2-2.9c-1.1-3.2,0-6.1,3-7.7c2-1.1,4.2-1.7,6.4-0.6c1.1,0.5,2.2,1.2,2.1,2.6
		c0,1.5-1.2,2-2.3,2.4c-0.4,0.2-0.9,0.2-1.4,0.3c-1.1,0.4-1.3,0.9-0.7,2c0.2,0.3,0.4,0.7,0.7,1c2.1,2.7,4.2,5.4,6.5,8.3
		c0.3-0.2,0.7-0.5,1.1-0.9c4.7-4.8,9.4-9.6,14.1-14.4c1-1,2.1-2,3.2-2.9c2.1-1.8,4.5-2,7-1.3c1.9,0.5,3.1,1.9,3.2,3.7
		c0.1,1.4-0.3,2.4-1.3,2.8c-1.1,0.4-2.2,0.3-3.1-0.7c-0.3-0.3-0.5-0.6-0.7-1c-5.2,4-6.6,13.1-3,19.5c0.5-0.4,1.1-0.7,1.5-1.1
		c4.8-4.1,9.6-8.2,14.4-12.3c1.3-1.1,2.8-1.4,4.2-0.6c1.3,0.7,1.8,1.9,1.5,3.7c-0.5,2.6-1,5.2-1.4,7.8c-0.2,1.2-0.1,2.4,0.1,3.6
		c0.3,1.7,1.1,2.2,2.7,1.9c1.1-0.3,2.3-0.8,3.2-1.5c1.2-0.9,2.3-2,3.3-3.1c2.2-2.8,4.3-5.8,6.3-8.4c-0.6-1.6-1.2-2.8-1.5-4.2
		c-0.6-2.8,0.5-4.9,2.8-6.3c2.3-1.5,4.8-2.1,7.5-0.6c0.9,0.5,1.6,1.2,1.6,2.2c0,1.2-0.8,1.9-1.9,2.3c-0.6,0.2-1.2,0.3-1.8,0.5
		c-1.1,0.4-1.3,0.9-0.8,2c0.1,0.1,0.2,0.3,0.3,0.4c2.3,3,4.6,5.9,6.9,8.9c2.3-2.2,4.6-4.4,6.8-6.7c2.9-3,5.8-5.9,8.7-8.9
		c2-2.1,4.4-3.7,7.1-4.9c3.6-1.5,7.4,0.7,7.1,4.3c-0.1,1.1-0.4,2.1-1.6,2.5c-1.2,0.4-2.2,0.2-3.1-0.8c-0.3-0.3-0.5-0.8-0.8-1.2
		c-6.5,5.7-7.3,15.4-3.5,20.6c1.2-1,2.4-2,3.6-3c4.1-3.5,8.2-7.1,12.4-10.6c1.2-1,2.5-1.1,3.8-0.5c1.3,0.6,1.9,1.7,1.6,3.4
		c-0.3,2.1-0.9,4.1-1.2,6.1c-0.2,1.8-0.3,3.7-0.2,5.5c0.1,1.7,1,2.3,2.6,1.9c1.3-0.3,2.8-0.9,3.8-1.9c2.2-2.2,4.2-4.6,6.1-7.1
		c1.4-1.9,3.1-3.6,3.1-6.3c0-1.2,1.2-1.6,2.3-1.6c1.6,0,2.8,0.6,3.2,1.9c0.4,1.2,0.4,2.4,0.7,4c0.6-0.9,1-1.5,1.4-2.2
		c1.9-2.9,4.1-5.6,6.8-7.7c1.7-1.3,3.7-2.2,5.9-2.4c2.5-0.2,4.4,0.7,5.8,2.7c0.9,1.4,1.6,2.9,2.3,4.5c0.5,1.1,1.1,1.6,2.2,1.2
		c1.3-0.4,2.6-0.8,3.8-1.4c2.7-1.5,5.2-0.4,5.6,2.7c0.1,0.7,0.1,1.4,0.2,2.6c0.6-0.7,0.9-1.1,1.2-1.6c1.9-3,4-5.8,6.8-8
		c1.8-1.5,3.9-2.5,6.3-2.7c2.4-0.2,4.3,0.6,5.6,2.6c0.9,1.4,1.6,2.9,2.3,4.4c0.7,1.5,0.9,1.8,2.6,1.3c1.5-0.4,3-1,4.4-1.8
		c1.3-0.7,2.5-0.9,3.9-0.2c1.5,0.7,1.7,2.1,1.4,3.5c-0.4,2.4-0.9,4.7-1.3,7.1c-0.2,1.4-0.2,2.8-0.3,4.3c2,0.5,3.7-0.1,5-1.1
		c1.6-1.2,3.3-2.6,4.4-4.3c1.9-2.8,3.6-5.8,5.2-8.9c1-1.9,2.2-3.5,4.2-4.4c2.8-1.4,5.7-1.3,8.1,0.7c10,8,15.1,18.1,13.1,31.3
		c-2,13.1-3.8,26.3-5.6,39.4c-2.1,15.1-4.1,30.3-6.1,45.4c-1.7,13.3-3.4,26.7-5,40c-1.7,14-3.5,27.9-5.1,41.9
		c-1.7,14.7-3.4,29.4-5,44.1c-1.7,15.4-3.4,30.8-5.1,46.3c-1.2,11.7-2.4,23.4-3.6,35.1c-1.4,13.9-2.8,27.8-4.1,41.8
		c-1.2,13.1-2.4,26.1-3.6,39.2c-1.4,15.7-2.8,31.4-4.1,47.1c-0.9,10.9-1.7,21.8-2.6,32.8c-1.1,13.6-2.1,27.3-3.2,40.9
		c-0.8,10.1-1.4,20.3-2.1,30.4c-0.4,5.7-1,11.5-1.2,17.2c-0.2,5.3-0.1,10.7,0.1,16.1c0.2,8.1,0.3,16.2,0.7,24.2
		c0.7,14,1.4,28,2.3,41.9c0.6,10.1,1.3,20.3,2.1,30.4c0.8,11.4,1.8,22.8,2.7,34.2c0.7,8.9,1.4,17.9,2,26.8
		c0.8,12.1,1.7,24.3,2.3,36.4c0.7,14.9,1.2,29.7,1.7,44.6c0.2,6.4,0.2,12.8,0.5,19.2c0.2,5.7-2.1,9.9-6.8,12.9
		c-4.3,2.8-9.2,3.9-14.3,4.5c-8.6,1.1-17.1,0.1-25.5-1.8c-10.5-2.3-21-5.1-31.5-7.6c-7.2-1.7-14.4-3.1-21.8-3.3
		c-7.7-0.2-15.1,1-22.1,4.4c-3,1.5-6,2.9-9,4.5c-5.3,2.9-11,4.8-17,5.6c-0.8,0.1-1.6,0.3-2.4,0.5c-2.1,0.4-3.6,1.6-4.6,3.5
		c-0.9,1.7-1.8,3.4-2.7,5.1c-3.7,6.6-7.9,12.8-13.3,18.1c-1.5,1.4-3.1,2.7-4.9,3.8c-5,3-10.1,2.8-15-0.3c-5.8-3.7-8.5-9.2-9-15.9
		c-0.2-2.3-0.2-4.6-0.1-7c0.4-7.5-1.6-14.3-5.9-20.3c-2.5-3.5-5.2-6.9-7.9-10.2c-3.9-4.8-8-9.4-11.8-14.2c-2.3-2.9-4.2-6-6.1-9.2
		c-6.2-10.5-7.2-21.7-3.5-33.3c1.6-5.2,3.9-10.1,6.5-14.9c2-3.7,4-7.5,5.9-11.2C483.3,829.8,484.5,826.6,485.3,822.8z M541.1,83.8
		c-1.5,1.3-3,2.5-4.3,3.8c-1.9,1.9-3.7,3.9-5.5,6c-0.7,0.8-0.8,1.7-0.4,2.9c2.1,5.5,2.5,11.2,2.1,17c-0.3,3-1.2,5.8-3,8.2
		c-2.3,3.2-6.7,4.8-10.4,3.8c-2.5-0.7-4.2-2.5-4.3-5.1c-0.1-1.7,0-3.4,0.3-5c1.1-5.5,3.3-10.7,6-15.6c1.8-3.2,1.8-3.2,0.3-6.6
		c0-0.1-0.1-0.1-0.1-0.2c-1.9-3.7-2.6-7.5-2.2-11.6c0.1-0.8,0-1.5,0-2.7c-0.6,0.6-1,0.9-1.4,1.3c-2.6,2.7-5.1,5.5-7.7,8.2
		c-0.9,0.9-1,1.7-0.6,3c1.4,3.9,2,7.9,1.6,12c-0.6,5.8-3.9,9.8-9.5,11.4c-4,1.1-8.3-1-9.5-4.8c-0.6-1.9-0.4-3.8,0-5.7
		c0.8-3.4,2.7-6.3,4.9-9c1.5-1.8,3-3.5,4.5-5.3c-1.2-2.6-2.6-5-4.9-6.9c-0.5,0.8-1,1.4-1.4,2.1c-2.3,3.5-4.8,6.8-8.1,9.4
		c-2,1.7-4.2,2.9-6.8,3.4c-3.1,0.6-5.3-0.3-7-3c-0.3-0.5-0.6-1-1-1.7c-0.4,0.8-0.7,1.3-1,1.9c-1.7,3.2-3.2,6.4-5.2,9.5
		c-2,3.2-4.3,6.2-6.7,9c-1,1.3-2.5,2.3-3.9,3.1c-4.7,2.4-9.7-0.8-9.6-6.1c0.1-1.9,0.3-3.8,0.6-5.7c1.3-7.9,4.1-15.4,6.7-23
		c3.7-10.6,7.3-21.3,11-32c0.7-2,1.1-4.1,1.7-6.2c-0.9,0.5-1.5,1.1-2.1,1.8c-3.9,4.8-7.2,10-10.3,15.3
		c-6.7,11.5-12.5,23.4-18.3,35.4c-1.5,3-3,6-4.6,9c-1,1.9-2.6,3.3-4.7,3.8c-3.8,1-6.2-1.1-5.8-4.9c0.2-2.1,0.5-4.3,1.1-6.4
		c1.8-6.5,3.8-12.9,5.6-19.3c2.4-8.5,4.8-17.1,7.2-25.6c0.2-0.8,0.2-1.6,0.3-2.4c-0.9,0.5-1.4,1.2-1.7,1.8c-1.2,2.3-2.5,4.7-3.5,7.1
		c-4.2,9.3-8.2,18.7-12.6,28c-2,4.3-4.4,8.3-6.8,12.4c-0.9,1.6-2.2,3-4.1,3.5c-4.6,1.4-9.2,2.7-13.8,4.1c-1.5,0.5-3,1.2-4.4,1.9
		c-2.1,1-3.4,2.7-3.6,5c-0.2,2.4-0.3,4.8-0.4,7.2c-0.3,6.9-2.6,12.8-8.3,17c-0.7,0.5-1.4,1.1-2.1,1.6c-2.4,1.8-3.3,4.3-2.8,7.2
		c0.6,3.1,1.2,6.3,1.9,9.4c2.5,10.4,0.7,20-5.3,28.8c-2.1,3-4.4,5.9-7.1,8.4c-4.2,3.8-8.8,7.2-13.2,10.8c-3.6,2.9-7.4,5.6-10.8,8.8
		c-8.8,8.2-13.7,18.4-14.4,30.5c-0.2,4-0.1,8-0.4,12c-0.6,8.5-7,14.7-15.4,15.3c-2.2,0.2-4.5,0.3-6.7,0.7c-2.2,0.4-2.7,1.3-2.1,3.5
		c0.3,1.4,0.9,2.7,1.3,4.1c0.7,2.1,1.6,4.2,2.2,6.3c2.8,9.3,0.9,17.7-4.8,25.4c-0.4,0.6-0.8,1.1-1.2,1.7c0.6,1.3,1.3,2.4,1.7,3.6
		c1.7,4.2-0.1,9.3-5,10.5c-0.9,0.2-1.7,0.5-2.5,0.8c-5.9,2.4-10.7,6.1-13.6,11.9c-3.9,8-0.2,18.1,7,21.2c1.1,0.5,2.1,1.1,3.1,1.8
		c3.9,2.8,5.7,6.6,4.7,11.4c-0.5,2.3-1.2,4.6-2.1,6.8c-0.8,2.1-0.7,4.1,0.5,5.9c0.9,1.3,1.9,2.6,2.8,3.9c2.1,2.9,3.1,6.1,3.1,9.7
		c0,4-1.5,7.5-3.9,10.6c-1.8,2.4-4,4.6-5.9,6.9c-2.8,3.3-5.6,6.6-8.2,10.1c-1.9,2.5-3.2,5.3-3.9,8.4c-0.2,1-0.2,2-0.3,3.2
		c4-1.2,7.1-0.1,9.4,3c8.9,12.3,7.4,29.3,0.6,38.1c-0.6,0.8-1.2,1.7-1.8,2.6c-1.7,2.5-1.9,5-0.4,7.6c1.7,2.9,2.2,6,1.9,9.3
		c-0.2,1.7-0.5,3.5-0.8,5.2c-0.1,0.8-0.2,1.7-0.3,2.7c1.3,0,2.4,0.1,3.5,0c1.8-0.3,3.6-0.6,5.4-1c4.3-1,8.2,1.2,9.2,5.4
		c0.3,1.4,0.2,3,0,4.5c-0.4,2.4-1,4.8-1.5,7.3c-0.8,4.5-1.3,9-0.9,13.6c0.5,5.1,2.5,9.5,6.2,13.2c1.9,1.9,3.9,3.8,5.7,5.8
		c3.2,3.6,4.8,7.8,4.6,12.7c-0.2,5.6-2.6,10.1-6.3,14.1c-3.3,3.5-7.3,6-11.6,8c-2.3,1.1-4.7,2.1-6.8,3.5c-1.8,1.1-3.5,2.6-4.8,4.2
		c-2,2.3-1.7,3.9,0.6,6c1.2,1.1,2.5,2,3.6,3.2c4.2,4.4,4.9,9.9,1.9,15.2c-1.2,2.1-2.7,4-4.2,5.8c-4.8,5.6-9.8,11.2-14.7,16.8
		c-5.1,5.9-10.2,11.9-15.3,17.8c-3.4,4-5.3,8.8-5.8,14c-0.9,8.8-2.8,17.4-6.5,25.4c-5.3,11.6-10.7,23-16.3,34.5
		c-1.7,3.5-3.6,7-4.5,10.8c-0.9,3.4-2.8,6.1-5.8,8c-1,0.7-2.1,1.1-3.2,1.6c-3,1.4-3.6,2.4-3.1,5.7c0.4,2.4,1.1,4.8,1.8,7.2
		c1.2,4.1,2.6,8.2,3.8,12.4c1.6,5.6,2.7,11.4,2.6,17.2c0,1.7-0.3,3.5-0.5,5.4c0.8,0,1.5,0.1,2.2,0.1c18.7,0.1,37.4,0.2,56.1,0.3
		c20.4,0.1,40.8,0.3,61.2,0.5c18.2,0.2,36.5,0.4,54.7,0.5c25.5,0.2,51,0.3,76.5,0.4c7.8,0,15.5,0.1,23.3,0.1c0.7,0,1.4,0,2.2,0.1
		c3.9,0.6,6.4,3.1,6.8,6.9c0.2,1.6,0.1,3.2,0,4.8c-0.4,6.1-2.1,11.8-4.7,17.3c-2.4,5.1-5.2,10.1-7.6,15.2c-1.8,3.7-3.6,7.5-4.9,11.4
		c-2.4,7.2-1.9,14.4,1.9,21.1c1.9,3.3,3.9,6.6,6.2,9.7c3.1,4.1,6.6,7.8,9.8,11.8c3.5,4.4,7.1,8.7,10.3,13.2c4,5.8,6.7,12.2,7.3,19.3
		c0.3,3.3,0.2,6.5,0.2,9.8c0,1.4-0.1,2.7,0.1,4.1c0.1,1.5,0.6,2.8,2.1,3.6c0.3-0.2,0.7-0.4,0.9-0.7c4.4-4.8,8.4-9.9,11.3-15.7
		c0.8-1.6,1.7-3.3,2.6-4.9c3.2-5.8,7.9-9.5,14.5-10.8c0.9-0.2,1.7-0.4,2.6-0.6c6.6-1.2,12.8-3.4,18.6-6.8c1.7-1,3.4-1.7,5.2-2.5
		c7.8-3.7,16-5.3,24.6-5.4c9.8-0.1,19.4,1.7,28.9,4c9.7,2.4,19.4,4.9,29.1,7.1c7.3,1.7,14.7,2.5,22.1,1.8c2.4-0.3,4.8-0.7,6.8-1.6
		c0-4.2,0.1-8,0-11.9c-0.3-13.4-0.6-26.9-1.2-40.3c-0.5-12.3-1.4-24.6-2.2-36.9c-0.6-9.9-1.4-19.8-2.1-29.7
		c-0.9-11.4-1.8-22.8-2.7-34.2c-0.7-9.8-1.5-19.6-2.1-29.4c-0.8-12.7-1.6-25.4-2.3-38.1c-0.5-9.8-0.8-19.7-1.1-29.5
		c-0.4-11.5-0.6-23,0.3-34.5c0.9-10.6,1.5-21.2,2.3-31.8c0.5-7.3,1-14.7,1.6-22c0.9-11.5,1.8-23,2.7-34.4c0.7-8.7,1.4-17.4,2.1-26.1
		c0.9-10.4,1.8-20.9,2.7-31.3c0.7-7.9,1.4-15.8,2.1-23.7c0.9-9.7,1.8-19.4,2.7-29.1c0.8-8.9,1.7-17.8,2.6-26.7
		c1-10.5,2.1-21,3.2-31.5c0.8-8.3,1.7-16.5,2.6-24.8c1-9.7,2.1-19.4,3.2-29.1c1-9.2,2-18.4,3.1-27.6c1-9.1,2.1-18.1,3.2-27.2
		c1.2-9.9,2.3-19.8,3.6-29.8c1.2-9.8,2.4-19.7,3.7-29.5c1.2-9.3,2.3-18.6,3.6-27.8c1.4-10.4,2.7-20.8,4.1-31.1
		c1.3-10,2.7-20,4.1-29.9c1-7,2.1-13.9,2.9-20.9c0.8-7.1-2.4-12.4-7.8-16.9c-0.6,0.8-1,1.4-1.5,2.1c-2.1,3-4.4,5.9-7.3,8.2
		c-2,1.6-4.3,2.8-6.8,3.3c-3.1,0.6-5.5-0.6-7-3.4c-0.4-0.8-0.7-1.8-1-2.7c-0.6-2.6-0.6-5.2-0.3-7.9c0.1-0.7,0.2-1.5,0.2-2.3
		c-2.8,0.1-4.4,1-5.1,3.8c-0.5,2-1.7,4-2.8,5.8c-1.9,3.1-4.6,5.5-8.1,6.8c-3.6,1.3-7,1.6-10-2c-0.3,1.9-0.7,3.4-0.9,5
		c-0.7,5.8-1.3,11.6-2,17.4c-0.2,1.5-0.6,3-1.2,4.3c-0.7,1.5-2.3,2.1-3.6,1.8c-1.4-0.3-2.3-1.4-2.5-3.2c-0.1-0.5-0.1-1,0-1.4
		c0.3-2.7,0.5-5.4,0.9-8.1c1.1-7.8,2.6-15.5,2.8-23.3c0.1-2.4,0-4.9-0.4-7.5c-1.2,0.3-2.3,0.7-3.4,0.9c-1.6,0.3-2.3,1.3-2.6,2.7
		c-0.7,2.7-2,5.2-3.7,7.5c-2,2.8-4.6,4.9-7.9,6c-3.4,1.2-6.8,1.4-9.4-2c-0.2,0.5-0.4,0.9-0.4,1.2c-0.5,3.9-1.1,7.8-1.5,11.6
		c-0.4,3.6-0.8,7.2-1.2,10.7c-0.2,1.5-0.7,3-1.9,4c-1.9,1.5-4.3,0.9-5-1.4c-0.3-0.9-0.3-1.9-0.2-2.8c0.6-4.7,1.3-9.3,1.8-14
		c0.7-5.8,1.2-11.6,1.8-17.4c0-0.5-0.2-0.9-0.2-1.4c-2.2,2.4-4.3,4.8-6.5,7c-2,1.9-4.3,3.3-7,3.9c-4.2,0.9-7.2-0.6-8.3-4.7
		c-0.6-2.3-0.6-4.7-0.8-7.1c-0.1-0.6,0-1.2,0-2.2c-3.7,3.3-7.2,6.1-9.9,9.7c-0.8,1.1-1,2.1-0.4,3.5c1.8,4.8,2.4,9.8,2.1,14.9
		c-0.2,3.5-1,6.8-3,9.7c-2.2,3.2-5.3,4.5-9.1,4.3c-3.7-0.2-5.8-2.6-6-6.2c0-1.1,0-2.2,0.2-3.3c1-5.8,3.3-11.2,6.1-16.3
		c1.8-3.4,2-3.4,0.3-6.7c-2-4.1-2.7-8.3-2.2-12.8c0-0.5,0-1,0-1.9c-3.6,3.9-6.9,7.5-10.2,11c0.3,0.9,0.5,1.6,0.8,2.4
		c1,3,1.5,6.1,1.5,9.2c0,6.5-2.9,10.9-8.3,13c-3.2,1.2-6.1,1.1-8.7-1.2c-2.6-2.3-2.9-5.1-2.2-8.3c0.9-4,3.1-7.2,5.6-10.2
		c1.3-1.5,2.6-3,3.9-4.6c-1.2-2.7-2.6-5-4.9-7c-0.5,0.8-1,1.5-1.4,2.1c-2.4,3.6-5,7-8.4,9.7c-2,1.6-4.3,2.7-6.9,3.2
		c-2.9,0.5-5.3-0.6-6.6-3.2c-0.6-1.1-1-2.4-1.2-3.6C541.3,88.7,541.2,86.4,541.1,83.8z M641.4,90.5c2.7-3.3,6.1-5.5,9.7-7.4
		c2.5-1.3,3.3-3.3,3.6-5.7c0.3-2.3-1.2-3.4-3.4-2.7c-2.1,0.7-3.8,2.1-5.1,3.8C643.5,82.1,642.2,86.2,641.4,90.5z M675.6,90.3
		c2.7-3.1,6.1-5.4,9.7-7.2c2.4-1.2,3.2-3.2,3.5-5.5c0.3-2.5-1.1-3.6-3.5-2.8c-2.3,0.8-4.1,2.4-5.5,4.4
		C677.5,82.5,676.3,86.3,675.6,90.3z M503.6,95.2c-3.5,3-6.2,6.4-7.3,10.9c-0.1,0.3-0.1,0.6-0.1,0.9c0,1.5,0.5,2.2,2,2.6
		c2.4,0.6,4.1-0.1,5.1-2.4C504.9,103.3,504.9,99.4,503.6,95.2z M573.1,95c-3.2,2-7,7.6-7.6,10.8c-0.5,2.9,1.1,4.4,4,3.9
		c1.6-0.3,2.5-1.3,3.1-2.7C574.1,103.2,574.1,99.2,573.1,95z M524.6,103c-2,3.5-3.5,6.9-4.6,10.5c-0.4,1.4-0.7,2.8-0.9,4.2
		c-0.1,1-0.1,2.1,0.8,2.8c2.4-0.5,3-1,4-3.4c1.6-4.2,1.6-8.6,1.2-13C525,103.8,524.8,103.5,524.6,103z M593.7,103.2
		c-1.6,2.9-2.9,5.9-4,8.9c-0.6,1.7-0.9,3.5-1.2,5.3c-0.2,1-0.2,2.1,0.7,2.9c2.1,0,3.1-1.3,3.9-3c1.8-4.4,1.7-9.1,1.2-13.7
		C594.2,103.6,594,103.5,593.7,103.2z"/>
	<path d="M642.6,942.3c5.9-0.6,11.6,0.2,17.2,2.3c4.2,1.6,8.5,2.7,13.1,2.5c3.2-0.1,5.6,2.1,6.1,5.3c0.9,5.7-3,9.8-8.2,9.7
		c-3.8-0.1-7.5-0.7-11.1-1.7c-1.7-0.5-3.4-1-5-1.7c-4.6-1.8-9.4-2.5-14.3-1.6c-1.2,0.2-2.4,0.2-3.6,0.1c-3.9-0.2-6.7-3.1-6.8-7.3
		c-0.1-4.1,2.5-7.3,6.4-7.6C638.4,942.1,640.5,942.3,642.6,942.3z"/>
	<path d="M695.1,965c-1.9,0-3.8-0.1-5.8,0c-3.4,0.1-7.3-2.6-7.5-7.8c-0.1-3.7,3.3-7.1,7.3-7.2c4.1-0.1,8.1-0.1,12.2,0
		c4.2,0.1,7.2,3.6,7.2,7.8c0,3.9-3.3,7.1-7.5,7.2C699.1,965.1,697.1,965,695.1,965z"/>
	<path d="M585.1,959.5c-1.4,0-2.9,0-4.3,0c-4.2-0.1-7.3-3-7.6-7.1c-0.3-4,2.4-7.5,6.7-7.9c3.5-0.3,7-0.3,10.5,0c4,0.3,7,4,6.8,8
		c-0.2,3.8-3.5,6.8-7.5,7C588.1,959.5,586.6,959.5,585.1,959.5z"/>
	<path d="M618.2,72.2c-1.9,0-3.2-1.3-3.2-3.1c0-2.3,1.6-4.1,3.8-4.1c1.9,0,3.3,1.5,3.2,3.4C622,70.3,620.1,72.2,618.2,72.2z"/>
	<path d="M483.5,68.4c-0.1,2-1.9,3.8-3.9,3.7c-1.8,0-3.1-1.4-3.1-3.2c0.1-2.4,1.8-4.1,3.9-4C482.3,65,483.6,66.5,483.5,68.4z"/>
	<path d="M549.4,64.9c2,0,3.3,1.3,3.3,3.3c0,2.1-1.7,3.9-3.7,3.9c-1.9,0-3.2-1.2-3.2-3.1C545.7,66.7,547.3,65,549.4,64.9z"/>
	<path d="M707.1,72.2c-1.9,0-3.1-1.3-3.1-3.2c0-2.4,1.7-4.1,3.8-4c1.9,0.1,3.2,1.5,3.1,3.5C710.9,70.4,709.2,72.2,707.1,72.2z"/>
</g>
</svg>
