<?xml version="1.0" encoding="utf-8"?>
<!-- Generator: Adobe Illustrator 23.0.4, SVG Export Plug-In . SVG Version: 6.00 Build 0)  -->
<svg version="1.1" id="Layer_1" xmlns="http://www.w3.org/2000/svg" xmlns:xlink="http://www.w3.org/1999/xlink" x="0px" y="0px"
	 viewBox="0 0 1008 1008" style="enable-background:new 0 0 1008 1008;" xml:space="preserve">
<g>
	<path d="M545.9,583.2c-0.6,0.9-1.3,1.7-1.8,2.7c-2.8,5.8-5.6,11.5-8.2,17.3c-4.7,10.2-9.2,20.4-13.9,30.5c-1.6,3.4-3.8,6.6-5.9,9.8
		c-0.8,1.2-1.9,2.2-3.1,3c-2,1.3-3.9,0.6-4.3-1.8c-0.3-1.8-0.3-3.6-0.3-5.5c0-1.4,0.2-2.9,0.3-4.3c-1.7-0.6-50.2-0.7-53.3-0.2
		c-0.1,0.6-0.2,1.2-0.2,1.8c0,11,0.1,21.9,0.1,32.9c0,2-0.3,4-0.7,5.9c-1.3,5.7-5.5,9.2-11.4,9.5c-3.6,0.2-6.8-0.7-9.9-2.4
		c-4.2-2.3-7.7-5.4-10.2-9.5c-1.3-2.1-2.6-4.2-4-6.3c-0.7-1.1-1.6-2.1-2.7-3.5c-0.3,0.9-0.6,1.4-0.8,2c-0.6,1.6-1.1,3.2-1.8,4.7
		c-3.8,8.2-10.1,12.8-19.2,13.5c-5.2,0.4-10.4,0.4-15.6,0.5c-6.6,0.1-13.3,0-19.9,0.1c-1.7,0-3.5,0.3-5.3,0.4
		c-0.3,0.7-0.5,1.3-0.8,1.8c-2.1,4.2-6.6,5.7-10.7,3.4c-5.5-2.9-9.7-2.5-14.6,1.4c-2.4,1.9-4.8,3.8-7.3,5.4c-2.8,1.9-6,2.5-9.4,1.9
		c-4.8-0.9-7.4-3.8-7.8-8.7c-0.5-5.8-1-11.6-2.4-17.3c-1.5-6-4-11.5-8.5-15.8c-3.9-3.7-8.3-5.8-13.9-5.2c-4.4,0.5-7.7-2-8.5-6
		c-0.3-1.6,0-3.2,0.6-4.7c1.3-3,1-5.9-0.5-8.8c-1.7-3.4-4.2-6.2-6.8-8.9c-2-2.1-4.1-4.3-6.2-6.4c-6.8-6.8-10.5-15.1-11.9-24.6
		c-0.7-4.9-1.5-9.8-2.4-14.7c-0.4-1.9-1.1-3.7-1.9-5.4c-0.5-1-1.4-1.9-2.3-3.1c-1.5,1.4-2.8,2.5-4.1,3.8
		c-5.3,5.2-10.5,10.5-15.8,15.7c-2.8,2.8-7,3-10.1,0.5c-7.1-5.9-13.3-12.5-16.9-21.1c-4.7-11.2-3.4-21.7,4.3-31.3
		c1.1-1.4,2.3-2.6,3.6-4.1c0,0.2,0.1,0.1,0-0.1c-4.1-5.4-4.1-11.4-2.5-17.6c2.8-11.2,5.7-22.4,8.6-33.7c0.2-0.8,0.4-1.7,0.6-2.6
		c-1.6-0.4-3.1-0.7-4.5-1.1c-5.5-1.6-10.2-4.6-14.5-8.1c-6.3-5.1-11.5-11.4-16.7-17.5c-11.4-13.2-22.9-26.3-34.3-39.5
		c-3.3-3.8-7.1-6.9-11.5-9.2c-2.9-1.6-5.6-3.6-8.3-5.6c-1.1-0.8-1.9-1.9-2.8-3c-2.5-3.1-3.1-6.6-1.7-10.4c0.6-1.5,1.2-3,1.7-4.5
		c2.3-6.9,2.9-13.8-0.5-20.5c-1.5-3-3.5-5.9-5.7-8.5c-4.1-4.9-8.5-9.6-12.9-14.2c-2.1-2.2-3-4.6-2.5-7.6c0.2-0.9,0.1-1.9,0.1-2.9
		c0-31.3,0-62.6,0-93.8c0-1,0-1.9,0.2-2.9c0.7-3.1,3.5-5.4,6.7-5.5c0.8,0,1.6,0,2.4,0c272.1,0,544.1,0,816.2,0c0.6,0,1.3,0,1.9,0
		c3.9,0.1,6.8,2.8,7.2,6.7c0.1,0.8,0.1,1.6,0.1,2.4c0,131.1,0,262.2,0,393.3c0,6.5-3,9.2-9.4,8.6c-0.8-0.1-1.6-0.1-2.4-0.1
		c-7.4,0-14.7,0-22.1,0c-13.4,0-26.9,0-40.3-0.1c-1.6,0-3.2-0.2-4.7-0.6c-4.9-1.3-9.1,0.2-13.1,3c-2,1.4-4.1,2.8-6.6,3.2
		c-1.2,0.2-2.6,0.3-3.8,0.1c-2.6-0.5-4.2-2.4-4.5-5c-0.1-0.6-0.1-1.2-0.2-2.3c-2.9,2.6-6.1,4-9.8,3.4c-3.9-0.6-5.5-3.7-7-7.3
		c-0.6,1.1-1.1,1.9-1.5,2.7c-3.8,6.9-7.6,13.7-12.9,19.6c-1,1.1-2,2.1-3.1,3c-3.6,2.7-7.5,1.9-9.8-2c-1.6-2.6-1.9-5.5-1.4-8.4
		c0.7-5,1.7-9.9,2.7-14.8c1.9-8.9,3.8-17.8,5.7-26.7c0.3-1.6,0.6-3.3,0.8-4.9c-0.2-0.1-0.3-0.2-0.5-0.2c-0.5,0.7-1.1,1.2-1.5,2
		c-2.4,4.5-4.9,9-7.1,13.6c-3.1,6.3-6,12.7-9.1,19c-1.2,2.4-2.4,4.9-4.6,6.6c-1.2,1-2.6,1.9-4.1,2.3c-2.3,0.7-4.1-0.5-4.6-2.9
		c-0.2-1.2-0.2-2.4-0.2-3.6c0-2.1,0-4.3,0-6.7c-0.5,0.8-1,1.3-1.4,2c-2,3.1-4.4,5.9-7.5,8c-1.9,1.4-4,2.3-6.3,2.7
		c-3.9,0.6-7.6-1.5-7.6-6.1c0-0.3-0.1-0.6-0.1-0.9c-7.3,5-11.8,4.1-16-1.5c-1.3,2.3-2.5,4.6-3.9,6.9c-2.5,4.1-5.5,7.6-9.3,10.6
		c-1.9,1.5-4,2.6-6.4,3.3c-5,1.3-9.6-0.6-11.9-5.2c-2.1-4.1-2.9-8.6-3-13.2c0-0.9-0.1-1.8-0.7-2.8c-0.4,0.7-0.8,1.3-1.2,2
		c-3.6,6.4-7.2,12.7-12.1,18.1c-0.9,0.9-1.8,1.9-2.8,2.7c-4.3,3.3-9.3,1.9-10.9-3.3c-0.7-2.2-1-4.6-0.7-6.8c0.6-5,1.7-9.9,2.7-14.8
		c2-9.9,4.2-19.7,6.2-29.6c0.1-0.7,0.2-1.4-0.2-2.3c-0.5,0.7-1.1,1.3-1.5,2c-2.4,4.6-4.9,9.1-7.2,13.8c-3.4,6.8-6.5,13.7-10,20.5
		c-1,1.9-2.4,3.6-3.9,5.1c-0.9,0.9-2.2,1.6-3.5,2c-2.6,0.9-4.6-0.3-5.1-3.1c-0.2-1.1-0.3-2.2-0.2-3.3c0.3-4.1,0.6-8.1,0.9-12.2
		c0-0.2-0.1-0.5-0.1-0.9c-0.8,0.4-1.5,0.7-2.2,1c-2.9,1.1-5.8,2.3-8.7,3.3c-1.2,0.4-2,1.1-2.6,2.2c-1.4,2.3-2.8,4.6-4.4,6.8
		c-1.3,1.8-3.2,2.9-5.3,3.6c-3.7,1.2-7.5,0.1-9.9-3c-0.7-0.9-1.2-1.9-1.9-3c-0.4,0.9-0.8,1.7-1.2,2.5c-3.6,7.6-7.4,15.1-12.6,21.7
		c-1.7,2.2-3.8,4.1-5.9,6c-1.8,1.6-4.1,2.1-6.5,1.7c-4.3-0.7-6.6-3.5-6.3-7.9c0.2-5,0.9-9.9,2.4-14.6c2.9-9.1,6-18.2,9-27.3
		c4-12.1,8.8-23.8,11.9-36.2c0.2-0.7,0.3-1.5,0.5-2.2c-0.1-0.1-0.3-0.2-0.4-0.2c-0.6,0.6-1.1,1.2-1.7,1.9
		c-5.5,6.5-9.9,13.7-14.2,21.1c-7.7,13.5-14.5,27.4-21.2,41.4c-1.6,3.3-3.3,6.6-5.1,9.8c-1.2,2.1-3,3.8-5.5,4.3
		c-0.8,0.2-1.6,0.3-2.4,0.2c-2.5-0.1-3.9-1.3-4.2-3.7c-0.2-1.1-0.1-2.2,0.1-3.3c0.7-5.7,2.3-11.1,3.9-16.5
		c3.5-11.5,7-23.1,10.4-34.7c1-3.5,1.7-7.2,2.5-10.7c0.1-0.5,0.1-1.1,0.2-1.6C546.3,583.4,546.1,583.3,545.9,583.2z M698.7,582.8
		c3.6,0.4,6.8,0.9,10,1.1c5.9,0.5,11.8,0.6,17.7-0.6c2.5-0.5,4.7-1.5,6.5-3.3c0.7-0.7,1.5-1.2,2.3-1.7c0.9-0.6,1.8-0.5,2.6,0.3
		c0.9,0.8,1,1.8,0.5,2.8c-0.3,0.6-0.7,1.3-1.3,1.7c-1.6,1.1-3.1,2.3-4.9,3c-6.1,2.6-12.6,3.4-19.2,3.7c-4.8,0.3-9.6-0.2-14.3-1
		c-2-0.3-2.4-0.1-3.1,1.8c-0.8,2.2-1.6,4.4-2.2,6.6c-2.3,8.5-3.8,17.2-4.7,25.9c-0.5,5.5-0.8,11,0.4,16.5c0.3,1.5,0.9,3.1,1.8,4.4
		c1.3,2.1,3.1,2.4,5.2,1.1c0.9-0.6,1.9-1.3,2.6-2.1c6.2-6.9,10.6-14.8,13-23.8c2.5-9.5,12.3-16.1,22-14.5c4.5,0.7,7.1,3.9,6.9,8.3
		c-0.1,1.9-0.7,3.8-1.2,5.6c-0.9,3.6-2.1,7.1-2.9,10.6c-0.3,1.3-0.2,2.7-0.1,4c0.2,1.2,1,1.7,2.1,1.2c1.1-0.4,2.2-1,3-1.8
		c4.8-4.5,8.5-9.7,11.1-15.7c0.7-1.6,2.4-2.8,4.9-2.6c1.9,0.1,2.9,1.1,3.1,3.3c0.3,2.7,0.3,5.4,0.5,8.1c0,0.5,0.1,1,0.2,1.5
		c0.9-1,1.5-2.1,2-3.1c1.4-2.9,2.6-5.8,4.1-8.7c2.8-5.6,5.6-11.1,8.7-16.6c1.3-2.3,3.2-4.4,5-6.4c3.6-3.6,10.9-2.5,12.2,3.8
		c0.8,3.6,0.9,7.2,0.2,10.7c-0.9,5.4-2.1,10.8-3.5,16.2c-1.9,7.3-4.1,14.6-6.1,21.9c-0.2,0.8-0.6,1.7,0.1,2.9c0.6-0.4,0.9-1,1.3-1.4
		c7.2-8.2,12.4-17.6,17-27.4c1.1-2.4,2.3-4.8,3.9-6.8c4.7-6,11-8.6,18.6-7.6c4.9,0.6,7.7,4.6,7,9.4c-0.2,1.3-0.6,2.5-0.9,3.7
		c-1.1,3.7-2.2,7.4-3.2,11c-0.3,1.2-0.5,2.5,0,4.1c1.3-0.6,2.6-0.9,3.5-1.6c1.9-1.4,3.7-3,5.6-4.5c1.3-1.1,2.6-2.4,4-3.4
		c4-3,8.6-4.1,13.5-4.1c6.4,0,12.8,0.1,19.2,0.1c11.8,0,23.5,0,35.3,0c0.9,0,1.7-0.1,2.7-0.1c0-126.9,0-253.7,0-380.5
		c-268.1,0-536.1,0-804.3,0c0,1.2,0,2.2,0,3.2c0,27.5,0,55-0.1,82.6c0,2.4,0.7,4.2,2.4,5.9c4.9,5.1,9.7,10.2,13.7,16
		c7,10.1,9,21.2,5.9,33.1c-0.6,2.4-1.3,4.7-2.1,7.4c1.5,0.9,2.9,1.9,4.4,2.7c5.1,2.6,9.8,5.8,13.6,10c3.8,4.2,7.5,8.5,11.3,12.8
		c11.5,13.3,23,26.6,34.6,39.9c2.2,2.6,4.9,4.9,7.6,6.9c4.8,3.6,10.1,5,16,2.8c2.5-0.9,4.9-0.2,6.8,1.8c2.2,2.3,2.9,5.1,2.1,8.2
		c-3.8,14.6-7.6,29.2-11.4,43.8c-0.3,1.2-0.5,2.3-0.8,3.5c-0.4,1.9,0.1,3.6,1.4,5.1c0.8,1,1.6,2,2.4,3c2,2.8,3,6,2.6,9.5
		c-0.4,3.4-2.1,5.7-5.4,6.6c-5.8,1.5-8.2,6.9-8.2,11.1c-0.1,7.6,4.1,12.9,9.1,18c2.4-2.2,4.5-4.3,6.6-6.3c3.1-3,6.3-5.9,9.5-8.8
		c2.1-1.8,4.4-3.2,7.2-3.6c5.6-0.9,10,1.4,13.7,5.3c2.6,2.8,4.3,6.2,5.5,9.7c2.1,5.9,3.1,12.1,3.8,18.3c0.9,8.4,4.1,15.5,10.5,21.2
		c1.2,1.1,2.3,2.2,3.4,3.4c6.8,7,12.2,14.8,12.8,25c0.4,0.2,0.8,0.4,1.2,0.5c9.1,2.2,15.9,7.6,21.1,15.1c4.2,6,6.4,12.9,7.7,20
		c0.5,2.4,0.8,4.8,1.3,7.5c1.2-1,2.2-1.8,3.2-2.5c6.2-4.4,13.1-5.7,20.5-4.3c1.1,0.2,1.9,0.2,2.9-0.5c2.3-1.6,5-2.7,7.8-3
		c3.4-0.5,6.8-0.9,10.2-1c9.4-0.1,18.9,0,28.3-0.1c1.3,0,2.6-0.1,3.8-0.2c2.9-0.4,5.1-2,6.2-4.7c0.7-1.7,1.3-3.5,1.7-5.2
		c0.4-2,0.6-4.1,0.9-6.2c0.7-4.9,3.8-7.5,8.8-7.2c5.2,0.3,9.6,2.4,13.2,6.1c2.3,2.4,4.4,5.1,6.4,7.7c1.9,2.4,3.5,5,5.3,7.4
		c0.7,1,1.6,1.9,3.1,2.3c0.1-0.7,0.2-1.1,0.2-1.6c0.1-5,0.2-9.9,0.2-14.9c0-8.4-0.2-16.8-0.2-25.2c0-4.4,2.9-7.3,7.3-7.5
		c0.7,0,1.4,0,2.2,0c19.6,0,39.2,0,58.8,0c0.9,0,1.7,0,2.6,0c0.2-0.6,0.4-1.1,0.5-1.5c1.3-6.8,2.7-13.6,4-20.5
		c0.8-4.2,1.3-8.4,1.9-12.6c0.2-1.3,0.6-2.6,2-3c1.4-0.5,2.8-0.2,3.8,0.9c0.7,0.7,1.5,1.6,1.7,2.6c0.4,1.7,0.6,3.5,0.4,5.2
		c-0.2,2.3-0.9,4.5-1.4,6.8c-1.9,9.5-3.9,18.9-5.8,28.4c-0.2,1.1-0.2,2.3-0.3,3.4c0.2,0.1,0.4,0.1,0.6,0.2c1-1.8,2.1-3.5,3-5.3
		c4.1-8.7,8.2-17.3,12.3-26c3.6-7.7,7.3-15.3,12-22.4c0.9-1.4,2-2.7,3.2-3.9c1.3-1.4,3-1.9,4.8-1.4c2,0.6,2.6,2.2,3,4
		c0.1,0.3,0.1,0.6,0.1,1c-0.1,2.3,0.1,4.7-0.2,6.9c-1.1,8.8-3.6,17.2-6.2,25.6c-2.8,9-5.8,18-8.6,26.9c-0.3,0.8-0.5,1.7-0.7,2.5
		c0.6-0.5,1-1,1.3-1.6c3.1-6.2,6.1-12.5,9.3-18.7c5.8-11.2,11.8-22.3,18.7-32.9c3.4-5.2,6.8-10.3,11.3-14.5c1.4-1.3,3-2.4,4.7-3.1
		c3.8-1.5,7.1,0.6,7.9,4.5c0.7,3.4,0.3,6.8-0.3,10.2c-1.6,8.9-4.5,17.5-7.7,25.9c-4.5,12.1-9.2,24-13.7,36.1
		c-1.5,4.1-2.7,8.4-3.9,12.6c-0.3,0.8-0.2,1.8-0.2,2.8c2-0.5,2.5-0.7,3.8-2.3c1.8-2.2,3.6-4.5,5.2-6.9c5.9-8.7,10.8-17.9,15.5-27.3
		c1-2,1.4-3.7,0.3-6c-2.3-4.8-2.3-9.6,1.4-13.9c5.4-6.2,16.4-6.4,20.8,1.7c1.3,2.4,2,4.9,2.1,7.6c0.1,2.2,0,4.5,0,6.7
		c0,2,0.4,2.4,2.4,2c1-0.2,2-0.5,2.9-1c2.3-1.2,4.5-2.4,6.6-3.8c3.4-2.3,6.6-1,7.1,3c0.2,1.3,0.2,2.7,0.3,4.1
		c0.1,1.6,0.1,3.2,0.2,4.9c0.2,0,0.3,0.1,0.5,0.1c0.5-1,1-1.9,1.5-2.9c2.7-5.7,5.3-11.4,8.1-17.1c2.2-4.5,4.5-8.8,7.7-12.7
		c1.1-1.3,2.3-2.5,3.8-3.3c3.9-2.2,8.7-0.3,10.1,4c0.6,1.7,0.8,3.6,0.9,5.4c0.3,6.4-1.1,12.6-2.7,18.7c-2.1,7.9-4.5,15.8-6.7,23.8
		c-0.4,1.5-0.7,3-1.1,4.8c0.6-0.3,0.8-0.4,1-0.5c0.9-0.9,1.8-1.8,2.6-2.8c6.4-8,11.6-16.9,15.7-26.3c0.4-1,0.6-2.1,0.8-3.2
		c1.3-8.1,2.9-16.2,5.7-24c0.5-1.3,1-2.7,1.6-4.3c-4.1-0.9-8.1-1.7-12.2-1.1c-1.5,0.2-2.9,0.8-4.3,1.3c-0.5,0.1-0.9,0.4-1.3,0.6
		c-1.5,0.5-2.7,0.3-3-0.6c-0.5-1.2,0.4-2,1.1-2.7c2.3-2.3,5.1-3.7,8.3-3.7c4,0,8,0.3,12,0.5c1.5,0.1,2.4-0.3,3.1-1.6
		c1-1.9,2-3.9,3.3-5.6c1.3-1.7,2.9-3.2,4.5-4.6c1.2-1,2.7-1,4,0c1.2,0.9,1.5,2.3,1,3.7c-0.5,1.7-1.2,3.3-1.9,4.9
		C700.1,579.6,699.5,581,698.7,582.8z M811.8,625.9c0.1,1.2,0.1,2.4,0.3,3.6c0.5,2.2,1.7,2.9,3.6,1.6c1.2-0.8,2.3-2.1,2.9-3.4
		c2-4.3,3.7-8.6,5.4-13c0.8-2-0.1-3.1-2.2-3.1c-2.1,0-3.8,1-5.3,2.4C813.3,617.3,811.8,621.3,811.8,625.9z M730.7,611.6
		c-1.8,0.1-3.3,0.7-4.6,1.9c-3.4,3.1-5.3,6.8-5.3,11.4c0,1.8,0.1,3.7,0.5,5.4c0.3,1.3,1.2,1.7,2.4,1.2c1-0.4,2-1.1,2.7-1.9
		c0.9-1.1,1.6-2.4,2.2-3.7c1.4-3.2,2.6-6.4,3.9-9.5c0.3-0.8,0.7-1.6,0.9-2.5c0.4-1.4,0-1.9-1.4-2.2
		C731.4,611.6,731,611.6,730.7,611.6z M609.3,618.2c0.2-0.1,0.4-0.3,0.6-0.4c0.5-4,0-7.8-1.8-11.5c-0.1-0.1-0.2-0.3-0.3-0.4
		c-1-1.3-2.6-1.6-4-0.9c-1.7,0.9-2.8,3.1-2.5,5c0.3,1.8,1,3.4,2.5,4.5C605.6,615.8,607.5,617,609.3,618.2z M598,623.3
		c-0.7,1.9-0.9,3.9-0.7,6.1c0.2,1.8,1.1,3.2,2.8,3.8c1.7,0.6,3.2-0.1,4.4-1.2c1.5-1.3,2.4-3.1,2.9-4.8
		C604.2,625.9,601.2,624.6,598,623.3z"/>
</g>
</svg>
