<?xml version="1.0" encoding="utf-8"?>
<!-- Generator: Adobe Illustrator 23.0.4, SVG Export Plug-In . SVG Version: 6.00 Build 0)  -->
<svg version="1.1" id="Layer_1" xmlns="http://www.w3.org/2000/svg" xmlns:xlink="http://www.w3.org/1999/xlink" x="0px" y="0px"
	 viewBox="0 0 1008 1008" style="enable-background:new 0 0 1008 1008;" xml:space="preserve">
<g>
	<path d="M208.2,309.8c1.1-4.6,2.3-9.1,3.3-13.6c1.8-7.7,2.9-15.5,3.4-23.5c0.1-1.3,0.3-2.6,0.8-3.7c0.9-2.2,3-2.9,5.1-1.8
		c1.8,1,2.8,2.5,3.2,4.5c1,4.9,0.8,9.9,0.2,14.8c-1.3,10.4-4.4,20.5-7.2,30.5c-0.3,1-0.5,2-0.8,2.9c0.1,0.1,0.3,0.1,0.4,0.2
		c0.5-1,1-1.9,1.5-2.9c6.4-12.7,13.4-25.1,21.6-36.8c3.8-5.4,7.9-10.5,12.7-15c2.9-2.7,6-5.1,10-5.9c0.9-0.2,1.9-0.3,2.9-0.2
		c2.9,0.2,4.9,1.9,5.6,4.7c0.8,3.4,0.4,6.8-0.2,10.2c-1.4,7.7-4,15.1-6.8,22.4c-4.9,13-10,26-14.8,39c-1.6,4.5-2.7,9.2-3.9,13.8
		c-0.4,1.4-0.3,3-0.3,4.5c0,0.6,0.1,1.3,0.3,1.9c0.7,1.8,1.8,2.2,3.3,1c1.4-1.2,2.8-2.4,3.8-3.9c3.8-5.5,7.6-11.1,11.1-16.8
		c3.9-6.4,7.3-13.1,10.9-19.7c0.7-1.2,1-2.4,1.1-3.9c0.1-3.3,1-6.5,2.5-9.4c3.8-7.3,12.3-10.3,19.9-7c5.9,2.6,6.8,8,2.2,12.4
		c-2.9,2.7-6.5,3.3-10.2,3.2c-1.2,0-2.4-0.2-3.8-0.4c-0.8,2.9-1.5,5.8-0.7,8.9c0.7,2.8,2.8,4.1,5.4,3.1c1.9-0.7,3.9-1.5,5.5-2.8
		c3.4-2.6,6.5-5.7,9.8-8.4c2.5-2.1,3.7-4.5,4-7.9c0.8-9.2,2.4-18.2,5-27.1c1.1-3.8,2.6-7.6,4.8-10.9c1.2-1.8,2.6-3.5,4.3-4.8
		c4.2-3.1,8.8-1.3,9.9,3.8c0.5,2.4,0.6,4.9,0.3,7.4c-0.9,7.6-3.3,14.8-6.2,21.8c-1.6,3.9-3.5,7.7-5.3,11.5c-0.3,0.6-0.6,1.3-0.9,1.8
		c2-0.1,4-0.4,5.9-0.3c3,0.2,5.2,1.8,6.8,4.3c1.4,2.1,2,2.3,4.3,1.3c2.6-1.1,4.8-2.8,6.7-4.4c-0.9-3.8-1.9-7.4-2.6-11.1
		c-0.6-3.3-0.1-6.5,1.2-9.6c1.2-2.8,3.3-4.7,6.1-5.7c5.9-2.1,12.6,1.8,11.9,10.2c-0.3,3.8-2.1,7-4.1,10.1c-0.6,0.9-1.2,1.9-2.1,3.3
		c1.5-0.5,2.6-0.7,3.6-1.1c1.1-0.4,2.1-1,3.1-1.2c1.2-0.2,2.6-0.3,3.8-0.1c3.4,0.8,4.6,3,3.3,6.3c-1.7,4.6-3.7,9-5.2,13.6
		c-1.6,4.7-2.9,9.5-4.2,14.2c-0.5,1.7-0.6,3.4,0,5.3c1.6,0.1,2.8-0.8,3.7-1.8c1.6-1.8,3.2-3.6,4.5-5.6c4.7-6.8,8.1-14.3,11.6-21.8
		c0.5-1,0.7-2.1,0.9-3.2c2.6-9.8,12.5-15.4,21.8-14c3.7,0.6,6.4,2.7,6.6,7.2c0.1,2.4-0.2,4.7-1,7.1c-1.2,3.8-2.2,7.7-3.1,11.5
		c-0.2,0.9-0.1,1.9,0.2,2.8c0.3,1.2,1,1.7,2.1,1.1c1.4-0.7,2.8-1.5,3.9-2.6c3.9-3.8,6.8-8.5,9.6-13.1c0.5-0.8,0.3-1.5-0.1-2.2
		c-1.6-3.9-1.4-7.8-0.1-11.7c1.8-5.3,7.1-7.9,12.3-6.2c3.9,1.3,5.5,5,3.5,8.3c-1.2,2-3.1,2.1-3.9-0.1c-0.1-0.4-0.5-0.8-0.8-1.2
		c-1.7,0.5-2.2,1.7-2.1,3.1c0.1,1.3,0.3,2.5,0.7,3.7c1.4,4.3,4,7.8,6.9,11.3c1-0.7,1.8-1.4,2.7-2c1.6-1.3,3.2-2.8,5-3.8
		c2-1.1,2.6-2.7,3-4.8c1.9-10.5,4.7-20.7,9-30.5c1.8-4,4-7.8,6.9-11.2c2.1-2.4,4.6-4.2,7.8-4.7c4.5-0.6,8.1,2.3,7.8,6.8
		c-0.2,2.8-0.7,5.8-1.7,8.4c-3.6,10-8.3,19.6-14.2,28.5c-1.4,2.1-3.1,4.1-4.7,6.1c-1.5,1.9-3,3.9-3.5,6.5c0.9-1,1.8-1.9,2.6-2.9
		c2.5-2.8,5.2-5.2,8.9-6.2c0.9-0.2,1.9-0.4,2.8-0.4c3.5-0.1,5.3,2.1,4.7,5.6c-0.4,2.1-1.3,4-3,5.3c-1.6,1.2-3.2,2.3-4.9,3.5
		c-0.9,0.6-1.8,1.2-2.8,1.9c2.1,2.4,3.6,4.8,4,7.7c0.3,2.7,0.4,5.4,0.6,8.1c0.1,1.9,0,3.8,0,6.3c1.2-0.7,2-1.1,2.6-1.6
		c3.2-2.5,5.7-5.6,7.8-9c4.4-7,7.5-14.7,10.3-22.4c2.4-6.4,6.3-11.2,12.9-13.6c3-1.1,6.1-1.4,9.2-0.9c4.5,0.7,7.5,3.6,7.3,8.5
		c-0.1,1.6-0.6,3.3-1.1,4.9c-1,3.4-2.2,6.8-3.2,10.3c-0.4,1.4-0.3,2.8-0.5,4.4c1.3-0.2,1.9-1,2.5-1.6c2.6-2.8,5.3-5.6,7.7-8.6
		c3.4-4.2,7.9-6.2,13.1-6.4c8.3-0.3,16.6-0.6,24.9-0.8c6.6-0.1,13.3-0.3,19.9-0.1c14.3,0.3,28.6,0.9,42.8,2.3
		c12.6,1.3,23.7,6.3,33.5,14.2c4.7,3.8,9.5,7.5,14.4,11.2c2.2,1.6,4.5,3.1,6.8,4.5c1.2,0.7,2.6,1.2,4,1.5c2.6,0.7,4.8,0,6.4-2.2
		c1.6-2.2,3-4.5,4.6-6.7c3.3-4.7,7.8-7.7,13.5-8.9c5.2-1,10,0.1,14.2,3.3c1.2,0.9,2.3,1.3,3.7,0.7c1.3-0.5,2.7-1,4-1.5
		c2.8-1.1,5.6-2.5,8.4-3.4c1.9-0.6,4.1-0.8,6.1-1c3.3-0.3,6.3,0.6,8.7,2.8c5.3,4.8,11.8,6.1,18.6,6.4c3.3,0.2,6.5,0.5,9.8,0.9
		c5.5,0.8,9.8,3.6,12.8,8.4c0.9,1.4,1.7,2.9,2.5,4.4c1,1.9,2,3.8,2.9,5.8c0.7,1.6,1.8,2.6,3.6,3.1c6.7,2.1,11.9,6.3,16.5,11.5
		c2.3,2.7,4.3,5.5,5.9,8.7c0.8,1.6,1.8,3,2.9,4.4c1.1,1.5,2.8,2.2,4.6,2.2c3.5,0,6.8-0.7,9.8-2.7c0.9-0.6,2-1.1,3-1.4
		c4.1-1.1,7.6,0.9,8.7,5c1.1,4.1,2,8.2,2.9,12.4c2.1,8.9,4.2,17.7,6.2,26.6c1.2,5,3.2,9.5,7.1,13c7.8,7.2,12,16.4,14,26.7
		c1.5,7.9,1.9,15.9,2,23.9c0.1,7.2,0.3,14.4,1.8,21.5c0.9,4.2,2.3,8.3,4.5,12.1c1.6,2.8,3.7,5,6.4,6.7c2.2,1.4,4.3,2.7,6.6,4
		c6.5,3.8,8.8,9.6,7.7,16.9c-0.6,4-1.5,8-2.1,12c-2.3,14-1.1,27.7,2.8,41.3c0.5,1.8,1.1,3.5,1.6,5.3c1,3,0.5,5.7-1.8,7.9
		c-3.2,3.1-3.7,6.7-2.8,10.8c0.8,3.6,2.6,6.7,4.6,9.7c2.2,3.3,4.4,6.5,6.7,9.6c5.8,7.8,10.6,16.2,14.4,25.1
		c4.5,10.8,10,21.1,15.9,31.1c2.6,4.5,4.9,9.1,7.3,13.8c1,2,1.4,4.1,0.8,6.3c-0.8,2.8-2.6,4.6-5.4,5.2c-1,0.2-2.1,0.3-3.1,0.3
		c-14.2,0-28.3,0-42.5,0c-25,0-49.9-0.1-74.9-0.2c-16.4,0-32.8-0.1-49.2-0.2c-9.7,0-19.4-0.1-29-0.1c-15.7,0-31.4,0-47-0.1
		c-11.4,0-22.7-0.1-34.1-0.2c-21.8-0.1-43.5-0.2-65.3-0.2c-10.7,0-21.4,0-32.2-0.1c-11.1,0-22.2-0.1-33.4-0.2
		c-21.8-0.1-43.7-0.2-65.5-0.2c-16.2,0-32.3,0-48.5-0.1c-17.4,0-34.7-0.1-52.1-0.2c-34.7-0.1-69.4-0.1-104.1-0.2c-0.6,0-1.3,0-1.9,0
		c-4.5-0.2-7.4-3.2-7.5-7.7c-0.1-4.8,0-9.6-0.1-14.4c-0.1-8-0.1-16-0.2-24c-0.1-8.8-0.3-17.6-0.5-26.4c-0.3-19.1-0.5-38.2-0.8-57.3
		c0-0.5-0.1-1.1-0.1-1.9c-1.1,0-2.1,0-3.2,0c-60.9,0-121.8,0-182.6,0c-1.2,0-2.4,0-3.6-0.2c-3.5-0.5-5.6-2.6-6.2-6
		c-0.2-1.3-0.3-2.5-0.3-3.8c0-87.4,0-174.7,0-262.1c0-2.3,0.4-4.4,2.1-6.1c1.2-1.2,2.5-2,4.2-2.1c2-0.1,4,0,6,0
		c6.2,0,12.5,0.1,18.7,0.1c17.4,0,34.7,0.1,52.1,0.1c18,0,36-0.1,54-0.2C206.9,309.8,207.4,309.8,208.2,309.8z M281.9,706.7
		c1.3,0,2.2,0,3.1,0c31.8,0,63.7,0,95.5,0.1c17.4,0,34.7,0,52.1,0.1c14,0,28,0.1,42,0.2c12.4,0,24.8,0.1,37.2,0.2
		c11.6,0,23.2,0,34.8,0.1c21.8,0.1,43.7,0.2,65.5,0.2c10.8,0,21.6,0.1,32.4,0.2c11,0,22.1,0,33.1,0.1c23.4,0.1,46.9,0.2,70.3,0.2
		c24.8,0.1,49.6,0.1,74.4,0.2c4.4,0,8.8,0.1,13.2,0.1c35,0,70.1,0.1,105.1,0.1c0.6,0,1.2-0.1,2-0.1c-0.5-1-0.9-1.8-1.4-2.5
		c-6.3-10.4-11.8-21.2-16.7-32.4c-2.3-5.1-4.7-10.2-7.6-15c-3.2-5.3-6.9-10.2-10.5-15.2c-2.6-3.7-5.2-7.5-6.9-11.8
		c-3.5-8.8-3.7-17.4,1.2-25.8c0.5-0.9,0.5-1.7,0.3-2.7c-1.2-5.1-2.5-10.3-3.4-15.4c-1.5-9.4-1.6-18.9-0.4-28.4
		c0.6-4.8,1.3-9.6,2.8-14.3c0.8-2.6,0.5-2.8-1.8-4.1c-3-1.8-6.2-3.5-8.9-5.6c-6.4-5.2-10.1-12.3-12.6-20c-2.7-8.3-3.4-16.9-3.8-25.5
		c-0.3-6.9-0.5-13.9-1.1-20.8c-0.7-9.2-3.7-17.5-10.6-24c-0.3-0.3-0.5-0.6-0.8-0.9c-5.3-5.3-8.6-11.6-10.3-18.9
		c-2-8.8-4.1-17.6-6.2-26.4c-0.3-1.3-0.7-2.6-1-3.9c-1.4,0.2-2.5,0.5-3.7,0.6c-10.1,1.2-18.8-2.2-24.1-11.2c-1.2-2-2.4-4-3.7-5.9
		c-3.5-5.3-8.1-9.3-14.4-10.9c-3.9-1-6.7-3.3-8.6-6.8c-1.7-3.2-3.3-6.4-4.7-9.7c-1.1-2.5-2.6-4-5.6-4c-3.5,0-7-0.4-10.5-0.8
		c-8-0.9-15.5-3-21.9-8.3c-0.8-0.7-1.6-0.7-2.4-0.4c-2.1,0.8-4.1,1.7-6.2,2.5c-3.1,1.2-6.2,2.5-9.5,3.4c-3.9,1.1-7.6,0.3-11-1.9
		c-0.9-0.6-1.7-1.2-2.5-1.8c-1.5-1.2-3.2-1.2-4.6,0c-1.4,1.1-2.6,2.3-3.7,3.7c-1.3,1.6-2.2,3.5-3.4,5.2c-3.1,4.8-7.6,7.4-13.2,8.2
		c-5.7,0.8-10.9-0.7-15.9-3.2c-4.9-2.5-9.1-5.9-13.4-9.2c-4.5-3.5-9-7.1-13.7-10.5c-6.6-4.7-13.9-7.9-22-8.7
		c-14-1.4-28.1-2.2-42.1-2.2c-13.2,0-26.4,0.4-39.6,0.8c-8,0.2-15.8,1.5-22.3,6.8c-0.4,0.3-0.8,0.5-1.2,0.7c-1.9,1-4,1.6-6.2,1.5
		c-3.3-0.1-5.5-2.3-5.7-5.6c0-0.5-0.1-1-0.1-1.7c-6.2,4.9-12.6,5-16.5-2.3c-1.3,2.7-2.5,5.4-3.9,8c-2.7,5.3-5.6,10.4-9.6,14.9
		c-1.6,1.8-3.4,3.2-5.5,4.1c-2.7,1.2-4.9,0.6-6.4-1.9c-0.6-0.9-1.1-2-1.3-3.1c-0.6-3-0.9-6-1.4-9c-0.4-2.5-0.6-5.1-1.1-7.6
		c-0.3-1.3-0.6-2.7-2.2-3.6c-0.8,0.7-1.7,1.3-2.4,2.1c-1.1,1.4-2,2.9-3,4.3c-0.6,0.9-1.2,1.9-1.9,2.8c-1.4,1.7-3.8,1.4-4.7-0.6
		c-0.3-0.8-0.6-1.7-0.6-2.6c-0.1-2.8-0.2-5.6-0.1-8.4c0-2.3,0.3-4.5,0.5-7.3c-2.5,1.9-4.7,3.4-6.7,4.9c0.1,0.6,0.1,0.9,0.2,1.1
		c0.3,0.6,0.6,1.1,0.8,1.7c2.5,5.2,4.2,10.7,4.3,16.6c0.2,7.8-3.6,12.6-11.3,13.9c-6,1-11.3-2.3-12.8-8.1c-1.2-4.6-1-9.1,1.5-13.2
		c2.1-3.4,4.5-6.6,7-10.1c-1.8-2.4-3.8-5-6-7.8c-0.6,0.9-1,1.6-1.4,2.2c-1.5,2.4-2.9,5-4.6,7.3c-2.3,3.2-5.1,5.9-8.7,7.7
		c-2,1-4.1,1.5-6.3,1.2c-2.8-0.3-4.7-2.1-5.1-4.9c-0.1-0.7-0.2-1.5-0.3-2.2c-1.5,0.9-2.8,2-4.4,2.6c-1.5,0.5-3.3,0.6-4.9,0.6
		c-1.7,0-3.3-0.8-4.4-2.1c-1-1.2-1.9-2.6-2.9-4.1c-0.5,1-0.8,1.8-1.2,2.6c-2.6,4.8-5.1,9.6-7.9,14.3c-1.8,3-4.1,5.7-7,7.9
		c-3.8,2.8-8.2,2-10.8-2c-0.5-0.8-0.9-1.7-1.3-2.6c-1.3-3.3-1.2-6.7-0.7-10.2c0.9-6.4,3.2-12.3,5.8-18.2c0.3-0.8,0.6-1.5,1.2-2.7
		c-3.8,1.8-7.2,1.7-10.3,0.4c-3.6,2.5-6.8,4.9-10.3,7c-1.6,1-2.8,2.1-3.4,4c-1.7,4.7-4.9,7.8-9.8,8.9c-3.5,0.8-6.9,0.9-9.1-2.6
		c-4.3,0.6-6.2-0.9-7-5.4c-0.2-1.2-0.3-2.5-0.3-3.8c-0.1-1.3,0-2.7,0-4.4c-0.9,0.8-1.5,1.3-2.1,1.8c-2.9,2.3-5.7,4.7-8.7,6.8
		c-2.2,1.5-4.6,2.8-7,3.5c-4.9,1.4-9.4,0.5-12.7-3.7c-0.2-0.2-0.2-0.6-0.5-1.3c-0.8,1.5-1.3,2.3-1.7,3.2
		c-5.1,9.9-10.5,19.6-17.2,28.5c-2.3,3-4.8,5.8-7.7,8.2c-6.1,4.9-15.5,1.1-16.9-6.4c-0.9-5.2-0.7-10.3,0.3-15.5
		c1.5-7.9,3.8-15.5,6.7-23c4.3-11.2,9-22.2,13.5-33.3c1.9-4.7,3.8-9.3,5.6-14c0.6-1.4,1.2-2.9,1-4.7c-0.6,0.1-1.1,0-1.5,0.3
		c-1.5,0.9-3.2,1.7-4.3,3c-3.3,3.7-6.5,7.5-9.4,11.5c-8.5,12-15.6,24.9-22.6,37.9c-3.3,6-6.6,12.1-10.1,18c-1.3,2.2-3,4.3-4.9,6.1
		c-2.3,2.2-5.5,1.1-6.2-2c-0.2-0.9-0.4-1.9-0.3-2.8c0.2-2.4,0.4-4.8,0.8-7.1c0.2-1.7,0.6-3.4,0.9-5.1c-40,0-79.8,0-119.6,0
		c0,83.3,0,166.5,0,249.9c1.2,0,2.2,0,3.2,0c61.4,0,122.7,0,184.1-0.1c4.7,0,8.6,3.1,8.5,8.4c-0.1,10.4,0.1,20.8,0.3,31.2
		c0.1,7.2,0.2,14.4,0.3,21.6c0.2,10.8,0.5,21.6,0.6,32.4c0.2,11.8,0.2,23.7,0.3,35.5C281.9,704.8,281.9,705.6,281.9,706.7z
		 M458.9,302.2c0.7-0.9,1.2-1.5,1.6-2.2c3.1-5.4,6.4-10.7,9.4-16.2c2.5-4.6,4.6-9.5,5.9-14.6c0.2-0.9,0.4-1.9,0.3-2.8
		c-0.1-0.7-0.5-1.6-1-2c-0.8-0.6-1.7,0-2.3,0.7c-0.8,0.8-1.5,1.7-2,2.6c-1.3,2.5-2.6,4.9-3.7,7.5c-3.4,8.4-5.7,17.1-8.1,25.8
		C458.8,301.3,458.9,301.5,458.9,302.2z M433.2,326.7c-3.3,3.1-5.5,6.4-6.7,10.4c-0.7,2.3-0.5,4.6,0.2,6.8c0.7,2.3,2.4,3.9,4.3,4
		c2.3,0.1,4-1.1,5-3.1c0.6-1.3,1-2.9,1.1-4.4C437.5,335.6,435.6,331.3,433.2,326.7z M403.1,304.4c-2.8-1.1-5.2-0.8-7.3,1.1
		c-5.1,4.5-6.3,10.2-5.1,16.5c0.3,1.8,1.4,2.2,3,1.5c0.8-0.4,1.6-1,2.2-1.8c0.8-1,1.4-2.1,1.9-3.3c1.7-4.1,3.3-8.1,4.9-12.2
		C402.9,305.7,403,305.1,403.1,304.4z M512.1,304.4c-3.4-1.2-5.8-0.3-8,1.8c-4.3,4.1-5.2,9.3-4.6,14.9c0.3,2.9,1.9,3.6,4.2,1.9
		c0.6-0.4,1.1-1,1.5-1.6c0.7-1.1,1.4-2.2,1.9-3.3c1.6-3.8,3-7.5,4.5-11.3C511.9,306,511.9,305.3,512.1,304.4z M329.5,266
		c-1.3,0.7-1.9,1.8-2.3,2.9c-0.8,2.1-1.8,4.3-2.3,6.5c-1.3,6.2-2.3,12.4-3.4,18.6c-0.3,1.7-0.4,3.4-0.6,5c0.2,0,0.3,0.1,0.5,0.1
		c0.4-0.8,0.8-1.5,1.1-2.3c2.1-5.8,4.2-11.5,6.1-17.4c0.9-2.8,1.3-5.7,1.8-8.6C330.5,269.3,330.4,267.7,329.5,266z M353.8,301.8
		c1.5-1.6,2.4-3.3,3.3-5.1c0.9-1.8,1.1-3.7,0.9-5.6c-0.2-1.5-1-2.5-2-2.7c-1-0.2-2.1,0.5-2.7,2C351.8,294.1,351.9,297.9,353.8,301.8
		z M319.8,322.1c3-1.6,5.7-3,8.3-4.4c1.8-1,2-2.8,0.3-4.1c-1.5-1.1-3.8-1.1-5.1,0.3C321.4,316.1,320.4,318.8,319.8,322.1z
		 M287.5,307c1.9,0.3,3.3,0.7,4.8,0.7c2.1,0,3.8-1.1,4.9-3c0.5-0.9,0.8-1.9,0-2.7c-0.6-0.5-1.6-0.9-2.4-0.7
		C291.8,302,289.3,303.5,287.5,307z M469.4,310.5c-3.4,1.3-6,3-8.2,5.5C465.1,316.6,468,314.7,469.4,310.5z"/>
</g>
</svg>
