<?xml version="1.0" encoding="utf-8"?>
<!-- Generator: Adobe Illustrator 23.0.4, SVG Export Plug-In . SVG Version: 6.00 Build 0)  -->
<svg version="1.1" id="Layer_1" xmlns="http://www.w3.org/2000/svg" xmlns:xlink="http://www.w3.org/1999/xlink" x="0px" y="0px"
	 viewBox="0 0 1008 1008" style="enable-background:new 0 0 1008 1008;" xml:space="preserve">
<g>
	<path d="M756.6,854.5c-0.1,1.8,1.1,3,2.1,4.1c2.9,3.3,3.3,7.1,2.4,11.3c-0.3,1.2-0.5,2.5-0.7,3.8c-0.7,4.1-0.1,8,2,11.6
		c0.4,0.7,0.7,1.4,1.1,2.1c2,3.6,3,7.4,2.5,11.5c-0.3,2.7,0.4,4.9,1.9,7.2c2.8,4.2,4.2,9,4.8,13.9c0.4,3.2,0.6,6.4,0.5,9.6
		c-0.2,6.9-0.7,13.7-1.1,20.6c-0.1,1.8-0.5,3.5-1.8,4.8c-3.2,3.3-7.6,4.5-11.7,0.1c-4.1-4.3-8-8.7-12.1-13
		c-16.8-17.4-34.3-34.1-51.9-50.6c-16.8-15.7-33.5-31.7-50.5-47.2c-14.7-13.4-29.9-26.1-44.6-39.3
		c-49.8-44.6-100.4-88.4-150.7-132.4c-2.8-2.4-5.4-5-8-7.6c-2.8-2.7-6.3-3.7-10-4.3c-2.5-0.4-5.1-0.6-7.6-1
		c-1.6-0.3-3.2-0.7-4.6-1.3c-4.7-2.1-6.1-6.4-3.8-11.1c0.2-0.4,0.4-0.9,0.7-1.6c-2.7-0.6-5.4-1.1-7.3-3.2c-0.8-0.9-1.7-2-2.1-3.1
		c-0.5-1.6-0.5-3.4-0.8-5.5c-0.5,0.1-1.2,0.1-1.9,0.2c-2.2,0.6-4.3,1.4-6.4,1.8c-1.9,0.4-3.8,0.6-5.7,0.4
		c-6.5-0.5-10.4-5.3-9.6-11.8c0.3-2.2,1-4.4,1.6-6.5c0.4-1.4,1.1-2.6,1.8-4.2c-0.8-0.5-1.6-1-2.4-1.4c-2.2-1.3-4.6-2.3-6.6-3.8
		c-2.9-2.1-4.5-5-3.8-8.7c0.1-0.5,0-0.9,0-1.7c-1.2,0-2.2,0-3.3,0c-2.4,0-4.8,0.1-7.2-0.1c-1.7-0.2-3.4-0.8-5-1.5
		c-4.7-2.3-5.6-5.5-3.2-10.2c0.1-0.3,0.2-0.6,0.4-1.2c-0.9-0.2-1.8-0.3-2.6-0.7c-1.3-0.6-2.7-1.1-3.8-1.9c-2.9-2.1-4.1-5-3.1-8.4
		c0.8-2.6,2.1-4.9,3.2-7.4c-2.9-1.9-6-4.1-9.4-6.4c-0.7,0.2-1.8,0.6-2.8,0.9c-3,0.9-6.1,2-9.2,2.8c-2.7,0.7-5.4,0.5-8-0.6
		c-3.8-1.5-5.1-4.3-3.4-8c1-2.1,2.4-4.1,3.9-6c1.7-2.1,3.7-4,5.4-5.8c-0.2-1.4-1.2-1.2-1.9-1.2c-4.5-0.2-8.9-0.7-13.2-2
		c-2.1-0.6-4.3-1.5-6-2.8c-3.6-2.6-5.4-6.3-4.9-10.7c-1.4-1.2-2.6-0.1-3.7,0.3c-8.7,2.8-17.4,5.4-26.4,7c-4.1,0.7-8.2,1.1-12.4,1.4
		c-1.7,0.1-3.5-0.2-5.2-0.5c-6.4-1.1-9.8-9-6.8-14.7c1-2,2.4-3.8,3.9-5.4c3.3-3.7,7.4-6.6,11.7-9.2c7.7-4.6,15.6-8.8,23.9-12.3
		c11.3-4.9,22.7-9.6,34-14.4c2.5-1.1,5-2.2,7.4-3.4c0.8-0.4,1.5-1.1,2.2-1.6c-0.4-1.7-1.6-1.8-2.7-1.9c-4.5-0.5-9-0.2-13.4,0.5
		c-13.4,2.2-26.5,5.7-39.6,9.6c-8.4,2.5-16.8,5-25.3,7.5c-2,0.6-4,1-6.1,1.3c-1.2,0.2-2.6,0.3-3.8,0.1c-3.2-0.4-4.6-3.2-2.9-6
		c0.8-1.2,1.8-2.2,2.8-3.3c0.7-0.8,1.6-1.5,2.5-2.5c-3.4-3.4-6.7-6.7-10-9.9c-4.9-4.8-9.8-9.7-14.7-14.5c-2.1-2-3.1-4.4-3-7.3
		c0.1-4.6,0.2-9.3,0.2-13.9c0-7.7,0-15.4,0-23c0.2-45.8,0.4-91.5,0.6-137.3c0.1-12,0.1-24,0.2-36c0.3-55.5,0.5-111,0.8-166.5
		c0-4.2,0.1-8.3,0.1-12.5c0-1,0-1.9,0.1-2.9c0.5-3.4,3.7-6.1,6.5-6.1c1.9,0,3.8-0.1,5.8-0.1c97.9,0,195.8,0,293.7,0
		c97,0,193.9,0,290.9,0c1.8,0,3.5-0.1,5.3,0.1c3.4,0.3,5.7,2.3,6.2,5.6c0.4,2.2,0.5,4.5,0.5,6.7c0,17.4,0,34.9,0,52.3
		c0,16.6-0.2,33.3-0.2,49.9c-0.1,107.5-0.1,215-0.1,322.5c0,90.7-0.1,181.4-0.1,272.1c0,9,0.4,17.9,0.6,26.9
		c0.2,6.1,0.4,12.2-0.7,18.2c-1.5,8.1-4.9,15.2-10.9,20.9c-2.8,2.7-6.1,4.6-10.2,4.7c-3.3,0.1-6.3-0.7-9-2.8
		c-1.6-1.3-3.2-2.7-4.7-4.1c-3.1-2.8-6.6-4.6-10.7-5c-4.3-0.4-8.6-0.8-12.9-0.9c-5.5-0.1-7.8,2-9.2,7.2c-0.6,2.1-0.2,3.8,1.1,5.4
		c0.7,0.9,1.5,1.7,2.2,2.6c2,2.5,3.6,5.3,4.4,8.4c1.3,4.6,1,8.9-3.2,12.1c-0.4,0.3-0.7,0.7-1,1C756.8,854.2,756.7,854.4,756.6,854.5
		z M806.1,65.6c-2.4-1.1-4.6-0.6-6.8-0.6c-188.2,0-376.3,0-564.5,0c-1.4,0-2.9-0.1-4.3,0c-0.9,0.1-1.8,0.4-2.8,0.6
		c-0.1,2.1-0.1,4-0.2,5.9c-0.2,46.2-0.4,92.5-0.6,138.7c-0.1,13.9-0.1,27.8-0.2,41.8c-0.2,42.9-0.5,85.7-0.7,128.6
		c0,1.1,0,2.2,0,3.4c-0.1,19.7-0.1,39.4-0.2,59c0,2.2,0.6,3.9,2.3,5.5c6.3,6.1,12.6,12.3,18.9,18.5c1.6,1.5,3.2,3.1,4.6,4.5
		c0.5-0.1,0.7,0,0.8-0.1c12.5-7.2,24.9-14.4,35.7-24.1c1.2-1.1,2.5-2,3.9-2.7c2.3-1.2,4.5,0.1,5,2.6c0.4,2,0.1,3.9-1.2,5.4
		c-2,2.5-3.9,5.1-6.3,7.2c-3.9,3.3-8,6.4-12.3,9.2c-4.8,3.2-9.9,5.9-14.8,8.8c-1.3,0.8-2.7,1.6-4,2.5c1.4,0.2,2.6,0,3.8-0.4
		c10.2-3.4,20.5-6.3,30.9-8.6c8.9-1.9,17.9-3.6,27.1-3.3c2.7,0.1,5.4,0.5,8.1,1.1c2.2,0.5,4.2,1.6,5.7,3.3c2.1,2.3,2.4,4.7,0.9,7.5
		c-1.4,2.4-3.3,4.4-5.6,5.9c-3.7,2.5-7.4,5-11.4,7c-7.4,3.8-15,7.2-22.5,10.7c-9.6,4.5-19.2,8.7-28.7,13.3
		c-3.7,1.8-7.2,4.1-10.7,6.4c-1.4,0.9-2.6,2.3-3.6,3.7c-1.2,1.6-0.3,3.3,1.7,3.4c2.5,0.1,5.1,0,7.6-0.4c12.7-2.1,24.9-5.7,37.1-9.6
		c2.3-0.7,4.4-1.7,6.2-3.4c2.2-2.1,5-3.4,8-4.3c7.9-2.3,16.3,2.1,18.8,9.8c1.7,5.3-1,9.3-6.6,9.6c-1.1,0.1-2.2-0.1-3.3-0.4
		c-2.9-0.7-5.2-2.5-7.2-4.6c-0.8-0.9-1.7-1.8-2.6-2.6c-2.4,1.2-4.3,2.7-5.8,4.6c-2.4,3-1.8,5.8,1.6,7.4c1.7,0.8,3.6,1.3,5.5,1.7
		c5.5,1.2,11.1,0.8,16.7,0.9c1.1,0,2.3-0.1,3.3,0.1c2.5,0.5,4,3.2,3,5.5c-0.6,1.4-1.6,2.7-2.7,3.9c-2.2,2.5-4.7,4.8-6.9,7.3
		c-0.8,0.9-1.4,2-2.6,3.6c5-0.6,8.8-2.1,12.5-3.6c0.2-0.7,0.3-1.1,0.4-1.6c1-6.6,5.6-9.7,11.4-11.6c0.7-0.2,1.6-0.3,2.4-0.3
		c4.1,0.3,6.4,4.4,4.3,8c-0.7,1.2-1.7,2.4-2.8,3.2c-1.5,1.2-3.3,2-4.9,3c-1,0.6-2.5,0.8-2.8,2.4c0.6,1.6,2,2.4,3.5,3
		c2.9,1.3,5.8,1,8.9,0c7-2.3,13.2-0.4,18.8,4.2c1.2,1,2.3,2.3,3.1,3.6c2.1,3.5,1.6,7.2-1.4,10c-1.5,1.4-3.4,2.4-5.2,3.4
		c-2.4,1.4-4.9,2.5-7.2,3.9c-1.6,1-3.1,2.3-4.4,3.6c-1.1,1.1-0.8,2.6,0.7,3c1.5,0.4,3.1,0.8,4.7,0.8c5.3-0.2,10.5-0.9,15.4-3.1
		c3-1.3,6-2,9.3-1.8c3.1,0.2,5.5,1.3,7.3,3.9c0.5,0.7,1.1,1.4,1.8,2.2c1.5-1.1,2.7-2.2,4-3.1c3.4-2.4,6.8-4.8,10.3-7
		c4-2.5,8.2-4.3,12.9-5c2.2-0.3,4.5-0.5,6.7-0.1c4.8,0.8,7.3,4.8,6.3,9.6c-0.7,3.4-2.5,6.2-4.9,8.6c-2.6,2.6-5.6,4.8-8.9,6.5
		c-8.8,4.7-18.2,8-28.2,8.8c-3.7,0.3-5.9,1.8-7.4,4.9c-0.7,1.4-1.6,2.8-2,4.3c-0.5,1.8-0.7,3.8-0.6,5.7c0.1,2.2,1.2,3.3,3.3,3.4
		c2.2,0.1,4.5,0,6.6-0.7c3.9-1.3,7.7-3,11.5-4.7c2.2-1,4.2-2.3,6.4-3.3c7.5-3.4,16.4-1.8,22.1,4c1.2,1.2,2.2,2.7,2.9,4.3
		c1.4,3.2,0.5,6.4-2.1,8.7c-1,0.8-2.1,1.5-3.2,2.1c-2.5,1.4-5.1,2.7-7.6,4.2c-1.9,1.2-3.7,2.5-5.4,3.9c-0.6,0.5-1.1,1.2-0.4,2.4
		c1.2,0.1,2.6,0.3,4,0.2c5.4-0.1,10.9-0.3,16.3-0.5c4.4-0.2,8.2,0.7,11.3,4.2c0.9,1.1,2.1,1.9,3.2,2.9
		c38.4,33.6,76.8,67.2,115.2,100.8c24.7,21.6,48.5,44.1,73.8,65.1c0.2,0.2,0.5,0.4,0.7,0.6c22.6,20.8,45.3,41.5,67.6,62.6
		c13.6,12.8,26.7,26.3,40,39.4c1.1,1,1.9,2.5,4,3c0.2-6.7,0-12.8-3.9-18.2c-2.8-3.8-3.9-8-3.5-12.7c0.2-2.8-0.3-5.4-1.8-7.8
		c-3.8-6-4.8-12.6-3.7-19.4c0.6-4,0.1-7.2-2-10.8c-3.4-6-3.2-12.2,1.1-18c0.4-0.5,0.7-1.1,1.1-1.8c-1.4-1.7-2.7-3.5-4.2-5.2
		c-2.1-2.4-3.1-5.2-3.3-8.3c-0.4-6.6,1.3-12.7,5-18.2c3.2-4.8,7.7-7.5,13.4-8.2c7.1-0.9,14.1-0.5,21,0.5c6.6,1,12.6,3.4,17.7,7.9
		c1.2,1,2.5,1.9,3.8,2.9c3.7-2.5,5.2-6.1,6.3-10c1-3.4,1.2-6.9,1.1-10.5c-0.2-9.1-0.5-18.2-0.5-27.3c0-184.8,0-369.6,0-554.4
		c0-11.4,0.2-22.7,0.2-34.1c0.1-36,0.1-72,0.1-108C806.4,68.4,806.2,67,806.1,65.6z M398.7,609.6c0.7,0,1.2,0.2,1.7,0.1
		c8.5-1.5,16.7-4.4,24.1-8.7c3-1.8,5.7-4.1,8.3-6.3c1.2-1,2-2.4,2.8-3.8c1.1-2.2,0-3.9-2.4-3.8c-0.9,0-1.9,0.2-2.8,0.5
		c-2.2,0.8-4.5,1.6-6.6,2.7c-9.2,4.6-17.1,11-24.5,18C399.1,608.5,399,608.9,398.7,609.6z M427.7,630.1c-1.8,0.3-3.4,0.5-4.9,0.9
		c-4.1,1.3-7.2,4-9.5,7.5c-0.8,1.2-0.3,2.6,1.1,3.1c1.2,0.5,2.5,0.6,3.7,0.2c4.4-1.7,8.9-3.4,13.2-5.3c2.3-1,2.1-4.2-0.2-5.3
		C430,630.6,428.7,630.4,427.7,630.1z M366.5,569.6c-6.9,0.3-11.2,3.5-14.5,8.4c-0.8,1.2-0.2,2.5,1.2,3c1.9,0.7,3.8,0.3,5.6-0.4
		c3.6-1.4,7.1-2.9,10.6-4.5c2.3-1.1,2.6-2.7,1-4.6C369.1,570.2,367.6,569.5,366.5,569.6z M388.6,608.2c2-2.8,4.6-5.2,6.2-8.5
		c-0.8-0.7-1.4-1.5-2.2-1.8c-3.6-1.3-9.8,0.7-12.1,3.7c-0.9,1.2-0.8,2.8,0.6,3.8C383.2,607,385.6,608.1,388.6,608.2z M316.8,522
		c1.1,1.5,1.7,2.7,2.6,3.5c1.4,1.4,3.3,2.1,5.3,1.5c0.8-0.2,1.6-1,2-1.8c0.5-1-0.2-1.9-1.1-2.4C323.1,521.3,320.4,520.6,316.8,522z
		 M346.5,551.2c1-0.2,1.7-0.4,2-1.7C347.5,549.6,346.8,549.9,346.5,551.2z"/>
</g>
</svg>
