<?xml version="1.0" encoding="utf-8"?>
<!-- Generator: Adobe Illustrator 23.0.4, SVG Export Plug-In . SVG Version: 6.00 Build 0)  -->
<svg version="1.1" id="Layer_1" xmlns="http://www.w3.org/2000/svg" xmlns:xlink="http://www.w3.org/1999/xlink" x="0px" y="0px"
	 viewBox="0 0 1008 1008" style="enable-background:new 0 0 1008 1008;" xml:space="preserve">
<g>
	<path d="M681.8,801.7c2.6,0.8,4.9,1.4,7.2,2.2c8.5,3,15.8,7.7,21.5,14.7c1.5,1.8,2.7,3.8,3.9,5.7c2,3.1,2.2,6.5,0.8,9.9
		c-1.1,2.7-2.3,5.4-3.8,8c-1.8,3.1-3.7,6.2-5.8,9.1c-5.9,8.3-11.3,16.9-16.6,25.5c-3.3,5.4-6.9,10.6-10.5,15.8
		c-0.8,1.2-2.1,2.3-3.4,3c-3,1.6-6.2,1-8.6-1.3c-4.3-4.1-9.5-5.4-15.3-4.5c-2.4,0.4-4.6,1.6-6.1,3.5c-1.5,1.9-2.8,3.9-4,5.9
		c-1.2,2-2.3,4-3.6,6c-3.4,5.1-8.2,7-14.1,5.9c-2.8-0.5-5.7-1.1-8.4-2c-5.6-1.8-9.1,0-11.3,5.9c-1.2,3.3-1.4,6.9-1.5,10.4
		c0,1.3-0.2,2.7-0.6,4c-0.4,1.6-1.5,2.8-2.9,3.7c-5.8,3.4-11.6,6.7-17.4,10.1c-3.9,2.2-7.9,4.2-12.3,5.2c-6.2,1.4-12.4,1.4-18.6,0.6
		c-12.4-1.6-24.8-2.2-37.3-2.6c-15.1-0.5-30.2-1.2-45.3-1.8c-8.8-0.4-17.6-0.7-26.4-1.1c-18.5-0.8-37.1-1.5-55.6-2.3
		c-10.4-0.4-20.8-0.8-31.2-1.1c-18.6-0.6-37.2-1.2-55.9-1.9c-2-0.1-4,0-6-0.2c-3.5-0.4-6.7-1.7-9.3-4.1c-3.3-2.9-6.3-6.1-9.4-9.3
		c-0.4-0.4-0.8-1-1-1.6c-0.9-2.5-2.7-4.3-4.3-6.2c-6.9-8-11.2-17.1-10.6-28c0.2-3.7,1-7.3,3.4-10.3c1.6-2,2.2-4.4,2.5-6.9
		c0.2-2.6,0.5-5.2,0.8-7.9c0.4-4.2,2.5-7.3,5.9-9.8c1.8-1.3,3.5-2.6,5.1-4c1.3-1.1,2.5-2.4,3.8-3.6c3.1-2.9,4.3-6.1,2.6-10.3
		c-0.7-1.7-0.8-3.6-1-5.4c-0.3-2.8,0.2-5.4,1.4-7.9c0.6-1.2,1.1-2.5,1.8-3.7c2.5-4.6,3.1-9.3,1.9-14.4c-0.7-3.1-1.4-6.2-1.8-9.4
		c-0.5-3.3-0.3-6.6,0.9-9.7c1.7-4.2,2.1-8.7,2.6-13.1c0.4-3.2,0.9-6.3,1.4-9.5c0.6-3.2,1.7-6.2,3.5-8.9c2.1-3.1,2.9-6.5,2.8-10.2
		c-0.1-2.1,0-4.2,0-6.2c0-2.8-0.8-5.4-2.8-7.4c-2.3-2.2-2.9-4.9-2-7.9c1.3-4.4,2.7-8.9,4.3-13.2c1.9-5.3,4-10.6,5-16.2
		c0.9-4.9,0.7-9.7,0.2-14.6c-0.4-4.1-0.7-8.3-0.8-12.4c-0.1-3.7,0.8-7.3,2.4-10.7c1.6-3.5,4.1-6,7.9-7.1c3.1-0.9,3.5-1.5,3.6-4.7
		c0-0.9,0.1-1.8,0-2.6c0-2.9,0.7-5.6,2.7-7.8c3.9-4.3,5.4-9.5,6.1-15.1c0.3-2.5,0.8-4.9,1.3-7.3c1.4-7.5,5.4-13.2,11.6-17.5
		c1.5-1,3.1-2,4.7-2.9c5-3,7-7.5,6.6-13.2c-0.1-2.4-0.3-4.8-0.5-7.2c-0.5-6.8,1.9-12.5,6.9-17.2c0.9-0.9,1.9-1.7,2.9-2.5
		c3-2.3,4.5-5.3,4.8-9c0.3-4.1,1.3-7.9,5.2-10.4c-1.1-3.7-1.4-7.4-1.4-11.2c0-10,3.5-18.2,11.4-24.5c2-1.6,3.8-3.4,5.7-5.1
		c-0.4-0.8-0.7-1.3-1-1.9c-3.1-5.9-2.8-11.5,1.1-16.9c0.7-1,1.5-1.9,2.3-2.8c0.8-0.9,1-1.9,0.6-3.1c-1.4-4.5-2.2-9.2-2.4-13.9
		c0-0.6-0.1-1.1,0-1.7c0.5-5.6,0-11.1-0.9-16.7c-1.9-11.9,2.1-21.6,11.6-28.9c9.1-7,19.4-9.7,30.7-7.1c2.5,0.6,4.8,1.7,7.4,2.6
		c0.3-0.5,0.8-1.3,1.3-2c3.1-5,6.3-9.8,10.4-14.1c3.8-4.1,8.3-7.3,13.5-9.3c2.6-1,5.2-2.1,7.7-3.3c3.5-1.6,6.2-4.1,7.9-7.7
		c0.9-2,2-4,3-6c3.3-6.9,9-10.1,16.5-10.5c0.5,0,1-0.1,1.4-0.1c0.1,0,0.1-0.1,0.4-0.1c0.2-2.1,0.4-4.3,0.6-6.6
		c0-0.6-0.4-1.1-0.6-1.7c-0.1-0.1-0.2-0.2-0.3-0.3c-5.2-4.5-4.6-12.1,1.5-16.1c1.6-1.1,3.5-1.9,5.2-2.8c-0.5-4.4-1-8.8-1.4-13.1
		c-0.3-3-1.7-5-4.9-5.7c-2.8-0.7-4.6-2.6-5.1-5.4c-0.4-2-0.6-4.1-0.8-6.2c-0.1-0.8-0.1-1.6-0.1-2.4c-0.1-4-1.3-7.5-4.3-10.3
		c-2.9-2.8-4-6.4-2.9-10.3c0.5-1.6,1.4-3.2,2.5-4.6c1.1-1.5,2.5-2.6,3.9-3.9c1.3-1.2,2.6-2.4,3.8-3.7c1.8-1.9,3.1-4.1,3.5-6.7
		c0.5-2.8,1.6-5.2,3.8-7c1.9-1.6,2.5-3.5,2.2-5.9c-0.5-4.9,0.6-9.4,3.9-13.2c1.4-1.5,3-2.8,4.7-4.1c1.3-1,2.7-1.9,4.1-2.9
		c-0.2-0.7-0.3-1.2-0.5-1.6c-0.9-1.9-1.4-4-1-6.1c0.5-3.5-0.8-6.2-3.3-8.5c-3-2.7-4.4-6.2-4.4-10.3c0-5.5,3.2-10,8.4-11.9
		c1-0.3,2-0.7,3-1c-0.4-2.5-0.8-4.9-1-7.4c-0.6-5.3,0-10.4,1.9-15.3c1.9-4.8,5-8.7,9.3-11.6c1.3-0.8,2.5-1.7,3.9-2.6
		c-0.1-0.6-0.2-1.1-0.3-1.6c-0.9-3.4-0.4-6.7,0.7-9.9c1-2.9,2.2-5.8,3.4-8.7c1.8-4.3,1.2-6.1-2.9-8.3c-0.9-0.5-1.9-0.9-2.8-1.4
		c-1.9-1.1-3-2.8-2.8-4.9c0.1-1.6,0.4-3.2,1-4.6c0.8-2,2.4-3.5,4.7-3.7c3.8-0.3,7.6-0.3,11.5-0.5c1.2,0,2.4,0.1,3.6,0.1
		c1.7-0.1,2.5-0.7,2.9-2.3c0.4-1.5,0.6-3,1-4.4c0.5-1.9,1.5-3.5,3.2-4.3c3-1.4,5.5-3.5,8.1-5.5c3.1-2.4,6.6-3.6,10.5-3.1
		c2.8,0.4,5.4,1.5,7.7,3.1c5.1,3.5,9.6,7.7,13.6,12.3c2.2,0.1,4.3,0.2,6.4,0.4c2.4,0.3,4-0.7,5.1-2.8c0.8-1.5,1.5-3,2.2-4.5
		c1.6-3.3,3.7-6.2,6.5-8.5c5-4.2,10.2-4.2,15.2-0.2c4.3,3.5,6.3,8.2,6.7,13.6c0.3,3.5,0.2,7,0.2,10.5c0,3.9,0,7.8,0,11.9
		c4.6,1,9,2.1,13.3,3c8.9,1.9,17.9,3.4,27.1,3.5c1.3,0,2.7,0.3,4,0.7c2.3,0.8,3,2.9,1.8,5.1c-1,1.8-2.6,2.8-4.6,3.2
		c-3.9,0.8-7.7,1-11.7,0.7c-9.5-0.7-18.8-3-28-5.3c-2.3-0.6-4.6-1.1-7-1.3c0.8,0.4,1.5,0.8,2.3,1.1c11.3,5.3,22.4,11,33,17.6
		c6.7,4.2,13.1,8.6,18.6,14.3c1.9,2,3.5,4.3,5,6.7c1.1,1.7,1.4,3.7,1.3,5.8c-0.2,2.5-1.4,4.2-3.8,5c-2.4,0.8-4.8,0.9-7.3,0.7
		c-6.5-0.6-12.8-2.2-18.9-4.3c-11.6-3.9-23.1-8.1-34.7-11.9c-6.4-2.1-13-4-19.5-5.8c-1.8-0.5-3.8-0.6-5.7-0.8
		c-0.7-0.1-1.4,0-2.2,0.1c-1.2,0.2-2.5,0.5-2.9,1.8c-0.4,1.2,0.5,2,1.2,2.7c1,1,2.1,2,3.3,2.8c3.3,2.2,6.6,4.6,10.1,6.5
		c8.6,4.7,17.3,9.1,25.9,13.6c1.2,0.6,2.3,0.9,3.7,0.9c3.3-0.1,6.3,0.7,9.3,2.2c6.8,3.3,10,11.1,7.4,18.2c-0.3,1-0.8,1.9-1.4,2.8
		c-2.2,3.2-5.8,3.9-9,1.7c-2.8-1.9-4.5-4.6-4.8-7.9c-0.2-2.2,0-4.4,0-6.9c-3-0.7-5.9-1.3-8.9-0.3c-2.3,0.8-3.3,2.6-2.6,4.9
		c0.5,1.7,1.3,3.3,2.3,4.7c1.5,2.2,3.2,4.2,5,6.1c2.6,2.7,5.4,5.2,8.2,7.7c1.6,1.5,2.1,3.1,1.3,4.9c-0.7,1.5-2.4,2.4-4.4,2.2
		c-3.3-0.3-6.7-0.7-10-1c-1.6-0.1-3.3,0-5.4,0.1c1,1.8,2.3,2.6,3.7,3.1c2.6,0.8,5.2,1.6,7.8,2.3c1.6,0.5,3.3,0.8,4.9,1.3
		c2,0.7,2.9,2.2,2.6,4.3c-0.3,2-1.3,3-3.6,3.1c-2.1,0-4.2-0.1-6.2-0.2c-3.4-0.1-6.7-0.3-10.1-0.3c-1.9,0-3.8,0.4-5.2,2
		c0.1,1.3,1,2.1,2,2.6c1.6,0.9,3.2,1.8,4.9,2.4c2.9,1,6,1.7,9,2.7c1.1,0.4,1.9,0.2,2.8-0.7c3.1-3.2,7.1-4.2,11.4-3.8
		c2.9,0.3,5.2,1.6,7,3.8c1.7,2.1,1.2,4.3-1,5.7c-1.7,1-3.5,1.5-5.5,1.5c-2.4,0-4.8-0.1-7.2-0.3c-3.1-0.3-4.1,0.8-2.9,3.7
		c0.4,0.9,0.9,1.9,1.6,2.6c1,1.1,2.1,2.2,3.3,3.1c2.3,1.7,4.7,3.4,7.2,4.8c6.7,3.7,10.9,9.4,13.9,16.3c2.3,5.3,3.5,10.9,4.5,16.7
		c0.3,0.2,0.7,0.4,1,0.5c9,3.4,15.5,9.7,20.2,17.9c2.2,3.8,3.2,8,3,12.4c-0.2,4.5-2.1,8-5.9,10.4c-3.3,2.1-7.1,2.9-11,3.1
		c-6.8,0.4-13.4-0.7-20-2.1c-2.8-0.6-5.6-1.3-8.4-2c-0.6-0.1-1.2-0.2-2.2-0.4c0.4,0.7,0.6,1.2,0.9,1.5c2.5,3.2,5.1,6.4,7.6,9.6
		c1.4,1.8,3.2,2.9,5.3,3.5c3.9,1.2,7.8,2.5,11.6,3.8c4.2,1.4,8.2,3.2,11.9,5.7c1.4,1,2.9,2.1,4,3.4c2.1,2.5,1.5,4.7-1.2,6.4
		c-2.8,1.7-5.8,2-8.8,1.1c-2.3-0.7-4.7-1.6-6.8-2.9c-3.3-2-6.4-4.3-9.4-6.7c-3.2-2.6-6.7-4.6-10.7-5.7c-6.8-1.9-13.4-4.2-20.4-5.3
		c-2.4-0.4-4.8-0.7-7.2-0.6c-1.5,0-3.2,0.4-4.6,1c-1.5,0.6-1.9,1.9-1.3,3.4c0.5,1.1,1.2,2.3,2.1,3.1c2.3,2.1,4.6,4.2,7.1,6
		c5.9,4.3,12.3,7.8,18.7,11.2c0.8,0.4,1.8,0.7,2.7,1.1c7.5,3,12.5,11.2,11.6,19.2c-0.5,5-3.4,8-9.2,7.3c-2.6-0.3-5.1-1.2-7.7-1.8
		c-2.6-0.6-5.3-1.2-8-1.6c-1.3-0.2-3-0.5-3.7,0.9c-0.8,1.5,0.5,2.8,1.5,3.8c2.2,2.1,4.5,4.1,7,5.8c2.7,1.8,5.4,3.7,8.6,4.8
		c2,0.6,2.9,3.7,2,6c-0.7,1.8-2.2,2.5-4.6,1.9c-2.6-0.7-5.1-1.2-7.8-1.2c-0.4,0-0.7,0.1-1.2,0.5c0.8,0.3,1.7,0.7,2.5,1
		c4.9,1.6,9.9,3.2,14.8,4.9c1.2,0.4,2.4,0.9,3.5,1.6c2.3,1.4,2.3,4,0.1,5.5c-1,0.6-2.2,1-3.4,1.1c-3,0.2-6.1,0.2-9.1,0.3
		c-0.8,0-1.6,0-2.6,0c0.7,0.9,1.4,0.9,2.1,1.1c4.8,1.3,9.6,2.4,14.3,3.9c3.3,1,6.6,2.5,9.8,3.9c1,0.4,2,1.1,2.8,1.8
		c2.9,2.2,3.8,4.8,2.8,8.2c-0.8,2.9-2.8,4.4-6.5,4.8c-3.1,0.3-6.1,0-9-0.7c-6.3-1.6-12.5-3.2-18.8-4.8c-2-0.5-4.1-0.7-6.2-0.9
		c-0.9-0.1-1.9,0-2.8,0c-0.1,0.2-0.2,0.4-0.3,0.6c0.6,0.6,1.1,1.3,1.7,1.7c5,3,10.1,5.9,15.1,8.8c0.4,0.3,1.1,0.2,1.6,0.3
		c2.1,0.1,2.7,0.5,3,2c0.4,2-0.5,3.8-2.1,4.3c-1.2,0.4-2.5,0.4-3.8,0.6c-0.3,0-0.6,0.1-1.3,0.2c1,0.6,1.6,0.9,2.3,1.3
		c3.2,1.8,6.2,4,8.7,6.7c1.8,1.9,3.3,4.1,3.9,6.8c0.8,3.2,0,5.9-2.7,7.9c-1.5,1.1-3.2,1.9-4.8,2.6c-1.9,0.9-2.1,1.2-1.5,3.3
		c0.1,0.4,0.2,0.8,0.4,1.1c0.7,1.7,0.8,1.8,2.6,1.4c3-0.7,6-0.5,9,0.4c5.1,1.6,7.8,6.7,6.3,11.8c-1.1,3.7-4.7,5.3-7.9,3.5
		c-1.9-1.1-2-2.3-0.2-3.6c0.5-0.3,1.1-1,1-1.3c-0.1-0.5-0.7-1-1.3-1.2c-0.7-0.2-1.6-0.2-2.4-0.2c-2.3,0.3-4.5,1.2-6.5,2.4
		c-2.4,1.5-4.8,3.2-7,5.3c1,1.2,1.9,2.3,2.8,3.4c1.1,1.3,2.3,2.5,3.2,3.9c1,1.7,2.4,2.1,4.1,2.4c9.6,1.5,19,3.6,28.1,6.8
		c4.1,1.5,8.2,3.2,11.8,5.7c1.5,1,3,2.2,4.1,3.6c0.9,1.2,1.6,2.8,1.8,4.3c0.5,3.3-1.4,5.7-4.8,5.8c-2.6,0.1-5.3-0.2-7.8-0.7
		c-5.4-1-10.4-3-15.4-5.3c-8-3.6-15.9-7.5-23.8-11.3c-2.5-1.2-6.4-2.2-9.8-2.2c0.7,0.5,1.1,0.9,1.6,1.2c3.4,2.5,6.9,4.9,10.3,7.5
		c1.1,0.9,2.1,2,2.8,3.2c1.2,2.1,0.4,3.8-2,4.2c-1.3,0.2-2.7,0.2-4.1,0.2c-7.2-0.2-14.4-0.5-21.6-0.7c-2.7,0-5.4,0.3-8.1,0.6
		c-1.1,0.1-2.2,0.6-3.9,1.1c1.2,1.1,1.8,1.9,2.6,2.4c2,1.2,4,2.4,6.1,3.3c6.4,2.9,13,5.4,19.8,7.1c2.2,0.6,4.5,0.9,6.8,1.4
		c1.5,0.3,3,0.8,4.3,1.4c1.8,0.9,2.4,2.6,1.9,4.4c-0.4,1.5-1.3,2.3-2.9,2.4c-1.1,0-2.2-0.2-3.3-0.3c-2.4-0.3-4.7-0.8-7.1-1
		c-1.4-0.1-2.9,0-4.3,0.3c-1.8,0.4-2.5,1.3-2,3.1c0.3,1.3,0.9,2.6,1.7,3.6c0.9,1.3,2.1,2.5,3.3,3.4c3.7,2.7,7.5,5.3,11.3,8
		c3.9-2.8,8.2-3.8,12.6-4.5c3.1-0.5,6.2-0.1,9.2,1.1c3.4,1.4,5.3,4.1,5.9,7.6c0.8,5.1-3,9.5-8.5,9.7c-2,0.1-4.1-0.4-6.1-1.1
		c-2.1-0.7-4-2-6-3c-0.7-0.4-1.4-0.7-2.2-1.2c-0.1,1.6,0.6,2.7,1.1,3.8c0.8,1.6,1.3,3.2,1.2,5.1c-0.3,3.7-2.7,5.4-6.3,4.2
		c-7.1-2.4-14.2-4.8-21.4-7c-2.3-0.7-4.8-1.1-7.3-1.4c-1.1-0.2-2.2,0.1-3.4,0.2c0.2,1.9,1,3,2.1,3.9c1.6,1.3,3.2,2.6,5,3.7
		c5.4,3.4,11.2,6.2,17.1,8.7c3.2,1.3,6.3,2.5,9.8,3c7.7,1.1,12.6,5.9,13.7,13.1c0.6,3.7-0.2,7.2-2.5,10.2c-2,2.5-4.6,3.2-7.5,1.8
		c-3.5-1.7-5.4-4.6-6-8.4c-0.2-1.6-0.1-3.2-0.1-4.8c0-0.7,0.1-1.4,0.1-2.3c-2.7-0.7-5.2-0.9-7.9-0.6c-1.1,0.1-1.7,0.8-1.8,1.9
		c-0.2,1.7,0,3.4,0.8,4.9c1.2,2,2.5,4.1,4.1,5.9c1.7,2,3.7,3.7,5.5,5.7c2,2.1,3.9,4.2,5.7,6.5c1.7,2.1,1.8,4.7,2.2,7.3
		c1,7-0.2,13.7-2.2,20.3c-1.8,6.1-3.8,12.2-5.7,18.3c-1.3,4.3-2.1,8.7-2.3,13.2c-0.2,5.2,0.9,10.1,3.9,14.3c2.3,3.3,4.9,6.5,7.6,9.5
		c3.8,4.3,7.9,8.4,11.7,12.7c4.2,4.7,7.8,9.7,10.6,15.4c4.3,8.7,4.6,17.5,0.3,26.3c-0.9,1.9-1.7,3.8-2.5,5.7
		C682.5,799.4,682.2,800.5,681.8,801.7z M669,877.3c3.6-2.3,5.8-5.6,7.8-9c5.2-8.7,10.7-17.3,16.7-25.5c2.3-3.2,4.2-6.8,6.2-10.2
		c0.8-1.3,0.7-2.4-0.3-3.7c-4.4-5.5-9.8-9.3-16.7-11.1c-2.4-0.6-4.8-1.2-7.2-2c-5.7-2-8.9-6.6-8.8-12.6c0-3.1,1-6,2.1-8.8
		c1-2.7,2.1-5.3,3.2-8c2.1-5.4,1.7-10.5-1.5-15.3c-1.4-2.1-2.6-4.2-4.2-6.1c-2.6-3.2-5.3-6.2-8.1-9.2c-4.3-4.8-8.8-9.3-12.9-14.2
		c-6-7.4-8.8-16-9-25.5c-0.2-7.4,1.3-14.5,3.7-21.4c1.4-4.2,2.9-8.3,4.3-12.5c2.9-8.1,2.9-16.2,0.9-24.5c-1.3-5.5-3.1-10.7-5.5-15.8
		c-1-2-1.9-4.1-2.5-6.2c-1.3-4.9,0.6-9.5,4.9-12.2c0.4-0.3,0.9-0.6,1.5-1c-1.1-0.5-2-0.9-2.8-1.2c-5.9-2.5-11.7-5.1-17-8.9
		c-2.1-1.5-4.2-3.3-5.9-5.2c-3-3.4-2.3-7.9,1.4-10.4c1.2-0.8,2.7-1.5,4.1-1.9c3.1-1,6.3-0.7,9.5-0.3c5.8,0.8,11.2,2.8,16.5,4.9
		c0.7,0.3,1.4,0.5,1.9,0.7c-0.4-2.8-0.7-5.3-1.1-8.2c-0.5-0.2-1.3-0.6-2-1c-5.7-3-10.9-6.7-14.9-11.8c-1.5-1.9-2.5-4.1-2.9-6.5
		c-0.6-2.8,0.1-5.2,2.4-7.1c0.4-0.3,0.8-0.7,1.4-1.2c-1.8-0.6-3.2-1.2-4.7-1.7c-4.6-1.7-9.2-3.6-13.4-6.4c-2-1.3-3.9-2.9-5.3-4.8
		c-2.8-3.5-1.9-6.8,2.1-8.8c1.3-0.7,2.8-1.2,4.3-1.6c5.4-1.3,10.9-1.7,16.4-1.2c3.9,0.4,7.7,0.9,12,1.4c-1-0.6-1.6-1.1-2.3-1.5
		c-3.6-2.2-7.2-4.5-10.8-6.8c-1.1-0.7-2.2-1.6-3.1-2.7c-1.6-1.8-1.3-4.1,0.8-5.3c1.2-0.7,2.7-1.1,4.1-1.2c3.2-0.1,6.4,0,9.6,0.1
		c0.5,0,1-0.1,1.8-0.1c-1.2-1.6-2.2-3-3.3-4.3c-1.6-2-1.6-2-3.7-0.8c-4.9,2.7-10.1,4.3-15.7,4.9c-7.5,0.8-12.9-3.2-14.2-10.7
		c-1-5.6,1.9-10.5,7.2-12.2c4.3-1.4,8.6-1.4,12.6,0.8c2.9,1.6,5.6,3.6,8.4,5.5c0.6,0.4,1.1,0.8,1.8,1.3c2.8-2.3,5.5-4.5,8.1-6.6
		c-1.1-2.1-2.2-4-3-6c-0.9-2.3-2.3-3.7-4.7-4.6c-4.6-1.6-8.4-4.7-11-8.9c-2-3.3-2.8-6.8-1.7-10.6c0.3-1.1,0.7-2.2,1.1-3.6
		c-5.3-0.5-10.4-0.9-15.5-1.3c-3.7-0.3-7.3-0.6-11-0.9c-1.7-0.2-3.3-0.7-4.4-2.1c-1.6-1.9-1-4.4,1.4-5.3c0.9-0.3,1.9-0.4,2.8-0.4
		c3.5,0.2,7,0.5,10.5,0.8c8.3,0.9,16.5,2.3,24.8,2.2c1,0,2-0.1,3-0.1c-0.1-0.4-0.2-0.4-0.2-0.5c-0.6-0.3-1.3-0.7-1.9-1
		c-4.5-2.3-8.9-4.9-12.3-8.7c-1.3-1.4-2.4-3.2-3.2-5c-1-2.3-0.1-4.3,2.2-5.4c1.3-0.6,2.9-1.1,4.4-1c4.6,0.4,9.2,0.9,13.8,1.6
		c7,1,13.9,2.3,20.8,3.3c1.2,0.2,2.4,0,3.6,0c-1.2-1-2.5-1.7-3.8-2.1c-4.6-1.5-9.3-2.9-13.9-4.4c-4.2-1.3-8.4-2.5-12.6-3.9
		c-2-0.6-3.8-1.7-5.1-3.4c-1.7-2.1-1.1-4.6,1.4-5.8c0.6-0.3,1.2-0.5,1.8-0.5c1.9-0.1,3.8-0.1,5.7-0.1c1.3,0,2.5,0,3.8,0
		c-1.6-1-3.2-1.6-4.8-2.3c-3.1-1.2-6.3-2.4-9.3-3.8c-1.7-0.7-3.1-1.9-3.9-3.7c-1.1-2.6,0.1-4.9,2.8-5.5c1.1-0.2,2.2-0.2,3.3-0.2
		c1.6,0,3.3,0,4.9,0c-0.5-0.8-1.1-1.2-1.7-1.6c-3.1-2-5.8-4.5-7.9-7.6c-1.2-1.8-1.8-3.7-2-5.8c-0.3-3.3,1.8-6,5.1-6.4
		c0.5-0.1,1-0.1,2-0.2c-2.9-2.9-4.2-5.9-3.6-9.6c0.6-4,4-5.4,7.3-7c-1.1-0.6-1.9-1-2.6-1.4c-6.3-3.5-12.5-7.3-17.5-12.6
		c-1.6-1.7-3-3.6-4.1-5.6c-2.3-4.4-1-8.5,3.2-11.2c1.3-0.8,2.7-1.4,4.1-1.8c3-0.8,6.1-0.8,9-0.2c5.2,1.1,10.4,2.5,15.6,3.8
		c1,0.2,1.9,0.5,2.9,0.8c-0.3-1.1-0.8-1.7-1.4-2.4c-2.1-2.5-4.2-5-6.2-7.6c-1-1.3-2.2-2.3-3.8-2.7c-0.8-0.2-1.7-0.5-2.5-0.7
		c-6.4-1.8-12.7-3.8-18.7-6.8c-2.9-1.5-5.7-3.3-8-5.7c-2.3-2.3-3.5-5.1-3.2-8.5c0.4-4.9,3.3-7.4,8.1-7c2.4,0.2,4.5,1,6.6,2.2
		c6.3,3.4,11.8,7.7,16,13.5c1.7,2.3,3.7,3.8,6.5,4.5c6.6,1.5,13.2,3.1,19.8,4.7c6.8,1.5,13.7,2.8,20.7,2.2c1.9-0.2,3.8-0.7,5.5-1.4
		c2-0.8,3-2.5,2.7-4.6c-0.2-1.8-0.6-3.6-1.4-5.3c-3.5-7.4-9.1-12.9-16-17c-0.3-0.2-0.7-0.3-1.3-0.5c-0.2,1.8-0.3,3.5-0.5,5.1
		c-0.8,6.4-4.1,10.2-9.8,11.5c-1.3,0.3-2.7,0.3-4,0.5c-2.3,0.3-4.2-0.5-5.5-2.2c-1-1.3-2.1-2.7-2.6-4.3c-2.9-9.3,2.7-16.6,10.5-17.9
		c1.9-0.3,3.8-0.5,5.9-0.7c-0.7-2.9-1.3-5.7-2-8.5c-2.5-9-7.3-16.3-15.9-20.6c-2.1-1.1-4.2-2.4-6-3.9c-4.4-3.6-7.2-8.1-6.8-14.1
		c0-0.2-0.1-0.4-0.3-0.8c-1-0.3-2.1-0.5-3.2-0.9c-3.9-1.3-7.8-2.5-11.6-3.8c-2.3-0.8-4.1-2.4-5.7-4.3c-1.3-1.6-1.7-3.4-1.2-5.4
		c0.9-3.6,3.2-5.8,6.6-7c1.4-0.5,3-0.8,4.6-1.2c-0.9-1-1.6-1.7-2.3-2.5c-2.5-3.2-2-6.8,1.2-9.2c1.6-1.2,3.5-1.9,5.6-2
		c1.8-0.1,3.5,0,5.3-0.1c0.5,0,1-0.1,1.5-0.2c-2.5-3.1-4.8-6-7.1-9c-1.6-2.1-2.9-4.4-3.4-7.1c-0.8-4.2-0.2-8.1,3.3-11.1
		c0.3-0.3,0.5-0.7,0.9-1.1c-1.2-0.6-2.2-1-3.2-1.5c-6.4-3.4-13-6.6-19.3-10.2c-4.1-2.3-7.9-5.2-11.6-8c-1.9-1.5-3.6-3.4-5.1-5.4
		c-1.2-1.4-1.8-3.2-1.7-5.1c0.2-5.4,3.1-9,8.4-10.3c4.6-1.1,9.2-0.9,13.8-0.2c8.9,1.4,17.5,3.8,25.9,6.8c12,4.3,23.8,8.9,35.7,13.3
		c3.3,1.2,6.6,2.3,10,3.4c0.6,0.2,1.3,0.1,2.1,0.2c-0.1-2.2-1.1-3.5-2.3-4.6c-2-1.9-4.1-3.9-6.4-5.5c-5.1-3.5-10.2-6.9-15.5-10
		c-11.6-6.9-23.7-12.7-35.7-18.7c-4.1-2-8-4.3-11.9-6.6c-1.4-0.8-2.7-2-3.8-3.2c-1.8-2.1-0.8-5.2,1.9-5.8c1.8-0.4,3.6-0.4,5.5-0.4
		c1.2,0,2.5,0.2,3.7,0.2c1.4-8.6,1.5-14.5,0-17.7c-0.6,1.1-1.2,2.1-1.7,3c-1,1.9-1.9,3.9-3.1,5.7c-2.6,4.2-6.4,6.4-11.2,7
		c-2,0.3-4,0.1-6,0.2c-1,0-2.1,0.1-3,0.4c-3.2,0.9-6.3,0.5-9-1.3c-1.8-1.2-3.5-2.8-5.1-4.4c-1.7-1.8-3.2-3.8-5-5.5
		c-1.7-1.8-3.6-3.3-5.5-5.1c-1.6,1.1-2.8,2.1-4.2,2.9c-2.1,1.2-3.1,2.9-3.8,5.2c-1.8,5.9-5.8,9.8-12,11.2c-0.4,0.1-0.8,0.3-1.3,0.5
		c1.1,4.4,0.2,8.5-1.3,12.6c-0.5,1.3-1,2.7-1.6,4c-1.5,3.5-2.1,6.9-1.2,10.7c1.3,5.1-0.6,9.3-4.9,12.3c-1.2,0.8-2.4,1.6-3.6,2.4
		c-1.1,0.8-2.2,1.6-3.2,2.5c-2.1,1.8-3.5,4.1-3.6,6.8c-0.1,2.3,0.1,4.6,0.4,6.9c0.5,3.2,1.4,6.2,1.9,9.4c1,6.1-1.6,10.4-7.4,12.6
		c-0.7,0.3-1.4,0.6-2.2,0.9c3.9,5.5,4.9,8.2,4.7,13.9c-0.1,2.3,0.3,4.4,1.1,6.5c2,4.8,0.7,9-2.9,12.5c-1.6,1.6-3.3,3.1-5.2,4.3
		c-3.1,2-4.7,4.6-4.2,8.4c0.2,1.1,0,2.2-0.1,3.4c-0.2,2.6-1,5-2.5,7.1c-1.1,1.5-2.8,2.7-3.7,4.3c-0.9,1.6-1.1,3.7-1.8,5.4
		c-1.9,4.3-5,7.8-8.1,11.2c-0.5,0.6-1.1,1.1-1.7,1.8c4.6,5.5,5,12.1,5.3,18.4c0.2,0.3,0.3,0.4,0.3,0.4c0.3,0.2,0.5,0.3,0.8,0.5
		c4.5,2.6,7.4,6.5,8.8,11.5c0.6,2.1,1,4.2,1.1,6.4c0.2,5.3,1.4,10.2,4.8,14.5c2.6,3.3,0.8,10.8-5.2,11.4c-1.3,0.1-2.5,0.4-3.6,0.6
		c0.2,2.1,1,4.1,0.6,5.8c-1.1,4.4-1.2,8.9-1.8,13.3c0,0.3-0.1,0.6-0.2,0.9c-1.2,5-4.3,8.2-9.3,9.2c-2.2,0.4-4.4,0.7-6.7,0.8
		c-1.9,0.1-3.1,0.9-3.9,2.6c-1,2.2-2.1,4.3-3.2,6.5c-2.6,5.4-6.6,9.3-12.1,11.8c-2.8,1.3-5.7,2.6-8.5,3.8
		c-5.7,2.4-10.3,6.1-13.8,11.2c-1.5,2.2-3,4.5-4.5,6.8c-1.4,2.1-2.8,4.3-4.4,6.3c-1,1.3-2.2,2.6-3.5,3.6c-2.8,2.3-5.9,2.6-9.2,1.1
		c-1.4-0.7-2.7-1.7-4.2-2.4c-1.8-0.8-3.6-1.8-5.5-2.1c-7.7-1.2-14.2,1.5-19.4,7.2c-3.4,3.8-4.7,8.4-3,13.4c1.3,4,1.5,8,1.1,12.1
		c-0.6,5.5-0.3,10.9,1.7,16.1c0.5,1.2,0.7,2.5,1,3.7c0.9,3.3,0.4,6.4-1.2,9.3c-1.1,1.9-2.5,3.7-3.8,5.5c-0.3,0.5-0.7,0.9-1.1,1.4
		c0.3,0.2,0.4,0.3,0.5,0.4c4.7,2.7,5.9,6,3.7,11c-2.2,4.8-5.5,8.8-9.4,12.3c-2,1.8-3.9,3.6-5.8,5.4c-1.6,1.6-2.6,3.5-2.9,5.7
		c-0.3,2.7-0.5,5.4-0.7,8c0.7,0.6,1.3,1,1.8,1.5c1.4,1.4,2.1,3,2,5c-0.3,4.4-1.8,8.3-5.5,11c-1.4,1-2.1,2.3-2.5,3.9
		c-0.2,0.8-0.4,1.6-0.4,2.4c-0.4,5.1-2.9,9.1-6.4,12.5c-1.3,1.2-2.6,2.4-3.9,3.5c-2.6,2.3-3.6,5.2-3.4,8.6c0.2,2.9,0.3,5.8,0.3,8.6
		c0,9.6-4.3,17-12.2,22.4c-1.5,1-3,1.9-4.5,2.8c-3.5,2.1-5.6,5.2-6.4,9.2c-0.6,2.8-1,5.7-1.4,8.5c-1,6.5-2.3,13-7.2,17.9
		c-0.8,0.8-0.9,1.8-1,2.8c-0.2,2.6-0.4,5.3-1,7.8c-0.8,3.5-2.8,6.5-6,8.4c-1.3,0.8-2.8,1.3-4.2,1.7c-1.4,0.5-2.2,1.2-2.4,2.8
		c-0.6,4.5-0.2,8.9,0.4,13.4c0.7,5.3,1.2,10.7-0.2,16c-0.2,0.9-0.5,1.9-0.4,2.8c0.4,4.7-1.3,8.9-3.2,13.1c-1.7,3.9-3.1,8-4.7,12.1
		c-0.4,1.1-0.3,1.9,0.3,2.9c1.7,2.8,2.9,5.9,3.2,9.2c0.3,3.7,0.5,7.5,0.5,11.2c0.1,5.7-1.3,11-4.3,16c-1.2,2-2,4.4-2.5,6.7
		c-0.7,3.8-1,7.8-1.5,11.6c-0.4,3.7-0.7,7.3-2.6,10.6c-0.3,0.4-0.2,1.1-0.3,1.6c-0.4,2.9,0.4,5.5,1.2,8.2c1.3,5,2.4,10.1,1.2,15.2
		c-0.9,3.6-2.3,7.2-3.8,10.6c-1.3,3-1.7,5.8-0.8,9c2,6.8,0.7,13.2-3.7,18.8c-1.5,1.9-3,3.8-4.8,5.4c-2.5,2.3-5.2,4.5-7.9,6.7
		c-0.9,0.8-1.5,1.5-1.6,2.8c-0.1,1.8-0.3,3.5-0.5,5.2c-0.5,4.5-1.3,8.9-4,12.7c-1.7,2.3-2,4.8-1.5,7.5c1,6.2,4.2,11.2,8.4,15.6
		c1.5,1.7,3,3.3,3.7,5.5c0.1,0.4,0.3,0.7,0.6,1c1.8,1.8,3.6,3.6,5.3,5.5c1.5,1.5,3.2,2.3,5.3,2.3c4.6,0,9.3,0.2,13.9,0.3
		c14,0.4,28,0.8,42,1.4c19.3,0.7,38.7,1.5,58,2.3c17.5,0.7,35,1.5,52.5,2.2c14.1,0.5,28.1,1,42.2,1.3c15.4,0.4,30.8,1.3,46.1,3.5
		c9.1,1.3,17.7-0.2,25.4-5.5c3.1-2.1,6.3-4,9.5-6c0.7-0.5,1.1-1,1.2-1.9c0.2-2,0.5-4,0.9-5.9c1.1-5.2,2.9-10,6.5-14
		c5.6-6.2,12.4-8.9,20.7-7c2.3,0.5,4.5,1.1,6.8,1.7c3.3,0.8,3.3,0.9,5.2-2.1c1.4-2.2,2.6-4.4,3.9-6.6c3.4-5.3,7.9-9.3,14-10.9
		c5.2-1.4,10.6-1.7,15.9-0.7C664,875.8,666.5,876.6,669,877.3z M635.6,469.6c0.5,2.4,0.9,4.4,1.4,6.4c1.1,4,3.5,6.8,7.6,7.8
		c2.1,0.5,4.2,0.9,6.4,1.1c2.8,0.3,4.2-1.5,3.2-4.2c-0.7-2-2-3.7-3.6-5C646.3,472.1,641.2,470.7,635.6,469.6z M634.4,510.8
		c-3.6-3.6-7.3-5.8-12-6.4c-2.3-0.3-4.6,0.2-6.6,1.6c-2.3,1.6-2.6,4.1-0.9,6.3c1.2,1.6,3,2.3,5,2.6
		C625.2,515.6,629.7,513.5,634.4,510.8z M650.5,391.2c2.2-2.4,2.3-4.6,0.8-6.6c-3.4-4.4-11.4-6.7-16.5-4.8c-1.6,0.6-1.9,1.3-1.2,2.9
		c0.7,1.6,2,2.5,3.5,3.1C641.5,387.7,646,389.4,650.5,391.2z M664.5,296.9c-4.4,0.4-8.2,1.5-10.9,5.1c-1.3,1.7-1.8,3.8-1.3,5.9
		c0.3,1.4,1,2.8,2.7,3c3.9,0.6,7.8-1.8,9-5.5C664.9,302.7,664.9,299.9,664.5,296.9z M664.1,536.6c0.4,0.3,0.6,0.5,0.8,0.6
		c7.1,3.1,14.2,6.2,21.7,8.4c1.9,0.6,3.9,0.9,5.9,1.2c0.5,0.1,1.1-0.2,1.9-0.3c-1.5-1.9-3.4-2.5-5.1-3.2c-7.8-3-15.9-4.8-24-6.7
		C664.9,536.5,664.6,536.5,664.1,536.6z M626.7,316.6c-4-5.8-11.8-9.6-15.9-10.4c-0.9-0.2-1.8,0-2.8,0
		C609.4,309.9,619.6,315.5,626.7,316.6z M660.9,594.6c2.9,2,5.5,3.6,8.7,3.8c0.8,0,1.6-0.1,2.4-0.2c1.1-0.2,2-0.8,2.1-2
		c0.1-1.2-0.7-2-1.7-2.3C668.7,592.5,665,592.7,660.9,594.6z M657.5,632.4c-0.3,1.4-0.7,2.6-0.7,3.7c-0.1,2.1,0.8,3.7,2.3,5
		c0.9,0.7,1.9,1.3,3.1,0.6c1.2-0.7,1.1-1.9,0.7-3C662,636,660.5,633.8,657.5,632.4z M643.7,187.3c-0.7,1.7-1.1,3.2-0.8,4.8
		c0.3,1.9,1.3,3.4,3,4.3c1.9,1,3.5-0.1,3.2-2.2C648.5,191.2,646.8,188.8,643.7,187.3z M670.2,357.6c3.4,2.4,6.8,4.9,11,5.4
		C678.2,359.9,674.3,358.7,670.2,357.6z M644.9,240.8c1.5,0,2.9,0,4.5,0C647.6,238.8,646.5,238.8,644.9,240.8z"/>
	<path d="M668,571.4c0,2.1-1.4,3.5-3.6,3.6c-2.4,0.1-4.5-1.9-4.5-4.2c0-2,1.5-3.4,3.5-3.5C665.9,567.2,668,569,668,571.4z"/>
</g>
</svg>
