<?xml version="1.0" encoding="utf-8"?>
<!-- Generator: Adobe Illustrator 23.0.4, SVG Export Plug-In . SVG Version: 6.00 Build 0)  -->
<svg version="1.1" id="Layer_1" xmlns="http://www.w3.org/2000/svg" xmlns:xlink="http://www.w3.org/1999/xlink" x="0px" y="0px"
	 viewBox="0 0 1008 1008" style="enable-background:new 0 0 1008 1008;" xml:space="preserve">
<g>
	<path d="M645.5,322.3c-3.7,2.7-6.6,5.7-8.9,9.3c-2.7,4.1-5.1,8.3-7.5,12.5c-2.6,4.6-4.9,9.3-7.6,13.9c-4.3,7.5-9.3,14.3-16.1,20.1
		c0.5,0.5,1,0.9,1.4,1.3c6.9,5.4,14.7,8.1,23.4,8.7c6.8,0.5,13.8,1,20.2,3.8c4,1.7,8,3.7,11.9,5.6c2.4,1.1,4.8,2.2,7.2,3.3
		c0.7,0.3,1.3,0.5,2,0.7c3.4,0.9,5-0.5,4.2-4c-0.6-2.3-1.3-4.7-2.5-6.7c-2.2-3.7-1.3-8.5,3.3-11.3c2-1.2,4.2-1.2,6.2,0
		c1.5,0.9,2.9,2,4.2,3.2c9.4,9,15.1,20.1,17.4,32.9c2.4,13.9,1.2,27.6-2.1,41.1c-1.3,5.1-2.9,10.1-4.4,15.2c-0.8,2.7-2.6,4.9-4.5,7
		c-1.5,1.7-3,3.3-4.4,5c-1.5,1.8-1.9,3.9-1.4,6.3c0.8,4.1,2.4,7.6,5.8,10.4c4.7,3.9,9.1,8.1,13.4,12.3c3.4,3.3,6.3,7,8.7,11.1
		c1.9,3.2,2.9,6.6,2.5,10.3c-0.5,5.3-5.3,7.6-9.7,4.7c-0.9-0.6-1.8-1.4-2.5-2.2c-3.1-3.1-5.7-6.5-7.8-10.3
		c-2.8-5.1-5.6-10.3-8.1-15.5c-2.9-5.9-7.8-10.7-15.6-15.9c0.4,0.8,0.5,1.2,0.8,1.6c1.7,2.8,3.6,5.5,5.1,8.4
		c1.8,3.3,2.9,6.8,2.5,10.6c-0.1,0.8-0.3,1.6-0.5,2.3c-1.5,4.5-4.9,6.3-9.4,4.9c-1.9-0.6-3.6-1.6-5.6-2.5c0.3,1.4,0.5,2.6,0.8,3.8
		c0.8,3.8,1.6,7.7,1.3,11.6c-0.1,1.8-0.4,3.7-1.1,5.4c-2.6,6.3-8,8.6-14.8,6.7c-0.8-0.2-1.7-0.5-2.9-0.9c0.5,3.1,0.9,5.9,1.4,8.8
		c1.2,0.1,2.1,0.2,3,0.2c6,0.1,11.8,1,17.2,3.7c4.2,2.1,7.3,5.2,7.7,10.2c0.2,2.6-0.3,5.1-1.4,7.5c-2.4,5-7.5,7.5-13,6.1
		c-4.4-1.1-8.2-3.3-10.6-7.3c-2-3.3-3.8-6.8-5.8-10.6c-2.6,0.5-5.5,1-8.8,1.7c0.7,0.9,1.2,1.5,1.7,2.1c4.7,5.4,9.2,11.1,13.1,17.2
		c2.1,3.4,4.1,6.9,5.1,10.8c0.3,1.1,0.6,2.4,0.6,3.5c-0.1,3.7-2.7,6.4-6.4,6.8c-3.2,0.4-6.2-0.3-9-1.8c-4.2-2.2-7.8-5.1-11-8.5
		c-2.3-2.4-4.5-5-6.7-7.5c-0.4-0.5-0.8-0.9-1.5-1.8c0,3.7-1.1,6.6-3.5,8.8c1,3.7,2.3,7.1,3,10.7c0.8,4,1.4,8,1.6,12.1
		c0.1,2-0.4,4.2-1.2,6c-2.5,5.6-6.7,8-14,6.5c-1.5-0.3-2.9-0.9-4.4-1.4c-0.5,2.5-1.1,5-1.5,7.5c-0.1,0.6,0.5,1.4,1,2
		c3.1,3.6,6.3,7.1,9.2,10.7c5.4,6.7,10.3,13.9,13.6,21.9c2.1,5,1.9,10,0.4,15c-0.4,1.1-0.9,2.2-1.5,3.3c-3.1,5.1-8.3,6.4-13.4,3.5
		c-2.9-1.6-5-4-6.8-6.6c-3.5-5.1-5.8-10.8-7.9-16.6c-2.9-7.9-3.5-15.9-2.1-24.1c0.2-0.9,0.1-1.7-0.7-2.4c-6.1-6.1-12.3-12.2-19.5-17
		c-2.5-1.6-5.1-2.9-7.7-4.3c-0.8-0.4-1.8-0.7-2.7-1c-5.2-1.4-9.6,0-12.6,4.5c-4.6,6.9-5.1,15.1-0.1,22.3c2.3,3.3,5.7,5,10.3,5.2
		c0.2-0.6,0.4-1.3,0.5-1.9c0.5-2.5,1.4-4.9,3-7c2.1-2.6,5.4-3.7,8.1-2.8c2.7,0.9,4.2,2.8,4.6,5.6c0.3,2.7-0.4,5.2-2.9,6.6
		c-2.1,1.2-4.4,2.4-6.6,3.3c-1.3,0.6-1.8,1.4-1.9,2.7c-0.2,11.2-0.2,22.4,3.7,33.2c0.8,2.2,1.2,4.6,1.7,7c0.8,4.2,0.4,8.1-2.8,11.4
		c-0.3,0.3-0.4,0.7-0.7,1.2c1,1,2,1.9,2.9,2.8c2.7,2.8,5.5,5.6,8.1,8.5c1.2,1.4,2.2,3.2,2.8,5c2,5.4-0.8,10-6.6,10.8
		c-1.7,0.2-3.5-0.1-5.2-0.3c-1.1-0.1-2.1-0.5-3.5-0.9c0.3,1.1,0.5,2,0.7,2.9c1.2,4.8-1.4,8.3-6.3,8.5c-2,0.1-3.8-0.2-5.6-1.1
		c-2-1-3.9-2-6.2-3.2c0.5,2.1,1,3.9,1.3,5.8c0.5,3.6,0.9,7.1,1.2,10.7c0.1,2.2-0.5,4.4-1.7,6.4c-2,3.6-4.2,5.1-8.8,6.1
		c0.5,0.8,1,1.5,1.4,2.1c4.2,6.1,8.4,12.2,12.5,18.5c3.1,4.8,5.7,9.8,7.8,15.1c1,2.5,1.8,5.1,1.8,7.9c0,6-5.7,11.2-11.7,10.1
		c-2.5-0.4-4.9-1.3-7.3-2.4c-4.3-1.9-7.9-4.8-11.5-7.8c-10.1-8.6-18.9-18.4-27.6-28.3c-6.3-7.2-12.5-14.5-18.8-21.8
		c-1.5-1.7-3-3.5-5.4-4.8c-0.2,1-0.5,1.8-0.4,2.6c0.2,1.6,0.4,3.2,1,4.7c1.6,3.9,3.2,7.8,5.2,11.6c5.6,10.7,12.3,20.8,19.2,30.7
		c5,7.2,10.1,14.4,15.1,21.7c1.7,2.5,3.1,5.2,4.5,7.9c0.5,1,0.8,2.1,0.9,3.2c0.2,2.7-2.1,4.7-4.6,3.8c-2.1-0.7-4.2-1.6-6-2.9
		c-3-2.1-5.8-4.5-8.8-6.7c-0.6-0.5-1.2-1-1.9-1.5c-3.1,1.8-5.8,3.9-8,6.5c-3.3,4-6.6,8.1-9.5,12.3c-8.3,12.2-15.7,25.1-22.7,38.1
		c-6,11.2-13.2,21.5-22.1,30.6c-2.9,3-6.4,5-10.5,5.8c-6.8,1.4-12.5-0.8-16.5-6.6c-3.4-4.9-4.7-10.4-5.1-16.3
		c-0.5-7.4,1.8-14.1,5.4-20.3c2.4-4.2,5.1-8.1,7.7-12.2c2.1-3.2,4.2-6.4,6.1-9.8c1.9-3.3,3.3-7,3.5-10.9c0.2-2.4,0-4.8-0.5-7.1
		c-0.7-3.4-2.9-5.8-6.2-7.1c-0.7-0.3-1.3-0.5-2-0.7c-9.5-2.6-18.9-5.3-28.4-7.9c-0.5-0.1-1.1-0.2-1.6-0.3c-4-0.9-4-0.9-7.1,2
		c-1.8,1.8-3.6,3.6-5.5,5.3c-3.7,3.2-7.9,5-12.9,4.9c-4.9-0.2-8.3-2.6-9.8-7.3c-1.2-3.5-2.2-7-3.4-10.5c-1.4-4-3.2-7.8-5.7-11.3
		c-3.7-5.2-8.4-8.8-14.9-10c-3.5-0.7-7-1.7-10.4-2.7c-4-1.1-6.4-3.8-7.3-7.8c-0.2-0.9-0.5-1.7-0.7-2.5c-0.9-2.8-2.6-4.9-5.3-6.2
		c-1.4-0.7-2.9-1.3-4.4-1.9c-6.8-2.4-12.1-6.7-16.3-12.5c-1.5-2.1-2.8-4.3-4.1-6.5c-1-1.7-2-3.5-2.9-5.3c-1.5-3.2-4.1-4.5-7.4-4.8
		c-3.1-0.2-6.2-0.5-9.3-0.9c-2-0.3-4.1-0.7-6-1.4c-6.5-2.4-9.5-8.1-7.7-14.7c0.7-2.5,1.8-5,2.9-7.3c1.6-3.5,3.6-6.8,5.2-10.3
		c1.2-2.5,2.1-5.2,2.8-7.9c1-3.9-0.1-7.2-3.2-9.9c-2.8-2.4-5.4-5-8-7.6c-3.6-3.6-5.4-8.1-5.3-13.2c0.1-4.8,2.3-8.6,6.3-11.2
		c1.4-0.9,2.9-1.7,4.3-2.6c2.2-1.4,3.7-3.3,4.4-5.8c0.3-1.2,0.7-2.3,0.9-3.5c1.3-5.3,4.1-9.5,8.7-12.5c2.7-1.8,5.6-3.4,8.5-4.8
		c3.2-1.6,5.7-3.9,7.4-6.9c1.3-2.3,2.6-4.6,3.5-7.1c5.8-15.1,17.3-23.4,32.6-26.9c6.2-1.4,12.6-1.9,18.9-3c5-0.9,9.9-2,14.8-3
		c0.5-0.1,0.9-0.3,1.4-0.5c2.5-1,3.1-2,3-4.7c-0.4-8.7,1.3-17,5.2-24.8c4.1-8.3,10.4-14.4,19-17.8c4.1-1.7,8.5-2.9,12.7-4.3
		c3.4-1.2,6.8-2.3,10.1-3.7c4.6-2,8.4-5,11.1-9.2c2.2-3.4,4.2-7,6.3-10.5c1.5-2.6,2.8-5.4,4.3-8c2.6-4.8,6.7-7.5,12.1-7.9
		c4.1-0.3,8.3-0.3,12.5-0.4c3,0,5.9-0.1,8.8-1.1c1.1-0.4,2.3-0.8,3.3-1.4c4.2-2.4,5.8-6.6,4.5-11.3c-0.8-2.8-2.3-5.3-4-7.6
		c-3.3-4.6-7.2-8.6-11.5-12.2c-4.8-4-9.7-7.8-14.6-11.7c-10.5-8.5-18.7-18.8-24.2-31.1c-1-2.3-2.1-4.5-3.3-6.7
		c-2.5-4.6-6-8.2-10.7-10.7c-2-1.1-4.1-2.2-6.1-3.3c-9.7-5.2-14.7-13.5-15.7-24.2c-0.4-3.7-0.5-7.5-0.8-11.2
		c-0.1-0.9-0.3-1.9-0.5-2.8c-1-4-3.5-6.4-7.5-7.1c-2-0.4-3.9-0.7-5.9-0.9c-4.5-0.4-7.8-2.7-10.3-6.3c-5.2-7.1-8.8-15-10.8-23.6
		c-2.6-11.3-1.4-22.2,2.6-33c3.5-9.7,8-19,14.2-27.4c2.7-3.7,5.3-7.4,7.6-11.4c3.6-6.2,5.3-12.8,4.6-20c-0.8-8.1-4.7-14.3-11.8-18.3
		c-0.4-0.2-0.8-0.5-1.3-0.7c-4.8-2.5-5.6-8.4-1.7-12.2c1.2-1.2,2.2-2.5,3.1-3.9c1.7-2.9,4.1-5.1,7-6.8c2.4-1.3,4.7-2.8,7-4.1
		c8.3-4.6,15.4-10.6,21.4-17.9c1.2-1.4,2.4-2.8,3.6-4.2c5.2-6.4,10.9-12.4,17.3-17.6c1.9-1.6,3.7-3.3,5.5-5
		c4.7-4.4,7.9-9.7,9.9-15.9c2.4-7.5,4.9-15.1,7.7-22.5c3.8-10,9.3-18.9,16.4-26.9c5.6-6.2,12.6-9.1,20.7-9.5
		c6.8-0.4,13.4,1,19.7,3.6c7.7,3.2,15.3,6.5,22.7,10.3c13.6,6.9,27.2,13.9,40.6,21.2c5.4,2.9,10.5,6.4,15.6,9.8
		c2.2,1.5,4,3.4,5.9,5.2c0.7,0.6,1.2,1.1,2.2,1.3c1.1,0.1,2.2,0.5,3.1,1.1c26.2,15.6,53.2,29.6,79.8,44.4
		c6.4,3.6,12.9,7.1,19.2,10.8c3,1.7,5.8,3.7,8.5,5.8c2.7,2.2,4.6,5.1,5.9,8.3c1.5,3.8,2.7,7.7,3.2,11.8c0.4,3.2,0,6.4-0.8,9.5
		c-2.4,8.8-5.4,17.4-8.7,25.9c-4.9,12.4-9.3,25-14,37.5c-3.2,8.5-6.8,16.9-11.5,24.8c-3.2,5.3-6.9,10.4-10.4,15.6
		c-0.8,1.2-1.8,2.2-2.9,3.2c-5.2,5.1-13.4,3.3-16.8-0.8C646.1,323.1,645.9,322.8,645.5,322.3z M515.4,830.5c0.1-0.1,0.2-0.2,0.3-0.3
		c-0.4-0.6-0.8-1.1-1.2-1.7c-3.7-5.2-7.6-10.3-11.1-15.6c-6.4-9.5-12.5-19.2-17.1-29.7c-1.8-4.2-3.2-8.5-4.5-12.9
		c-1-3.3-1-6.8,0.4-10.1c1.5-3.4,4.1-4.9,7.7-3.8c1.8,0.5,3.6,1.4,5.2,2.3c2,1.2,3.8,2.6,5.6,4.1c6.5,5.3,12.1,11.4,17.8,17.5
		c8.3,9,16.5,18,24.9,27c3.6,3.9,7.4,7.6,11.8,10.5c1.3,0.9,2.7,1.7,4.2,2.2c2.5,0.8,3.7-0.5,3.2-3c-0.3-1.2-0.7-2.3-1.2-3.4
		c-1-2.2-2.1-4.5-3.3-6.6c-6.1-10.9-13.1-21.2-20.6-31.2c-0.6-0.8-1.5-1.4-2.4-1.9c-3.6-2.1-6.6-4.8-8.7-8.4
		c-3.7-6.6-1.6-15.5,4.6-19.6c4.5-3.1,9.1-1.6,10.9,3.5c1.4,3.8,0.6,7.4-1.2,10.9c-0.7,1.3-1.5,2.4-2.4,3.7c2.2,1.9,4.4,3.7,7.3,4.5
		c3.1,0.9,5.2-0.4,5.8-3.6c0.2-1.2,0.2-2.4,0.2-3.6c-0.2-4.3-1.3-8.5-2.6-12.6c-0.9-2.7-1.9-5.4-2.9-8.1c-0.7-1.9-0.3-3.5,1.2-4.8
		c1.2-1.1,3-1.1,4.7-0.2c0.6,0.3,1,0.7,1.6,1.1c3.3,2.1,6.6,4.3,9.9,6.3c0.7,0.5,1.7,0.7,2.7,1.1c-0.1-2.1-0.9-3.5-2-4.6
		c-1.9-2-3.9-3.8-5.8-5.7c-1.3-1.2-2.7-2.3-3.9-3.6c-1.5-1.6-1.6-3.4-0.3-5.2c1.2-1.7,2.6-2.1,4.6-1.1c2.2,1.1,4.3,2.5,6.4,3.7
		c2.8,1.6,5.5,3.3,8.3,4.7c1.4,0.7,3,0.9,4.6,1.1c1.1,0.1,1.7-0.5,1.4-1.6c-0.3-1.1-0.8-2.3-1.4-3.3c-2.5-3.9-6-6.9-9.2-10.1
		c-1.1-1.1-2.1-1.3-3.6-0.9c-4.2,1.2-8.1,0.2-11.6-2.1c-2.6-1.7-4.1-4.2-4.7-7.3c-0.4-2.4,0.8-4.1,3.2-4.4c1-0.1,2.1,0,3.1,0.2
		c3.3,0.7,6,2.5,8.8,4.3c0.7,0.5,1.4,0.9,2.1,1.4c1.2-0.8,1.7-1.9,1.7-3c0.1-2.1,0.2-4.2-0.3-6.2c-1.4-6.3-2.3-12.6-2.9-18.9
		c-0.6-6.7-1.4-13.4-0.2-20.1c0.1-0.4,0-0.7-0.1-1.1c-0.4-0.1-0.7-0.2-1-0.2c-8.7-1.2-14.2-6.3-16.6-14.6c-2.7-9.5-0.3-18.1,6-25.5
		c5.3-6.2,12.1-7.6,19.8-4.9c4.5,1.6,8.7,3.8,12.4,6.7c4.9,3.8,9.5,7.8,14.3,11.7c0.6,0.5,1.1,1,2,1.6c0.3-1.9,0.4-3.3,0.7-4.7
		c0.3-1.8-0.2-3.1-1.5-4.5c-3.5-3.6-5-7.9-4.3-12.9c0.7-4.9,3.2-8.7,7.6-11c3.6-1.9,7-0.7,9,2.8c0.4,0.7,0.7,1.5,0.9,2.2
		c1.1,3.9,0.1,7.4-1.8,10.8c-0.6,1-1.3,2-2.1,3.3c2.2,1.4,4.2,2.8,6.4,3.9c3.8,1.8,6.6,0.2,6.9-4c0.2-2.1-0.1-4.3-0.3-6.4
		c-0.7-5.3-2.7-10.3-4.4-15.4c-4.2,0.1-8.1-0.8-11.9-2.1c-2.9-1-5.4-2.7-7.6-4.9c-2.6-2.7-3.2-6-2.5-9.6c0.8-3.9,4.3-6.6,8.3-6.7
		c3.6,0,6.5,1.6,8.8,4.2c1.7,2,3.1,4.2,4.6,6.4c0.5,0.7,0.9,1.4,1.7,2.7c0.3-1.4,0.5-2.2,0.6-3c0.2-1.3,0.2-2.6,0.4-3.8
		c0.3-2.2,1.5-3.9,3.4-4.9c1.7-0.9,3.2-0.7,4.6,0.6c0.8,0.8,1.5,1.7,2.3,2.5c5.1,5.4,10.2,10.8,15.5,16.1c1.7,1.7,3.8,3.1,5.8,4.6
		c0.7,0.5,1.7,0.7,2.6,1c0.7-2.8,0.5-4.1-1.1-7.4c-4.6-9.2-11-17.2-17.5-25.1c-0.8-1-1.8-1.4-3.1-1.5c-4.3-0.2-7.8-2.3-10.7-5.2
		c-2-2-3.1-4.5-2.7-7.4c0.5-3.5,1.9-6.5,5.4-7.9c2.8-1.1,5.9,0.4,6.8,3.2c0.4,1.3-0.1,2.2-1.5,2.3c-0.3,0-0.6,0-1,0
		c-1.2,0.1-1.8,1-1.1,2c0.7,0.9,1.7,1.7,2.8,2.1c5.3,1.7,10.5,0.8,15.8-0.5c0-0.6,0.1-1,0-1.4c-0.6-3.4-1.2-6.8-1.9-10.1
		c-0.1-0.6-0.7-1.2-1.1-1.7c-1.4-1.9-3.2-3.6-4.3-5.7c-3.4-6.4-1.2-14.9,4.7-19c4.6-3.1,9-1.8,11,3.3c0.1,0.4,0.3,0.8,0.4,1.1
		c1.2,4.2-0.3,7.9-2.4,11.4c-0.4,0.7-1,1.4-1.5,2.2c2.2,1.9,4.3,3.6,6.9,4.5c3.3,1.1,5.5-0.2,6.1-3.6c0.5-2.6,0.3-5.1-0.3-7.6
		c-1-4-2.2-8-3.3-12c-0.5-1.9-1.2-3.6-2.4-5.1c-1.4-1.7-2-3.8-1.8-6.1c0.2-3.1,2.9-4.7,5.7-3.3c1,0.5,1.8,1.3,2.6,2.1
		c2,1.9,4,3.9,6.1,5.8c1,0.9,2.2,1.6,3.4,2.2c0.6,0.3,1.7,0.4,2.2,0c0.4-0.4,0.5-1.4,0.4-2.1c-0.2-1-0.6-2-1.1-2.9
		c-1.3-2.2-2.6-4.4-3.9-6.6c-1.7-3-3.5-5.9-5.1-9c-0.9-1.7-1.2-3.6,0.3-5.2c1.4-1.4,3.3-1,5-0.3c2.3,1.1,4.5,2.3,6.8,3.5
		c0.5,0.2,0.9,0.4,1.4,0.7c0.1-0.3,0.1-0.3,0.1-0.4c-0.3-0.8-0.5-1.7-0.8-2.5c-1.7-5-1.7-10.1,0.1-15.1c0.7-1.8,1.5-3.5,2.2-5.3
		c1-2.4,2.1-4.7,2.8-7.1c3.9-12.7,6.4-25.6,5-39c-0.4-3.9-1.1-7.7-2.7-12.2c-0.7,1-1.1,1.8-1.6,2.3c-3.6,3.4-7.8,5.2-12.8,4.7
		c-2.1-0.2-4.3-0.6-6.3-1.4c-3.6-1.4-7.2-3-10.7-4.9c-9.3-4.9-19.1-7.6-29.6-8.2c-8.6-0.4-16.5-2.9-23.6-7.8
		c-5.1-3.5-10-7.2-15-10.8c-0.5-0.4-1-0.8-1.4-1.3c-3.5-4.1-2.6-9.1,2.2-11.6c4.8-2.5,9-5.8,12.4-10.1c2.3-2.9,4.6-6,6.5-9.2
		c2.8-4.6,5.2-9.4,7.8-14.1c3.2-5.8,6.5-11.6,10.7-16.8c5.8-7.4,12.7-13.2,21.6-16.5c3.7-1.4,6.9-1,9.6,2c0.1,0.1,0.3,0.1,0.6,0.2
		c0.5-0.7,1-1.5,1.6-2.3c6.3-9.6,11-19.9,15-30.5c5.1-13.4,9.4-27,15.4-40c3-6.4,4.2-13.4,6.2-20.1c0.9-3.2-0.2-6.3-1-9.4
		c-0.9-3.8-3.1-6.4-6.5-8.2c-2.1-1.1-4.3-2.2-6.4-3.3c-27.9-15.5-55.8-30.9-83.7-46.4c-0.6-0.3-1.2-0.6-1.6-0.8
		c-1.7,1.7-3,3.4-4.7,4.8c-2.8,2.3-7.1,2.2-10.1,0.1c-2.6-1.8-3.2-4.2-2.1-8.1c1-3.7-0.1-6.8-2.9-9.3c-1.4-1.3-3-2.4-4.7-3.4
		c-9.4-5.9-18.8-11.8-28.9-16.6c-3.6-1.7-7.2-3.5-10.7-5.3c-10.8-5.5-21.6-11.1-33-15.3c-3.3-1.2-6.8-2.3-10.3-2.9
		c-5.3-0.9-10.2,0.2-13.8,4.7c-0.7,0.9-1.6,1.5-2.3,2.4c-1.4,1.7-3.1,3.3-4.2,5.2c-2.6,4.8-5.3,9.5-7.3,14.6
		c-3,7.7-5.5,15.7-8.2,23.5c-1.4,4.2-3.4,8.1-6,11.7c-2.9,4-6.5,7.5-10.1,10.9c-4.3,4-8.6,8.1-12.7,12.4c-4.4,4.6-8.6,9.5-12.9,14.2
		c-6.6,7.4-14.1,13.7-23,18.2c-1.8,0.9-3.6,2.1-5.3,3.3c-0.6,0.4-1.2,1-1.9,1.6c0.7,0.7,1.3,1.2,1.9,1.8c7.8,7.5,11.7,16.6,12,27.4
		c0.2,8.1-1.8,15.7-5.2,22.9c-2.3,5-5.5,9.4-8.8,13.7c-6.4,8.6-10.9,18-14.2,28.2c-2.5,7.8-3.1,15.7-1.2,23.7
		c1.3,5.5,3.2,10.7,6.7,15.2c0.7,0.9,1.5,1.4,2.8,1.5c4.8,0.4,9.4,1.8,13.7,4c4.6,2.4,7.8,6.1,9.5,11c0.5,1.6,1.1,3.2,1.3,4.8
		c0.6,4.4,1.2,8.9,1.4,13.3c0.4,7.5,3.5,13,10.4,16.2c1.4,0.6,2.7,1.4,4.1,2.1c6,2.9,10.8,7.2,14.3,12.8c2.2,3.5,4.1,7.2,6,10.9
		c4.1,8.3,9.3,15.9,16,22.3c3.2,3.1,6.6,5.8,10,8.6c5.7,4.6,11.6,9.1,16.7,14.4c5.2,5.4,9.7,11.3,12.2,18.5
		c3.1,9.1,1.8,17.4-4.6,24.6c-4.5,5.1-10.3,8.1-16.9,9.2c-5.2,0.9-10.5,0.9-15.8,0.6c-1.3-0.1-2.7,0-4.2,0c-1.3,2.3-2.6,4.7-3.9,7.1
		c-2.2,3.8-4.3,7.7-6.6,11.4c-5.2,8.3-12.4,14.1-21.5,17.6c-1.6,0.6-3.3,1.2-5,1.7c-4.6,1.5-9.2,2.7-13.7,4.4
		c-6,2.2-10.2,6.4-13,12.1c-2.3,4.8-3.4,10-3.5,15.3c-0.1,2.2-0.2,4.3-0.4,6.5c-0.6,5.7-3.3,10.1-8.4,12.9c-2,1.1-4,1.9-6.1,2.6
		c-5.5,1.9-11.4,2.5-17.1,3.3c-5.5,0.8-11.1,1.4-16.6,2.4c-10.5,2-18.2,7.8-22.7,17.6c-0.5,1.2-1.1,2.3-1.7,3.5
		c-1.1,2.3-2.3,4.6-3.5,6.8c-2.9,5.2-6.9,9.2-12.5,11.4c-0.7,0.3-1.3,0.6-2,0.9c-5,1.9-8.2,5.3-9.1,10.8c-0.9,5.6-4.1,9.8-8.5,13.2
		c-1.8,1.4-3.7,2.7-5.6,4.1c0.1,1.2,1,1.9,1.9,2.6c1.4,1.2,2.7,2.5,4,3.8c0.5,0.4,0.9,0.9,1.4,1.3c6,4.5,8.9,10.7,9.2,18.2
		c0.2,4.6-0.9,8.9-2.6,13.1c-1.5,3.5-3.2,7-4.8,10.5c-1,2.2-1.9,4.5-2.8,7.1c3,0.2,5.7,0.4,8.4,0.6c7.7,0.5,13.8,3.7,18,10.3
		c1.1,1.7,2,3.5,3,5.2c1.2,2.1,2.4,4.3,3.7,6.4c2.3,3.7,5.5,6.4,9.6,8c1.9,0.7,3.7,1.5,5.6,2.2c5.8,2.2,9.7,6.4,12.2,11.9
		c0.5,1,0.9,2.1,1.1,3.1c0.3,1.4,1.1,2,2.4,2.2c1.6,0.3,3.1,0.8,4.7,1c9.4,1.4,16.7,6.2,22.4,13.6c2.2,2.8,4.2,5.9,5.8,9.1
		c2.1,4.2,3.6,8.7,5.4,13c0.2,0.6,0.5,1.1,0.8,1.9c1.1-1.1,2-1.9,2.9-2.8c2.1-2,4.1-4.1,6.2-6c2.8-2.6,6.1-3.8,9.9-3.4
		c1.7,0.2,3.4,0.4,5,0.8c11.7,3.4,23.3,6.6,34.9,10.3c8.6,2.7,13.9,8.9,16.2,17.5c1.8,6.7,1.2,13.5-0.7,20.1
		c-1.7,5.8-4.5,11.1-7.9,16.1c-2.7,3.9-5.4,7.8-7.9,11.7c-2,3.1-3.7,6.3-4.8,9.9c-1.2,4.1-1.1,8.2,0.6,12.2c0.9,2.2,2.3,2.5,4.1,1.1
		c0.5-0.4,0.9-0.9,1.4-1.3c4.7-4.7,8.8-9.9,12.3-15.6c4.3-6.9,8.4-14,12.4-21.1c6.8-12.1,13.9-23.9,22.2-35c3.7-5,7.7-9.8,12.6-13.8
		c0.5-0.4,0.9-0.8,1.4-1.3c-0.3-0.3-0.4-0.5-0.6-0.7c-7.8-6.7-15.8-13-24.7-18.2c-1.3-0.8-2.6-1.6-3.7-2.6c-2.2-2.1-1.6-4.9,1.1-6.2
		c1.6-0.8,3.2-0.8,4.9-0.3c5,1.3,9.4,3.9,13.7,6.7c7.4,5,13.9,11,20.5,17C511.6,827,513.5,828.8,515.4,830.5z M604,652.6
		c-0.2,0.1-0.4,0.1-0.6,0.2c0.1,2.8,0,5.7,0.5,8.5c1,6.5,3.4,12.6,6,18.6c1.6,3.6,3.7,6.9,6.4,9.8c1.4,1.5,3,2.5,5.1,1.6
		c2-0.8,2.2-2.8,2.3-4.6c0-3.1-0.8-6-2.1-8.8C617.2,668.4,610.7,660.4,604,652.6z M654.7,565.3c0.9,4.8,4.3,9.9,7.9,12
		c1.8,1.1,3.7,1.8,5.9,1.8c3.5-0.1,5.6-3,4.4-6.2c-0.5-1.3-1.5-2.7-2.6-3.6C665.7,565.6,660.3,565.3,654.7,565.3z M696,514.6
		c2.2,6.7,10,17.7,14.1,19.7C707.6,526.3,701.9,520.6,696,514.6z M614.8,589.3c-1.5-3.3-3-5.8-5.6-7.5c-1-0.6-2.1-1.1-3.3-1.3
		c-0.7-0.1-1.8,0.3-2.3,0.8c-0.8,0.7-0.3,1.8,0.1,2.7c0.1,0.2,0.2,0.4,0.4,0.6C606.9,587.5,610.3,589.2,614.8,589.3z M648.5,533.2
		c1.1-1.5,2.1-2.6,2.8-3.9c1-1.9,0.8-3.9-0.3-5.7c-0.5-0.9-1.3-1.7-2.5-1.5c-1,0.2-1.6,1-1.8,2C645.8,527.2,646.3,530,648.5,533.2z
		 M606.5,617.3c1-1.4,2-2.5,2.7-3.7c1-1.9,0.8-3.9-0.2-5.7c-0.5-0.9-1.3-1.6-2.5-1.5c-1.1,0.1-1.6,1-1.8,2
		C604,611.4,604.1,614.4,606.5,617.3z M534.9,760.2c1.5-1.3,2.7-2.6,3.2-4.4c0.5-1.7,0.3-3.5-0.7-5.1c-0.6-0.8-1.4-1.6-2.4-1.2
		c-0.7,0.3-1.5,1-1.7,1.7C532.4,754.4,532.7,757.4,534.9,760.2z M554.1,707.8c-0.2,1.8,0.5,3,1.9,3.6c1.7,0.7,3.3,0.5,5-0.8
		C559.2,708.3,557.1,707.5,554.1,707.8z M571.3,653.1c1.4-1.2,2.7-2.4,4.1-3.6C572.8,648.3,572,649,571.3,653.1z"/>
</g>
</svg>
