<?xml version="1.0" encoding="utf-8"?>
<!-- Generator: Adobe Illustrator 23.0.4, SVG Export Plug-In . SVG Version: 6.00 Build 0)  -->
<svg version="1.1" id="Layer_1" xmlns="http://www.w3.org/2000/svg" xmlns:xlink="http://www.w3.org/1999/xlink" x="0px" y="0px"
	 viewBox="0 0 1008 1008" style="enable-background:new 0 0 1008 1008;" xml:space="preserve">
<g>
	<path d="M470.3,545.8c-1.3-0.9-2.4-1.7-3.6-2.5c-8.2-5.8-11.2-14.5-8.3-24c1.1-3.8,2.9-7.3,5-10.6c6.3-9.4,13.9-17.8,22.8-24.8
		c4.6-3.6,9.8-6.3,15.6-7.6c2.1-0.5,4.2-1.2,6.2-1.8c5.3-1.5,9-4.7,11-9.8c1.6-4.1,3.2-8.2,4.5-12.4c6.2-19.2,12.1-38.6,19.6-57.4
		c5.4-13.6,11.9-26.7,20.4-38.7c7.6-10.7,16.4-20,27.3-27.4c1.6-1.1,3.3-2,5-2.9c6.8-3.6,13.9-4.5,21.4-2.4c2.4,0.7,4.8,1.3,7.4,2.1
		c-0.2-0.7-0.3-1.3-0.5-1.8c-2.5-7.7,2.2-14.6,10.3-15c2.1-0.1,4.3,0.1,6.4,0.6c7.2,1.8,13.6,5.1,18.9,10.4c6,6,8.7,13.1,7.6,21.5
		c-0.3,2.6,0.2,4.7,1.7,6.7c4,5.6,8.9,10.3,14.2,14.6c0.6,0.5,1.5,0.8,2.6,1.5c-0.2-0.8-0.2-1.3-0.4-1.7c-1.5-2.5-3-5.1-4.6-7.6
		c-1.6-2.5-3.4-4.9-4.8-7.4c-5-9.1-2.9-18.8,5.5-25.1c4.2-3.1,8.9-5.1,13.8-6.6c10.1-3.2,20.5-4.9,31-5.9c8.1-0.7,16.1-1,24.2-0.8
		c9.9,0.3,19.8,0.8,29.7,1.4c2.1,0.1,4.1,0.7,6.1,1.2c6,1.6,9.8,5.8,12.3,11.2c1.4,3,2.6,6,3.8,9.1c2.6,6.5,6.5,12.1,11.4,17.1
		c0.2,0.2,0.4,0.3,0.7,0.5c0.3-0.3,0.6-0.6,0.9-1c5.1-6.2,11.7-8.2,19.3-6.2c2.9,0.8,5.8,1.9,8.4,3.4c15.5,9.1,28.5,20.9,37.7,36.5
		c4.6,7.8,7.8,16.1,8.7,25.2c0.8,8.2-0.1,16-5.1,22.9c-1.8,2.5-4.2,4.6-6.4,6.8c-1.4,1.4-3,2.7-4.6,3.8c-6.1,4.2-9.5,10.1-11,17.1
		c-1.6,7.4-3,14.9-4.2,22.4c-1.7,11-2.6,22.1-2.9,33.2c-0.5,16.7,0.3,33.4,2.7,50c0.3,1.8,0.5,3.6,0.7,5.5c0.3,3.2-0.5,6-3.4,7.9
		c-0.6,0.4-1,1.2-1.4,1.9c-1.7,3.5-4.4,4.9-8.1,3.7c-3.7-1.3-6.7-0.3-9,2.6c-1.8,2.3-3.3,4.9-4.7,7.5c-1.9,3.8-3.5,7.7-5.4,11.5
		c-3.8,7.6-9.8,13-17.4,16.5c-4.5,2-9.2,3.8-13.7,5.7c-1.8,0.7-3.5,1.5-5.3,2.3c-4.2,2-8.1,4.4-11.6,7.6c-3,2.7-6.6,2.8-9.4,0.5
		c-3.1-2.5-3.9-6.5-2.1-9.9c0.1-0.3,0.3-0.6,0.5-0.8c2.8-3.2,2.3-6.4,0.2-9.7c-1.8-2.9-4.2-5.3-7-7.2c-2.6-1.8-5.2-3.5-7.9-5
		c-9.8-5.6-19.6-11.1-29.5-16.6c-2.4-1.4-5-2.4-7.6-3.6c-7.6-3.3-15.5-3.8-23.4-1.4c-13.1,4.1-26,8.8-38.1,15.7
		c-6.7,3.8-12.9,8.4-17.8,14.5c-5,6.2-8.4,13.2-9.4,21.2c-0.4,3.5-0.1,7,0.8,10.5c0.2,1,0.8,1.4,1.7,1.8c14,4.9,21.3,15.3,24.2,29.4
		c0.9,4.7,0.8,9.4-0.5,14c-2.7,9.4-11.3,15.9-20.8,15.7c-3.4-0.1-6.4-1.2-9.2-3.1c-1.8-1.2-3.5-2.5-5.3-3.8
		c-5.1-3.9-10.8-5.3-17.1-5c-5.2,0.2-10.1,1.4-15,2.8c-0.6,0.2-1.4,0.7-1.5,1.3c-1.9,6.4-6.6,10-12.3,12.7c-4.4,2-9.1,3-13.9,3.6
		c-10.8,1.5-21.5,3-32.3,4.2c-8.9,0.9-17.8,1.4-26.8,1.8c-5.4,0.3-10.9,0.3-16.3,0.3c-3.6,0-7.2-0.6-10.5-2.2
		c-5.9-2.8-9.2-9-8.1-15.4c0.6-3.5,2.6-6.2,5.8-7.8c1.7-0.9,3.5-1.4,5.4-2c3.4-1.1,4.7-3,4.3-6.7c-0.4-3.6-1.9-6.7-4.8-8.8
		c-2.2-1.6-4.7-3.1-7.2-4.2c-5.2-2.1-10.5-3.9-15.7-5.8c-12.4-4.6-22.1-12.4-28.9-23.7c-8-13.3-8.3-27.1-1.8-41
		c3.8-8.1,9.3-15.1,15.4-21.6c7.9-8.4,16.1-16.7,24.1-25.1C464.2,552.4,467.2,549.2,470.3,545.8z M640.7,325.2
		c-0.2,1.5-0.2,2.6-0.4,3.7c-0.4,3-1.7,5.6-3.8,7.8c-3.4,3.5-7.7,4.6-12.3,4.1c-3.6-0.4-7.2-1.3-10.8-2.3c-4.3-1.1-8.3-0.7-12,1.7
		c-3.3,2.2-6.7,4.4-9.7,7.1c-9.2,8.2-16.7,17.9-22.8,28.5c-6.8,11.8-12.1,24.3-16.5,37.2c-5.4,15.8-10.6,31.7-15.9,47.5
		c-1.7,4.9-3.3,9.8-5.8,14.4c-3.1,5.7-7.6,9.8-13.7,12.1c-3,1.1-6,2.1-9.1,2.9c-6.2,1.6-11.6,4.6-16.2,9c-4.5,4.3-8.8,8.9-13.1,13.4
		c-1.3,1.3-2.4,2.8-3.3,4.4c-1,1.7-1.9,3.6-2.4,5.5c-1.2,4.1-0.1,6.7,3.3,9.1c0.8,0.6,1.6,1,2.4,1.6c0.9,0.6,1.8,1.1,2.6,1.7
		c5.3,4.1,6.8,9.7,3.9,15.8c-1.1,2.2-2.5,4.4-4.1,6.1c-9.7,10.2-19.6,20.2-29.5,30.3c-2.1,2.2-4.2,4.4-6.2,6.6
		c-4.4,4.9-8.3,10.2-10.8,16.3c-4.1,9.9-2.9,19.2,3.2,28c2.1,3,4.6,5.5,7.3,7.9c5.3,4.5,11.6,7.2,18.2,9.5c5,1.8,10,3.5,14.7,5.7
		c10.3,4.7,16.3,12.7,17,24.2c0.5,7.7-1.6,14.4-8.2,19.2c-0.2,0.1-0.2,0.4-0.4,0.8c1,0,1.7,0,2.5,0c7.3-0.3,14.5-0.5,21.8-1
		c7.8-0.6,15.6-1.3,23.4-2.2c7.5-0.9,15-2,22.6-3.1c4.2-0.6,8.4-1.4,12-3.8c1-0.6,1.4-1.2,1.2-2.5c-0.7-4.6,1.2-7.6,5.7-8.9
		c3.9-1.2,7.8-2.3,11.8-3.2c7.3-1.7,14.6-2.7,22.1-1.6c6.7,1,12.8,3.3,18,7.8c1,0.9,2.1,1.8,3.2,2.5c3.3,2.1,6.4,1.2,8-2.5
		c0.9-2.2,1.3-4.5,1.1-6.8c-0.7-6-3.2-11.2-7.6-15.4c-2.7-2.7-6-4.2-9.8-4.6c-3-0.4-5-2.1-6.3-4.6c-0.7-1.3-1.4-2.7-1.7-4.2
		c-0.7-3.3-1.5-6.7-1.8-10.1c-0.8-10.4,1.7-20,6.8-29c5.5-9.7,13.4-17.1,22.6-23.1c14.6-9.4,30.5-15.8,46.9-20.9
		c10.4-3.2,20.7-2.6,30.8,1.4c4.9,2,9.7,4.2,14.3,6.7c7.8,4.1,15.6,8.5,23.3,12.8c5.6,3.1,11.1,6.3,16,10.6
		c4.7,4.1,8.3,8.8,10.1,14.9c0.1,0.4,0.3,0.7,0.5,1.2c5.9-2.4,11.8-4.7,17.6-7.2c6.7-2.9,11.4-7.9,14.3-14.5c1-2.3,2-4.7,3.1-7
		c1.4-2.9,2.7-5.8,4.5-8.4c4.7-6.6,10.9-10.7,19.1-11.3c0.2,0,0.4-0.2,0.7-0.3c-0.2-1.6-0.3-3.2-0.6-4.8
		c-1.5-11.2-2.3-22.4-2.5-33.7c-0.2-14.6,0.5-29.1,2.1-43.6c1.1-10,2.8-19.9,5.4-29.7c2.9-10.8,8.1-19.9,17.6-26.3
		c1.7-1.1,3.2-2.6,4.7-4.1c2.4-2.4,3.9-5.2,4.5-8.6c0.6-3.4,0.4-6.8-0.2-10.2c-1.2-6.1-3.7-11.7-7.1-16.9c-8.4-13-19.5-23-33-30.5
		c-1-0.6-2.2-1-3.4-1.2c-1.8-0.4-3.1,0.4-4,1.9c-0.5,0.9-0.6,1.9-0.5,3c0.2,3.5-1.1,6.3-4.1,8.1c-2.8,1.8-5.5,0.9-8-0.9
		c-10.2-7.2-18.5-16.2-24-27.6c-1.7-3.5-3.2-7.1-4.6-10.8c-1.2-3-3-4.8-6.3-5c-4-0.2-8-0.6-12-0.7c-7.3-0.3-14.5-0.7-21.8-0.7
		c-5.7,0-11.3,0.3-17,0.7c-9.8,0.7-19.5,2.6-29,5.3c-3,0.8-5.9,2.1-8.4,4c-2.6,1.9-3.1,3.7-1.6,6.6c0.9,1.7,2.1,3.2,3.2,4.8
		c1.9,2.9,4,5.8,5.8,8.8c1.9,3.3,2.9,6.9,2.9,10.8c0,8.1-6.6,15-16.3,14.3c-3.7-0.3-7-1.6-9.9-3.9c-3-2.4-5.9-4.9-8.7-7.5
		c-4.3-4.1-8.2-8.6-11.3-13.6c-2.4-3.8-3.3-7.9-2.7-12.4c0.1-0.6,0.2-1.1,0.2-1.7c0.4-4-0.7-7.4-3.7-10.1
		C646.6,328,643.9,326.5,640.7,325.2z"/>
	<path d="M530.2,200.9c-1.2-0.1-2.3-0.2-3.3-0.3c-8.7-1-11.7-8.7-10.7-14.6c1.4-7.9,8.3-12.3,16.3-10.1c2.4,0.6,4.6,1.8,6.9,2.8
		c1.2,0.5,2.4,1.2,3.8,1.9c2.3-3.2,1.6-6.6,1.4-9.7c-3.9-0.8-7.6-1.5-11.2-2.5c-3.2-0.9-6-2.7-8.2-5.2c-2.7-2.9-3.2-6.4-2.2-10.1
		c1.3-4.6,6-6.9,10.9-5.6c3.1,0.8,5.4,2.8,7.3,5.2c1.2,1.5,2.2,3.1,3.3,4.7c0.5,0.7,0.9,1.4,1.7,2.7c0.3-1.4,0.5-2.2,0.6-3.1
		c0.1-1.2,0-2.4,0.3-3.6c0.3-1.2,0.8-2.5,1.5-3.5c2.1-2.8,4.9-2.9,7.3-0.3c4.1,4.4,8.2,8.8,12.4,13c2.9,2.9,6.1,5.4,9.2,8
		c1.1,0.9,2.5,1.7,4.1,1.8c0.7-1.6,0.4-3-0.1-4.3c-0.7-1.8-1.5-3.5-2.4-5.2c-4.2-7.6-9.7-14.3-15.2-20.9c-0.7-0.8-1.7-1.4-2.6-2.1
		c-10.1-7-19.5-14.8-27.6-24.1c-2.9-3.3-5.4-7-7.2-11c-1.2-2.7-1.9-5.4-1.4-8.4c0.9-5.5,5.7-7.8,10.6-5c3,1.7,5.6,3.9,7.9,6.5
		c7,7.8,13.7,15.9,18.7,25.2c1.2,2.2,2.1,4.5,3.2,6.7c0.8,1.5,1.8,2.9,2.8,4.4c0.2-0.1,0.3-0.2,0.5-0.2c-0.1-0.5-0.2-1-0.4-1.4
		c-0.7-2-1.5-4-2.2-6.1c-0.9-2.9-0.8-5.9,0.2-8.7c1.3-3.8,4.3-4.7,7.5-2.3c1.7,1.3,2.9,3,3.4,5.1c0.4,1.9,0.7,3.9,1,5.9
		c0.2,1,0.3,2,0.5,2.8c2.4-0.1,4.5-0.4,6.6-0.2c3.4,0.3,6.5,1.7,9.5,3.2c1.1,0.6,2.3,1.2,3.4,1.7c0.7,0.3,1.4,0.4,2.6,0.7
		c-0.6-2.4-1.1-4.3-1.7-6.2c-1.1-3.9-2.4-7.8-2.4-11.9c0-2,0-4,0.3-6c0.8-5.8,2.3-11.4,4-17c1-3.4,4.6-5.4,8.1-4.9
		c1.2,0.2,2.3,0.5,3.5,0.9c19.6,5.7,38.9,12.3,57.9,19.5c0.8,0.3,1.6,0.6,2.5,0.9c0.5-0.6,1-1.1,1.5-1.6c6.2-6.5,16.9-8.3,24.8-4.2
		c3.8,1.9,6.5,4.9,8.3,8.6c0.5,0.9,0.9,1.9,1.3,2.8c2.2,6.1,6.7,10.1,12.5,12.5c4.4,1.9,9,3.4,13.5,4.9c8.8,2.8,17.7,5.4,26.5,8.3
		c6.3,2.1,12.2,5.2,17.3,9.6c4.8,4.2,6.5,9.5,6,15.7c-0.2,2.5-0.8,5.1-1.4,7.5c-2.4,9.2-3.4,18.5-2.3,28c0.7,6.1,2.3,11.9,4.7,17.5
		c0.7,1.6,1.2,3.1,1.1,4.9c-0.3,5.3-5.4,8.6-10.3,6.5c-2.4-1-4.7-2.4-7-3.7c-9.1-5.2-17.8-11-26-17.5c-0.6-0.5-1.3-1-2.1-1.6
		c-0.2,0.5-0.4,0.8-0.4,1.2c0.7,15.6,2.9,30.9,10.2,45c4.2,8.1,9.4,15.6,15,22.8c0.8,1,1.6,2,2.4,3c2,2.8,2.2,5.8,1,8.9
		c-1.3,3.2-4.2,4.7-7.6,3.9c-4.4-1-8.6-2.3-13-3.2c-9.3-1.8-18.6-2-27.9-0.5c-4.3,0.7-8.7,1-13.1,1.2c-6.1,0.4-11.6-1.2-16.4-5.5
		c-0.6,0.7-1.2,1.3-1.8,1.9c-3.5,3.9-7.9,5.8-13.1,6c-4,0.2-8-0.5-11.8-1.7c-1.8-0.5-3.7-1-5.5-1.5c-2.4-0.7-4.4-0.2-6.2,1.9
		c-3.3,3.9-7.5,6.8-12.6,7.8c-3.1,0.6-6.4,0.8-9.5,0.7c-6-0.1-12,0-17.9,1c-2.6,0.4-5,1.5-7.5,2.3c-6,1.9-11.5,4.8-16.7,8.3
		c-8.7,5.9-16.3,13.1-23.2,21c-9.9,11.4-19.2,23.3-27,36.4c-6.3,10.6-10.7,22-14.7,33.5c-3.7,10.8-7.2,21.7-11.9,32.1
		c-4,8.9-8.9,17.2-15.6,24.3c-6.7,7.2-14.3,13-23.8,16.1c-5.8,1.9-11.7,2.4-17.7,0.4c-7.5-2.5-12.2-8.6-12.6-16.4
		c-0.2-3.7-0.2-7.5-0.1-11.3c0.1-4.2-1.2-7.8-3.6-11.2c-4.2-5.9-9.4-10.9-15-15.4c-7.8-6.2-15.7-12.1-24.1-17.5
		c-1.6-1-3.3-1.9-5-2.9c-1.2-0.7-2.4-1.4-3.4-2.3c-2.8-2.4-2.2-6.2,1.1-7.8c1.7-0.8,3.4-0.8,5.1-0.3c4.1,1.1,7.9,3,11.5,5.2
		c7,4.3,13.2,9.6,19.4,14.9c2.8,2.5,5.6,5,8.8,7.8c-0.2-1.5-1-2.1-1.5-2.7c-7.8-10.2-15.1-20.6-21.6-31.7c-4.2-7.1-8-14.4-10.4-22.4
		c-0.8-2.8-1.5-5.6-1.3-8.5c0.1-1.5,0.4-3,1-4.4c1.4-3.5,4.2-4.9,7.7-3.8c2.2,0.7,4.3,1.7,6.3,2.9c4.4,2.7,8.4,6.1,12,9.9
		c8.8,9.1,17.5,18.4,26.4,27.5c5.1,5.3,10.3,10.5,15.6,15.6c2.2,2.1,4.7,3.8,7.3,5.5c1,0.7,2.3,1.1,3.5,1.3c1.9,0.3,2.8-0.7,2.4-2.5
		c-0.5-1.9-1.1-3.9-2.1-5.6c-2.2-4.1-4.5-8.3-7.1-12.2c-5.2-7.8-10.7-15.3-16.1-23c-0.8-1.1-1.8-2-3-2.6c-3.5-1.9-6.4-4.5-8.5-7.9
		c-3.9-6.5-2.1-15.5,4.1-20c4.5-3.3,9.1-1.9,11.2,3.3c1.6,4,0.6,7.7-1.3,11.3c-0.5,1.1-1.3,2-2.1,3.3c2.4,2,4.7,3.9,7.9,4.5
		c2.7,0.5,4.4-0.8,5-3.5c0.6-2.5,0.2-4.9-0.2-7.4c-1-5.8-3-11.3-5.2-16.7c-0.9-2.1-0.6-3.9,0.9-5.3c1.3-1.2,3.1-1.3,5.1-0.1
		c3.2,2,6.3,4.1,9.5,6.1c1.3,0.8,2.7,1.3,4.3,2.1c0.2-2-0.6-3.2-1.6-4.2c-1.9-2-4-3.9-6-5.9c-1.3-1.3-2.8-2.4-4.1-3.7
		c-1.6-1.6-1.7-3.3-0.5-5.2c1.1-1.7,2.5-2.3,4.3-1.5c2.2,1,4.3,2.4,6.5,3.6c2.9,1.6,5.6,3.3,8.6,4.8c1.4,0.7,3,0.9,4.6,1.1
		c1.3,0.1,1.9-0.7,1.5-2c-0.2-0.8-0.6-1.5-1-2.2c-2.8-4.5-6.8-7.8-10.7-11.3c-0.9-0.8-1.8-0.3-2.7-0.1c-4.1,1-7.9,0.4-11.5-1.8
		c-2.6-1.6-4.3-4-5-7.1c-0.6-2.8,0.8-4.7,3.7-4.9c2.1-0.1,4,0.3,5.8,1.2c2.1,1.1,4.2,2.4,6.2,3.6c0.7,0.4,1.3,0.8,2.1,1.3
		c1.5-1.3,2.2-2.8,2.1-4.5c-0.1-2.1-0.4-4.1-0.9-6.1c-0.7-3.2-1.8-6.3-2.5-9.5c-0.9-4.9-0.8-9.9,0-14.9c-0.9-0.8-1.9-1.6-2.9-2.4
		c-3.4-3.1-5.7-6.9-7.5-11c-4.6-10.5-6.4-21.6-4.9-33c0.3-2.3,1-4.5,1.9-6.6c1.7-3.9,5.1-5,8.7-2.7c2.5,1.7,5,3.5,7,5.8
		c5.3,6,10.3,12.2,15.4,18.4c3.8,4.6,7.7,9.2,12.4,13c2.5,2.1,5.2,3.9,8.3,5.2c3.7,1.5,5.1,0.6,5.4-3.4c0.3-3.4-0.5-6.5-1.8-9.6
		c-2.6-6.1-6.2-11.5-10.3-16.7c-4.9-6.3-10.2-12.3-15.9-18c-4.7-4.7-9.4-9.4-14-14.2c-0.8-0.8-1.5-1.7-2-2.7c-0.8-1.7-0.3-3.8,1-4.8
		c1.2-1,2.9-0.9,4.6,0.6c5.1,4.5,10.2,8.9,15.3,13.5c9.8,8.9,19.5,17.8,29.2,26.7c0.6,0.5,1.2,1,1.9,1.4
		C536.1,214.5,533,207.8,530.2,200.9z M766.8,207.3c0-0.5,0.1-0.7,0.1-1c-1.8-12.4-1.4-24.7,2.6-36.7c0.4-1.1,0.6-2.3,0.8-3.5
		c0.3-1.8-0.2-3.5-1.7-4.8c-1-0.8-2-1.6-3.1-2.2c-2.6-1.3-5.3-2.8-8-3.7c-7-2.4-14.1-4.6-21.2-6.7c-6.7-2-13.5-3.9-20-6.7
		c-9.5-4.2-16.7-10.6-20.9-20.1c-0.4-0.9-0.9-1.9-1.5-2.8c-1.6-2.4-4.5-2.9-6.9-1.3c-1.3,0.9-1.8,2.1-2.3,3.5
		c-0.4,1.2-0.9,2.5-1.8,3.3c-2.4,2.4-5.2,3.1-8.5,1.8c-19.1-7.5-38.5-14.2-58.2-20.2c-0.8-0.2-1.6-0.4-2.5-0.7
		c-2.4,7-3.7,13.9-4.5,21c-0.4,3.8-0.9,7.6-2.9,11c-0.7,1.3-1.7,2.1-3.1,2.3c-1,0.2-2.1,0.2-3.1,0.2c-3.4-0.2-6.5-1.6-9.7-2.7
		c-2.6-0.9-5.3-1.8-8-2.5c-1-0.3-2.5-0.2-3.2,0.4c-1,0.9-0.2,2.3,0.3,3.3c1.3,2.3,2.6,4.6,4,6.8c0.6,1.1,1,2.2,0.1,3.4
		c-0.9,1.2-2,1.4-3.4,1c-1.9-0.6-3.7-1.2-5.9-1.9c0.6,0.9,1.1,1.5,1.5,2.1c1.9,2.7,4,5.4,5.8,8.2c2.3,3.6,4.3,7.3,5.2,11.5
		c1,4.3-1.1,7.8-5.3,8.7c-1.6,0.4-3.3,0.3-5,0.2c-2.8-0.3-5.3-1.6-7.7-3.1c-5.9-3.7-10.5-8.8-15-14c-0.4-0.5-0.9-1-1.7-1.8
		c0.1,3.5-0.9,6.1-2.9,8.3c-0.8,0.9-1,1.7-0.8,2.8c0.5,4.2,0.4,8.3-0.5,12.4c-0.3,1.3,0,2.3,0.8,3.3c1.3,1.9,2.6,3.8,3.7,5.9
		c1.1,2.1,1.6,4.3,1.5,6.7c-0.3,4.2-2.7,7.2-6.8,8.3c-3,0.8-5.9,0.1-8.6-1.1c-0.5-0.2-1-0.4-1.7-0.7c2.8,7.2,5.6,14,8.3,21
		c1.1,3,2.9,5.5,5.1,7.7c4.3,4.2,8,9,11.2,14c3.9,6.1,7.4,12.5,9,19.8c0.8,3.9,1,7.8-1.3,11.4c-1.7,2.7-4.4,3.7-7.5,2.9
		c-2.4-0.6-4.2-2.2-5.8-4c-3.8-4.4-6.2-9.6-7.6-15.1c-1.8-7-3.3-14-4.8-21c-0.7-3.2-1.9-5.9-4.3-8.1c-3.2-3-6.4-6-9.6-9
		c-0.3-0.3-0.8-0.5-1.6-1.1c1,2,1.8,3.3,2.5,4.8c2.4,5.1,4.9,10.1,5,15.9c0.1,4.2-0.5,8.3-2.8,12c-1.6,2.6-4,4-7.2,4.1
		c-3.3,0-6-1.4-8.7-3.1c-5.6-3.5-10.2-8.3-14.2-13.5c-3.4-4.4-6.5-8.9-9.8-13.3c-3.6-4.7-7.2-9.4-10.9-14c-1.2-1.5-2.7-2.6-4.2-3.9
		c-1,2.1-1.5,5.4-1.4,8.4c0.3,5.3,1,10.5,2.3,15.6c1.7,6.4,3.8,12.7,7.7,18.2c0.5,0.7,1,1.3,1.6,2.1c0.9-1.2,1.5-2.2,2.3-3.1
		c2.5-2.8,5.5-3.8,9.1-2.7c2.8,0.8,3.7,3,4.2,5.6c0.4,2.3-0.5,4.1-2.2,5.5c-2.4,1.8-5.1,2.7-8.1,2.3c-0.6-0.1-1.2-0.1-1.9-0.2
		c0,2.8-0.1,5.4,0,8c0.3,4.9,1.5,9.6,2.8,14.3c1.4,4.9,1.9,9.7-1.2,14.3c0,0.1,0,0.2-0.1,0.5c0.8,0.7,1.7,1.6,2.6,2.5
		c2.8,2.8,5.7,5.6,8.4,8.6c1.3,1.5,2.3,3.5,3,5.4c1.7,4.6-0.2,8.2-4.7,10c-2.5,1-5,0.8-7.5,0.2c-1-0.2-1.9-0.5-3.1-0.8
		c0.4,1.4,0.7,2.4,0.9,3.4c0.8,4.1-1.2,7.1-5.3,7.9c-2.6,0.6-5.1-0.1-7.4-1.2c-1.8-0.9-3.5-1.8-5.4-2.7c0.7,3.5,1.5,6.8,2,10.1
		c0.4,2.4,0.6,4.8,0.5,7.2c-0.3,6.2-3.5,9.9-9.9,11.9c0,0.2-0.1,0.4,0,0.5c0.4,0.5,0.7,1,1.1,1.6c6.2,8.2,12.2,16.6,17.2,25.7
		c2.1,3.8,4,7.7,5.1,11.9c0.7,2.9,1,5.8-0.8,8.6c-2.9,4.5-7.2,6.3-12.4,5c-4.3-1.1-8-3.1-11.6-5.6c-6-4.2-11.5-9-16.5-14.2
		c-8.2-8.5-16.1-17.3-24.1-26c-4.6-5-9.1-10.1-13.7-15.1c-0.9-1-2-2.1-3.7-2.7c-0.1,1.1-0.4,2.1-0.3,3c0.2,1.4,0.4,2.9,1,4.2
		c1.8,4.1,3.6,8.2,5.7,12.1c6.8,12.3,14.8,23.7,23,35.1c5.4,7.5,10.6,15.2,15.9,22.8c2.6,3.7,4.1,7.8,4.4,12.3
		c0.2,2.5,0.1,5.1,0.1,7.7c0,2.2-0.2,4.3,0,6.5c0.3,3.6,2.7,5.4,6.3,4.8c1.7-0.3,3.4-0.8,5.1-1.4c6.1-2.5,11.5-6.3,16.1-11.1
		c6-6.3,10.3-13.7,13.9-21.4c4.4-9.5,7.7-19.5,11-29.4c3.7-10.9,7.5-21.7,13-31.9c9.8-18.3,22.6-34.3,36.9-49.2
		c5.7-6,12-11.2,18.3-16.6c7.5-6.4,15.9-10.9,25.4-13.5c9.1-2.5,18.4-3.6,27.8-2.5c5,0.6,9-0.3,12.2-4.7c2.6-3.6,6.5-5.5,11.1-6
		c3.3-0.4,6.5,0.2,9.7,1c3,0.7,6,1.7,9,2.5c2.8,0.8,5.2,0.2,6.9-2.4c0.4-0.7,0.9-1.3,1.5-1.9c3.3-3.6,7.2-5.5,12.2-4.7
		c2.9,0.5,5.2,1.9,7.3,3.9c2.4,2.3,5.3,3.1,8.6,2.6c4.3-0.6,8.7-1.2,13.1-1.7c6.9-0.7,13.7-0.6,20.6,0c0.6,0.1,1.2,0,2.1,0
		c-0.9-1.4-1.5-2.4-2.1-3.4c-5.5-8.8-9.9-18.1-12.5-28.2c-1.9-7.2-3-14.5-3.7-22c-0.9-9.9-1.2-19.8-1.2-29.7c0-3.2,1.6-5.5,4.5-6.7
		c2.9-1.2,5.6-0.9,8.1,1.2c0.6,0.5,1.2,1.1,1.8,1.6c7.6,7.3,15.8,13.8,24.5,19.7C765.3,206.5,766,206.9,766.8,207.3z M557.5,125.7
		c0.1-0.1,0.2-0.2,0.3-0.3c-0.2-0.4-0.4-0.9-0.6-1.3c-4.1-7-8.7-13.6-13.9-19.8c-2.3-2.7-4.8-5.1-7.4-7.5c-0.9-0.8-2.1-1.5-3.3-1.8
		c-1.5-0.4-2.4,0.5-2,2c0.4,1.4,1,2.7,1.8,3.9c1.7,2.3,3.5,4.6,5.4,6.7c5.8,6.4,12.4,12,18.9,17.7
		C557,125.4,557.3,125.5,557.5,125.7z M549.8,246.2c-0.1,0.6-0.1,0.9-0.1,1.2c0.9,7.7,2.5,15.1,6,22c1.2,2.4,2.8,4.5,4.9,6.1
		c0.6,0.5,1.4,0.9,2.3,1.4C563.4,271.3,554.8,251.2,549.8,246.2z M538.2,186.3c-3.5-2.2-7.1-3.5-11-3.6c-2.8-0.1-4.1,2.1-3.1,4.7
		c1,2.6,3.9,4,6.9,3.2C533.6,190,535.8,188.4,538.2,186.3z M545.2,192.5c-2.6,2.4-5.1,4.6-7.7,6.9c1.5,1.3,3.1,2.5,5.1,3.2
		c1.7,0.6,3.4,0.5,4.7-0.8c1.3-1.3,1.5-3,0.9-4.7C547.7,195.2,546.6,193.7,545.2,192.5z M541.3,160.7c-1.8-3.4-3.4-6.3-6.6-7.9
		c-0.9-0.5-2-0.8-3-0.8c-1.8,0-2.6,1.3-1.9,2.9c0.2,0.5,0.5,1,0.9,1.4C533.6,159,536.9,160.4,541.3,160.7z M456.1,348
		c1.6-0.9,2.5-2.2,3.1-3.7c0.7-1.9,0.6-3.8-0.5-5.5c-0.5-0.7-1.5-1.3-2.3-1.3c-1-0.1-1.6,0.9-1.8,1.9
		C453.7,342.5,454.2,345.3,456.1,348z M492,260.4c1.1,0.2,2,0.5,2.9,0.6c2,0.2,3.2-0.8,3.4-2.8c0.2-1.4-0.2-1.9-1.6-2
		C494.5,255.9,493,257.2,492,260.4z M475.3,296.1c0.8,2.8,3.1,3.7,5.8,2.4C479.3,296.4,477.9,295.8,475.3,296.1z M570.9,121.3
		c-0.2,0-0.4,0-0.5,0.1c-0.3,3.3,0,5.6,1.6,7.9C571.5,126.2,571.2,123.7,570.9,121.3z"/>
	<path d="M296.9,776.4c-1.3,1-2.4,1.8-3.4,2.7c-5.5,4.6-10.8,9.2-16.4,13.7c-7.7,6.1-16.2,10.9-24.9,15.4
		c-19.3,9.9-38.7,19.8-58.1,29.6c-7.5,3.8-15,7.5-23,10.1c-5.9,1.9-12,3.4-18.3,3.5c-6.6,0.1-11-3.1-13.6-9.1
		c-2.1-4.7-2.4-9.7-2.1-14.8c0.6-9.1,3.6-17.2,9.7-24c1.3-1.5,2.5-3.1,3.8-4.6c3.2-3.6,3.9-7.8,2.8-12.4c-1-4-2.3-7.8-3.3-11.8
		c-0.7-2.8-1.5-5.6-1.8-8.4c-1.5-10.9,3.4-19.5,13.4-24c4.5-2,9.3-3,14.1-3.8c1.7-0.3,3.5-0.6,5.2-1c5.6-1.2,10-4.2,13.2-8.9
		c4.1-6,7-12.6,9.3-19.4c6.7-20.1,9.9-40.8,9.1-62.1c-0.2-6-1-11.9-1.6-17.9c-0.8-8.3-1.4-16.6,0.3-24.8c1.2-6,3.6-11.4,7.4-16.2
		c7.8-9.9,17.9-13.5,30.2-10.8c5.9,1.3,11.3,3.8,16.8,6.2c4.6,2,9.3,3.8,14.3,4.6c7.8,1.2,15.5,0.8,23.1-0.8
		c11.3-2.3,22.2-6,33.1-9.6c7.6-2.5,15.2-5,22.9-7.1c5.7-1.6,11.7-2,17.5-0.4c8.3,2.2,14.1,8.9,15.2,17.6c0.5,4.1,0.2,8.2-0.4,12.2
		c-0.9,6.9,0.7,13,5.1,18.4c3,3.6,6.2,6.9,9.3,10.3c5,5.5,9.2,11.5,11.4,18.6c2,6.5,1.5,12.8-0.7,19.3c-3.4,9.9-9.6,17.8-16.5,25.3
		c-18.2,19.9-36.4,39.8-55.6,58.6c-10.9,10.7-22.2,21-33.9,30.8c-1.5,1.3-3.1,2.2-5.1,2.4C301,784.5,297.9,781.8,296.9,776.4z
		 M311.3,761c0.4-0.3,0.8-0.6,1.2-0.9c13.9-12.4,27.3-25.4,40.1-38.9c10.7-11.3,21.3-22.8,31.9-34.2c4-4.3,7.8-8.6,11.5-13.2
		c3.2-3.9,5.4-8.5,6.5-13.5c0.2-0.8,0.4-1.8,0.9-2.5c0.8-1.2,0.8-2.4,0.6-3.7c-0.5-2.9-1.6-5.6-3.4-7.9c-2.9-3.7-6-7.3-9.2-10.8
		c-3.4-3.7-6.8-7.4-9.6-11.7c-2.7-4.2-4.9-8.7-5.3-13.7c-0.3-3.7-0.1-7.5,0-11.2c0-2.8,0.4-5.6,0.2-8.4c-0.2-3.1-2-5-5.1-5.5
		c-1.5-0.3-3-0.4-4.5-0.2c-2.5,0.3-5.1,0.7-7.5,1.5c-9,2.8-18,5.7-26.9,8.6c-11.8,3.9-23.6,7.7-36,9c-8.8,0.9-17.4,0.6-25.8-2.4
		c-4.4-1.6-8.8-3.5-13.2-5.1c-3.8-1.4-7.6-3-11.5-4c-7-1.8-13.3,1-17.1,7.1c-1.5,2.5-2.5,5.2-3.1,8c-1.5,6.8-1.1,13.7-0.2,20.5
		c1.3,10.2,2.1,20.5,1.8,30.8c-0.6,20-4.3,39.4-11.1,58.1c-2.3,6.3-4.9,12.5-8.5,18.2c-5.3,8.4-12.6,14.2-22.4,16.4
		c-3.4,0.8-6.9,1.5-10.3,2.3c-2.4,0.6-4.8,1.1-7.2,2c-3.9,1.4-5.5,4.1-5,8.2c0.2,1.5,0.5,3,0.9,4.5c1.2,4.3,2.6,8.6,3.6,12.9
		c0.7,2.7,1.1,5.5,1.3,8.3c0.5,6-1.2,11.4-4.8,16.2c-2.5,3.3-5.1,6.4-7.5,9.7c-4.5,6.3-5.6,13.2-3.2,20.8c2.7,0.2,5.3-0.5,7.8-1.2
		c8.2-2.4,16.1-5.7,23.7-9.7c18.4-9.5,36.8-18.9,55.2-28.4c6.1-3.2,12.1-6.5,18.1-9.8c8-4.5,14.9-10.5,21.8-16.5
		c5.9-5.1,12-10.1,18.9-13.8c5.1-2.8,8.9-1.6,11.8,3.5C310.9,760.6,311,760.7,311.3,761z"/>
	<path d="M552.9,766.7c0.1-5,1.9-10.1,5.2-14.7c5.4-7.6,12.3-13.6,19.9-18.9c10.4-7.2,22-12.1,34.1-15.6c11-3.2,22.1-5.9,33.1-8.9
		c18.1-4.9,35.6-11.3,52.9-18.5c20.4-8.5,40.2-18.2,59.2-29.4c7.1-4.2,13.7-9.2,19.3-15.3c5.2-5.7,11.8-8.7,19.5-8.9
		c4.3-0.1,8.6,0.7,12.7,2.1c12.7,4.3,22.5,12.3,29.5,23.7c2.2,3.6,3.7,7.4,3.8,11.7c0.1,4.3-1.5,7.8-4.4,10.8
		c-2.8,2.9-6.2,5-9.9,6.6c-7,3.2-14.3,5.6-21.8,7.2c-9.2,1.9-18.5,3.7-27.8,5.2c-15.6,2.4-30.7,6.9-45.5,12.4
		c-11.9,4.4-23.8,8.8-35.8,13.2c-13.8,5-28,8.4-42.3,11.6c-12.4,2.8-24.8,5.5-36.9,9.6c-10.4,3.5-20.3,8.2-29.1,14.8
		c-5.4,4.1-10.1,8.8-13.9,14.4c-1.6,2.4-3.6,4-6.7,3.9c-0.3,0-0.6,0.1-0.9,0.2c-3.6,1.1-6.6,0-9.1-2.8
		C554.4,777.3,552.8,772.7,552.9,766.7z M827.3,674c-1.1-2-2.1-3.8-3.2-5.5c-5.4-8.1-12.7-13.6-22.1-16.3
		c-6.3-1.8-11.5-0.5-15.5,4.8c-3,3.9-6.6,7.2-10.6,10c-4.3,3-8.7,5.9-13.2,8.7c-12.5,7.6-25.6,13.7-38.9,19.8
		c-29,13.3-58.7,24.4-89.7,31.9c-10.8,2.6-21.5,5.6-31.8,9.9c-11.4,4.7-21,11.8-29.4,20.7c-0.6,0.6-1.1,1.4-1.7,2.1
		c0.1,0.1,0.3,0.2,0.4,0.3c0.6-0.5,1.2-1,1.8-1.5c2.5-2.1,5-4.3,7.6-6.2c9.6-7.1,20.4-11.9,31.6-15.7c12.5-4.2,25.3-7.2,38.2-10.1
		c17.6-3.9,34.8-8.9,51.7-15.3c11.7-4.4,23.4-8.7,35.1-12.8c11.7-4.1,23.6-7.4,35.9-9.5c9.1-1.5,18.1-3,27.1-4.8
		c8.4-1.6,16.6-4.2,24-8.6C825.4,675.3,826.2,674.6,827.3,674z"/>
	<path d="M743.6,645c0.2,3-0.9,5.8-2.6,8.4c-2.7,4.1-6.2,7.5-9.7,10.9c-1.1,1.1-2.3,2-3.2,3.2c-2.2,2.6-5,4.2-8,5.4
		c-2.4,1-4.9,0.9-7.2-0.2c-3-1.4-4.2-4.3-3.5-7.6c0.5-2,1-4,1.1-6.1c0.3-3.8-1.4-6.8-4.1-9.3c-1.1-1-2.4-1.8-3.6-2.8
		c-2-1.6-4.1-3.1-5.8-5c-5.8-6.2-5.9-14-0.1-20.2c1-1.1,1-2,0.6-3.2c-1.9-5.7-2-11.4,0-17.2c1.3-3.9,3.5-7.3,6.6-10.1
		c5.4-5,12-5.4,18-1.2c4.2,3,7,7.1,9,11.9c2.1,4.9,2.8,10.1,3.9,15.3c0.8,3.8,1.6,7.5,2.7,11.2c0.8,2.4,2.1,4.7,3.2,6.9
		C742.4,638.3,743.7,641.4,743.6,645z M724.1,649.7c1.5-1.5,2.6-2.5,3.6-3.6c1.3-1.4,1.3-1.8,0.2-3.3c-2.4-3.2-3.9-6.8-4.9-10.6
		c-1.2-4.5-2-9-2.9-13.6c-0.8-4.1-1.6-8.3-3.5-12.1c-0.6-1.3-1.3-2.5-2.7-3.2c-2.3,2.2-3,4.7-2.4,8.4c0.3,1.7,0.7,3.3,1.1,4.9
		c1.4,5.7,0.2,10.7-4.1,14.9c-0.1,0.1-0.1,0.3-0.2,0.6C714.5,636.9,721.3,641.2,724.1,649.7z"/>
	<path d="M646.5,628.9c0.1-5.3,2.2-9.6,6-12.8c2.3-1.9,4.8-3.5,7.3-4.9c2.7-1.5,5.6-1.3,8,0.8c2.5,2.2,3.6,4.9,2.8,8.4
		c-0.6,2.8-0.9,5.6-0.1,8.4c0.3,0.9,0.2,2.1,0.1,3c-1.2,6.8-5.8,10.4-12.7,10.1c-6-0.3-10.8-5-11.5-11.2
		C646.5,629.9,646.5,629.3,646.5,628.9z"/>
	<path d="M443.1,508.2c0.4-8.1,4-14.3,11-18.5c3.6-2.1,8.2-0.8,10.3,2.6c2.1,3.5,1.1,8.1-2.5,10.3c-2.8,1.7-4,4.1-3.7,7.2
		c0.4,4.5-4.4,8.6-9.2,7.6c-3.2-0.7-5.7-3.6-6-7.2C443,509.5,443.1,508.9,443.1,508.2z"/>
	<path d="M685.7,670.8c-5.6-0.2-10.5-2.1-14.7-5.7c-2.8-2.4-3.4-6.1-1.5-9.5c1.7-3.1,4.8-4.4,8.4-3.3c1.2,0.3,2.2,0.6,3.5,0.3
		c0.6-0.2,1.4-0.1,2.1,0.1c3.9,1.2,7.1,3.4,9,7C695.3,664.7,691.4,671,685.7,670.8z"/>
	<path d="M745.1,624.1c0.6-3,1.1-6.1,1.9-9.1c0.7-2.6,2.5-4.4,5.2-5.1c5.6-1.6,10.9,3.4,9.3,9c-0.8,2.7-1,5.4-0.8,8.3
		c0.2,3.4-2.1,6.3-5.7,7.3c-3.4,0.9-6.4-0.3-8.2-3.3C745.8,629.3,745.4,627.4,745.1,624.1z"/>
</g>
</svg>
