<?xml version="1.0" encoding="utf-8"?>
<!-- Generator: Adobe Illustrator 23.0.4, SVG Export Plug-In . SVG Version: 6.00 Build 0)  -->
<svg version="1.1" id="Layer_1" xmlns="http://www.w3.org/2000/svg" xmlns:xlink="http://www.w3.org/1999/xlink" x="0px" y="0px"
	 viewBox="0 0 1008 1008" style="enable-background:new 0 0 1008 1008;" xml:space="preserve">
<g>
	<path d="M267.4,153.7c6.2,0.5,8.5,1.4,12.8,4.8c0.4-0.7,0.8-1.3,1.2-2c3.8-6.8,8.1-13.2,13.2-19.1c2.1-2.4,4.3-4.5,7.1-6.1
		c1.4-0.7,2.9-1.3,4.5-1.5c2.9-0.4,5.2,1.4,5.7,4.3c0.2,1.5,0.1,3.3-0.4,4.7c-1.2,3.1-2.6,6.2-4.3,9.1c-6.9,11.4-14.7,22.3-23,32.7
		c-4.1,5.1-8,10.4-10.3,16.6c-1.2,3.2-2.1,6.5-2.2,10.1c0.5-0.7,1-1.3,1.5-2c3.4-4.4,6.7-8.7,10.2-13c1-1.3,2.3-2.4,3.6-3.5
		c1-0.8,2.1-1.5,3.2-2c3.1-1.3,6,0.2,6.9,3.4c0.7,2.6,0.7,5.3,0.2,7.9c-1.3,6.7-2.8,13.3-4.2,19.9c-0.3,1.3-0.5,2.6-0.5,4.2
		c0.9-0.8,2-1.6,2.7-2.6c2.6-3.5,5.2-7.1,7.7-10.7c1.1-1.6,2.1-3.2,3.2-4.8c5.4-8.6,13.4-13.5,23.1-15.9c8-2,16.1-2.2,24.3-1.8
		c0.6,0,1.1,0,1.7,0c0.1,0,0.3-0.1,0.7-0.2c0.4-1.8,1-3.7,1.4-5.6c1.1-6.3,2.3-12.6,3.2-18.9c0.3-2.3,0-4.6-0.1-6.9
		c-0.1-1.4-0.7-2.5-1.7-3.6c-1.9-1.9-1.3-4,1.3-4.7c1.5-0.4,3-0.3,4.4,0.5c2.2,1.3,3.5,3.2,4,5.7c0.4,2.2,0.7,4.4,1.1,6.9
		c0.6-0.8,1-1.4,1.4-2.1c2.6-4.2,5.8-7.6,10.2-9.9c3-1.6,6.2-2.5,9.7-1.9c3.3,0.6,5.7,2.4,7.3,5.3c1.6,2.9,2.2,6,2.4,9.2
		c0.6,9.4-1.2,18.5-4.1,27.3c-0.6,1.8-1.1,3.6-1.9,5.9c1.3-0.4,2-0.7,2.7-1c0.7-0.3,1.3-0.7,2-0.9c3.3-1,6.1-2.6,7.4-6.1
		c4.5-5.7,10.4-8.4,17.6-7.9c6.2,0.4,9.3,5,7.7,11.1c-0.9,3.2-2,6.4-2.9,9.7c-0.6,2.2-1,4.5-1.1,6.8c-0.1,2.6,1.3,3.3,3.5,1.9
		c3.4-2.1,5.5-5.5,8-8.5c3.5-4.3,4.8-9.4,5.7-14.7c1.7-9.4,4.4-18.5,8.2-27.3c1.7-4,3.8-7.8,6.6-11.1c1.2-1.4,2.6-2.9,4.2-3.8
		c1.4-0.9,3.2-1.5,4.9-1.6c4.5-0.3,7.5,2.7,7.1,7.3c-0.2,2.5-0.6,5-1.4,7.3c-4.8,12.7-10.3,25-19.3,35.4c-1.5,1.8-2.8,3.6-3.8,6.4
		c0.8-0.6,1.2-0.9,1.5-1.3c1.6-1.6,3.1-3.3,4.7-4.8c2.2-2,4.8-3.1,7.7-3.6c3.8-0.6,6,1.6,5.6,5.4c-0.2,2.2-1.2,4-2.8,5.4
		c-1.5,1.2-3.1,2.3-4.6,3.4c-1,0.7-2.1,1.4-3.2,2.2c4.7,4.8,4.7,10.7,4.6,16.6c0,1.7,0,3.3,0,5c1.3,0.3,1.9-0.4,2.6-0.9
		c3-2.4,5.5-5.4,7.6-8.6c4.8-7.4,7.9-15.7,11-23.9c0.2-0.6,0.1-1.6-0.2-2.2c-0.8-2.3-1.5-4.6-1.3-7c0.5-5.8,5.5-10.6,11.6-11.2
		c7.4-0.7,13.1,4.1,14,11.7c0.3,2.7,0.2,5.4,0.2,8.1c0,2.5,0.5,3.3,2.8,2.5c2.5-0.9,4.9-2.2,7.3-3.5c0.5-0.3,0.7-1.2,0.8-1.8
		c1.4-6.4,2.8-12.8,4.3-19.2c0.5-2.2,1.5-4.4,2.2-6.6c0.2-0.6,0.4-1.2,0.7-2c-5.7-1.1-11.1-2.4-16.6,0.2c-0.7,0.3-1.5,0.7-2.3,0.7
		c-0.7,0-1.6-0.3-2-0.8c-0.3-0.3,0.1-1.4,0.5-1.9c2.1-2.4,4.6-3.8,7.8-4.3c3.7-0.6,7.3-0.2,11,0.2c0.2,0,0.5,0.1,0.7,0.1
		c3.3,0.5,3.4,0.5,5-2.6c1.5-2.8,2.9-5.5,5.3-7.6c0.7-0.6,1.5-1.2,2.3-1.7c1.2-0.6,2.5-0.6,3.6,0.2c1.2,0.9,1.5,2.1,1.1,3.4
		c-0.6,1.7-1.3,3.4-2,5.1c-0.6,1.5-1.3,2.9-2,4.6c2.4,0.3,4.5,0.7,6.6,0.9c7,0.7,14,1.1,21-0.2c2.4-0.5,4.6-1.3,6.3-3.2
		c0.6-0.7,1.4-1.3,2.3-1.8c1.2-0.7,2.3-0.5,3.1,0.3c0.8,0.8,1,2.1,0.1,3.1c-1.2,1.3-2.5,2.5-4,3.4c-3.2,1.9-6.8,2.8-10.4,3.4
		c-8.3,1.5-16.7,1.8-25,0.2c-1.9-0.4-2.4-0.2-3,1.8c-1.4,4.5-2.9,9-3.9,13.6c-2.1,9.1-3.5,18.4-3.4,27.8c0,2.6,0.3,5.3,0.8,7.9
		c0.3,1.6,1.1,3.2,2,4.5c1.2,1.8,2.8,2.1,4.6,0.9c1.5-1,2.9-2.3,4.1-3.6c4.6-5.3,7.7-11.4,10.3-17.8c0.6-1.5,1.1-3,1.5-4.5
		c2.8-10.8,12.9-15.4,21-14.7c1,0.1,2.1,0.4,3,0.8c3.7,1.4,5.6,4.2,4.9,8.1c-0.6,3.4-1.8,6.8-2.7,10.2c-0.5,2-1,4-1.4,6
		c-0.2,1.2-0.2,2.5,1,3.2c1.3,0.8,2.5,0.3,3.6-0.5c1.8-1.5,3.7-2.9,5.1-4.7c2.2-2.9,4.2-6,6-9.2c1.5-2.6,3.4-4.2,6.5-4.1
		c1.4,0,2.9,0,4.3,0c26.7,0,53.4,0,80.1,0c16.5,0,32.9-0.2,49.4-0.3c20-0.1,40-0.4,60-0.5c26.6-0.1,53.3-0.2,79.9-0.3
		c1,0,2.1-0.1,3.1-0.3c4.1-0.7,7.1,1.3,7.9,5.4c1,5.3,1.9,10.7,2.8,16.1c1.4,8.4,2.9,16.7,5.7,24.7c1.5,4.3,3.5,8.2,5.6,12.2
		c1.1,2,2,4.2,2.7,6.4c0.9,2.8,0.8,5.7-0.3,8.5c-1.4,3.5-3.2,6.6-5.6,9.4c-0.7,0.9-1.5,1.7-2.2,2.5c-1.4,1.6-1.5,1.7-0.4,3.5
		c2.6,4.5,3.5,9.4,4.1,14.4c1.1,8.4,0.5,16.8-0.2,25.1c-0.5,7-1,14-1.1,21.1c-0.1,6.8,1.4,13.5,3.3,20c0.6,2,1.7,3.6,3.4,4.8
		c3.4,2.3,4.9,5.6,5.1,9.6c0.2,3.2,0.2,6.4,0.3,9.6c0.3,9.7,3,18.7,6.7,27.6c2.5,6,5.2,12,7.5,18.2c4.2,10.8,6.8,22,7.6,33.5
		c0.9,11.5,1.6,23,2.4,34.4c0.9,12.8,1.9,25.7,2.6,38.5c0.3,5.7,0.3,11.5,0.2,17.3c-0.1,5.3,0.4,10.3,2.2,15.3
		c1.1,2.9,1.9,5.9,2.7,8.9c1.3,5.1,1.4,10.2-0.5,15.1c-1.6,4.3-1.9,8.5-1.4,12.9c0.3,2.7-0.1,5.2-1.2,7.7c-0.6,1.4-1,2.9-1.5,4.3
		c5.1,9.5,9,19.4,11.8,29.8c1,3.6,1.5,7.3,2.3,11c0.2,1.2,0.4,2.4,0.7,3.5c0.6,2.5,2,4.4,4.3,5.5c6.7,3.2,9.1,8.9,9,15.9
		c0,3-0.3,6.1-0.7,9.1c-0.5,4.3,0.1,8.4,1.5,12.5c0.9,2.5,1.8,5,2.9,7.4c5.1,11.3,2.6,21.5-4.6,31c-4,5.3-9.2,8.1-15.9,7.7
		c-15.2-0.8-30.4-0.6-45.6-0.6c-3.3,0-6.6-0.1-9.8-0.1c-22.9-0.1-45.8-0.1-68.6-0.2c-13.8,0-27.7-0.1-41.5-0.1
		c-32.9,0-65.8,0-98.6-0.1c-18,0-36-0.1-54-0.2c-16.2-0.1-32.5-0.1-48.7-0.2c-16.1,0-32.2-0.1-48.2-0.1c-16.2,0-32.5,0-48.7-0.1
		c-16.2,0-32.3-0.1-48.5-0.2c-16.3-0.1-32.6-0.1-49-0.2c-15.8,0-31.7-0.1-47.5-0.1c-16.5,0-33,0-49.4-0.1c-16.1,0-32.2-0.1-48.2-0.2
		c-16.4-0.1-32.8-0.1-49.2-0.2c-13.1,0-26.2-0.1-39.4-0.1c-19.1,0-38.2,0-57.4-0.1c-14.1,0-28.2-0.1-42.2-0.2c-1,0-2.1,0-3.1-0.2
		c-2.9-0.4-5.3-2.7-5.9-5.6c-0.3-1.4-0.3-2.9-0.3-4.3c0-177.4,0-354.9,0-532.3c0-1,0-1.9,0.1-2.9c0.5-4.5,3.3-7,7.8-7.1
		c10.7,0,21.4,0,32.2,0c7.4,0,14.7-0.1,22.1-0.2c0.6,0,1.3-0.1,2.1-0.1c0.8-3,1.6-5.9,2.3-8.8c2.2-9.3,4.1-18.6,4.6-28.1
		c0.1-1.3,0.3-2.7,0.8-4c0.9-2.5,3.4-3.3,5.6-1.8c1.5,1,2.4,2.5,2.8,4.3c0.8,4.1,0.9,8.2,0.5,12.4c-1,9.8-3.6,19.1-6.2,28.5
		c-0.7,2.5-1.4,5.1-1.8,7.8c0.4-0.8,0.8-1.5,1.2-2.3c6-11.9,12.5-23.6,20-34.7c4.5-6.6,9.3-13,15.3-18.4c1.7-1.5,3.6-2.9,5.6-4.1
		c2.1-1.3,4.4-1.9,6.9-1.6c3,0.3,4.7,1.7,5.4,4.6c0.7,2.8,0.5,5.7,0.1,8.6c-1,6.6-3,12.9-5.3,19.2c-4.4,11.8-9,23.6-13.5,35.4
		c-2.6,6.8-5.2,13.6-6.7,20.7c-0.3,1.6-0.6,3.3-0.7,5c-0.1,0.8,0,1.6,0.2,2.4c0.6,2.5,2,3,3.9,1.4c1.4-1.2,2.7-2.7,3.9-4.2
		c5.5-7.1,10-14.9,14.4-22.7c2.6-4.5,4.9-9.1,7.4-13.7c0.4-0.8,0.8-1.6,1.1-2.4c0.9-1.9,0.9-3.6-0.1-5.6c-2.7-5.4-1.7-10.8,2.2-14.6
		c3.8-3.7,9.9-4.9,14.7-2.6c4.9,2.2,6.9,6.5,7.4,11.5c0.3,2.4,0.1,4.8,0.1,7.2c0,0.8,0.1,1.7,0.2,2.7c3.9,0.4,6.7-1.7,9.3-3.2
		c-0.9-3.6-1.8-6.9-2.6-10.2c-0.7-2.9-0.4-5.9,0.4-8.8c1.2-4.4,4-7.2,8.6-8c0.3-0.1,0.6-0.2,1.2-0.4c-0.9-0.4-1.4-0.7-1.9-0.9
		c-6.4-3-8.6-7.3-7-14.2c2.3-9.7,12.8-16.2,22.4-13.2c1.1,0.4,2.2,1,3.2,1.6c0.5,0.3,0.9,0.7,1.2,1.2c0.7,1,1.1,2.2,0.4,3.4
		c-0.7,1.2-2,1.2-3.2,0.9c-2.1-0.5-4.2-1-6.3-1.3c-1.2-0.2-2.4,0-3.5,0.3c-3.4,1-6.2,3-8.5,5.6c-0.5,0.6-1,1.3-1.3,2
		c-1.4,2.9-0.5,5.4,2.4,6.8c2.9,1.4,5.9,2.1,9.1,2.1c5.9,0,11.8-0.2,17.7-0.6c4.8-0.3,9.5-1.2,14.3-1.7c1.5-0.2,2.4-0.8,3-2.2
		c0.8-1.9,1.8-3.8,2.9-5.5c1-1.5,2.1-3,3.3-4.4c1.3-1.3,2.9-1.9,4.8-1.4c2.3,0.6,3.2,2.1,2.2,4.3c-0.8,1.6-1.9,3-2.8,4.4
		C269.2,151.1,268.4,152.2,267.4,153.7z M59.5,728.8c0.9,0,1.4,0,2,0c11.4,0,22.9,0,34.3,0.1c16.2,0,32.5,0.1,48.7,0.2
		c16.2,0.1,32.5,0.1,48.7,0.2c16.2,0,32.3,0.1,48.5,0.1c16.2,0,32.3,0,48.5,0.1c16.2,0,32.3,0.1,48.5,0.2
		c16.2,0.1,32.5,0.1,48.7,0.2c16.2,0,32.3,0.1,48.5,0.1c16.2,0,32.3,0,48.5,0.1c16.2,0,32.3,0.1,48.5,0.2c16.3,0.1,32.6,0.1,49,0.2
		c16.1,0,32.2,0.1,48.2,0.1c16.2,0,32.5,0,48.7,0.1c16.2,0,32.3,0.1,48.5,0.2c16.4,0.1,32.8,0.1,49.2,0.2c16.1,0,32.2,0.1,48.2,0.1
		c31,0,62.1,0.1,93.1,0.1c5.3,0,10.6,0,15.8,0c0.9,0,1.8,0,2.6,0.1c3.3,0.3,6.7,0.7,10,1c1.9,0.2,3.8,0.2,5.1-1.5
		c3.7-4.9,5.9-10.3,3.6-16.5c-1-2.8-2.1-5.5-3.2-8.3c-2.4-6.1-3.4-12.3-2.2-18.8c0.3-1.7,0.6-3.5,0.8-5.2c0.3-2.9-0.5-5.4-3.3-6.9
		c-0.8-0.5-1.6-1-2.5-1.4c-2.8-1.5-4.7-3.8-5.7-6.8c-0.7-2.2-1.4-4.4-1.8-6.7c-2.2-12-5.8-23.6-11-34.6c-1.3-2.7-2.5-5.4-3.5-8.1
		c-1.3-3.8-1.2-7.6,1.1-11.1c1.2-1.8,1.2-3.8,0.9-5.8c-0.9-5.3-0.6-10.5,1.9-15.4c1.2-2.3,1.5-4.8,0.7-7.2c-1-3.4-2.1-6.9-3.2-10.3
		c-1.7-5.4-2.9-10.8-2.6-16.5c0.1-3,0.4-5.9,0.3-8.9c-0.3-7.4-0.6-14.9-1.1-22.3c-0.5-7.9-1.1-15.8-1.6-23.7
		c-0.8-11.9-1.4-23.8-2.5-35.6c-0.9-10.1-2.9-19.9-6.5-29.4c-2.5-6.4-5.2-12.7-7.9-19c-3.9-9.1-6.6-18.5-7.2-28.5
		c-0.2-3-0.3-5.9-0.4-8.9c-0.1-1.5-0.3-2.7-1.8-3.6c-1-0.6-1.9-1.8-2.5-2.9c-1.2-2.4-2.4-4.9-3.3-7.4c-4.2-11.9-5.1-24.2-4.2-36.7
		c0.5-7.1,1.3-14.2,1.6-21.3c0.2-4.1-0.2-8.1-0.6-12.2c-0.4-4.2-1.8-8.1-3.5-11.9c-2.7-6-2.1-11.5,2.8-16.2c0.4-0.4,0.8-0.8,1.1-1.3
		c1.1-1.5,2.2-2.9,3.3-4.4c1.1-1.5,1.3-3,0.3-4.7c-0.6-1.1-1.1-2.3-1.8-3.4c-4.1-7-6.8-14.5-8.6-22.3c-1.6-7.2-2.6-14.6-3.9-21.9
		c-0.2-0.9-0.4-1.8-0.6-2.7c-0.7,0-1-0.1-1.4-0.1c-19.3,0-38.6,0-57.8,0.1c-17.5,0.1-35,0.3-52.5,0.4c-19.9,0.2-39.8,0.3-59.7,0.5
		c-11.7,0.1-23.4,0.1-35,0.1c-2,0-4,0-6,0c-17.4,0-34.7,0-52.1,0c-2.8,0-5.6-0.2-8.4-0.2c-2.7,0-5,1.1-7,2.7
		c-2.4,1.9-4.8,3.8-7.2,5.6c-2,1.5-4.3,2.5-6.8,2.8c-3.7,0.5-6.7-1.7-7.2-5.4c-0.1-0.5-0.1-1.1-0.1-2.2c-2.5,2.6-5.2,3.6-8.4,3.7
		c-3.5,0-5.8-2-7.5-5.1c-0.6,1.1-1,1.9-1.3,2.6c-2.4,4.8-5.4,9.2-9.3,13c-2.4,2.3-5,4.3-8.2,5.3c-5.8,1.8-10.9-0.4-13.2-6
		c-0.9-2.2-1.5-4.5-2-6.9c-0.9-4.7-0.7-9.5-0.5-14.3c0-1.1,0-2.2,0-3.5c-0.6,0.3-1.1,0.5-1.6,0.7c-1.8,0.8-3.4,1.9-5.3,2.3
		c-3.8,0.7-6.1,2.7-7.7,6.2c-1.3,2.9-3.6,5.3-6.6,6.8c-4.7,2.3-9.6,0.8-12.2-3.7c-0.3-0.6-0.6-1.2-1.1-2c-0.4,0.9-0.7,1.5-1.1,2.2
		c-2.2,4.1-4.3,8.2-6.6,12.2c-1.8,3.2-3.9,6.3-6.8,8.7c-1.4,1.2-3.1,2.2-4.8,3c-2.2,0.9-3.9,0.3-5.2-1.7c-0.9-1.4-1.6-3-1.9-4.6
		c-0.6-2.6-0.8-5.4-1.1-8.1c-0.3-3.2-0.4-6.4-1.8-9.4c-0.8-1.8-1.7-2-3.1-0.6c-1.3,1.5-2.4,3.2-3.6,4.8c-0.8,1.1-1.4,2.3-2.3,3.4
		c-1.3,1.6-3.7,1.3-4.5-0.6c-0.3-0.6-0.5-1.4-0.5-2.1c-0.2-2.7-0.2-5.4-0.3-8.1c0-0.7,0-1.3,0-2.5c-0.8,1.1-1.2,1.8-1.7,2.4
		c-2,2.2-3.9,4.4-6.1,6.4c-2.1,1.9-4.6,2.8-7.4,3.1c-3.7,0.4-6.6-1.9-7-5.6c0-0.5-0.1-1-0.2-1.8c-0.9,0.7-1.5,1.2-2.3,1.7
		c-5.3,3.7-11.6,1.7-13.9-4.3c-0.8-2.2-1.2-4.5-1.1-6.8c0-0.7,0-1.4,0-2.5c-3.3,1.6-6.2,2.9-9.1,4.4c-1.4,0.7-2.2,2-2.8,3.5
		c-2.4,5.7-5.1,11.2-8.5,16.4c-3.3,5-7.3,9.3-12.2,12.7c-2,1.4-4.1,2.4-6.5,2.9c-7.5,1.5-13-4.5-11-11.8c0.3-1.1,0.8-2.3,1.4-3.3
		c2.1-3.9,4.9-7.1,8.4-9.7c3.6-2.7,7.4-5,11.5-6.9c2.4-1.2,4.8-2.6,7.1-3.9c1.4-0.8,2.3-2,2.9-3.4c1-2.4,2-4.7,2.9-7.1
		c2.9-7.7,5.3-15.4,6.2-23.6c0.3-3,0.4-5.9-0.6-8.8c-1.2-3.4-4-4.9-7.4-3.8c-1.8,0.6-3.5,1.7-5,2.8c-2.8,2.2-4.6,5.1-6,8.3
		c-2.4,5.4-4.7,10.9-6.7,16.4c-3.3,9.3-6.4,18.8-9.6,28.1c-0.5,1.4-1.1,2.9-1.9,4.1c-0.8,1.2-1.8,2.2-3,3c-1.3,0.9-2.4,0.4-3-1.2
		c-0.2-0.6-0.3-1.3-0.2-1.9c0.2-1.7,0.3-3.5,0.7-5.2c1-3.9,2.1-7.7,3.2-11.6c0.2-0.7,0.3-1.3,0.4-2.2c-8.8-0.4-17.2-0.4-25.5,2.1
		c-7.5,2.3-13.7,6.5-18.2,12.9c-1.7,2.4-3.3,4.9-4.9,7.4c-2.7,4.5-5.9,8.6-9.4,12.4c-1.9,2-4,3.7-6.6,4.7c-4.8,1.7-8.4-0.6-8.4-5.8
		c0-2.6,0.4-5.3,0.7-7.9c1-8,3.3-15.6,5.7-23.3c0.1-0.4,0.2-0.9,0.3-1.4c-0.8,0.6-1.4,1.3-1.9,2c-4.6,6.9-9.2,13.8-13.9,20.7
		c-0.8,1.2-1.6,2.4-2.7,3.4c-2.9,2.6-7.1,1.3-8.1-2.5c-0.2-0.9-0.2-1.9,0-2.8c0.3-1.9,0.7-3.8,1-5.7c0.2-1.4,0.4-2.8,0.6-4.2
		c-1,0.6-1.5,1.3-2.1,1.9c-2,2.1-4,4.4-6.2,6.4c-1.2,1.1-2.7,2-4.2,2.7c-2.3,1-4.3,0.2-5.5-2c-0.6-1.2-0.9-2.5-1.2-3.8
		c-0.2-0.5-0.1-1.1-0.2-1.7c-0.9,0.8-1.3,1.6-1.7,2.5c-2.4,4.6-4.8,9.2-8.2,13.2c-1.3,1.6-2.8,3.1-4.4,4.4c-3.6,2.8-8.1,2-10.6-1.8
		c-0.7-1.1-1.3-2.4-1.7-3.7c-1.1-3.3-0.8-6.6-0.3-10c0.9-6.1,3.2-11.9,5.7-17.5c0.3-0.7,0.6-1.5,1.1-2.7c-3.3,1.6-6.2,1.8-9.2,0.8
		c-1-0.3-1.7,0.1-2.4,0.6c-3.7,2.2-7.6,4.1-11.8,5.1c-1.1,0.3-1.8,0.9-2.3,1.9c-1,1.8-1.9,3.5-3,5.2c-1.5,2.3-3.6,4.1-6.2,5.2
		c-3.8,1.6-7.8,0.6-10.4-2.6c-0.4-0.5-0.9-1.1-1.4-1.8c-0.5,0.9-0.8,1.6-1.2,2.3c-4.7,8.9-9.6,17.7-15.7,25.8
		c-2.3,3.1-4.8,5.9-7.8,8.4c-6,5-15.7,1.7-17.1-6.5c-0.6-3.5-0.7-7-0.3-10.5c0.6-5.3,2-10.5,3.5-15.7c4.1-14.2,10-27.8,15.7-41.4
		c2.5-5.9,4.9-11.8,7.3-17.7c0.6-1.5,1.3-3.1,1-4.8c-2.2,0.2-3.4,0.6-5.3,2.7c-2.7,2.9-5.4,5.9-7.8,9.1
		c-8.8,12.1-16.1,25.2-23.3,38.3c-3.7,6.8-7.4,13.6-11.3,20.3c-1.3,2.2-3,4.3-4.9,6.1c-2.5,2.4-6,1.1-6.3-2.3
		c-0.3-2.7,0-5.4,0.2-8.1c0.2-2,0.7-4,1-6c-15.1,0-29.9,0-44.9,0C59.5,380.8,59.5,554.7,59.5,728.8z M220.7,186.9
		c1.6,0.3,2.8-0.3,3.9-0.9c1.9-0.9,3.9-1.4,6-1c3.4,0.6,4.8,3.1,3.6,6.3c-0.8,2.2-1.7,4.3-2.6,6.4c-2.7,6.8-5.1,13.6-6.8,20.7
		c-0.4,1.9-0.9,3.9-0.1,5.9c1.5,0.2,2.5-0.6,3.4-1.5c1.3-1.4,2.7-2.8,3.8-4.3c3.5-4.9,6.4-10.1,9-15.5c2.2-4.5,4.1-9.1,5.1-14.1
		c1.5-7.3,4.3-14.2,7.1-21.1c0.6-1.6,1.2-3.2,2-5.3c-11.1,1.2-21.8,2.7-32.7,1.4c4,3.3,5,7.4,3.8,12.2c-0.7,3-2.2,5.6-3.9,8.2
		C221.8,185.1,221.3,185.9,220.7,186.9z M251.6,209.9c1.2-1,2.1-1.5,2.9-2.3c4.4-4.5,8-9.7,11.5-15c0.4-0.6,0.6-1.3,0.9-2
		c3.1-7.4,6.2-14.9,9.3-22.3c0.7-1.7,1.6-3.5,2.4-5.2c-0.4-0.4-0.7-0.8-1-0.9c-3.2-1.7-6.6-2.3-10.2-1.9c-1.4,0.2-2.5,0.9-3.2,2.2
		c-1.1,2.1-2.3,4.2-3.3,6.4c-4,9.2-6.7,18.8-8.3,28.7C251.9,201.4,251.1,205.3,251.6,209.9z M454.9,182.7c0.2,0,0.3,0.1,0.5,0.1
		c0.4-0.6,0.9-1.1,1.3-1.7c3.4-5.9,7-11.8,10.2-17.9c2.3-4.2,4.1-8.7,5.1-13.4c0.2-1,0.3-2.1,0.1-3.1c-0.3-1.5-1.5-1.9-2.7-0.9
		c-1,0.8-1.9,1.8-2.5,2.9c-1.4,2.4-2.8,4.9-3.7,7.5c-2.4,6.9-4.5,13.8-6.7,20.7C455.8,178.8,455.4,180.8,454.9,182.7z M379.1,206
		c-0.7,0.2-1,0.2-1.2,0.3c-5.6,2.7-10.9,5.8-15.5,9.9c-1.7,1.5-3.1,3.4-4.3,5.4c-1.2,1.8-0.7,4.1,0.6,5.3c1.3,1.1,3,1,5-0.5
		C370.7,221,375.1,213.9,379.1,206z M563.5,199.4c0,0.8-0.1,1.6,0,2.4c0.2,1.1,0.1,2.6,1.5,3c1.4,0.4,2.6-0.4,3.6-1.4
		c0.4-0.4,0.8-1,1.1-1.5c0.6-1.1,1.3-2.2,1.8-3.4c1.5-3.6,2.9-7.3,4.3-10.9c0.7-1.8,0.2-2.5-1.8-2.6c-2.3-0.2-4.2,0.7-5.8,2.3
		C564.8,190.6,563.3,194.7,563.5,199.4z M412.5,199.6c0.2,1.3,0.2,2.5,0.5,3.8c0.5,1.7,1.2,2,2.9,1.4c1.7-0.6,2.8-2,3.4-3.5
		c2-4.6,3.9-9.2,5.8-13.9c0.6-1.5,0.1-2.2-1.6-2.4c-2.2-0.2-4.1,0.4-5.7,1.9C414.1,190.4,412.5,194.6,412.5,199.6z M306.9,136.9
		c-0.2-0.1-0.4-0.2-0.5-0.3c-1.6,1-2.8,2.5-4,4c-5.9,7.6-11,15.7-15.4,24.3c-1.1,2.3-2.3,4.5-3.4,6.8c0.7-0.2,1.1-0.5,1.3-0.9
		c4.7-6.6,9.5-13.2,14.2-19.9c2.3-3.4,4.3-6.9,6.3-10.5C306,139.3,306.4,138.1,306.9,136.9z M193.2,191.5c0.4-4.2,0.1-8-1.6-11.4
		c-1.2-2.6-3.6-2.8-5.6-0.8c-1.7,1.8-1.9,4.6-0.4,6.8C187.5,188.7,190.1,190.2,193.2,191.5z M503.4,191.4c0.5-4.1,0.1-7.8-1.5-11.3
		c-1.2-2.6-3.6-2.9-5.6-0.8c-1.9,2-2,5-0.1,7.4C498.1,188.9,500.4,190.3,503.4,191.4z M181.7,196.9c-1.4,1.8-1.6,4-1,6.3
		c0.8,3.4,4.1,4.5,6.8,2.3c1.7-1.4,2.7-3.2,3.2-5.1C187.7,199.3,184.8,198.1,181.7,196.9z M500.9,200.5c-3.2-1.3-6.3-2.6-9.4-3.8
		c-0.7,1.9-1,4-0.7,6.1c0.5,3.7,3.9,5.1,6.9,2.8C499.5,204.2,500.5,202.3,500.9,200.5z M217.8,182.9c2.1-2.4,3.5-4.8,4.1-7.1
		c0.4-1.6,0.6-3.3-0.2-4.9c-0.8-1.8-2.5-2-3.8-0.4c-0.2,0.3-0.4,0.7-0.6,1C215.9,175.3,216.1,179,217.8,182.9z M465.5,191.8
		c-3.7,1.1-6.8,3.3-7.8,5.6C462.1,197.9,464.9,195.9,465.5,191.8z"/>
</g>
</svg>
