<?xml version="1.0" encoding="utf-8"?>
<!-- Generator: Adobe Illustrator 23.0.4, SVG Export Plug-In . SVG Version: 6.00 Build 0)  -->
<svg version="1.1" id="Layer_1" xmlns="http://www.w3.org/2000/svg" xmlns:xlink="http://www.w3.org/1999/xlink" x="0px" y="0px"
	 viewBox="0 0 1008 1008" style="enable-background:new 0 0 1008 1008;" xml:space="preserve">
<g>
	<path d="M825.3,415.6c-4.5,3.3-9.5,4.1-15.2,3.8c0.7,0.5,1,0.9,1.5,1.1c5,2,9.9,3.9,14.9,5.9c2.5,1,5.1,1.9,7.4,3.3
		c4.6,2.9,6.7,8.3,5.5,13.3c-0.6,2.3-1.7,4.3-3.6,5.8c-1,0.8-2.1,1.4-3.1,2.2c-1.5,1.3-3.1,2.5-4.3,4.1c-5,6.4-11,11.1-19,13.1
		c-0.1,0-0.3,0.2-0.6,0.4c2.3,1.1,4.7,1.3,7,1.4c3.7,0.1,7.1-0.8,10.3-2.7c2.2-1.3,4.4-2.6,6.6-3.9c9.4-5.4,18.5-3.8,26.2,2
		c2.1,1.6,2.8,3.6,3.1,6.2c0.8,8.8-3.5,15.3-9.3,21.2c-8.7,8.7-19.3,12.9-31.3,13.9c-7.4,0.6-14.8,1.2-22.2,1.9
		c-9.6,0.9-18.9,3.1-27.5,7.6c-2.7,1.4-5.7,2.6-8.7,3.4c-2.9,0.7-6,0.7-9.4,1c0.3-0.3,0.1-0.2,0.1-0.1c-1.1,4.5-3.8,7.8-7.3,10.6
		c-5.9,4.6-11.7,9.2-17.5,13.8c-8.3,6.7-13.9,15.3-17.6,25.3c-2,5.5-4.3,10.8-6.8,16.1c-3.2,6.8-8.3,12.1-14.9,15.8
		c-1.9,1.1-3.9,1.3-6,0.7c-6.1-1.6-12.4-2.5-18.7-2.4c-7.4,0.1-14.4,1.6-21,5c-0.6,0.3-1.3,0.7-1.9,0.9c-3.2,1.3-5.9,0.7-8.3-1.7
		c-4.8-5-9.6-10.1-14.3-15.2c-14.8-15.6-29.5-31.3-44.3-46.9c-13.3-14.1-26.6-28.1-39.8-42.2c-0.9-0.9-1.7-1.5-3-1.5
		c-14.8-0.4-29.6-0.8-44.3-1.3c-14.9-0.5-29.9-1.1-44.8-1.5c-6.2-0.2-12.3-0.3-18.5-0.3c-3.5,0-5.9-1.4-7.5-4.5
		c-1.8-3.5-2.8-7.1-3.6-10.9c-0.8-3.5-1.7-7-3.4-10.2c-1.1-2.1-2.4-3.9-4.3-5.4c-0.9-0.7-1.9-1.1-3.1-0.6c-6.7,2.5-12-1.9-13.3-7.2
		c-0.1-0.3-0.3-0.6-0.3-0.5c-9.7-0.4-19.2-0.7-28.7-1.3c-13.9-0.8-27.7-2.3-41.7-2.2c-8.4,0.1-16.8,0.7-25.1,1.2
		c-7.7,0.5-15.5,0.9-23.2,0.6c-3.2-0.1-6.5,0.5-9.8,0.8c-6.4,0.6-12.7,1.2-19.1,1.7c-2.8,0.2-5.2,1.1-6.9,3.3
		c-3.8,5-9.1,7.2-15.1,7.8c-4.7,0.4-9.2,1.4-13.4,3.3c-5.1,2.3-10.5,2.5-16,2.2c-7.1-0.3-14.2-0.7-21.3-0.9
		c-8.9-0.2-17.7,0.7-26.5,1.8c-4,0.5-7.9,1-11.9,0.3c-0.6-0.1-1.3-0.1-1.9,0.2c-4,1.6-8.2,1.8-12.5,2.2c-11.5,0.9-23,0.2-34.4-1.2
		c-4.1-0.5-6.7-4.2-6.6-8c0.1-4.2,0.2-8.3,0.3-12.5c0.1-4.3,0.2-8.6,0.4-12.9c0.1-1.9,0.5-3.8,1.2-5.6c1.2-3.2,3.6-5.2,7-5.3
		c2.8-0.1,5.6,0.2,8.4,0.2c2.1,0,4.3,0.2,6.4-0.2c3.3-0.7,5.3-3.1,5.1-6.5c-0.3-6.8,2.3-12.4,6.7-17.4c5.4-6,11.4-11.2,19-14.3
		c5.1-2,10.4-2.4,15.7-3.1c2.5-0.3,5.1-0.7,7.6-1.1c6-1.2,10.9-4.4,15-8.9c2.4-2.6,4.7-5.3,7.2-7.7c5.4-5.3,12.1-8.2,19.6-9.1
		c2.2-0.3,4.5-0.4,6.7-0.4c3.3,0,5.5-1.4,7-4.5c1-2.1,2.2-4.1,3.8-5.8c1.5-1.6,3.3-3.1,5.2-4.1c4.4-2.2,8.4-4.8,12.1-8.1
		c1.9-1.7,4.2-2.9,6.5-4c2.1-1,4.4-1.4,6.8-1.1c3.1,0.4,5.7,1.7,7.6,4.1c0.9,1.1,1.7,1.2,2.9,0.8c5.2-1.8,9.8-4.6,13.6-8.7
		c2-2.1,3.9-4.3,6-6.2c5.7-5,11.8-5.5,18.3-1.6c3.7,2.2,4.5,2.2,7.9-0.4c2.3-1.8,4.2-4,5.6-6.5c1.3-2.3,2.6-4.6,3.8-6.9
		c1.6-3.1,3.7-5.8,6.2-8.1c2.6-2.4,5.5-4.1,9.4-4.2c1.7-4.9,3.4-9.9,5-14.9c0.6-1.7,1-3.4,1.6-5c2.2-5.9,6.5-9.1,12.6-10.3
		c2.8-0.5,5.5-0.7,8.3-0.1c0.5,0.1,1.1,0.1,1.9,0.1c1-4.7,2.2-9.4,2.9-14.1c0.8-5.2,1.3-10.5,1.9-15.7c0.1-1.2,0.3-2.4,0.7-3.5
		c0.9-2.3,3.2-3,5.3-1.7c1.8,1,2.7,2.6,3.1,4.6c0.9,4.7,0.8,9.4,0.2,14.1c-1.1,9.4-3.7,18.5-6.3,27.6c-0.6,2.1-1.2,4.3-1.8,6.4
		c0.1,0.1,0.3,0.1,0.4,0.2c1.2-2.4,2.5-4.8,3.7-7.2c6.1-11.6,12.6-23,20.3-33.6c3.7-5.1,7.5-10,12.3-14.1c1.9-1.7,4.1-3.1,6.2-4.4
		c1.8-1.1,3.9-1.4,6-1.3c3.1,0.1,5.1,1.8,5.9,5c0.7,3.2,0.3,6.4-0.2,9.5c-1.4,7.8-4,15.1-6.7,22.5c-5.1,13.5-10.3,27-15.4,40.6
		c-1.8,4.9-3.3,9.9-3.7,15.1c-0.1,1.3,0,2.6,0.3,3.8c0.5,1.8,1.9,2.3,3.3,1.1c1.5-1.2,2.8-2.6,4-4.1c5.3-6.7,9.7-14.1,13.9-21.6
		c2.9-5.2,5.7-10.5,8.5-15.8c0.4-0.7,0.6-1.5,1-2.2c1-1.8,0.7-3.3-0.2-5.2c-2.2-4.8-2.4-9.7,1.4-13.9c3.8-4.2,8.6-5.5,13.9-4
		c5.3,1.5,7.8,5.6,8.7,10.8c0.4,2.6,0.2,5.2,0.3,7.9c0,1.1,0.1,2.2,0.2,3.4c3.9,0.3,6.6-1.8,9.6-3.4c-1.7-3.8-2.6-7.5-3.1-11.4
		c-0.4-3.3,0-6.6,1.4-9.6c1.8-3.8,4.9-5.7,9.6-6.1c-1.2-0.5-1.9-0.9-2.6-1.2c-2.4-1.1-4.6-2.5-6-4.9c-1.6-2.7-1.6-5.7-1-8.6
		c1.9-9.6,12.2-16.9,22.6-13.8c1.7,0.5,3.2,1.4,4.3,2.9c0.7,0.9,1.1,2,0.5,3.1c-0.6,1-1.7,1.4-3.2,1c-1.2-0.3-2.3-0.5-3.5-0.9
		c-4-1.2-7.6-0.4-10.9,2c-1.7,1.2-3.3,2.6-4.5,4.2c-2.7,3.5-1.7,6.7,2.4,8.4c3.8,1.6,7.7,1.9,11.8,1.9c8.8,0.1,17.5-1.2,26.3-2.1
		c3.4-0.4,5.2-1.8,6.5-4.8c1.1-2.6,2.9-4.9,4.6-7.2c1.1-1.5,2.9-2.2,4.9-1.9c2.6,0.4,3.7,2.1,2.5,4.4c-0.8,1.6-2,3.1-3,4.6
		c-0.7,1.1-1.5,2.2-2.4,3.6c5,0.2,9.2,1.4,12.8,4.8c0.5-0.8,0.9-1.4,1.3-2.1c4.1-7.3,8.6-14.2,14.4-20.3c1.9-2,4.3-3.6,6.5-5.2
		c0.7-0.5,1.6-0.8,2.4-1c4.4-1.1,7.9,1.9,7.3,6.5c-0.2,1.3-0.6,2.6-1.1,3.9c-1.9,5-4.9,9.3-7.8,13.8c-6.2,9.5-12.8,18.6-19.8,27.4
		c-4.4,5.4-8.3,11.2-10.4,17.9c-0.8,2.5-1.6,5.1-1.8,8.4c2.3-3.1,4.1-5.8,6.2-8.3c2.7-3.3,5.6-6.6,8.5-9.7c1-1,2.2-1.9,3.5-2.5
		c3.9-2,7.5-0.1,8,4.3c0.4,3.6,0.1,7.2-0.7,10.7c-1.3,5.6-2.5,11.2-3.8,16.8c-0.2,0.8-0.3,1.7-0.1,2.8c0.5-0.5,0.9-0.9,1.4-1.5
		c5.9-7.3,10.5-15.5,14.5-23.9c4.5-9.5,8.8-19.2,13.3-28.7c1.2-2.6,2.8-5,4.9-7c3.9-3.6,8.6-4.7,13.8-4.3c3.9,0.3,7.5,1.5,11.3,3
		c0.5-0.8,1.1-1.5,1.6-2.3c3-4.5,6.3-8.7,10.5-12.1c3.1-2.6,6.5-4.7,10.5-5.5c2-0.4,4-0.4,5.9,0.2c5.3,1.6,8.1,6.3,7,11.7
		c-0.5,2.6-1.6,5-3.4,7.1c-5.4,6.3-12.3,10-20.6,11.1c-1.9,0.2-3.8,0-6,0c-0.6,1.3-1.3,2.8-1.9,4.4c-3.6,9.4-6.2,19.1-7.2,29.2
		c-0.3,3.4-0.1,6.7,0.8,10c1.3,5,5.2,7.2,10.1,5.6c2.1-0.7,4-1.9,5.8-3.2c4.5-3.3,7.9-7.7,11.3-12c3.3-4.1,6.6-8.2,9.9-12.3
		c0.5-0.7,0.9-1.5,1.2-2.3c3.6-7.8,12.8-12.5,21-11c5.9,1.1,8.3,7.7,6.3,12.2c-1.9,4.3-3.3,8.8-3.9,13.5c-0.2,1.4-0.5,3.1,0.9,3.9
		c1.5,0.9,2.8-0.3,3.8-1.3c2-1.9,3.9-3.8,5.5-6c2.2-2.9,4-5.9,6-8.9c-2.7-4.3-3.7-8.9-4.2-13.6c-0.3-2.8,0.1-5.6,1.1-8.2
		c1.8-4.5,6.1-7.1,10.9-6.5c3.9,0.5,6.8,3.7,7.3,8.1c0.3,2.5-0.2,5-1.2,7.2c-1,2-2.1,3.9-3.2,5.9c-0.4,0.8-0.9,1.5-1.5,2.4
		c1.6,0.3,2.6-0.3,3.8-0.8c1.7-0.8,3.4-1.4,5.3-1.2c0.9,0.1,1.7,0.3,2.5,0.7c2.2,1.1,2.9,2.9,2.1,5.2c-0.9,2.6-2.1,5.2-3,7.8
		c-2,5.8-4,11.6-5.9,17.5c-0.5,1.7-0.8,3.4-1,5.2c-0.1,1.1-0.4,2.2,0.6,3.3c1.7-0.2,3.1-1.2,4.2-2.5c1.2-1.4,2.3-2.8,3.4-4.3
		c4.1-5.9,7.4-12.3,10.4-18.9c0.9-2,1.8-4.1,2.7-6.1c0.4-1,0.3-1.9-0.1-3c-0.7-1.8-1.3-3.6-1.5-5.5c-0.8-7.4,5.4-12.8,12-13.2
		c7-0.4,12.2,3.8,13.4,10.8c0.5,3,0.3,6,0.5,9.1c0,0.8,0.1,1.7,0.2,2.9c1.4-0.2,2.6-0.4,3.7-0.6c0.5-0.1,1.1-0.4,1.6-0.6
		c5-2.2,4.9-2.2,6.1-7.5c2.2-10.2,5.2-20.1,10.2-29.3c1.8-3.3,4.1-6.5,6.5-9.5c2-2.6,4.7-4.3,8.1-4.7c4-0.5,6.9,1.5,7.8,5.4
		c0.8,3.3,0.5,6.7-0.2,10c-2.1,9.5-6.9,17.5-13.5,24.5c-2.5,2.7-5.4,5-8.2,7.4c-1.4,1.2-2.2,2.4-2.4,4.2c-0.6,6.1-1,12.1-0.6,18.2
		c0.1,1.6,0.6,3.2,1,5.2c1-0.4,1.8-0.4,2.3-0.8c1.6-1.2,3.3-2.4,4.5-3.9c4.4-5.3,7.1-11.5,9.1-18.1c0.4-1.4,0.9-2.9,1.6-4.2
		c1.1-1.9,3-2.4,5-1.6c1.3,0.6,2.1,1.5,2,3c-0.1,1.6-0.5,3.2-0.7,4.7c-0.4,2.8-1,5.5-1.1,8.3c-0.2,4.5,2.2,5.9,6.1,3.6
		c2-1.2,3.8-2.8,5.2-4.5c2.8-3.4,5.2-7.1,7.8-10.6c0.3-0.4,0.4-1,0.6-1.5c0.7-2.2,2.2-3.1,4.9-2.9c1.9,0.1,3,1.2,3.2,3.5
		c0.2,2.8,0.3,5.6,0.4,8.4c0,0.3,0,0.6,0.1,1.5c0.6-1,1-1.5,1.2-2c3.1-6.6,6.1-13.2,9.5-19.7c1.9-3.7,4.2-7.2,6.4-10.7
		c0.8-1.2,1.8-2.2,2.9-3.1c4-3.5,10.7-1.8,12,4.1c0.7,3.4,0.7,6.8,0.3,10.3c-1,8.5-3.5,16.6-5.8,24.7c-1.4,5.1-2.8,10.2-4.2,15.3
		c-0.1,0.4-0.1,0.8,0.1,1.4c0.6-0.6,1.3-1.2,1.9-1.9c5.6-6.3,9.8-13.4,13.6-20.8c1.3-2.5,2.4-5.1,3.6-7.6
		c3.6-7.5,9.1-12.4,17.7-13.2c1.8-0.2,3.7,0,5.5,0.4c4.4,1.1,6.7,5.3,5.5,9.9c-0.9,3.4-2,6.7-2.9,10.1c-0.5,2-0.9,4.1-1.2,6.1
		c-0.1,0.8,0.1,1.7,0.1,2.6c2.4,0.5,4.2-0.5,5.8-1.9c3.3-2.8,5.6-6.4,6.6-10.6c0.5-2.1,0.8-4.2,1.4-6.3c1.9-6.8,9.1-8.6,14-3.7
		c4.4,4.4,6.5,9.8,7.1,15.8c0.2,2.5,0.4,4.9,0.4,7.4c-0.1,5.1,1.4,9.7,3.4,14.3c1.8,4.2,3.5,8.4,4.9,12.7c1.5,4.7,2.1,9.7,2.4,14.6
		c0.2,3.8-1.4,6.2-4.8,7.4c-3.6,1.2-7.1,0.2-9-2.9c-1.8-2.9-4.5-4.5-7.4-5.8c-3.3-1.4-6.6-2.8-10.1-4.2c-4.3,4.5-10.3,4.3-16,5.2
		c-3.5,0.5-7,0.9-10.4,1.4c-2.8,0.5-5.3,1.8-7.4,3.7c-0.5,0.4-1,0.9-1.4,1.3c-5.1,5.1-11.2,6.4-18.1,4.8c-2.5-0.6-4.9-1.3-7.4-2
		c-0.3,1.5,0.6,2.2,1.5,2.8c2.1,1.5,4.4,2.2,7,2.3c3,0.1,5.9,0,8.9-0.1c8.5-0.4,16.9-1,25.4-1.4c2.5-0.1,5-0.2,7.4,0
		c6.2,0.5,10.3,3.8,12.2,9.8c0.3,1.1,0.6,2.1,1,3.6c0.6-0.8,1-1.3,1.4-1.8c1.5-2.4,3.3-4.5,5.6-6.2c6.7-5.1,18-4.5,22.4,5.5
		c1.9,4.2,2.8,8.5,3.1,13c0.4,5.3,0.5,10.7,0.6,16c0,1.3-0.2,2.7-0.5,4c-0.9,5.2-3.7,9.1-8.6,11c-5.2,2-8.9,5.4-12.1,9.7
		c-4.7,6.3-10.4,11.2-17.7,14.2c-11.3,4.6-22.6,4.2-34,0.3c-5.6-1.9-10.8-4.8-15.5-8.4C826.6,416.5,826,416.1,825.3,415.6z
		 M419.2,290.9c-0.9,1.6-1.6,3-2.3,4.4c-4.7,8.6-9.5,17.3-15.7,24.9c-2.1,2.7-4.6,5.1-7.2,7.3c-5.4,4.6-15,1.5-16.6-6.2
		c-0.9-4.5-0.8-8.9-0.1-13.4c1.3-8.3,3.7-16.4,6.7-24.2c4.4-11.6,9.2-23,13.8-34.5c2.1-5.2,4.1-10.4,6.2-15.6
		c0.4-0.9,0.4-1.9,0.7-3.2c-0.9,0.2-1.5,0.2-1.9,0.4c-1.4,0.9-2.9,1.8-4,2.9c-4.2,4-7.5,8.7-10.7,13.5
		c-9.3,13.7-17.1,28.3-24.9,42.9c-2.5,4.6-5.2,9-7.9,13.4c-0.9,1.4-2.1,2.7-3.3,3.7c-2.4,2-5.5,1-6-2c-0.4-2.3-0.5-4.8-0.1-7.1
		c0.7-4.6,1.9-9.2,2.9-13.8c0.1-0.6,0.2-1.2,0.2-1.8c-3.9-0.7-4.6-0.2-5.5,3.2c-0.5,1.9-0.9,3.9-1.6,5.8c-1.6,4.2-2.9,8.4-4,12.8
		c-1.6,6.2-4.9,8.7-11.2,8.7c-2,0-3.4,0.7-4.4,2.4c-0.8,1.5-1.5,3-2.3,4.5c-3.7,7.8-9,14.2-16.6,18.4c-6.1,3.3-12.3,3.5-18.5-0.1
		c-3.1-1.8-3.1-1.8-5.4,1c-0.2,0.2-0.4,0.5-0.6,0.7c-5,6.6-11.6,10.9-19.1,13.9c-2.4,0.9-4.8,1.8-7.2,2.7c-3.5,1.2-8.7-0.4-11.3-3.4
		c-0.5-0.6-1-1.2-1.7-2c-1.4,1.3-2.7,2.6-4.1,3.8c-2.4,2.3-4.8,4.6-8,5.5c-3.4,0.9-5.5,3-6.8,6.2c-0.3,0.7-0.6,1.3-1,1.9
		c-2.8,4.6-6.7,7.8-12,8.8c-2.3,0.4-4.6,0.5-6.9,0.6c-7.2,0.2-13.4,2.7-18.5,7.9c-2.2,2.3-4.4,4.7-6.5,7.1
		c-4.9,5.5-10.9,9.1-18.1,10.5c-4.9,1-9.9,1.7-14.9,2.4c-7.2,0.9-13.3,3.8-18.5,8.8c-3.7,3.6-6.1,7.6-5.9,13.1
		c0.2,4-1.4,7.5-3.9,10.6c-3,3.6-6.7,6.1-11.2,7.5c-4.2,1.3-8.4,1.6-13,1.2c0.1,5.1-0.5,10.1-0.2,15c6.2,0.8,12.1,0.8,18,0.6
		c3.9-0.1,7.8-0.5,11.7-0.8c0.8-0.1,1.4-0.3,2-1.1c3.2-4,7.3-4.4,11.5-1.2c0.4,0.3,1.1,0.6,1.7,0.5c7.4-0.6,14.8-1.4,22.2-1.9
		c11.3-0.7,22.5-0.6,33.8,0.5c4,0.4,7.7-0.1,11.4-1.7c2.7-1.2,5.7-2.1,8.6-2.8c2.2-0.5,4.4-0.5,6.7-0.6c2-0.1,3.5-0.9,4.8-2.4
		c0.5-0.6,1-1.2,1.6-1.8c2.7-3,5.9-5.2,9.9-6c3-0.6,6-1.1,9-1.4c7.4-0.8,14.8-1.4,22.2-2c2-0.2,4-0.3,5.9-0.4c6-0.1,12,0.1,18-0.3
		c12.8-0.8,25.5-2.1,38.3-1.3c9.5,0.6,19,1.1,28.5,1.7c9.7,0.6,19.5,1.4,29.2,1.2c2.2-0.1,4.3-0.1,6.5,0.1c4.5,0.4,8.1,2.3,10.4,6.3
		c0.2,0.3,0.4,0.7,0.7,1.1c6.9-0.4,11.7,3.3,16,8.2c4.9,5.6,7.6,12.1,9,19.3c0.3,1.5,0.7,3.1,1.1,4.6c0.6,0.1,1,0.1,1.4,0.1
		c7.4,0.2,14.9,0.3,22.3,0.5c10.6,0.3,21.3,0.7,31.9,1.1c17.3,0.8,34.5,1.5,51.8,1.4c2.8,0,4.9,0.9,6.8,2.9
		c13.7,14.6,27.4,29.1,41.2,43.6c17.4,18.4,34.8,36.9,52.2,55.3c1.5,1.6,3.2,3.1,4.7,4.6c2.3-0.8,4.6-1.6,6.9-2.2
		c11.1-3.1,22.3-3.2,33.5-0.9c2.7,0.6,4.5-0.1,6.1-2c0.7-0.8,1.4-1.5,2.1-2.3c2.4-3,4.2-6.4,5.6-10c1.5-3.9,3-7.9,4.4-11.9
		c2.6-7.6,6.7-14.4,12.4-20c4.4-4.3,9-8.5,13.6-12.4c3.3-2.8,6.9-5.2,10.4-7.7c2.2-1.6,3.6-3.5,4-6.3c0.1-0.7,0.2-1.4,0.4-2.1
		c0.5-1.4,1-2.9,1.8-4.1c2.9-4.1,7.3-5.5,12-3.8c3.4,1.2,6.4,0.9,9.4-0.7c0.3-0.2,0.6-0.3,0.8-0.5c7.9-4.5,16.5-6.8,25.4-8.4
		c8-1.4,16-1.9,24.1-2.5c4.1-0.3,8.3-0.7,12.4-1.4c7.5-1.3,13.4-5.5,18.4-11c1.1-1.2,2-2.5,2.1-4.2c-2.1-0.8-4-0.3-5.8,0.7
		c-2,1.1-4,2.3-6,3.6c-7.5,4.7-15.7,6.2-24.4,4.9c-8.4-1.3-16-4.8-23.2-9.3c-1.3-0.8-2.5-1.8-3.5-2.8c-2.7-2.7-3.9-6-3-9.9
		c1.2-5.1,5.5-8.7,10.9-8.7c2.7,0,5.4,0.4,8.1,0.4c6.3,0.1,11.5-2.3,15.6-7c1.9-2.2,3.6-4.6,5.5-7c-0.4-0.1-0.8-0.3-1.2-0.5
		c-3.2-1.1-6.4-2-9.5-3.3c-7.2-3-14-6.7-20-11.8c-2.3-1.9-4.3-4.1-5.6-6.8c-3.1-6.6,0-13,7.1-14.5c1.5-0.3,3-0.4,4.5-0.5
		c4.1-0.2,8.1,0.5,12.1,1.3c3.6,0.7,7,0.5,10.1-1.7c0.6-0.5,1.4-0.8,2.1-1.2c2.3-1.3,4.7-1.6,7.2-0.9c2.1,0.6,4.2,1.5,6.2,2.5
		c2.2,1.2,4.2,2.6,6.2,4c5.3,3.8,11.2,5.8,17.6,6.3c8.8,0.6,16.4-1.9,22.4-8.7c1.9-2.2,3.9-4.5,5.8-6.8c3.5-4.2,7.5-7.7,12.8-9.4
		c1.7-0.6,2.3-1.6,2.4-3.3c0.2-5-0.6-9.9-1.4-14.8c-0.3-1.8-0.8-3.5-1.2-5.3c-0.2,0-0.3-0.1-0.5-0.1c-0.9,1.4-2,2.6-2.8,4.1
		c-1.6,3.1-2.9,6.4-4.3,9.6c-0.9,2.1-1.7,4.3-2.6,6.5c-0.8,2-2.3,3.3-4.5,3.6c-3.2,0.5-6.2-0.2-8.7-2.4c-1.9-1.6-3.3-3.6-3.9-5.9
		c-0.8-2.8-1.3-5.6-1.9-8.4c-0.7-3.5-1.4-7-2.2-10.6c-5.3,0.2-10.4,0.4-15.4,0.6c-6.7,0.3-13.4,0.8-20.1,1
		c-5.3,0.1-10.6-0.5-15.5-2.6c-7-3.1-11.3-8.3-11.9-16.1c-0.5-7.2,3.5-15.1,12.8-16.4c3-0.4,5.9,0,8.7,1c1.4,0.5,2.9,1,4.3,1.4
		c1.6,0.5,3,0.1,4.3-0.9c0.7-0.5,1.4-1.1,2-1.7c3.4-3.9,7.8-6.1,12.7-7.2c4.3-0.9,8.7-1.3,13-1.9c0.7-0.1,1.5-0.3,2.2-0.4
		c-0.1-1.9-0.3-3.5-0.4-5c-0.1-3.5,1.6-5.9,5-7.1c2.7-0.9,5.3-0.6,7.7,0.7c2.6,1.4,5,3.2,7.3,5c2.6,2.1,5.3,4,8.7,5.4
		c-0.3-0.8-0.4-1.3-0.6-1.8c-0.9-2-1.7-3.9-2.7-5.9c-2-4.4-3.1-9.1-3.2-13.9c-0.1-2.9-0.2-5.8-0.5-8.6c-0.2-2.2-0.6-4.4-2.1-6.2
		c-0.2,0.1-0.4,0.2-0.5,0.3c-0.3,0.5-0.5,1-0.7,1.5c-1.6,3.8-3.8,7.2-6.8,10.1c-2.9,2.7-6.4,4.4-10.3,5.2c-3.1,0.6-7.6-1.2-7.4-6
		c0-0.4-0.1-0.7-0.2-1.4c-2.9,2.7-6.1,4-9.8,3.4c-4-0.7-5.5-3.9-7.1-7.3c-0.5,1-0.9,1.7-1.3,2.4c-3.5,6.4-7,12.8-11.8,18.3
		c-1.4,1.6-2.9,3.3-4.6,4.6c-4.4,3.4-8.1,0.7-9.9-2.3c-0.4-0.7-0.8-1.6-0.9-2.4c-0.2-2.1-0.5-4.3-0.3-6.4c0.2-2.8,0.8-5.5,1.4-8.3
		c2.4-11.1,4.8-22.2,7.1-33.3c0.3-1.4,0.4-2.8,0.7-4.3c-2.3,1.8-3.5,4.1-4.7,6.5c-2.8,5.6-5.5,11.4-8.3,17
		c-2.3,4.7-4.6,9.5-7.1,14.1c-1.5,2.7-3.7,4.8-6.8,5.7c-2.2,0.6-4.1-0.3-4.7-2.5c-0.3-1.2-0.4-2.5-0.4-3.8c0-2,0.2-4,0.3-6.1
		c-0.8,0.4-1.1,0.9-1.6,1.3c-1.7,1.9-3.3,3.9-5.1,5.7c-2.5,2.5-5.4,4.4-9,5.2c-4.8,1-8-0.7-9.6-5.2c-0.2-0.6-0.5-1.2-0.8-2
		c-1.2,1.9-2.1,3.5-3.1,5c-1,1.5-2.1,3-3.3,4.4c-1.8,2.2-4,3.9-6.6,5c-4.4,1.9-9.1,0.2-11.1-4.1c-0.7-1.6-1.2-3.3-1.6-5
		c-0.9-4.5-0.6-9.1-0.2-13.6c0.1-1,0.1-2.1,0.2-3.4c-1.8,0.8-3.2,1.5-4.7,2.1c-1.6,0.6-3.1,1.4-4.7,1.7c-1.9,0.3-2.8,1.4-3.7,3
		c-1.2,2.2-2.5,4.3-4.1,6.1c-1.2,1.4-2.9,2.5-4.6,3.3c-4.2,1.9-8.6,0.4-11.1-3.5c-0.5-0.9-1-1.8-1.6-3c-0.6,1.1-1,2-1.5,2.9
		c-2.7,4.8-5.3,9.7-8.3,14.3c-1.5,2.4-3.6,4.5-5.8,6.3c-3.6,3-8.2,2.1-10.8-1.8c-0.6-1-1.1-2.1-1.5-3.2c-1.3-3.7-0.9-7.4-0.3-11.1
		c1-5.6,3-10.9,5.3-16.1c0.4-0.9,0.8-1.8,1.4-3.4c-3.3,1.9-6.3,1.7-9,1.2c-2.3,3.7-4.3,7.1-6.5,10.5c-1.9,2.9-4.3,5.3-7.2,7.3
		c-2,1.3-4.1,2.1-6.5,2.4c-2.8,0.3-6.5-1.5-6.8-5.3c0-0.6-0.2-1.2-0.4-2c-3.3,2.9-6.9,4.3-11,2.8c-4.2-1.6-5.1-5.6-6.2-9.8
		c-0.7,1-1.2,1.7-1.8,2.4c-3.6,4.5-7.1,9-10.9,13.4c-2.4,2.8-5.3,5.1-8.5,6.9c-3.2,1.8-6.6,2.9-10.3,3c-5.8,0.2-10.2-2.3-13-7.4
		c-3.6-6.7-3.9-13.9-2.9-21.2c1.6-11,5.1-21.4,10.4-31.2c0.2-0.5,0.3-1,0.5-1.8c-2.1-0.7-4-1.5-6-1.9c-7.8-1.5-12.4,0.5-16.3,7
		c-1,1.6-1.8,3.4-2.6,5.1c-3.1,7.1-6.1,14.2-9.4,21.3c-3.3,7.2-6.8,14.3-10.5,21.3c-2.4,4.6-5.5,8.8-9.3,12.5c-2,1.9-4.2,3.4-7,4
		c-3.5,0.8-6.4-1.1-6.7-4.6c-0.2-2.5,0-5.1,0.2-7.6c0.9-8.5,3.2-16.6,5.8-24.7c0.2-0.7,0.4-1.3,0.6-2c-2.1,2.1-3.8,4.3-5.3,6.6
		c-3.7,5.5-7.3,11.1-11,16.6c-0.9,1.3-1.9,2.7-3.1,3.5c-3.2,2.2-7.3,0.1-7.5-3.8c-0.1-1.2,0.1-2.4,0.3-3.6c0.4-2.7,0.9-5.5,1.4-8.2
		c-0.9,0.4-1.4,1-2,1.5c-2.3,2.4-4.5,4.8-6.9,7c-1.1,1-2.6,1.8-4.1,2.4c-1.9,0.7-3.5,0.2-4.6-1.5c-0.6-1-1-2.1-1.4-3.3
		c-0.3-0.9-0.4-1.8-0.6-3.2c-0.6,1-0.9,1.7-1.3,2.3c-1.5,2.7-2.9,5.6-4.6,8.1c-2,2.9-4.3,5.6-6.5,8.3c-0.5,0.6-1.2,1.1-1.8,1.6
		c-3.8,2.7-8.3,1.9-10.8-2.1c-2.3-3.6-2.6-7.7-2.1-11.8c0.8-7,3.4-13.4,6.2-19.8c0.2-0.5,0.4-1.1,0.8-2c-3.3,1.5-6.3,1.8-9.4,0.7
		c-0.5-0.2-1.4,0.2-1.9,0.6c-3.8,2.1-7.6,4.1-11.8,5.1c-1.2,0.3-1.9,0.9-2.5,2c-0.9,1.7-1.8,3.4-2.9,5c-1.4,2.2-3.3,3.9-5.7,5
		c-4.1,1.9-8.1,1.1-11-2.4C420.1,292.2,419.8,291.7,419.2,290.9z M466.8,308.3c0.2,0.1,0.4,0.3,0.6,0.4c0.8-0.4,1.8-0.6,2.5-1.2
		c1.1-0.9,2.2-1.9,3-3c2.5-3.6,5-7.2,7.1-11.1c3.7-6.8,7.5-13.6,8.6-21.4c0.2-1.3,0.6-2.5,1-3.7c2.2-6.1,4.4-12.2,6.6-18.2
		c0.4-1,0.7-2,1.2-3.4c-2.6,0.3-4.7,0.5-6.8,0.7c-2.1,0.2-4.3,0.4-6.4,0.6c-2.2,0.2-4.5,0.3-6.7,0.4c-2.2,0.1-4.3,0-6.5-0.1
		c-2.1-0.1-4.1-0.3-6.7-0.4c4.8,3.7,5.8,8.1,4.1,13c-0.9,2.8-2.6,5.3-3.9,7.9c-0.4,0.7-0.8,1.4-1.3,2.1c0.1,0.1,0.2,0.3,0.4,0.4
		c1.2-0.5,2.5-1,3.7-1.3c1.5-0.4,3.1-1,4.6-1c4.3,0,6.1,2.8,4.6,6.7c-1.2,3.1-2.4,6.1-3.6,9.1c-2.3,6.2-4.6,12.4-5.8,19
		C466.8,305.3,466.9,306.8,466.8,308.3z M494.1,293.8c0.8-0.4,1-0.6,1.3-0.8c0.4-0.3,0.8-0.6,1.1-0.9c4.7-4.6,8.4-10.1,12-15.5
		c0.2-0.3,0.4-0.7,0.5-1.1c3.4-9.2,7.1-18.1,11.3-26.9c0.7-1.6,0.6-1.9-0.9-2.6c-2.6-1.3-5.5-1.8-8.4-1.7c-2.2,0-4,0.9-4.9,3.1
		c-0.3,0.8-0.9,1.5-1.2,2.3c-6.1,12.7-9.6,26.2-10.9,40.2C493.9,291,494,292.2,494.1,293.8z M750,267.2c0.6-0.5,1-0.8,1.3-1.1
		c3.7-3.6,6.9-7.5,9.7-11.8c2.9-4.4,5.5-9,6.5-14.3c0.4-2.1,0.4-4.3,0.3-6.4c-0.1-1.7-1.2-2.2-2.7-1.3c-0.7,0.4-1.3,0.9-1.8,1.6
		c-1.6,2.5-3.4,4.9-4.6,7.5c-3.7,7.7-6.2,15.9-8.5,24.1C750,266,750.1,266.4,750,267.2z M602.9,248c1.4,1,2.8,1.2,4.1,0.9
		c4.6-1.1,9-2.7,12.6-5.9c2-1.8,3.6-3.9,3.6-6.7c0.1-2.7-1.8-4.3-4.4-3.5c-1.8,0.6-3.6,1.4-5.1,2.5C609.1,238.4,606,243.1,602.9,248
		z M647.2,268.9c-0.9,0.4-2.3,0.7-3.4,1.5c-5.7,4.3-6.7,11.4-5.5,17c0.4,1.6,1.2,1.9,2.9,1.4c1.7-0.6,2.8-2,3.4-3.5
		c2-4.7,3.9-9.4,5.9-14.1c0.4-1.1,0-1.7-1-2C648.9,269.1,648.3,269.1,647.2,268.9z M849.6,283.3c0.1,1.1,0.1,2.2,0.3,3.3
		c0.4,2.5,1.7,3.1,3.9,1.8c1.7-1,2.5-2.7,3.3-4.3c1.3-3,2.6-6,3.8-9.1c0.4-0.9,0.7-1.8,1-2.7c0.5-2-0.7-3.5-2.8-3.3
		c-1.6,0.1-2.9,0.8-4,1.9C851.3,274.3,849.5,278.4,849.6,283.3z M549.4,220.9c-5.4,2.7-21.8,28.3-23.2,35.5c2.4-3.2,4.7-6.2,6.8-9.3
		c5.1-7.1,10.2-14.1,14.3-21.8C548.1,224,548.7,222.4,549.4,220.9z M435.4,275.5c1-3,0-9.9-1.7-12.2c-1.1-1.5-3.1-1.6-4.7-0.4
		c-2.4,2-2.6,5.5-0.3,8.1C430.5,273.1,432.7,274.4,435.4,275.5z M720.1,275.5c0.2-0.5,0.4-0.7,0.4-1c0.3-3.6-0.2-7.2-1.7-10.5
		c-1.1-2.3-3.5-2.6-5.4-0.8c-2.1,2-2.1,5.3-0.1,7.8C715.2,273.1,717.5,274.4,720.1,275.5z M433.2,284.6c-3.2-1.3-6.1-2.4-9-3.6
		c-1.2,2.1-1.5,3.9-1.1,6c0.7,3.7,4.1,4.9,7,2.6C431.7,288.3,432.7,286.4,433.2,284.6z M717.9,284.6c-3.3-1.3-6.3-2.6-9.5-3.8
		c-0.7,1.9-0.9,3.9-0.7,6c0.2,1.7,0.9,3.1,2.5,3.8c1.7,0.7,3.3,0.2,4.6-1C716.5,288.2,717.4,286.4,717.9,284.6z M675.9,267.1
		c1.7-1.8,2.9-3.6,3.5-5.6c0.5-1.4,0.8-2.9,0.8-4.4c0-2-1.1-3.4-2.3-3.5c-1.1,0-2.3,1-2.8,2.9C674.1,259.9,674.3,263.4,675.9,267.1z
		 M460.4,267.4c1.2-2.1,2.2-3.6,3-5.2c0.9-1.6,1.2-3.5,1.1-5.3c-0.1-2-1-3.2-2.2-3.3c-1.2-0.1-2.3,0.9-2.9,2.8
		C458.4,259.9,458.7,263.4,460.4,267.4z"/>
	<path d="M772.9,259.2c2.3,0.1,3.6,1.5,3.6,3.9c-0.1,2.4-2.2,4.5-4.5,4.4c-2.1,0-3.6-1.6-3.6-3.7C768.5,261,770.3,259.1,772.9,259.2
		z"/>
</g>
</svg>
