<?xml version="1.0" encoding="utf-8"?>
<!-- Generator: Adobe Illustrator 23.0.4, SVG Export Plug-In . SVG Version: 6.00 Build 0)  -->
<svg version="1.1" id="Layer_1" xmlns="http://www.w3.org/2000/svg" xmlns:xlink="http://www.w3.org/1999/xlink" x="0px" y="0px"
	 viewBox="0 0 1008 1008" style="enable-background:new 0 0 1008 1008;" xml:space="preserve">
<g>
	<path d="M181.8,744.1c-0.6,1.3-1,2.3-1.5,3.3c-4.8,8.5-17,10.1-23.3,4.4c-0.7-0.6-1.4-1.3-2.2-1.9c-1.6-1.4-3.5-2.4-5.7-2.3
		c-3.4,0.2-6.3-0.8-8.8-3.2c-1.1,0.5-2.1,1-3.1,1.4c-1.4,0.4-2.7,0.9-4.2,1c-4.5,0.3-7.8-2.4-8.2-6.9c-0.3-2.5-0.2-5.1-0.2-7.7
		c0.1-22.9,0.4-45.7,0.4-68.6c0-171.7,0-343.3,0-515c0-1.8-0.1-3.5,0-5.3c0.3-4.7,2.8-7.3,7.5-7.7c1.9-0.2,3.8,0,5.7,0.1
		c7,0.6,14.1,0.5,21-0.8c1.3-0.2,2.5-0.5,3.7-0.9c2-0.6,3.1-2,3.7-4c1.3-4.8,2.8-9.5,4.3-14.2c0.6-1.8,1.3-3.6,2.2-5.3
		c4.7-8.7,10.5-16.4,18.3-22.6c4.3-3.4,9-6,14.5-7.1c8.5-1.7,15.5,0.9,20.8,7.8c3.2,4.2,4.7,9,5.6,14.1c1.1,6.4,0.6,12.8-0.4,19.1
		c-0.3,2-0.6,4-1,6.4c1.4,0.1,2.5,0.1,3.5,0.2c1.3-1.6,1.3-3.4,1.7-5c1.9-8.8,4.3-17.4,7.7-25.7c1.7-4,3.6-7.8,6.2-11.3
		c1.5-2,3.2-3.6,5.5-4.5c4.6-1.8,8.3,0.5,8.3,5.3c0,2.8-0.6,5.7-1.3,8.5c-1.1,3.7-2.5,7.3-3.9,10.8c-3.9,9.3-8.6,18.2-13.6,27
		c-1.8,3.1-2.9,6.3-3.1,10.8c1.3-1.6,2-2.5,2.8-3.4c2.3-2.8,4.6-5.8,7-8.5c0.9-1,2.2-1.8,3.5-2.5c1.4-0.7,3.1,0,3.4,1.5
		c0.4,1.7,0.5,3.5,0.4,5.2c-0.3,5.1-0.9,10.2-1.2,15.3c-0.2,3.8-0.3,7.7-0.2,11.5c0,2.3,0.2,4.7,1.1,6.7c1.3,0.5,1.9-0.1,2.3-0.8
		c1.6-2.6,3.4-5.1,4.6-7.8c3.9-8.4,7.5-16.9,9.2-26.2c0.2-1.4,0.8-2.8,1.4-4.1c0.5-1.2,1.5-2,2.8-2.4c2.2-0.5,4.4,0.9,4.4,3.2
		c0,1.4-0.3,2.9-0.5,4.3c-0.4,2.5-1,5-1.3,7.6c-0.2,1.9-0.3,4.1,1.6,5.2c2,1.1,4.1,0.1,5.8-1.2c1.7-1.4,3.4-2.9,4.8-4.7
		c2.7-3.4,5.1-7,7.6-10.5c-0.5-1.5-1.1-2.8-1.5-4.2c-1.4-5-0.5-9.6,3.7-13c4.3-3.5,9.2-4.3,14.4-1.9c3.6,1.7,5.6,4.8,6.5,8.5
		c0.6,2.3,0.6,4.7,0.8,7.1c0.1,1.6,0.1,3.1,0.1,5.1c1.1-0.4,1.8-0.5,2.5-0.9c0.7-0.4,1.4-0.8,2-1.4c4.1-3.8,9.1-5.2,14.5-5.1
		c2.6,0,5.1-0.1,7.7-0.2c8-0.2,15.9-1.3,23.7-3.1c1.1-0.3,2.2-0.5,3.3-0.7c6.8-1.3,13.1-0.2,18.5,4.3c2.8,2.3,5.5,4.9,8,7.6
		c2.5,2.8,5.4,4.9,9,6.1c16.7,5.6,31,15,44.2,26.4c0.6,0.5,1.3,1,1.7,1.6c1.2,1.6,2.8,2.6,4.7,3.1c0.8,0.2,1.5,0.6,2.2,0.9
		c4.3,2.2,5.8,6.7,3.3,10.9c-1.1,1.9-2.7,3.6-4,5.3c-0.5,0.6-1,1.1-1.8,2c1.6,0.6,2.8,0.4,3.9,0.1c4-1,8-2.1,12-3.2
		c5.1-1.4,10.2-2.5,15.6-2.4c6.1,0,11.7,1.6,16.9,4.7c2,1.2,3.9,2.7,6,4c4.1,2.6,8.1,5.1,12.2,7.5c3.9,2.3,7.9,2.2,11.8-0.1
		c2.3-1.4,4.7-2.7,7-4.3c6.5-4.5,13.8-6.4,21.7-6.9c3.4-0.2,6.7-0.6,10-0.9c4.3-0.3,8-2.1,11.2-4.9c1.8-1.6,3.4-3.4,5.1-5.1
		c3-2.8,5.9-5.9,9.2-8.3c6.7-5,14.3-6,22.3-3.9c2.8,0.7,5.3,2.3,7.6,3.9c3.7,2.6,7.7,4.5,11.9,6.1c4.4,1.7,8.7,1.9,13.1,0.3
		c8.9-3.2,17.8-6.2,26.3-10.3c3.7-1.8,7.4-3.8,10.9-6c6.2-3.8,11.5-8.7,15.7-14.6c2.3-3.3,4.5-6.6,6.8-9.9c2.5-3.7,5-7.4,7.7-11
		c5.5-7.2,12.6-12.2,21.4-14.7c3.8-1.1,7.7-2.2,11.6-3.2c5.6-1.4,10.9-3.7,15.9-6.5c2.2-1.3,4.5-2.5,6.6-3.9
		c8.9-5.8,18.6-9.1,29-10.9c3.5-0.6,6.9-1.3,10.4-2c5.1-1,9.9-2.7,14.1-5.8c5.4-3.9,11.5-6.2,18-7.6c2.6-0.6,5.3-1.3,7.9-2
		c5.3-1.5,10.1-3.9,14.5-7.3c2.2-1.8,4.7-3.4,7.3-4.5c6.2-2.7,11.8,1,12.2,7.6c0.1,1.3,0,2.6,0,3.8c0,21.8,0,43.5,0,65.3
		c0,2.7,0.2,5.4-1.2,8c-0.7,1.3-0.6,2.8-0.2,4.2c0.6,2.5,1.1,5,1.7,7.5c1.7,6.9,2.5,13.8,2.4,20.9c-0.1,25.9,0,51.8-0.1,77.8
		c0,25.4-0.1,50.9-0.1,76.3c0,13.8,0.2,27.5,0.2,41.3c0,3.2-0.1,6.4-0.8,9.5c-1.7,8.6-7.7,14-16.4,15c-1.3,0.2-2.6,0.1-3.8,0.3
		c-1.8,0.2-3.4,0.8-4.4,2.6c0.9,2.2,2.4,3.8,3.7,5.6c4.1,5.9,6.7,12.3,7.6,19.5c0.8,6.7,0.2,13.1-4.1,18.8c0.3,0.9,0.6,1.8,1,2.7
		c1.2,2.7,1.6,5.5,1.7,8.4c0.1,4.2,0.1,8.3,0.1,12.5c0,1.4-0.3,2.9-0.5,4.3c-0.7,3.7-2.5,6.5-6.1,8.1c-0.6,0.3-1.1,0.6-1.6,0.9
		c-0.2,0.4-0.4,0.6-0.5,0.9c-1.8,7.6-5.2,14.4-10.1,20.5c-1.3,1.6-1.9,3.4-1.5,5.4c0.8,5.2-0.5,9.8-3.8,14c0.3,1.1,0.6,2.2,0.9,3.3
		c1.4,4.8,1,9.5-1.3,14c-0.9,1.7-1.8,3.4-2.7,5.1c-1.9,3.6-3,7.4-2.4,11.5c0.2,1.1,0.2,2.2,0.1,3.3c-0.2,2.9-1.5,5.2-4.2,6.5
		c-0.7,0.3-1.4,0.7-2.2,1.1c0.1,4.2-0.3,8.1-4.3,10.6c-0.4,5-0.5,10.1-5.2,13.4c1.5,2.4,2.8,4.4,4.1,6.4c2.4,4.1,2.1,7.4-1.5,10.7
		c-3.2,2.9-4.7,6.3-4.9,10.6c-0.1,1.7-0.3,3.5-0.8,5.2c-1.6,5.5-5.8,9.1-11.5,9.2c-4.3,0.1-7.7,1.8-10.8,4.4
		c-6.3,5.5-11.8,11.7-16.2,18.9c-1.6,2.6-3.1,5.2-4.8,7.8c-1.1,1.7-2.4,3.4-3.7,5c-2.1,2.5-4.7,4.4-8,5c-2.4,0.5-3.6,1.8-4.4,3.9
		c-0.6,1.5-1.3,2.9-2.1,4.3c-3.1,4.9-7.4,7.4-13.3,6.5c-0.8-0.1-1.6-0.2-2.4-0.3c-2-0.3-3.8,0.2-5.3,1.6c-0.7,0.6-1.5,1.3-2.2,1.8
		c-5.9,4.1-12.6,3.8-18.2-0.7c-1.4-1.1-2.5-2.5-3.7-3.7c-1-1-2-2-3.1-3.3c-3.2,2.1-6.3,4-9.3,6.1c-3.5,2.5-5.3,5.9-4.9,10.3
		c0.1,1.6,0.1,3.2,0.2,4.8c0.4,6-4.7,9.9-9.4,10.2c-3.1,0.2-6.1-0.3-9-1.2c-0.7-0.2-1.5-0.5-2.3-0.7c-0.8,1.4-1.4,2.7-2.2,3.9
		c-1.5,2.5-3.7,4.4-6.1,6c-2.8,1.7-3.7,4.1-3.1,7.4c0.6,3.1,1,6.3,1.2,9.5c0.3,6.2-1.8,11.3-7.3,14.7c-0.4,0.2-0.6,0.7-1.1,1.1
		c5.3,5.6,8.8,11.6,3.9,18.9c1,2.9,2.2,5.4,2.8,8c1.4,6.2-2.1,10.5-8.4,10.3c-2.5-0.1-4.9-1-7.8-1.6c-0.4,0.6-1,1.5-1.6,2.4
		c-2,3.1-4.2,6.1-7.3,8.2c-3.8,2.6-7.9,3.5-12.3,1.7c-4.3-1.7-6.6-5-7.1-9.5c-0.4-3.6,0.4-7,2.6-10c0.9-1.3,1.9-2.6,2.6-4
		c1.2-2.4,0.5-4.1-2.2-4.6c-4-0.6-7.8-1.8-10.9-4.3c-0.4,0.4-0.7,0.5-0.8,0.8c-1.5,4.8-4.7,8.2-8.9,10.9c-4,2.6-6,6.5-6.5,11.2
		c-0.3,2.4-0.6,4.8-0.9,7.1c-0.6,4.7-2.7,8.5-6.4,11.4c-1.8,1.3-3.5,2.7-5.4,4.2c0.3,1.1,0.5,2,0.7,2.9c0.6,2.3,1.2,4.6,1.7,7
		c0.9,4.1,1.4,8.2,2.5,12.2c2.4,8.7-0.2,16.1-5.7,22.7c-3.2,3.9-7.4,6-12.6,5.5c-0.9-0.1-1.9,0-3.2,0c-1.5,3.1-2,6.6-2.2,10
		c-0.3,3.2-0.4,6.4-1,9.5c-0.4,2.3-1.3,4.6-2.4,6.7c-2.2,4.2-5.7,6.8-10.3,8c-1.7,0.4-3.4,0.8-5.2,1c-4.1,0.5-7.7,2.1-10.5,5.2
		c-4.7,5.1-10.6,6.8-17.4,6.5c-7.3-0.4-13.3-4.5-15.7-11.4c-1-3-1.4-6.2-2-9.3c-0.2-1.2-0.2-2.5-0.3-3.8c-0.7-0.3-1.2-0.7-1.8-0.8
		c-4.9-1.4-8.2-4.8-10.5-9.2c-0.4-0.7-0.7-1.4-1.1-2.1c-1.2-2.7-3.4-3.8-6.2-3.4c-2.7,0.4-5.4,0.3-8.1-0.1
		c-5.9-0.9-10.1-4.1-12.3-9.5c-0.9-2.3-1.4-4.9-1.9-7.4c-0.3-1.6-0.3-3.2-0.5-4.8c-0.2-2.1-0.9-4.1-2.4-5.7c-4.1-4.2-5.4-9.3-5-15
		c0-0.3,0-0.6-0.1-0.9c0-0.1-0.2-0.2-0.4-0.5c-1.6,0-2.8,1-4.1,2c-5.4,4.3-5.4,4.3-11.8,4.8c-0.8,1.2-1.6,2.5-2.5,3.8
		c-1.6,2.5-3.6,4.5-6.6,5.2c-2.5,0.6-3.8,2.1-4.2,4.6c-0.1,0.5-0.3,0.9-0.4,1.4c-2.4,8.9-9.9,13.1-18.9,10.8
		c-1.8-0.5-3.6-1.3-5.4-1.9c-2.3-0.9-4.3-0.7-6,1.5c-1.5,1.9-3.5,3.1-5.9,4c-5.5,2-11.4-1.1-13.4-6.1c-0.4-0.9-0.6-1.8-0.8-2.8
		c-0.7-3.5-3-5.1-6.3-5.6c-1.4-0.2-2.9-0.1-4.3-0.3c-1.9-0.2-3.8-0.3-5.7-0.6c-3.3-0.5-5.9-2.3-7.8-5.1c-0.4-0.7-0.8-1.4-1.3-2
		c-0.9-1.3-2.3-1.9-3.8-1.5c-2.8,0.7-5.5,1.6-8.3,2.5c-1.7,0.6-3,1.8-4,3.3c-0.3,0.5-0.7,1.1-1,1.7c-3.7,7.2-10.5,10.2-19.5,8.1
		c-6.2-1.5-11.6-4.6-16.2-9c-5.7-5.4-10.7-11.4-13.7-18.9c-0.8-2-2.1-3-4.2-3.4c-3.5-0.6-6.9-1.5-9.5-4.1c-1-1-2.3-0.9-3.6-0.3
		c-1.9,0.9-3.7,1.9-5.5,2.9c-6.4,3.6-12.8,3.4-19.3,0.4c-2.3-1.1-4.5-2.4-6.7-3.8c-2.6-1.6-5.2-2.6-8.6-2c-5.1,0.9-9.1-1.8-10.7-6.8
		c-0.8-2.6-0.9-5.3-1.2-8c-0.1-1.3,0.1-2.6,0.1-3.8c0-2.8-0.8-5.3-2.6-7.6c-0.7-0.9-1.4-1.8-2.1-2.6c-2.2-2.6-3.4-5.8-4.2-9.1
		c-0.5-1.9-0.8-3.8-1.3-5.6c-1.3-4.8-4.2-8.2-8.9-9.9c-1.8-0.7-3.6-1.3-5.4-2c-5.5-2.1-8.9-5.9-10.1-11.8
		C189.6,745,187.4,743.6,181.8,744.1z M248.6,115.8c1.1,0,1.2-0.9,1.5-1.5c2.5-5.9,4.9-11.7,7.3-17.6c0.8-1.9,1.1-4,1.6-6
		c0.1-0.5,0.2-1.3-0.9-1.6c-1.5,0.6-1.9,2.2-2.5,3.6c-3,6.9-5.1,14-6.9,21.3c-0.1,0.6,0,1.2,0,1.9c-0.3,0.3-0.6,0.6-0.7,0.9
		c-0.1,0.1,0.3,0.4,0.4,0.7c0.1-0.1,0.2-0.3,0.2-0.4C248.6,116.7,248.6,116.2,248.6,115.8z M883.3,78.5c-1.4,0.6-2.6,1.1-3.7,1.6
		c-5.6,2.7-11.5,4.8-17.7,5.9c-5.9,1-11.4,3.2-16.3,6.7c-4.9,3.5-10.4,5.6-16.2,6.9c-3.3,0.7-6.6,1.4-9.9,2
		c-9.3,1.5-18,4.3-25.9,9.5c-0.7,0.4-1.4,0.8-2.1,1.2c-6.7,4.2-13.8,7.3-21.4,9.6c-4.1,1.2-8.3,2.6-12.4,3.5
		c-6.3,1.5-11.5,4.8-15.6,9.7c-2,2.5-3.9,5.1-5.7,7.7c-2.4,3.6-4.8,7.2-7.2,10.8c-6.3,9.8-14.8,17.1-24.9,22.7
		c-11.5,6.4-23.6,11.3-36.1,15.5c-1.7,0.6-3.4,1.1-5.1,1.4c-4.9,1-9.9,1.2-14.8-0.1c-5.9-1.5-11.5-3.9-16.6-7.2
		c-1.2-0.8-2.4-1.6-3.6-2.3c-4.5-2.5-8.9-2.2-13,1c-2,1.6-3.7,3.5-5.5,5.3c-3,2.9-5.9,5.9-9,8.6c-3.9,3.3-8.4,5.3-13.4,5.9
		c-3.3,0.4-6.7,0.8-10,0.9c-8.2,0.3-15.8,2.2-22.5,7.1c-1.4,1-3,1.9-4.5,2.8c-7.2,4.5-14.8,5-22.5,1.6c-4.1-1.8-8-4-11.8-6.3
		c-3.3-2-6.3-4.4-9.4-6.6c-4-2.8-8.3-4-13.2-2.9c-4.8,1.1-9.6,2.3-14.4,3.6c-6.6,1.7-13.2,2.6-19.9,1.6c-7.6-1.2-13.3-5.4-16.6-12.4
		c-2.2-4.7-0.3-9,4.6-10.8c1.3-0.5,2.6-0.8,4.3-1.3c-1.2-1.3-2-2.2-2.9-3.1c-11-10.1-23.4-17.8-37.3-23c-1.6-0.6-3.3-1.2-4.9-1.8
		c-4.3-1.6-7.9-4.2-10.8-7.7c-1.5-1.8-3.2-3.6-4.9-5.3c-2.8-2.8-6.1-3.8-10.1-2.7c-9.6,2.6-19.6,3-29.4,3.8
		c-7.4,0.6-14.7,0.1-22-0.9c-1.9-0.3-3.8-0.7-5.9,0.3c-1,1.7-2.1,3.7-3.3,5.6c-1.7,2.6-3.8,4.7-6.8,5.8c-3.9,1.4-7.8,0.4-10.3-2.9
		c-0.8-1.1-1.4-2.5-1.9-3.8c-0.3-0.7-0.2-1.6-1.4-1.7c-1.8,1.9-3.6,4-5.6,5.9c-2.2,2.1-4.7,3.9-7.6,4.8c-3.6,1.1-7,1.2-9.6-2.1
		c-0.3-0.4-0.8-0.5-1.3-0.9c-0.8,1.8-1.6,3.5-2.3,5.3c-1.9,4.6-4.1,9-7,13.1c-1.6,2.2-3.4,4.3-5.9,5.5c-2.9,1.4-5.3,0.8-7.1-1.8
		c-0.8-1.2-1.4-2.5-1.8-3.9c-0.6-2.3-1.1-4.7-1.3-7.1c-0.4-5.8-0.4-11.5,0.8-17.2c0.4-1.8,0.6-3.7,1-6.5c-1.3,1.7-2.1,2.7-2.8,3.7
		c-2,2.9-3.9,5.9-5.9,8.7c-0.7,1-1.6,2-2.6,2.8c-2.4,2.1-5.6,1.3-6.5-1.8c-0.5-1.6-0.6-3.5-0.6-5.2c0.2-4,0.6-8,0.9-11.9
		c0-0.4-0.2-0.9-0.3-1.5c-1.3-0.1-2.5-0.2-3.9-0.3c-0.7,1.6-1.3,3.1-1.8,4.5c-3.3,8.4-8,16-14.2,22.6c-5.3,5.5-11.4,9.8-18.8,12.1
		c-10.8,3.4-20.7-0.8-25.8-10.9c-1.5-3-2.6-6.2-3.1-9.6c-0.4-3-0.8-6-1.1-9c-0.4,0-0.7-0.2-1-0.1c-4.8,2.8-10.2,3.6-15.6,4.3
		c-2.6,0.4-5.4,0.4-8.1,2.2c0,191.4,0,382.8,0,574.3c0,0.8,0.1,1.5,0.2,2.1c0.5,0.3,0.8,0.6,1.1,0.6c3.7,0.2,6.8,1.6,9.2,4.5
		c0.5,0.7,1.6,1.2,2.4,1.3c4.4,0.8,8.2,2.6,11.3,5.9c0.5,0.5,1.3,0.9,1.8,1.2c0.5-0.3,0.9-0.3,1-0.6c0.7-1.1,1.3-2.2,1.9-3.3
		c1.7-3.3,4.4-5.5,7.9-6.7c8.8-3.1,21.4,1.8,25.8,10c0.7,1.4,1.1,3,1.6,4.5c0.4,1.2,0.8,2.4,1.1,3.3c3.5,1.6,6.8,2.9,9.9,4.5
		c5.4,2.9,9.5,7.1,11.9,12.7c1.1,2.5,1.8,5.1,2.4,7.8c0.8,3.5,2.1,6.7,4.4,9.5c0.5,0.6,0.9,1.3,1.4,1.9c3,4.1,4.6,8.7,4.6,13.9
		c0,1.4,0.1,2.8,0.2,4.3c5.9,0.8,10.9,3.3,15.6,6.3c0.3,0.2,0.5,0.3,0.8,0.5c3,2,6,1.9,9,0.2c1.2-0.7,2.4-1.5,3.8-2.1
		c1.9-0.8,3.8-1.8,5.8-2.2c4-0.9,8.1-0.8,11.5,1.8c3,2.3,6.3,3.7,10,4.3c4.1,0.6,6.9,3.1,8.9,6.6c0.9,1.5,1.6,3.2,2.3,4.7
		c2.4,5.1,5.7,9.7,9.8,13.5c2.1,2,4.4,3.7,7.1,4.8c3.2,1.3,4.6,0.9,6.3-2.1c2.1-3.8,5.1-6.5,8.9-8.5c4.7-2.5,9.7-4.2,15-4.6
		c1.9-0.2,3.8-0.1,5.7,0.1c4.5,0.5,8.2,2.5,10.9,6.3c0.6,0.9,1.3,1.8,1.8,2.4c3.5,0.4,6.7,0.7,9.9,1.3c3.2,0.6,6.2,1.7,8.8,3.7
		c2.4,1.9,4.6,4.2,7,6.5c3.3-2.3,7-3.1,10.9-2.5c2.2,0.3,4.3,1.2,6.4,1.8c1.6,0.5,3.2,1.6,5.2,0.6c0.8-2.1,1.5-4.4,2.4-6.6
		c1.4-3.2,3.3-6.2,6.6-7.2c3.3-1,5.1-2.9,6.5-5.7c0.2-0.4,0.5-0.8,0.8-1.2c2.6-3.6,5.9-5.8,10.5-5.7c1.8,0.1,3-0.6,4.4-1.6
		c4.3-3,9.1-4.4,14.4-4.3c7.2,0.1,14.9,6.2,13.6,14.6c-0.5,3.2,0.4,5.9,2.6,8.4c3.4,3.8,5,8.5,4.9,13.7c0,1.4,0.1,2.9,0.4,4.3
		c0.4,1.9,1.6,3.1,3.6,3.2c2.1,0.1,4.2,0.1,6.2,0.1c5.5-0.1,10,2.1,13.5,6.2c1.3,1.6,2.6,3.3,3.6,5.1c1.1,2.1,2.7,3.5,5.1,4
		c4.9,1,7.8,4.3,9.1,8.9c0.8,2.9,1.1,5.9,1.5,8.9c0.2,1.4,0.1,2.9,0.5,4.3c0.6,2.2,2.8,3.4,4.8,2.4c1.7-0.8,3.5-1.8,4.8-3.1
		c4.6-4.7,10.3-6.9,16.6-7.8c1.3-0.2,2.5-0.4,3.8-0.7c2.1-0.5,3.2-1.9,3.4-4.1c0.1-1.1,0.1-2.2,0.1-3.4c0.1-4.7,0.6-9.3,1.9-13.7
		c0.8-2.6,1.8-5.2,3.1-7.5c2.8-4.8,7.1-7.2,12.7-7c1.4,0,2.8,0,4.1,0c2.7-3.8,3.3-5,2.6-7.5c-1.4-4.6-1.7-9.4-2.4-14.2
		c-0.4-2.8-1.4-5.2-3.2-7.3c-3.4-4-3.4-7-0.3-11.2c2.4-3.2,5.3-6,8.7-8.1c2.6-1.6,3.7-3.8,4-6.7c0.1-1,0.2-1.9,0.3-2.9
		c0.7-4.5,1.8-8.8,3.8-12.8c2.1-4.1,4.8-7.7,9-9.7c2.5-1.2,3.6-3,4.1-5.5c0.2-0.9,0.3-1.9,0.5-2.8c2-7.9,12.8-14.2,21.3-6.1
		c0.3,0.3,0.7,0.7,1,1c1.6,2,3.7,2.9,6.2,3.2c6.3,0.8,10.4,4.6,12.9,10.2c0.5,1,0.8,2.1,1.2,3.1c0.1,0.2,0.5,0.4,1,0.7
		c1.2-0.3,2.5-0.7,3.7-1c0.8-2.3,1.4-4.2,2.1-6.3c-1.2-1.1-2.5-2.3-3.8-3.5c-2.1-2-3.8-4.3-4.8-7.1c-2.1-5.8,0.4-11.5,6.1-13.7
		c1-0.4,2.2-0.6,3.2-0.9c0.9-0.3,1.7-0.6,2.5-0.9c0.5-2.8-0.1-5.3-0.4-7.9c-0.2-2.4-0.6-4.8-0.6-7.2c-0.1-4.2,1.5-7.8,4.3-10.9
		c1.1-1.2,2.2-2.3,3.5-3.2c2.6-1.8,4.4-4,5.4-7.1c1.5-4.7,5.1-6.8,9.7-7.4c1.9-0.3,3.8,0,5.7,0c0.9,0,1.8-0.1,2.8-0.2
		c0.3-3.6,1.4-6.8,3-9.8c5-9.4,13.3-15,22.9-18.6c5-1.9,9.8-0.5,13.8,3.1c1.4,1.3,2.6,2.8,4,4.2c0.8,0.8,1.5,1.5,2.5,2.5
		c1.4-1,2.7-1.9,4-2.8c3.4-2.4,7-3.8,11.3-2.7c1.2,0.3,2.5,0.2,3.8,0.2c1-1.8,2-3.5,2.9-5.2c2.3-4.4,5.6-7.8,10.7-8.9
		c2-0.4,3.4-1.7,4.4-3.4c0.5-0.8,1-1.6,1.4-2.5c3.9-7.4,8.9-14.1,14.5-20.2c4.2-4.6,8.9-8.7,14.1-12.2c2.8-1.9,5.9-3.3,9.3-3.7
		c0.9-0.1,1.8-0.3,2.9-0.5c0.4-6,2-11.5,5.4-16.4c-0.8-1.4-1.5-2.6-2.2-3.8c-0.9-1.7-1.8-3.4-2.4-5.2c-1.5-4.8-0.3-8.3,3.6-11.5
		c0.7-0.6,1.5-1.1,2.5-1.8c-0.2-4.4,0.9-8.5,4.2-11.4c0-3.2-0.3-6.1,0.1-8.9c0.4-3.4,1.8-6.5,5-8.4c0.7-0.4,1.3-0.8,2.1-1.3
		c0.7-5.2,2.6-9.9,5.5-14.2c1.4-2.1,1.6-4.4,0.7-6.9c-0.4-1-0.7-2.1-1-3.2c-1.1-3.6-0.6-7,1.9-9.9c1.6-1.9,2.4-4,1.9-6.6
		c-0.7-4.5,0.6-8.5,3.2-12.2c0.7-0.9,1.3-1.8,2-2.7c3.3-4,5.5-8.6,6.6-13.7c1.1-4.8,3.1-9.1,8.2-11.2c0.1-3.1,0.2-6.1,0.4-9.2
		c0.1-3.1-0.3-6-1.7-8.8c-2.3-4.7-2-9.3,1.1-13.6c2.4-3.4,2.7-7,1.8-11c-1-4.5-3.1-8.3-6.1-11.8c-1.9-2.2-3.6-4.5-5.1-6.9
		c-2.1-3.5-2.4-7.4-0.4-11c4.1-7.2,9.8-12.2,18.5-12.8c1.1-0.1,2.2,0,3.3-0.2c2.6-0.4,3.7-1.5,3.9-4.1c0.1-1.1,0-2.2,0-3.4
		c-0.2-27-0.4-54.1-0.4-81.1c0-21,0.1-41.9,0.2-62.9c0.1-19.4,0.1-38.7,0.1-58.1c0-2.7-0.3-5.4-0.8-8.1c-0.7-3.9-1.8-7.8-2.5-11.7
		c-0.9-4.4-1.1-8.9,0.3-13.3c0.4-1.4,0.6-2.8,0.6-4.2c0-17.3,0-34.6,0-51.8C883.7,80.7,883.5,79.8,883.3,78.5z M219.8,131.4
		c-0.2-0.2-0.2-0.4-0.4-0.5c-1.3-0.7-2.6-1.3-3.8-1.9c-7-3.4-13.1-8-18.1-14c-3.1-3.7-5.5-7.8-6.3-12.7c-0.1-0.5,0.1-1.4-1.3-1.4
		c-0.9,1-1.9,2.2-2.9,3.4c-5.9,7.9-9.9,16.8-12.2,26.4c-1.5,6.3-2,12.6-1.2,19.1c0.5,3.5,1.4,6.9,3.3,10c2.8,4.7,7,7,12.5,6.2
		c1.9-0.3,3.7-0.9,5.5-1.6c3.1-1.3,5.8-3.3,8.4-5.5c8.1-7,13-16.1,16.4-26.1C219.9,132.3,219.8,131.8,219.8,131.4z M221.5,125.5
		c1.8-7.3,1.9-14.5,1.1-21.7c-0.1-1.3-0.5-2.5-0.8-3.7c-2.5-8.6-7.8-11.8-16.7-10.2c-6.3,1.1-10,6.8-8.5,13.2
		c0.6,2.4,1.6,4.5,3.1,6.4c5.2,6.8,11.9,12,19.6,15.7C219.9,125.6,220.7,125.5,221.5,125.5z M317.7,132.1c0.5-3.9,0-7.4-1.5-10.6
		c-1.2-2.6-4-2.8-5.8-0.6c-1.5,1.7-1.6,4-0.3,6.3C311.3,129.5,313.7,131.1,317.7,132.1z M306.3,138.3c-0.1,0.1-0.6,0.2-0.6,0.4
		c-0.2,1.9-0.6,3.8-0.4,5.6c0.4,3.3,3.7,4.8,6.4,2.8c1.8-1.3,3.2-3,3.2-5.4C311.9,140.5,309.2,139.4,306.3,138.3z"/>
	<path d="M287.3,120.2c0,2.6-2.1,4.6-4.6,4.4c-1.8-0.1-3.2-1.6-3.3-3.5c0-2.7,1.9-4.7,4.4-4.7C285.9,116.5,287.3,118,287.3,120.2z"
		/>
</g>
</svg>
