<?xml version="1.0" encoding="utf-8"?>
<!-- Generator: Adobe Illustrator 23.0.4, SVG Export Plug-In . SVG Version: 6.00 Build 0)  -->
<svg version="1.1" id="Layer_1" xmlns="http://www.w3.org/2000/svg" xmlns:xlink="http://www.w3.org/1999/xlink" x="0px" y="0px"
	 viewBox="0 0 1008 1008" style="enable-background:new 0 0 1008 1008;" xml:space="preserve">
<g>
	<path d="M574.7,223.8c2.8,0,5.3,0,7.8,0c1-4,1.8-7.7,2.8-11.4c1.9-7.2,4.1-14.3,7.7-20.9c1.6-2.9,3.4-5.6,5.4-8.2
		c1.7-2.2,3.9-3.7,6.7-4.4c5.4-1.3,9.5,2.2,8.8,7.7c-0.4,2.8-0.9,5.6-1.9,8.2c-3.6,9.6-8,18.8-13.7,27.4c-1.4,2.1-3,4-4.5,5.9
		c-1.6,2-3.3,4.1-3.8,6.9c1-1.1,1.9-2.2,2.9-3.2c2.3-2.6,4.9-4.8,8.4-5.7c1.4-0.3,2.8-0.5,4.2-0.5c1.9,0.1,2.9,1.1,3.3,2.9
		c0.6,2.8-0.1,5.3-2.2,7.2c-1.6,1.5-3.5,2.7-5.3,4.1c-0.9,0.7-1.9,1.2-2.7,1.8c0,0.3,0,0.5,0.1,0.6c4.2,4.6,4.3,10.3,4.2,16
		c0,1.7,0,3.5,0,5.8c1.2-0.7,1.9-1.1,2.6-1.6c2.8-2.2,5-4.9,7-7.8c4.1-6.1,6.8-12.8,9.7-19.5c1.6-3.7,2.1-7.7,3-11.6
		c2.2-10.1,5.2-20,10.1-29.1c2.1-3.9,4.4-7.7,7.7-10.7c1.3-1.2,2.8-2.3,4.3-2.9c5.8-2.5,10.7,0.6,11,7c0.3,6-1.2,11.6-3.7,16.9
		c-4.1,8.8-10.1,16.1-17.8,22c-2,1.5-3.1,3.2-3.2,5.8c-0.4,6.5-1.2,12.9-0.2,19.4c0.1,1,0.6,1.9,0.9,2.9c2.1-0.4,3.5-1.4,4.8-2.6
		c2.5-2.4,4.6-5.2,6-8.3c2.2-4.7,4.4-9.4,6.2-14.3c3.2-8.7,10.9-13,18.8-13.2c1.4,0,2.9,0.2,4.2,0.6c3.7,1.1,5.8,4.3,5.4,8.3
		c-0.1,1.5-0.6,3-1,4.4c-1.1,4-2.2,8-3.2,12c-0.2,0.8-0.2,1.6-0.2,2.4c0.2,2.4,1.3,3,3.3,1.9c1.1-0.6,2.2-1.4,3-2.3
		c1.8-2,3.5-4.2,5.2-6.3c0.2-0.2,0.3-0.6,0.5-0.8c2.9-3.4,4-7.5,4.8-11.8c2-10.9,4.9-21.7,9.4-31.9c1.6-3.7,3.5-7.2,6.1-10.3
		c2.1-2.5,4.6-4.2,8-4c2.2,0.1,3.9,1.1,4.5,3.3c0.4,1.7,0.5,3.6,0.3,5.4c-0.6,5-2.3,9.8-4.3,14.4c-4.1,9.8-9,19.3-14.2,28.6
		c-2.4,4.3-3,6.4-3.7,11.9c0.5-0.6,0.8-0.9,1.1-1.3c2.8-3.7,5.6-7.4,8.5-11c1-1.2,2.4-2.1,3.8-2.8c1.8-0.9,3.2-0.2,3.7,1.8
		c0.3,1.3,0.4,2.7,0.3,4c-0.5,7.8-1.2,15.6-1.6,23.4c-0.2,2.9,0.2,5.7,0.4,8.6c0.1,1.1,0.6,2.1,0.9,3.2c1.5-0.3,2.2-1.2,2.7-2.2
		c1.7-2.9,3.4-5.8,4.8-8.8c3.2-6.9,5.9-14,7.9-21.3c0.5-1.8,1.1-3.5,1.8-5.2c0.3-0.8,0.3-1.5,0-2.3c-0.5-1.2-1.1-2.5-1.3-3.8
		c-1.9-8.7,5-14.6,11.9-15c7.2-0.4,12.7,4.6,13.5,12.1c0.2,2.4,0.1,4.8,0.1,7.2c0,1,0.1,2,0.1,3c1.9,0.7,3.4,0.2,4.8-0.5
		c2.4-1.1,4.6-2.5,7.1-3.6c1.3-0.5,2.8-0.8,4.2-0.7c2.2,0.2,3.4,1.8,3,4c-0.1,0.9-0.4,1.9-0.7,2.8c-0.8,2.4-0.9,4.9-1,7.4
		c0.2,0,0.3,0.1,0.5,0.1c0.4-0.8,0.8-1.6,1.1-2.5c1.9-5.2,3.8-10.4,5.7-15.5c0.4-1.2,1-2.4,1.7-3.4c1.4-2,4-2,5.4,0
		c0.6,1,1.1,2.2,1.2,3.3c0.2,3.1,0.1,6.2,0.1,9.3c0,1.2-0.1,2.4,0.3,3.7c0.3-0.9,0.7-1.9,1-2.8c1.5-4.8,2.7-9.7,4.4-14.4
		c1.3-3.7,3.1-7.3,4.9-10.9c0.5-1.1,1.4-2,2.2-2.8c2.3-2.5,5.1-2.8,8.1-1.8c2.9,1,4.1,3.2,4.4,6c0.3,3,0.1,6.1-0.7,9
		c-1.4,4.9-2.8,9.8-4.2,14.8c-0.9,3.2-1.8,6.5-2.5,9.7c-0.4,1.7-0.3,3.4-0.4,5.3c1.3-0.1,1.8-0.8,2.3-1.5c1.3-1.8,2.8-3.6,3.9-5.5
		c2.6-4.5,5.2-9,7.4-13.7c4-8.6,14.1-12.5,21-11.1c5.4,1.1,8.3,5.9,6.6,11.1c-1.1,3.3-2.3,6.6-3.3,10c-0.5,1.9-0.9,3.9-1,5.9
		c-0.1,2.9,1.3,3.7,3.7,2.1c1.4-0.9,2.8-2,3.8-3.3c2.6-3.3,5-6.8,7.4-10.3c0.4-0.6,0.5-1.3,0.7-2c0.2-0.7,0.3-1.4,0.5-2.1
		c1.8-5.7,8.4-7.3,12.7-3.1c1.6,1.6,2.3,3.6,2,5.9c-1.2,9.3-1.7,18.6-1.7,28c0,21.7,2.9,43,8.8,63.9c3.2,11.3,6.6,22.6,9.5,33.9
		c3.1,12,5,24.3,6.2,36.6c0.2,2.2,0.6,4.4,0.7,6.7c0.1,1.7-0.1,3.3-0.2,5c-1.1,18.1-2.2,36.2-3.4,54.3c-0.9,14-2,27.9-3,41.9
		c-1,13.6-2.1,27.1-3.1,40.6c-0.8,10.3-1.5,20.6-2.1,30.9c-0.8,13.3-1.6,26.7-2.3,40c-0.3,4.5-3.3,7.6-8,7.6c-9,0.1-17-2.7-23.2-9.2
		c-5.8-6.1-12.6-10.5-20-14.1c-7.1-3.5-14-7.3-21.1-11c-1.6-0.8-3.1-1.6-5-2.5c-1.1,1-2.4,1.8-3.3,3c-5.3,6.9-12.5,9.4-20.8,9.6
		c-3,0-6.1,0.1-9.1,0c-16.7-0.3-31.8,4.5-45.4,14.2c-2.9,2-5.8,4-8.8,5.9c-4.6,2.9-9.4,5.2-14.9,5.4c-5.7,0.2-10.5-1.7-14.1-6.3
		c-2.1-2.7-3.5-5.7-4.5-8.9c-0.9-3-1.7-6-2.5-9c-0.2-0.8-0.4-1.5-0.7-2.4c-3.3,1-6.1,0.1-8.9-1.7c-5.2-3.5-13.5-0.8-15.9,5.3
		c-0.9,2.4-1.4,5.1-1.9,7.7c-0.9,4.7-2.7,8.6-6.7,11.5c-6.7,4.8-16.4,3.9-20.4-5.8c-0.4-1-0.8-2.1-1.3-3.2c-2,0-4.1,0.2-6,0
		c-4.6-0.7-8.1-3.3-11-6.8c-1.2-1.4-2.3-2.9-3.4-4.3c-1.6-2.1-3.8-3.2-6.3-3.5c-2.2-0.3-4.5-0.4-6.7-0.3c-5.9,0.4-11.8,0.6-17.5-1.8
		c-2.9,2.6-6.1,4.5-9.9,5.4c-8.8,2-18.1-2-23.2-9.9c-2.4-3.8-3.3-8.1-3.8-12.5c-0.2-1.6-0.3-3.2-0.5-4.8c-0.1-0.9-0.3-1.7-0.6-2.6
		c-0.8-2.2-1.6-2.4-3.5-1.1c-1.5,1.1-2.9,2.3-4.4,3.4c-5.4,3.9-11.3,4.6-17.5,2.4c-1.2-0.4-2.4-1-3.6-1.4c-2.4-0.9-4.6-0.7-7,0.3
		c-2.6,1.1-5.4,2.1-8.2,2.6c-3.8,0.8-7.5-0.1-10.8-2.1c-1.9-1.2-3.7-2.5-5.6-3.7c-1.2-0.8-2.4-1.6-3.5-2.5c-4-2.8-8.3-3.7-13.2-2.6
		c-3.7,0.8-7.5,1.6-11.3,1.7c-7,0.2-12.7-2.8-17.1-8.2c-2.3-2.8-3.9-6.1-5.2-9.4c-1-2.5-2-5.1-3-7.6c-1.4-3.6-3.5-6.8-6-10
		c-0.4,0.6-0.8,1.1-1.2,1.5c-0.6,0.8-1.2,1.7-1.9,2.5c-4.2,4.9-9.5,6.5-15.7,5.1c-4.4-1-8.3-3-11.8-5.7c-3.4-2.5-6.5-5.4-9.8-8.1
		c-3.1-2.5-6.1-5.1-9.4-7.4c-4.2-2.9-8.8-3.9-13.9-2.9c-5.9,1.1-9.6-5-8.5-9.1c0.7-2.9,0.7-5.7,0.7-8.5c0-67.9,0-135.8,0-203.8
		c0-1.1,0-2.2,0-3.6c-1.2,0-2.2-0.1-3.2-0.1c-27.4,0-54.7,0-82.1,0c-60,0-120,0-180,0c-0.9,0-1.8,0-2.6,0c-3.2-0.2-5.4-2-6.2-5.1
		c-0.4-1.4-0.6-3-0.6-4.5c0.1-10.8,0.4-21.6,0.6-32.4c0.1-6,0.5-12,0.3-18c-0.1-4.2,3.2-8.4,8.1-8c0.2,0,0.3,0,0.5,0
		c119.6-0.1,239.2-0.1,358.8-0.2c16.8,0,33.6,0.1,50.4,0.2c1.6,0,3-0.3,4.4-0.9c8.1-3.8,15-9,20-16.6c3.8-5.8,7.9-11.4,12-17.1
		c3.7-5.2,8.3-9.6,14-12.6c5.3-2.8,10.9-4,16.9-2.3c7.1,2,11.6,6.8,14.6,13.3c3.1,6.5,4.1,13.4,3.9,20.5c-0.1,5.4-0.9,10.7-2.3,15.9
		C575.1,222.1,574.9,222.8,574.7,223.8z M572.8,229.2c-0.3,0.7-0.6,1.4-1,2.1c-2,4.5-4.5,8.8-7.5,12.8c-4,5.1-8.7,9.4-14.6,12.2
		c-8.8,4.2-18.1,2.8-24.6-3.7c-2.4-2.3-4.2-5-5.6-8.1c-3-6.6-4-13.6-3.8-20.8c0.1-1.9,0.2-3.8,0.3-6.3c-1.4,1.9-2.5,3.4-3.6,4.8
		c-3.9,5-8.4,9.4-14.1,12.4c-2.1,1.1-4.2,1.7-6.6,1.7c-16.4-0.1-32.8-0.1-49.2-0.1c-116.9,0-233.7,0-350.6,0.1c-0.2,0-0.5,0-0.7,0
		c-0.6,0-1.2,0.1-2,0.2c-0.3,12.6-0.6,25-0.9,37.7c1.3,0,2.3,0,3.3,0c87.3,0,174.6,0,261.8,0c1,0,1.9,0,2.9,0.1
		c3.5,0.3,5.9,2.7,6.4,6.1c0.2,1.9,0.4,3.8,0.4,5.7c0,70,0,140,0,210c0,1,0,2,0,3.1c9.4,1.6,16.8,6.5,23.7,12.3c2.4,2,4.6,4.2,7,6.2
		c2.2,1.7,4.5,3.4,6.9,4.8c3,1.7,4.2,1.3,6.2-1.5c0.9-1.3,1.8-2.7,3-3.7c4.4-4,10.4-4.5,16-1.3c4.5,2.5,7.9,6.2,10.2,10.8
		c1.4,2.8,2.5,5.7,3.7,8.6c1.3,3.1,2.5,6.2,4.1,9.2c1.7,3.4,4.6,5.1,8.4,4.8c2.7-0.3,5.4-0.7,8-1.3c6.7-1.5,13-0.5,18.9,3
		c2.1,1.2,4.1,2.5,6.1,3.8c1.5,0.9,3,1.9,4.5,2.8c1.9,1.2,3.9,1.3,5.9,0.3c1-0.5,2-1,3.1-1.4c1.8-0.6,3.6-1.2,5.5-1.5
		c4.3-0.7,8.4,0.5,12.3,2.2c2.8,1.2,5.2,0.9,7.6-0.9c2.3-1.7,4.7-3.4,7.2-4.7c5.5-2.7,12-1.7,16.2,2.6c1.6,1.6,2.9,3.6,4,5.6
		c2.1,3.8,2.9,8.1,3.4,12.4c0.2,2.5,0.5,5.1,2,7.3c1.4,2.1,3.4,3.3,5.9,3.1c2.5-0.2,4.2-1.7,5.1-4.1c0.3-0.9,0.8-1.8,1.3-2.5
		c3.1-3.8,8.8-3.9,11.9,0c1.6,2.1,3.6,2.8,6,2.8c1,0,2.1,0,3.1,0c4.1,0,8.2-0.1,12.2,0.2c6,0.5,11.3,2.9,15.4,7.5
		c1.2,1.3,2.1,2.8,3.2,4.2c0.8,1,1.9,1.9,2.8,2.8c0.4-0.4,0.6-0.5,0.8-0.7c3.1-3.3,7-3.8,10.8-1.3c2.6,1.7,4.3,4.1,5.4,6.9
		c0.3,0.7,0.6,1.4,0.9,2c1.5-8.2,4.9-15,12.1-19.5c7.1-4.5,14.8-5,22.9-2.9c0.4-0.6,0.8-1.1,1.1-1.6c1.4-2.2,2.7-4.5,4.2-6.7
		c2-2.9,5.2-3.9,8.5-2.9c3.3,1,5.2,3.5,5.4,7.1c0.2,3.2,0.3,6.4,0.6,9.6c0.6,6.8,2.1,13.4,4.5,19.8c1.1,3,2.3,3.5,5.4,2.6
		c2.8-0.9,5.2-2.5,7.5-4.2c6.3-4.6,12.8-8.8,19.9-12.1c9.9-4.7,20.3-7.8,31.3-8.3c5.8-0.3,11.7-0.4,17.5-0.4c4.3,0,7.8-1.3,10.5-4.8
		c0.3-0.4,0.7-0.9,1.1-1.3c5.8-6.4,13-7.9,20.9-4.2c1.8,0.8,3.6,1.7,5.4,2.7c7.9,4.1,15.8,8.3,23.8,12.4c6.6,3.4,12.8,7.2,17.9,12.7
		c1.7,1.8,3.8,3.1,5.8,4.6c0.4,0.3,1,0.3,1.6,0.6c0.1-1.1,0.2-2,0.3-2.8c0.3-4.5,0.5-9.1,0.8-13.6c0.7-11.2,1.4-22.3,2.2-33.5
		c0.5-7.3,1.1-14.7,1.6-22c0.7-9.6,1.5-19.3,2.2-28.9c0.7-9.2,1.4-18.3,2.1-27.5c0.8-10.5,1.5-21,2.2-31.6
		c0.6-8.9,1.2-17.9,1.6-26.8c0.3-5.8,0.9-11.7,0.6-17.5c-0.4-6.8-1.4-13.7-2.4-20.5c-2-13.1-5.3-26-9.3-38.7
		c-6.1-19.7-10.8-39.8-12.4-60.5c-0.9-11.6-1.1-23.2-0.4-34.7c0.1-1.4,0-2.7,0-4.5c-0.8,1.1-1.3,1.8-1.8,2.5c-2,2.7-4.2,5-7,6.8
		c-2,1.3-4.1,2.1-6.5,2.3c-3.8,0.3-6.5-2-6.7-5.8c0-0.4-0.1-0.9-0.2-1.6c-3.1,2.7-6.3,4.1-10.1,3.3c-4-0.8-5.4-4.2-6.9-7.8
		c-0.5,0.9-0.9,1.6-1.2,2.2c-2.2,4-4.8,7.7-8.1,10.9c-1.6,1.6-3.4,2.9-5.5,3.7c-3.1,1.1-5.6-0.1-6.6-3.2c-0.4-1.1-0.6-2.4-0.5-3.5
		c0.2-2.9,0.5-5.9,1.1-8.8c1.5-7.9,3.2-15.8,4.7-23.7c0.4-2.3,0.9-4.6,0.4-7.1c-1,1.5-1.9,3.1-2.5,4.8c-2,5.6-3.9,11.2-5.8,16.8
		c-1.1,3.3-2.1,6.7-3.5,9.9c-0.7,1.7-1.9,3.4-3.2,4.7c-2.3,2.1-5.3,1.2-6.3-1.7c-0.3-0.9-0.5-1.9-0.5-2.8c0-1.9,0.2-3.8,0.3-5.7
		c0.1-1,0.1-1.9,0.2-2.9c-0.8,0.6-1.1,1.3-1.4,2c-1.5,3.5-2.9,7.1-4.5,10.6c-0.6,1.4-1.5,2.8-2.5,4.1c-1.4,1.7-3.2,2.7-5.5,1.9
		c-2.3-0.8-2.7-2.8-2.6-4.9c0.1-3.4,0.3-6.7,0.5-10.1c0.1-1.3,0.2-2.5,0.3-3.8c-0.5,0-0.7,0-0.9,0.1c-3.2,1.6-6.5,3.1-10,4
		c-0.8,0.2-1.5,1.1-2,1.9c-1.1,1.7-2,3.6-3.2,5.3c-1.5,2.2-3.5,3.9-6,4.9c-3.9,1.5-7.9,0.4-10.5-2.9c-0.4-0.5-0.8-1-1.3-1.6
		c-0.4,0.9-0.6,1.7-0.9,2.4c-1.6,3.8-3,7.6-4.7,11.3c-1.7,3.7-3.7,7.3-6.4,10.3c-1.3,1.4-2.9,2.7-4.6,3.7c-2.5,1.4-4.9,0.7-6.5-1.6
		c-0.8-1.1-1.4-2.4-1.8-3.6c-1.7-4.6-1.8-9.4-1.8-14.2c0.1-5.4,0.8-10.8,2-16.2c0.1-0.4,0-0.8,0-1.6c-0.7,1-1.1,1.7-1.6,2.3
		c-2.3,3.5-4.6,7-6.9,10.4c-0.9,1.2-1.9,2.4-3,3.4c-2.1,1.8-4.7,1.2-6-1.3c-0.4-0.8-0.7-1.7-0.7-2.5c-0.1-1.7-0.1-3.5-0.2-5.3
		c0-0.5-0.1-1-0.2-1.9c-0.6,0.7-0.9,1.1-1.1,1.4c-1.9,2.8-4.2,5.2-7,7.2c-2,1.4-4.2,2.3-6.6,2.6c-3.8,0.4-6.6-1.7-7.1-5.5
		c-0.1-0.5-0.2-1.1-0.2-1.6c-8.7,5.1-11.5,4.6-16.6-3.3c-0.3,0.4-0.5,0.8-0.7,1.2c-2,3.9-4.3,7.7-7.1,11.1c-2,2.4-4.4,4.5-7.4,5.6
		c-4.2,1.6-8.6,0-10.6-4.1c-0.9-1.9-1.3-4.1-1.9-6.1c-0.2-0.9-0.3-1.8-0.5-3.2c-1.5,2.9-2.8,5.4-4.2,7.8c-2.3,4.1-4.7,8.2-8,11.6
		c-1.6,1.6-3.3,3-5.4,3.9c-2.6,1-4.6,0.5-6-1.8c-0.8-1.3-1.5-2.9-1.7-4.4c-0.6-3.9-0.9-7.9-1.5-11.9c-0.3-1.8-0.7-3.6-1.4-5.3
		c-0.7-1.9-1.7-2.1-3.2-0.5c-1,1-1.8,2.2-2.6,3.4c-1,1.4-1.9,3-2.9,4.4c-1.5,2-4,1.6-4.9-0.8c-0.3-0.7-0.4-1.5-0.5-2.3
		c-0.8-4.8-0.1-9.6,0.3-14.3c0.2-2.2,0.5-4.4,0.8-6.7C578.5,229.2,575.7,229.2,572.8,229.2z M562.6,226.4c-0.9-0.4-1.6-0.7-2.3-1
		c-7.3-3.2-13.9-7.3-19.4-13c-5.1-5.2-8.7-11.2-9.4-18.7c0-0.1-0.2-0.2-0.3-0.2c-0.1,0-0.2,0.1-0.2,0.1c-0.2,0.2-0.4,0.5-0.6,0.8
		c-6.6,11.5-9.8,23.7-8.3,37c0.5,4.6,1.9,9.1,4.3,13.1c1,1.7,2.4,2.8,4.3,3.1c0.9,0.1,1.9,0.3,2.9,0.3c8.2,0,15.4-2.7,21.5-8.1
		C559,236.3,561.3,231.6,562.6,226.4z M563.6,220.9c0.2-0.7,0.4-1.4,0.4-2.1c1-8,1.3-16,0.5-23.9c-0.6-6.4-3.4-11.8-8.7-15.7
		c-2.3-1.7-4.7-2.2-7.4-1.2c-2.9,1-5.5,2.6-7.9,4.4c-1.6,1.2-2.7,2.7-3,4.5c-0.5,2.2-0.8,4.6-0.7,6.9c0.2,4.9,2.5,9,5.6,12.7
		c5.5,6.6,12.6,11,20.4,14.4C562.9,220.9,563.2,220.8,563.6,220.9z M635.8,221.2c0.1,0,0.2,0,0.3,0c0.2-0.1,0.4-0.2,0.6-0.4
		c6.4-6.3,11.7-13.3,15.2-21.6c1.4-3.2,2-6.5,1.9-10c-0.1-1.1,0.1-2.5-1.2-2.9c-1.2-0.4-2.1,0.6-2.8,1.4c-0.6,0.6-1.2,1.3-1.7,2
		c-1.1,1.7-2.3,3.5-3.2,5.3c-3.9,8.2-6.6,16.8-9,25.5C635.7,220.7,635.8,221,635.8,221.2z M592.3,221c0.2,0.1,0.3,0.2,0.5,0.3
		c0.5-0.6,1-1.2,1.4-1.9c3.4-5.9,6.9-11.7,10.1-17.7c2.3-4.2,4.1-8.7,5.1-13.4c0.2-0.8,0.4-1.6,0.2-2.3c-0.2-0.8-0.6-1.7-1.2-2.1
		c-0.5-0.2-1.6,0.2-2.1,0.7c-1,1.1-1.9,2.3-2.7,3.6c-2.8,4.9-4.7,10.3-6.4,15.7C595.6,209.7,594,215.3,592.3,221z M828.8,238
		c0.1,1.2,0.2,2.4,0.4,3.6c0.4,1.9,1.4,2.3,3.2,1.5c1.7-0.7,2.6-2.1,3.3-3.6c1.9-4.2,3.6-8.5,5.3-12.8c0.8-2-0.3-3.3-2.4-3.2
		c-1.9,0.1-3.5,0.9-4.9,2.3C830.2,229,828.8,233.1,828.8,238z M659.6,237.8c0.2,1.3,0.2,2.5,0.5,3.8c0.5,1.9,1.4,2.3,3.2,1.5
		c1.6-0.7,2.5-2,3.2-3.4c1.8-4.1,3.5-8.2,5.2-12.3c0.1-0.4,0.2-0.8,0.2-1.2c0.1-2-1-3-3-2.7c-1.6,0.2-3,1-4.2,2.1
		C661.2,228.8,659.7,233,659.6,237.8z M749.4,229.9c0.4-4.3,0.1-8.1-1.7-11.7c-1.1-2.2-3.4-2.4-5.2-0.8c-2.2,2-2.3,5.2-0.2,7.8
		C744.1,227.4,746.5,228.7,749.4,229.9z M704,216.8c0.4-0.6,0.6-0.8,0.8-1.2c2.9-6.6,5.8-13.1,8.5-19.8c1-2.4,1.6-5,2.2-7.6
		c0.2-0.8,0-1.8,0-3.2c-0.8,0.7-1.2,1-1.4,1.3c-1,1.9-2.1,3.8-2.9,5.8c-3.1,7.6-5.1,15.6-7.2,23.6C703.9,216,704,216.3,704,216.8z
		 M737.4,235.1c-0.5,2-1.1,4.2-0.6,6.4c0.8,3.6,4.1,4.8,6.9,2.5c1.7-1.4,2.7-3.2,3.1-5.1C743.7,237.6,740.7,236.4,737.4,235.1z
		 M595.2,236.2c4.6-0.6,7.8-3.1,8.4-6.2C599.6,230.2,597.8,233.4,595.2,236.2z"/>
</g>
</svg>
