<?xml version="1.0" encoding="utf-8"?>
<!-- Generator: Adobe Illustrator 23.0.4, SVG Export Plug-In . SVG Version: 6.00 Build 0)  -->
<svg version="1.1" id="Layer_1" xmlns="http://www.w3.org/2000/svg" xmlns:xlink="http://www.w3.org/1999/xlink" x="0px" y="0px"
	 viewBox="0 0 1008 1008" style="enable-background:new 0 0 1008 1008;" xml:space="preserve">
<g>
	<path d="M694.1,235.6c2.5-0.5,3.9-1.8,5.1-3.3c3.7-4.4,6.5-9.3,9.1-14.3c2-3.8,3.8-7.7,5.6-11.6c0.4-0.8,0.5-1.7,0.6-2.5
		c0.5-4,1.7-7.8,4.2-11.1c4.4-5.7,13.1-7.4,19.3-3.8c4.6,2.7,5.3,7.1,1.8,11.1c-2.2,2.6-5.2,3.8-8.5,3.9c-2.1,0.1-4.1-0.1-6.4-0.2
		c-0.9,2.8-1.4,5.8-0.7,8.8c0.6,2.8,2.8,3.9,5.5,3.1c1.6-0.5,3.1-1.2,4.6-2.1c5.1-3.1,9.1-7.5,13.3-11.6c0.5-0.5,0.7-1.4,0.9-2.2
		c1.1-4,3-7.6,6.4-10.1c3.3-2.5,6.9-3,10.9-1.5c0.9,0.4,2,0.4,3,0.4c3.2-0.2,3.9,0.5,3.6,3.7c-0.6,5.2-1.3,10.5-2,15.7
		c-0.1,0.8-0.2,1.7-0.3,2.9c4.2-2.6,6.7-6.6,9.9-9.6c-0.5-1.8-1-3.6-1.3-5.4c-0.8-4.5,0.9-8.2,4.4-11c4.1-3.2,8.7-4,13.5-1.9
		c4.9,2.1,7,6.4,7.5,11.4c0.3,2.6,0.1,5.3,0.1,7.9c0,2.1,0.5,2.6,2.6,2.1c1.1-0.2,2.2-0.6,3.2-1.1c2.2-1.2,4.3-2.4,6.4-3.7
		c1.5-0.9,3-1.1,4.6-0.7c1.8,0.4,2.3,1.9,2.4,3.5c0.2,2.4,0.3,4.8,0.4,7.2c0,0.7,0.1,1.4,0.5,2.2c0.7-1.4,1.4-2.7,2.1-4.1
		c2.8-5.9,5.5-11.9,8.5-17.7c1.8-3.5,4-6.9,6.2-10.2c0.9-1.3,2.1-2.4,3.4-3.4c3.8-3,10-1,11.2,3.8c1,3.6,0.9,7.3,0.5,10.9
		c-0.9,7.9-3.2,15.5-5.3,23.1c-1.6,5.6-3.1,11.2-4.6,16.9c-0.1,0.4-0.1,0.8-0.3,1.5c0.7-0.5,1.2-0.8,1.5-1.1
		c2.2-2.4,4.4-4.8,5.8-7.9c1.4-3.1,3.6-5.6,6.5-7.6c5.8-4,12.3-3.3,17.2,1.7c1.5,1.5,3,2.9,4.4,4.4c3.1,3.4,6.9,5.7,11,7.6
		c3,1.4,6,2.7,8.8,4.3c2.3,1.3,4.6,2.7,6.6,4.3c6.2,4.9,8.6,11.6,8,19.3c-0.3,3.7-1,7.5-1.9,11.1c-5.8,21.7-14.3,42.4-25.9,61.7
		c-2.7,4.5-5.6,8.7-8.5,13.1c-2.4,3.7-4.5,7.5-5.1,12c-0.2,2.1-0.5,4.3-0.6,6.4c-0.3,4.8-1.6,9.3-4.1,13.4c-2,3.4-4.2,6.6-6.6,9.7
		c-6.9,9.2-13.9,18.2-20.7,27.4c-2.9,3.9-5.4,8.1-7.8,12.4c-3,5.6-2.2,11,1.9,15.8c0.4,0.5,0.8,1,1.3,1.4c6,6.3,13.5,9.9,21.7,12.1
		c2.1,0.6,4.2,1.2,6.3,1.3c4.4,0.2,7.4,5.5,6.1,9.8c-1.5,5.1-3,10.3-4.2,15.5c-2.8,11.5-4.1,23.1-4.1,34.9c0.1,83,0,166.1,0,249.1
		c0,2.1-0.1,4.2-0.2,6.2c-0.2,4.4-3,7-7.4,7.1c-0.8,0-1.6,0-2.4,0c-240.9,0-481.9,0-722.8,0c-1.1,0-2.3-0.1-3.4,0.1
		c-2.9,0.5-5.1-0.7-7-2.8c-5.7-6.3-11.3-12.7-16.2-19.6c-4.4-6.2-8.4-12.7-11.3-19.7c-3.2-7.6-5.3-15.4-5.1-23.7
		c0.2-6.8,1.8-13.1,5.3-19c1.3-2.1,2.5-4.3,3.7-6.4c0.6-1,1-2.2,1.3-3.3c0.7-2.5,0.5-4.9-1.3-7c-1-1.2-2.1-2.4-3.3-3.5
		c-1.6-1.6-3.3-3-4.9-4.5c-5.7-5.2-7.3-11.7-5.7-19c0.9-4,2.4-8,3.8-11.9c2.6-7.3,5.5-14.5,8.1-21.8c1.9-5.5,2.2-11.2,1.4-17.1
		c-0.5-4-0.9-8.1-0.4-12.2c0.5-3.2,1.5-6,3.4-8.6c1.5-2.1,3.1-4.1,4.6-6.1c7.6-9.7,11.5-20.7,12.2-33c0-0.7-0.1-1.6-0.5-2.3
		c-1.4-2.2-1.3-4.3-0.5-6.7c2.4-7.8,4.9-15.6,7-23.4c4.4-16.4,7.4-33,9.2-49.9c1.4-13.5,2-27,1.7-40.5c-0.2-7-1-14-1.5-21
		c-0.7-8.8-1.4-17.6,0.8-26.2c1.6-6.1,3.5-12.1,5.2-18.2c2.4-8.5,3.8-17.2,4.7-25.9c1.1-9.5,1.6-19,1.5-28.5
		c-0.1-9.8-0.2-19.7-0.3-29.5c-0.1-4.2-0.1-8.3-0.2-12.5c-0.2-8.9-1.2-17.7-4.1-26.2c-2.4-6.9-2.1-13.7,0.4-20.4
		c1.3-3.6,2.5-7.3,2.8-11.1c0.6-7.4-1.2-14.3-5.2-20.5c-0.9-1.4-1.6-2.9-1.6-4.7c0.1-4.2,3.7-8.6,7.7-9.3c1.8-0.3,3.3,0.1,4.9,0.9
		c3,1.4,6.1,2.4,9.4,2.8c7.6,1,14.6-0.8,20.9-5.2c1.4-1,2.9-2,4.4-2.9c4.3-2.5,8.8-2.6,13.3-0.5c3.7,1.8,6.6,4.6,8.7,8
		c1.7,2.7,3.2,5.5,4.9,8.3c1.9,3.2,2.6,3.3,5.5,0.9c1.7-1.4,3.2-2.9,5.1-3.9c4-2,8.2-2.1,12.4-0.7c2.4,0.8,4.7,2,7,3
		c4.1,1.9,8,4,12.1,5.7c5.6,2.3,9.3,6.2,11,11.9c1.4,4.7,2.5,9.4,3.8,14.1c3.4,12.7,6.8,25.3,10.2,38c0.5,1.8,1.2,3.7,1.8,5.5
		c1,2.8,3,4.5,5.9,5.1c4.6,1,9.2,2,13.8,3c5.2,1.1,10.4,2.3,15.7,3.4c4.5,0.9,8.9,0.4,13-1.9c6.8-3.8,13.5-7.6,20.2-11.5
		c4.8-2.7,9.5-5.5,14.4-8.2c3.2-1.8,6.5-2.4,10.1-0.7c2.8,1.4,5.9,1.3,8.9,1.1c2.3-0.1,4.6-0.5,6.9-0.7c7.4-0.8,14.9-0.5,22.3-0.2
		c2.9,0.1,5.7,0.4,8.6,0.8c1.5,0.2,3,0.5,4.4,0.9c3,1,5.1,2.9,6,6c0.4,1.3,0.8,2.6,1.5,3.8c1,1.8,2,2.2,4,1.4
		c1.3-0.5,2.5-1.1,3.6-1.8c5.6-3.8,11.6-4,17.9-2.3c0.6,0.2,1.2,0.3,1.9,0.5c2.2,0.7,4.3,0.4,6.1-1.2c2.5-2.1,5-4.2,7.5-6.4
		c6.8-6.1,14.8-8.6,23.9-8c5,0.3,9.5,1.9,13.4,5.2c0.9,0.7,2,1.3,3.2,1.5c7.2,1.4,14.1,0.5,21-1.7c7.2-2.3,13.9-5.7,20.7-8.9
		c3.8-1.8,7.6-3.8,11.4-5.6c3.8-1.8,7.8-2.7,11.9-3.4c6.8-1.2,13.4-3.2,19.3-7c3.9-2.5,7.3-5.5,10.4-8.8c0.8-0.9,1.3-1.9,1.5-3.2
		c2.7-14.4,8.6-27.2,19.1-37.7c5.1-5,10.9-8.9,18.1-10.2c8.6-1.6,15.8,1,21.3,7.9c4,5,5.9,10.9,6.7,17.2c1.2,8.9,0.2,17.5-2.2,26.1
		c-0.2,0.8-0.5,1.7-0.7,2.5c0,0.1,0,0.2,0.1,0.5c3.7,0,7.1-0.9,10-3.3c-3.3-5.9-4.5-12.1-3.3-18.6c0.6-3.2,2-5.9,4.8-7.7
		c3.3-2,6.7-2.3,10-0.4c3.4,2,4.4,5.4,4.2,9.1c-0.2,3.7-2,6.9-3.9,10c-0.7,1.1-1.4,2.1-2.2,3.4c1.6,0.3,2.6-0.3,3.8-0.8
		c1.7-0.8,3.4-1.5,5.3-1.2c0.9,0.1,1.9,0.4,2.7,0.8c2,1.1,2.7,2.6,2.1,4.8c-0.3,0.9-0.7,1.8-1,2.7c-2.6,7.2-5.2,14.4-7.7,21.7
		c-0.8,2.3-1,4.8-1.4,7.3C693.8,233.8,694,234.6,694.1,235.6z M156,180.7c0.2,1.1,0.4,1.9,0.5,2.7c1.4,6.3,1.7,12.7,0.3,19
		c-0.7,3.1-1.7,6.1-2.8,9.1c-1.6,4.4-1.7,8.7-0.1,13.1c2.3,6.1,3.1,12.6,3.7,19c1.2,12.2,1.1,24.4,1.4,36.7c0.2,8.9,0,17.9-0.3,26.9
		c-0.3,11.8-1.6,23.6-3.7,35.3c-1.6,8.8-4,17.3-6.7,25.7c-1.9,6-2.5,12.1-2,18.2c1.3,15.1,1.8,30.2,1.4,45.3
		c-0.3,13.8-1.5,27.4-3.4,41.1c-2.5,18.1-6.5,35.8-11.9,53.3c-0.8,2.6-1.4,5-1.2,7.9c0.6,7.3-0.4,14.5-2.4,21.6
		c-2.8,9.7-6.9,18.8-13.8,26.3c-0.8,0.8-1.4,1.7-2.1,2.7c-1.8,2.6-2.6,5.4-2.1,8.6c0.5,3.2,1,6.3,1.1,9.5c0.2,6.5-0.9,13-3,19.1
		c-2.8,8-6.1,15.8-9.1,23.7c-0.7,1.9-1.4,3.9-2,5.9c-0.8,2.7-0.2,5.1,1.9,7c0.9,0.9,1.9,1.8,2.8,2.7c2.4,2.5,5,4.8,7.1,7.5
		c4.1,5,5.2,10.9,3.6,17.2c-0.6,2.3-1.4,4.6-2.4,6.8c-1.1,2.4-2.4,4.7-3.6,7c-4,7.4-5.1,15.2-2.6,23.4c1.3,4.5,3.1,8.9,5.3,13.1
		c4.8,9,11,16.8,17.6,24.5c1.7,2,3.4,2.6,5.9,2.6C263.4,763,393.2,763,523,763c107.4,0,214.7,0,322.1,0c1.2,0,2.4,0,3.8,0
		c0-1.4,0-2.5,0-3.6c0-82.7,0-165.4,0-248.1c0-1.1,0-2.2,0-3.4c0.6-12.1,2.6-24,5.6-35.7c0.3-1.1,0.5-2.3,0.8-3.5
		c-0.7-0.3-1.2-0.5-1.7-0.6c-2.9-1.1-5.9-2.1-8.7-3.4c-7.8-3.6-14.8-8.2-20.2-15c-6.8-8.6-8.5-18.1-4.7-28.4
		c1.7-4.8,4.2-9.2,7.2-13.2c8.3-11.1,16.5-22.2,25.1-33.1c4.7-5.9,7.5-12.2,7.3-19.7c-0.1-3.4,0.6-6.7,2.1-9.8
		c1.6-3.4,3.3-6.8,5.3-9.9c6.3-10,12.6-20,17.8-30.7c6.2-12.8,10.6-26.2,15-39.7c0.4-1.3,0.8-2.6,1-4c1.4-8.5-1-11.2-6.4-14.2
		c-1-0.6-2.1-1.1-3.2-1.6c-2-0.9-4.1-1.9-6.1-2.8c-6.2-2.7-11.5-6.5-15.3-12.3c-1-1.5-2.6-2.8-4.2-3.8c-2.5-1.6-3.8-1.4-5.9,0.8
		c-2.3,2.5-4.5,5.2-6.8,7.8c-1.9,2.1-4.1,3.8-6.8,4.7c-2.2,0.7-4.1,0.4-5.8-1c-1.5-1.2-2.6-2.7-2.9-4.5c-0.3-2.2-0.6-4.5-0.4-6.7
		c0.2-2.9,0.9-5.7,1.4-8.5c2.3-11.1,4.8-22.2,7.1-33.3c0.3-1.3,0.4-2.7,0.6-4.1c-2.3,1.7-3.5,4-4.6,6.2c-3,5.9-5.8,11.9-8.7,17.9
		c-2.2,4.5-4.3,8.9-6.6,13.3c-1.3,2.5-3.3,4.5-6,5.6c-2.9,1.2-5.1,0.1-5.7-3c-0.3-1.6-0.2-3.3-0.1-5c0.2-3.7,0.5-7.3,0.8-11.4
		c-1.2,0.6-2.1,1.1-3,1.5c-2.5,1-5,2.1-7.6,2.9c-1.5,0.5-2.5,1.2-3.1,2.6c-1.3,2.7-2.8,5.2-5,7.3c-2.9,2.6-6.2,4.1-10.1,2.8
		c-4-1.3-5.8-4.5-6.6-8.4c-0.2-1-0.1-2.1-0.1-3.1c0-0.9,0.1-1.9,0.1-3c-0.3,0.2-0.6,0.3-0.7,0.4c-2.5,2.8-5.1,5.6-7.5,8.4
		c-1.4,1.7-2.2,3.7-2.5,5.9c-0.7,3.8-1.3,7.7-2.3,11.5c-1.8,6.4-5.4,11.8-10.7,15.8c-2.3,1.8-5,2.9-8,3c-4.2,0.1-6.6-2.8-5.6-6.9
		c0.5-1.9,1.3-3.8,2.2-5.5c4.4-8.1,10.5-14.9,16.9-21.4c2-2,2.6-4,2.1-6.8c-2.9,1.4-5.8,2.3-8.9,1.5c-3.3-0.9-4.8-3.6-6.1-6.6
		c-0.8,0.7-1.3,1.2-2,1.7c-3.2,2.5-6.3,5.2-9.6,7.5c-1.9,1.3-4,2.4-6.2,3.1c-5.8,1.9-11.1-0.2-14.2-5.4c-0.2-0.4-0.5-0.7-0.9-1.2
		c-0.5,1.1-0.9,1.9-1.3,2.6c-2.4,4.7-4.8,9.4-7.4,14c-1.8,3.3-4.2,6.2-7.1,8.7c-4.7,4.1-10,3-12.7-2.7c-1.2-2.6-1.5-5.4-1.4-8.2
		c0.3-5.3,1.7-10.4,3.6-15.3c0.8-2.1,1.7-4.2,2.6-6.5c-2.4,0.5-4.5,0.8-6.6,0.1c-0.4-0.2-1.2,0.2-1.7,0.6c-3.8,3-8.2,4.3-12.9,4.4
		c-2.1,0.1-3,0.9-3.9,2.7c-3,6.7-7,12.8-12.1,18c-4.7,4.9-10.1,8.8-16.8,10.7c-9.5,2.8-18.3-0.1-24.1-7.8
		c-3.8-5.1-5.6-10.9-6.4-17.1c-0.3-2.1-0.4-4.2-0.6-6.3c-0.3,0.1-0.5,0.1-0.6,0.2c-6,5.8-12.5,11-19.2,15.9
		c-2.8,2.1-5.8,4.1-8.9,5.7c-3.2,1.7-6.6,2.7-9.9,4.2c-5,2.2-9.9,4.5-14.8,6.8c-7.1,3.3-14.3,6.3-22,8.2c-9.1,2.2-18.2,2.4-27.2-0.5
		c-2-0.7-3.8-1.7-5.1-3.4c-1-1.3-2.3-2-3.9-2c-1.6-0.1-3.2,0-4.8,0.2c-3.9,0.5-7.3,2.4-10.2,4.9c-2.2,1.9-4.4,3.9-6.7,5.9
		c-3.6,3.1-7.6,4.9-12.4,5c-3.3,0.1-6.5-0.5-9.7-1.2c-2.2-0.5-4.1-0.2-6,0.9c-1.3,0.8-2.7,1.5-4,2.2c-2.7,1.4-5.7,2.4-8.7,2.2
		c-7.5-0.6-13.1-4.1-16-11.1c-0.6-1.5-1.5-2-3-2.1c-10.5-0.5-20.9-0.7-31.4,0.2c-4.1,0.4-8.2,0.5-12.2-0.5c-1.8-0.5-3.2-0.1-4.7,0.8
		c-9.9,5.7-19.8,11.4-29.8,17c-7.6,4.2-15.7,5.9-24.3,4c-5.9-1.2-11.9-2.4-17.8-3.7c-4.7-1-9.4-1.9-14-3.1
		c-6.4-1.7-11.2-5.5-13.9-11.5c-1.2-2.7-2.4-5.4-3.2-8.3c-1.4-4.8-2.4-9.8-3.7-14.6c-3.3-12.3-6.7-24.5-9.9-36.8
		c-0.7-2.6-2.2-4-4.7-4.5c-3-0.7-5.7-2-8.3-3.7c-1.5-1-3.2-1.9-4.8-2.7c-2.5-1.4-4.9-1.2-7.1,0.8c-0.6,0.5-1.3,1-1.8,1.6
		c-4.3,4.5-12.8,5.5-19,0.8c-3.4-2.6-5.9-5.8-7.8-9.6c-0.8-1.6-1.5-3.2-2.4-4.7c-0.8-1.4-1.8-2.6-3.5-3.2c-4.5,4.1-9.8,6.7-15.5,8.3
		C168.2,180.9,162.3,181.3,156,180.7z M657.7,206.5c0.4-0.8,0.7-1.3,0.8-1.8c1-3.9,2.2-7.7,3-11.6c1.2-6.2,1.6-12.5,0.7-18.8
		c-0.5-3.8-1.6-7.5-3.9-10.7c-1.7-2.4-4.1-3.7-6.9-4.3c-2-0.4-4-0.1-5.9,0.1c-5,0.6-9.4,2.5-13.1,5.9c-9.2,8.4-11.5,23.9,1.7,32.9
		c5.1,3.5,10.8,5.9,16.9,7.2C653.1,205.9,655.4,206.1,657.7,206.5z M619.4,181.4c-0.2,0-0.3,0-0.3,0c-0.2,0.4-0.5,0.8-0.7,1.3
		c-3.8,8.2-6,16.8-6.3,25.9c-0.2,6.6,0.7,13,3.6,19.1c1.1,2.4,2.9,4,5.1,5.1c7,3.6,15.6,2.5,21.4-2.8c5.2-4.8,9.2-10.5,12.5-16.9
		c0.3-0.5,0.5-1.1,0.8-1.8c-0.5-0.1-0.8-0.1-1.1-0.2c-8.4-1.2-16.3-3.9-23.3-8.8c-5.5-3.8-9.4-8.8-10.8-15.5
		C619.8,185.1,619.7,183.2,619.4,181.4z M797.1,202.4c0.4-4.3,0.1-8.1-1.7-11.7c-1.1-2.3-3.6-2.5-5.4-0.6c-1.9,1.9-2.1,4.8-0.4,7.2
		C791.4,199.8,794,201.1,797.1,202.4z M785.1,207.3c-0.6,2.3-1.3,4.5-0.7,6.9c0.9,3.5,4.2,4.6,7,2.2c1.6-1.4,2.5-3.2,3.2-5.3
		c-1.8-0.5-3.4-0.8-4.9-1.5C788.2,209.1,786.8,208.2,785.1,207.3z M765,194.1c-1.8,0-2.3,0.2-3.5,1.5c-2,2.1-3.3,4.7-4,7.5
		c-0.2,0.7-0.2,1.4-0.2,2.1c0.2,2.1,1.3,2.6,3.1,1.6C763.6,205,766.2,197.8,765,194.1z M747.3,246.8c6.6-4.9,10.9-11.3,13.2-19.1
		C755.1,233.3,750.4,239.4,747.3,246.8z M687.3,193.7c2.1-2,4-5.3,4.2-7.7c0.1-1.5,0-3.1-0.5-4.4c-0.6-1.5-2.1-1.6-3.3-0.4
		c-0.3,0.3-0.6,0.7-0.8,1.2C685.4,186.2,685.5,189.9,687.3,193.7z M726.5,199c1.7,0.3,3,0.6,4.3,0.7c2,0.2,3.6-0.8,4.8-2.2
		c1-1.1,1.2-2.4,0.7-3.3c-0.8-1.2-2-1.1-3-0.8C730.4,194.2,728.1,195.8,726.5,199z"/>
</g>
</svg>
