<?xml version="1.0" encoding="utf-8"?>
<!-- Generator: Adobe Illustrator 23.0.4, SVG Export Plug-In . SVG Version: 6.00 Build 0)  -->
<svg version="1.1" id="Layer_1" xmlns="http://www.w3.org/2000/svg" xmlns:xlink="http://www.w3.org/1999/xlink" x="0px" y="0px"
	 viewBox="0 0 1008 1008" style="enable-background:new 0 0 1008 1008;" xml:space="preserve">
<g>
	<path d="M860.6,235.5c2.2,1.4,3.9,3,5.1,5.1c0.4,0.6,1.2,1,1.8,1.4c1.3,1,2.8,1.8,4,3c0.9,0.9,1.8,1.5,3,1.8
		c4.9,1.5,9.7,3.5,13.6,6.8c5.6,4.8,9,10.7,9,18.3c0,1.3-0.2,2.5-0.6,3.8c-0.4,1.4-0.9,2.8-1.5,4.1c-0.7,1.5-0.6,2.7,0.6,4.1
		c2.9,3.2,3.5,7.1,2.5,11.2c-0.4,1.7-1,3.4-1.8,4.9c-1.5,2.7-2,5,0.3,7.7c2.1,2.4,2.6,5.6,2.4,8.9c0.6,0.1,1.2,0.2,1.7,0.3
		c2.4,0.3,4.8,0.5,7.1,1c2.3,0.5,4.3,1.8,5.7,3.8c0.6,0.8,1.2,1.5,1.8,2.3c1,1.3,2.3,2,3.9,2.1c2.1,0.1,4.1,0.3,6.2,0.4
		c4,0,7.8,0.9,11.4,2.5c3.7,1.7,6.4,4.4,8.1,8.1c2.1,4.7,3.2,9.5,2.1,14.7c-0.4,2.1-1.3,3.8-2.8,5.1c-4.7,4-8.1,9-11,14.4
		c-2.9,5.5-5.6,11.2-8.3,16.8c-4,8.3-8,16.7-12.1,25.1c-1.1,2.1-2.4,4.2-3.8,6.1c-2.7,3.5-6.2,5.4-10.7,5.7
		c-1.2,0.1-2.4,0.2-3.5,0.5c-2,0.5-2.8,1.5-2.6,3.5c0.3,2.2,0.9,4.4,1.7,6.4c0.9,2.5,2.3,4.7,3.4,7.2c1.7,3.9,2.2,8,1.5,12.2
		c-1.2,7.1-4.9,12.2-12.4,14.3c0.2,0.8,0.4,1.5,0.7,2.2c1.3,3.3,1,6.6-0.6,9.7c-0.9,1.8-2.2,3.5-3.4,5.2c-0.9,1.1-1.9,2.2-2.9,3.2
		c-3.3,3.4-3.9,7.5-3.6,12.1c0.7,0.3,1.3,0.6,2,0.8c10.5,3.9,16.7,13.8,15.3,24.9c-0.4,3.7,0.7,6.4,3.8,8.4c0.3,0.2,0.5,0.4,0.8,0.5
		c4.7,2.5,7.5,6.6,9.7,11.2c0.9,1.8,1.6,3.6,2.4,5.5c1.2,2.8,3.2,4.6,6.3,4.8c0.9,0.1,1.7,0.2,2.6,0.3c5.2,0.4,9,3.1,11.3,7.7
		c0.8,1.5,1.3,3.1,1.7,4.7c0.3,1.4,1.1,2.1,2.4,2.3c0.2,0,0.3,0.1,0.5,0.1c6.2,1.7,10.3,6.8,10.6,13.3c0.4,8.6-5,16.3-13.7,18.9
		c-3.7,1.1-7.5,1.6-11.2,2.4c-1.2,0.3-2.5,0.6-3.7,0.9c-3.4,1-6.3,2.7-8.5,5.5c-3.3,4.3-6.5,8.7-9.9,13c-2.9,3.8-5.7,7.7-8.9,11.3
		c-4.8,5.3-11.2,7.9-18.2,8.6c-3.6,0.4-7.3,0.1-11,0.2c-2.6,0.1-5.1,0.1-7.6,0.4c-3.1,0.4-5.6,1.8-7.2,4.6
		c-2.3,4.3-7.6,4.7-10.9,1.7c-6.5-6-13.8-6-21.5-3.2c-5.8,2.1-10.5,5.8-14.7,10.1c-3.3,3.3-6.4,6.7-9.5,10.2c-1.6,1.8-3.4,3.1-6,3
		c-1,0-2.1,0.2-3.1,0.2c-19,0-37.9,0-56.9,0c-2.6,0-4.9-0.4-6.8-2.6c-0.4,0.2-0.7,0.4-1,0.7c-1.5,1.4-3.3,1.9-5.3,1.9
		c-9.1-0.1-18.2-0.1-27.4-0.2c-3.8,0-7.7-0.1-11.5-0.1c-17.4,0-34.9,0-52.3,0c-8.9,0-17.8,0.2-26.6,0.2c-2.4,0-4.7-0.1-7.1-0.6
		c-5-1.2-9.7-0.3-13.7,3.2c-2.2,1.9-4.8,3.3-7.7,3.7c-1,0.2-2.1,0.3-3.1,0.2c-2.7-0.3-4.7-2.2-5.2-4.9c-0.1-0.6-0.1-1.3-0.2-2.3
		c-3.1,2.8-6.3,4.4-10.3,3.5c-4.2-1-5.6-4.4-6.9-8.2c-0.6,0.7-1.1,1.3-1.5,1.9c-2.4,3.3-5.1,6.4-8.5,8.8c-2.1,1.5-4.4,2.5-7,2.8
		c-3.7,0.4-6.3-1.1-7.9-4.5c-0.5-1.1-0.8-2.2-1.3-3.7c-0.6,1.1-1.1,1.9-1.5,2.7c-2.8,5.4-5.8,10.7-9.7,15.4c-1,1.2-2,2.3-3.1,3.4
		c-4.7,4.4-10.2,2.8-12-3.4c-0.6-2.2-0.9-4.5-0.5-6.9c1.1-6.4,2.2-12.8,3.4-19.1c1.4-7.8,2.9-15.5,4.3-23.3c0.2-1.1,0.2-2.1,0.3-3.2
		c-0.2-0.1-0.3-0.1-0.5-0.2c-0.7,1-1.4,1.9-1.9,2.9c-2.9,6.1-5.8,12.3-8.7,18.4c-2.5,5.4-4.9,10.9-7.6,16.3
		c-0.9,1.7-2.4,3.2-3.7,4.7c-0.4,0.5-1,0.8-1.5,1.1c-3.7,2.1-6.5,0.6-6.9-3.6c-0.2-2,0-4,0-6c0-0.8,0-1.6,0-2.6
		c-1,0.4-1.2,1.3-1.6,2c-2.3,3.6-4.9,6.9-8.7,9.1c-1.6,0.9-3.5,1.6-5.4,1.9c-3.7,0.7-7.2-1.8-7.2-5.8c0-0.4-0.1-0.8-0.2-1.3
		c-0.6,0.5-1,0.8-1.4,1.2c-1.9,1.7-4.1,2.4-6.6,2.5c-2.6,0.1-4.9-0.8-6.5-2.9c-1.6-2.1-2.5-4.5-2.8-7c-0.1-0.6-0.2-1.2-0.4-2.1
		c-3.5,2.3-7.3,2.8-11.3,2.6c-0.4,0.9-0.8,1.8-1.2,2.6c-1.4,2.9-2.8,5.9-4.3,8.8c-1.3,2.5-3.3,4.3-5.8,5.6c-4,2.1-7.2,0.9-8.8-3.3
		c-0.6-1.6-0.9-3.4-1.3-5.1c-0.1-0.7-0.2-1.4-0.3-2.6c-0.6,0.9-0.9,1.3-1.2,1.8c-2,3.7-4,7.3-7,10.3c-1.6,1.6-3.5,3.1-5.6,4.1
		c-4.2,2.1-8.8,0.4-11-3.7c-1.5-2.7-2.1-5.7-2.3-8.8c-0.2-2.9-0.1-5.7-0.1-8.6c0-0.5,0-1.1,0-2.1c-5.1,4.7-10.2,8.7-11.7,15.7
		c-1.2,6-3,11.9-4.6,17.9c-1.3,4.6-3.2,8.9-5.7,12.9c-2,3.4-4.6,6.1-8.4,7.5c-4.8,1.8-8.9-1.1-8.5-6.2c0.1-1.7,0.7-3.4,1.2-5.1
		c2.2-6.7,6.2-12.4,10.2-18.1c1.2-1.7,2.3-3.4,3.6-5.1c4-5.1,6-11.1,7.1-17.4c0.3-1.5,0.4-3,0.3-4.6c-0.3,0.4-0.6,0.7-0.8,1.1
		c-1.7,2.8-3.1,5.8-5,8.4c-1.4,2-3.3,3.7-5.1,5.3c-1.9,1.7-4.4,2.3-6.9,2.3c-3.1,0-5.3-1.5-6.5-4.4c-0.9-2.2-1-4.5-0.8-6.8
		c0-0.7,0.1-1.4,0.2-2.4c-2,1-3.5,2.4-5.1,3.9c0.4,0.8,0.7,1.6,1.1,2.4c2.8,5.2,4.6,10.7,4.8,16.7c0.1,2-0.2,4.2-0.8,6.1
		c-0.9,3.2-3.1,5.6-6.2,6.9c-2.3,0.9-4.7,1.6-7.2,1.4c-5.9-0.7-9.8-4.9-10.4-11.3c-0.4-3.8,0.2-7.4,2.2-10.6
		c1.7-2.6,3.5-5.1,5.3-7.7c0.4-0.5,0.8-1,1.3-1.6c-1.9-2.4-3.8-4.7-5.9-7.3c-0.5,1-0.8,1.7-1.2,2.4c-3.9,8.4-8.5,16.3-14.7,23.2
		c-0.9,1-1.9,2-2.9,2.8c-3.3,2.6-6.9,2-9.4-1.3c-1.6-2.1-2.1-4.5-2-7c0.1-2.8,0.5-5.6,0.9-8.3c0.8-6.4,1.6-12.8,2.4-19.3
		c0.2-1.7,0.5-3.5,0.7-5.2c0.2-1.2,0.3-2.4,0.4-3.7c-1.1,0.2-1.4,1-1.8,1.6c-2.6,4.7-5.3,9.5-7.8,14.3c-2.1,4-4.1,8.2-6.1,12.2
		c-1.1,2.2-2.4,4.1-4.5,5.6c-0.8,0.5-1.6,1.1-2.5,1.4c-2.7,1-4.8-0.2-5.3-3c-0.3-1.9-0.3-3.8-0.4-6c-0.4,0.7-0.8,1.3-1.1,1.9
		c-3.1,5.9-6.2,11.9-10.5,17.2c-1.3,1.6-2.6,3.2-4.2,4.6c-4.2,3.6-9.4,2.1-11.2-3.2c-1.2-3.6-1-7.3-0.3-10.9
		c1.9-10.2,3.9-20.4,5.8-30.6c0.7-3.5,1.2-7.1,1.7-10.6c0-0.3,0-0.6-0.1-1.3c-0.5,0.5-1,0.8-1.2,1.3c-1.5,2.7-3.1,5.4-4.4,8.2
		c-4.2,9.1-8.3,18.3-12.5,27.5c-1,2.2-2.4,4.2-4.4,5.6c-1,0.7-2.2,1.3-3.4,1.7c-1.9,0.5-3.5-0.3-4.2-2.2c-0.4-1.1-0.6-2.3-0.6-3.5
		c0-3,0.2-5.9,0.4-8.9c0-0.9,0-1.7,0-2.9c-0.7,0.6-1.2,1-1.7,1.5c-3.2,2.7-6.3,5.4-9.6,7.9c-1.6,1.2-3.4,2.2-5.2,2.9
		c-6,2.4-14.3,1.3-16.7-8.4c-1.5-6.2-0.5-12.1,3.1-17.4c4-6,12.9-8.1,19.3-4.7c4.9,2.6,5.7,7.4,1.9,11.5c-2.3,2.5-5.2,3.6-8.5,3.8
		c-1.9,0.1-3.8,0-5.9,0c-0.6,2.8-1.3,5.8-0.4,8.8c0.7,2.6,2.8,3.8,5.4,2.9c2-0.8,4-1.7,5.7-3c2.8-2.1,5.4-4.5,7.9-6.9
		c2.1-2,4.1-4.2,6.2-6.3c1.4-1.4,3.2-1.5,4.9-1.1c1.7,0.3,2.2,1.8,2.4,3.3c0.3,2.5,0.4,5.1,0.6,7.6c0,0.6,0.1,1.2,0.1,2.4
		c0.6-1,0.9-1.5,1.1-2c3.5-7.7,6.9-15.5,10.6-23.1c1.3-2.8,3.1-5.4,4.8-8c0.8-1.2,1.8-2.2,2.9-3.2c3.3-3.1,10.3-2.3,11.9,3.7
		c0.9,3.5,1,7.1,0.6,10.7c-0.9,9.1-3.4,17.9-5.7,26.7c-1.2,4.8-2.4,9.6-3.3,14.6c0.4-0.3,0.8-0.5,1.1-0.9c3.6-3.8,6.4-8.2,9-12.7
		c3.4-6,6.8-12.1,8.9-18.8c0.6-1.9,2.5-2.8,4.9-2.5c1.8,0.2,2.8,1,3,3.1c0.3,2.3,0.4,4.6,0.5,6.9c0.1,0.9,0.2,1.8,0.7,2.8
		c1.2-2.3,2.3-4.7,3.6-7c3-5.4,6.1-10.7,9.3-16c0.9-1.5,2.3-2.9,3.6-4.1c3.2-2.9,10.1-2.2,11.7,3.7c0.9,3.5,1.1,7,0.7,10.5
		c-1.1,9.4-2.6,18.7-5.1,27.8c-0.1,0.5-0.2,0.9,0,1.7c0.6-0.6,1.2-1.1,1.7-1.7c6.2-7.2,11.1-15.2,14.9-24c0.4-0.9,0.4-1.8,0-2.7
		c-1.6-3.9-1.3-7.8,0.1-11.7c2-5.5,7.1-7.1,12.1-5.8c4,1,5.5,5.2,3.3,8.5c-1.2,1.7-2.3,1.7-3.5-0.1c-0.3-0.5-0.8-0.9-1.2-1.3
		c-0.5,0.5-1.2,1-1.5,1.7c-0.3,0.6-0.2,1.4-0.2,2.1c0.1,0.9,0.3,1.9,0.6,2.8c1,3.4,4.9,9.3,7.5,11.2c3-2.4,6.1-4.7,9-7.1
		c0.6-0.5,0.9-1.3,1.3-2c1-1.8,2.3-3.3,4.1-4.3c1.5-0.9,3-1.1,4.5,0c1.4,1,1.8,2.4,1.6,4c-0.1,1-0.5,2-0.7,3
		c-0.8,3.2-1.7,6.3-2.4,9.5c-0.2,0.9-0.1,1.9,0.1,2.8c0.3,1.4,1.3,1.9,2.4,1c0.9-0.7,1.7-1.5,2.3-2.4c1.4-2.1,2.6-4.2,3.9-6.3
		c1.6-2.6,3.1-5.2,4.7-7.8c0.5-0.8,1.2-1.5,1.8-2.2c1.1-1.2,2.5-1.8,4.1-1.4c1.6,0.5,2.1,1.9,2.4,3.3c0.2,1.5,0.3,3,0.4,4.5
		c0.1,2.1,0,4.3,0,6.5c0.3-0.3,0.8-0.6,1.2-0.9c2.6-2.4,5.1-4.8,7.7-7.2c0.8-0.7,1.2-1.5,1.4-2.6c1.8-10.7,4.5-21.1,9-31
		c1.8-3.9,3.9-7.5,6.5-10.9c1.7-2.2,3.8-4.2,6.4-5.3c1.8-0.8,3.7-1.1,5.6-0.6c2.8,0.7,4.3,2.7,5,5.3c1,3.7,0.6,7.3-0.3,10.9
		c-2.1,9.2-6.6,17.1-13,24c-2.4,2.6-5,4.9-7.7,7.2c-1.3,1.2-2.1,2.4-2.3,4.2c-0.4,5.8-0.8,11.6-0.3,17.5c0.2,2,0.2,4,1.6,5.7
		c1.8-0.3,3.1-1.3,4.3-2.4c2.7-2.6,4.7-5.7,6.2-9c1.5-3.3,2.8-6.6,4.2-9.9c0.3-0.9,0.4-1.9,0.5-2.8c0.2-2,1.1-3.5,3-4.3
		c2.4-1.1,5-0.2,6,2.3c0.4,1,0.6,2.2,0.6,3.3c0.2,3.7,0.3,7.5,0.5,11.3c0.1,1.3,0.3,2.6,0.8,4c3-3.3,4.3-7.5,6.3-11.4
		c-4.9-4.7-4.4-10.3-2.3-16c0.5-1.3,1.4-2.6,2.4-3.5c3-2.7,7.4-1.3,8.6,2.6c0.8,2.6,0.5,5.2-0.3,7.8c-0.5,1.9-1.1,3.8-1.7,5.7
		c1.4,0.7,2.7,0.6,3.9,0.2c3.2-1,5.8-2.7,7.1-5.9c2.8-7,10.9-12.2,19.3-11.6c1.4,0.1,2.9,0.5,4.1,1.1c2.2,1,3.5,2.8,3.5,5.5
		c0,3.4,0,6.8-1.2,10.2c-0.9,2.5-1.4,5.1-1.9,7.7c-0.2,1-0.3,2.1-0.2,3.1c0.2,2.5,1.4,3.2,3.5,1.9c1.1-0.7,2.1-1.5,3-2.4
		c3.8-4,6.5-8.7,9.2-13.4c0.2-0.3,0.3-0.7,0.5-1.1c0.9-2.5,3-3.7,5.5-3.2c1.3,0.3,2.1,1.2,2.3,2.5c0.3,2,0.5,4.1,0.7,6.2
		c0.1,1.4,0.2,2.8,0.7,4.3c0.5-1.1,1.1-2.2,1.6-3.3c3.2-7.1,6.3-14.2,9.7-21.2c1.3-2.7,3-5.3,4.7-7.8c0.9-1.3,2-2.5,3.2-3.5
		c3.5-3.2,10.3-1.9,11.7,3.6c0.9,3.5,1,6.9,0.7,10.5c-0.9,9.2-3.4,18-5.7,26.9c-1.2,4.6-2.2,9.2-3.3,13.7c-0.1,0.3-0.1,0.6-0.1,1.4
		c1-1,1.7-1.6,2.3-2.3c4.6-5.3,8.1-11.3,11.3-17.5c1.9-3.8,3.5-7.7,5.1-11.6c1-2.5,2.5-3.6,4.6-3.3c1.9,0.2,3.1,1.4,3.1,3.3
		c0,1.1-0.2,2.2-0.4,3.3c-0.4,2.4-0.9,4.7-1.1,7.1c-0.1,1.6,0,3.4,0.3,5c0.3,1.6,1.1,2.2,2.8,1.9c1.4-0.2,2.9-0.7,3.9-1.5
		c1.9-1.6,3.7-3.3,5.2-5.3c2.2-2.8,4.1-5.9,6.1-8.9c0.5-0.7,0.8-1.6,1.1-2.4c3-8.5,11.7-14,20.7-13c4.6,0.5,7.8,4,7.6,8.6
		c-0.1,1.6-0.6,3.3-1,4.9c-0.9,3.2-1.9,6.4-2.7,9.7c-0.3,1.4-0.4,2.9-0.4,4.3c0.1,2.5,1.3,3.1,3.5,1.8c2.4-1.5,4.3-3.6,5.8-6
		c2.3-3.7,5.4-6.5,9.5-8.1c2.9-1.1,5.8-1.5,8.9-1.3c3.3,0.2,6.6,0.1,9.8,0.1c26.7,0,53.4-0.1,80.2-0.1c6.2,0,12.5,0.1,18.7,0.2
		c1,0,2.1,0,3.2,0c0.3-0.9,0.5-1.8,0.7-2.6c2-6.6,9.1-10.6,15.5-8.5c4.3,1.4,6.8,4.3,7.5,8.8c0.1,0.7,0.2,1.4,0.4,2.2
		c0.8,0,1.5,0.1,2.2,0.1c16.2,0,32.3,0,48.5,0c1.5,0,2.5-0.4,3.5-1.5c5-5.6,10.3-11,16.5-15.3c5.6-3.9,11.7-6.8,18.6-7.9
		c7.2-1.1,14.2-0.4,20.8,2.7c0.4,0.2,0.9,0.4,1,0.4c3.3-1.4,6.3-2.9,9.5-3.9c4.8-1.6,9.9-1.5,15-1.4c3,0,6.1-0.1,9.1-0.5
		c3.5-0.4,6.4-2.1,8.6-4.8c3.1-3.7,6-7.5,8.9-11.3c2.1-2.7,4.1-5.5,6-8.4c5.5-8,13.2-12.3,22.6-14c2.8-0.5,5.5-0.9,8.2-1.5
		c2.2-0.5,4.2-1.5,4.9-3.9c-1.8-0.6-3.6-1.1-5.2-1.9c-3.3-1.5-5.5-4-6.4-7.6c-0.3-1.1-0.6-2.2-0.9-3.2c-0.7-2.4-0.7-2.4-3.3-2.7
		c-1.3-0.1-2.7-0.2-4-0.5c-6.3-1.4-10.4-5.4-13.1-11c-1-2.1-1.9-4.2-2.9-6.3c-1.3-2.7-3.2-5-5.7-6.6c-0.7-0.5-1.4-1-2.2-1.5
		c-5.7-3.6-8.1-8.8-8.2-15.3c0-2.3,0-4.6,0-7c-0.1-3.3-1.8-5.6-4.7-7c-0.9-0.5-1.9-0.6-3-0.4c-4.4,0.8-8.2-1.9-8.8-6.4
		c-0.7-5.4-1.3-10.8-0.5-16.2c0.7-5.4,2.8-10.1,6.4-14.2c0.9-0.9,1.7-2,2.6-2.8c1.5-1.3,1.7-2.6,1-4.4c-1.2-2.9-1.8-6-1.4-9.1
		c0.6-4.6,4-8.1,8.7-8.6c3.2-0.4,4.2-0.6,3.9-4.8c-0.1-1.8-0.6-3.6-1.2-5.3c-1.2-3.1-2.7-6.2-3.8-9.3c-1.8-5-1.5-10.1,0.5-15
		c2.2-5.1,6-8.1,11.4-9.2c1.2-0.2,2.4-0.5,3.6-0.5c2.8-0.1,4.5-1.5,5.7-4c3.7-7.9,7.4-15.8,11.3-23.6c3.4-7,6.9-14.1,10.5-21
		c2.6-4.9,5.9-9.3,9.7-13.4c0.8-0.9,1.7-1.6,1.2-3.1c-0.5-1.5-1.1-2.9-2.7-3.4c-1.1-0.3-2.2-0.5-3.3-0.7c-3.3-0.4-6.5-0.6-9.8-1
		c-5-0.6-9.4-2.5-12.3-6.9c-0.7-1-1.5-1.3-2.6-1.3c-2.5,0-5,0-7.4-0.3c-6.2-0.9-10.9-6.3-9.5-13.1c0.4-2.2-0.6-3.7-1.7-5.3
		c-1.5-1.9-2.5-4-3-6.5c-0.6-3.4-0.2-6.5,1.4-9.5c0.6-1.2,1.3-2.4,1.9-3.6c0.4-0.8,0.4-1.5-0.3-2.2c-0.1-0.1-0.1-0.1-0.1-0.2
		c-4.2-4.7-4.5-9.8-2-15.4c0.2-0.4,0.3-0.7,0.5-1.1c1.6-3.9,0.9-6.7-2.3-9.6c-2.3-2.1-5.1-3.2-8.1-4.1c-2.1-0.6-4.2-1.1-6.3-1.5
		c-3.1-0.6-5.7-1.7-6.7-5c-0.1-0.4-0.6-0.7-0.9-1.1c-1.2-1.4-2.3-2.8-3.5-4.2c-0.6-0.6-1.2-1.2-1.9-1.7c-1.6-0.9-3.4-1.5-4.9-2.6
		c-4.4-3-5.3-6.9-2.8-11.7c0.1-0.1,0.1-0.3,0.1-0.7c-0.6,0-1.2-0.1-1.8-0.1c-0.6,0-1.1,0-1.7,0c-211.1,0-422.2,0-633.3,0
		c-1.8,0-3.6-0.1-5.4,0.9c-1,0.6-2.5,0.6-3.7,0.5c-3.9-0.3-6.4-3-6.7-6.9c0-0.7,0-1.4,0-2.2c0-11.1,0-22.2,0-33.4c0-0.9,0-1.9,0-3.2
		c-3.7,0.8-7.1,1.4-10.5,2.1c-11.9,2.5-22.8,7.7-33.4,13.6c-13.5,7.5-26.9,15-40.5,22.4c-3.8,2.1-8,3.7-12,5.5
		c-0.5,0.2-1,0.4-1.6,0.7c0,16.2,0,32.5,0,48.9c0.7,0.3,1.5,0.7,2.2,1.1c3.3,1.7,6.3,3.8,8.3,7.1c3.9,6.3,2,15.1-4.2,18.8
		c-1.5,0.9-3.3,1.4-5.1,2.1c-0.4,1.1,0.1,2,0.8,2.8c1.3,1.6,2.6,3.3,4.2,4.6c5.5,4.4,2.7,11.5-2.5,13.5c-0.6,0.2-1.2,0.4-2,0.7
		c0,1.1,0,2.2,0,3.3c0,96.9,0,193.8,0,290.6c0,3-0.1,6.1-0.1,9.1c0,1.1-0.1,2.3,1.4,3c0.4-0.6,0.9-1.3,1.3-1.9
		c2.7-4.6,5.3-9.3,8.2-13.8c1.2-1.9,2.8-3.7,4.4-5.4c0.9-0.9,2-1.7,3.1-2.2c3.1-1.5,5.3-0.8,7.2,2.1c1.8,2.8,2.2,6,2.3,9.2
		c0,1.1,0,2.2,0,3.6c1.4-0.6,2.1-1.7,2.9-2.4c4.2-4,8.8-7.2,14.4-8.6c6.1-1.6,11.8-0.7,16.6,3.6c3.5,3.1,5.4,7.1,6.1,11.7
		c1.3,8.3-0.2,16.3-4.3,23.6c-5,9-12,15.9-21.2,20.5c-3.5,1.8-7.3,2.7-11.2,3.1c-3.8,0.4-7.1-0.5-9.9-3.8c-0.5,1.3-1,2.2-1.3,3.2
		c-1.8,6.1-3.5,12.1-5.3,18.2c-1,3.4-2.2,6.7-3.4,10c-0.6,1.5-1.4,2.9-2.3,4.2c-0.9,1.5-2.2,2.8-4.1,2.2c-2-0.6-3.3-2.1-3.5-4.2
		c-0.2-2.1-0.4-4.3-0.2-6.5c0.9-15.1,4.8-29.6,9.5-43.9c2.2-6.5,4.7-12.9,8.5-18.7c0.4-0.6,0.8-1.5,0.8-2.2
		c0.2-6.1,0.3-12.1,0.4-18.2c0-0.3-0.2-0.6-0.5-1.3c-0.8,0.9-1.4,1.6-1.9,2.3c-2.1,3.5-4.2,7-6.3,10.5c-2.6,4.3-5.1,8.7-8.7,12.3
		c-1.1,1.1-2.3,2.2-3.7,3c-4.3,2.6-9,1.3-11.5-3.1c-1.5-2.5-2.2-5.3-2.4-8.2c-0.2-3.3-0.4-6.7-0.4-10.1c0-99.7,0-199.4,0-299
		c0-2.7,0.3-5.3,2.4-7.3c-2.3-4.4-3.8-8.9-2.4-13.9c1.3-4.9,4.3-8.5,9-10.9c-1.4-0.3-2.8-0.7-4.3-1c-3.9-0.7-6.3-3.3-6.3-7.3
		c0-20.4,0-40.8,0-61.2c0-3.7,1.7-6.1,5.1-6.9c7.8-1.8,14.8-5.4,21.8-9.2c13.5-7.5,27.1-15.1,40.7-22.5c12.8-7,26.4-11.7,40.8-14
		c3.2-0.5,6.3-1.2,9.4-1.7c0.9-0.1,1.7-0.2,2.6-0.2c4.9,0.1,7.8,3,7.8,7.8c0,11.5,0,23,0,34.6c0,0.9,0,1.7,0,2.7
		c0.7,0.1,1.2,0.3,1.7,0.3c1,0,1.9,0,2.9,0c211.4,0,422.9,0,634.3,0c0.7,0,1.4,0.1,2.2,0c4.9-0.5,8.2,2.1,10.7,5.9
		c2.1,3.1,2.9,6.5,2.6,10.3C860.7,234.4,860.7,234.9,860.6,235.5z M119.3,659.4c0.2,0.1,0.4,0.1,0.6,0.2c1.6-2,3.1-4,4.7-6
		c1-1.2,2.2-2.3,3.3-3.4c0.7-0.7,1.6-1.2,2.6-0.6c1.1,0.7,0.7,1.8,0.4,2.8c-0.2,0.6-0.4,1.2-0.8,1.8c-1,1.6-2,3.3-3.1,4.8
		c-2.4,3.5-4.4,7.3-5.1,11.5c-0.5,2.7,0.3,3.5,3,3.5c4.2-0.1,7.9-1.7,11.3-4.2c3.6-2.6,6.6-5.7,9.4-9.2c5.6-7.2,8.6-15.3,8-24.5
		c-0.2-3.3-1.1-6.3-3.3-8.8c-1.6-1.9-3.7-3-6.2-3.3c-3.3-0.3-6.3,0.5-9.2,2.1c-4.1,2.3-7.4,5.6-10.3,9.2c-0.9,1.2-1.8,2.5-2.1,4
		C121.3,646,120.3,652.7,119.3,659.4z M374.1,654c0.1,0.1,0.3,0.2,0.4,0.3c1-1.1,2.1-2.1,3.1-3.3c5.2-6,9.7-12.5,12.4-20.1
		c1.2-3.3,1.7-6.6,1.2-10.1c-0.3-2.3-1.5-2.8-3.2-1.3c-1.3,1.2-2.5,2.6-3.3,4.1c-1.7,3.4-3.3,6.9-4.7,10.4
		C377.4,640.5,375.6,647.2,374.1,654z M308.3,680.9c-3.8,4-6.6,8.1-6.6,13.6c0,1.5,0.4,3,0.9,4.4c0.6,1.7,1.8,3,3.8,3.2
		c2,0.2,3.6-0.7,4.6-2.4c0.6-1.1,1.1-2.3,1.4-3.5c0.5-2.5,0.3-4.9-0.5-7.3C311.1,686.1,310.1,683.5,308.3,680.9z M431.7,668.8
		c0.2,1.6,0.4,3.2,0.8,4.7c0.4,1.3,1.1,1.5,2.4,1.1c1.7-0.5,2.8-1.7,3.4-3.2c2-4.9,3.9-9.7,5.7-14.7c0.5-1.4,0-2-1.6-2.2
		c-2.4-0.3-4.4,0.6-6,2.3C433.2,660.2,431.6,664.2,431.7,668.8z M547.7,665.8c0.2,1.6,0.3,3.2,0.8,4.7c0.4,1.4,1.2,1.8,2.5,1.2
		c0.9-0.4,1.8-1,2.4-1.8c0.8-1,1.5-2.3,2-3.5c1.5-3.9,2.9-7.7,4.3-11.6c0.7-1.8-0.3-3.1-2.3-3c-2,0.1-3.6,0.9-5,2.4
		C549.2,657.3,547.7,661.2,547.7,665.8z M112.6,657.2c-6.2,6.8-12.5,40.7-11.9,48.3C105.2,689.6,109.7,673.6,112.6,657.2z
		 M328.1,716c4.1-2.9,10.1-15.3,10.5-21.3C334.3,701.6,329.5,708,328.1,716z M173.2,664c1.8,1,3.5,1.1,5.3,0.9
		c2-0.3,3.6-1.5,4.4-3.3c0.8-1.9-0.3-3.4-2.3-3C177.3,659.1,174.8,660.9,173.2,664z M408.5,662.1c1.5-3.6,1.8-7.2,0.9-9.2
		C408,655.8,407.6,658.6,408.5,662.1z"/>
	<path d="M521.5,642.7c2.2,0.1,3.6,1.7,3.5,4c-0.1,2.5-2.3,4.5-4.7,4.3c-2-0.1-3.4-1.8-3.3-3.9C517.1,644.4,519,642.6,521.5,642.7z"
		/>
</g>
</svg>
