<?xml version="1.0" encoding="utf-8"?>
<!-- Generator: Adobe Illustrator 23.0.4, SVG Export Plug-In . SVG Version: 6.00 Build 0)  -->
<svg version="1.1" id="Layer_1" xmlns="http://www.w3.org/2000/svg" xmlns:xlink="http://www.w3.org/1999/xlink" x="0px" y="0px"
	 viewBox="0 0 1008 1008" style="enable-background:new 0 0 1008 1008;" xml:space="preserve">
<g>
	<path d="M328.2,659.4c0-1.4,0-2.5,0-3.7c0-43.8,0-87.5,0-131.3c0-2.9-0.2-5.8,1.5-8.4c0.3-0.5-0.1-1.5-0.4-2.2
		c-1.8-3.8-3.3-7.6-3.9-11.8c-0.3-2.4-0.6-4.9-0.6-7.4c0-81.1,0-162.2,0.1-243.3c0-1.2,0.1-2.4,0.1-3.6c0-0.7,0.1-1.5-0.2-2.1
		c-1-2.3-1.1-4.8-1.1-7.3c0-18.9-0.1-37.8-0.2-56.6c-0.1-21.1-0.3-42.2-0.5-63.3c0-2.7,0.2-5.3,1.5-7.7c1.3-2.6,3.2-4.6,5.8-5.9
		c2.3-1.1,3.8-2.8,4.9-5c3.2-6.8,6.5-13.5,9.8-20.3c0.8-1.7,1.6-3.3,2.6-4.8c0.8-1.2,1.7-2.4,2.7-3.4c2.5-2.3,5.2-1.7,6.5,1.4
		c0.5,1.1,0.7,2.3,0.9,3.5c0.2,0.7,0.3,1.5,0.6,2.5c1-0.8,1.8-1.5,2.6-2.1c2.3-1.8,4.8-3.2,7.6-3.9c7.1-1.7,13.4,2.6,14.6,9.9
		c0.2,1.1,0.3,2.2,0.5,3.7c0.6-0.9,1-1.5,1.3-2.1c1-1.8,2-3.7,3.1-5.4c1.2-1.9,3-3,5.4-3c1.8,0,3,0.9,3.1,2.7c0.1,2,0.2,4.2-0.3,6.2
		c-1.2,4.1-2.6,8.1-4.3,11.9c-1.8,4.1-3.9,8-5.9,12.1c-0.7,1.4-1.2,2.9-1.7,4.3c0.2,0.1,0.3,0.2,0.5,0.2c1-1.2,1.9-2.5,3-3.7
		c0.9-1,1.8-2,2.8-3c0.7-0.7,1.7-1,2.7-0.6c1,0.4,1.4,1.3,1.4,2.3c0,1.8-0.2,3.7-0.2,5.5c-0.1,4.4-0.2,8.8-0.2,13.2
		c0,1.2,0.4,2.4,0.6,3.7c0.2,0.1,0.4,0.1,0.6,0.2c0.6-0.8,1.2-1.6,1.6-2.4c3.1-5.8,5.2-12,6.7-18.4c0.4-1.8,0.3-3.6-0.1-5.4
		c-1.1-4.1,0.6-7.5,4.5-9.2c3.9-1.8,8.1-0.6,10.4,2.9c1.2,1.8,1.7,3.8,1.7,5.9c0,1.3,0,2.7,0,4.2c3.1-0.2,5.2-1.5,6.9-3.7
		c0.8-1,1.6-2.1,2.6-2.8c0.9-0.6,2.1-0.8,3.1-1c0.8-0.1,1.6,0,2.5,0c0.6-3.3,1.1-6.4,1.7-9.6c0.7-3.7,2-7.1,4.4-10
		c1.7-2,3.6-3.6,6.4-2.9c2.8,0.6,3.9,2.9,4.6,5.4c0.9,3.1,0.5,6.2-0.3,9.2c-1.6,6.4-4.4,12.4-8.6,17.5c-1.2,1.5-1.4,2.9-0.9,4.6
		c0.5,1.7,1.1,3.3,2.3,4.7c1.7,1.8,2.8,1.8,4.3-0.1c0.6-0.7,1.1-1.6,1.6-2.4c1.7-3.2,2.8-6.6,3.5-10.2c0.4-1.8,0.8-3.6,1.6-5.2
		c2.3-4.8,8.2-6.7,12.9-4.4c3.6,1.7,4.2,5.1,1.4,8c-1.7,1.7-3.8,2.3-6.1,2.4c-0.9,0.1-1.7,0-2.8,0c-0.1,1.4-0.4,2.6-0.3,3.7
		c0.1,1.8,1,2.5,2.7,2c1.6-0.5,3.2-1.2,4.5-2.2c3.2-2.7,6.3-5.7,9.4-8.5c0.5-0.5,1-1.1,1.3-1.7c0.6-1.5,1.7-1.9,3.2-1.9
		c3.5,0,7,0,10.6-0.1c0.6,0,1.1,0,1.7,0.1c1.1,0.1,2,0.6,2.2,1.8c0.2,1.2-0.5,2.5-1.7,2.9c-0.7,0.2-1.6,0.3-2.4,0.3
		c-2.6,0.1-5.2,0.2-8,0.4c-0.3,3.3,1,5.6,3.4,7.4c3.4,2.5,7.1,2.4,11.1,0.8c-0.3-1.6-0.5-3.2-0.8-4.7c-1.1-6.5-2.2-13.1-3.3-19.6
		c-0.4-2.7,0-5.3,1.2-7.7c1.3-2.9,3.6-4.9,6.9-5.2c3.2-0.3,6,1.4,6.9,4.4c0.6,1.9,0.9,3.9,0.8,5.9c-0.4,9-1.8,18-4.3,26.7
		c-0.8,3-0.7,3.2,2.2,4c0.8,0.2,1.7,0.4,2.6,0.4c2,0.1,3.6-0.6,4.6-2.4c0.4-0.7,0.8-1.4,1.3-2.1c-1.4-2-2.9-4-4.3-6
		c-2-2.9-2.3-6.1-1.3-9.4c1.2-3.7,4.7-5.5,8.4-4.2c2.2,0.8,3.2,2.9,2.4,5c-0.6,1.6-1.4,1.8-2.9,1c-0.2-0.1-0.4-0.2-0.6-0.4
		c-1.1,2.7,0.1,5.8,4,9.6c1.6-1.3,3.3-2.6,4.9-4c0.5-0.4,0.7-1.2,0.9-1.9c1.2-4.5,2.3-9,3.5-13.4c1.2-4.2,3-8.1,5.9-11.4
		c1.3-1.4,2.8-2.7,4.5-3.5c3.3-1.6,6.3,0.2,6.9,3.8c0.5,2.9,0.1,5.7-0.8,8.5c-2.1,6.4-5.7,11.8-10.9,16.1c-2.1,1.7-3.1,3.7-2.9,6.4
		c0.1,2.4-0.1,4.8,0,7.2c0,1.2,0.3,2.5,0.4,3.9c1.8-0.2,2.8-1.1,3.5-2.2c1.6-2.8,3.1-5.6,4.5-8.4c0.9-1.9,1.5-3.9,2.3-5.8
		c2.1-4.8,6.7-7.7,11.8-7.6c5.2,0.1,6.6,3.3,5.9,7.5c-0.2,1.3-0.8,2.6-1.1,3.9c-0.6,2.2-1.2,4.5-0.9,6.9c1.4,0.5,2.2-0.4,2.9-1.2
		c2.5-2.6,4.6-5.6,6-8.9c0.5-1.3,1.3-2.2,2.8-2.3c1.6-0.2,2.6,0.4,3,2c0.3,1.2,0.4,2.5,0.7,4.1c0.5-0.6,0.9-0.9,1.1-1.3
		c1.5-3.3,2.8-6.6,4.5-9.8c1.4-2.7,3-5.2,4.6-7.8c0.8-1.3,2-2.1,3.5-2.4c2.8-0.6,5.1,1.1,5.8,4c0.8,3.2,0.5,6.4-0.2,9.5
		c-1.4,6.1-2.9,12.1-4.3,18.2c-0.2,0.8-0.3,1.5-0.5,2.6c1.2-0.6,1.7-1.5,2.2-2.3c3.1-4.5,5.8-9.2,7.8-14.3c0.4-0.9,0.7-1.8,1.2-2.6
		c1.9-3.4,4.4-5.5,8.7-4.5c0.3-2,0.5-3.8,0.9-5.6c0.6-2.9,1.3-5.8,2.1-8.6c0.7-2.5,2.1-4.7,3.9-6.5c3.6-3.4,7.6-2.6,9.6,2
		c1.3,2.9,1.1,5.9,0.5,9c-1.3,6.9-4.2,13-8.4,18.6c-0.9,1.1-2,2.2-1.7,3.8c0.4,2.4,1,4.7,3,6.4c1.6,1.5,3.2,1.2,4-0.8
		c0.5-1.4,0.8-2.9,1.2-4.4c0.4-1.5,0.7-3.2,1.4-4.5c1.5-2.8,4.1-4,7.1-4.3c1.8-0.2,3.7-0.2,5.5,0c3.5,0.3,5.8,2.2,6.4,5.7
		c0.4,2.2,0.5,4.4,0.5,6.7c0,29.2,0,58.4,0,87.6c0,1.1,0,2.2,0,3.6c3-0.2,5.8-0.4,8.5-0.5c1.8-0.1,3.5-0.3,5.3-0.3
		c5.3,0,8.2,2.8,8.4,8c0.3,8.9,0.4,17.8,0.9,26.6c0.6,10.3,1.4,20.6,2.2,30.9c0.6,7.4,1.2,14.8,2.1,22.2c0.4,3.9,1.1,7.8,2.1,11.5
		c1.5,5.8,5,10.4,10,13.6c4,2.5,8.1,4.9,12.2,7.2c3.4,1.9,7,3.6,10.4,5.4c10.4,5.4,18.2,13.4,23.4,23.9c3.8,7.8,6.6,16,8.6,24.4
		c1.4,5.8,0.6,11.4-2.4,16.5c-3.3,5.8-4.7,12-5.4,18.5c-0.4,4.6-1.1,9.2-2,13.7c-2.8,13.9-11.5,22.2-25.1,25.7
		c-8.7,2.2-17,1-24.7-3.6c-5.7-3.4-8.6-8.5-8.5-15.1c0.2-10.2,0.5-20.5,0.6-30.7c0.1-4.4,0-8.8,0-13.4c-1-0.2-2.2-0.5-3.3-0.7
		c-14.1-2.7-24.6-10.5-32.4-22.4c-5.5-8.3-8.8-17.5-10.5-27.3c-1-5.5-1.6-11.1-2.5-16.6c-0.1-0.8-0.3-1.7-0.9-2.4
		c0.2,3.2,0.4,6.5,0.6,9.7c0.6,8,1.2,15.9,1.8,23.9c0.2,3.2,0.5,6.4,0.8,9.6c0.7,6.6,3.3,12.5,7.5,17.7c3.8,4.7,6.5,9.9,7.6,15.8
		c3.2,17.4-2.1,31.7-16.1,42.7c-2.7,2.1-5.6,2.1-8.5,0.5c-1-0.5-1.8-1.3-2.7-2c-8.4-7.2-16.3-14.9-23.8-23c-1.7-1.9-3.6-3.7-5.4-5.4
		c-0.7-0.7-1.4-1.2-2.4-2c-0.5,1.1-1.1,2-1.4,2.9c-1.1,4-3,7.6-6.5,10.2c1.4,4,3.4,7.5,6,11c1.2-0.3,2.4-0.7,3.6-1.1
		c4.1-1.3,8.2-1.7,12.2-0.2c6.4,2.3,10,7,11.1,13.6c0.6,3.4,0.4,6.9-0.5,10.2c-0.3,1.2-0.3,2.1,0.3,3.2c2.5,4.4,2.5,9,0.7,13.6
		c-0.2,0.6-0.4,1.2-0.4,1.3c1.3,1.8,2.7,3.1,3.3,4.8c1.2,3.4-0.3,6.3-2.8,8.6c-2.6,2.3-3.5,5-3.4,8.3c0.1,1.9,0.8,3.3,2.4,4.4
		c2.9,2,4,4.8,3.2,7.9c-0.8,3.2-3.4,5.5-6.8,6c-0.9,0.1-1.9,0.2-2.9,0.2c-4.3-0.1-8.4,0.6-12.6,1.5c-2.9,0.7-5.2,2.4-7,4.8
		c-1.6,2.2-1.9,4.6-0.4,6.9c1.2,1.9,2.6,3.7,4.1,5.3c10.8,11.3,17,24.8,19.3,40.2c3.9,25.6-1.9,49-15.1,71c-1.2,2-2.5,3.9-3.7,5.9
		c-3,4.7-4.5,9.8-4.7,15.4c-0.6,20.2-6.8,38.6-18,55.3c-2,3-4.5,5.7-6.9,8.3c-2.2,2.4-5.1,3.8-8.3,4.4c-3.7,0.7-7-0.3-9.7-2.8
		c-1.4-1.3-2.6-2.8-3.7-4.4c-3.7-5.3-8.9-7.8-15.2-8.3c-6.3-0.4-12.4,0.6-18.4,2.6c-6.6,2.2-13.1,4.5-19.7,6.8
		c-6.3,2.2-12.7,3.7-19.4,4.2c-5.4,0.4-10.7-0.1-15.8-2c-3.9-1.5-7.8-1.4-11.7,0.2c-8.3,3.4-15.9,8.1-23.3,13.3
		c-2.8,2-5.7,3.9-8.7,5.6c-5.3,3.1-10.8,3.3-16.2,0.2c-1.8-1-3.6-1.2-5.5-0.1c-14.2,8-29.3,13.8-44.6,19.4
		c-14.2,5.1-28.4,10.3-42.6,15.4c-4.4,1.6-8.8,2.8-13.6,2.7c-3.6-0.1-6.9-1.2-9.8-3.4c-4.9-3.7-4.8-9.6,0.1-13
		c3.5-2.5,7.2-4.8,10.7-7.4c7-5.1,12.3-11.9,16.9-19.1c1.9-3.1,1.7-4.5-0.5-7.4c-1.4-1.8-2.7-3.6-3.9-5.4c-2.7-4.1-3.5-8.5-2.2-13.3
		c1.2-4.4,0.5-8.5-1.8-12.4c-3.5-6-5.2-12.5-4.3-19.5c1.1-8.5,5-15.3,11.9-20.3c3.6-2.6,7.7-3.7,12.2-3.7c5.3,0,10.6,0.1,15.8,0.1
		C326,659.5,326.9,659.4,328.2,659.4z M621.3,423.8c5.3-6.8,7.8-14.4,5.9-23.1c-1-4.3-3.1-8-5.7-11.5c-3.7-5.1-6.3-10.7-8-16.8
		c-2.1-7.4-2.7-15.1-3.2-22.8c-0.8-11.6-1.5-23.1-2.2-34.7c-0.1-1.9,0-3.9,0.3-5.7c0.8-4.3,3.3-7.4,7.4-9c7.1-2.8,15.1-0.2,19.2,6.1
		c1.5,2.3,2.5,4.8,3,7.5c0.7,4,1.4,8,2,12.1c1.1,7.2,2.4,14.4,4.8,21.2c3.2,8.9,8.1,16.5,15.7,22.2c5.3,4,11.2,6,17.9,5.5
		c1.4-0.1,2.9-0.1,4.3,0c3.5,0.4,6,3,6.2,6.5c0.1,1.1,0,2.2,0,3.4c-0.4,15.1-0.9,30.2-1.3,45.3c0,1.1-0.1,2.2,0,3.4
		c0.1,1.6,0.9,2.7,2.3,3.3c2.8,1.2,5.8,1.9,8.9,1.8c9.1-0.5,15.6-6,17.5-15c0.9-4.5,1.4-9,1.9-13.5c0.8-7.4,2.1-14.5,6.3-20.9
		c1.7-2.6,2.2-5.6,1.4-8.7c-1.8-7.8-4.4-15.3-8.5-22.3c-3.3-5.7-7.8-10.3-13.6-13.5c-3.8-2.1-7.6-4.1-11.4-6.1
		c-5.7-2.9-11.4-5.8-16.5-9.7c-6.9-5.3-11.7-12-14.1-20.3c-0.9-3.2-1.7-6.5-2.1-9.8c-0.8-6.7-1.5-13.3-2.1-20
		c-1-12.9-2-25.8-2.8-38.8c-0.4-5.9-0.6-11.8-0.9-17.7c0-0.7-0.2-1.3-0.3-2.1c-2.1,0.3-3.9,0.5-5.7,0.7c-2.8,0.4-5.7,1-8.5,1.1
		c-4.6,0.2-7.3-2.4-7.8-7c-0.1-0.6-0.1-1.1-0.1-1.7c0-30.9,0-61.8,0-92.6c0-2.8,0.1-5.6,0-8.4c0-1.2-0.1-2.4-1.4-3.3
		c-0.2,0.9-0.4,1.8-0.6,2.6c-0.7,2.1-1.3,4.3-2,6.4c-0.7,2.2-2.4,3.1-4.6,3.2c-3.3,0.1-5.9-1.3-7.6-4.1c-0.9-1.5-1.7-3-2.6-4.7
		c-3.9,1.6-7.7,2.9-11.5,0.2c-0.7,1.2-1.2,2.3-1.9,3.3c-2.4,3.4-4.7,6.9-7.3,10.1c-2.4,3-6.6,1.2-7.6-1.5c-0.2-0.6-0.4-1.2-0.5-1.9
		c0-1.7-0.1-3.4,0.1-5c0.9-5.6,2-11.2,3.1-16.7c0.5-2.6,0.9-5.3,1.4-7.9c-0.2-0.1-0.3-0.1-0.5-0.2c-0.5,1-1,1.9-1.5,2.9
		c-2.8,6-5.6,12-8.3,18.1c-0.8,1.7-1.8,3.2-3.5,4.2c-2.8,1.7-4.9,0.6-5.2-2.6c-0.1-0.9-0.1-1.8-0.2-3.3c-0.9,1-1.4,1.6-1.9,2.1
		c-1.3,1.2-2.5,2.5-4,3.4c-3.7,2.2-6.2,1.5-8.3-2.2c0-0.1-0.1-0.1-0.3-0.2c-3.4,1.9-6.7,2-9.5-1.8c-1.3,2.1-2.5,3.9-3.7,5.8
		c-1.1,1.7-2.4,3.2-4.2,4.2c-3.8,2.1-7.3,0.9-8.7-3.1c-0.6-1.8-0.8-3.7-1-5.6c-0.2-1.6-0.2-3.3-0.4-5.4c-1.2,1-1.9,1.6-2.8,2.3
		c0.7,1.6,1.4,3,1.9,4.5c1.2,3.2,2,6.4,1.3,9.9c-0.7,4.2-3.6,6.5-8.1,6.6c-4,0.1-6.6-2.1-7.5-6.3c-0.1-0.7-0.2-1.4-0.3-2.1
		c-0.1-0.5-0.1-1.1-0.2-1.7c-1.3-0.2-2.4-0.4-3.6-0.6c-2.2-0.4-4.4-1-6.1-2.5c-1.1-0.9-2-1-3.3-0.6c-3.5,1-7,0.7-10.4-0.4
		c-4.3-1.5-7.2-4.4-8.5-8.7c-0.2-0.7-0.5-1.5-0.8-2.5c-1.4,1.3-2.5,2.5-3.8,3.5c-2.9,2.3-5.7,4.6-8.8,6.6c-3,1.9-6.1,1.6-8.9-0.5
		c-0.5-0.4-1-0.7-1.6-1.1c-0.3,0.7-0.5,1.2-0.8,1.7c-1.3,2-2.4,4.2-4,5.9c-2.9,3.2-7,3-9.8-0.2c-0.7-0.8-1.3-1.8-1.9-2.8
		c-0.6-1-1.2-2-1.8-3.1c-1.1,0.2-2.1,0.4-3.1,0.6c-1.1,0.2-2.2,0.5-3.3,0.6c-3.5,0.5-5.7-1.2-6.1-4.7c-0.1-0.7-0.2-1.5-0.3-2.4
		c-1,0.4-1.6,0.8-2.3,0.9c-2.5,0.4-3.8,2-5,4c-0.8,1.4-1.9,2.6-3.1,3.6c-2.2,1.9-4.4,2-6.9,0.5c-0.7-0.4-1.3-0.8-1.9-1.2
		c-1.9,3.9-3.7,7.7-5.5,11.4c-0.9,1.9-2.3,3.4-4.1,4.6c-2.2,1.5-4.1,1.2-5.4-1.2c-0.7-1.2-1.2-2.6-1.5-4c-1.1-4.3-0.8-8.6-0.4-12.9
		c0.1-0.5,0-1,0-1.4c-0.2,0-0.4-0.1-0.5-0.1c-1.4,2.5-3.4,4.8-4.2,7.4c-1.5,5-4.7,8.7-8.2,12.2c-0.7,0.7-1.6,1.1-2.4,1.5
		c-3.3,1.6-6.4,0.8-8.3-2.3c-1-1.7-1.9-3.6-2.4-5.5c-0.7-2.6-1-5.3-1.5-8c-0.4-2.7-0.7-5.3-1-7.6c-2.5-0.7-4.6-1.3-6.9-1.9
		c-0.2,0.7-0.5,1.5-0.8,2.3c-1.1,3.8-2.1,7.7-3.4,11.5c-0.8,2.5-1.9,4.9-3.2,7.2c-1.1,2.1-3.7,1.9-4.8-0.1c-0.4-0.7-0.6-1.5-0.6-2.3
		c0-2.2,0-4.5,0.2-6.7c0.8-7.6,2.8-14.9,5-22.2c0.9-3,2-6.1,3.6-8.8c2.8-4.7,3.5-9.7,3.1-15c0-0.4-0.2-0.8-0.5-1.6
		c-1.1,2.1-1.9,3.7-2.8,5.3c-3.7,7.3-7.3,14.6-11.2,21.7c-1.6,2.9-2.1,5.8-1.2,9c0.9,3.2,1.3,6.4,1.3,9.7
		c0.1,11.9,0.2,23.8,0.3,35.8c0.2,25.5,0.3,51,0.4,76.5c0,1.9,0.5,3.3,1.8,4.8c2.8,3,3.4,7.4,1.3,10.9c-1.5,2.5-1.9,5-1.9,7.8
		c0,73.3,0,146.6,0,219.8c0,6.2,0,12.5,0,18.7c0,4.7,1.1,9,3.5,13c1.4,2.3,2.9,4.6,4.2,7c0.6,1.2,1.2,2.5,1.4,3.8
		c0.4,3.4-1.2,5.9-4.1,7.5c-1.3,0.7-1.7,1.5-1.6,2.9c0.1,0.6,0,1.1,0,1.7c0,44.7,0,89.4,0,134.2c0,1,0,1.9-0.1,2.9
		c-0.3,3-2.1,5.2-5,6c-1,0.3-2,0.3-3.1,0.3c-8.4,0-16.8,0-25.2-0.1c-2.2,0-3.9,0.7-5.4,2.2c-4.6,4.4-5.9,11.1-3.1,17
		c1,2.1,2.2,4.1,3.3,6.1c2.7,5.2,3.5,10.6,1.5,16.2c-0.8,2.3-0.4,4.4,1,6.4c0.8,1.2,1.7,2.3,2.5,3.5c0.7,1.1,1.4,2.1,2.1,3.2
		c3.1,5.2,3.4,10.5,1,16.1c-1.7,4.1-4.3,7.7-7,11.2c-1.6,2.1-3.2,4.2-5.1,6.7c1.1-0.3,1.6-0.4,2.1-0.6c2.3-0.8,4.5-1.6,6.8-2.4
		c14.1-5.3,28.2-10.3,42.2-15.9c7.9-3.1,15.4-7.1,23.1-10.7c5.7-2.6,11.4-3,17.1,0c1.7,0.9,3.2,0.7,4.7-0.3c1.7-1.2,3.5-2.3,5.1-3.5
		c8.7-6.5,18-11.9,28.1-15.8c6.4-2.5,12.8-3,19.4-0.5c5,1.9,10.3,2.4,15.6,1.2c4.1-0.9,8.2-1.9,12.3-3.2c7.6-2.4,15.1-5.2,22.7-7.6
		c8.7-2.7,17.6-3.2,26.5-1.3c7.7,1.7,14.2,5.2,19,11.6c0.3,0.4,0.5,0.8,0.8,1.3c0.6-0.6,1-0.9,1.3-1.2c1.8-2.4,3.7-4.6,5.3-7.1
		c8.9-14,13.2-29.4,13.5-45.9c0.1-7.2,2.1-13.9,6.2-19.8c1.2-1.8,2.4-3.6,3.6-5.4c11.2-18,16.6-37.4,14.3-58.7
		c-1.4-12.7-6-24.1-14.5-33.8c-2.4-2.7-4.8-5.4-6.8-8.4c-5.2-7.7-5.3-15.6-0.4-23.4c3.9-6.4,9.8-10.2,17-12.1
		c1.5-0.4,3.1-0.8,4.7-1.2c-0.7-6.2,0.5-11.9,3.1-17.2c-0.6-0.7-1-1.1-1.4-1.6c-2.3-2.9-2.5-5.5-0.6-8.7c0.5-0.8,1.1-1.6,1.6-2.4
		c0.4-0.7,0.8-1.5,1.2-2.2c-1-0.8-1.8-1.5-2.5-2.2c-2.2-2.2-2.7-4.8-1.7-7.7c0.4-1,1.1-2,1.5-3c0.7-1.7,1.5-3.4,1.9-5.1
		c0.4-1.4-0.4-2.5-1.6-2.8c-1.5-0.4-2.5,0-3.1,1.6c-1,2.4-2.8,3.8-5.3,4.3c-3.1,0.6-5.6-0.5-7.8-2.6c-8.5-7.9-14.1-17.5-16.8-28.8
		c-0.3-1.2-0.5-2.4-0.5-3.5c-0.1-4.4,2.3-7.3,6.5-8.2c0.7-0.1,1.4-0.3,1.7-0.4c1.6-3.1,2.8-6.1,4.5-8.8c2.6-4.3,6.6-6.4,11.7-6.1
		c3.5,0.2,6.6,1.3,9.4,3.3c3.7,2.6,6.8,5.8,10,9C608.4,411.2,614.8,417.4,621.3,423.8z M364.1,104.9c0.4-0.1,0.6-0.1,0.8-0.2
		c7.3-5,11.7-11.7,11.4-20.8c-0.1-1.5-0.7-3.1-1.4-4.5c-1-1.9-2.8-2.8-5-2.8c-4.2,0-11.3,5.3-12.1,9.4c-0.9,4.6-1.3,9.3-1.9,14
		c0,0.1,0.2,0.2,0.4,0.6C360.2,99.4,362.5,101.6,364.1,104.9z M365.2,111.1c0,4.2,0.4,8.3,1.5,12.2c0.6,2.3,1.4,4.6,2.4,6.7
		c1.1,2.4,2.4,2.7,4.6,1.3c2.6-1.6,4.3-4.1,5.4-6.9c0.2-0.6,0.2-1.7-0.2-2.2c-1-1.7-1.2-3.5-1-5.3c0.6-5.2,1.2-10.3,1.8-15.5
		c0.1-0.6,0-1.1,0-2.1C375.7,104.8,371,108.7,365.2,111.1z M617.2,102.7c0.6-0.8,1.1-1.3,1.4-1.8c2.3-3.8,4.2-7.9,5.2-12.3
		c0.5-2.2,0.7-4.6,0.9-6.9c0.1-1.3-0.3-2.5-1.3-3.4c-1.7,0.5-2.3,2-2.9,3.4c-2.4,6.3-3.3,12.8-3.4,19.5
		C617,101.5,617.1,101.8,617.2,102.7z M441.7,106.3c0.2,0.1,0.3,0.1,0.5,0.2c0.3-0.3,0.6-0.7,0.8-1c2.3-3.7,4.2-7.5,5.2-11.8
		c0.6-2.6,0.9-5.3,1.2-8c0.1-1.1-0.1-2.7-1.4-3c-1.5-0.4-1.8,1.2-2.4,2.2c-0.3,0.6-0.6,1.3-0.9,2C442.4,93.1,441.7,99.7,441.7,106.3
		z M536.9,97.8c3.8-4.1,6.6-8.2,8.2-13c0.5-1.6,0.7-3.3,0.8-4.9c0.1-0.5-0.3-1.1-0.5-1.8C541.7,80.8,536.9,91.8,536.9,97.8z
		 M502.2,100.9c0.2,0,0.4-0.1,0.6-0.1c0.1-0.4,0.2-0.7,0.3-1.1c0.3-2.9,0.7-5.7,1-8.6c0.3-2.5,0.6-5.1,0.8-7.6
		c0.1-0.9-0.1-2-1.1-2.1c-0.7-0.1-1.7,0.2-2.4,0.6c-0.5,0.3-0.9,1.1-1,1.8c-0.2,1.6-0.5,3.2-0.3,4.7c0.4,3.2,1,6.5,1.5,9.7
		C501.8,99.1,502,100,502.2,100.9z M519.6,116.4c-3.1,2.4-4.4,6.5-3.2,9.8c0.4,1,0.9,1.9,2.1,2c1.1,0.1,2.1-0.5,2.5-1.5
		c0.4-1.1,0.8-2.3,0.9-3.4C521.9,120.7,520.9,118.5,519.6,116.4z M558,101.1c-2.5-0.5-4.1,0.6-5.2,2.3c-1.9,2.7-2.1,5.7-0.8,9.2
		c0.9-0.7,1.7-1.1,2.1-1.7C555.9,107.9,557,104.6,558,101.1z M352,98.1c-0.2-0.1-0.3-0.1-0.5-0.2c-4.1,8-6.2,16.4-6.2,25.4
		c0.2,0,0.4,0.1,0.6,0.1C347.9,115,350,106.5,352,98.1z M610.6,101.7c-3,1-5,3.7-4.8,6.1c0.1,1.4,0.7,1.9,2.1,1.4
		c1.3-0.4,2.5-1,3.7-1.5C611.3,105.6,611,103.8,610.6,101.7z M435.3,105.4c-1.1,0.6-1.7,0.9-2.3,1.4c-1.5,1.2-2.4,2.7-2.7,4.6
		c-0.2,1.8,0.8,2.5,2.4,1.9c1.1-0.4,2.1-0.9,3.3-1.5C435.9,109.8,435.6,107.9,435.3,105.4z M386.4,97.7c2.6-3.4,6.2-12.6,6.1-15.7
		C388.4,86.6,386.8,91.7,386.4,97.7z M414.7,107.3c0.4-2.6,0-4.5-0.9-6.3c-0.8-1.5-2.2-1.5-3.2-0.1c-0.8,1.2-0.7,2.5,0.5,3.7
		C412.1,105.5,413.3,106.3,414.7,107.3z M408,111.7c0,1.3-0.2,2.3,0,3.3c0.4,1.9,2.1,2.5,3.6,1.1c0.7-0.6,1.1-1.5,1.8-2.5
		C411.6,113,410,112.4,408,111.7z M462.9,103.9c3.4,0.8,4.3,0.3,4.4-2.4C465.2,101.1,464,102.1,462.9,103.9z M359,106.7
		c-0.5-0.7-0.7-1-1-1.4C357.4,106.3,357.4,106.3,359,106.7z"/>
	<path d="M739.9,467.4c-0.4,7.7-2.1,15.1-4.2,22.4c-1.8,6.2-3.4,12.5-4.2,18.9c-1,7.7-0.9,15.5-0.1,23.2c1.5,14.1,3.5,28.3,4.4,42.5
		c1,14.7-1.1,29-7.9,42.4c-3.4,6.7-11.1,5.4-13.7,0.8c-0.4-0.6-0.8-1.2-1.2-1.8c-0.9-1.2-2.2-1.8-3.7-1.8c-3.6,0.1-6.8,1.3-9,4.2
		c-2.1,2.7-4,5.6-5.8,8.5c-2.9,4.5-5.6,9.1-8.6,13.6c-4.3,6.5-9.5,12-16.1,16.2c-5.9,3.8-12.3,5.4-19.2,4c-7-1.4-12.7-7.3-14-14.2
		c-0.5-2.5,0-4.9,0.9-7.3c1.2-3.1,3-5.8,5.4-8.1c2.1-2.1,4.3-4,6.6-5.9c7.3-6.1,13.1-13.3,16.8-22.1c2.5-5.9,3.6-12.1,4.1-18.4
		c0.3-4.3,0.4-8.6,0.5-12.9c0.1-12.4,3.4-24,9-35c3.5-6.9,7.1-13.8,10.5-20.8c3.2-6.5,5.6-13.3,6.3-20.5c0.5-4.9,0.7-9.7,1.2-14.6
		c0.3-2.9,0.7-5.7,1.4-8.5c1.2-4.7,3.6-8.7,7.2-11.9c7-6.3,15-9.9,24.7-9c4.8,0.4,7,2.2,7.9,6.9
		C739.3,461.2,739.5,464.3,739.9,467.4z M724.3,466.9c-1.2,0.4-2.1,0.7-2.9,1.1c-4.4,2.1-7.1,5.7-8.4,10.3c-0.7,2.6-0.8,5.3-1.1,8
		c-0.6,5.3-0.8,10.7-1.7,16c-1.5,9-5.1,17.3-9.2,25.4c-3.2,6.2-6.3,12.4-9.4,18.6c-4.3,8.9-6.1,18.4-6,28.4
		c0.1,4.8-0.1,9.6-0.5,14.4c-1,10.8-4.6,20.9-10.5,30c-5,7.8-11.7,14.2-18.8,20c-1.1,0.9-2.1,1.7-3.1,2.7c-1.7,1.7-1.3,3.2,0.9,4
		c0.8,0.3,1.8,0.4,2.5,0.2c1.6-0.4,3.2-1,4.7-1.8c3.3-1.8,6.1-4.3,8.5-7.3c5-6.5,9.4-13.3,13.5-20.4c2.6-4.5,5.7-8.5,9.8-11.7
		c7.1-5.5,15-7.2,23.7-4.5c0.5,0.2,1.1,0.2,1.7,0.4c0.2-0.6,0.5-1.1,0.6-1.6c0.7-3.3,1.5-6.5,2-9.9c1.2-9.3,0.5-18.7-0.7-28
		c-1.2-10.1-2.8-20.1-3.8-30.2c-1.2-12-0.6-24,2.4-35.7c1.7-6.5,3.5-13,5.2-19.4C724.5,473,724.9,470.2,724.3,466.9z"/>
	<path d="M803.7,593.3c-0.3,0.8-0.7,1.5-1,2.2c-4,10.6-10.6,19.5-18.8,27.2c-4.7,4.4-9.6,8.5-14.4,12.7c-1.7,1.5-3.7,2.5-6.1,2.6
		c-3.1,0.1-5.4-1.3-6.7-4.1c-1.1-2.5-1.4-5.1-0.9-7.8c0.5-2.4,1-4.9,1.9-7.2c3.4-8.2,3.5-16.6,1.5-25.2c-2.7-11.5-5.6-23-8.2-34.5
		c-4.8-21.1-7.4-42.4-6.8-64c0.2-8.7,0.9-17.4,1.5-26.1c0.5-6.5,1-13.1,1.7-19.6c0.5-4.6,1.4-9.2,2.3-13.7c0.9-4.6,3.4-8.4,6.5-11.9
		c2.5-2.8,5.6-3.2,9-2.3c3.8,1,7.6,1.9,11.4,2.8c7.7,1.9,15.3,3.9,23,5.6c4.6,1,7,3.7,7.7,8.3c1.1,6.4,0.5,12.6-1.2,18.8
		c-1.6,6.1-3.3,12.2-4.8,18.3c-1.2,4.6-1.2,9.2,0.6,13.7c0.5,1.4,1.2,2.2,2.8,2.5c3.2,0.6,5.1,2.6,5.7,6c2,12.9,4.2,25.7,6.1,38.6
		c1.3,8.6,2.2,17.3,3.1,25.9c0.5,4.5,0.8,9.1,1.1,13.6c0.1,1.8,0.6,3.4,1.6,4.9c3.2,4.8,0.6,10.9-5.1,12.1c-1.6,0.3-3.3,0.4-5,0.4
		C809.6,593.3,806.7,593.3,803.7,593.3z M765.6,437.4c-1.4,2-2.1,4.1-2.3,6.4c-0.6,5.5-1.2,11-1.7,16.5c-0.8,9.6-1.8,19.1-2,28.7
		c-0.3,9.9,0,19.8,0.5,29.7c0.4,7.3,1.2,14.7,2.6,21.9c2.5,12.5,5.5,24.8,8.5,37.2c2.4,10,4.8,19.9,4.5,30.3c0,0.3,0.2,0.7,0.4,1.2
		c4.8-5.1,8.8-10.3,11.3-16.6c0.9-2.2,1.8-4.3,2.7-6.4c2-4.6,5.5-7.1,10.4-7.8c1.7-0.2,3.4-0.6,5.1-0.9c0-1.1,0.1-2,0-2.9
		c-0.5-6.2-0.9-12.5-1.6-18.6c-1.6-12.8-3.4-25.5-5.2-38.3c-0.5-3.5-0.7-7.1-3.7-9.6c-0.1,0-0.1-0.1-0.1-0.2
		c-1.7-3.2-3.5-6.3-5.1-9.5c-2.7-5.5-4-11.4-4-17.6c-0.1-5.9,1.5-11.5,3.1-17.1c1.4-4.7,2.7-9.4,3.8-14.1c0.4-1.7,0.2-3.4,0.3-5.3
		C783.8,441.9,774.7,439.7,765.6,437.4z"/>
	<path d="M604,623c0.3-7,1.7-13.7,3.6-20.3c2-7.1,4-14.1,6-21.2c1.5-5.5,1.7-11.2,1.6-16.9c-0.1-3.8-0.1-7.7-0.2-11.5
		c-0.1-5.9,1.4-11.4,4.1-16.6c2.5-5,5.8-9.6,9.5-13.8c4.1-4.6,10.7-3.2,12.8,2.6c2.5,6.9,5.1,13.8,7.8,20.6
		c3.2,8.2,4.9,16.6,5.8,25.4c0.8,8,0,15.8-1.1,23.6c-0.5,3.8-2.1,7-5.6,9.1c-1.6,0.9-2.1,2.3-2,4c0.1,4.6-0.5,9.1-2,13.5
		c-2.3,7.1-6.3,13.1-12.1,17.8c-3.9,3.2-8.4,5.2-13.4,6c-4.3,0.7-7.7-0.7-10.2-4.2c-1.6-2.2-2.7-4.8-3.1-7.5
		C604.9,630.2,604.5,626.6,604,623z M619.9,628.9c0.2,0,0.4,0,0.5,0c0.3-0.1,0.6-0.3,0.8-0.5c4.8-3.1,7.8-7.6,9-13.1
		c0.7-3.1,0.8-6.3,1-9.5c0.3-5.1,1.7-9.6,6.1-12.7c1.4-1,1.9-2.5,2.1-4.1c1.9-15-0.4-29.3-6.7-43c-0.2-0.3-0.5-0.6-1-1.3
		c-0.6,2.3-1.3,4.2-1.5,6.2c-0.3,4.3-0.5,8.6-0.4,12.9c0.3,10.3-1.2,20.2-4.2,30c-2.2,7.3-4,14.6-5.7,22
		C619.1,620.1,619,624.6,619.9,628.9z"/>
	<path d="M470.6,876.1c-0.7-4.7-0.2-9,0.9-13.3c1.6-6.3,5-11.7,9.4-16.5c1.7-1.8,3.7-2.4,6.1-1.6c6.3,1.9,12.1,4.6,16.8,9.3
		c5,5,7.2,11,6.7,18c-0.2,2.9-0.7,5.9-1.2,8.8c-0.8,4.7-0.2,9.1,1.8,13.3c2,4,4,8,6.1,12c1.3,2.6,2.5,5.2,2.9,8.1
		c1,7.5-1.8,13.1-8.1,17.1c-3.6,2.3-7.7,3-11.8,3.7c-5.8,0.9-11.7,1.8-17.5,2.6c-6.6,1-12.9,0.4-19-2.3c-2.9-1.3-5.8-2.7-8.6-4.1
		c-0.9-0.5-1.8-1.1-2.6-1.7c-4.2-3.4-5.4-7.2-3.6-12.3c0.7-2.1,1.7-4.1,2.6-6.2c3.5-8,7.1-16.1,10.7-24.1c0.4-0.9,0.8-1.7,1.2-2.6
		C464.8,880.9,466.8,877.9,470.6,876.1z M488.4,861.8c-2,2.6-2.9,5.6-2.9,8.9c0,2.3,0.3,4.6,0.3,6.9c0,4.7-1.8,8.4-5.9,10.8
		c-2.5,1.5-4,3.5-5.1,6.1c-3.2,7.5-6.5,14.9-9.7,22.4c-0.2,0.6-0.5,1.1-0.7,1.8c1.7,0.9,3.4,1.5,4.9,2.4c3.8,2.1,7.7,2.5,11.8,1.4
		c4.9-1.3,9.8-2,14.9-2.4c2.1-0.2,4.1-0.5,6.1-0.9c3.1-0.7,3.8-2.4,2.5-5.3c-0.4-1-1-2-1.5-3c-1.9-3.7-3.9-7.3-5.7-11.1
		c-3.5-7-4.2-14.3-2.6-21.9c0.4-2,0.7-4.1,0.8-6.2C495.7,866.7,493.4,863.6,488.4,861.8z"/>
	<path d="M690.1,479.4c-0.4,2.4-0.7,5.2-1.5,7.9c-3.2,10-8.3,18.9-15.7,26.3c-2,2-4.4,3.7-6.9,5.1c-8.8,5.1-19.6,0.7-24.1-4.9
		c-6.7-8.1-6.8-18.7-0.2-26.9c2.3-2.8,2.4-3.9,0.5-7.1c-2.3-3.9-3.2-8.3-4-12.7c-2.1-11.9-1.9-23.9,0.1-35.8c1.1-6.4,7.5-8.9,12.7-5
		c3.6,2.7,6.8,5.8,9.3,9.6c2.4,3.7,5,7.3,7.2,11.1c3.1,5.5,7.2,9.9,12.6,13.1c4.8,2.8,7.8,7.1,8.9,12.5
		C689.6,474.7,689.8,476.8,690.1,479.4z M652.3,450.6c-0.2,0.1-0.4,0.1-0.6,0.2c0.7,8,1,16,4.5,23.6c3.3,7.2,3.5,14.2-1.9,20.7
		c-0.9,1-1.5,2.3-2,3.5c-0.9,2.4-0.1,4.7,2.1,6.3c1.9,1.4,3.8,1.4,6-0.1c0.8-0.6,1.5-1.2,2.2-1.9c4.5-4.5,7.7-10,10.1-15.9
		c1-2.3,1.7-4.8,2.2-7.3c0.6-2.8-0.4-5.2-2.6-7c-1.1-0.9-2.3-1.7-3.6-2.4c-3.3-2-6.2-4.5-8.4-7.7c-2.3-3.3-4.4-6.7-6.6-10
		C653.2,451.9,652.7,451.2,652.3,450.6z"/>
</g>
</svg>
