<?xml version="1.0" encoding="utf-8"?>
<!-- Generator: Adobe Illustrator 23.0.4, SVG Export Plug-In . SVG Version: 6.00 Build 0)  -->
<svg version="1.1" id="Layer_1" xmlns="http://www.w3.org/2000/svg" xmlns:xlink="http://www.w3.org/1999/xlink" x="0px" y="0px"
	 viewBox="0 0 1008 1008" style="enable-background:new 0 0 1008 1008;" xml:space="preserve">
<g>
	<path d="M414.8,687.9c-1.5-1.1-2.7-1.9-3.9-2.8c-1.5-1.3-3.1-2.5-4.5-4c-1-1.1-2.1-1.4-3.6-1.4c-2.7,0-5.4-0.2-8.1-0.6
		c-1.4-0.2-2.9-1-4.1-1.8c-4.4-2.9-5.5-7.9-2.8-12.4c0.4-0.7,1-1.4,1.6-2.3c-0.5-0.1-0.8-0.1-1-0.1c-4.4,0.1-8.8,0.5-13.2,0.3
		c-3.6-0.1-7.3-0.8-10.9-1.4c-1-0.2-2-0.6-2.9-1c-4.3-1.9-5.8-6.1-3.7-10.3c1.5-3,3.9-5,6.8-6.5c4.3-2.2,8.9-3.5,13.7-4.2
		c3.5-0.5,7.1-0.9,10.9-1.4c-1.1-1.2-2.2-2.2-3-3.4c-0.8-1.2-1.3-2.6-1.9-4c-3.2-0.1-6.4-0.2-9.7-0.3c-4-0.1-7.8-0.8-11.4-2.5
		c-2.3-1-4.3-2.4-5.8-4.5c-2.4-3.2-2.1-7.3,1.7-9.5c0.3-0.2,0.5-0.4,1-0.7c-0.7-0.3-1.2-0.5-1.7-0.8c-1-0.6-2.1-1.1-3-1.9
		c-4.1-3.7-4.4-8.5-0.8-12.8c0.9-1,1.9-1.9,3.1-3.1c-1.2-0.1-2.1-0.3-2.9-0.4c-7-0.7-13.9-1.9-20.7-4c-5-1.6-9.3-4.3-12.7-8.3
		c-4.6-5.5-4.9-12-0.8-17.9c3.6-5.2,8.5-8.6,14.2-11.1c7.3-3.2,15-5,22.8-6.2c2.5-0.4,5.1-0.6,7.9-1c-1.4-3.2-3.4-5.8-5.8-8
		c-3.5-3.3-7.6-5.6-12-7.4c-7.9-3.3-16.2-5.5-24.6-7.1c-6.3-1.2-12.6-2-19-2.7c-3.6-0.4-7.2,0-10.8-0.3c-4-0.4-7.9-1.1-11.8-1.9
		c-2.3-0.5-4.3-1.7-6.1-3.2c-3.4-3-3.1-7.2,0.7-9.6c1.9-1.2,4-2,6.1-2.9c8.1-3.5,16.7-5.4,25.3-7.2c0.4-0.1,0.7-0.2,1.1-0.6
		c-1.9-0.3-3.8-0.7-5.6-0.8c-6.9-0.6-13.9-1.1-20.8-1.6c-1.6-0.1-3.2-0.2-4.8-0.5c-2.4-0.4-4-2.1-4.3-4.2c-0.3-2.3,0.8-4.3,3.2-5.4
		c2.6-1.1,5.4-2,8.1-2.9c0.7-0.3,1.5-0.6,2.2-1.3c-1.1-0.2-2.2-0.4-3.3-0.6c-3-0.8-6-1.6-9-2.5c-1-0.3-2-0.9-2.9-1.6
		c-2.5-1.8-2.8-4.2-1-6.7c0.8-1.1,1.8-2,2.9-3.2c-0.7,0-1.2-0.1-1.7-0.1c-5,0.3-9.9,0.3-14.8-0.9c-1.7-0.4-3.4-1-4.9-1.9
		c-4-2.3-5.1-6.7-3.1-10.8c1.6-3.2,4.2-5.2,7.4-6.5c1.1-0.4,2.2-0.9,3.2-1.5c-2.7-0.7-5.1-1.7-7-3.9c-2.6-3-3-6-1.1-9.5
		c1.7-3.1,4.6-5.1,7.6-6.7c1.4-0.8,3-1.4,4.7-2.2c-1.6-1.3-3.4-2.3-4.5-3.8c-2-2.5-4.4-3.2-7.5-2.9c-2.5,0.2-5.1-0.2-7.5-1.2
		c-7.2-2.8-8.8-10.4-3.4-15.9c1.4-1.4,3.2-2.5,4.9-3.7c-3.2-1.5-6.5-2.9-9.7-4.5c-2.2-1-4.3-2.1-6.4-3.2c-1.2-0.7-2.1-0.7-3.3,0
		c-13.2,7.8-33.2,4-43.6-4.7c-3.3-2.7-5.7-6-7.4-9.9c-2.4-5.5,0-9.9,5.9-11c4-0.7,7.8,0,11.6,0.9c7.3,1.6,13.9,4.7,20.5,8
		c3.1,1.6,6,3.3,9.1,4.9c2.3,1.3,3.3,1.2,5-0.8c1.7-2.1,3.4-4.3,4.9-6.5c3.6-5.4,7.3-10.7,12.3-14.9c2.2-1.9,4.8-3.5,7.3-5.3
		c-0.7-0.3-1.3-0.7-1.9-0.9c-13.4-4.7-27-5.9-40.8-2.5c-2.5,0.6-4.8,1.7-7.2,2.6c-0.6,0.3-1.2,0.7-1.8,1.2
		c-4.3,3.6-11.3,4.4-16.3,1.8c-2.2-1.1-3.7-2.8-4.2-5.2c-0.7-3.6-1.3-7.2-1.9-10.8c-0.1-0.5-0.1-0.9-0.2-1.6c-1.1,0.5-2,0.9-2.9,1.3
		c-8.6,3.7-17.4,4.8-26.5,2.1c-6.5-1.9-12.1-5.5-16.9-10.2c-4.2-4.1-8.1-8.6-12.1-12.9c-6.6-7.1-14.2-12.9-23.4-16.3
		c-2.1-0.8-4.2-1.7-6.1-2.7c-6.3-3.3-9.4-8.6-9.9-15.6c-0.4-5.2,1-10,3.8-14.3c1.8-2.7,3.7-5.4,5.8-7.9
		c8.7-10.5,17.9-20.4,27.8-29.8c3.9-3.8,7.8-7.6,11.6-11.5c1.9-1.9,3.9-3.6,6.3-4.7c2.9-1.4,5-3.7,7.3-5.8
		c8.4-7.5,18.1-12.1,29.4-13.4c5.2-0.6,10.4-0.9,15.5-1.7c8.7-1.4,17.1-4.1,25.3-7.3c12.2-4.7,24.3-9.5,36.4-14.2
		c2.6-1,5.3-1.9,8-2.6c5.6-1.5,11.2-1.3,16.8,0.6c0.7,0.3,1.5,0.5,1.8,0.6c1.2-0.9,2-1.9,3-2.4c1.3-0.6,2.8-1.3,4.3-1.3
		c11.7,0.2,23.5,0.4,35.2,0.8c9.8,0.4,19.6,1,29.5,1.6c8.1,0.5,16.1,1.1,24.2,1.7c9.1,0.7,18.2,1.4,27.3,2.1
		c9.8,0.7,19.6,1.5,29.4,2.2c9.4,0.6,18.8,1.3,28.2,1.7c14.8,0.6,29.6,0.9,44.3,1.3c3,0.1,5,1.3,6.8,3.7c2.7,3.7,3.9,7.8,3.7,12.4
		c0,0.3,0,0.6,0.1,1.2c0.9-0.5,1.7-1,2.4-1.4c1.6-0.9,3.1-2,4.8-2.8c3.9-1.9,7.7-1.5,11,1.3c1.5,1.2,2.8,2.7,4,4.1
		c6.1,7.3,12.1,14.7,18.2,22c2.7,3.2,5.2,6.6,5.9,10.8c0.4,2.3,0.6,4.8,0.5,7.1c-0.1,4.8-0.5,9.6-0.7,14.4c0,0.4,0.1,0.8,0.1,1.5
		c0.8,0,1.6,0,2.4,0c62.2,0,124.5,0,186.7,0c0.6,0,1.1,0,1.7-0.1c2.5-0.3,4.5,0.6,6.2,2.3c5.5,5.7,11,11.4,16.4,17.2
		c12.7,13.4,25.4,26.9,38,40.4c18.4,19.7,36.7,39.5,55.1,59.2c19.2,20.6,38.5,41.3,57.8,61.8c8.6,9.2,17.3,18.2,25.9,27.3
		c0.5,0.6,1.2,1.1,1.8,1.6c1.8,1.5,2.9,3.4,3.1,5.8c0.4,3.9-1.5,6.4-5.3,7.3c-4.5,1-9,2-13.5,3.2c-11.1,3.1-20.5,8.9-27.9,17.8
		c-7.5,9-15,18.1-22.3,27.3c-5.5,6.9-10.7,14-15.8,21.1c-6.3,8.7-11.1,18.1-13.6,28.7c-0.5,2.2-1.2,4.3-2,6.4
		c-1.7,4.7-4.2,9-8.3,12.1c-1.3,1-2.6,1.8-4.1,2.8c0.2,1.4,0.4,2.9,0.6,4.3c0.9,6.1-1.5,11-5.9,15c-1.9,1.8-4.1,3.3-6.3,4.8
		c-9.8,6.6-19.2,13.6-27.7,21.8c-2.9,2.8-5.7,5.6-8.3,8.6c-2.1,2.5-4.6,3.5-7.8,3.1c-4.4-0.6-8.8-0.5-13.1,0.6
		c-1.4,0.3-2.7,0.9-4,1.5c-2.3,1-3.5,2.9-3.8,5.4c-0.2,1.4-0.4,2.8-0.6,4.3c-0.7,5.1-3.1,9.3-6.8,12.6c-9.7,8.7-20,16.5-32.3,21.2
		c-1.5,0.6-3,1.1-4.5,1.6c-2.6,0.8-4.2,2.5-5,5c-0.3,1.1-0.7,2.1-1.1,3.2c-2.2,7.1-6.6,12.7-12.3,17.4c-5.3,4.4-11.3,7.5-17.7,9.9
		c-5.4,2.1-10.8,4-16.2,6c-6.3,2.4-12.1,5.7-17.6,9.7c-3.8,2.9-7.8,5.6-11.8,8.2c-5.2,3.4-10.8,5.9-17.4,6.5c0,1.4,0,2.7,0,4.1
		c0,5.6-1,11-3.5,16c-3.7,7.4-9.4,12.4-17.6,14.4c-4,1-8,0.6-11.9-0.5c-2.9-0.8-5.7-2-8.6-2.8c-1.9-0.6-3.8-1.1-5.8-1.3
		c-2.2-0.2-3.3,1.1-2.9,3.3c0.4,1.9,1.1,3.7,1.9,5.4c1,2,2.2,3.9,3.5,5.7c2.4,3.3,1.3,9.3-3.4,11c-3.7,1.3-5.9,3.9-7.8,7
		c-1,1.7-2.1,3.4-3.1,5.1c-3.8,6.6-9.3,11.4-16.1,14.7c-4.3,2.1-8.8,3.8-13.3,5.6c-2,0.8-4,1.5-6.1,2.3c-2.3,0.9-4.6,1-6.9-0.3
		c-1.5-0.8-3.3-1.3-4.9-2c-8.3-3.9-14.8-10-20-17.5c-2.2-3.1-4.1-6.5-5.9-9.9c-1-2-2.4-2.8-4.5-3c-2.7-0.2-5.4-0.2-8.1-0.5
		c-3.6-0.3-7.1-1.2-10.2-3.2c-1.5-0.9-2.9-2.1-4-3.4c-2.9-3.4-2.2-7.1,1.4-9.6c0.3-0.2,0.5-0.4,1-0.8c-0.7-0.3-1.3-0.5-1.8-0.8
		c-1.2-0.7-2.4-1.3-3.4-2.2c-3.5-3.4-3.8-7.5-1.1-11.5c0.4-0.6,0.8-1.1,1.5-2.1c-1.1,0-2,0-2.8,0c-6.7,0.1-13.4,0.2-20.1-1
		c-2.3-0.4-4.6-0.8-6.8-1.6c-5.8-2-6.9-8-2.3-12.1c1.7-1.5,3.8-2.7,5.9-3.6c3.1-1.3,6.3-2.3,9.5-3.3c10-3.1,20-6.1,30-9.2
		c1.5-0.5,2.9-1.1,4.4-1.9c-1.8-0.8-3.7-0.9-5.5-0.9c-4.2,0.1-8.3,0.4-12.5,0.6c-8.1,0.4-16.1,0.9-24.2,1.3c-2,0.1-4-0.4-5.8-1.2
		c-0.9-0.4-1.7-0.9-2.4-1.6c-2-1.9-2.1-4.2,0-6c1.2-1,2.7-1.7,4.1-2.5c1.3-0.7,2.7-1.3,3.9-2.4c-1.4-0.2-2.7-0.5-4.1-0.7
		c-3.3-0.6-6.6-1.4-9.5-3.2c-1.8-1.1-3.6-2.5-5-4c-2.8-3.1-2.7-6.5-0.2-9.8c0.5-0.7,1.1-1.3,1.8-2.1c-2.7-0.2-5-0.3-7.4-0.6
		c-4-0.4-7.9-1.2-11.3-3.7c-4-2.9-4.9-7.8-2.1-11.9c1.1-1.5,2.4-3.1,4-4.1c3.2-2.1,6.5-4,9.9-5.9
		C411.4,689.2,412.9,688.7,414.8,687.9z M495.9,185.7c-1.1,0-1.8,0-2.5,0c-9.7-0.3-19.5-0.4-29.2-0.8c-8.5-0.3-16.9-0.8-25.4-1.4
		c-10.4-0.7-20.7-1.4-31.1-2.2c-9-0.7-18-1.4-27-2.1c-10-0.8-20.1-1.5-30.1-2.2c-9.4-0.6-18.8-1.2-28.2-1.6
		c-11.2-0.5-22.4-0.7-33.6-1c-1.2,0-2.1,0.3-3,1.1c-2.5,2.1-5.4,3-8.6,3.1c-2.7,0.1-5.2-0.6-7.7-1.5c-3.8-1.5-7.5-1.3-11.2,0.1
		c-2.9,1-5.7,2-8.6,3.1c-10.1,4-20.2,8-30.3,11.9c-13.8,5.4-27.8,9.3-42.7,10c-10.4,0.5-19.4,4.9-26.9,12.2
		c-1.4,1.3-2.7,2.8-4.4,3.7c-3.4,1.8-6.1,4.4-8.5,7.2c-0.8,0.9-1.7,1.7-2.5,2.5c-9.7,8.8-18.8,18-27.5,27.8
		c-3.2,3.6-6.3,7.4-9.3,11.2c-1.1,1.4-1.9,3.2-2.5,4.9c-1.1,2.9-0.2,4.9,2.6,6.3c1.3,0.6,2.6,1.2,4,1.6c5.7,1.8,10.7,4.9,15.6,8.4
		c7,5,13,11.1,18.4,17.8c2.6,3.2,5.5,6,8.8,8.5c10.5,8,23.9,5.5,31.6-2c1.8-1.7,3.3-3.7,5-5.5c3.1-3.5,7-4.6,11-2.8
		c4.3,1.9,6.3,5.2,5.5,10c-0.5,3-1.6,6-2.6,8.9c-1.5,4.2-2.2,8.3-1.2,12.7c0.3,1.2,0.6,2.3,0.9,3.5c0.5,2.2,1.4,2.8,3.6,1.8
		c8-3.6,16.5-4.5,25-4.8c11.9-0.3,23.6,1.7,35,5.1c2.1,0.6,4.2,0.7,6.3,0.3c6.7-1.3,13.2-0.8,19.6,1.7c3.2,1.3,5.8,3.4,7.5,6.4
		c0.5,0.9,0.8,2,0.8,2.9c-0.1,2.1-1.7,3.5-3.9,3.3c-2.5-0.2-5.1-0.6-7.5-1.3c-5.7-1.7-11.4-3.7-17.1-5.5c-1.4-0.5-2.8-0.7-4.2-0.3
		c-2.8,0.9-5.5,2.1-7.7,4.2c-3,2.7-5.3,6-7.3,9.4c-3.3,5.7-6.6,11.5-11,16.6c-0.1,0.1-0.1,0.3-0.2,0.7c6.1,4.2,12.5,7.9,19.6,10.6
		c0.9-1.1,1.6-2.1,2.4-3c2.8-3.1,6.2-4.6,10.4-4.3c7.7,0.6,13.6,8.9,11.3,16.3c-1.2,3.7-3.6,6.4-6.8,8.4c-2,1.2-4.2,2.3-6.3,3.5
		c-1.4,0.8-1.6,1.3-0.6,2.4c2.2,2.6,4.6,4.9,8.2,5.3c3.2,0.4,5.8,2.8,6.6,5.9c0.4,1.7-0.1,2.8-1.7,3.5c-0.8,0.4-1.7,0.6-2.5,0.9
		c-4.5,1.8-8.9,3.5-13.3,5.3c-1.1,0.4-2.1,1.1-2.6,2.2c1.7,1.3,2.6,1.7,4.9,1.5c3.3-0.3,6.5-0.7,9.8-1.2c3.5-0.5,6.9-1.1,10.4-1.6
		c2.7-0.4,4.6,1,6.1,3.1c1.2,1.7,0.8,3-1.1,3.7c-1.8,0.7-3.6,1.2-5.5,1.7c-6.8,2-13.7,3.9-20.2,6.8c-2.1,0.9-4.1,2.1-6,3.5
		c-2,1.5-1.6,3.3,0.8,4c1.6,0.5,3.3,0.7,5,0.7c6.2-0.1,12.5-0.4,18.7-0.7c2.4-0.1,4.9-0.2,7.1-0.9c8.7-2.7,17.6-4.2,26.5-5.3
		c1.6-0.2,3.3-0.5,5.2-0.9c-1.1-1.5-1.9-2.7-2.8-4c-3.4-5.1-6.9-10.2-10.1-15.5c-2.6-4.4-4.8-9.1-5.6-14.2
		c-1.1-7.3,2.3-12.4,9.4-14.1c0.8-0.2,1.7-0.3,2.6-0.4c8.9-0.8,17.1,4.8,19.3,13.2c0.5,1.9,0.5,3.8-0.3,5.6c-0.6,1.3-1.7,2-2.7,1.9
		c-1.3-0.1-1.9-1.1-2.2-2.2c-0.4-1.5-0.8-2.9-1.2-4.4c-1.7-5.3-8-9.8-13.6-9.7c-3.7,0-5.6,2.2-5.3,5.8c0.3,3.8,1.8,7.3,3.6,10.6
		c4.8,9,10.9,17.1,17,25.2c0.7,1,1.6,1.1,2.7,1.1c2.9-0.1,5.8-0.1,8.6-0.1c2,0.1,4,0.5,5.6,1.9c1.3,1.1,2,3.3,1.4,4.6
		c-0.7,1.6-2.1,1.8-3.6,1.7c-2.3-0.2-4.6-0.4-6.9-0.6c-0.6,0-1.2,0.1-2,0.2c2.4,4.3,3.1,8.6,2,13.3c0.9,0,1.5,0.1,2.2,0.1
		c6.6,0,13.1,0.4,19.6,1.5c3.9,0.7,7.9,1.4,11.5,3.3c1.5,0.8,2.9,1.8,4,3c2.5,2.7,1.9,6.5-1.2,8.5c-1.3,0.8-2.8,1.3-4.3,1.4
		c-4,0.3-8,0.5-12,0.3c-10.3-0.4-20.6-1.5-30.8-3c-5.8-0.8-11.5-1.7-17.3-2.2c-6.1-0.6-12.1,0.6-17.9,2.7c-0.2,0.1-0.3,0.3-0.7,0.7
		c2.1,0.3,4,0.5,5.9,0.7c5.3,0.7,10.7,1.2,15.8,2.9c1.8,0.6,3.6,1.3,5.2,2.4c2.8,1.9,3,5.4,0.6,7.9c-0.5,0.5-1.1,1-1.7,1.3
		c-2.6,1.3-5.1,2.7-7.8,3.6c-5.8,1.9-11.8,3.6-17.7,5.3c-1.4,0.4-2.8,1-4.7,1.6c0.9,0.4,1.3,0.7,1.7,0.8c2.8,0.4,5.7,0.8,8.6,1
		c2.1,0.2,4.3,0,6.5,0.1c12.3,0.5,24.3,2.8,36.1,6.1c6.4,1.8,12.7,3.8,18.5,7.1c6.6,3.7,11.8,8.8,15,15.7c0.2,0.5,0.5,1,0.8,1.5
		c0.6,0,1.2,0.1,1.7,0.1c5.1,0,10.1,0.5,15,1.6c4.9,1,9.6,2.6,13.6,5.8c1.7,1.4,3.3,3.1,4.4,5c3.6,6.1,0.6,13.2-6.2,15
		c-2.3,0.6-4.6,0.7-6.9,0.4c-6.3-1-11.5-4.2-16.3-8.2c-2.6-2.2-4.6-4.9-5.8-8.1c-0.2-0.5-0.5-1-0.8-1.6c-2.4,0.3-4.7,0.5-6.9,0.9
		c-8.5,1.3-16.7,3.5-24.7,6.7c-4.1,1.7-8,3.8-11.1,7c-3,3.1-3.2,7.1-0.3,10.3c1.4,1.5,3.3,2.8,5.2,3.8c3.3,1.8,7,2.8,10.7,3.4
		c5.8,1,11.7,1.8,17.5,2.9c3.1,0.6,6.2,1.1,9.5,1c1.9-0.1,3.9,0.4,5.6,1.1c5.9,2.3,10.4,6.3,12.1,12.7c1.1,3.9,0.1,6.5-3.3,8.6
		c-1.2,0.8-2.7,1.3-4.2,1.6c-4.1,1-8.3,1.8-12.3,2.9c-1.4,0.4-2.8,1.2-4,2.1c-1.1,0.8-1.1,1.8,0,2.6c1,0.8,2.2,1.4,3.4,1.8
		c5.8,1.9,11.7,2.1,17.7,2.2c2.3-4.3,5.7-7.3,9.4-9.9c3.3-2.3,7.1-3.7,11.3-3.1c4.2,0.7,7.5,3.9,8.2,8c0.6,3.6-1.5,7.5-5.4,9.3
		c-1.3,0.7-2.8,1.2-4.3,1.4c-2.8,0.3-5.6,0.2-8.4,0.3c-0.8,0-1.5-0.1-2.6-0.1c0.8,1.6,1.9,2.3,3,3.1c1.6,1.1,3,2.4,3.6,4.4
		c0.9,2.9,0.3,6.2-3.7,6.5c-0.5,0-0.9,0.2-1.4,0.2c-6.4,1-12.8,1.8-19.2,3c-3.5,0.7-6.9,1.8-10.4,2.9c-1,0.3-2.1,0.7-2.6,2
		c1.5,1.8,3.6,2.4,5.7,2.8c10.6,1.7,21.2,0.8,31.8-0.2c1.4-0.1,2.4-0.9,3.3-2.1c2.8-3.8,6.5-6,11.5-5.5c8.3,0.8,14.7,10.3,10.2,18.6
		c-1.5,2.7-3.6,4.7-6.1,6.3c-1.8,1.1-3.6,2-5.5,3c-0.7,0.4-1.3,0.8-2.1,1.4c0.8,1,1.3,2,2.1,2.6c1.6,1.3,3.3,2.4,5,3.6
		c1,0.7,2,0.8,3.2,0.3c8.3-2.8,16.9-4.8,25.7-5.8c6.1-0.7,12.1-0.8,18.2,0.3c3.5,0.7,6.8,2,9,4.9c2.3,3,2.1,6.5-0.5,9.1
		c-1,1-2.2,1.9-3.4,2.6c-1.7,0.9-3.6,1.8-5.5,2.4c-7.8,2.5-15.7,2.5-23.7,1.2c-5.2-0.8-10.1-2.3-14.9-4.5c-1.7-0.8-3.3-0.8-5,0
		c-2,1-4.1,1.7-6.1,2.8c-3.9,2.1-7.7,4.3-11.4,6.5c-1,0.6-2,1.3-2.2,2.8c1.7,1.7,3.9,2.6,6.2,3c6.9,1.3,13.8,0.8,20.7-0.7
		c1.8-0.4,3.6-0.6,5.4-0.6c1.7,0,2.8,1.4,3.2,3.1c0.3,1.7-0.3,2.9-1.9,3.8c-0.7,0.4-1.5,0.6-2.2,0.8c-2.3,0.8-4.7,1.5-7,2.4
		c-1.5,0.6-2.9,1.3-4.2,2.3c-1.9,1.4-2.1,2.9-0.3,4.6c1.2,1.1,2.7,2,4.2,2.7c4.2,1.7,8.7,2,13.2,2.4c1.8,0.1,3.7,0.3,5.4,0
		c2.3-0.3,3.9,0.5,4.9,2.8c0.8,1.8,0.4,3-1.5,4.5c-0.6,0.4-1.2,0.8-1.8,1.2c-1.7,1-3.5,2-5.2,3.1c-0.4,0.2-0.7,0.6-1.3,1.1
		c1.3,0,2.3,0.1,3.2,0c9-0.6,18-1.6,27.1-1.3c3.4,0.1,6.7,0.3,9.9,1.3c5.4,1.7,7.2,8.9,2.5,12.7c-2,1.6-4.3,3.1-6.6,4.2
		c-5.6,2.7-11.5,4.3-17.5,5.8c-7.5,1.8-14.9,3.5-22.4,5.3c-1,0.2-2,0.7-3,1c1.3,0.8,2.5,1.1,3.7,1.4c10,1.9,20,1.8,30.1,1.1
		c3.4-0.2,6.7-0.5,10,0.4c6.7,1.9,11.7,5.8,14.1,12.6c1.8,5.3-1.1,9.5-6.4,10.9c-3.2,0.9-6.6,1.3-9.9,2c-1.7,0.4-3.4,0.9-5,1.6
		c-1.3,0.5-3,1.1-3,2.7c0,1.8,1.9,2.2,3.2,2.8c3,1.2,6.1,1.2,9.2,1c2.9-0.1,5.7-0.5,8.6-0.5c4.8,0,9.2,1.4,12.6,4.9
		c1.5,1.5,3,3.1,4.3,4.8c3.9,5.1,9,8.8,14.4,12.1c0.8,0.5,1.7,0.9,2.6,1.2c0.6,0.2,1.3,0.3,1.8,0.1c4.9-1.9,9.9-3.7,14.7-5.8
		c3.9-1.7,6.9-4.6,9.3-8.1c3.5-5,6.3-10.6,10.9-14.9c-0.4-0.9-0.7-1.6-1-2.3c-0.8-2.8-1.9-5.6-2.4-8.5c-1.5-9.7,4.3-17.9,13.9-19.7
		c4-0.8,7.9-0.3,11.8,1c3.4,1.2,6.8,2.4,10.3,3.3c5.1,1.2,9.2-0.6,11.8-5.2c0.8-1.4,1.5-3,1.9-4.6c1-4.2,0.7-8.4,0.3-12.6
		c-0.2-1.9-0.6-3.8-0.6-5.7c0.2-5.2,4.4-8.7,9.2-7.3c5.2,1.5,10,0.6,14.5-2c3-1.7,6-3.7,8.7-5.9c10.1-8,21.1-14.1,33.5-17.8
		c5.5-1.7,10.9-3.8,15.9-6.7c6.6-3.8,11.4-8.9,13.7-16.3c0.6-1.8,1.3-3.6,2.1-5.4c1.6-3.8,4.2-6.6,7.8-8.4c2.7-1.3,5.6-2.4,8.4-3.4
		c3.5-1.3,7-2.7,10.2-4.7c6-3.8,11.5-8.1,16.7-12.8c1.7-1.5,2.8-3.5,3.1-5.8c0.2-1.1,0.3-2.2,0.5-3.3c0.7-5.3,3.1-9.7,7.2-13.1
		c3.2-2.7,6.9-4.3,10.9-5.3c4.4-1.1,9-1.7,13.5-1.4c1.8,0.1,2.9-0.5,4.1-1.8c10.4-11.2,22-20.9,35.1-28.8c0.9-0.5,1.8-1.1,2.6-1.7
		c3.4-2.5,3.7-3.4,2.4-7.5c-0.1-0.4-0.3-0.8-0.4-1.1c-1-4.5-0.2-8.6,3.3-11.9c1.1-1.1,2.5-2,4-2.6c3.7-1.5,5.9-4.2,7-8
		c0.5-1.9,1.1-3.8,1.7-5.8c4-13.5,10.6-25.7,19.1-36.9c10.3-13.5,20.8-26.8,31.4-40c3-3.8,6.4-7.4,9.9-10.8c7.7-7.3,17-12.1,27-15.5
		c0.7-0.2,1.4-0.5,2.2-0.9c-0.3-0.4-0.5-0.7-0.7-0.9c-10.3-10.9-20.6-21.7-30.8-32.6c-22.8-24.4-45.4-48.8-68.2-73.2
		c-27.4-29.2-54.8-58.4-82.2-87.6c-1.4-1.5-2.7-2.1-4.7-2.1c-63.7,0.1-127.4,0-191,0c-0.9,0-1.8,0.1-2.6,0c-4.5-0.4-8-2.8-7.5-8.2
		c0.3-4.1,0.5-8.3,0.8-12.4c0.2-3.5,0.5-7,0.6-10.5c0.1-2.6-0.6-4.9-2.3-6.9c-0.6-0.7-1.1-1.4-1.6-2.1c-5.5-6.8-11-13.5-16.5-20.3
		c-0.1-0.2-0.4-0.2-0.5-0.3c-2.7,1.5-5.4,2.9-8,4.3c0.1,0.4,0.1,0.7,0.2,0.9c1.4,3.7,0.7,6.4-2.5,8.8c-3.3,2.5-7.9,2.6-12,0.2
		c-5.2-3.2-8.2-9.6-7-15.9c0.5-2.9,1.6-5.7,2.4-8.5C495.3,188.1,495.5,187,495.9,185.7z M276.3,471.1c1.7,0.6,2.8,1.2,4,1.5
		c4,0.8,8,1.4,12,2c3.8,0.6,7.6,0.5,11.4,0c5.8-0.9,11.7-1.5,17.6-2.1c3-0.3,6-0.5,9-0.8c0.1-0.6,0.3-0.9,0.3-1.3
		c-0.1-3.8-1.3-7.2-3.7-10.1c-0.6-0.7-1.9-1.2-2.9-1.3c-1.7-0.2-3.5-0.2-5.3,0c-13.2,1.2-25.9,4.4-38.1,9.8
		C279.5,469.3,278.2,470.1,276.3,471.1z M218.7,378c0.1-0.2,0.1-0.4,0.2-0.5c-0.4-0.3-0.7-0.6-1.1-0.8c-6.2-3.1-12.4-6.3-18.7-9.2
		c-4.1-1.9-8.4-3.1-12.9-3.5c-1.1-0.1-2.2,0-3.3,0.3c-1.6,0.5-1.9,1.4-1.4,3c0.7,2,2.1,3.4,3.7,4.6
		C195.5,379.7,206.7,381.2,218.7,378z M470.3,690.9c-1.3-1.8-1.3-1.9-2.6-2.2c-2-0.4-4.1-0.8-6.1-0.9c-6.1-0.1-12.1,0.9-18,2.1
		c-4.1,0.8-8.2,1.8-12.3,2.7c0.4,0.6,0.8,0.8,1.2,0.9c8,2.3,16.2,3.4,24.6,2.7c3.9-0.3,7.6-1.3,10.9-3.4
		C468.7,692.3,469.5,691.6,470.3,690.9z M374.6,555c0.8,1.4,1.2,2.4,1.9,3.1c2.3,2.3,4.7,4.6,7.2,6.6c2.1,1.7,4.5,2.7,7.1,3.2
		c2,0.4,3.8,0.2,5.6-0.8c2.3-1.3,2.7-3.5,0.9-5.4c-1.1-1.1-2.4-2.1-3.8-2.9c-3.4-2-7.1-2.8-11-3.2
		C380.1,555.4,377.7,555.3,374.6,555z M364.6,609.9c4.4-0.6,9.2-1.2,14-1.9c1.5-0.2,1.9-1.2,1.3-2.6c-0.7-1.6-1.7-2.8-3.4-3.6
		c-6.4-2.8-12.7-0.8-17.7,3.5c-1.2,1.1-1.1,1.8,0.1,3C360.5,609.7,362.3,609.7,364.6,609.9z M468.5,794.7c1.1-0.1,3-0.2,4.9-0.5
		c2.9-0.4,5.9-0.8,8.8-1.3c1.6-0.3,1.8-0.9,1.2-2.4c-0.8-1.9-2-3.2-4-3.9c-6.4-2.3-11.9-0.5-17,3.5c-1.5,1.2-1.4,2.3,0.2,3.5
		C464.1,794.7,465.8,794.8,468.5,794.7z M367.6,483.7c-4.5-3.2-32.7-5-43.1-3c1.4,0.2,2.5,0.5,3.6,0.6c6.5,0.8,13,1.6,19.5,2.2
		c5.4,0.4,10.8,0.5,16.2,0.7C365,484.2,366.1,483.9,367.6,483.7z M260.3,404.2c3-0.8,5-2.6,7-4.4c1-0.8,1.8-1.8,2.5-2.9
		c1.1-1.7,0.5-3.5-1.3-4.4c-1.6-0.8-3.2-0.8-4.8,0.1c-1.6,1-2.7,2.5-3.2,4.3C260,399.3,259.8,401.6,260.3,404.2z M409.4,671.1
		c3.8-1.4,6.7-3.7,9-6.6c1.8-2.4,0.7-4.9-2.2-5.5c-2.4-0.5-5,0.9-6.1,3.5C408.9,665.2,408.8,668,409.4,671.1z M250,396.4
		c-2.2,0.4-4.3,1.2-6,2.6c-2.4,2-2.4,4.9,0.2,6.7c2.2,1.5,4.7,1.5,7,0.9C250.8,403.1,250.4,399.9,250,396.4z M399,663.3
		c-2.3,0.4-4.6,1.2-6.4,3c-2,1.9-1.8,4.6,0.5,6.2c2.3,1.6,4.8,1.6,7.1,1C399.8,669.9,399.4,666.7,399,663.3z M394.9,628.4
		c3.5,0.4,6.5,0.7,9.3-0.5c1-0.4,2-1,2.8-1.7c0.8-0.7,1.3-1.7,0.8-2.8c-0.5-1-1.5-1.3-2.4-1.2C401.1,622.6,397.9,624.7,394.9,628.4z
		 M272.9,346c0,0.3-0.1,0.6-0.1,0.9c3.9,2,8.2,2.9,12.5,3.8c0.6-1.6-0.1-2.4-1.1-3c-3-1.9-6.2-2.9-9.8-2.2
		C273.9,345.5,273.4,345.8,272.9,346z"/>
	<path d="M449.7,710.9c0,2.1-1.8,3.8-4.1,3.7c-2.5,0-4.5-1.8-4.5-4c0-2.3,1.9-3.8,4.6-3.8C448,706.8,449.7,708.5,449.7,710.9z"/>
</g>
</svg>
