<?xml version="1.0" encoding="utf-8"?>
<!-- Generator: Adobe Illustrator 23.0.4, SVG Export Plug-In . SVG Version: 6.00 Build 0)  -->
<svg version="1.1" id="Layer_1" xmlns="http://www.w3.org/2000/svg" xmlns:xlink="http://www.w3.org/1999/xlink" x="0px" y="0px"
	 viewBox="0 0 1008 1008" style="enable-background:new 0 0 1008 1008;" xml:space="preserve">
<g>
	<path d="M888.2,287.2c0.8,0.2,1.7,0.3,2.5,0.5c5.8,1.3,10,4.5,11.5,10.6c0.4,1.8,0.9,3.6,1.3,5.4c0.9,4.5,3.6,7.2,7.9,8.4
		c2.8,0.8,5.8,1.4,8.6,2c4.2,1,8,2.6,11.3,5.5c2.4,2.1,3.9,4.6,4.7,7.7c0.4,1.8,0.3,3.6-0.4,5.4c-0.4,1-0.7,2.1-0.7,3.2
		c-0.1,7.9,0,15.8,0,23.8c0,81.7,0,163.4,0,245c0,0.6,0,1.3,0,1.9c0,3.9-1.7,6.3-5.5,7.5c-2,0.7-4.2,1.1-6.4,1.7
		c-0.2,2.7,0.7,5.1,2.3,7.3c1.2,1.6,2.6,3.1,3.9,4.6c2.7,3.1,3.6,6.8,2.6,10.8c-0.9,3.8-2.9,7.1-5.9,9.7c-0.7,0.6-1.3,1.1-2.1,1.7
		c1,0.8,1.9,1.5,2.8,2.2c7.2,6.1,11.4,13.9,12.7,23.2c0.3,2.5,0.2,4.9-0.5,7.4c-0.8,2.6-2.1,4.9-4.5,6.3c-4,2.4-5.7,6.2-6.1,10.6
		c-0.4,3.9-0.4,7.8-0.5,11.7c-0.1,5.5-1.2,10.8-3.8,15.7c-0.7,1.3-1.6,2.6-2.4,3.9c0.5,0.6,0.9,1.1,1.3,1.7
		c7.8,9,12.5,19.5,14.4,31.2c0.4,2.2,0.4,4.5,0.1,6.7c-0.6,6-5.7,10-11.9,9.6c-3.7-0.2-7-1.5-10.2-3.2c-4.3-2.4-8-5.6-11.3-9.2
		c-3.8-4.3-7.5-8.7-11.3-13c-3.2-3.7-7-6.6-11.5-8.4c-17.5-7.1-34.7-15.3-52.5-21.6c-11.8-4.2-23.9-7.1-36.3-8.5
		c-2.9-0.3-5.7-0.7-8.6-0.7c-4,0-5.3,1-6.8,4.8c-1.4,3.8-3.3,7.1-6.7,9.4c-4.6,3.2-9.7,3.6-14.9,2.5c-3.5-0.8-7-1.9-10.2-3.4
		c-11.6-5.6-23.1-11.4-34.1-18.1c-4.5-2.7-8.7-5.7-12.3-9.5c-2.8-2.8-5-6-6.9-9.6c-1,0-2,0-2.9,0c-17.1,0-34.2,0-51.4,0.1
		c-1.9,0-3.6-0.2-5.4-0.9c-3.3-1.2-6.8-1.9-10.4-1.6c-1.3,0.1-2.2,0.4-3.2,1.3c-2.1,2-4.5,3.6-7.4,4.2c-1,0.2-2.1,0.4-3.1,0.3
		c-3.2-0.1-5.4-2.2-5.7-5.4c-0.1-0.6-0.1-1.1-0.1-1.9c-0.7,0.4-1.2,0.7-1.7,1.1c-1.7,1.3-3.6,1.9-5.8,2.1c-3.2,0.2-5.8-0.9-7.5-3.7
		c-0.2-0.3-0.5-0.7-0.7-1c0-0.1-0.1-0.1-0.4-0.2c-0.4,0.7-0.8,1.5-1.2,2.2c-2.8,5.4-6.2,10.2-10.9,14.2c-2.4,2-5,3.7-8.2,4.3
		c-4.7,1-9-1-11.2-5.3c-1.7-3.2-2.6-6.8-2.7-10.4c-0.2-4.5,0-8.9,0-13.4c0-0.6,0-1.3,0-2.1c-0.6,0.2-1.1,0.4-1.6,0.5
		c-2.9,1.1-5.8,2.2-8.7,3.2c-1.2,0.4-2,1-2.7,2.2c-1.2,2.1-2.6,4.2-4,6.2c-1.4,1.8-3.2,3.1-5.4,3.9c-4.2,1.5-8.4,0-10.8-3.8
		c-0.4-0.7-0.8-1.4-1.3-2.5c-0.5,1-0.9,1.8-1.4,2.6c-2.6,4.6-5.1,9.3-7.9,13.7c-1.6,2.5-3.8,4.7-5.9,6.9c-0.9,1-2.2,1.6-3.4,2.2
		c-3.2,1.5-5.7,0.7-7.1-2.6c-0.9-2.3-1.4-4.9-1.8-7.4c-0.5-3.2-0.6-6.4-0.9-9.5c-0.1-1.3-0.5-2.5-1-3.7c-0.8-2.1-1.8-2.3-3.3-0.6
		c-1.3,1.4-2.4,3-3.5,4.6c-0.7,1-1.3,2-2,3c-0.7,1-1.6,1.5-2.9,1.2c-1.3-0.3-2-1.1-2.2-2.3c-0.3-1.6-0.5-3.2-0.6-4.8
		c-0.1-2.1,0-4.3,0-6.8c-0.5,0.6-0.9,1-1.3,1.5c-2.2,3-4.6,5.8-7.9,7.6c-1.6,0.9-3.4,1.5-5.1,2c-3.5,1-8.2-1.2-7.8-6.2
		c0-0.2-0.1-0.5-0.1-1c-0.6,0.4-1.1,0.7-1.6,1c-2,1.6-4.4,2.3-6.9,2.2c-2.7-0.1-4.8-1.2-6.3-3.4c-1.6-2.3-2.3-4.9-2.4-7.7
		c-0.1-1.3,0-2.5,0-3.9c-0.6,0.1-1.1,0.2-1.5,0.3c-1.3,0.5-2.6,1.2-4,1.6c-3.8,1.3-6.1,3.9-7.7,7.6c-3.1,7.1-6.7,14-12.2,19.7
		c-2.6,2.7-5.6,5-8.6,7.3c-2.2,1.6-4.8,2.5-7.6,2.5c-6.7,0-10.8-5.3-9-11.8c1.2-4.2,3.8-7.6,6.9-10.5c4.1-3.8,8.8-6.6,13.8-9
		c2.8-1.4,5.5-2.9,8.3-4.3c1.2-0.7,2-1.7,2.6-3c4.5-9.8,8.2-20,9.7-30.8c0.4-2.8,0.4-5.6-0.3-8.3c-1.1-4-4.3-5.6-8.1-4.2
		c-2.4,0.9-4.6,2.3-6.2,4.4c-1.8,2.4-3.4,4.8-4.8,7.4c-4.6,9.1-7.7,18.7-11.1,28.3c-1.7,5-3.5,9.9-5.3,14.9
		c-0.6,1.5-1.3,2.9-2.1,4.3c-0.6,0.9-1.4,1.8-2.2,2.5c-1.9,1.5-3.7,0.7-3.8-1.7c0-2.1,0.4-4.3,0.7-6.4c0.1-0.5,0.2-1.1,0.3-1.7
		c-0.4,0.2-0.6,0.2-0.8,0.4c-5.5,4.9-11.9,8.3-18.4,11.7c-6.8,3.5-13.7,7-19.8,11.7c-1.4,1.1-2.9,2-4.5,2.6c-1.4,0.6-2.9,1-4.4,1.1
		c-2.5,0.1-4.3-1.6-5-4c-0.8-2.8,0-5.6,0.3-8.3c0.9-8.2,3.3-16.1,5.9-23.9c0.2-0.7,0.4-1.5,0.3-2.5c-0.5,0.6-1.1,1.2-1.5,1.9
		c-4.7,6.8-9.3,13.6-14,20.3c-0.8,1.2-1.7,2.4-2.6,3.4c-1.6,1.6-3.5,1.9-5.5,1c-2-0.8-2.9-2.5-2.8-4.6c0.1-1.8,0.5-3.6,0.8-5.4
		c0.4-2,0.8-4.1,0.8-6.3c-0.5,0.6-1.1,1.2-1.6,1.8c-2.4,2.4-4.8,4.9-7.3,7.2c-0.9,0.8-2,1.4-3.1,1.8c-2.5,1.1-4.6,0.3-5.8-2.2
		c-0.6-1.3-0.9-2.8-1.5-4.6c-0.5,1-1,1.8-1.4,2.6c-1.9,4-4.2,7.8-7.3,11c-1.4,1.5-3,2.9-4.8,3.9c-3.9,2.2-8.2,0.9-10.6-2.9
		c-1.6-2.4-2.2-5.1-2-8c0.1-1.7,0.4-3.3,0.6-5.3c-0.6,0.5-1,0.7-1.4,1.1c-1.8,2-4.1,3-6.7,3.3c-2.9,0.4-5.2-0.5-7-2.8
		c-1.8-2.2-2.5-4.8-2.6-7.6c-0.1-2.8,0-5.7,0-8.4c-2.7,0.9-5.6,1.7-8.4,2.7c-0.8,0.3-1.4,1.2-1.9,2c-1.5,2.7-3,5.3-5.3,7.4
		c-1.8,1.6-3.7,2.7-6.1,3c-6.4,0.7-9.7-4.2-10.4-8.7c-0.2-1.5-0.2-3-0.2-4.7c-0.3,0.1-0.6,0.1-0.8,0.3c-4.7,3.3-9.4,6.6-14.2,9.9
		c-1,0.7-1.7,1.3-1.7,2.6c0.2,6.8-2.1,12.9-5.7,18.5c-4.6,7.2-10.6,12.8-18.3,16.4c-4.6,2.1-9.5,2.7-14.5,2.1
		c-5.2-0.6-8-4.8-6.3-9.9c0.7-2.2,1.9-4.2,3.3-6.1c4.5-6.3,10.5-11.1,16.9-15.4c4-2.7,8.1-5.1,12.2-7.7c2.7-1.7,3.2-2.6,2.1-5.5
		c-1.2-3.1-2.7-6.1-4.2-9.2c-2.1-4.5-4.2-9-5.2-13.9c-0.7-3.5-1-7.1-1.6-10.8c-0.8,0-1.5,0.8-2.1,1.4c-5.6,4.7-10.2,10.2-14.1,16.3
		c-1.2,1.9-2.4,3.8-3.4,5.8c-0.9,1.9-1.6,4-2.3,6c-0.9,2.5-1.7,5.2-2.8,7.6c-0.6,1.4-1.6,2.6-2.5,3.8c-2,2.5-4.6,3.4-7.8,3.4
		c-12.7-0.1-25.4,0-38.2,0c-1.1,0-2.3-0.1-3.3-0.3c-2.9-0.7-4.8-2.6-5.4-5.5c-0.3-1.2-0.3-2.5-0.3-3.8c0-146.6,0-293.1,0-439.7
		c0-1.4,0.1-2.7,0.3-4c0.7-3.1,3.4-5.3,6.5-5.5c0.8-0.1,1.6,0,2.4,0c268.5,0,536.9,0,805.4,0c0.8,0,1.6,0,2.4,0
		c2.9,0.2,5.1,1.7,6,4.4c1.1,3.4,2.9,6.4,4.7,9.4c1.3,2,2.3,4.2,2.5,6.7c0.3,2.9-0.3,5.7-1.8,8.3c-0.4,0.7-0.8,1.4-1.3,2
		c-7.9,8.6-16.8,15.5-28.6,17.8C889.8,280.4,888.2,282.5,888.2,287.2z M906.3,246.2c-265.3,0-530.4,0-795.6,0
		c-0.1,0.6-0.1,1.1-0.1,1.6c0,142.2,0.1,284.3,0.1,426.5c0,0.1,0.1,0.1,0.1,0.2c0.1,0.1,0.1,0.1,0.3,0.3c0.8,0,1.7,0,2.5,0
		c9.4,0,18.9-0.1,28.3,0.1c2.1,0,3.7-0.6,5-2.2c1.4-1.7,2.8-3.3,4.1-5c1.7-2.3,3.3-4.7,4.9-7.1c5.5-8.5,12.4-15.8,20.6-21.9
		c2-1.5,3.4-3.3,4.3-5.9c2.1-6.3,5.6-11.6,10.8-15.8c2.8-2.2,5.9-3.5,9.4-3.7c1.8-0.1,3.4,0.4,4.3,2c0.9,1.7,0.5,3.2-0.5,4.7
		c-0.5,0.7-1,1.4-1.6,2.1c-1.5,1.6-3.1,3.3-4.7,4.8c-3.9,3.6-7.9,7-11.8,10.6c-0.9,0.8-1.7,2-2,3.1c-0.9,2.9-0.9,5.8-0.3,8.8
		c1.1,5.3,3.7,10,6.5,14.6c2.5,4.3,4.8,8.7,6.5,13.3c0.2,0.5,0.5,0.9,0.8,1.5c6.9-3.3,13.2-7,19-11.6c-0.6-1.7-1.2-3.2-1.6-4.7
		c-1.6-6.3,1.5-12.1,7.5-14.5c6.2-2.5,12.9-0.3,15.9,5.5c0.9,1.8,1.6,3.9,1.8,5.9c0.3,2.8,0.1,5.7,0.1,8.6c0,1.6,0.4,2.1,1.7,1.9
		c3.2-0.6,6.4-1.5,8.5-4.3c1.5-2,3.5-3.1,5.9-3.2c3.8-0.2,5.8,1.1,4.6,5.2c-0.2,0.8-0.4,1.6-0.5,2.3c-0.6,4.2-1.2,8.4-1.7,12.6
		c-0.1,1.1-0.3,2.4,0.7,3.5c0.3-0.1,0.8-0.1,1-0.4c1-1.1,2.1-2.2,2.7-3.6c1.7-3.6,3.1-7.4,4.6-11.1c1.1-2.6,2.1-5.2,3.2-7.8
		c1.2-2.6,3.5-3.4,6.1-3.4c1.6,0,2.3,0.9,2.1,2.5c-0.1,1-0.4,2-0.6,3.1c-1.4,6.4-3,12.8-4.3,19.2c-0.7,3.6-1.3,7.3-0.8,11
		c0.1,1,0.2,2.2,1.3,2.6c1.3,0.5,2.4-0.2,3.1-1.2c1.1-1.4,2.2-2.7,3.1-4.3c3.3-6.2,6.5-12.5,9.7-18.8c0.8-1.6,1.2-3.3,1.7-5
		c0.7-2.5,1.2-5.2,2.1-7.6c2.3-6.4,4.8-12.7,7.2-19.1c0.3-0.8,0.6-1.6,0.9-2.6c-1.1,0-1.9-0.1-2.7,0c-4.4,0.4-8.8,0.8-13.1,1.1
		c-5.9,0.5-11.8,0.2-17.7-0.8c-3.3-0.6-6.5-1.8-9.2-3.9c-2.3-1.9-3.5-4.3-3.7-7.2c-0.3-5.5,1.8-10,5.8-13.7
		c4.8-4.4,10.5-5.9,16.9-4.3c1.9,0.5,3.6,1.4,4.7,3.1c0.7,1,0.9,2.1,0.3,3.2c-0.6,1.2-1.8,1.2-3,1c-1.4-0.3-2.8-0.7-4.2-1.1
		c-3.3-1-6.3-0.4-9.2,1.3c-1.4,0.9-2.9,1.8-4.1,2.9c-1,0.9-1.9,2-2.5,3.2c-1.5,2.8-0.6,5.4,2.3,6.8c1,0.5,2.1,0.9,3.1,1.2
		c5.7,1.6,11.6,1.5,17.4,1.1c6.7-0.4,13.4-1.4,20-1.9c2.1-0.2,3-1.1,3.9-2.8c1.5-2.9,3.3-5.7,5.2-8.3c0.7-1,2.1-1.8,3.3-2.3
		c1.6-0.6,3.3-0.2,4.4,1.1c1.1,1.3,0.5,2.8-0.3,4c-0.9,1.4-2,2.7-2.9,4.1c-0.7,1-1.4,2.1-2.2,3.4c5.2-0.1,9.3,1.7,12.8,4.9
		c0.5-0.9,0.9-1.6,1.3-2.3c3.9-6.6,8.2-13,13.4-18.7c2.1-2.3,4.4-4.4,7.1-6c1.5-0.9,3-1.4,4.8-1.4c2.8,0,4.7,1.5,5.4,4.2
		c0.4,1.8,0.2,3.5-0.6,5.2c-1.4,3-2.8,6.1-4.6,8.9c-7.1,11.2-15,21.9-23.4,32.2c-3,3.7-5.6,7.6-8.2,11.5c-2.8,4.5-4.3,9.6-4.9,14.9
		c0.7-0.6,1.2-1.2,1.7-1.9c3.2-4.1,6.3-8.3,9.7-12.2c1.8-2.1,4-4,6.3-5.5c4-2.5,8.1-0.3,8.4,4.4c0.2,2.2,0.2,4.5-0.2,6.7
		c-1.3,6.3-2.8,12.6-4.3,18.9c-0.4,1.8-0.8,3.7-1.3,5.7c0.6-0.2,0.8-0.2,1-0.4c6.2-4.3,12.9-7.7,19.5-11.3c5.6-3,11.1-6.1,15.9-10.2
		c6.6-5.5,11.3-12.1,13-20.7c0.6-3.1,1.4-6.1,1.9-9.2c0.8-4.6,1.8-9.1,1.6-13.8c-0.1-2.2-0.4-4.2-2.2-5.9c-1.3-1.3-1-2.8,0.6-3.8
		c1.9-1.1,3.8-1,5.7,0.2c2.5,1.6,3.6,4,4,6.8c0.2,1.8,0.4,3.6,0.7,5.8c0.9-1.4,1.6-2.3,2.2-3.3c3.2-4.6,7.3-8.1,12.6-9.9
		c2.8-0.9,5.6-1,8.5,0c3.7,1.4,5.6,4.4,6.7,7.9c1.6,5.2,1.3,10.4,0.8,15.7c-0.7,7.1-2.7,13.9-5.1,20.7c-0.3,0.9-0.5,1.7-0.8,2.7
		c0.6,0,0.9,0,1.1-0.1c2.6-1,5.2-2,7.8-3.2c0.6-0.3,1.1-0.9,1.4-1.5c2.3-4.6,6.1-7.6,10.8-9.3c3.4-1.3,7-1.7,10.6-0.7
		c3.6,1,6,3.7,6,7.4c0,1.4-0.3,2.9-0.7,4.2c-0.9,3-2,5.9-2.8,8.9c-0.6,2.1-0.9,4.2-1.2,6.3c-0.1,1-0.2,2.2,1,2.8
		c1.1,0.5,2.1,0,2.9-0.7c1.2-0.9,2.5-1.8,3.5-2.9c2.7-3.4,5.3-7,7.9-10.6c0.6-0.9,0.9-2,1.1-3.1c1.1-4.6,1.9-9.2,3.1-13.8
		c2-7.6,4.3-15.1,8.1-22c1.7-3.2,3.8-6.3,6-9.2c1.8-2.3,4.2-4,7.1-4.5c5.6-1.1,8.8,2.6,8.5,6.9c-0.3,3.5-1.1,6.8-2.4,10
		c-3.2,7.9-6.9,15.5-11.4,22.7c-2.1,3.4-4.7,6.4-7.1,9.6c-1,1.3-2,2.7-3,4c-0.5,0.7-0.7,1.5-1.1,2.3c0.2,0.1,0.3,0.2,0.5,0.4
		c0.6-0.7,1.2-1.4,1.8-2.1c1.3-1.3,2.5-2.7,3.9-3.9c2.4-2.1,5.3-3.3,8.5-3.4c4.2-0.2,5,2.7,4.7,5.3c-0.2,2.2-1.2,4.2-3,5.6
		c-1.5,1.2-3.1,2.2-4.7,3.3c-1,0.7-2,1.3-3.1,2c0.3,0.5,0.5,0.8,0.7,1.1c1.8,2.1,2.9,4.6,3.2,7.4c0.2,2.5,0.3,5.1,0.4,7.7
		c0.1,1.9,0,3.8,0,6.2c1.2-0.8,2-1.1,2.6-1.6c3.2-2.5,5.7-5.6,7.9-8.9c4.2-6.5,7.1-13.6,10.1-20.7c0.9-2.2,1.2-4.2,0.3-6.6
		c-1.7-4.5-0.9-8.9,2.6-12.4c3.6-3.6,8-4.8,13-3.5c5.3,1.3,8.1,5.2,8.9,10.2c0.6,3.2,0.3,6.5,0.4,9.8c0,2.3,0.4,2.8,2.7,2.2
		c1.9-0.5,3.7-1.4,5.5-2.2c1.9-0.8,2.8-2.2,3.1-4.3c1.4-8.6,3.5-17.1,6.8-25.2c0.1-0.3,0.2-0.7,0.3-1.1c-5.4-2.1-11.8-2-16.9,0
		c-0.8,0.3-1.7,0.5-2.6,0.5c-1.2,0-1.7-1-1.1-2c0.3-0.6,0.8-1,1.2-1.5c2.3-2.3,5.2-3.5,8.4-3.5c3.3,0,6.7,0.2,10,0.6
		c3.7,0.4,3.6,0.5,5.5-2.6c1.3-2.2,2.6-4.4,4.3-6.3c1-1.2,2.5-2.3,4-2.9c2.3-0.9,4.3,0.6,4.1,3.1c-0.1,1.3-0.6,2.6-1.2,3.9
		c-0.9,2.1-1.9,4.2-2.9,6.3c0.5,0.2,0.8,0.3,1.1,0.4c8.3,1.4,16.6,2.3,25.1,1.1c3.2-0.4,6.1-1.3,8.3-3.8c0.6-0.7,1.5-1.1,2.4-1.5
		c0.9-0.4,1.7-0.1,2.4,0.6c0.6,0.7,1,1.5,0.5,2.4c-0.6,0.9-1.2,1.9-2.1,2.6c-1.3,1-2.9,1.8-4.4,2.4c-5.2,2.1-10.6,2.9-16.2,3.2
		c-5.7,0.3-11.3,0.2-17-0.9c-2.4-0.5-2.7-0.3-3.6,2.1c-0.7,1.9-1.5,3.9-2.1,5.9c-2.5,8.8-4.2,17.7-5.2,26.8
		c-0.5,4.6-0.9,9.3-0.1,13.9c0.3,2,0.8,4.1,1.7,5.9c1.3,2.6,3.4,3,5.8,1.4c0.9-0.6,1.7-1.2,2.4-2c6.1-6.7,10.6-14.5,13.1-23.2
		c2.7-9.5,11.9-15.8,21.7-14.6c5.2,0.7,9,5.5,7.4,11c-0.4,1.5-1,2.9-1.5,4.3c-1,3-2,6.1-2.9,9.1c-0.3,1.2-0.3,2.5-0.4,3.5
		c1.9,1.3,3.5,1.2,4.9-0.1c1.4-1.3,2.8-2.6,4.2-4c4.4-4.6,9.8-6.7,16.1-6.7c9.8,0,19.7-0.1,29.5-0.2c10.7,0,21.4-0.1,32.2-0.1
		c4.1,0,6.5,1.9,7.7,5.9c0.9,3,2.4,5.6,4.4,7.9c2.4,2.7,5.3,4.9,8.4,6.7c4.2,2.5,8.4,4.9,12.7,7.2c7.8,4.1,15.6,8.2,23.4,12.2
		c1.4,0.7,3,1.2,4.5,1.5c2.7,0.5,4-0.4,5.1-2.9c0.2-0.6,0.4-1.3,0.7-1.8c1.2-2,2.3-4.2,3.9-6c3.7-4.1,8.6-5.9,13.9-6.1
		c5.2-0.1,10.4,0.1,15.6,0.6c11.9,1.3,23.5,4,34.6,8.3c18.4,7.2,36.6,14.8,54.8,22.4c5.8,2.4,11,5.8,15.4,10.5
		c2.4,2.6,4.8,5.4,7.2,8c3.2,3.5,6.3,7,9.6,10.4c0.8,0.9,2,1.4,3.3,2.4c-0.1-0.8-0.1-1.1-0.2-1.4c-1-4.6-3-8.8-5.5-12.7
		c-3.2-5-7.2-9.4-11.8-13.2c-2.9-2.4-3.4-5.3-1.7-8.6c0.9-1.7,2-3.2,3.8-3.9c3.3-1.3,4.8-3.9,5.3-7.1c0.5-2.8,0.7-5.7,1-8.6
		c0.5-4.8,0.6-9.8,1.5-14.5c1.2-6.3,3.9-12,9.9-15.5c0.2-0.1,0.3-0.3,0.5-0.5c-0.3-1-0.6-2-0.9-3c-2.1-7-6.4-11.9-13.1-14.6
		c-5.3-2.2-7-6.3-4.8-11.6c1.6-3.9,4.5-6.7,7.8-9.3c1.1-0.8,2.1-1.7,3.6-2.9c-0.8-0.5-1.4-0.7-1.7-1.1c-7.1-8-9.3-17.2-6.4-27.4
		c1.2-4.2,3.7-6.1,8-6.3c0.9-0.1,1.8-0.2,2.9-0.4c0-1.3,0-2.3,0-3.3c0-86.6,0-173.3,0-259.9c0-2.3,0-4.7,1.4-6.7
		c-2.5-1.6-5.2-2-7.8-2.7c-3.3-0.9-6.7-1.7-9.8-3c-8.2-3.4-13.3-9.5-14.6-18.5c-0.7-4.6-0.8-4.6-5.5-5c-6-0.6-10.2-4.7-10.8-10.6
		c-0.6-5.8,1-11.2,3.7-16.4c2-4,5.2-6.7,9.4-8.1c2-0.7,4-1.3,6-1.7c2.8-0.6,5.4-1.6,7.8-3.1c2.5-1.6,5-3.2,7.3-5c1.1-0.8,2-2,3-3.1
		c0.7-0.8,0.6-1.6,0-2.4C908.6,249.5,907.4,247.8,906.3,246.2z M326.8,640.2c-0.5-0.4-0.7-0.7-0.9-0.8c-3.2-1.8-6.8-2.4-10.4-2
		c-1.3,0.1-2.4,0.9-3,2.1c-1.4,2.6-2.9,5.2-4.1,7.9c-4.6,10.9-7.7,22.3-9,34.2c-0.2,1.5,0,3.1,0,5c1.8-0.7,2.9-1.8,3.8-2.9
		c3.3-4,6.5-8.1,9.6-12.3c0.9-1.3,1.6-2.7,2.3-4.2c3.2-7.3,6.3-14.7,9.5-22C325.2,643.4,326,641.9,326.8,640.2z M189.7,690.3
		c-0.1-0.2-0.3-0.4-0.4-0.5c-1.8,1.1-3.5,2.1-5.3,3.2c-6.4,4-12.8,8.1-18.3,13.5c-2,1.9-3.8,4.1-5.2,6.5c-1.6,2.7-0.2,4.6,2.9,4.2
		c1.6-0.2,3.1-0.6,4.6-1.1c5-1.8,9.1-5,12.7-8.8C185.3,702.4,188.1,696.6,189.7,690.3z M486.4,662c0.2,0.2,0.4,0.3,0.6,0.5
		c0.1-0.4,0.2-0.8,0.4-1.2c1.7-2.6,3.5-5.2,5.1-7.9c4-6.8,8-13.7,10.4-21.3c0.4-1.4,0.7-2.8,1-4.2c0.1-1,0.1-2.2-1-2.8
		c-1.2-0.6-1.9,0.3-2.7,1c-0.4,0.4-0.8,0.8-1.1,1.3c-1.2,2-2.4,4-3.4,6.1c-4,8.7-6.6,18-9.2,27.2C486.4,661.2,486.4,661.6,486.4,662
		z M409.5,684.4c-0.4,0.1-0.7,0.2-1.1,0.4c-5.4,2.5-10.5,5.5-15.1,9.3c-1.5,1.3-2.8,2.9-4,4.4c-0.5,0.7-0.9,1.5-1.2,2.3
		c-0.5,1.6,0,3,1.2,4.1c1.3,1.2,2.6,0.8,4,0.1c0.4-0.2,0.8-0.5,1.2-0.8c6.8-5,11.3-11.9,15.1-19.3
		C409.7,684.9,409.6,684.7,409.5,684.4z M443.6,678.3c0.1,1,0,2.1,0.2,3.1c0.4,2.5,2,3.3,4,1.7c1.2-0.9,2.3-2.3,2.9-3.7
		c1.9-4.2,3.7-8.5,5.5-12.8c0.7-1.6,0.1-2.4-1.5-2.6c-2.2-0.3-4.1,0.4-5.7,1.9C445.2,669.3,443.6,673.4,443.6,678.3z M594.3,680.7
		c0.1,1.1,0.1,2.2,0.3,3.3c0.5,2.2,1.4,2.5,3.5,1.6c1.7-0.8,2.6-2.4,3.3-3.9c1.9-4.3,3.7-8.6,5.5-12.9c0.5-1.2,0-1.9-1-2.2
		c-0.8-0.2-1.7-0.4-2.6-0.3c-1.7,0.2-3.1,1.2-4.3,2.4C595.7,671.9,594.3,676,594.3,680.7z M331.8,648.8c0.1,0.1,0.2,0.2,0.4,0.3
		c0.3-0.4,0.7-0.7,0.9-1.1c5.3-7.4,10.8-14.7,16-22.1c2.1-2.9,3.7-6.1,5.5-9.2c0.4-0.7,0.6-1.5,1.1-2.8c-0.9,0.5-1.3,0.7-1.5,0.9
		c-1.1,1.1-2.3,2.3-3.3,3.5c-5.8,7.3-10.9,15.1-15.3,23.4C334.3,644,333.1,646.4,331.8,648.8z M534.2,671.5c1-3.1,0.2-9.7-1.5-12
		c-1.2-1.7-3.1-1.9-4.8-0.6c-2.4,1.9-2.6,5.5-0.4,8.1C529.4,669.1,531.6,670.5,534.2,671.5z M233.1,667.4c0.9-3.2,0.2-9.2-1.2-11.6
		c0-0.1-0.1-0.1-0.1-0.2c-1.2-1.9-3.2-2.2-4.9-0.8c-1.6,1.3-2.3,3-1.8,5.1C226.1,664.2,229.6,665.7,233.1,667.4z M531.9,680.7
		c-3.2-1.4-6.3-2.7-9.4-4c-0.6,2.1-1.2,4.2-0.7,6.5c0.8,3.6,4.1,4.7,6.9,2.4C530.4,684.3,531.3,682.5,531.9,680.7z M221.1,672
		c-0.2,2.2-0.6,4.1-0.6,5.9c-0.1,1.9,0.7,3.5,2.5,4.3c1.9,0.8,3.6,0.1,5-1.3c1.3-1.3,2.2-2.9,2.7-4.8c-1.6-0.5-3.2-0.9-4.8-1.5
		C224.5,674,223.1,673.1,221.1,672z M190.5,627.1c3.2-1,7.9-5.9,8.2-8.5C195.1,617.9,190.2,623,190.5,627.1z M497.1,671.1
		c-3.7,1.2-6.6,3.3-9.3,6c0.7,1,1.5,0.9,2.2,0.7c2.6-0.7,4.7-2.3,6.6-4C497.4,673.1,497.7,672.3,497.1,671.1z"/>
</g>
</svg>
