<?xml version="1.0" encoding="utf-8"?>
<!-- Generator: Adobe Illustrator 23.0.4, SVG Export Plug-In . SVG Version: 6.00 Build 0)  -->
<svg version="1.1" id="Layer_1" xmlns="http://www.w3.org/2000/svg" xmlns:xlink="http://www.w3.org/1999/xlink" x="0px" y="0px"
	 viewBox="0 0 1008 1008" style="enable-background:new 0 0 1008 1008;" xml:space="preserve">
<g>
	<path d="M598.5,426.7c-1.9,3.8-0.6,5.1,3,4.4c4.5-0.9,8.8-2.3,12.5-5.2c4.3-3.5,9.1-5.2,14.6-5c12.5,0.4,25.1,0.6,37.6,1
		c11.8,0.3,23.7,0.7,35.5,1.1c10.3,0.4,20.6,0.9,30.9,1.3c15.7,0.6,31.3,1.2,47,1.5c17.5,0.3,35,0.5,52.5,0.3
		c15.3-0.1,30.7-1,45.9-3.3c6.6-1,13.3-2.1,19.9-3.1c9.2-1.3,18.5-1.6,27.7-0.7c0.7,0.1,1.4,0.2,2.1,0.4c4.8,1.1,7.3,3.9,7.7,8.8
		c0.3,3.6-0.4,7-1.9,10.3c-0.7,1.4-1.5,2.8-2.3,4.2c-2.1,3.5-2.8,7.3-2.2,11.3c0.4,3.1,0.9,6.2,1.6,9.2c0.8,3.8-0.1,6.3-3.3,8.2
		c-3.4,2.1-6.3,1.9-9.2-0.6c-2.9-2.4-5-2.7-7.9-0.3c-2.1,1.7-3.9,3.8-5.5,6c-3.3,4.4-5.2,9.5-7.5,14.4c-2.5,5.1-5.2,10.1-9.2,14.3
		c-1.3,1.3-2.7,2.5-4,3.8c-2.3,2.1-5,2.5-7.8,1.1c-2.8-1.4-4.6-3.6-4.5-7c0.1-2.3-0.2-4.5-1.1-6.6c-1.9,0.4-3.5,1.5-4.8,2.7
		c-2.2,2.3-4.3,4.7-6.4,7.1c-2.2,2.6-4.3,5.4-6.7,7.8c-4.4,4.3-9.6,6.9-15.8,7.2c-1.8,0.1-3.7-0.2-5.4-0.6c-4.9-1.3-7.8-6.1-7-11.1
		c0.3-2.1,0.7-4.2,1.2-6.5c-1.9,0.4-3,1.5-3.7,2.8c-1.2,2.2-2.1,4.5-3,6.8c-0.8,1.8-1.3,3.8-2.2,5.6c-2.2,4.5-5.6,7.5-10.8,8.1
		c-0.5,0.1-0.9,0.2-1.6,0.3c-0.3,1.5-0.4,3-0.8,4.4c-0.6,2.4-1.2,4.8-2.2,7.1c-2.2,4.7-6.2,7.1-11.4,7.6c-1.2,0.1-2.4,0.2-3.6,0.1
		c-2.6-0.2-4.7,0.7-6.7,2.1c-2.8,2.1-5.6,4.2-8.5,6.2c-15.4,10.4-31.9,18.2-49.8,22.9c-4.6,1.2-9.2,2.8-13.7,4.3
		c-0.8,0.3-1.6,0.7-2.4,1c-2.4,1.2-3.1,3.3-3.3,5.7c-0.2,2.9-0.3,5.7-0.5,8.6c-0.9,14.1-10.8,20.5-22.4,20.8c-1.1,0-2.2,0-3.5,0
		c-0.4,2.7-0.8,5.3-1.4,8c-0.7,3.7-1.5,7.3-2.3,11c-0.2,1.2-0.5,2.3-0.7,3.5c-0.7,4.1-4.3,6.9-8.5,6.4c-1.4-0.2-2.9-0.3-4.3-0.3
		c-184.1,0-368.2,0-552.2,0c-4.2,0-8.3,0.3-12.5,0.6c-4.7,0.3-9.4,0.4-14.1-0.7c-4.8-1.1-8.7-3.6-11.5-7.6
		c-4.2-5.9-2.6-12.4,3.7-15.8c1.6-0.9,3.3-1.6,5-2.4c-0.4-2.6-0.1-5.1,1.2-7.4c1.3-2.3,2.9-4.2,5.7-5.4c-1.1-1-2-2-3-2.8
		c-4.2-3.6-5.3-8.2-4.7-13.4c0-0.2,0.1-0.5,0.2-0.7c0.5-4,1.5-3.8-1.1-7.9c-2.3-3.6-0.6-9.2,3.1-12.3c2.7-2.2,5.9-3.2,9.4-2.8
		c0.5,0.1,1.1,0.2,1.6,0.2c2.3-4.6,3.1-6.4,9.8-8.2c-0.3-3.8-1.2-7.5-2.4-11.2c-1.4-4.1-0.8-8.1,1.6-11.7c2.2-3.3,5.3-5.1,9.2-5.2
		c2.2-0.1,4.4,0.4,6.7,0.6c1.2,0.1,2.5,0.3,4.1,0.5c-0.8-2-1.3-3.7-2-5.3c-0.9-2.2-0.9-4.3,0.3-6.4c0.3-0.5,0.4-1.2,0.3-1.7
		c-2.2-6.5,0.4-11.6,5-15.9c2.1-2,4.4-3.7,6.6-5.6c0.7-0.6,1.3-1.1,2.2-1.9c-1.5-0.8-2.7-1.4-3.9-2.1c-2.3-1.3-4.6-2.6-6.8-4.1
		c-4.7-3.4-4.6-9.7,0.2-12.9c3.2-2.1,6.7-3.4,10.5-3.8c1.3-0.1,2.2-0.4,2.7-1.8c0.8-1.9,2.4-3.1,4.4-3.7c0.6-0.2,1.2-0.4,1.8-0.5
		c0.2-2.1,0.3-4.1,0.7-6c1.5-7.2,5.7-12.4,12.3-15.6c1.7-0.8,3.4-1.1,5.3-1.1c21.8,0,43.5,0,65.3,0c25.2,0,50.4,0,75.6,0
		c3.6,0,4-0.2,5.1-3.7c3-9.5,5.3-19.3,7.3-29.1c2.4-12.3,4.8-24.6,7.2-36.9c0.1-0.8,0.2-1.6,0.2-2.4c0-1.6-0.8-2.8-2.3-3.3
		c-9.8-3.4-19.4-7.5-29.7-9.3c-4-0.7-8-0.8-11.9,0.2c-4.7,1.1-8,4.1-10.5,8.2c-0.9,1.5-0.9,3.1-0.1,4.6c0.7,1.5,1.5,3,2.4,4.4
		c0.9,1.5,0.9,2.5,0.1,3.5c-0.9,1.1-2.7,1.6-3.9,1.2c-2.4-0.9-3.7-2.7-4-5.2c-0.5-4.6,0.5-8.9,3.3-12.7c4.3-5.8,10.1-8.8,17.2-9.8
		c8.6-1.1,16.9,0.3,25,2.8c5.7,1.8,11.4,3.7,17.2,5.2c9.5,2.4,19.1,2.7,28.7,0.3c5.6-1.4,10.6-3.9,15.2-7.4c0.3-0.2,0.5-0.5,0.7-0.6
		c0.6-0.1,1.4-0.3,1.7,0c0.3,0.3,0.3,1.2,0.1,1.7c-0.1,0.5-0.6,0.9-1,1.3c-7.6,7-15.8,12.7-26.2,14.7c-2.3,0.4-4.6,0.6-6.9,0.7
		c-3.9,0.1-6.6,2.5-7,6.4c-0.9,7.7-1.7,15.4-3,23c-1.8,10.7-4.7,21.2-8.3,31.5c-1.3,3.6-2.1,7.4-3.2,11.1c-0.9,2.9-1.8,5.8-2.8,8.7
		c-1.4,4.2-4.6,5.9-8.9,6c-0.7,0-1.4,0-2.2,0c-45.8,0-91.5,0-137.3,0c-2,0-3.9-0.1-5.1,1.9c-1.2,2.1-1,4.3-0.1,6.5
		c0.1,0.2,0.2,0.4,0.4,0.6c1.8,2.7,1.6,5.4,0,8.1c-0.5,0.8-0.5,1.4-0.2,2.2c1.5,3.8,0.3,6.9-2.5,9.5c-1.1,1-2.3,1.7-3.7,2.6
		c1,3.3-0.7,6-2.6,8.7c-3.1,4.5-6.7,8.6-11.1,11.9c-1,0.8-2,1.6-3.2,2.6c1.1,0.4,1.9,0.7,2.7,1c2.8,1,5.5,2.3,7.4,4.7
		c1.1,1.4,2.2,3.1,2.5,4.8c1,4.3-2.2,8.4-6.7,8.8c-1.3,0.1-2.5,0-4,0c0,0.5,0,1,0,1.5c0,1.8-0.5,3.5-1.6,4.9c-4.7,6-10.8,9-18.6,8.1
		c-0.7-0.1-1.4-0.2-2.3-0.3c0.4,2,0.8,3.5,2.5,4.7c4.8,3.4,6.7,9,5,14.4c-1.7,5.6-7,9.6-12.6,9.8c-0.6,0-1.3,0.1-2,0.1
		c-0.4,3.2-1.1,6.2-3.7,8.3c-2.6,2-5.5,2.5-8.8,1.8c-0.4,2.1-0.9,4.2-1.1,6.3c-0.1,0.5,0.5,1.3,1,1.7c2.2,1.8,4.1,3.8,5.5,6.3
		c1.4,2.6,2.2,5.3,2.1,8.3c-0.1,4.3-1.8,7.7-5.3,10.2c-0.6,0.5-1.3,0.9-2.1,1.4c0.4,4.4-1.4,8-4.8,11.3c1.1,0.1,1.8,0.2,2.4,0.1
		c16.7-1.5,33.4-1.2,50.1-1.1c10.4,0.1,20.8,0.3,31.2,0.3c160.9,0,321.8,0,482.6,0c1.1,0,2.2,0,3.6,0c0.5-2.5,1.2-4.9,1.6-7.3
		c0.8-5.1,1.5-10.3,2-15.4c0.4-3.5,1.9-6,5.2-7.4c2.1-0.8,4.1-0.5,6,0.5c2.5,1.2,5.1,1.7,7.9,1.1c3.7-0.9,5.8-3.2,6.2-7
		c0.4-3.3,0.6-6.7,0.9-10c0.6-7.9,4.5-13.6,11.7-17.1c4.8-2.4,10-3.9,15.2-5.1c19.2-4.7,36.8-12.8,52.6-24.6c2-1.5,4.2-2.9,6.3-4.4
		c3.2-2.4,7-3.1,10.8-3.3c5.3-0.3,4.3,0.3,5.3-4.7c0.4-2.1,0.8-4.3,1.3-6.3c1.6-5.9,4.6-8.3,10.8-8.8c0.6,0,1.1-0.1,1.7-0.2
		c0.8-2.1,1.5-4.2,2.4-6.3c2.1-5.3,5.1-10,9.9-13.2c4.8-3.2,10-4.9,15.9-3.9c3.5,0.6,6,2.5,7.5,5.6c1.3,2.6,1.8,5.3,1.8,8.1
		c0,0.9,0,1.7,0,2.8c1.4-0.3,2.2-1.3,2.9-2.1c2.2-2.6,4.3-5.2,6.4-7.8c2.6-3.2,5.4-6.4,8.8-8.8c4.2-2.9,8.7-4.6,13.9-4.2
		c4,0.3,7.1,2.1,9.9,5.4c0.5-0.9,0.9-1.7,1.2-2.4c1.9-4.1,3.7-8.3,5.8-12.4c3.4-6.5,8.2-11.8,14.9-15.1c2.5-1.2,5-2.1,7.8-2.3
		c0.5,0,0.9-0.2,1.6-0.4c-0.2-7.1,0.6-14,4.7-20.4c-0.7-0.1-1.2-0.2-1.7-0.2c-7.9,0.2-15.8,0.9-23.6,2.1
		c-10.6,1.7-21.1,3.6-31.8,4.4c-6,0.4-12,0.7-18,0.9c-14.7,0.3-29.4,0.7-44.1,0.7c-16.4-0.1-32.8-0.5-49.2-1
		c-15.7-0.5-31.5-1.2-47.2-1.9c-14-0.6-27.9-1.2-41.9-1.8c-9-0.3-18.1-0.5-27.1-0.8c-4.2-0.1-8.3-0.3-12.3-1.7
		c-4.1-1.3-8-1-11.9,0.8c-1.9,0.8-3.9,1.5-5.8,2.2c-7.1,2.7-11.9,0.6-14.9-6.7c-0.6,0.6-1.2,1.1-1.7,1.6c-3.1,2.9-6.4,5.6-10.3,7.4
		c-2,0.9-4,1.5-6.2,1.5c-7.2,0.1-10.9-4.2-12.1-10.6c-0.1-0.8-0.2-1.5-0.3-2.6c-0.7,0.4-1.2,0.7-1.6,1c-3.3,2.7-6.5,5.4-9.8,8.1
		c-0.9,0.8-1.7,1.7-2.5,2.6c-1.5,1.6-1.8,3.1-1.1,5.4c2.2,7.1,2.5,14.5,0.8,21.8c-0.6,2.5-1.7,4.8-3.2,6.9c-3,4-7.1,5.3-11.9,4.5
		c-3.8-0.7-6-3.6-5.7-7.7c0.2-2.4,0.7-4.9,1.4-7.3c1.9-6.2,4.7-12.1,8.4-17.4c0.9-1.3,1.1-2.4,0.4-3.8c-0.4-0.7-0.5-1.5-0.8-2.2
		c-2.5-5.4-3-11-1.9-16.9c0.1-0.4,0.2-0.8,0.3-1.5c-0.6,0.5-1,0.7-1.3,1c-3.8,3.7-7.5,7.5-11.3,11.1c-0.9,0.8-0.9,1.5-0.6,2.5
		c1.3,3.7,1.9,7.6,1.7,11.6c-0.1,2.1-0.4,4.1-1,6.1c-1.6,5.6-5.5,8.8-11,10.2c-7.2,1.7-12.9-4.7-11.2-11.1c0.9-3.2,2-6.3,4.1-8.9
		c1.8-2.2,3.7-4.4,5.6-6.5c0.8-1,1.8-1.8,2.7-2.8c-1.3-4.1-3.9-7.1-6.6-10.5c-0.6,0.5-1.2,0.9-1.8,1.5c-4.2,3.8-8.6,7.1-13.6,9.8
		c-2.9,1.6-6,2.6-9.4,2.3c-4.6-0.4-7.8-2.6-9.6-6.9c-0.2-0.4-0.4-0.9-0.6-1.3c0-0.1-0.1-0.1-0.4-0.2c-0.4,0.6-0.8,1.3-1.2,1.9
		c-3.9,6.3-8.3,12.1-13.6,17.3c-0.7,0.7-1.5,1.4-2.4,2c-4.4,3.1-9.2,1.4-10.8-3.8c-0.8-2.7-0.8-5.4-0.2-8.1
		c0.9-4.4,1.9-8.7,2.8-13.1c1.2-5.9,2.4-11.7,3.5-17.6c0.1-0.7,0.2-1.4,0.3-2.6c-0.7,0.6-1.1,0.8-1.4,1.2c-1.6,2.3-3.3,4.5-4.7,6.9
		c-3.7,6.1-7.3,12.2-10.9,18.3c-1.4,2.3-2.8,4.5-5.2,5.9c-1,0.6-2.1,1.1-3.3,1.4c-2.5,0.5-4-0.6-4.5-3.1c-0.2-1.1-0.2-2.2-0.2-3.3
		c0-0.8,0.1-1.6-0.2-2.5c-0.4,0.5-0.8,1.1-1.1,1.6c-3.1,4.5-6,9.1-9.2,13.5c-1.5,2.1-3.5,3.9-5.3,5.8c-0.4,0.5-1,0.9-1.5,1.2
		c-4.5,3.2-9.3,1.5-10.9-3.8c-0.8-2.7-0.8-5.6-0.1-8.3c2.1-8.7,4.4-17.3,6.6-26c1.4-5.7,2.8-11.5,4.3-17.2c0.1-0.4,0.1-0.8,0.2-1.6
		c-0.7,0.6-1.1,0.8-1.4,1.2c-1.7,2.5-3.4,5-4.9,7.7c-4.4,8.1-8.7,16.2-13.1,24.3c-1.4,2.6-2.8,5.3-5.2,7.1c-1.3,0.9-2.7,1.7-4.2,2.1
		c-2.5,0.6-4.3-0.6-4.6-3.2c-0.2-1.9,0-3.8,0.1-5.7c0.3-2.9,0.7-5.7,1.1-8.9c-0.9,0.7-1.5,1.2-2.1,1.7c-3.6,3.1-7.4,5.8-11.6,8
		c-3.2,1.7-6.6,2.8-10.4,2.1c-4.2-0.7-7-3-8.5-6.9c-2.1-5.5-1.5-10.8,0.7-16.1c2.4-5.6,6.6-8.9,12.7-9.7c3.8-0.5,7.3,0.4,10.4,2.7
		c3.5,2.6,3.9,6.5,1.1,9.9c-2.8,3.5-6.7,4.5-10.9,4.2c-1.5-0.1-3-0.4-4.6-0.6c-1,2.7-1.6,5.5-1.2,8.4c0.5,3.3,2.7,4.7,5.9,3.7
		c1.6-0.5,3.2-1.1,4.6-2c2.7-1.8,5.4-3.7,7.9-5.8c2.7-2.2,5.1-4.6,7.7-6.8c1.6-1.4,3.4-1.3,5.2-0.7c1.6,0.5,1.9,2.1,2,3.5
		c0.1,2.2,0,4.3,0,6.5c0,0.9,0,1.9,0.4,2.9c0.5-0.8,1-1.5,1.4-2.3c3.4-6.3,6.7-12.7,10.2-19c2-3.5,4.4-6.7,6.7-9.9
		c0.8-1.1,1.8-2,2.9-2.9c4.8-3.6,10.8-1.2,12,4.6c0.8,4.3,0.2,8.6-0.7,12.8c-1.9,9.2-5.2,17.9-8.2,26.8c-1.1,3.4-2.1,6.9-3.2,10.3
		c-0.1,0.3-0.1,0.6,0.2,1.1c1.2-1.2,2.5-2.3,3.6-3.6c7-8.3,13-17.2,17.3-27.2c0.8-1.9,2.3-2.7,4.9-2.4c1.8,0.2,2.8,1,3,3.1
		c0.2,2.8,0.1,5.6,0.1,8.4c0,0.5,0.1,1,0.1,2.1c0.7-1.2,1.1-1.8,1.5-2.4c4.1-6.8,8.1-13.6,13.1-19.8c0.9-1.2,2-2.3,3.1-3.3
		c2.4-2.1,5.1-2.5,8.1-1.4c2.9,1.1,4,3.5,4.5,6.3c0.6,3.9,0.1,7.8-0.7,11.7c-1.7,8.7-3.9,17.3-6.7,25.7c-0.1,0.3-0.1,0.6-0.3,1.4
		c0.9-0.7,1.4-1.1,1.9-1.5c6.8-6.7,12.2-14.3,16.6-22.8c0.6-1.1,0.9-2.4,1.4-3.6c2.1-6.1,5.8-10.5,12.5-11.7c4-0.7,7.8,0,11.2,2.3
		c3.8,2.7,4.3,6.8,1.2,10.3c-2.2,2.6-5.1,3.9-8.4,3.9c-2.3,0-4.6-0.2-7-0.4c-0.9,2.4-1.3,4.9-1.3,7.4c0,0.8,0.2,1.6,0.5,2.3
		c0.8,2,2.6,3,4.7,2.3c2.3-0.7,4.4-1.8,6.5-2.9c1.9-1.1,3.6-2.4,5.2-3.8c2.4-2,4.7-4.1,7.1-6.3c-0.3-0.9-0.5-1.7-0.7-2.5
		c-0.9-3.3,0-6,2.8-8c2.9-2.1,6.9-2.4,9.4-0.6c1,0.7,1.8,1.4,1.7,2.7c-0.1,1.3-1.1,1.9-2.2,2.3c-0.7,0.3-1.5,0.4-2.3,0.5
		c-1.5,0.4-1.8,1-1.2,2.4c0.1,0.3,0.3,0.6,0.5,0.8c2.6,3.6,5.1,7.3,7.8,11.1c2.4-2.3,5-4.6,7.5-6.9c4.1-3.8,8.2-7.7,12.2-11.5
		c2.7-2.5,5.7-4.4,9.4-4.8c2.9-0.3,5.4,0.5,7.1,3c0.5,0.8,0.8,1.8,0.9,2.7c0.1,1.2-0.8,2.2-2.2,2.5c-1.2,0.3-2-0.1-2.7-1.4
		c-1.1-2.2-2-2.3-3.7-0.6c-4.6,4.8-7.1,10.4-6.5,17.1c0.2,2.4,0.9,4.6,2.1,7c1.5-1.1,2.9-2.1,4.2-3.2c4.7-3.6,9.3-7.3,13.9-11
		c0.5-0.4,0.8-1.1,1.1-1.7c0.8-1.7,1.4-3.6,2.4-5.2c4-6.6,12.6-9.1,19.5-5.8c6.2,2.9,6.9,8.9,1.5,13.1c-3.1,2.4-6.7,2.8-10.5,2.2
		c-1-0.1-2-0.4-3.2-0.6c-1.1,2.8-1.6,5.6-1.3,8.5c0.4,3.6,3.1,5.1,6.4,3.6c1.6-0.8,3.2-1.8,4.6-2.9c4.7-3.9,8.7-8.4,12.1-13.5
		c3.6-5.5,11.2-7.4,17-4.2c4,2.2,4.4,6,1,9c-2.3,2-5,2.4-7.9,2.1C600.3,427,599.5,426.9,598.5,426.7z M511.2,441
		c-4.7,3.6-8.4,7.8-9.8,13.7c-0.1,0.5-0.1,1.2,0.1,1.6c0.3,0.7,0.8,1.5,1.5,1.7c3.4,1.4,5.7,0.5,7-2
		C512.3,451.3,512.6,446.3,511.2,441z M536.1,451.2c-0.5,0.4-0.7,0.5-0.8,0.7c-2,4.2-4.2,8.4-6.1,12.7c-0.7,1.6-1,3.5-1.1,5.4
		c-0.2,2.4,1.2,3.2,3.3,1.9c0.8-0.5,1.5-1.2,2-2c0.7-1.2,1.3-2.6,1.7-3.9c1.1-3.7,1.3-7.5,1.2-11.4
		C536.3,453.6,536.2,452.5,536.1,451.2z M344.6,410.8c1.5,0.4,2.7,0.9,3.9,1c2.1,0.3,3.9-0.6,5.3-2.1c0.8-0.9,1.3-1.9,0.7-3.1
		c-0.6-1.2-1.8-1.2-2.9-1C348.8,406.3,346.3,407.6,344.6,410.8z M570.8,420.2c1.8,0.3,3.2,0.7,4.7,0.9c2,0.2,3.5-0.8,4.8-2.2
		c0.7-0.9,1.1-2,0.5-3.1c-0.6-1.1-1.7-1.1-2.8-0.9C575.1,415.6,572.5,416.9,570.8,420.2z M479.5,416.6c1.6,0.9,3.2,1.4,4.9,1.2
		c2-0.2,3.7-1.1,4.7-2.9c0.4-0.7,0.5-1.8,0.1-2.4c-0.4-0.6-1.5-1.1-2.2-1C483.8,412.1,481.2,413.5,479.5,416.6z M606.7,420.2
		c-2.4-1.1-5-0.1-6.3,2.3C603.5,423.6,605.3,423,606.7,420.2z"/>
</g>
</svg>
