<?xml version="1.0" encoding="utf-8"?>
<!-- Generator: Adobe Illustrator 23.0.4, SVG Export Plug-In . SVG Version: 6.00 Build 0)  -->
<svg version="1.1" id="Layer_1" xmlns="http://www.w3.org/2000/svg" xmlns:xlink="http://www.w3.org/1999/xlink" x="0px" y="0px"
	 viewBox="0 0 1008 1008" style="enable-background:new 0 0 1008 1008;" xml:space="preserve">
<g>
	<path d="M856,345.1c-4.8-1.8-7.5-5.8-10.3-9.5c-1.8,0.5-3.5,1.1-5.2,1.4c-2.7,0.5-5.4,0.3-8.1-0.4c-6.7-1.8-13.4-3.8-19.7-6.7
		c-6.2-2.9-11.7-6.8-15.9-12.4c-1.3-1.7-3-2.5-5.1-2.6c-9.9-0.2-19.8-0.5-29.7-0.6c-5.3,0-10.5,0.5-15.8,0.6c-2,0-4.2-0.2-6.1-0.7
		c-4.8-1.4-9.5-1.4-14.1,0.4c-0.4,0.1-0.7,0.3-1.1,0.5c1,2.2,2,4.3,2.8,6.4c1.6,4.1,2.6,8.4,2.6,12.8c0,9-7.7,15.1-16.4,12.8
		c-3.8-1-6.2-3.6-7.4-7.2c-1.4-4.4-1.5-8.9,0.8-13c1.6-2.9,3.6-5.6,5.5-8.4c0.5-0.7,1.1-1.3,1.8-2.2c-2.1-2.6-4.2-5.2-6.4-8
		c-1.2,2.2-2.4,4.2-3.5,6.2c-2.2,3.9-4.8,7.4-8.4,10c-1.9,1.4-4,2.3-6.3,2.7c-4.2,0.7-7.2-1.5-7.6-5.8c0-0.3-0.1-0.6-0.1-1.2
		c-0.6,0.5-1.1,0.8-1.6,1.2c-2.4,2.1-5.2,2.7-8.3,2.4c-1.9-0.2-3.4-1.2-4.7-2.7c-0.5-0.6-0.9-1.3-1.5-2.1c-0.9,1.8-1.7,3.4-2.6,5
		c-2.6,4.8-5.5,9.4-9.4,13.2c-1.7,1.6-3.6,2.9-5.8,3.8c-3.8,1.6-7.2,0.8-10.2-1.9c-1.9-1.7-3.2-3.8-4.1-6.1c-0.5-1.2-1-2.5-1.6-4
		c-0.6,0.7-1,1.2-1.4,1.6c-1.6,1.9-3.2,3.8-4.7,5.7c-0.7,0.9-1.6,1-2.6,0.9c-1.7-0.2-2.3-1.2-1.3-2.6c1.9-2.9,3.7-5.8,5.9-8.5
		c1.4-1.8,1.5-3.3,0.6-5.2c-1.4-3.3-2.6-6.7-4-10.4c-0.9,0.9-1.8,1.7-2.6,2.6c-3.3,3.4-7,6.4-11,8.9c-2.7,1.7-5.6,3.1-8.9,3.1
		c-5.5,0-9.4-2.6-11.1-7.8c-2.3-7.1-1.4-13.8,3.1-19.8c4.1-5.6,12.8-7.2,18.9-3.9c0.4,0.2,0.8,0.5,1.2,0.8c3.3,2.5,3.9,6,1.5,9.5
		c-2.2,3.2-5.4,4.7-9.2,5c-2,0.1-4,0-6.2,0c-0.8,2.8-1.3,5.8-0.4,8.9c0.8,2.6,2.8,3.7,5.4,2.8c1.8-0.7,3.7-1.5,5.3-2.8
		c3.2-2.5,6.1-5.3,9.1-8.1c1.1-1,2-2.1,3-3.1c0.7-0.6,1.1-1.2,1.2-2.2c0.2-1.7,1-2.3,2.7-2.5c2.3-0.2,4.1,0.7,5.2,2.7
		c1.1,2,2.1,4.1,3.1,6.2c0.4,0.9,0.8,1.7,1.3,2.9c0.5-0.8,0.8-1.4,1.1-2c1.4-2.3,2.7-4.7,4.2-7c1.8-2.6,4.4-4.2,7.3-5.3
		c0.9-0.3,1.9-0.4,2.8-0.4c0.9,0,1.9,0.5,2,1.4c0.1,0.8-0.2,1.8-0.6,2.4c-0.4,0.6-1.3,1-2,1.3c-3.3,1.3-5.7,3.6-7.3,6.6
		c-1.4,2.7-2.7,5.4-4,8.2c-0.3,0.7-0.4,1.6-0.2,2.3c0.7,2.3,1.6,4.5,2.5,6.7c0.9,2,2,3.8,3.8,5.2c2,1.5,2.6,1.6,4.4,0.1
		c1.3-1,2.5-2.1,3.5-3.3c4.4-5.5,7.8-11.7,10.2-18.3c0.2-0.7,0.3-1.4,0.4-2.1c1.1-10.1,8.9-17.4,19.1-17.8c1.5-0.1,3.1,0.1,4.5,0.5
		c3.8,1,6,4.6,5.4,9c-0.3,2.2-0.9,4.4-1.4,6.5c-0.8,3.3-1.6,6.5-2.3,9.8c-0.3,1.4-0.4,3.1,0.9,4c1.5,0.9,2.7-0.4,3.8-1.3
		c1.4-1.2,2.8-2.5,3.8-4c2.6-3.7,5.1-7.5,7.6-11.3c-0.3-0.8-0.5-1.3-0.7-1.8c-1.9-4.4-1.6-8.8,0.2-13c2-4.8,8.2-6.9,12.8-4.6
		c3.3,1.6,4.3,5,2.4,8c-1.1,1.8-2.5,1.8-3.6-0.1c-0.2-0.4-0.5-0.8-0.8-1.2c-1.6,0.2-2.1,1.3-2.1,2.5c0,1.2,0.2,2.4,0.5,3.5
		c1.3,4.6,4.3,8.3,7.4,12.1c0.8-0.7,1.4-1.2,2-1.7c1.2-1.1,2.3-2.2,3.5-3.3c3.5-3.2,7.6-4.9,12.4-5.1c8.1-0.3,16.1-0.9,24.2-0.8
		c10,0,20,0.5,30,0.9c5.2,0.2,9.7,2,13,6.2c5.6,7.1,13,11.1,21.6,13.5c1.1,0.3,2.2,0.6,3.2,1c3.1,1.2,6.2,1.2,9.4,0.4
		c7-1.7,12.8,0.4,17.1,6.2c0.7,1,1.5,1.8,2,2.5c2.1,0.2,4,0.2,5.7,0.6c3.1,0.9,4.8,3.3,5,6.6c0,0.8,0,1.6,0,2.4
		c0,31.9,0,63.8,0,95.8c0,1.8,0.4,3.2,1.6,4.6c2.5,2.9,4.1,6.5,5.5,10c2.3,5.9,4.6,11.8,6.9,17.6c1.5,3.7,2.7,7.5,2.9,11.6
		c0.1,1.6,0,3.2-0.1,4.8c-0.2,2.4,0.6,4.4,2.6,5.9c0.8,0.6,1.5,1.3,2.2,1.8c6.6,4.8,8.9,11.4,8.3,19.3c-0.3,4.1-1.5,8-3.3,11.7
		c-1,2.2-2,4.3-3.1,6.5c-2.2,4.7-2.7,9.5-1.3,14.5c0.5,1.9,1,3.9,1.2,5.9c0.6,4.5,0,8.8-2.2,12.8c-1.7,3.2-3.7,6.4-5.8,9.4
		c-3.9,5.5-7,11.2-8.5,17.8c-1.2,5.2-1.4,10.4-1.2,15.7c0.2,6.8-4.9,10.4-11.3,7.8c-1.9-0.8-3.8-0.8-5.5,0.2c-2.5,1.4-4.9,3-7.3,4.6
		c-3.6,2.5-7.4,4.5-11.7,5.2c-6.3,1-12.1-0.1-16.8-4.9c-1.9-2-3-4.5-4-7.6c-0.6,1-1.1,1.6-1.5,2.3c-3.7,6.6-7.3,13.3-11,19.9
		c-2.8,5.1-5.7,10.2-8.7,15.2c-7.5,12.2-18,20.2-32.1,23.2c-2.9,0.6-5.7,1.5-8.6,2.3c-6.1,1.6-11.6,4.4-16.8,8c-2.9,2-5.8,4-8.8,5.9
		c-3.4,2.1-7,3.9-11,4.6c-1.8,0.3-3.6,0.4-5.5,0.5c-0.9,0.1-1.8,0.1-2.6,0.2c-1.6,0.2-2.6,1-3.1,2.6c-0.7,2-1.5,4-2.5,6
		c-2.4,4.9-6.1,8.8-10.6,11.9c-3.4,2.4-7,4.5-10.5,6.7c-1.7,1.1-3.3,2.2-5,3.2c-6.2,3.9-8.9,9.6-9.2,16.7c-0.2,3.3-0.4,6.6-1,9.8
		c-1.2,6.9-4,12.9-9.7,17.3c-0.1,0.1-0.2,0.3-0.4,0.6c2.6,4.1,2,8.7,0.9,13.1c-2.1,7.9-1.1,15.6,0.8,23.2c2.2,8.6,5.6,16.8,8.9,25
		c1.8,4.4,4.5,8.1,8.1,11.2c0.7,0.6,1.4,1.3,2.1,2c6.2,5.8,5.6,14.6,0.3,20.2c-5.3,5.6-11.9,7.8-19.4,6c-3.7-0.9-7.3-2.3-10.8-3.8
		c-7.4-3.2-15-4.8-23.1-4.2c-1.2,0.1-2.4,0.1-3.6,0c-5.2-0.3-9.1-2.7-11.5-7.4c-0.1-0.3-0.3-0.5-0.5-0.9c-0.8,0.1-1.6,0.1-2.4,0.3
		c-5,0.9-9.9,0.2-14.5-1.8c-3.1-1.4-6.1-2.8-9.1-4.2c-3.6-1.7-7.3-2.6-11.4-2.4c-1.6,0.1-3.2-0.1-4.8-0.3c-3.7-0.5-6.3-2.6-8.2-5.7
		c-1.6-2.7-2.1-5.7-2.5-8.7c-0.3-2.2-0.5-2.6-2.7-2.4c-6.8,0.6-13.9-5-16-13.3c-0.8-2.9-1.1-6-1.5-9c-0.4-3.1-1-6.2-2.6-8.9
		c-4-6.6-3.9-13.5-1.9-20.6c0.5-1.6,0.9-3.2,1.3-4.9c0.7-2.6,0.2-5.1-1.3-7.3c-0.8-1.3-1.8-2.4-2.9-3.5c-2.4-2.5-4.9-5-7.5-7.5
		c-4.1-4-7.5-8.6-9.8-13.8c-1.2-2.7-2.9-4.1-5.9-3.9c-7.1,0.3-12.6-2.8-17.5-7.5c-4.9-4.8-8.6-10.5-12-16.4
		c-6.5-11.4-10.6-23.6-12.6-36.5c-0.2-1-0.4-2-0.5-3.1c-0.8-4.6-3-8.4-7-11c-0.8-0.5-1.5-1.2-2.4-1.7c-7-4.3-12.4-10.3-17-17
		c-3-4.4-6-8.9-9.1-13.3c-1.3-1.8-2.6-3.6-4-5.4c-4.3-5.4-9.7-8.9-16.8-9.6c-4.6-0.4-8.6-2.4-12.1-5.3c-3.5-2.9-7.2-5.6-11.3-7.6
		c-7.4-3.4-15.2-4.9-23.3-3.5c-10.2,1.8-16.9,8-20.6,17.4c-3.5,8.8-6.4,17.9-8.6,27.2c-1.1,4.7-2.3,9.3-4.4,13.7
		c-2,4.2-5.1,7.1-9.7,7.8c-2.4,0.4-5,0.3-7.4-0.1c-4.9-0.7-9-3.1-12.6-6.5c-1.3-1.2-2.6-2.4-3.7-3.7c-3.6-4.2-8.1-6-13.6-5.7
		c-1.9,0.1-3.9,0-5.7-0.3c-5.3-1-9-4.3-11.9-8.6c-0.8-1.3-1.6-2.6-2.4-3.9c-1.6-2.9-4-5-7-6.4c-1.4-0.7-2.7-1.3-4.1-1.9
		c-6.3-2.6-11.2-6.9-14.5-12.8c-3.2-5.8-6.2-11.7-9.1-17.7c-4.7-9.8-9.2-19.7-13.9-29.5c-2.2-4.6-4.8-9.1-8-13.1
		c-2.5-3.2-5.6-5.7-9.3-7.5c-2.6-1.3-5.4-2.5-7.9-4c-1.9-1.1-3.7-2.6-5.3-4.1c-1.9-1.9-3.1-4.3-3.4-7c-0.2-1.7-0.5-3.3-0.8-5
		c-0.4-2-1.5-3.4-3.4-4c-2-0.7-4.1-1.4-6.2-1.9c-7.1-1.7-12-6-15.2-12.5c-0.6-1.1-1.1-2.3-1.6-3.5c-1.3-3.1-3.5-5.4-6.4-6.9
		c-2-1.1-4.2-2-6.2-3c-1.9-1-3.9-1.8-5.8-2.9c-4.2-2.5-6.9-6.1-7.8-11c0-0.2-0.1-0.5-0.2-0.7c-0.6-5.8-3.8-9.6-8.6-12.5
		c-3.7-2.3-7.1-4.9-9.4-8.7c-1.6-2.6-2.7-5.4-3-8.5c-0.5-5.5,1.9-10.1,6.8-12.7c2.9-1.6,6.1-2.5,9.4-2.4c4.3,0,8.6,0.3,12.9,0.5
		c6.5,0.3,12.9,0.9,19.4,0.9c54.4,0.1,108.8,0,163.2,0c0.9,0,1.9,0,3,0c0.1-0.8,0.2-1.4,0.2-2c0-0.9,0-1.8,0-2.6
		c0-102.1,0-204.2,0-306.2c0-1.1,0-2.2,0.1-3.4c0.4-3.9,3.2-6.6,7.2-6.7c2.6-0.1,5.1,0,7.7,0c7,0,14.1,0,21.1,0
		c21,0.1,41.9,0.2,62.9,0.3c21.3,0.1,42.5,0.3,63.8,0.4c7.5,0,15,0.1,22.6,0.1c2.4,0,4.6,0.7,6.2,2.5c1.1,1.2,1.8,2.6,1.8,4.3
		c0,0.7,0,1.4,0,2.2c0,43.4,0,86.9,0,130.3c0,1,0,2,0,3.2c2.9,0.4,5.4-0.4,7.5-1.7c5.7-3.5,11.9-4.4,18.4-4.7
		c7.4-0.2,14.5,1.3,21.5,3.2c7.3,1.9,14.6,3.5,22.2,3.6c9.8,0.2,19.1-1.5,27.5-6.7c2.2-1.4,4.2-3.1,6.3-4.7c0.7-0.5,1.3-1.1,2.1-0.5
		c0.9,0.7,0.5,1.6,0,2.3c-0.2,0.3-0.4,0.7-0.7,1c-6.3,6.5-13.1,12.2-21.7,15.3c-4.7,1.7-7.3,2.1-15.4,2.3c-1.1,1.7-1.3,3.7-1.3,5.7
		c0.1,15.3-1.5,30.3-4.8,45.2c-1.7,7.9-3.9,15.7-7,23.1c-1.7,4-3.5,7.9-6.2,11.3c-1,1.3-2.2,2.6-3.4,3.7c-3.6,3.2-7.8,3.5-12.1,1.9
		c-0.7-0.2-1.3-0.6-1.9-1c-1.5-1.2-1.5-2.8-0.2-4.2c1.5-1.6,3.5-2.1,5.7-2c5.6,0.3,6.4-0.2,8.7-5.5c2.3-5.4,3.5-11.1,4.7-16.8
		c2.5-12.6,4-25.4,5.4-38.2c0.8-7,1.7-14,2.7-20.9c0.6-4,0.6-4.1-3.4-5.2c-7.6-2-15.1-4.1-22.7-5.9c-5.3-1.3-10.7-1.7-16.2-0.7
		c-1.7,0.3-3.3,1-5,1.7c-0.6,0.2-1.2,0.6-1.5,1.1c-2.3,3.5-5.8,4.9-9.6,5.7c-2.6,0.5-5.2,0.5-7.8-0.2c-3.7-0.9-6.8-3.5-6.8-8.9
		c0.1-41.1,0-82.2,0-123.4c0-1,0-2.1,0-3.2c-0.9-0.1-1.6-0.2-2.3-0.2c-11.8-0.1-23.7-0.1-35.5-0.2c-18.6-0.1-37.1-0.2-55.7-0.3
		c-22.3-0.1-44.6-0.3-66.9-0.4c-0.8,0-1.6,0-2.5,0c-0.1,0.7-0.2,1.3-0.2,1.9c0,0.7,0,1.4,0,2.2c0,102.4,0,204.8,0,307.2
		c0,0.9,0,1.8,0,2.6c-0.2,3.3-2.5,6.1-5.8,6.8c-1.3,0.3-2.7,0.3-4.1,0.3c-50.7,0-101.4,0-152.2,0c-8.7,0-17.4,0.1-26.1,0
		c-4.7-0.1-9.4-0.7-14.1-1.1c-3.8-0.3-7.6-0.8-11.6-0.2c0.1,1.2,0.9,1.8,1.7,2.5c1.3,1.1,2.8,2.2,4.2,3.2c1.4,1.1,2.8,2.1,4.3,3.1
		c4.5,3.3,7.3,7.8,8.4,13.3c0.2,0.9,0.4,1.9,0.6,2.8c0.4,2.4,1.6,4.2,3.8,5.3c2,1,4,2.1,6.1,2.8c6.9,2.3,11.8,6.8,15.1,13.3
		c0.8,1.5,1.6,3,2.3,4.5c1.4,2.9,3.6,4.6,6.6,5.4c2.9,0.8,5.8,1.7,8.6,2.9c6,2.6,9.8,7,10.4,13.8c0.1,0.7,0.3,1.4,0.4,2.1
		c0.2,2.6,1.6,4.2,4,5.1c1,0.4,2,0.9,3.1,1.4c8.7,3.6,15.4,9.7,20.2,17.7c3,4.9,5.7,10,8.2,15.2c6.1,12.5,12,25.1,17.9,37.7
		c2.6,5.5,6.4,9.6,12.1,12.1c2.2,1,4.3,2.1,6.4,3.3c3.4,1.8,6,4.5,7.8,7.9c0.8,1.5,1.7,2.9,2.5,4.3c1.6,2.7,4.1,3.7,7.1,3.5
		c2.8-0.2,5.6-0.2,8.3,0.4c4.9,1,8.8,3.6,12.3,7c1.9,1.9,3.9,3.8,5.9,5.6c1.6,1.4,3.3,2.6,5.7,3c0.4-0.8,0.9-1.6,1.1-2.5
		c1.2-4.2,2.4-8.4,3.6-12.7c2.4-9,5.2-17.8,8.9-26.3c5.9-13.4,16.2-21.5,30.4-24.2c16.2-3.1,30.9,0.6,43.9,10.9
		c0.6,0.4,1.1,0.9,1.7,1.4c2.4,2.1,5.2,3.4,8.4,3.8c9.5,1.1,16.9,6,23.1,12.9c4.8,5.4,8.6,11.5,12.8,17.4c2.3,3.3,4.7,6.7,7.4,9.8
		c1.9,2.2,4.2,4.1,6.5,6c1.4,1.2,3,2.2,4.5,3.2c6.9,4.3,10.9,10.6,12.7,18.4c1,4.4,1.8,8.8,2.6,13.2c1.7,9,5.3,17.2,10,25
		c1.4,2.2,2.9,4.4,4.3,6.6c0.4,0.6,0.9,1.2,1.3,1.8c3.3,4.8,7.7,7.5,13.7,7.4c5.1-0.1,9,2.3,12.2,6.2c0.5,0.6,1,1.3,1.4,1.9
		c0.7,1.1,1.5,2.1,2,3.3c2.7,5.4,6.6,9.9,10.9,14.2c2.5,2.5,4.8,5.1,7,7.9c3.9,5.1,5.9,10.8,5.1,17.2c-0.3,2.4-1,4.7-1.5,7
		c-0.3,1.3-0.6,2.6-1,4c-0.5,2.1-0.3,4.1,0.5,6.1c0.6,1.5,1.3,2.9,2,4.3c1.5,2.8,2.4,5.7,2.5,8.9c0.1,2.5,0.4,5,0.9,7.4
		c0.7,3.3,2.1,4.2,5.4,4.3c7.3,0.2,12.4,4.5,13.7,11.6c0.3,1.6,0.6,3.3,0.9,5c0.7,0,1.3,0,1.8,0c3.9-0.2,7.7,0.4,11.3,1.9
		c3.4,1.4,6.7,3,10,4.7c3.7,2,7.4,2.5,11.6,1.7c2.3-0.5,4.8-0.5,7.1-0.2c3.2,0.4,5.8,2.2,7.4,5.1c0.3,0.5,0.6,0.9,0.8,1.4
		c0.6,1.4,1.6,1.7,3.1,1.6c6.3-0.5,12.5,0.1,18.5,1.7c3,0.8,5.8,2.1,8.8,3.2c3.2,1.1,6.3,2.3,9.5,3.3c1.8,0.6,3.6,0.5,5.2-1.2
		c-0.9-0.8-1.7-1.5-2.5-2.2c-4-3.7-7-8.1-9.3-13c-4.5-10-8.5-20.2-11.1-30.8c-2.4-10-3.1-20-0.6-30.2c-0.6-0.5-1.1-0.9-1.6-1.4
		c-5.4-4.6-5.2-13.5,2-17.3c1-0.5,2-1,3-1.5c2.4-1.1,3.9-2.9,4.8-5.4c1.2-3.3,1.6-6.7,1.9-10.1c0.2-2.4,0.3-4.8,0.7-7.2
		c1.1-7.7,4.9-13.9,10.7-19c3.9-3.5,8.3-6.2,12.8-8.9c2.9-1.8,5.6-3.7,8.3-5.6c2.3-1.7,3.9-4,5-6.6c0.7-1.7,1.4-3.4,2.1-5.1
		c2.1-4.8,5.8-7.8,10.9-8.9c2.7-0.6,5.5-1,8.3-1.3c2.7-0.3,5.1-1.2,7.4-2.6c2-1.2,3.9-2.4,5.8-3.8c9.1-6.7,19.1-11.3,30-13.9
		c2.9-0.7,5.7-1.6,8.5-2.4c5.6-1.7,10.1-5,13.9-9.5c3.8-4.5,6.6-9.6,9.4-14.8c4.7-8.6,9.3-17.1,14.1-25.6c1.6-2.8,3.4-5.4,5.4-7.9
		c2.4-2.9,5.3-5,9.1-5.8c7.6-1.6,14.4,4.3,14.3,11.1c0,1.2,0.1,2.4,0.3,3.6c0.4,1.8,1.5,2.6,3.4,2.2c1.7-0.4,3.4-1,4.9-1.8
		c2-1.1,3.8-2.4,5.6-3.7c3.5-2.6,7.4-4.4,11.8-5c0.3,0,0.6-0.2,1-0.3c0.4-2.9,0.8-5.8,1.3-8.7c1.9-10.2,6.1-19.3,12.4-27.5
		c1.2-1.6,2.3-3.3,3.3-5c1.1-1.9,1.4-4.1,0.9-6.3c-0.6-2.6-1.2-5.1-1.6-7.7c-0.9-6.1,0.3-11.9,2.6-17.6c1-2.5,2.3-4.9,3.3-7.4
		c0.8-1.8,1.5-3.7,2-5.6c0.9-3.4,0.1-6.3-2.8-8.6c-0.9-0.7-1.7-1.4-2.6-2.1c-5.2-3.8-7.5-9-7.6-15.3c0-1,0.1-2.1,0-3.1
		c-0.3-2.4-0.3-4.8-1-7c-2.4-6.9-5.1-13.6-7.7-20.4c-1.2-3.2-3-6-5.7-8.2c-1.5-1.3-2.2-2.9-2.2-4.8c0-0.7,0-1.4,0-2.2
		c0-30.5,0-61,0-91.4C856,347.3,856,346.3,856,345.1z M717.5,321c-4,3-7.1,9.1-6.8,13.6c0.1,1.6,0.5,3.2,1.1,4.6
		c1.6,3.3,5.1,3.8,7.6,1.1c0.7-0.8,1.3-1.8,1.6-2.9c0.4-1.2,0.6-2.5,0.6-3.8C721.7,329.1,719.8,325.1,717.5,321z M686.6,299.4
		c-2.7-1.3-5.2-0.9-7.4,1.2c-4.7,4.5-5.8,10.1-4.6,16.2c0.4,2.1,1.5,2.5,3.5,1.5c1.6-0.8,2.5-2.3,3.1-3.8c1.8-4.6,3.5-9.2,5.3-13.9
		C686.6,300.3,686.5,299.9,686.6,299.4z M601.9,303.6c1,0.3,1.8,0.6,2.5,0.7c2.6,0.5,4.9-0.2,6.6-2.3c0.9-1.1,1-2.6,0.4-3.3
		c-0.8-0.9-1.8-0.9-2.9-0.6C605.7,298.9,603.5,300.5,601.9,303.6z"/>
</g>
</svg>
