<?xml version="1.0" encoding="utf-8"?>
<!-- Generator: Adobe Illustrator 23.0.4, SVG Export Plug-In . SVG Version: 6.00 Build 0)  -->
<svg version="1.1" id="Layer_1" xmlns="http://www.w3.org/2000/svg" xmlns:xlink="http://www.w3.org/1999/xlink" x="0px" y="0px"
	 viewBox="0 0 1008 1008" style="enable-background:new 0 0 1008 1008;" xml:space="preserve">
<g>
	<path d="M733.5,264.6c1.3-1.9,2.5-3.9,4-5.7c2-2.6,4.1-5.1,6.3-7.5c0.9-1,2.2-1.9,3.5-2.5c1.8-0.8,3.3,0,3.6,1.9
		c0.3,1.7,0.3,3.5,0.2,5.2c-0.5,8.6-1.1,17.2-1.5,25.9c-0.1,2.1,0.2,4.3,0.4,6.5c0.1,1.1,0.6,2.2,0.9,3.4c1.6-0.3,2.4-1.3,2.9-2.3
		c1.6-2.7,3.2-5.3,4.6-8.1c3.6-7.5,6.5-15.3,8.7-23.3c0.5-1.7,1.1-3.3,1.6-5c1.3-4.3,4.3-6.6,8.4-7.7c3.1-0.9,6.3-1.2,9.5-0.5
		c5.8,1.2,9.9,5.8,10.2,11.7c0,0.7,0,1.4,0,2.2c0,32.4,0,64.8-0.1,97.2c0,12.2-0.1,24.3-0.1,36.5c-0.1,27.3-0.1,54.6-0.2,81.8
		c0,23.1-0.1,46.2-0.1,69.4c0,14.7-0.1,29.4-0.2,44.2c-0.1,31.3-0.2,62.6-0.2,93.8c0,18.7-0.1,37.4-0.1,56.2c0,11.8,0,23.5-0.1,35.3
		c0,15.9-0.1,31.8-0.1,47.8c0,19.8,0,39.5-0.1,59.3c0,1.6-0.2,3.3-0.8,4.6c-1.2,2.4-3.3,3.9-6.1,4c-0.8,0-1.6,0-2.4,0
		c-198.9,0-397.7,0-596.6,0c-0.7,0-1.4,0-2.2,0c-3.7-0.2-6.5-2.6-7-6.3c-0.2-1.2-0.2-2.4-0.2-3.6c0-121.5,0-243,0-364.5
		c0-139.9,0-279.8,0-419.7c0-1,0-2.1,0-3.1c0.4-4.4,3.3-7.2,7.7-7.2c7.2,0,14.4,0,21.6,0c13.7,0,27.4,0,41-0.1
		c22.4-0.1,44.8-0.3,67.2-0.5c17.7-0.1,35.4-0.3,53-0.5c17.7-0.2,35.4-0.3,53-0.5c19.9-0.2,39.8-0.3,59.7-0.4
		c22.2-0.1,44.5-0.2,66.7-0.3c2.2,0,4.3,0.3,6.1,1.8c2.1,1.7,2.7,4,2.7,6.6c0,10.8,0,21.6,0.2,32.4c0.3,19.7,0.8,39.3,1.2,59
		c0.2,9.8,0.3,19.5,0.4,29.3c0.1,5.8,0.1,11.5,0.2,17.3c0,1-0.1,2.1,1.2,2.8c0.4-0.7,0.8-1.4,1.2-2.1c1.9-2.8,3.6-5.7,5.7-8.3
		c1.3-1.6,2.9-3,4.7-4.1c6.1-3.6,12.4-0.3,13.3,6.6c0.7,5.6,0.1,11-1.2,16.4c-2.6,10.5-5.5,20.9-8.1,31.3
		c-1.4,5.6-2.7,11.2-3.8,16.8c-0.5,2.5-0.4,5.1-0.2,7.6c0.3,3.8,2.5,5.1,6.2,3.9c2.8-0.9,5.1-2.7,7.1-4.7c4.3-4.3,7.9-9,11-14.2
		c4.8-7.9,9.5-15.9,13.8-24.2c5.4-10.4,10.4-21.1,15.3-31.7c2.7-5.9,5-11.9,8.1-17.6c1.7-3.1,4.7-4.3,8.1-3.3
		c1.9,0.6,2.6,1.7,2.2,3.6c-0.4,1.9-1,3.7-1.5,5.5c0.2,0.2,0.3,0.4,0.4,0.4c4.2-0.4,8.3,0,12.4,0.7c2.1,0.3,3.2-0.3,4.2-2.2
		c1.1-2.1,2.3-4.3,3.7-6.2c1.1-1.5,2.6-2.8,4.1-4c1.2-0.9,2.7-0.9,4.1,0c1.2,0.8,1.4,2.2,1.1,3.4c-0.3,1.2-0.7,2.4-1.2,3.6
		c-0.9,2.1-1.9,4.2-3,6.6c2.3,0.4,4.3,0.7,6.4,0.9c6.8,0.7,13.5,1.1,20.3,0.2c3.6-0.5,7.1-1.3,9.6-4.3c0.5-0.6,1.2-1,1.9-1.4
		c1-0.5,2-0.4,2.8,0.5c0.8,0.9,1,2,0.3,2.8c-1,1.2-2.1,2.4-3.4,3.3c-3.3,2.1-7.2,3.1-11,3.9c-8.6,1.7-17.3,2.1-26,0.5
		c-0.2,0-0.3,0-0.5-0.1c-2.5-0.4-2.9-0.2-3.7,2.2c-1.1,3.1-2.1,6.2-2.9,9.4c-2.1,8.6-3.6,17.4-4.3,26.2c-0.4,4.7-0.5,9.4,0.4,14.1
		c0.4,1.9,1,3.7,1.9,5.4c1.4,2.6,3.4,3,5.8,1.4c1.2-0.8,2.3-1.7,3.2-2.8c6.1-7.1,10.5-15.1,12.9-24.1c2.7-10,13.3-17,23.1-14.9
		c4.2,0.9,6.4,3.3,6.7,7.6c0.2,2.4-0.3,4.7-1.1,7.1c-1.1,3.2-2.1,6.4-2.9,9.6c-0.4,1.6-0.4,3.3-0.3,5c0.1,1.8,1.2,2.5,2.8,1.6
		c1.6-0.9,3.1-2,4.4-3.3c3.5-3.5,6.1-7.6,8.6-11.8c0.6-1,0.8-2.4,1-3.7c2.1-11.9,5-23.6,9.6-34.8c1.8-4.3,3.9-8.4,6.8-12.1
		c1.7-2.1,3.6-3.9,6.3-4.6c4.4-1.2,7.5,1,7.7,5.5c0.1,3-0.5,5.9-1.3,8.7c-2.2,8.1-5.8,15.6-9.5,23c-3,6.1-6.3,12-9.6,18
		c-1.8,3.3-2.3,6.9-2.9,10.5C733.2,264.5,733.3,264.5,733.5,264.6z M195.6,873.5c0.8,0,1.4,0.1,1.9,0.1c194.2,0,388.5-0.1,582.7-0.1
		c0.1,0,0.1-0.1,0.2-0.1c0.1-0.1,0.1-0.1,0.3-0.3c0-0.8,0-1.8,0-2.7c0-16.2,0-32.3,0-48.5c0.1-47,0.2-93.9,0.3-140.9
		c0-23.5,0.1-47,0.1-70.6c0.1-37.5,0.2-75,0.3-112.5c0.1-19.6,0.1-39.2,0.1-58.8c0-27.7,0.1-55.4,0.1-83c0-32.6,0-65.3,0.1-97.9
		c0-0.7,0-1.4,0-2.2c-0.2-2.1-2.1-3.7-4.5-3.8c-2.9-0.1-4.1,0.8-4.8,3.2c-1.5,5.4-2.9,10.8-4.8,16.1c-2.3,6.6-5.1,12.9-9.1,18.7
		c-1.5,2.2-3.2,4.2-5.4,5.7c-3.9,2.6-7.3,1.7-9.2-2.5c-1-2.3-1.7-4.8-2.1-7.3c-1.2-7.4-0.6-14.8,0.7-22.2c0.4-2,0.8-4,1.2-5.9
		c-0.8,0.6-1.3,1.3-1.8,2c-2.7,4-5.4,8.1-8.2,12.1c-0.8,1.2-1.9,2.2-3,3c-1.6,1.2-3.5,0.9-4.7-0.6c-0.7-0.8-1.3-1.9-1.4-3
		c-0.3-2.3-0.2-4.6-0.3-6.9c0-0.5,0-1,0-1.5c-0.8,0.6-1.2,1.3-1.7,1.9c-2.1,2.2-4,4.5-6.3,6.6c-2.1,1.9-4.7,3-7.6,3.3
		c-3.9,0.5-7-1.8-7.4-5.7c-0.1-0.6-0.2-1.2-0.3-2.1c-2.7,2.4-5.4,3.8-8.9,3.7c-3.7-0.1-5.8-2.4-7.7-5.4c-0.5,1-0.8,1.7-1.2,2.4
		c-2.4,4.8-5.3,9.4-9.2,13.1c-1.9,1.9-4.1,3.7-6.4,5c-7.1,4.1-14.5,1.8-17.1-6.3c-0.9-2.9-1.4-6.1-1.9-9.1c-0.3-1.4-0.2-2.8-0.3-4.1
		c-0.8,0.5-1.2,1.1-1.5,1.7c-2.5,4.3-5.1,8.5-7.7,12.7c-2.2,3.5-4.7,6.9-7.7,9.8c-1,0.9-2,1.9-3.2,2.6c-4.1,2.5-8.5,1-10.2-3.4
		c-0.5-1.2-0.8-2.4-1-3.7c-0.9-4.2-0.3-8.4,0.2-12.6c1.2-8.6,3.6-16.9,6.3-25.1c0.5-1.6,1.1-3.3,1.6-5c-0.9,0.9-1.4,1.9-1.9,2.9
		c-6.1,12.2-12.2,24.3-19.5,35.8c-3.7,5.7-7.6,11.3-12.5,16.1c-2,2-4.4,3.8-6.8,5.3c-7.3,4.4-16.9,0.1-19.3-7.6
		c-1.3-4.2-2.1-8.4-1.7-12.8c0.4-5.5,1.1-11,2-16.4c1.8-10.7,5.3-20.9,8.5-31.2c1-3.1,2-6.2,2.9-9.4c0.4-1.4,0.7-2.9-0.2-4.4
		c-1.7,0.5-2,0.6-3.4,2.2c-4,4.5-7.3,9.5-9.6,15.1c-0.9,2.3-2.6,3.6-5,3.9c-5.8,0.9-12.6-2.8-12.7-11.5c-0.3-23.4-0.6-46.7-0.9-70.1
		c-0.3-20.8-0.6-41.6-1-62.4c0-0.7-0.1-1.4-0.2-2.2c-1.1,0-2,0-2.8,0c-8.1,0-16.2,0-24.2,0.1c-23.4,0.1-46.9,0.3-70.3,0.4
		c-19,0.1-38.1,0.3-57.1,0.5c-17.2,0.2-34.4,0.3-51.6,0.5c-27.3,0.2-54.5,0.4-81.8,0.6C237.9,99,219.6,99,201.4,99
		c-1.9,0-3.8,0-5.8,0C195.6,357.3,195.6,615.3,195.6,873.5z M626.3,287.3c1.1-0.9,2-1.4,2.6-2.2c2.2-2.7,4.4-5.3,6.3-8.1
		c4.4-6.8,8.5-13.7,12.7-20.6c0.6-1,1-2.4,1.1-3.6c1.4-10.9,3.5-21.6,7.6-31.8c0.2-0.4,0.2-0.9,0.5-1.7c-5-1-9.9-2-14.9-0.7
		c-0.2,0.5-0.3,0.8-0.4,1.1c-4.1,14.1-8.4,28.1-12.3,42.3c-1.6,5.8-2.6,11.7-3.7,17.6C625.4,281.9,625.2,284.4,626.3,287.3z
		 M692.9,260.3c0,0.7,0,1.4,0,2.2c0,0.5,0.2,0.9,0.3,1.4c0.6,2.2,1.6,2.8,3.7,1.7c0.8-0.4,1.6-1.1,2.1-1.8c0.9-1.2,1.6-2.6,2.2-4
		c1.6-3.8,3.1-7.7,4.6-11.6c0.8-2.1,0-3.2-2.3-3.2c-2.1,0-3.8,0.8-5.4,2.2C694.3,250.7,692.8,255.2,692.9,260.3z M751.1,205.3
		c-1.8,0.8-2.5,2.2-3,3.5c-1.5,3.5-3,7.1-4.1,10.7c-2,6.4-3.8,13-5.7,19.5c0.7-0.4,1.1-0.8,1.3-1.4c2.6-5.8,5.3-11.6,7.7-17.5
		c1.5-3.8,2.5-7.7,3.7-11.6C751.3,207.6,751.1,206.6,751.1,205.3z"/>
</g>
</svg>
