<?xml version="1.0" encoding="utf-8"?>
<!-- Generator: Adobe Illustrator 23.0.4, SVG Export Plug-In . SVG Version: 6.00 Build 0)  -->
<svg version="1.1" id="Layer_1" xmlns="http://www.w3.org/2000/svg" xmlns:xlink="http://www.w3.org/1999/xlink" x="0px" y="0px"
	 viewBox="0 0 1008 1008" style="enable-background:new 0 0 1008 1008;" xml:space="preserve">
<g>
	<path d="M341.3,82.8c2-2,3.9-4.1,4.9-6.9c0.9-2.4,2.9-3.6,5.3-4c12-1.6,23.9-3.4,35.9-4.7c14.9-1.6,29.8-2.3,44.8-2.2
		c11.3,0,22.6,0.3,33.8,0.5c1.2,0,2.4,0,3.8,0c0.1-0.7,0.3-1.5,0.4-2.2c0.7-4.2,1.3-8.4,2-12.5c0.2-1,0.5-2,1-2.9
		c1.6-3.1,4.8-3.9,7.7-1.9c1.8,1.3,3.1,2.9,3.3,5.1c0.2,2.2,0.2,4.5-0.1,6.7c-1.1,8.8-2.5,17.6-3.5,26.4
		c-1.2,10.8-2.3,21.6-2.1,32.5c0.1,2.9,0.5,5.7,0.8,8.6c0.1,0.8,0.6,1.6,1,2.7c1-0.9,1.9-1.5,2.5-2.3c2.6-3.5,5.3-6.9,7.5-10.5
		c3.9-6.4,7.6-13,11.3-19.5c0.3-0.5,0.6-1.2,0.5-1.8c-0.4-6.2,0.6-12.3,1.7-18.3c2.1-10.7,5-21.2,10.2-30.9c1.7-3.2,3.8-6.1,5.9-9
		c1.1-1.5,2.7-2.5,4.5-3c3.5-0.9,6.6,0.6,8,4c0.9,2.4,1.2,4.9,0.9,7.5c-0.5,5.2-2.2,10-4.3,14.7c-4.2,9.5-9.5,18.5-14.9,27.4
		c-0.5,0.8-0.9,1.5-1.4,2.3c-1.6,2.8-1.1,5.5,0.6,8.1c0.9,1.3,2.3,1.9,3.8,1.4c2-0.7,4.1-1.4,5.9-2.5c4-2.4,7.5-5.5,10.6-8.9
		c0.7-0.8,1.3-1.6,2.1-2.3c2.6-2.4,4.2-5.2,5.1-8.9c1.5-6.5,5.7-10.8,12.5-12.1c3.9-0.7,7.5,0,10.7,2.3c3.6,2.5,4.1,6.4,1.5,9.8
		c-2.1,2.8-5,4.3-8.4,4.5c-2.2,0.1-4.4,0-7,0c-0.9,2.7-1.4,5.9-0.6,9c0.7,2.6,2.9,3.7,5.5,2.8c1.9-0.7,3.8-1.6,5.5-2.8
		c2.1-1.4,4.2-3,6-4.8c2.2-2.1,4.3-4.5,6.5-7c-1.5-2.8-2.4-6.3-3-9.8c-0.6-3.4-0.4-6.9,0.8-10.2c1.1-3.1,3.2-5.2,6.1-6.3
		c5.7-2.3,11.5,1.4,12.1,7.7c0.2,2.4-0.2,4.7-1.2,6.8c-1,2.2-2.2,4.2-3.4,6.3c-0.4,0.8-0.9,1.5-1.2,2.6c1-0.3,2.1-0.6,3.1-0.9
		c1.1-0.4,2.1-0.8,3.1-1.2c1.5-0.5,3-0.4,4.5,0.1c2.8,1,3.8,3,2.7,5.9c-1.6,4.3-3.5,8.6-5,13c-1.9,5.3-3.9,10.7-4.7,16.3
		c-0.2,1.4-0.5,2.8,0.4,4.2c1.8-0.3,3.1-1.2,4.2-2.4c1.4-1.6,2.7-3.2,3.8-4.9c4.8-6.9,8.3-14.6,11.8-22.2c0.4-0.8,0.5-1.8,0.6-2.8
		c0.6-3.4,4-5.1,7.1-3.5c1.1,0.6,1.7,1.5,1.6,2.7c-0.1,1-0.3,2.1-0.6,3c-0.9,2.8-1.1,5.7-0.8,8.8c0.3-0.7,0.7-1.3,1-2.1
		c1.9-5.2,3.8-10.4,5.8-15.5c0.6-1.5,1.2-3,2.1-4.3c1.4-2.2,4.1-2.2,5.5,0c0.5,0.8,0.9,1.9,1,2.9c0.2,2.7,0.2,5.4,0.2,8.1
		c0,1.7-0.2,3.3,0.1,5.2c0.2-0.5,0.5-1,0.7-1.5c1.6-5.3,3.1-10.6,4.9-15.8c1.3-3.7,3.1-7.2,4.7-10.7c0.5-1.1,1.4-2.2,2.3-3.1
		c2.5-2.6,6.4-2.9,9.5-1c2.1,1.3,2.8,3.4,3,5.7c0.3,2.9,0.1,5.8-0.7,8.6c-1.9,6.7-3.9,13.3-5.7,20.1c-0.7,2.5-0.9,5-1.3,7.5
		c-0.1,0.8,0,1.5,0,2.7c1.9-1,2.8-2.3,3.7-3.6c3.2-5.1,6.4-10.3,9.6-15.4c-0.5-1.2-0.9-2.2-1.3-3.1c-2.7-7.4,0.7-14.2,8.1-16.6
		c7.1-2.2,14.1,1.5,16,8.9c0.7,2.6,0.6,5.4,0.8,8.1c0.1,0.7-0.1,1.4-0.1,2.2c-0.1,2.9,0.6,3.6,3.3,2.6c3-1.1,5.7-2.8,8.5-4.3
		c0.8-0.4,1.7-1,2.6-1.2c2.7-0.6,4.4,0.6,4.7,3.4c0.2,2.4,0.3,4.8,0.4,7.2c0,0.8,0,1.5,0.5,2.4c0.4-0.6,0.8-1.3,1.1-1.9
		c3.2-6.7,6.3-13.5,9.7-20.1c1.7-3.3,3.8-6.5,5.8-9.6c0.9-1.3,2.1-2.4,3.2-3.5c3.4-3.1,10.4-2.3,11.9,4c1.1,4.6,0.6,9.2-0.2,13.8
		c-1.6,9.4-4.6,18.4-7.2,27.6c-1,3.4-1.8,6.8-2.3,10.4c0.5-0.4,1-0.7,1.4-1.1c1.5-1.8,3.1-3.5,4.4-5.3c4.8-6.5,8.7-13.6,12.3-20.8
		c1.6-3.3,1.9-6.7,2.5-10.2c1.4-7.8,3.2-15.5,6.3-22.8c0.1-0.1,0.1-0.3,0.1-0.7c-0.5-0.2-1.1-0.5-1.7-0.6c-3.5-0.6-7.1-1.4-10.7-0.7
		c-1.5,0.3-2.9,0.9-4.3,1.4c-0.8,0.2-1.5,0.6-2.3,0.6c-0.6,0-1.4-0.4-1.8-0.8c-0.2-0.3,0-1.3,0.4-1.7c0.6-0.8,1.4-1.5,2.3-2.1
		c2-1.5,4.3-2.4,6.9-2.4c3.1,0,6.2,0.2,9.3,0.4c5.6,0.3,4.1,1.1,6.6-3.4c1.5-2.6,2.9-5.2,5.2-7.1c0.8-0.7,1.9-1.3,2.9-1.6
		c2.1-0.5,3.7,0.8,3.6,3c0,1.1-0.4,2.2-0.8,3.2c-1,2.4-2.1,4.7-3.3,7.3c1.9,0.3,3.7,0.8,5.4,0.9c5.5,0.3,11,0.5,16.5,0.6
		c1.9,0,3.8-0.4,5.7-0.7c2.6-0.4,4.9-1.5,6.7-3.4c0.6-0.7,1.5-1.2,2.3-1.7c1-0.6,1.8-0.3,2.6,0.4c0.8,0.8,1.1,1.8,0.4,2.6
		c-0.9,1.2-1.9,2.4-3.1,3.2c-3.2,2.2-7,3.1-10.8,3.9c-8.3,1.7-16.7,2-25,0.5c-2.9-0.5-3-0.4-4.1,2.3c-2.7,6.8-4,14-5.2,21.1
		c-0.8,4.9-1.2,9.8-1.7,14.8c-0.4,4.3-0.3,8.7,0.7,12.9c0.4,1.7,1.2,3.3,2.2,4.7c1.1,1.5,2.5,1.7,4,0.8c1.4-0.8,2.6-1.8,3.7-3
		c3.9-4.2,6.7-9.1,9.1-14.3c1.3-2.8,2.4-5.6,3.5-8.4c0.3-0.7,0.5-1.4,0.8-2c1.2-2.3,3.5-2.4,5-0.3c2,2.9,3.1,6.1,3.7,9.5
		c0.4,2.4,0.7,4.9,0.9,7.4c0.3,3.4,1.1,6.6,2.3,9.8c1.3,3.3,2.4,6.6,2.8,10.1c0.6,5.3-0.6,10-4.1,14.1c-1.3,1.4-2.5,2.9-3.9,4.2
		c-2.8,2.9-4.3,6.3-4.7,10.3c-0.2,1.4-0.4,2.9-0.6,4.3c-1,5-3.4,9.3-7.2,12.7c-2.2,2-4.4,3.9-6.1,6.4c-1.2,1.9-1.8,3.6-0.9,5.8
		c0.9,2.2,0.7,4.4-0.9,6.3c-1.2,1.5-1.3,3.3-0.9,5c0.3,1.5,0.9,3.1,1.6,4.5c0.7,1.4,1.6,2.8,2.6,4c4.1,5.1,6.7,10.9,8.5,17
		c1.3,4.4,2.7,8.7,4.1,13c1.8,5.3,2.8,10.7,2.2,16.3c-0.6,6.1-2.9,11.3-7.9,15c-0.1,0-0.1,0.1-0.2,0.1c-3.7,3-4.3,4-2.7,8.5
		c0.8,2.3,1,4.8,1.1,7.3c0.1,3.3-1.1,6.3-3.5,8.7c-1.6,1.6-3.3,3-5.2,4.3c-4.7,3.2-8.7,7.1-12,11.6c-2.5,3.3-4.8,6.8-7.3,10.1
		c-1.2,1.7-2.5,3.4-3.7,5c-3.9,5.2-9.2,8.1-15.6,8.8c-1.3,0.1-2.7,0.4-4,0.6c-8.9,1.7-14.1,7.4-16.3,15.9c-0.7,2.5-1.7,4.5-3.7,6.2
		c-4.7,4.1-10.1,6.1-16.2,6.4c-4,0.2-8-0.2-12-0.3c-2.8-0.1-5.6-0.2-8.4-0.1c-3.6,0.2-6.9,1.5-9.7,3.7c-2.5,1.9-4.9,3.9-7.1,6.1
		c-2.4,2.3-4.6,4.9-7,7.3c-1.5,1.5-2.1,3.2-1.3,5.2c2.2,5.7,2,11.6,0.8,17.5c-1,4.7-0.8,9.4,0.5,14c2.5,8.7,3.9,17.7,3.8,26.7
		c-0.1,9.5-1.7,18.8-5.5,27.5c-1.7,3.9-4,7.5-6.5,10.9c-1.6,2.2-3.1,4.4-4.6,6.7c-1.6,2.4-1.9,5-1.1,7.8c1.3,4.3,0.8,8.4-1.2,12.3
		c-1.5,2.9-3.3,5.7-5.1,8.4c-4.4,6.4-8.9,12.7-13.4,19c-2.4,3.3-3.2,6.8-2.3,10.9c1.4,5.9,0.8,11.8-1.3,17.5
		c-1.3,3.5-2.7,7-4.1,10.5c-0.4,1-1,1.9-1.1,2.9c-0.5,2.8-2.2,4.5-4.4,6c-8.5,5.7-15,13.1-19.9,22c-3.2,5.9-5.1,12.2-6.6,18.7
		c-0.7,3.1-1.5,6.2-2.4,9.3c-1.5,5-3.8,9.6-7.6,13.2c-6,5.8-8.8,13.2-10.8,21.1c-0.5,1.8-0.3,3.4,0.8,4.8c5.4,6.6,5.8,14.2,4.3,22.1
		c-0.9,4.5-2.1,8.9-3.3,13.2c-1.7,6.1-3.5,12.1-5.2,18.2c-0.9,3.2-0.6,6.2,1.2,9c2.2,3.4,2.5,7.1,1.6,10.9c-1.9,8-4,16-6,24
		c-0.4,1.7-1.3,3.2-2.8,4c-1.4,0.8-1.8,2-2,3.3c-0.1,1.3-0.2,2.6,0,3.8c0.5,4.9-0.4,9.5-1.8,14.2c-0.9,3-1.5,6-2.1,9.1
		c-0.5,2.7,0.5,4.9,2.6,6.8c4.9,4.2,5.7,8.9,2.8,14.5c-0.7,1.4-1.1,2.7-0.6,4.3c1.3,4.7,0,8.8-3.4,12.3c-0.9,0.9-1.7,1.9-2.5,2.9
		c-1.9,2.4-2.2,5.1-0.8,7.9c0.9,1.9,1.9,3.7,2.9,5.5c1.2,2.4,1.6,4.9,0.5,7.4c-0.7,1.5-1.7,3-2.9,4.1c-2.5,2.3-4.5,4.9-5.9,8
		c-2,4.1-5.7,6.4-9.9,7.8c-1,0.3-2,0.6-3,0.8c0,1.5,0.1,2.9,0,4.3c-0.2,3.1-0.2,6.2-0.6,9.3c-0.5,3.6-1.7,7.1-3.9,10
		c-2.9,3.9-3.4,8.2-2.8,12.8c0.8,5.9,1.9,11.7,3.8,17.3c0.5,1.6,1.2,2.4,3,2.9c5.3,1.2,9.7,4.1,13.2,8.2c2.8,3.2,4.3,6.9,4.4,11.1
		c0,5.1-2.3,8.7-7,10.7c-4.1,1.8-8.4,1.9-12.7,1.7c-15.5-0.6-31-1.2-46.5-1.8c-13.6-0.5-27.2-1.1-40.8-1.7
		c-13.3-0.6-26.7-1.2-40-1.7c-16.1-0.6-32.1-1.3-48.2-1.7c-11.8-0.3-23.7-0.4-35.5-0.5c-3.2,0-5.4-1.2-7.2-3.8
		c-4-5.8-6.1-12.1-4.9-19.2c0.2-1,0.3-2.1,0.7-3c1-2.8,1-5.6,0-8.4c-0.5-1.4-0.7-3-0.7-4.5c-0.2-3.3,0.8-6.3,3.2-8.8
		c0.7-0.7,0.9-1.4,0.8-2.4c-0.7-16-0.2-32,0.2-48c0.5-17.2,0.8-34.4,1.3-51.6c0.6-23.8,1.4-47.6,2-71.5c0.4-13.7,0.7-27.3,0.9-41
		c0.2-14.2,0.3-28.5,0.5-42.7c0-1.7-0.5-2.9-1.9-4c-6.4-5.1-10.3-11.7-11.7-19.8c-0.1-0.3-0.2-0.6-0.2-0.9c-4.4,0.5-7.1,2.7-8.3,6.8
		c-0.7,2.3-1.2,4.6-2.1,6.9c-1.4,3.8-3.9,6.5-7.8,7.9c-4.5,1.7-8.8,0.6-11.9-3.1c-2.7-3.1-4-6.9-4.7-10.9
		c-1.1-6.4-0.1-12.6,1.2-18.8c2-9.2,5.7-17.8,9.9-26.2c2.8-5.7,5.8-11.4,8.7-17.1c1.6-3.2,3.1-6.5,3.8-10c0.5-2.5,0-4.8-1.5-6.8
		c-0.6-0.9-1.2-1.7-1.9-2.5c-4.5-4.7-5.5-10.5-4.7-16.7c0.2-1.5,0.4-3,0.7-4.5c1-5.4-0.1-10.5-2.1-15.5c-1.3-3.4-2.5-6.9-3.5-10.4
		c-1.2-4.3-1.2-8.8-1.1-13.3c0.1-4.4,0-8.8,0-13.2c-6.3-2.1-8.5-6.9-8.4-12.6c0.2-11.8,1.8-23.3,8.3-33.5c1.6-2.5,3-5.1,4.3-7.7
		c3.1-6.5,3.9-13.5,2.8-20.6c-0.3-2.3-0.1-4.4,0.8-6.5c2.2-5.3,5.8-9.5,10.1-13.2c1.8-1.5,3.8-2.9,5.6-4.5c1.7-1.5,3.3-3,4.7-4.7
		c1.7-2.1,2.3-4.6,1.4-7.2c-3.1-9.5-2.8-19.1-0.3-28.6c1.1-4.5,2.4-8.9,4-13.3c2.1-5.8,5.7-10.6,11-13.8c1.8-1.1,2.1-2.6,1.9-4.4
		c-0.3-2.7-1.1-5.4-2.5-7.7c-1.9-3-4-6-6.1-8.9c-1.9-2.6-3.9-5.1-5.7-7.7c-1.7-2.5-2.9-5.1-3-8.2c0-0.6-0.4-1.4-0.9-1.8
		c-2.1-2.1-2.8-4.4-1.8-7.2c1-3,3.1-5.2,6.3-5.5c3.2-0.2,6.4,0.2,9.6,0.2c2.7,0,5.4,0,8.1-0.2c1.1-0.1,2.2-0.5,3.2-1.1
		c0.6-0.3,1.2-1,1.2-1.6c0-0.4-0.8-1.1-1.4-1.3c-5.7-2.9-9.2-7.5-10.3-13.9c-0.7-4.1-0.1-8.1,1-12.1c1.2-4.5,2.3-9,3.2-13.5
		c0.6-3,0.7-6,1-9.1c0.9-8.3,3.8-16,7.6-23.3c1.7-3.3,3.6-6.4,5.4-9.6c0.4-0.7,0.8-1.4,1.2-2.1c-3.1-4.9-3.1-10.3-2.9-15.8
		c0.2-5,0.4-9.9,0.3-14.9c-0.1-5.9-1.9-11.3-5.7-16c-4.5-5.7-5.1-12.1-2.7-18.8c0.8-2.3,1.9-4.6,3.3-6.6c3.5-5.4,8.1-9.9,13.3-13.7
		c3.2-2.3,6.8-3.7,10.8-2.8C338.1,81.4,339.5,82.1,341.3,82.8z M303.5,936.8c1,0,1.9,0,2.7,0c7.1,0.1,14.2,0,21.4,0.2
		c17.7,0.5,35.3,1.1,53,1.7c8.8,0.3,17.6,0.7,26.4,1.1c13.1,0.6,26.2,1.2,39.3,1.7c11.3,0.5,22.5,0.9,33.8,1.3
		c10.4,0.4,20.8,0.8,31.2,1.2c0.5,0,1-0.1,1.9-0.2c-2.3-1.7-4.5-2.2-6.9-2c-3,0.2-5.8-1.4-6.9-4.1c-4.4-10.3-7.7-20.9-8.2-32.1
		c-0.3-6.8,0.6-13.2,5.1-18.8c2.7-3.4,3.2-7.4,2.7-11.6c-0.4-2.9-1-5.8-1.6-8.7c-1.2-5.5,2.1-10.6,8.2-10c1.6,0.1,3.2,0,4.8-0.2
		c2.1-0.2,3.6-1.3,4.4-3.2c1.1-2.7,2.3-5.3,4.6-7.1c-5.7-10.6-2.7-24.1,4.8-29.4c-1.6-3.9-1-7.8,1.1-11.4c-0.3-0.4-0.4-0.7-0.6-0.9
		c-4.7-4.7-6.2-10.6-5.4-17c0.4-3.4,1.4-6.7,2.1-10.1c0.5-2.7,1.1-5.3,1.4-8c0.3-2.9,0.3-5.8,0.5-8.6c0.4-4.9,1.5-9.5,5.2-13
		c0.4-0.4,0.8-1,0.9-1.6c1.4-5.7,2.8-11.3,4.2-17c0.4-1.5,0.1-2.7-0.6-4.1c-1-1.9-1.6-4-2.2-6c-0.8-3.3-0.5-6.7,0.3-10
		c1.5-6,3.2-11.9,4.7-17.8c1.5-5.9,2.9-11.8,4.3-17.7c0.6-2.5,0-4.9-1.4-7.1c-0.6-1-1.2-1.9-1.8-2.8c-1.3-1.9-2-4-2.4-6.2
		c-0.5-3.1-0.2-6.2,0.5-9.3c2.3-9.8,6.6-18.5,13.4-25.9c3.4-3.7,5.3-8.1,6.4-12.9c0.4-1.6,0.7-3.3,1-4.9
		c3.6-17.5,12.1-32.2,25.8-43.8c2-1.7,4.3-3.2,5.8-5.2c1.5-2.1,2-4.9,3.1-7.2c2.6-5.6,3.4-11.4,1.7-17.5c-1.1-4.1-0.5-8.3,1.4-12.1
		c1.3-2.6,2.8-5,4.4-7.4c5.1-7.6,10.4-15.2,15.6-22.7c1.1-1.6,1.6-3.2,1-5.1c-0.5-1.5-0.6-3.1-0.7-4.7c-0.2-4.6,1.2-8.9,3.6-12.7
		c2.1-3.4,4.4-6.7,6.7-10c2.6-3.7,4.7-7.6,5.9-12c2.4-8.3,2.9-16.7,1.7-25.2c-0.6-4.5-1.8-8.9-2.8-13.4c-1.3-5.8-2.4-11.6-1.1-17.6
		c0.3-1.6,0.6-3.3,0.9-5c0.7-3.9-0.2-7.6-1.2-11.4c-1.6-5.6-0.4-10.6,3.2-15.1c4-4.9,8.2-9.6,13-13.8c9.1-7.8,19.4-11.9,31.6-10.3
		c2.2,0.3,4.4,0.5,6.7,0.6c3.1,0.2,6.2,0,9.2-1.3c1.2-0.6,1.9-1.5,2.4-2.8c1.1-2.8,2.2-5.7,3.8-8.3c6.3-10,15.4-15.8,27.2-17.1
		c3.8-0.4,6.6-1.9,8.7-5.1c1.9-2.9,4-5.8,6-8.7c5.5-7.7,11.2-15,19.8-19.5c1.1-0.6,1.4-1.4,0.9-2.6c-0.4-1-0.8-2.1-1.1-3.2
		c-2.1-7.4-0.6-13.7,5.2-18.9c0.8-0.7,1.7-1.5,2.6-2.2c2.4-2,3.6-4.6,3.3-7.6c-0.4-3-0.9-6-1.8-8.9c-1.6-5.1-3.6-10.1-5.2-15.2
		c-1.1-3.6-2.8-6.8-5-9.8c-1.2-1.7-2.5-3.3-3.5-5.1c-1.1-2-2.1-4.1-2.8-6.3c-1.5-4.9-1.1-9.8,0.1-14.7c0.2-0.8,0.4-1.7,0.3-2.6
		c-0.8-8.2,2.6-14.6,8.4-20c1.2-1.1,2.5-2.2,3.7-3.4c1.7-1.7,2.7-3.7,3.1-6.1c0.2-1.3,0.5-2.7,0.5-4c0.1-5.4,2.2-9.9,5.7-13.9
		c1-1.1,1.9-2.4,3.1-3.4c3.6-2.9,4-6.5,2.3-10.5c-0.1-0.3-0.2-0.6-0.3-0.9c-1-3.2-2-6.4-3-9.6c0-0.1-0.2-0.1-0.4-0.2
		c-0.5,0.6-1,1.2-1.4,1.9c-2.2,2.8-4.7,5.5-7.7,7.5c-1.9,1.3-4,2.3-6.3,2.8c-4.6,0.9-8.8-1.2-11-5.5c-2-3.8-2.7-8-2.9-12.3
		c-0.1-1.3-0.1-2.6-0.2-3.9c-1.7,2.1-2.9,4.2-4.1,6.4c-3,5.2-6.2,10.3-10.4,14.6c-1.2,1.2-2.5,2.3-3.9,3.1c-2.1,1.2-4.3,1-6.3-0.6
		c-1.4-1.1-2.6-2.5-2.9-4.3c-0.3-2.1-0.8-4.3-0.5-6.4c1-6.5,2.4-12.9,3.7-19.3c1.7-8.4,3.5-16.7,5.2-25.1c0.1-0.7,0.1-1.4,0.2-2.2
		c-0.2-0.1-0.4-0.1-0.6-0.2c-1.1,1.7-2.3,3.4-3.3,5.2c-3.1,6.1-6,12.3-9.1,18.5c-2.3,4.6-4.5,9.2-6.8,13.7c-1.3,2.5-3.2,4.4-5.7,5.6
		c-3.3,1.6-5.7,0.2-6.2-3.4c-0.1-0.6-0.2-1.3-0.1-1.9c0.1-2.6,0.3-5.3,0.5-7.9c0.1-1.9,0.3-3.9,0.4-6c-0.7,0.3-1.1,0.5-1.4,0.6
		c-2.9,1.2-5.6,2.7-8.6,3.6c-2,0.6-3.3,1.5-4.2,3.4c-1.3,2.8-3,5.3-5.4,7.3c-5.7,4.8-12.9,2.8-15.4-4.2c-0.2-0.6-0.5-1.3-0.8-2.2
		c-0.6,1-0.9,1.7-1.4,2.3c-2.2,3-4.3,6.1-6.7,9c-1.6,1.9-3.6,3.4-6,4.3c-3.4,1.3-6.1,0-6.9-3.5c-0.4-1.8-0.5-3.7-0.2-5.5
		c1.1-6.8,2.5-13.5,3.8-20.3c0.8-4.4,1.7-8.8,2.4-13.2c0.2-1.3,0.4-2.6-0.1-3.9c-1,1.7-1.9,3.4-2.6,5.1c-2.3,6.6-4.5,13.2-6.7,19.7
		c-0.8,2.3-1.5,4.6-2.5,6.8c-0.7,1.6-1.7,3.1-2.9,4.3c-2.5,2.5-5.7,1.6-6.7-1.7c-0.3-0.9-0.4-1.9-0.4-2.8c0-1.7,0.2-3.3,0.3-5
		c0.1-1.1,0.1-2.3,0.2-3.4c-0.2,0-0.3-0.1-0.5-0.1c-0.5,1.1-1,2.3-1.5,3.4c-1.5,3.6-3.1,7.2-4.6,10.8c-0.7,1.6-1.8,3-3.3,4
		c-3.1,2-6.3,0.4-6.5-3.2c-0.1-1,0-2,0-3.1c-0.4,0.2-0.5,0.2-0.6,0.2c-0.3,0.6-0.6,1.1-0.9,1.7c-2.6,5.1-5.2,10.3-9,14.7
		c-1.4,1.7-3,3.4-4.8,4.7c-3.4,2.6-7.6,2-10.1-1.5c-0.9-1.2-1.5-2.6-2-4.1c-1.2-3.4-0.8-7-0.2-10.4c1-6.1,3.3-11.7,5.7-17.2
		c0.3-0.7,0.6-1.4,1-2.2c-4.8,1.3-5.3,1.5-7.7,0.9c-1.6-0.4-2.5,0.1-3.5,1.2c-3.9,4.2-8.2,7.8-13.1,10.9c-1.8,1.1-3.6,2.1-5.5,2.8
		c-6.9,2.4-12.9-0.4-15.5-7.2c-0.2-0.5-0.4-0.9-0.7-1.5c-0.5,0.5-0.8,0.9-1.1,1.2c-5.1,5.4-10.4,10.7-16.7,14.7
		c-2.5,1.6-5.1,2.9-8.1,3.4c-3.2,0.6-5.7-0.4-7.7-2.7c-0.5-0.6-1-1.2-1.6-2c-2.1,3.4-4.1,6.6-6.2,9.7c-3.9,5.9-7.8,11.7-11.7,17.5
		c-1.5,2.1-3.2,4-5.7,5.1c-3.4,1.5-6.6,0.6-8.6-2.5c-0.9-1.5-1.7-3.1-2-4.8c-0.8-3.6-1.4-7.2-1.9-10.9c-1.3-10.6-1.3-21.2-0.6-31.9
		c0.1-0.9,0-1.9,0-2.9c-0.8-0.1-1.4-0.2-2.1-0.2c-6-0.2-12-0.4-18-0.5c-29.6-0.5-59,0.9-88.2,5.7c-1.4,0.2-2.3,0.8-3.1,1.9
		c-1.7,2.2-3.5,4.4-5.5,6.3c-2.3,2.3-4.8,4.2-7.9,5.4c-3.6,1.4-7,1.1-10.1-1.4c-0.2-0.2-0.5-0.3-0.9-0.6c-2.9,3-6,5.6-8.1,9.2
		c-2.2,3.6-2,5.4,0.6,8.7c3.4,4.2,5.6,8.9,6.7,14.2c1,4.8,1.3,9.7,1.1,14.6c-0.2,4.4-0.4,8.8-0.7,13.2c-0.1,1.8,0.2,3,2.2,3.9
		c4.8,2.3,5,7.3,2.7,10.5c-2,2.7-3.8,5.6-5.4,8.5c-2.4,4.3-4.9,8.6-7,13.1c-3.1,6.5-4.2,13.4-4.5,20.5c-0.3,5-1.1,9.8-3.1,14.4
		c-0.7,1.5-1.2,3.1-1.6,4.8c-1,4.2-0.2,5.8,3.7,7.7c0.4,0.2,0.7,0.3,1.1,0.5c3.8,2.2,6.3,5.4,7.2,9.7c0.9,4.4,0,8.4-2.3,12.2
		c-2.9,4.8-7.3,7.5-12.7,8.6c-0.7,0.1-1.6,0.3-1.9,0.7c-1,2-2.7,3.2-4.5,4.2c2.5,3.6,5,6.9,7.3,10.4c3,4.6,5.1,9.6,5.6,15.1
		c0.8,7.8-0.8,14.5-8.1,18.8c-3,1.7-4.8,4.5-5.8,7.6c-1.2,3.6-2.4,7.3-3.4,11c-1.3,5.1-2.2,10.2-1.1,15.4c0.5,2.3,1.1,4.7,1.7,7
		c1.7,6.4,0.6,12.2-3.2,17.5c-0.8,1.2-1.7,2.4-2.7,3.4c-3.1,2.8-6.3,5.4-9.4,8.2c-1.9,1.7-3.8,3.5-5.5,5.3c-1.3,1.4-1.8,3.1-1.5,5.1
		c0.5,5,0.2,9.9-0.7,14.8c-1.3,6.8-3.9,13.2-7.6,19c-4.9,7.8-7.6,16.2-6.2,25.6c4.9,3,6.6,5.5,7.2,11.6c0.3,3.6,0.6,7.4,0.3,11
		c-0.7,8.5,0.2,16.7,4.1,24.5c1.1,2.3,1.9,4.8,2.5,7.2c1.3,5.6,0.8,11.1-0.6,16.6c-0.8,3.4-0.3,6.2,2.4,8.7c2.5,2.3,4.1,5.3,5.1,8.6
		c1.2,4.2,1,8.4,0.1,12.6c-1.3,5.8-3.7,11-6.4,16.2c-3.1,6.1-6.3,12.2-9.4,18.4c-2.7,5.5-4.9,11.1-6.3,17.1c-0.2,1-0.4,2-0.6,3
		c0.8-0.4,1.3-0.9,1.8-1.5c5.2-5.4,11.5-8.2,19.1-7.8c6.7,0.4,10.9,3.8,12.5,10.2c0.3,1.2,0.6,2.5,0.9,3.7c1.3,5.4,4.3,9.5,9.1,12.1
		c3.6,1.9,4.9,4.7,4.8,8.6c-0.2,9.9-0.1,19.8-0.3,29.7c-0.4,22.9-0.8,45.7-1.4,68.6c-0.7,29.3-1.6,58.5-2.4,87.8
		c-0.4,17.9-0.7,35.8-1,53.7c-0.1,6.4-0.1,12.8,0.2,19.2c0.2,4.8-0.1,9.4-3.9,13.1c1.1,3.1,1.5,6.2,1.1,9.3
		c-0.2,2.1-0.7,4.2-1.1,6.4C302.5,931.9,302.4,934.2,303.5,936.8z M528.5,41.7c-2.2,1.1-3.1,2.1-4.5,5.1c-4.3,8.9-8.2,18-11.4,27.4
		c-0.4,1.3-0.7,2.6-1,3.8c0.2,0.1,0.3,0.1,0.5,0.2c0.8-1.2,1.6-2.3,2.2-3.6c3.3-6.7,6.5-13.3,9.7-20.1c1.3-2.7,2.4-5.6,3.5-8.4
		C528,44.8,528.2,43.2,528.5,41.7z M677.5,78.5c0.9-2.5,0.3-4.8-0.1-7.2c-0.2-1.5-0.7-3.1-1.4-4.5c-1.1-2.2-3.4-2.4-5.2-0.8
		c-2.3,2-2.4,5.3-0.2,7.9C672.4,76.2,674.8,77.5,677.5,78.5z M675.2,87.6c-3.4-1.4-6.4-2.6-9.5-3.9c-0.9,2.3-1.1,4.7-0.7,6.6
		c0.8,3.4,3.9,4.6,6.7,2.6C673.6,91.5,674.6,89.6,675.2,87.6z M580.6,70.3c2.5-3.2,4.4-6.2,4.4-10c0-2.1-1-3.6-2.3-3.8
		c-1.2-0.1-2.4,1-3,3C578.7,63,578.9,66.5,580.6,70.3z M551.7,75.1c1.5,0.3,2.7,0.7,4,0.9c2.2,0.2,4-0.7,5.4-2.4
		c0.7-0.9,1.2-2,0.6-3.1c-0.7-1.2-1.9-1.2-3-0.9C555.8,70.3,553.4,71.9,551.7,75.1z"/>
	<path d="M295.2,208.5c3.4,6.5,4.2,13.1,2.1,19.9c-1.6,5.3-7.3,8.4-12.3,7.2c-3.2-0.8-5.3-2.9-6.6-5.8c-1.8-3.7-2.8-7.7-3.4-11.7
		c-1.3-7.9-0.7-15.8,1.3-23.5c1.2-4.7,3.4-8.8,7-12.1c2.6-2.5,5-5.1,6.9-8.3c1.6-2.7,4.1-3.6,7.2-3c3.1,0.6,6,3.4,6.3,6.5
		c0.3,2.7,0.8,5.1,1.8,7.6c1.4,3.4,0.1,7-3.1,9c-3.3,2-5.1,4.9-5.8,8.7C296.1,204.9,295.6,206.7,295.2,208.5z"/>
	<path d="M301.4,121.1c-0.2,3.9-0.2,7.8-0.5,11.7c-0.4,4.6-4,7.4-8.5,7.3c-3.4-0.1-6-2.5-6.4-6c-0.8-7.9-1.7-15.7-2.3-23.6
		c-0.3-4,0.1-8,0.2-12c0-1.4,0.4-2.9,0.1-4.3c-0.2-1.2-0.7-2.5-1.5-3.4c-2.7-2.9-3.4-5.5-1.8-8.9c1.6-3.4,4.7-5.3,8.3-4.7
		c2.7,0.4,5.3,0.1,7.9-0.3c1.7-0.3,3.4-0.7,5.2-0.9c1.8-0.2,3.7-0.3,5.5-0.3c2.5,0,4.6,1.1,6.4,2.9c2.6,2.6,2.9,5.7,0.7,8.7
		c-1.7,2.2-3.4,4.5-5.4,6.4c-6.4,6.2-8.8,13.9-8.3,22.6c0.1,1.6,0.2,3.2,0.2,4.8C301.2,121.1,301.3,121.1,301.4,121.1z"/>
	<path d="M262.8,142c0.8-4.4,1.6-8.7,2.3-13.1c0.5-3.1,1.2-6.3,1.1-9.5c-0.3-5.5,4.3-8.3,9.4-6.9c3.8,1,6.8,5,6.7,9
		c0,1.6-0.4,3.2-0.5,4.8c-0.2,5.3-0.4,10.5-0.5,15.8c-0.1,2.3-0.4,4.5-1.4,6.5c-1.5,3.1-3.8,5.3-7.4,5.2c-3.7-0.2-6.6-2-8-5.5
		C263.4,146.3,263.2,144.1,262.8,142z"/>
	<path d="M301.9,140.5c3.1,0,5.3,1.5,6.7,4.3c1.3,2.7,1.2,5.2-0.7,7.6c-2.2,2.7-4.7,5-7.6,6.9c-2.8,2-5.7,3.9-8.5,5.8
		c-0.7,0.5-1.1,1-1.3,1.9c-0.9,4.9-6.6,6.9-10.8,4.9c-2.4-1.1-3.7-2.9-4-5.6c-0.3-3.9,0.8-7.3,3.5-10.1c1.4-1.4,2.9-2.7,4.5-3.9
		c2.5-1.8,5-3.4,7.5-5.1c1.7-1.1,3.4-2.3,4.7-4C297.5,141.5,299.5,140.4,301.9,140.5z"/>
</g>
</svg>
