<?xml version="1.0" encoding="utf-8"?>
<!-- Generator: Adobe Illustrator 23.0.4, SVG Export Plug-In . SVG Version: 6.00 Build 0)  -->
<svg version="1.1" id="Layer_1" xmlns="http://www.w3.org/2000/svg" xmlns:xlink="http://www.w3.org/1999/xlink" x="0px" y="0px"
	 viewBox="0 0 1008 1008" style="enable-background:new 0 0 1008 1008;" xml:space="preserve">
<g>
	<path d="M789.8,471.2c-0.5,0.4-0.9,0.7-1.4,1c0.2,0.3,0.2,0.5,0.4,0.6c1.7,0.8,3.5,1.6,5.2,2.5c2.1,1.1,4.1,2.1,6.1,3.4
		c3.8,2.6,6,6.4,7,10.8c0.2,0.6,0.3,1.2,0.5,1.8c0,0.1,0.1,0.1,0.3,0.3c0.6,0,1.3,0,2,0c1.9,0.1,3.8,0.2,5.7,0.4
		c2.9,0.4,5.3,1.7,7.3,3.8c1.3,1.4,2.6,2.8,3.7,4.4c1.6,2.1,3.8,3.1,6.4,3.4c2.2,0.2,4.5,0.5,6.6,1c6,1.4,9.9,5,10.9,11.3
		c0.3,1.8,0.9,3.1,2.8,3.7c1,0.3,1.9,0.9,2.8,1.4c6.9,4.1,9,12.5,4.8,19.4c-2.9,4.7-7.2,7.5-12.5,8.6c-3.5,0.8-7.1,1.1-10.7,1.3
		c-4.5,0.2-8.5-1.4-11.5-4.9c-1.1-1.3-2.5-2-4.2-1.8c-7,0.9-12-2.4-16.1-7.6c-2.3-2.9-4.7-5.9-7.2-8.7c-5.3-5.9-11.7-9.8-19.8-10.7
		c-3.8-0.4-7.3-1.8-10.4-4.1c-0.5-0.4-1.2-0.7-2.2-1.3c0.5,1.7,0.8,2.9,1.2,4.1c1.6,4.9,3.9,9.4,6.5,13.9c1.2,2.1,2.9,3.3,5.4,3.4
		c1.4,0.1,2.7,0.3,4.1,0.3c4.3-0.1,7.8,1.6,10.7,4.5c1.8,1.8,3.5,3.8,4.8,6c2.2,3.7,5.3,5.7,9.4,6.3c9,1.4,18,2.8,27,4.1
		c2.6,0.4,5.3,0.5,7.9,0.6c4.2,0.2,8.1,1.6,11.9,3.3c3.8,1.8,7.7,3.5,11.7,5c5.9,2.3,12.1,3.3,18.5,3.8c2.6,0.2,5.2,0.7,7.7,1.4
		c4.8,1.4,7.9,4.8,9.1,9.6c0.6,2.4,0.9,4.9,0.9,7.3c0,3.9,0,7.9-0.5,11.7c-0.7,5.6-4.3,9.4-9.5,10.4c-1.6,0.3-3.3,0.1-5,0.1
		c-0.6,0-1.2-0.1-2.1-0.3c0.1,0.7,0.2,1.2,0.2,1.7c0.8,5.4-2.5,9.3-7.9,9.3c-78.7-0.1-157.4,0-236.1-0.1c-4.5,0-6.7-1.5-8.1-5.6
		c-0.8-2.2-2.2-3.8-4.4-4.4c-2.7-0.7-5.4-1.2-8.2-1.7c-2-0.4-4.1-0.6-6.2-0.8c-0.1,0-0.2,0.1-0.3,0.3c-3.1,6.2-8.5,8.8-14.9,10
		c-0.3,0.1-0.6,0.1-1,0.1c-1.9,0-3.1,0.9-4.2,2.6c-1.9,3.2-4.6,5.8-7.7,7.8c-1.9,1.2-4,2-6.3,2.1c-4.1,0.2-6.5-1.9-6.7-6
		c0-0.3-0.1-0.6-0.1-1.2c-0.6,0.4-1.2,0.7-1.6,1.1c-2.3,1.9-5,2.5-7.9,2.2c-2.8-0.3-4.7-1.9-6-4.3c-0.7-1.3-1.2-2.7-1.8-4.2
		c-1.7,2-3.2,4-4.9,5.8c-2.8,2.9-5.8,5.5-9.8,6.7c-5.8,1.7-9.4-0.4-11.1-6.2c-0.1-0.4-0.3-0.9-0.5-1.7c-0.6,1-1,1.6-1.4,2.3
		c-3.4,6-6.9,11.9-11.6,17c-0.8,0.8-1.5,1.6-2.4,2.3c-4.3,3.4-9.1,2-11-3.2c-0.8-2.3-1.2-4.8-0.7-7.3c1.1-5.8,2.2-11.6,3.4-17.4
		c1.9-9.2,3.8-18.3,5.7-27.5c0.1-0.4,0.1-0.8,0.2-1.3c-1.1,0.2-1.5,1-1.9,1.7c-1.3,2.2-2.7,4.4-3.8,6.7c-4.1,8.3-8,16.7-12,25.1
		c-0.8,1.6-1.6,3.1-2.5,4.6c-1.2,2-2.9,3.7-5,4.7c-2.7,1.3-6.1,1.2-6.5-3.4c-0.2-2,0.1-4,0.1-6c0-0.8,0-1.6,0-2.8
		c-0.6,0.7-1.1,1.2-1.5,1.7c-2.4,3-4.9,5.9-8.1,8.1c-2.5,1.7-5.1,2.8-8.2,3c-3.4,0.2-5.6-1.5-7-4.4c-1.1-2.3-1.4-4.7-1.5-7.2
		c0-1.2,0-2.4,0-3.9c-0.5,0.4-0.9,0.6-1.2,0.9c-1.8,1.9-3.5,3.9-5.3,5.9c-2,2.2-2.7,4.8-3.1,7.6c-0.5,3.3-1.1,6.6-2,9.8
		c-1.7,6-4.9,11.1-9.6,15.2c-2.4,2.1-5.3,3.6-8.6,3.8c-0.9,0.1-1.9,0-2.8-0.2c-2.1-0.6-3.3-2.2-3.4-4.4c-0.2-2.3,0.6-4.4,1.6-6.4
		c2.4-4.7,5.4-9.1,8.9-13.1c3.2-3.6,6.4-7.1,9.7-10.6c1.6-1.7,1.3-3.6,1.3-6c-4.9,2.6-9.5,3.2-13.6-1.4c-0.6,1.4-1.1,2.5-1.7,3.7
		c-2.5,5.6-5.2,11.2-8.7,16.3c-1.9,2.7-4.1,5.4-6.5,7.6c-4.2,4-9.4,2.9-12.1-2.3c-1.5-2.9-1.9-6.1-1.6-9.3
		c0.5-7.1,2.9-13.5,5.7-19.9c0.4-0.9,0.8-1.9,1.2-2.8c-2.8,0.3-5.4,0.6-8.5,0.9c-0.1,0.2-0.5,0.9-0.9,1.6c-3,5.4-6.6,10.4-11.4,14.4
		c-2.8,2.3-5.8,3.9-9.5,4.1c-3.5,0.2-5.9-1.5-7.2-4.5c-0.7-1.7-1-3.7-1.4-5.5c-0.1-0.4-0.1-0.9-0.2-1.7c-1.9,1.8-3.4,3.4-5.1,4.8
		c-3.4,2.9-6.8,5.8-10.4,8.4c-2.1,1.5-4.7,2.5-7.1,3.3c-3.9,1.3-7.1,0.1-9.4-3.3c-0.2-0.3-0.5-0.6-0.9-1.1c-0.7,1-1.2,1.9-1.8,2.7
		c-5.4,8.1-10.7,16.3-16.1,24.4c-1,1.5-2.3,2.9-3.8,4c-4.3,3.3-9.1,2.2-11.3-2.7c-1.1-2.5-1.8-5.3-2.3-8
		c-1.9-11.3-2.4-22.7-1.8-34.2c0-0.5,0.1-1,0.1-1.4c0-0.2-0.1-0.3-0.2-0.7c-0.5-0.1-1.1-0.2-1.7-0.2c-6.4-0.1-12.8-0.2-19.2-0.1
		c-2.9,0-5.4-0.6-7.3-2.9c-0.6-0.7-1.2-0.9-2.1-0.9c-3.9,0-7.8,0-11.9,0c-0.3,0.5-0.6,0.9-0.9,1.3c-1.4,1.9-3.3,3-5.7,3.1
		c-1,0.1-2.1,0.1-3.1,0.1c-60.6,0-121.1,0-181.7,0c-1.1,0-2.2,0-3.4,0.1c-4,0.2-7.2-2.4-7.7-6.3c-0.5-3.5,0.5-6.3,3.5-8.3
		c3.5-2.5,6.8-5,10.2-7.5c4.1-3,8.6-4.5,13.7-4c0.2,0,0.3,0,0.5,0c6,0.8,11.2-1,15.8-4.8c4.8-3.9,10.3-6.1,16.4-6.8
		c0.5-1.3,0.9-2.5,1.4-3.7c2.3-5.1,6.2-7.9,11.9-7.7c5.4,0.2,10.5-0.8,15.1-3.7c0.3-0.2,0.6-0.3,0.8-0.5c0.1-0.1,0.2-0.3,0.3-0.5
		c-0.1-1.3-0.3-2.6-0.4-4c-0.4-3.8,1.7-6.9,5.4-7.9c1-0.3,2-0.4,3-0.8c1.3-0.5,2.7-1,4-1.7c2-1,2.9-2.6,3-4.8c0.1-2,0.4-4,0.5-6
		c0.2-3.9,2.1-6.4,5.6-7.9c5.4-2.2,10.8-4.5,16.1-6.9c15.2-6.8,29-15.9,42-26.2c2.1-1.7,4.3-3.4,6.4-5c3.9-3,8.2-5.3,13.1-6.2
		c6.4-1.1,11.8,2.2,13.7,8.5c0.4,1.5,0.6,3.1,1,4.7c0.5,1.8,1,3.5,1.6,5.2c1.1,2.9,3,4.4,6.4,4.5c5.4,0.2,9.9,3,13.5,7
		c1,1.1,2,2.3,3,3.5c1.5,1.7,2.6,2.1,4.6,1c1.5-0.8,2.9-1.9,4.3-2.9c2.7-1.9,5.4-3.9,8.3-5.7c1.3-0.8,3.1-0.8,4.2-1.7
		c1.1-0.9,1.4-2.6,2.2-3.9c0.6-1,1.4-1.9,2.3-2.7c3.5-3.1,7.6-3.2,11,0c3.1,2.9,6,6,8.9,9.1c0.6,0.6,1.2,1.3,1.8,2.1
		c8.4-3.5,17.6-4.5,25.8-8.1c0.2-2.4,0.1-4.8,0.5-7c1-6,6.3-9.7,12.3-8.4c2.3,0.5,4.6,1.5,6.6,2.7c2.5,1.4,4.6,1.4,6.8-0.4
		c2.1-1.7,4.1-3.5,6.2-5.2c1.9-1.5,3.7-3.1,5.8-4.3c1.8-1,3.9-1.8,6-2.2c4.4-0.8,8.2,0.6,11.2,4.4c1.6-1,3.1-2,4.8-3.1
		c-1.7-5.6,0.9-9.2,5.6-11.3c-0.7-2.4-1.7-4.4-1.9-6.6c-0.5-4.6,1-8.5,4.6-11.5c1.1-0.9,1.5-1.9,1.7-3.4c2-13.8,8.8-24.4,21.5-30.7
		c3.8-1.9,6.9-4.2,8.9-8c0.5-1,1.1-1.9,1.7-2.9c1.1-2,1.7-3.9,1.1-6.4c-0.8-3.2,0.1-6.1,2-8.8c2.9-4.2,6.7-7.5,10.6-10.7
		c0.2-0.2,0.5-0.4,0.7-0.6c0.1-0.2,0.2-0.3,0.1-0.5c-0.7-5.7,1.3-10.3,5.4-14.2c1.4-1.4,2.8-2.9,4-4.4c1.2-1.6,1.7-3.4,1.2-5.4
		c-0.3-1.2-0.5-2.4-0.7-3.5c-1.5-7.2,0.7-13.5,5.5-18.8c3.2-3.5,7.3-4.4,11.9-3.1c5.4,1.6,10.1,4.5,14.3,8.1c2.4,2,4,4.7,4.9,7.8
		c1.6,5.5,1.7,5.5,7.1,7.3c0.6,0.2,1.3,0.3,1.8,0.6c2.5,1.1,4.5-0.1,6.3-1.7c0.4-0.4,0.7-1.1,0.7-1.6c0.2-5.5,2.2-10.4,4.7-15.2
		c1.3-2.5,2.5-5,3.8-7.5c1.3-2.4,2.8-4.5,5.3-5.7c1.1-0.5,1.1-1.5,1.2-2.4c0.9-7.2,3.6-13.5,8.1-19.2c0.7-0.9,1.6-1.8,2.5-2.6
		c3.2-2.7,7.3-3,11-1c1.6,0.9,3.2,2,4.9,3.1c0.9-1.5,1.6-2.8,2.5-4.2c1.8-3,3.8-5.7,6.4-8.1c2.3-2.1,4.8-3.7,7.9-4.4
		c0.6-0.1,1.3-0.4,1.6-0.8c2.8-3.4,6.4-5.2,10.6-6.1c0.4-0.1,0.7-0.3,1.2-0.5c0.1-8.7,5.2-14,12.2-17.3c0.6-2.4,1.1-4.4,1.5-6.4
		c0.4-1.9,0.9-3.8,0.9-5.6c0-5.1,2.4-8.8,6.5-11.6c2-1.3,2-1.3,1.5-3.7c-0.8-3.2-1.3-6.4-0.3-9.7c0.8-2.9,2.3-5.4,4.6-7.4
		c3.1-2.7,6.6-3.4,10.2-1.6c2.3,1.1,4.5,2.6,6.2,4.4c8.4,8.6,17.4,16.5,26.5,24.4c2.5,2.2,5.1,4.3,7.6,6.7c1.3,1.3,2.5,1.5,4.2,0.4
		c0.4-1.7,0.7-3.6,1.2-5.4c0.8-3.4,2-6.6,4.2-9.3c2.6-3.3,6-5.2,10.2-5c9.1,0.4,18,1.7,26.5,5c6.9,2.7,9.3,8.5,7.8,15.8
		c-0.5,2.5-1.8,4.8-2.8,7.1c-0.7,1.7-1.5,3.3-2.5,5.2c1.4,0.1,2.5,0.2,3.6,0.3c1.6,0.3,3.2,0.5,4.7,0.9c3.3,1,6,3,7.4,6.4
		c1.2,2.9,3.3,4.2,6.3,4.9c5.3,1.3,10.5,2.9,15.6,4.6c6.1,2,9.8,6.2,10.9,12.5c0.7,3.9,1.1,7.7,1.7,11.6c0.3,2.2,0.8,4.4,1.2,6.6
		c1.1,6.9-1.3,11.9-7.3,15.6c-1.6,1-3.2,1.9-4.7,2.8c-1.8,1.1-3.3,2.6-4.2,4.5c-3,6.3-6.9,12-10.9,17.8c-1.1,1.6-1.8,3.4-2.5,5.1
		c-0.3,0.8-0.3,1.8-0.4,3.1c2.3-0.8,4.2-1.6,6.2-2.1c3.4-1,6.9-2,10.4-2.7c4.9-1,9.2,0.5,12.6,4.2c1.3,1.4,2.5,2.9,3.5,4.5
		c5,8.1,12.3,13.2,21.4,15.5c6,1.5,12.2,2.5,18.3,3.8c3.4,0.7,6.9,1.6,10.2,2.5c4.5,1.3,8.1,4,11,7.8c0.6,0.8,1.1,1.5,1.8,2.3
		c1.3,1.5,2.9,2.5,4.9,2.8c1.7,0.3,3.5,0.5,5.2,0.9c3.4,0.6,5.8,2.4,7.6,5.3c0.2,0.3,0.4,0.5,0.5,0.8c2.6,6,6.6,11.1,10.5,16.3
		c2.1,2.8,3.9,5.8,5,9.2c2.5,8.1-2,17.7-10.2,21.2c-8,3.5-15.7,2.3-22.9-2.2c-5.2-3.2-8.8-7.9-11-13.5c-0.7-1.7-1.6-2.5-3.5-2.6
		c-2.5-0.1-4.8-1.2-6.8-2.7c-1.7-1.2-3.4-2.5-4.8-3.9c-6.1-6.1-13.7-8.9-22-10.2c-2.3-0.3-4.6-0.4-6.9-0.5c-1.4-0.1-2.7,0.2-3.9,1.5
		c0.7,0.5,1.2,1.1,1.9,1.4c11.4,5.2,20.2,13.6,28.9,22.2c1.5,1.5,3,2.2,5.1,1.7c4-0.9,7.7,0.1,10.9,2.4c2.2,1.5,4.1,3.5,6,5.4
		c1.2,1.2,2.1,2.6,3.1,3.9c2.1,2.8,4.8,4.3,8.4,4.5c5.8,0.3,11.2,2.1,15.7,5.8c7.2,5.9,11.6,13.4,11.7,22.9
		c0.1,9.9-6.3,16.7-16.3,17c-3.4,0.1-6.9-0.3-10.2-0.9c-5.4-0.9-10.8-2.1-16.2-3.3c-5.9-1.4-10.4-4.8-13-10.4
		c-1-2.2-2.2-4.2-3.5-6.3c-2.2-3.6-5.3-5.4-9.6-5c-1.5,0.1-3,0.1-4.6,0.1c-4.3-0.1-8.4-1.2-12-3.7
		C791.3,472.2,790.6,471.8,789.8,471.2z M96.9,598.3c0.9,0,1.7,0,2.6,0c45.8,0,91.7,0,137.5,0c0.6,0,1.1,0,1.7,0
		c0.9,0.1,1.5-0.3,2-1.1c1.6-2.7,4.2-3.5,7.1-3.5c7.9,0,15.8,0,23.8,0c0.6,0,1.1,0.1,1.7,0.1c1.9,0.1,3.6,0.9,4.7,2.5
		c0.7,1,1.5,1.2,2.6,1.2c4.2,0,8.5,0.1,12.7,0.1c0.7,0,1.4-0.1,2.1-0.2c0.6-4.4,1-8.6,1.7-12.8c0.4-2.9,0.9-5.9,1.8-8.7
		c1.4-4.3,5.7-5.1,9-2c1.6,1.5,2.5,3.3,2.6,5.5c0.1,1.7,0,3.4-0.2,5c-1,7.8-2.3,15.5-3.2,23.3c-0.9,7.8-1.7,15.6-2.2,23.4
		c-0.4,5.7-0.2,11.5-0.1,17.2c0,2.2,0.2,4.5,1.7,6.7c0.8-0.8,1.7-1.3,2.3-2.1c2.9-4.1,6-8.1,8.6-12.4c3.4-5.6,6.5-11.4,9.8-17
		c0.7-1.2,0.9-2.3,0.9-3.6c0-2.6,0-5.1,0.2-7.7c0.9-8.2,2.7-16.2,5.1-24.1c2.4-7.7,5.3-15.3,9.9-22c1.2-1.7,2.5-3.4,4.1-4.7
		c4.5-3.6,9.9-1.8,11.4,3.7c0.8,2.7,0.7,5.4,0.2,8.1c-0.9,5.9-3.1,11.4-5.9,16.7c-4.6,8.5-9.3,16.9-14.1,25.3
		c-1.4,2.4-1.6,4.8-0.4,7.3c1.2,2.6,2.6,3.4,5.4,2.5c1.7-0.5,3.4-1.3,5-2.2c6.2-3.7,10.9-9.1,15.6-14.4c0.5-0.6,0.6-1.4,1-2.2
		c0.5-1.1,0.9-2.2,1.6-3.2c1-1.3,2.8-1.6,4.4-1c1.5,0.6,2.2,1.7,2.2,3.6c0,0.6-0.1,1.1-0.2,1.7c-0.5,2.6-1.1,5.2-1.5,7.8
		c-0.2,1.6-0.3,3.2-0.1,4.8c0.3,2.4,1.6,3.3,3.9,2.6c1.4-0.4,2.9-1.1,4-2.1c4.9-4,8-9.4,11.5-14.5c-0.3-0.5-0.6-0.9-0.7-1.2
		c-2.9-5.9-4.4-12-2.9-18.6c1-4.4,3.6-7.2,8-8.4c4.2-1.1,8.4,1,10,5c1.2,3,1.2,6,0,8.9c-1.1,2.6-2.5,5-3.8,7.4
		c-0.4,0.7-0.8,1.4-1.2,2.1c0.1,0.1,0.3,0.3,0.4,0.4c1.3-0.5,2.7-1,3.9-1.5c2.2-0.9,4.4-1.4,6.7-0.4c2.6,1.1,3.4,3,2.5,5.6
		c-0.3,0.8-0.6,1.5-0.9,2.2c-2.4,6.5-4.8,13-7.1,19.6c-0.9,2.8-1.4,5.7-2,8.6c-0.2,0.9,0.1,2,0.1,3.1c2-0.2,3.2-1,4.2-2.2
		c1.7-2,3.3-4.1,4.8-6.3c4.4-6.4,7.5-13.5,10.8-20.6c0.3-0.7,0.4-1.5,0.4-2.3c0.2-4.6,1.6-8.8,4.6-12.3c3.7-4.4,8.1-5.5,13.5-3.6
		c0.6,0.2,1.4,0.2,2.1,0.3c0.6,0,1.1-0.1,1.7-0.1c1.9,0,2.4,0.6,2.5,2.4c0,0.9,0.1,1.8-0.1,2.6c-0.6,4.4-1.2,8.7-1.7,13.1
		c-0.2,1.3-0.2,2.6-0.3,3.8c0.2,0.1,0.4,0.1,0.5,0.2c1.5-1.4,3.1-2.8,4.5-4.3c2-2.2,3.9-4.4,5.9-6.6c1.1-1.2,2.8-1.6,4.4-1.1
		c1.5,0.5,2.3,1.7,2.2,3.6c0,0.8-0.2,1.6-0.4,2.4c-0.5,3.5-1.4,6.9-1.5,10.4c-0.2,4.1,2.1,5.4,5.7,3.4c1.9-1.1,3.7-2.6,5.1-4.2
		c2.6-3.1,4.9-6.5,7.3-9.8c0.7-0.9,1.1-2.1,1.5-3.2c0.5-1.2,1.2-2,2.5-2.3c3.4-0.9,5.2,0.3,5.5,3.9c0,0.3,0,0.6,0,1
		c0.1,2.6,0.3,5.2,0.5,7.8c0.8-0.7,1.3-1.5,1.7-2.3c1.7-3.6,3.3-7.3,5.1-10.9c2.9-6.1,5.7-12.2,9.7-17.6c1.3-1.7,2.7-3.4,4.5-4.6
		c4-2.8,9.4-0.9,10.8,3.8c0.5,1.7,0.7,3.4,0.8,5.2c0.3,4.8-0.5,9.6-1.7,14.2c-1.9,7.5-4.1,14.9-6.1,22.4c-0.9,3.4-1.8,6.9-2.8,10.4
		c0.2,0.1,0.3,0.2,0.5,0.3c1-1,2.1-1.9,2.9-3c6.6-8.3,12.1-17.3,16-27.2c0.3-0.7,0.6-1.5,1.1-2.1c1.1-1.5,3-2,4.7-1.3
		c1.6,0.6,2.3,1.9,2.1,3.9c-0.1,1.2-0.5,2.3-0.7,3.5c-0.6,3.3-1.5,6.6-1.1,10c0.3,2.8,1.7,3.8,4.4,2.9c1.1-0.4,2.2-1,3.1-1.7
		c1.3-1,2.5-2,3.5-3.3c2.4-3.1,4.7-6.3,7-9.4c0.6-0.9,1.2-1.9,1.5-3c2.8-8.1,11.4-13.7,20.9-12.7c4.4,0.5,7.3,3.5,7.4,8
		c0,1.7-0.4,3.5-0.9,5.2c-0.8,2.8-1.9,5.6-2.6,8.5c-0.5,2-0.8,4.1-0.8,6.1c0,2.4,1.2,3,3.3,1.7c1.4-0.9,2.8-1.9,3.9-3.2
		c2.2-2.6,4-5.6,6.3-8.2c3-3.5,5.1-7.5,6.8-11.8c0.5-1.2,0.9-2.4,1.5-3.5c2.6-5.3,7.5-7.3,13.2-5.6c2.1,0.6,4.3,1.1,6.5,1.5
		c2,0.4,4,0.5,5.9,0.9c6.1,1.2,11.7,3.6,15.6,8.6c1.2,1.5,2.3,2,4.2,2c73.1,0,146.2,0,219.3,0c0.9,0,1.7,0,2.5,0
		c3.4-7.4,8.9-11.3,16.9-11.1c0.5-3.8,0.4-7.4-0.4-9.8c-1.2-0.2-2.6-0.4-3.9-0.6c-3.3-0.4-6.7-0.5-10-1c-7.3-1.3-14.2-3.8-20.8-7
		c-3.4-1.7-6.8-3.2-10.6-3.6c-4.8-0.5-9.6-0.8-14.3-1.5c-8.4-1.3-16.7-2.7-25-4.4c-6.7-1.4-12-5.1-15.6-11c-0.5-0.7-1-1.5-1.5-2.2
		c-1.4-1.9-3.3-3-5.7-3.1c-1.3,0-2.6-0.2-3.8-0.2c-3.4-0.1-6.4-1.3-9.1-3.3c-2.6-1.9-4.5-4.3-6.1-7c-3.1-5.2-5.8-10.7-7.8-16.4
		c-1.7-5-2.9-10.1-2.3-15.5c0.7-6,4.1-10.1,9.3-11.1c2.8-0.5,5.6-0.2,8.2,1c2,1,4,2.1,5.8,3.4c2.9,2.2,6.1,3.4,9.7,4
		c6.7,1.1,12.6,4,18,8c5.3,4,9.7,8.8,13.8,14c3.7,4.8,3.8,4.6,9.2,4.6c3.4,0,6.4,1,8.9,3.5c0.8,0.8,1.6,1.6,2.6,2.1
		c0.8,0.5,1.8,0.8,2.7,0.8c2.5,0,4.9-0.7,7.4-1.9c-3.1-1.3-5.7-2.9-7.7-5.4c-2.1-2.6-2.9-5.6-3.3-8.9c-1.1-0.1-2.2-0.2-3.2-0.4
		c-2.1-0.3-4.3-0.6-6.4-1.1c-3.9-1-7.2-3-9.5-6.5c-0.4-0.7-0.9-1.3-1.4-1.9c-1.2-1.6-2.8-2.5-5-2.4c-1.5,0.1-3,0-4.5-0.2
		c-5.8-0.7-10-3.5-11.7-9.4c-0.2-0.8-0.5-1.5-0.7-2.3c-0.8-2.8-2.5-4.8-5.2-5.9c-1.5-0.6-3.1-1.4-4.5-2.2c-1.7-0.9-3.5-1.8-4.9-3
		c-4.9-4.2-7.8-9.4-6.7-16c0.8-4.5,3.2-7.9,7.8-9.1c1.9-0.5,3.6-1.3,5.3-2.1c1.6-0.7,3.3-1.3,5-1.5c3.6-0.4,6.8,1,9.3,3.6
		c1.8,1.9,3.8,2.7,6.4,2.6c1.7-0.1,3.4,0,5,0c7.8,0.2,14.1,3.3,18.5,9.8c1.7,2.5,3.3,5.1,4.7,7.8c1.6,2.9,3.9,4.5,7.1,5.1
		c4.2,0.8,8.4,1.8,12.7,2.6c1.7,0.3,3.5,0.6,5.2,0.7c3.1,0.1,4-1.1,3.2-4.2c-0.9-3.3-2.7-6.1-5.1-8.6c-1.8-1.9-4-2.9-6.6-3.1
		c-1.8-0.1-3.5-0.3-5.3-0.4c-3.5-0.2-6.5-1.5-9.3-3.6c-2.8-2.1-5.1-4.8-7.2-7.7c-0.9-1.2-1.9-2.4-2.9-3.5c-1.1-1.2-2.5-1.7-4.1-1.5
		c-0.8,0.1-1.6,0.2-2.4,0.3c-3.2,0.6-6-0.1-8.6-2c-0.8-0.6-1.6-1.1-2.3-1.7c-2.9-2.6-5.9-5.1-8.8-7.8c-5.8-5.4-11.9-10.4-19.1-13.9
		c-3.7-1.8-6.5-4.6-8.4-8.3c-2.3-4.4-2.4-8.9-0.1-13.3c2.4-4.8,6.3-7.9,11.5-8.9c2.2-0.5,4.6-0.6,6.9-0.6c5.9-0.1,11.6,1.3,17.2,2.8
		c7.6,1.9,14.4,5.2,19.9,11c2.1,2.2,4.6,3.6,7.7,3.9c4,0.5,7,2.6,9.1,6c1,1.6,1.8,3.2,2.8,4.8c1.3,2,2.5,4.1,4.1,5.9
		c1.9,2.2,4.3,3.6,7.4,3.2c4-0.4,5.6-3.2,3.9-6.8c-0.4-0.9-1-1.7-1.6-2.4c-1-1.3-2-2.5-3.1-3.7c-3.4-4-6.4-8.1-8.6-13
		c-1.2-0.2-2.3-0.4-3.5-0.5c-5.2-0.3-9.2-2.9-12.5-6.7c-0.8-0.9-1.4-1.9-2.2-2.9c-1.4-1.9-3.2-3.1-5.5-3.6c-2-0.4-3.9-0.9-5.8-1.3
		c-6.6-1.4-13.2-2.7-19.7-4.3c-13.2-3.3-23.9-10.1-31.2-21.8c-0.6-0.9-1.3-1.8-2-2.8c-1.7,0.6-3.4,1-4.9,1.6
		c-3.2,1.3-6.4,2.6-9.5,3.9c-2.6,1.1-5.4,1.7-8.2,1c-5.3-1.2-8.2-4.9-9.8-9.9c-1.4-4.5-1.2-9,0.2-13.5c1.3-4.2,3.4-7.9,5.8-11.5
		c2.5-3.9,4.9-7.9,7.3-11.8c1.1-1.7,2-3.4,3.1-5.1c2.9-4.3,6.5-7.8,11.4-9.9c1.8-0.8,1.8-0.9,1.4-3c-0.8-4.5-1.9-8.9-1.9-13.5
		c0-2.8-0.7-3.4-3.5-4.1c-3.2-0.9-6.5-1.6-9.7-2.6c-3.3-1-6.6-2-9.7-3.3c-3.6-1.4-6.2-4-7.5-7.6c-0.5-1.3-1.4-1.8-2.7-1.9
		c-1.5-0.1-3-0.3-4.5-0.5c-6.4-1-10.5-4.8-11.6-10.8c-0.6-3-0.4-6.1,0.7-9c0.7-2,1.8-3.9,2.7-5.9c0.6-1.2,1.2-2.4,1.8-3.7
		c-6.3-1.6-12.2-3.1-18.7-3.4c-0.4,2.1-0.9,4.1-1.1,6.2c-0.8,6.1-3.8,10.4-9.6,12.6c-2,0.8-3.9,1.8-6,2.4c-1.3,0.4-2.8,0.6-4.2,0.6
		c-2,0-3.6-1.1-5-2.4c-10.4-9.5-20.9-18.9-31.3-28.3c-0.6-0.6-1.3-1.1-1.9-1.6c-0.2,0.2-0.3,0.3-0.3,0.3c0,0.6-0.1,1.1-0.1,1.7
		c0.1,3.5-1.4,6.3-3.8,8.7c-0.8,0.8-1.8,1.4-2.7,1.9c-1.6,0.8-2.4,2-2.2,3.9c0.1,1.1-0.1,2.2-0.3,3.3c-0.4,2.4-0.9,4.9-1.1,7.3
		c-0.5,5-2.7,8.8-7.4,10.9c-0.8,0.4-1.6,0.8-2.4,1.2c-2.3,1.2-3.8,2.5-3.2,6c0.8,4.2-1.1,7.1-4.6,9.2c-1.7,1-3.6,1.7-5.5,2.4
		c-2.7,1-5.1,2.3-7,4.4c-1.6,1.8-3.6,3-6,3.3c-1.4,0.2-2.4,0.7-3.2,1.8c-2,2.9-4,5.7-5.9,8.7c-1,1.7-1.7,3.6-2.5,5.4
		c-2.1,4.6-6.3,6.2-10.9,4.1c-2-1-3.8-2.3-5.7-3.5c-0.7-0.5-1.4-1-2.3-1.5c-1.8,3-2.9,6-3,9.2c-0.1,2,0,4,0,6
		c0.1,2.4-0.8,4.3-2.7,5.6c-1.1,0.8-2.5,1.5-3.9,1.7c-1.5,0.3-2.4,0.9-3,2.3c-1,2.3-2.2,4.5-3.4,6.6c-1.3,2.5-2,5-1.6,7.8
		c0.6,4-0.7,7.5-4,10c-2.9,2.2-6,4.3-9.1,6.1c-2.5,1.5-5.4,2-8.3,1.2c-3-0.8-6-1.8-9-2.6c-7.1-1.8-12.1-5.9-14.2-13.2
		c-0.9-3.2-2.9-5.3-5.9-6.4c-0.7-0.3-1.3-0.6-2-0.9c-0.8,1.2-1.1,2.5-0.9,3.9c0.3,2.1,0.6,4.3,1,6.4c0.5,3.1,0.1,6.1-1.4,8.8
		c-1.2,2.1-2.6,4-4.1,5.9c-1.1,1.4-2.4,2.6-3.6,3.8c-1.1,1.1-1.5,2.3-1.2,3.9c0.9,4.1-0.3,7.6-3.1,10.6c-1.4,1.5-3.1,2.8-4.7,4.1
		c-1.6,1.4-3.3,2.8-4.8,4.3c-0.6,0.5-1.2,1.1-0.8,2.1c1.2,3.2,0.3,6.1-1.1,9c-1.6,3.2-3.3,6.4-5,9.6c-2.8,5.3-6.9,9.1-12.4,11.5
		c-8.7,3.8-13.7,10.5-15,19.9c-0.5,3.7-0.8,7.5-3.6,10.3c1.1,0.8,2.1,1.4,3,2.1c2.9,2.5,3.3,5.9,1.1,9c-0.4,0.6-0.9,1.2-1.4,1.7
		c-2,2.2-4,4.3-6,6.5c2.3,5,0.1,9.7-4.5,11.5c-5.5,2.1-10.2,5.7-14.4,9.7c-0.5,0.5-1.1,1-1.7,1.4c-3.8,2.5-8.7,1.2-10.9-2.7
		c-0.6-1.1-1.2-2.2-1.9-3.6c-2,1.6-3.8,3.1-5.7,4.5c-2.2,1.7-4.3,3.6-6.7,5c-4.3,2.6-9,3.8-14,2.5c-0.4-0.1-0.7-0.1-0.8-0.1
		c-0.6,1.8-0.8,3.6-1.6,5.1c-1,1.9-2.8,3-4.8,3.8c-8,3.1-16,6.1-24.4,7.8c-3.1,0.6-6.2,1.5-8.7,3.7c-4.3,3.8-9.4,2.4-12.2-1.6
		c-1.5-2.1-3.2-4-4.8-6c-0.4-0.5-0.9-0.8-1.1-1c-1.9,1-3.5,2.1-5.2,2.5c-4.6,1.1-8.4,3.5-11.9,6.4c-1.7,1.4-3.6,2.8-5.5,3.8
		c-6.9,3.7-14.8,2.5-20.4-2.9c-1.3-1.3-2.5-2.7-3.8-4c-2.4-2.7-5.2-3.9-9-2.9c-3.9,1.1-7.5-0.8-8.9-4.5c-1-2.7-2.5-5-4.1-7.3
		c-1.6-2.2-2.7-4.5-3.2-7.1c-0.2-1.1-0.6-2.1-0.9-3.4c-7.3,5.4-14.3,10.7-21.5,15.8c-7.2,5.2-14.9,9.7-22.8,13.8
		c-7.8,4-15.8,7.8-23.8,11.7c-0.5,4.4-0.7,9.2-3.8,13c-3,3.7-7,6-11.3,8c0.8,6.3-2.5,10.1-7.6,12.7c-3.7,1.9-7.5,3.5-11.4,5
		c-2.8,1.1-5.9,1.6-8.9,1.5c-0.6,0-1.2,0.1-1.8,0.2c0.1,0.5,0.1,0.8,0.2,1.1c1,6-2.4,10-8.4,9.6C108.5,590,102.4,593.1,96.9,598.3z
		 M576.4,599.5c-1.6,0-3,0.5-4.2,1.5c-5.3,4.4-6.4,10.2-5.3,16.7c0.3,1.8,1.4,2.3,3,1.5c0.8-0.4,1.6-1,2.2-1.7
		c0.7-0.9,1.4-2,1.8-3.1c1.6-3.9,3.2-7.8,4.8-11.7C579.5,600.5,578.7,599.4,576.4,599.5z M337.7,605.1c0.2,0.1,0.4,0.1,0.6,0.2
		c0.7-1.1,1.5-2.2,2.1-3.4c4.3-9,8.5-18.1,12.7-27.1c0.6-1.3,0.8-2.7,1.1-4.1c0.1-0.5,0-1-0.1-2c-2.1,1.9-3.2,3.9-4.2,5.9
		c-4.1,8.5-7.8,17.2-10.9,26.1C338.5,602.1,338.1,603.6,337.7,605.1z M442,597.6c-2.3,0.2-2.6,0.3-3.7,1.5c-2.1,2.2-3.5,4.9-4.1,7.9
		c-0.1,0.8-0.1,1.6,0,2.4c0.3,1.4,1.2,1.9,2.4,1.2c1.1-0.7,2.2-1.6,2.9-2.7c1.6-2.4,2.5-5.1,2.7-8.1
		C442.3,599.2,442.1,598.5,442,597.6z M437.5,631c-5.5,5.7-10.3,11.9-13.3,19.3C430.8,645.4,435.1,638.9,437.5,631z M397.8,597.5
		c2.4-3.1,4.3-6.1,4.3-9.9c0-0.9-0.3-1.9-0.8-2.7c-0.7-1.3-1.9-1.4-3-0.4c-0.4,0.4-0.8,0.8-1,1.3C395.8,589.7,396,593.4,397.8,597.5
		z"/>
	<path d="M881.2,521.2c1-15.9,2.2-31.7,6.6-47.1c3.6-12.8,9.5-24.6,17.1-35.4c4.7-6.7,9.3-13.6,13-21c1.8-3.7,4.7-6.3,8.7-7.3
		c7-1.7,14-3.4,20.9-5.1c2.7-0.7,5.4-1.3,8.1-2c2.6-0.8,4.8-0.2,6.6,1.7c6.9,7.4,8.2,16.6,1.9,24.8c-1.6,2.1-3.6,3.9-5.4,5.8
		c-1.5,1.6-3.1,3-4.6,4.6c-1.2,1.3-1.9,2.8-1.8,4.8c0.2,3.2-2,6.2-5.1,7c-3.3,0.8-5.2,3-6.4,5.9c-1,2.8-2,5.6-2.7,8.4
		c-0.7,2.5-0.6,5,0.7,7.4c1.9,3.5,0.5,7.6-2.9,9.8c-1.7,1.1-3.5,2.2-5.1,3.6c-5.3,4.7-7.3,10.9-7.5,17.8c-0.2,5-0.5,10.1-2,14.9
		c-2.3,7.7-6.6,14.4-12.5,19.8c-2.2,2.1-4.8,3.7-7.9,4.3c-5.9,1.1-10.7-1-14.7-5.2c-3.4-3.6-4.7-8.1-5.2-12.9
		C881.1,524.4,881.2,522.8,881.2,521.2z M952.5,420.3c-0.7-0.1-0.9-0.2-1-0.1c-6.4,1.5-12.9,3.1-19.3,4.6c-1,0.2-1.6,0.9-2,1.8
		c-1.7,3.3-3.4,6.5-5.3,9.6c-1.7,2.9-3.7,5.6-5.6,8.4c-7.9,11.3-14.1,23.4-17.6,36.8c-3.1,11.6-4.2,23.4-5,35.3
		c-0.2,2.5-0.2,5.1-0.2,7.7c0,1.7,0.2,3.3,1.7,4.5c0.2,0,0.4,0,0.5-0.1c0.3-0.2,0.6-0.3,0.8-0.6c5-5.4,8.5-11.3,8.9-18.9
		c0.2-4.6,0.3-9.3,1.4-13.8c2-8.1,5.8-15,12.2-20.5c0.7-0.6,1.3-1.1,1.1-2.2c-0.7-6.1,0.8-11.9,2.8-17.6c1.8-4.9,4-9.7,8.1-13.1
		c2.6-2.1,4.5-4.5,5.9-7.5c1.7-3.5,4.6-6.3,7.5-9C948.9,424,950.5,422.3,952.5,420.3z"/>
	<path d="M377.6,593.5c-0.1,2.4-2.2,4.5-4.7,4.4c-2.1-0.1-3.5-1.7-3.4-3.8c0.1-2.8,2-4.6,4.5-4.5
		C376.2,589.6,377.7,591.2,377.6,593.5z"/>
	<path d="M463.9,597.9c-2.1,0-3.7-1.6-3.6-3.6c0.2-2.4,1.3-4.7,4.4-4.7c2.3,0,3.8,1.6,3.7,4C468.3,595.9,466.2,597.9,463.9,597.9z"
		/>
	<path d="M539.8,597.9c-2.1,0-3.6-1.5-3.7-3.5c-0.1-2.7,1.8-4.8,4.2-4.8c2.3,0,3.9,1.5,3.9,3.9C544.1,595.7,542,597.8,539.8,597.9z"
		/>
</g>
</svg>
