<?xml version="1.0" encoding="utf-8"?>
<!-- Generator: Adobe Illustrator 23.0.4, SVG Export Plug-In . SVG Version: 6.00 Build 0)  -->
<svg version="1.1" id="Layer_1" xmlns="http://www.w3.org/2000/svg" xmlns:xlink="http://www.w3.org/1999/xlink" x="0px" y="0px"
	 viewBox="0 0 1008 1008" style="enable-background:new 0 0 1008 1008;" xml:space="preserve">
<g>
	<path d="M894.6,688.9c0.5,0.4,0.8,0.8,1.2,1.1c4.9,3.9,5,9.6,2.9,14.1c-0.4,0.9-0.9,1.9-1.5,2.7c-1.8,2.9-2.1,6-1.4,9.2
		c0.3,1.3,0.6,2.6,0.9,4c0.8,4.5-2.5,8.5-7,8.7c-0.7,0-1.4,0-2.2,0c-64.6,0-129.3,0-193.9,0c-2.1,0-3.6,0.5-5.1,1.9
		c-3.6,3.3-7.5,6.2-11.8,8.7c-4.5,2.6-9.2,3.3-14,1.4c-3.6-1.5-7.1-1.3-10.7,0.1c-2.6,1-5.4,1.4-8.1,2c-2.7,0.6-5.2,0-7.8-0.9
		c-1.7-0.6-3.4-1.3-5.2-1.9c-2.4-0.8-4.6-0.4-6.8,1.1c-3.6,2.5-7.3,5-11.1,7.2c-6.4,3.7-13.3,5.4-20.6,5.4c-3.3,0-6.5,0.4-9.7,1.5
		c-1.7,0.6-2.5,1.7-2.6,3.6c0,1.4-0.4,2.9-0.9,4.1c-0.8,1.9-2.4,3.1-4.6,3.5c-10.8,1.9-21.4,4.7-32.3,5.8c-3.9,0.4-7.9,0.5-11.6-0.8
		c-1.5-0.5-2.9-1.6-4.3-2.5c-1.2-0.8-2.3-1.8-3.5-2.5c-0.5-0.3-1.2-0.3-1.8-0.3c-6.1,0.1-11.5,2.3-16.5,5.7
		c-1.3,0.9-2.6,1.9-3.9,2.8c-1.6,1.1-3.1,2.2-4.8,3.1c-4.2,2.3-8.5,2.4-12.8,0.1c-0.6-0.3-1.1-0.6-1.8-0.9c-2.3,2.5-5.1,4.3-8,6
		c-2.4,1.3-4.9,2.1-7.6,1.7c-4.7-0.6-7.9-3.1-9.4-7.7c-0.4-1.1-0.6-2.3-0.9-3.5c-0.5-1.8-0.5-2-2.4-2c-4.2,0.1-8.5,0.2-12.7,0.6
		c-4.9,0.6-9.8,1.6-14.7,2.3c-6,0.9-11.8-0.1-17.5-1.9c-0.2,0-0.3-0.1-0.5-0.2c-4.8-1.7-6.3-1.3-9.4,2.8c-0.9,1.2-1.8,2.5-2.6,3.7
		c-4,5.7-9.2,7.8-16.1,6.2c-1.7-0.4-3.4-0.9-5-1.7c-1.5-0.7-2.6-0.6-3.9,0.4c-4.4,3.4-9.4,5.7-14.9,7c-9,2.2-17.8,1.2-26.2-2.7
		c-4.1-1.9-7.6-4.8-10.6-8.1c-3.8-4.2-7.7-8.1-12.4-11.2c-0.7-0.4-1.3-1-1.9-1.5c-6.3-4.7-8.5-11.1-8.1-18.7
		c0.2-4.1,0.5-8.3,0.7-12.4c0.1-4.1-1.1-7.9-3.3-11.3c-3-4.6-6.9-8.4-10.9-12.1c-2.1-2-4.8-2.5-7.6-2.4c-3.3,0.2-6.5,0.5-9.8,0.7
		c-3.9,0.2-7.7,0-11.4-1.1c-4.5-1.3-8.2-3.8-11.3-7.4c-0.5-0.6-1.1-1.2-1.6-1.8c-0.9-1.1-2.2-1.7-3.6-1.6c-4.1,0.2-7.9-0.9-11.6-2.6
		c-4.1-1.8-8.5-2.3-12.9-2.4c-7.9-0.2-15.8,0-23.7-0.2c-4.5-0.1-8.9-0.5-13.4-0.8c-1-0.1-2.1-0.3-3-0.6c-3.8-1.1-6.5-3.5-7.3-7.5
		c-0.8-3.9-1.5-7.9-2-11.8c-1.4-13.2-0.3-26.3,2-39.4c0.8-4.3,4.6-7,9-6.2c4.8,0.9,8.7,3.4,11.5,7.5c0.5,0.7,1,1.4,1.7,2.5
		c1.6-5,2.4-9.6,1.7-14.8c-1,0.6-1.8,1.1-2.6,1.5c-4.5,2.5-9.3,2.9-14.1,1.1c-3.3-1.2-6.1-3.1-7.5-6.3c-2.8-6.4-4.9-13-5-20.1
		c0-2.8,0.6-5.6,1.9-8.1c1.5-2.9,3.8-4.6,7.3-4.5c4.1,0.1,8.3-0.1,12.5-0.4c2.5-0.2,5-0.9,7.2-2.5c-1.2-1.4-2.7-2-4.2-2.2
		c-3.5-0.6-7.1-0.9-10.7-1.5c-2.8-0.4-5.6-0.7-8.2-1.4c-5.4-1.5-8.4-5.4-9.1-10.9c-0.3-2.5-0.4-5.1-0.1-7.6
		c0.9-7.8-0.4-15.1-3.9-22.1c-1.6-3.2-3.1-6.5-4.6-9.8c-2.6-5.8-3.7-12-4.3-18.4c-0.7-7.2-1.2-14.5-2-21.7c-0.4-3.4-1.2-6.8-2.2-10
		c-1.5-5.2-5-9.2-8.7-13c-2.7-2.7-5.5-5.3-8.2-8.1c-7.4-7.7-11.6-17.1-13.5-27.6c-1.4-7.6-1-15.3-0.7-23c0.3-6.5,0.6-12.9-0.2-19.4
		c-0.6-5-2-9.8-4.3-14.4c-2.6-5.1,1.4-11.4,7.1-11c1.4,0.1,2.8,0.7,4,1.5c1.4,0.9,2.9,1.3,4.5,1.4c2.2,0,4.3,0,6.5,0
		c10.3-0.2,19.7,2.7,28,8.9c1.9,1.4,3.9,2.8,5.8,4.3c9.6,7.7,20.5,12.3,32.5,14.7c8.3,1.6,16.7,2.7,25.1,3.9
		c18.9,2.6,37.6,5.8,55.9,11.3c1.6,0.5,3.1,0.4,4.7-0.2c8.6-3.5,16.5-1.9,23.6,3.8c3,2.4,5.5,5.3,8.3,7.9c4.5,4.2,7.4,9.6,11,14.5
		c0.9,1.3,1.9,2.6,2.9,3.8c3.9,4.7,6.9,10,9.5,15.5c2.1,4.4,3.9,8.9,5.9,13.4c0.1-0.2,0.2-0.5,0.3-0.8c0.3-3.5,0.5-7,0.7-10.5
		c0.2-2.9-0.4-5.6-1.8-8.1c-5.5-9.7-10.9-19.4-18.6-27.6c-3.6-3.8-7.5-7.1-11.9-10c-2.6-1.7-5.2-3.4-7.5-5.5
		c-9.1-8.2-8.3-22.4,1.7-29.6c2.2-1.6,4.7-2.7,7.1-4c0.5-0.3,0.9-0.5,1.5-0.8c-1.8-1.5-3.5-2.8-5.3-4.2c-0.2,0-0.5,0-0.8,0.1
		c-9.4,4.3-21.3,1.3-29-7.3c-4.2-4.7-6.9-10-6.9-16.4c0.1-5.7,2.5-10.4,7.2-13.6c1.1-0.7,1.7-1.5,2-2.8c1.6-7.1,7.6-11.9,14.8-12.1
		c5.6-0.2,10.5,1.6,14.7,5.4c0.4,0.4,0.8,0.7,1.6,1.4c-0.1-0.9-0.2-1.4-0.3-1.9c-0.5-2.7-1.2-5.3-1.6-8c-0.5-3.3-1.7-6.1-4-8.5
		c-3.2-3.4-5.4-7.3-6.2-11.9c-1.2-6.7,1.4-12.4,7.3-15.8c3.1-1.8,6.5-2.8,10-3c5.7-0.4,11.5-0.7,17.2-0.7c14,0,28,0.1,42,0.2
		c2.5,0,4.9,0,7.6,0c0.8-1.7,1.5-3.2,2.3-4.8c1.3-2.4,2.6-4.8,4-7.1c0.8-1.3,2.1-2.2,3.8-2.1c2,0.1,3.5,1.1,3.6,3.1
		c0.1,1.6,0,3.3-0.6,4.7c-6.7,16.7-10.2,34.1-12.4,51.9c-0.3,2.1-0.6,4.1-0.7,6.2c-0.1,1.6,0,3.2,0.3,4.8c0.3,1.7,1.1,2,2.6,1.2
		c0.9-0.5,1.8-1.1,2.5-1.8c2.8-2.9,5.6-5.9,8.3-9c1.8-2.1,3.1-4.5,4.9-6.5c1.8-2.1,2.6-4.5,2.8-7.2c0.9-9.9,3.4-19.5,6.1-29.1
		c0.8-2.9,2.2-5.6,3.5-8.4c0.5-1,1.2-1.9,1.9-2.7c3.6-4.3,10.3-3.4,12.7,1.7c0.9,1.9,0.7,4,0.2,5.9c-1.2,3.8-2.3,7.7-3.9,11.3
		c-2.4,5.6-4.9,11.1-7.7,16.5c-3.3,6.4-4.9,12.9-3.5,20.1c0.9,4.6,1.5,9.3,3.3,13.7c0.4,0.9,0.7,1.8,1.2,2.6c1.1,1.6,2.5,2,4.1,0.9
		c1.4-1,2.9-2.1,3.9-3.5c3.1-4.2,6.2-8.3,9-12.7c7.4-12.1,13.2-25,18.9-38c1.2-2.8,2-5.7,3-8.6c0.4-1.2,0.3-2.3-0.3-3.4
		c-1.2-2.2-1.6-4.7-1.5-7.2c0.1-1.7,0.5-3.3,1.6-4.7c3-3.9,5.8-3.9,9.5-1.2c1.6,1.2,2.3,2.8,1.7,4.9c-0.9,3.4-1.7,6.8-2.6,10.2
		c-0.2,0.9-0.3,1.5,0.4,2.2c4.1,3.9,8.7,6.5,14.5,6.7c4.6,0.1,8.6-1.6,11.8-4.9c4.5-4.6,9.9-6.9,16.4-6.4c1.6,0.1,3.3,0.7,4.7,1.5
		c2.5,1.4,3.8,3.7,3.5,6.6c-0.2,1.7-0.6,3.5-1,5.1c-1,3.8-2.2,7.5-3.2,11.3c-0.3,1.3-0.3,2.7-0.1,4c0.2,1.4,1.1,1.9,2.4,1.3
		c1.1-0.5,2.3-1.2,3.2-2.1c4.2-3.9,7.2-8.8,10.1-13.6c0.5-0.8,0.3-1.5-0.1-2.2c-1.7-4.1-1.4-8.2,0.1-12.2c2-5.4,8.6-7.8,13.5-5.1
		c3,1.7,3.9,4.9,2.1,7.8c-1.2,1.9-2.5,1.9-3.7,0c-0.3-0.5-0.9-1.1-1.3-1c-0.5,0.1-1,0.7-1.3,1.2c-0.2,0.4-0.3,0.9-0.2,1.4
		c0.1,1.3,0.2,2.6,0.5,3.8c1.3,4.4,4,7.9,6.9,11.6c0.7-0.5,1.3-0.9,1.9-1.3c2.4-1.8,4.7-3.7,7.1-5.3c1-0.7,1.2-1.6,1.4-2.6
		c1.6-8.8,3.7-17.5,6.7-26c1.8-5.1,3.8-10,6.8-14.5c1-1.6,2.2-3.1,3.5-4.5c1.5-1.6,3.4-2.6,5.7-2.9c3.3-0.5,6,1.5,6.1,4.8
		c0.1,2.6-0.2,5.3-0.8,7.8c-1.5,6.6-4.2,12.7-7.2,18.8c-3.6,7.4-7.5,14.6-11.4,21.9c-1.6,3.1-2.2,6.4-2.4,10c0.4-0.5,0.7-1,1.1-1.4
		c2.7-3.5,5.4-7.1,8.3-10.6c0.8-1,2-1.9,3.1-2.5c2.3-1.3,4.2-0.3,4.5,2.3c0.2,1.6,0.1,3.2,0,4.8c-0.4,7-1.1,14-1.4,21
		c-0.1,3.3,0.2,6.5,0.5,9.8c0.1,0.9,0.5,1.8,0.8,2.8c1.4-0.2,2-1,2.5-1.9c1.6-2.6,3.2-5.2,4.5-7.9c3.1-6.5,5.8-13.2,7.7-20.1
		c0.5-1.9,0.8-3.9,1.3-5.8c0.4-1.5,0.9-3.1,1.6-4.5c1.1-1.9,3.3-2.4,5.2-1.5c1.1,0.5,1.8,1.4,1.8,2.6c0,1-0.1,1.9-0.3,2.8
		c-0.5,2.6-1,5.2-1.4,7.8c-0.2,1.3-0.2,2.6-0.1,3.8c0.3,3,1.8,4,4.6,3c1.3-0.5,2.6-1.2,3.7-2.2c1.8-1.7,3.6-3.5,5-5.5
		c2.5-3.4,5.3-6.6,6.7-10.7c0.7-2,2.8-1.9,4.5-1.9c1.6,0,2.6,0.9,2.9,2.4c0.3,2.1,0.4,4.3,0.6,6.4c0.1,1.3,0,2.6,0,4
		c0.2,0,0.3,0.1,0.5,0.1c0.4-0.6,0.8-1.1,1-1.7c2.3-4.9,4.6-9.9,6.9-14.8c2.5-5.2,5.1-10.4,8.5-15c0.9-1.2,1.9-2.4,3.1-3.4
		c4.6-3.9,10.7-1.9,12.2,3.9c1.1,4.4,0.6,8.7-0.1,13.1c-1.4,8.9-4.2,17.4-6.6,26c-1.2,4.1-2.2,8.1-3.3,12.2c0.2,0.1,0.3,0.2,0.5,0.3
		c0.8-0.7,1.5-1.4,2.2-2.2c4.4-5,7.9-10.7,11.2-16.4c1.1-1.9,2-3.8,3-5.7c1.3-2.5,2.3-5.1,2.8-7.8c0.9-4.5,3.2-8.3,7.1-11
		c3.2-2.1,6.5-2.4,10-1c1.1,0.4,2.1,0.6,3.2,0.4c2.7-0.4,3.7,0.4,3.5,3c-0.4,4.5-1,8.9-1.5,13.3c-0.2,1.9-0.5,3.7-0.7,5.6
		c0.2,0.1,0.3,0.2,0.5,0.3c1.7-1.6,3.3-3.1,5-4.7c0.6-0.6,1.1-1.4,1.7-2c2.4-1.9,3.3-4.4,3.7-7.4c1.2-8.2,3.1-16.3,6.3-24.1
		c0.1-0.4,0.2-0.8,0.3-1.4c-1.5-0.3-2.9-0.7-4.2-0.9c-4.4-0.6-8.7-0.9-12.9,1.3c-1.6,0.8-3,0.6-3.6-0.2c-0.5-0.8-0.1-1.9,1.5-3.2
		c2.5-2.2,5.4-3.4,8.7-3.4c3.5,0,7,0.2,10.5,0.7c2,0.2,3.1-0.3,4-2.1c1.3-2.5,2.9-4.8,4.5-7.1c0.7-1,1.7-1.7,2.6-2.4
		c1.3-1,2.8-1.2,4.3-0.3c1.2,0.7,1.6,2.2,1.1,4.1c-0.3,1.2-0.9,2.4-1.4,3.6c-0.8,1.7-1.6,3.5-2.5,5.5c1.6,0.3,2.8,0.6,4.2,0.7
		c6.4,0.7,12.9,1.4,19.4,0.6c1.7-0.2,3.3-0.5,5-0.8c2.1-0.3,3.9-1.4,5.4-2.9c0.8-0.8,1.7-1.5,2.6-2c0.9-0.5,1.9-0.4,2.6,0.4
		c0.8,0.8,1.1,1.9,0.4,2.8c-1,1.2-2.1,2.4-3.4,3.3c-3.6,2.3-7.6,3.2-11.7,4c-8.1,1.4-16.2,1.7-24.3,0.1c-2-0.4-2.5-0.1-3.3,1.9
		c-2.2,5.5-3.5,11.3-4.6,17.1c-1.5,7.9-2.8,15.8-2.6,23.8c0,3,0.4,6.1,1,9c0.3,1.4,1.1,2.8,2,4c1.1,1.5,2.4,1.7,4,0.8
		c1.4-0.8,2.7-1.8,3.7-3c4.8-5.2,8-11.4,10.7-17.8c0.7-1.7,1.3-3.4,2-5.1c0.5-1.1,0.4-2.1-0.1-3.2c-0.7-1.7-1.2-3.5-1.5-5.3
		c-0.9-5.9,3.4-11,8.7-12.7c5.7-1.8,11.6,0.2,14.6,5.1c2.3,3.7,2.5,7.7,2.4,11.8c0,1.1-0.2,2.2-0.2,3.3c0,1.4,0.5,1.9,1.9,1.7
		c1.2-0.2,2.5-0.5,3.6-1.1c2.3-1.2,4.5-2.5,6.6-3.8c1.5-0.9,3-1.1,4.6-0.7c1.6,0.3,2.1,1.6,2.2,3.1c0.2,2.4,0.3,4.8,0.5,7.2
		c0,0.8,0,1.6,0.4,2.5c0.3-0.6,0.7-1.1,1-1.7c3-6.3,6-12.7,9.1-19c1.8-3.5,3.8-6.8,5.9-10.1c1.1-1.6,2.5-3.2,4-4.4
		c4.4-3.4,10.2-1.3,11.6,4c1,3.7,0.8,7.5,0.3,11.2c-1.2,9.3-4.1,18.2-6.7,27.2c-1,3.5-2,7.1-2.9,10.6c-0.2,0.8-0.3,1.7-0.2,2.8
		c1-1,2-1.9,2.9-3c4.8-5.6,8.6-11.9,12-18.5c2-3.9,3.7-8,5.7-11.9c1-2,2.3-3.8,3.7-5.6c1.4-1.8,3.5-2.5,5.7-2.5
		c12.4,0.1,24.8,0.2,37.2,0.3c3.5,0,7,0.2,10.6,0c3.7-0.2,8,2.8,7.9,7.8c0,0.9,0,1.8,0,2.6c0,117.7,0,235.3,0,353
		c0,9,0.2,18.1-0.7,27.1c-0.1,0.6,0,1.1,0,1.7c-0.3,3.6,0.8,6.3,4.1,8.2c3.4,2,5.5,5.2,5.7,9.2c0.1,1.7-0.2,3.5-0.4,5.2
		C895.3,686.9,894.9,687.8,894.6,688.9z M880.2,683c-4.7-2.7-7.2-6.7-8.4-11.7c-0.4-1.6-0.7-3.3-0.6-5c0-5,0.3-10.1,0.3-15.1
		c0.1-13.2,0.1-26.4,0.1-39.6c0-107.4,0-214.7,0-322.1c0-1.1,0-2.2,0-3.6c-2.3,0-4.4,0-6.5,0c-12.1-0.1-24.2-0.2-36.2-0.2
		c-3.3,0-5.9,1.4-7.4,4.4c-0.9,1.8-1.8,3.6-2.7,5.3c-3.9,7.2-7.9,14.3-13.5,20.3c-1.2,1.3-2.6,2.4-4.1,3.3c-2.1,1.3-4.2,1.1-6.3-0.4
		c-2.1-1.6-3.1-3.7-3.5-6.3c-0.7-4.4,0.3-8.6,1.2-12.8c2.3-11.1,4.8-22.2,7.2-33.3c0.3-1.6,0.5-3.2,0.7-4.8c-0.8,0.2-1.2,0.6-1.5,1
		c-1,1.6-2.1,3.2-3,4.9c-3,6.2-6,12.4-9,18.6c-2.1,4.4-4.3,8.7-6.6,13.1c-1.1,2.2-2.9,3.9-5,5c-3.7,2-6.3,0.6-6.8-3.5
		c-0.1-0.5-0.1-1-0.1-1.4c0.2-2.6,0.3-5.3,0.5-7.9c0.1-1.9,0.3-3.9,0.5-6.1c-2.2,1-4,2-6,2.8c-1.9,0.8-4,1.2-5.9,2
		c-0.7,0.3-1.3,1.1-1.7,1.8c-0.9,1.5-1.7,3.1-2.7,4.5c-1.5,2.3-3.4,4.2-6,5.4c-4.2,1.9-8.5,0.8-11.3-2.9c-0.4-0.5-0.8-1.1-1.3-1.9
		c-0.6,1-1,1.9-1.5,2.7c-2.4,4.4-5.3,8.4-8.9,11.8c-2.3,2.2-4.8,4-7.9,4.9c-5.5,1.7-10.3-0.3-12.8-5.5c-0.7-1.4-1.2-2.8-1.6-4.3
		c-1.5-5.4-1.5-10.9-1.3-16.4c0-0.7,0-1.5,0-2.7c-3.2,3.6-6.1,6.6-8.7,10c-1.1,1.4-1.6,3.5-2,5.3c-0.5,2.1-0.6,4.3-1,6.4
		c-1.3,6.7-4,12.6-8.6,17.7c-2.9,3.2-6.4,5.5-10.9,6.1c-4.2,0.5-7.1-2.4-6.2-6.6c0.5-2.1,1.3-4.1,2.3-6c4.4-8,10.4-14.8,16.8-21.2
		c2-2,2.5-4.1,2.1-6.9c-5,2.7-9.7,3-13.6-1.9c-0.6,1.1-1,2-1.5,2.9c-3.1,6-6.3,12-10.5,17.5c-2,2.7-4.2,5.3-6.7,7.4
		c-3.6,3.1-7.7,2.2-10.1-1.9c-0.5-0.9-0.9-2.1-1.1-3.1c-1-4-0.1-8,0.8-11.9c2.3-11.1,4.8-22.2,7.1-33.3c0.5-2.1,1-4.3,0.6-6.6
		c-1.4,1.8-2.7,3.6-3.7,5.5c-3.4,6.9-6.7,14-10.1,20.9c-1.8,3.7-3.7,7.5-5.6,11.1c-1.3,2.4-3.2,4.4-5.8,5.5c-3.1,1.4-5.5,0.2-6-3.2
		c-0.3-1.9,0-3.8,0-5.7c0-1,0.1-2.1,0.1-3.1c-1,0.6-1.5,1.3-2.1,2c-2.5,3.1-5.2,6-8.7,8.2c-2.3,1.5-4.9,2.3-7.7,2.3
		c-2.2,0-4-0.9-5.4-2.6c-0.4-0.5-0.8-1.1-1.4-1.7c-0.5,1.3-0.9,2.3-1.3,3.4c-2,5-4.1,9.9-7.2,14.3c-1.5,2.1-3.2,4.2-5.2,5.9
		c-3.9,3.2-7.7,2.1-9.6-2.5c-0.9-2.1-1.5-4.4-1.8-6.7c-1.1-7.2-0.6-14.3,0.7-21.5c0.3-1.7,0.7-3.4,1-5.1c-0.8,0.5-1.2,1.2-1.7,1.8
		c-2.7,4-5.4,8-8.1,11.9c-0.6,0.8-1.4,1.6-2.2,2.2c-2.1,1.5-4.4,1.1-5.7-1.3c-0.5-1-0.9-2.3-0.9-3.4c0-3.1,0.2-6.2,0.3-9.3
		c0-0.9,0.1-1.8,0.3-3.3c-2.6,1.9-4.6,3.4-6.6,4.9c0.1,0.6,0.2,0.8,0.3,1c0.2,0.4,0.4,0.9,0.6,1.3c2.6,5.2,4.2,10.7,4.6,16.5
		c0.4,6.8-2.7,13-11,14.4c-5.8,1-11-1.9-12.9-7.4c-1.5-4.4-1.3-8.8,0.8-13.1c1.7-3.4,3.9-6.4,6.4-9.2c0.4-0.5,0.8-0.9,1.2-1.5
		c-2.1-2.7-4.1-5.3-6.2-8c-0.4,0.6-0.7,1-1,1.5c-1.4,2.3-2.7,4.6-4.1,6.8c-2.2,3.4-5,6.3-8.4,8.4c-2,1.2-4.1,1.9-6.4,1.9
		c-3.6,0-5.9-2.1-6.2-5.6c0-0.5-0.1-1-0.2-1.7c-1,0.7-1.7,1.4-2.5,1.9c-4.1,2.4-10.8,2.7-13.5-4.2c-0.9-2.3-1.3-4.8-1.2-7.3
		c0-0.9,0.1-1.9,0.1-3c-9.2,2.3-16.9-0.6-23.9-6.1c-0.3,0.7-0.5,1.3-0.7,1.9c-1.3,3.5-2.3,7-3.8,10.3c-4.6,9.7-8.9,19.5-14.6,28.6
		c-3.8,6.1-7.5,12.3-12.5,17.6c-3.1,3.3-6.5,6.2-10.8,7.8c-4.2,1.5-7.9,0.6-10.8-2.8c-1.1-1.3-2-2.9-2.7-4.5
		c-2.4-5.1-3.3-10.7-3.7-16.3c-0.1-0.7,0.2-1.6-0.4-2.1c-2.2,2.7-4.3,5.3-6.5,7.8c-1.9,2.2-4.3,3.9-6.9,5.1
		c-5.6,2.5-11.4,0-13.4-5.7c-0.5-1.5-0.8-3.1-1-4.7c-1.2-10.5-0.4-20.9,1.7-31.2c0.3-1.7,0.7-3.4,1-5.2c-0.8-0.1-1.4-0.1-1.9-0.1
		c-10.2-0.1-20.5-0.2-30.7-0.2c-5.8,0-11.5-0.1-17.3-0.1c-3.8,0-7.7,0.3-11.5,0.6c-1.3,0.1-2.7,0.4-3.6,2c1.3,1.5,2.6,3.2,3.9,4.7
		c3.1,3.5,5.5,7.3,6.3,11.9c0.9,5.5,2.2,10.8,4.5,15.9c1.6,3.5,1.1,7-0.5,10.5c-3.9,8.3-12.5,10.9-20.2,6c-1.8-1.2-3.4-2.7-5-4.1
		c-1-0.9-1.9-1.9-3-2.8c-1.2-1-2.5-1.7-4.4-1.3c2,3.1,2.2,6.2,0.1,9.2c-2.1,3.2-5.2,3.9-8.8,3.1c-0.4,1.6,0,2.8,0.5,3.9
		c1.4,3,3.8,5.1,6.8,6.5c4.3,2,6.7,1.5,10-1.9c3.7-3.9,9.4-3.3,12.3,1.2c0.3,0.4,0.5,0.8,0.7,1.3c1,2.3,2.7,4,4.8,5.2
		c1.8,1,3.7,1.9,5.5,2.9c1.8,1.1,3.8,2.2,5.3,3.6c5,4.9,4.9,14.6-3.9,17.6c-1.1,0.4-2.2,0.6-3.2,0.9c-2.5,0.7-5,1.1-7.4,2
		c-1.6,0.6-3.2,1.4-4.6,2.5c-2.2,1.8-2.2,4.2-0.2,6.3c1,1,2.3,1.8,3.4,2.6c3.4,2.4,6.9,4.7,10.1,7.2c5.7,4.5,10.3,10,14.5,15.9
		c5.7,8.1,11.1,16.3,14.8,25.4c1.7,4.1,2.5,8.4,2,12.9c-0.2,2-0.3,4-0.4,6c-0.3,5.9-0.5,11.8-0.9,17.7c-0.4,4.8-1.3,9.5-3.7,13.8
		c-3.8,6.7-12,8.7-18.4,4.6c-4.4-2.9-7.1-7-8.2-12.2c-0.7-3.3,0.2-6.5,0.8-9.7c0.6-3.4,0.4-6.5-1.1-9.6c-1.2-2.6-2.6-5.1-3.8-7.7
		c-4.4-9.4-11.8-16.9-16.8-25.9c-0.1-0.2-0.3-0.3-0.5-0.5c-1.5-1.6-3-3.3-4.6-4.9c-1.7-1.8-3.5-3.6-5.3-5.2c-2.7-2.3-5.7-3-9.1-1.7
		c-4.1,1.6-8.4,1.7-12.8,0.9c-2-0.4-4.1-0.8-6.1-1.4c-11.3-3.4-22.8-5.6-34.4-7.4c-10.7-1.6-21.3-3.1-32-4.7
		c-18.1-2.6-34.6-8.8-49-20.4c-2.8-2.3-6.1-4.2-9.3-5.9c-5.4-2.8-11.3-3.3-17.3-3c0.1,1,0.2,1.8,0.3,2.5c1,6.3,1.4,12.5,1.2,18.9
		c-0.2,6.9-0.5,13.9-0.3,20.8c0.3,9.4,3.5,17.8,10.1,24.8c2.9,3.1,5.9,6.1,8.9,9.1c7.5,7.6,12.3,16.6,13.7,27.1
		c1.1,7.7,1.6,15.6,2.4,23.4c0.8,7.5,2.4,14.8,5.7,21.7c1.3,2.6,2.3,5.3,3.4,7.9c3.2,7.7,4.6,15.8,3.9,24.1c-0.1,1.5,0,3,0,4.6
		c0.6,0.2,1,0.3,1.5,0.4c2.5,0.3,5.1,0.6,7.6,0.9c4.2,0.5,8.4,1.2,12.3,2.9c6,2.5,10.1,6.9,11.8,13.3c1.2,4.5,0.3,8.4-3.2,11.5
		c-1.6,1.4-3.3,2.8-5.2,3.9c-5.4,3.3-11.5,4.2-17.7,4.4c-1.1,0-2.1,0.1-3.6,0.2c1.1,3.4,2.1,6.5,3.2,10c1.7-1,3.1-1.7,4.4-2.6
		c3-2,6.1-3.9,9.7-4.5c3.3-0.6,6.6,0.9,8,3.9c2.5,5.4,3.9,11.1,4.1,17.1c0.2,6.1-0.7,12.2-2.8,17.9c-1.9,5.2-4.1,10.2-6.4,15.2
		c-1.3,2.9-3.4,5.2-6.6,6.3c-3.3,1.2-8.3,0.3-9.9-4.2c-0.2-0.5-0.5-1-0.7-1.4c-0.6,6.4,0.1,12.5,1.5,18.9c3.5,0.1,7,0.3,10.5,0.4
		c9.7,0.4,19.5,0.6,29.2,1.1c4.5,0.2,8.9,1.1,12.9,3.3c2.1,1.1,4.1,1.6,6.4,1.4c3.5-0.4,6.7,0.7,9.4,2.9c1.6,1.3,3.3,2.6,4.6,4.2
		c3,3.8,6.8,5,11.4,4.6c4.1-0.4,8.3-0.5,12.4-0.7c6-0.2,11.3,1.8,15.9,5.6c5.7,4.6,10.2,10.2,14,16.3c3.9,6.4,5.8,13.4,5.3,21
		c-0.3,4.1-0.4,8.1-0.5,12.2c-0.1,2.1,0.7,3.9,2.4,5.3c0.8,0.7,1.6,1.4,2.5,1.9c5.1,3.2,9.4,7.1,13.3,11.6c3,3.4,6.6,5.8,11.1,6.8
		c7.2,1.5,14,0.2,20.1-4c1.3-0.9,2.6-1.9,3.9-2.8c2.2-1.5,4.6-2.2,7.2-2.1c2.3,0.1,4.4,0.7,6.5,1.6c1.4,0.6,2.8,1.1,4,1.5
		c3.3-3.9,6.2-7.7,10-10.6c3.7-2.8,8-4.1,12.6-3.4c3.5,0.6,7,1.4,10.5,2.3c3.8,0.9,7.6,1,11.4,0.4c6.5-1,13.1-2,19.7-2.8
		c4.5-0.5,8.9-0.1,13.4,0.8c3.9,0.8,6.6,3.1,7.9,6.9c0.3,0.9,0.7,1.7,1.1,2.8c3.1-2.3,6-4.6,9.7-5.4c3.9-0.8,7.4,0.5,10.5,2.6
		c0.3-0.2,0.5-0.2,0.6-0.3c1-0.7,1.9-1.5,2.8-2.2c6.6-5.1,13.9-8.8,22.3-10c4.9-0.7,9.9-0.8,14.5,1.7c1.5,0.8,3.1,1.4,4.4,2.4
		c1.7,1.2,3.5,1.3,5.4,1.3c7.5-0.2,14.7-1.8,22-3.4c2.1-0.5,4.2-1.8,5.3-3.7c2.7-4.5,6.6-7.3,11.4-9c4-1.4,8.3-2,12.5-1.9
		c7.8,0.2,14.6-2.4,20.7-7.1c1.5-1.2,3.1-2.2,4.7-3.4c5.8-4.3,12-5.1,18.8-2.6c7,2.5,5.6,2.8,13.9,0.4c5.2-1.5,10.4-1.9,15.6-0.2
		c2.8,0.9,5.2,0.4,7.4-1.4c3.1-2.5,6.3-4.9,9.2-7.6c2.3-2.2,4.8-3.1,8-3.1c18.2,0.1,36.3,0,54.5,0c44.5,0,89,0,133.4,0
		c1,0,2,0,2.9,0c0.4-2.7,0.5-5.1,1.1-7.4c0.6-2.3,1.7-4.4,2.6-6.8C877.5,695.3,878.4,689.3,880.2,683z M538.2,298.7
		c-3.8,3.6-6.5,7.4-6.9,12.5c-0.1,1.8,0.1,3.9,0.8,5.6c1.5,3.8,5.6,4.4,8.1,1.1c0.8-1.1,1.4-2.5,1.6-3.9
		C543,308.5,540.7,303.7,538.2,298.7z M508,277.4c-2.7-1.6-5.9-1.3-7.8,0.5c-3.1,2.9-4.8,6.5-4.9,10.8c0,1.8,0,3.7,0.4,5.4
		c0.3,1.6,1.4,2.2,2.8,1.4c1.1-0.6,2.3-1.6,2.9-2.7c1.4-2.4,2.5-5,3.5-7.6C506,282.7,506.9,280.1,508,277.4z M751.6,282.3
		c0.6-4.3,0.1-8.4-1.9-12.1c-0.9-1.7-2.8-1.9-4.3-0.8c-2.7,1.8-3.1,5.6-0.7,8.4C746.4,279.9,748.8,281.2,751.6,282.3z M577.3,238.2
		c-0.2-0.1-0.4-0.1-0.6-0.2c-0.3,0.2-0.7,0.4-0.9,0.7c-0.9,1.7-2,3.3-2.7,5c-3.2,7.7-5.2,15.7-7.3,23.7c-0.1,0.3,0,0.6,0,1.4
		c0.6-1.1,1-1.7,1.3-2.4c1.6-3.6,3.3-7.2,4.9-10.9c2-4.7,4-9.4,5-14.4C577.2,240.2,577.2,239.2,577.3,238.2z M739.3,287.4
		c-0.1,2.1-0.4,4.1-0.3,6.2c0,1.8,1.1,3.2,2.8,3.8c1.7,0.6,3.2-0.1,4.4-1.2c1.5-1.4,2.5-3.1,2.9-4.8
		C745.9,290,742.9,288.8,739.3,287.4z M686.8,274.2c-1.9-0.5-3,0.4-3.9,1.4c-2.2,2.3-3.5,5.1-4.1,8.2c-0.3,1.5,0.2,3.4,1,3.4
		c1,0,2.3-0.4,2.9-1.1C685.7,282.7,687,278.8,686.8,274.2z M682.2,307.3c-4,3-12.8,15.9-13.4,19.5
		C673.8,324.1,680.9,313.8,682.2,307.3z M421.2,269.3c-4.3,7.5-6.5,15.7-8.2,24.1C416.6,285.7,421,278.2,421.2,269.3z M460.8,260.5
		c-2.3,1.4-2.5,2.4-1,5.2C460.1,263.9,460.5,262.3,460.8,260.5z"/>
	<path d="M601.1,274.2c-2.1-0.1-3.6-1.7-3.5-3.7c0.1-2.7,2-4.7,4.4-4.7c2.3,0.1,3.8,1.7,3.6,4.1
		C605.6,272.3,603.4,274.3,601.1,274.2z"/>
</g>
</svg>
