<?xml version="1.0" encoding="utf-8"?>
<!-- Generator: Adobe Illustrator 23.0.4, SVG Export Plug-In . SVG Version: 6.00 Build 0)  -->
<svg version="1.1" id="Layer_1" xmlns="http://www.w3.org/2000/svg" xmlns:xlink="http://www.w3.org/1999/xlink" x="0px" y="0px"
	 viewBox="0 0 1008 1008" style="enable-background:new 0 0 1008 1008;" xml:space="preserve">
<g>
	<path d="M476,307.3c1.4,0,2.4,0,3.4,0c52,0,104,0,156,0c1.1,0,2.2,0,3.3,0.2c3.7,0.7,6,3.4,6.2,7.2c0,0.6,0,1.3,0,1.9
		c0,25,0,49.9,0,74.9c0,7.5,0.1,15,0,22.5c0,2.8-0.4,5.6-0.5,8.4c-0.1,1.9,0,3.8,0.1,5.6c0.2,0,0.3,0.1,0.5,0.1
		c0.3-0.4,0.6-0.8,0.9-1.3c0.6-1.2,1.1-2.3,1.6-3.5c2.1-4.7,5.8-7.1,10.8-7.6c0.3,0,0.6,0,1,0c0.3,0,0.6-0.1,0.9-0.1
		c1.2-1.8,2.4-3.5,3.5-5.2c1.4-2.2,3.5-3.5,5.9-4.3c1.8-0.6,3.5-1.1,5.3-1.5c2.3-0.5,3.4-1.8,3.8-4c0.7-3.7,2.8-6.6,5.8-8.8
		c1.6-1.2,3.5-1.9,5.2-2.9c0.1-0.1,0.3-0.1,0.5-0.2c4.6-1,6.9-3.8,7.4-8.5c0.7-6.3,4.4-10.4,10.2-12.4c5.9-2,11.5-0.8,16.7,2.5
		c0.8,0.5,1.6,1.1,2.6,1.8c2.4-3.9,6.4-5.9,10.1-8.3c2.8-1.9,4.9-4.4,6.7-7.2c1.1-1.7,2-3.5,3.1-5.1c1.9-2.8,2.9-5.7,2.8-9.2
		c-0.1-5,3.8-9.4,8.9-10.6c5.3-1.3,10.9,1,13.6,5.7c1.1,1.9,1.8,4,1.6,6.2c-0.1,1.3,0.4,2,1.4,2.8c2.4,1.7,4.7,3.6,6.2,6.2
		c0.3,0.5,1,0.9,1.5,0.9c3.8,0.1,6.9,1.8,9.8,4c4,3.1,8.6,3.7,13.4,2.9c0.3-0.1,0.6-0.2,1.1-0.3c0-0.8,0.1-1.5,0.1-2.3
		c0.1-4.9,2-8.7,6.6-10.7c1.5-0.6,2.2-1.6,2.6-3.1c1.1-4.1,3.6-7.3,7.2-9.5c2.3-1.4,4.7-2.7,7.3-3.7c5.6-2.1,11-1.8,16,2.4
		c0.5-0.7,1.1-1.2,1.5-1.9c8.1-13.7,26.8-13.6,36.9-3.4c3.6,3.6,6.2,7.7,7.4,12.7c0.3,0,0.6,0.1,0.8,0c2.6-1.3,5.4-1.3,7.8,0.2
		c3.4,2.1,6.7,2,10.4,0.8c3.5-1.2,7.1-0.7,10.5,1c7.3,3.7,8.7,12.1,3.1,18c-0.6,0.6-1.1,1.2-1.8,2c0.6,0.9,1.3,2,2.1,2.9
		c1.5,1.8,3.5,2.4,5.8,2c1.1-0.2,2.2-0.5,3.2-0.8c5.7-2,11.7,3.6,9.7,9.8c-0.7,2.2-1.3,4.4-2,6.7c2.7,2.1,4.5,4.7,5.4,7.9
		c0.7,2.8,0.9,5.5,0.2,8.3c-0.8,3.2-0.7,6.3,0.6,9.4c1.2,2.8,1.2,5.7-0.1,8.4c-1.2,2.7-2.4,5.4-4,7.9c-5.9,8.9-9.5,18.6-11.6,29
		c-0.2,1-0.6,2-1,2.9c-1.1,2.2-2.9,3.3-5.3,3.5c-2.9,0.2-5.3-0.7-7.4-2.7c-11.2-10.2-22.5-20.1-33.6-30.5
		c-14.6-13.6-28.9-27.4-43.3-41.2c-1.4-1.3-2.8-2.7-5-2.3c-2.5,0.4-4.5,1.5-6.2,3.4c-1.1,1.2-1.1,2.7-0.7,4.3
		c0.6,2.6,1.2,5.1,1.5,7.8c0.4,3.5-0.2,6.8-1.8,10c-1.9,3.6-6.4,5.5-10,2.1c-0.2-0.1-0.4-0.2-0.8-0.5c-0.1,4-1.1,7.6-4.5,9.8
		c-3.5,2.3-7,1.1-10.7-0.6c0.4,2.2,0.8,4,1,5.9c0.4,3.4,0.7,6.9-0.1,10.3c-0.4,1.7-1.1,3.4-1.9,4.9c-1.9,3.4-5,4.6-8.8,3.5
		c-1.2-0.4-2.4-0.9-3.9-1.5c0.3,1,0.6,1.8,0.8,2.6c2,5.6,3.9,11.2,4.8,17.1c0.3,2.4,0.7,4.8,0.4,7.1c-0.5,4.5-4,6.7-8.5,5.5
		c-2.5-0.6-4.6-2-6.2-3.9c-2.3-2.6-4.6-5.3-6.7-8.1c-6.8-9-13.6-18-20.4-27c-0.7-0.9-1.5-1.8-2.3-2.7c-0.2,0.1-0.3,0.2-0.5,0.2
		c0.2,0.9,0.4,1.9,0.7,2.8c2.2,5.6,4.4,11.2,6.7,16.7c2.3,5.5,4.8,10.8,7,16.3c0.9,2.1,1.6,4.4,2,6.6c0.3,1.5,0.1,3.2-0.3,4.7
		c-0.9,3.3-3.6,4.4-6.5,2.5c-1.3-0.8-2.3-1.9-3.5-2.9c-1-1-2-2-3.4-3.3c0.4,3,0.9,5.4,1.1,7.8c0.4,3.7,0.3,7.3-1.1,10.9
		c-0.2,0.6-0.5,1.2-0.8,1.7c-2.2,4.1-5.5,5.6-10.3,3.7c-2.4-1-4.4-2.8-6.6-4.3c-0.5-0.3-0.9-0.8-1.8-1c0.2,2.1,0.5,4.2,0.7,6.3
		c0.3,4.1,1.8,7.6,4.7,10.7c4.8,5.1,8.4,10.9,9.9,17.8c0.9,4.3,1.4,8.6-0.3,12.7c-0.6,1.4-1.3,2.8-2.3,3.9c-2.4,2.7-5.5,2.7-7.9,0
		c-1.1-1.2-2-2.7-2.6-4.2c-2.7-6.4-4-13.1-4.8-20c-0.4-3.3-0.6-6.7-1-10c-0.1-0.7-0.4-1.6-0.9-2.1c-0.7-0.9-1.6-1.6-2.3-2.3
		c-1.2,2.2-2.2,4.5-3.6,6.4c-1.5,2-4,2.4-6.7,2.6c0.5,1.2,1,2.1,1.4,3c3.1,6.7,6.1,13.6,7.6,20.9c0.5,2.6,0.8,5.2,0.7,7.8
		c-0.1,4.5-3.2,7.2-7.7,7c-3.7-0.2-6.7-1.9-9.3-4.4c-3.4-3.2-6.1-7-8.4-11.1c-1.8-3.2-3.4-6.5-5.1-10c-0.7,1.3-1.2,2.6-1.9,3.7
		c-0.8,1.2-1.9,2.1-2.7,3c1.1,4.3,2.3,8.5,3.2,12.7c0.8,3.6,1.1,7.3,0.2,11c-0.5,2-1.2,4-2.2,5.8c-2,3.4-5.1,4.5-8.8,3.2
		c-2.1-0.8-4.1-2-6.4-3.1c0,0.5,0,1,0,1.5c0.3,6.5,0.8,12.9-0.3,19.4c-0.4,2.6-1.2,5.1-2.5,7.5c-1.9,3.3-4.7,4.6-8.4,4.2
		c-0.3,0-0.6,0-1.1-0.1c0.1,0.6,0.1,1.2,0.2,1.7c2.2,7.6,4.5,15.2,6.6,22.8c0.8,2.8,1.6,5.7,2,8.6c0.3,1.9,0.2,4-0.3,5.9
		c-0.9,3.6-4.1,5.6-7.7,4.8c-2.3-0.5-4.6-1.4-6.7-2.6c-10.9-6.2-20.6-14.1-29.6-22.7c-0.9-0.8-1.7-1.6-2.9-2.7
		c-0.1,0.9-0.2,1.4-0.2,2c0.6,14.2-1.2,28.2-3.8,42.2c-0.4,2.3-1.2,4.6-2,6.9c-1.3,3.4-3.5,6.1-6.5,8.1c-2.1,1.4-4.4,1.9-6.8,1.5
		c-3.7-0.7-6.9-2.5-9.9-4.7c-5.7-4.3-10.5-9.6-15-15.1c-0.8-1-1.6-2-2.7-2.8c0.6,2.6,1.4,5.1,1.8,7.7c0.6,3.4,1,6.8,1.3,10.2
		c0.3,2.6,0.1,2.7,2.6,3.5c9.6,3.3,12.1,12.7,10.3,19.2c-0.2,0.7-0.4,1.4-0.7,2c-2.7,6.2-9.8,7.2-14.3,2.2c-2.5-2.8-3.4-6.3-3.7-9.9
		c-0.1-1.7,0-3.5,0-5.4c-2.6-0.1-5-0.2-7.8-0.4c0,1,0,1.8,0,2.7c-0.3,4.4-0.4,8.8-0.9,13.1c-0.3,3.1-1.4,6.1-3.6,8.5
		c-3.3,3.7-7.3,5-12.1,3.6c-0.5-0.2-1.1-0.3-1.6-0.4c-0.1,0-0.1,0.1-0.4,0.2c0.2,0.7,0.4,1.4,0.7,2.1c2.1,5.5,3.6,11.1,4.3,16.9
		c0.5,3.5,0.2,7-0.7,10.4c-1.4,5-4.7,8-9.8,9.2c-0.5,0.1-1.1,0.3-1.6,0.4c-0.1,0-0.3,0.1-0.7,0.3c0.4,1.2,0.8,2.5,1.1,3.7
		c2,6.6,4.1,13.1,5.8,19.8c1.3,4.9,1.6,9.9,0.9,15c-0.2,1-0.3,2.1-0.6,3.1c-1.7,5.6-5.5,8.3-11.9,7.4c-4-0.6-7.7-2.2-11.1-4.3
		c-2.4-1.4-4.7-3.1-7-4.7c-0.4-0.3-0.9-0.6-1.7-1.1c0.3,1.4,0.5,2.4,0.7,3.4c1,4.6,1.7,9.1,0.8,13.8c-1.3,7.7-8.3,11.1-15.2,7.5
		c-1.3-0.7-2.6-1.6-3.7-2.3c-9.1,6.9-18.2,13.4-28,19.1c-4.8,2.8-10,0.6-11.6-4.7c-0.5-1.5-0.9-3-1.4-4.8c-2.3,1.2-4.5,2.2-6.6,3.3
		c-8.6,4.6-16.8,9.9-24.6,15.8c-1.4,1.1-3.1,2-4.8,2.5c-2.8,0.9-5.1,0.1-7.1-2.2c-1.6-1.9-3.5-3.7-5.4-5.5c-0.6-0.6-1.4-1-2.4-1.7
		c0.2,0.9,0.2,1.4,0.3,1.9c2.5,8.6-1.1,16.1-9.6,18.9c-4.3,1.4-8.8,2.1-13.3,2.9c-7.1,1.2-14.2,2.1-21.3,3.3c-5.8,1-11,3.3-14.7,8.2
		c-2,2.7-8.2,2.8-10.5-0.2c-1.7-2.2-3.4-4.2-5.2-6.3c-3.9-4.6-7.8-9.1-12.7-12.6c-0.4-0.3-0.8-0.5-1.4-1c-0.7,1.1-1.5,2.2-1.9,3.3
		c-1.9,5.5-5.7,9-10.9,11.5c-3.8,1.9-7.3,4.4-10.7,6.8c-6.1,4.3-12.8,7.3-20.2,8.3c-4.9,0.7-9.7,0.8-14.5-0.7
		c-3.7-1.2-6.7-3.3-8.9-6.6c-1.4-2.1-2.8-4.3-4.1-6.5c-1.1-1.7-2.6-2.8-4.7-2.9c-2.2-0.1-4.5-0.2-6.7,0c-4.7,0.4-8.3-1.3-10.6-5.5
		c-0.5-0.9-1-1.8-1.6-2.7c-1.3-1.9-2.8-3.4-5-4.4c-1.1-0.5-2.1-1.1-3.2-1.6c-5.3-2.8-7.7-6.5-6.3-14c0.4-1.9,0.8-3.7,1.3-5.7
		c-3.8-1.7-7.5-3.4-9.1-7.5c-1.6-3.9-1.3-7.8,0.4-11.7c-5.6-0.3-10.5-2.2-15.3-4.6c-1.9-1-3.6-2.3-5.2-3.8c-1.9-1.6-2.8-3.8-3.1-6.3
		c-0.2-1.3-0.3-2.7-0.5-4c-0.3-2.1-1.3-3.8-3.4-4.5c-2.5-0.9-5.1-1.8-7.7-2.7c-1.9-0.7-3.9-1.5-5.7-2.4c-2.5-1.3-4.2-3.3-5.4-5.9
		c-1-2.3-2.1-4.5-3.4-6.6c-2.5-4-4-8.4-4.1-13.1c-0.1-2-0.7-3.2-2.7-3.9c-3-1.2-5.1-3.6-6.5-6.4c-1.1-2-2.1-4.1-3-6.3
		c-1.7-3.7-4.2-6.6-7.5-9.1c-7-5.1-10.9-12-10.4-20.9c0.1-2.3-0.3-4.5-1.7-6.5c-2.7-3.9-4.9-8.1-6.4-12.6c-1.1-3.2-3-5.6-5.9-7.2
		c-1.2-0.7-2.3-1.4-3.5-2.2c-7.2-4.7-9.5-11.7-6.6-19.8c0.1-0.3,0.2-0.6,0.3-0.9c2.3-4,3.4-8.4,3.8-13c0.3-3.6,1.8-5.3,5.7-7.6
		c-0.2-2.1-0.4-4.4-0.8-6.7c-0.8-5.5-1.9-10.9-1.9-16.4c-0.1-6.6,3-11.1,9.1-13.6c4.6-1.9,9.4-2.5,14.2-3.2
		c7.7-1.1,15.3-2.5,22.7-4.8c0.4-0.1,0.7-0.3,1.2-0.5c0.2-4.1,0.4-8.1,0.5-12.2c0.1-2.8,0-5.6-0.1-8.4c-0.1-7.8,7.3-11.5,12.1-11.3
		c1.1,0.1,2.3,0.7,3.4,1.1c0.4,0.1,0.6,0.5,1,0.7c1.1,0.8,2.2,1.8,3.7,1.2c1.6-0.7,1.9-2.3,2-3.8c0.3-3.9-0.2-7.7-1.2-11.4
		c-1.4-5.2-3-10.4-4.5-15.7c-0.7-2.5-1.1-5-0.7-7.6c0.8-5.1,3.8-8.7,8.3-10.7c3.5-1.5,4.6-4,4.8-7.2c0.2-2.7,0.7-5.4,1.9-7.9
		c1.4-3.1,3.4-5.8,6.5-7.4c2.2-1.2,3.3-3,3.8-5.5c0.6-3.4,1.2-6.8,2.3-10c1.8-5.4,5.3-9.4,11-10.7c4.7-1.1,9.1-0.4,12.3,3.8
		c2,2.6,4.5,4.7,7.5,6.2c1.7,0.9,3.3,2,4.7,3.3c3.5,2.9,5.1,6.6,5,11.2c0,0.5,0,0.9,0,1.7c3.4-2.1,6.9-2.6,10.4-2.6
		c1.5-5.2-0.6-11.1-5.2-13.8c-4.3-2.6-6.6-6.3-8-10.9c-1.4-4.6,2.4-10.4,7.4-9.9c1.9,0.2,3.9-0.4,5.9-0.8c1.3-0.3,1.8-1.1,1.9-2.6
		c0.3-9,2-17.8,6.5-25.8c2.8-5.1,6.7-9.2,11.9-11.9c3.9-2,8-2.7,12.3-2.5c0.8,0,1.6,0,2.4,0c0.4-1.3,0.8-2.6,1.2-3.9
		c1.2-3.3,2.8-6.3,5.4-8.7c2-1.8,3.1-4,3.6-6.6c0.1-0.7,0.3-1.4,0.5-2.1c1.8-7.1,7.9-10.7,15-9.1c5.1,1.2,8.6,4.4,11.1,8.8
		c0.7,1.3,1.3,2.8,1.9,4.1c0.4,0.9,0.7,1.8,1.2,2.6c0.9,1.5,1.1,1.6,2.7,1c1.2-0.4,2.4-0.9,3.5-1.6c2.9-1.8,6-3.1,9.3-3.7
		c2.8-0.5,4.5-1.8,4.9-4.6c0.1-0.9,0.5-1.7,0.9-2.5c1.9-5.1,5.6-8.5,10.8-9.6c3.9-0.8,5.9-3.1,7.5-6.5c6.2-12.5,15.3-22.1,28.5-27.5
		c2.5-1,5.1-1.7,7.8-2.6c0-0.6-0.1-1.3-0.2-2c-0.6-3.7,0-7.2,2.4-10.2c1.4-1.8,1.7-3.6,1-5.7c-2.2-7-0.9-13.5,2.6-19.8
		c1.7-3.1,3.2-6.3,4.5-9.5c2-4.9,3-10.1,2.6-15.5c-0.3-4.2,1.7-6.3,5-7.5c1.4-0.5,2-1.4,2.4-2.7c1.4-4.6,1.9-9.4,2.4-14.2
		c0.6-6.3,1.1-12.6,1.9-18.8c0.7-5.4,2.3-10.6,4.8-15.5c2.5-4.8,5-9.7,6.5-14.9c0.8-2.8,2.3-5.3,4.2-7.5c0.7-0.8,1.3-1.6,1.9-2.5
		c1.2-1.8,1.6-3.8,0.9-5.9c-0.5-1.5-1.1-3-1.8-4.4c-0.7-1.6-1.5-3.2-2.3-4.8c-1.1-2.5-1.2-5.1,0-7.7c0.2-0.5,0.4-1.1,0.6-1.5
		c3.3-5.9,3.2-12.1,2.1-18.4c-0.2-1.4-0.6-2.8-1-4.2c-0.5-2.1-1.5-4-3.1-5.6c-1.9-2.1-3.4-4.5-3.9-7.3c-0.9-5.6,2.1-10.4,7.8-12.4
		c1.5-0.5,3.1-0.9,4.7-1c2.5-0.2,4.7-1,6.8-2.2c3.5-2.1,7.2-3.6,11.3-3.8c4.7-0.2,8.8,1.3,12.3,4.4c1.4,1.2,2,2.9,2.1,4.7
		c0.1,0.8,0,1.6,0,2.4c0,59.9,0,119.8,0,179.8C476,304.9,476,305.9,476,307.3z M691,529.3c0.5-0.7,0.8-0.9,0.9-1.3
		c0.5-1.2,0.9-2.4,1.3-3.6c0.7-2,1.8-3.6,3.6-4.6c2.5-1.4,4.7-0.8,6.1,1.7c0.6,1,1.1,2,1.6,3c3.5,6.9,7.2,13.7,11.6,20.2
		c1.1,1.6,2.4,3.2,3.8,4.6c0.5,0.6,1.4,1,2.1,1.5c1.1-1.6,1.3-3.1,1-4.6c-0.3-2.4-0.8-4.7-1.4-7c-2-7.8-5.4-15-8.6-22.3
		c-0.3-0.7-0.9-1.3-1.4-1.9c-3.5-3.2-5.6-7.2-6.3-11.8c-0.7-4.7,0.6-8.8,4.8-11.5c1.5-1,2.9-1.9,3.9-3.4c1.1-1.6,2.3-1.7,3.8-0.3
		c1.3,1.1,2.5,2.3,3.6,3.5c2.9,3.2,5.7,6.5,8.5,9.8c0.3,0.4,0.8,0.7,1.4,1.2c0.1-0.6,0.2-0.9,0.1-1.2c-0.4-4.4-0.7-8.9-1.3-13.3
		c-0.2-1.6-0.3-3,1-4.2c1.9-1.8,3.9-1.6,5.8,0.7c1.9,2.4,3.7,4.8,5.7,7.1c0.9,1.1,2,2,3.2,2.8c2,1.4,3.3,0.9,4.5-1.2
		c1.2-2,1.2-4.3,1-6.5c-0.3-5.3-1.9-10.4-3.3-15.5c-0.1-0.4-0.4-0.8-0.7-1.3c-1.2-2-0.9-3.8,0.9-5.6c1.4-1.4,2.7-1.6,4.7-0.2
		c2,1.3,3.8,2.9,5.7,4.4c0.6,0.5,1.2,0.9,1.8,1.4c0.2-0.7,0-1.3-0.2-1.8c-1-2.4-2.1-4.8-3.1-7.3c-2.5-5.9-5.1-11.7-7.4-17.7
		c-1.4-3.6-2.5-7.3-2.5-11.2c0.1-5.9,5.4-9.2,10.8-6.6c2.9,1.4,5.3,3.5,7.5,5.9c4.9,5.3,8.9,11.3,12.9,17.3
		c3.5,5.3,6.9,10.6,10.4,15.8c0.5,0.8,1.1,1.5,1.7,2.2c0.4-1,0.4-1.8,0.3-2.5c-1.7-11.1-5.2-21.6-10.2-31.6c-0.4-0.8-0.8-1.6-1-2.4
		c-0.4-1.7,0.4-3.4,2-4.2c1.6-0.9,3-0.7,4.3,0.7c0.6,0.6,1,1.2,1.5,1.9c1.6,2,3.1,4.1,4.8,6c1.1,1.2,2.3,2.2,3.7,3
		c1.4,0.9,2.5,0.6,3.5-0.8c0.5-0.8,1.1-1.7,1.2-2.6c0.2-2.1,0.5-4.3,0.2-6.4c-0.6-3.9-1.6-7.7-2.5-11.5c-0.3-1.1-0.6-2.2-1.1-3.1
		c-2.2-3.9-3-8-2.3-12.5c0.8-5,2.9-9.2,6.9-12.5c3.2-2.6,9.4-2.9,12.6,2.1c0.6,0.9,0.9,1.9,1.5,2.7c2.1,3.4,4.3,6.7,6.5,10
		c0.5,0.8,1.3,1.4,2.1,1.9c1.4,0.9,2.4,0.5,2.9-1.1c0.3-1.1,0.5-2.2,0.4-3.3c-0.2-2.5-0.5-5-1.1-7.3c-1-4.1-2.4-8.1-3.5-12.2
		c-1.2-4.2,0.1-8.1,3.7-10.2c4.4-2.5,9.2-3.5,14.3-2.8c4,0.6,7.1,2.9,9.9,5.5c8.9,8.4,17.6,17,26.5,25.4
		c13.9,13,27.9,25.9,41.9,38.8c0.5,0.5,1.1,0.9,1.8,1.4c0.3-0.7,0.5-1.3,0.7-1.9c2.1-5.8,4.5-11.4,7.7-16.7c1.3-2.2,2.5-4.5,3.8-6.7
		c0.6-1,0.7-1.9,0.2-3c-1.4-3-1.4-6.2-1-9.4c0.3-1.9,0.4-3.8,0.6-5.6c-6.3-2.4-7.4-7.3-6.8-13.1c-6.1-0.9-10.3-4.5-13.8-9
		c-3.5-4.5-6-9.4-4.9-15.5c-2.9,0.1-5.6,0.2-7.9-1.2c-1.7-1.1-3.2-0.9-4.9-0.1c-2.2,1-4.6,1.5-7,0.9c-3.6-0.8-6.1-3.2-7.5-6.5
		c-0.9-2-1.4-4.2-2.3-6.3c-0.8-1.8-1.5-3.8-2.7-5.3c-3.7-4.9-10.8-5.8-14.7,0.2c-1.5,2.4-3.5,4.6-5.7,6.5
		c-5.4,4.7-12.1,4.4-17.2-0.7c-0.8-0.8-1.6-1-2.5-0.6c-2.6,1.1-4.8,2.6-5.6,5.5c-0.3,0.9-0.6,1.8-0.9,2.7c-0.6,1.9-1.8,3.4-3.5,4.5
		c-0.7,0.5-1.5,0.9-2.4,1.5c0,0.8,0,1.7,0,2.6c-0.3,4.9-2.5,8.7-6.9,11c-1.2,0.6-2.4,1.3-3.7,1.6c-9.6,2.4-18.9,2-27.3-4
		c-1.7-1.2-3.5-1.9-5.6-1.9c-4.8-0.1-8.4-2.3-10.7-6.5c-1.7-3-3.9-5.1-7.7-4.7c-1.3,2.2-2.7,4.6-4.1,6.9c-3.9,6-8.6,11.4-15.2,14.5
		c-1.3,0.6-2,1.6-2.3,3.1c-1.8,8.3-11.4,11.4-17.8,5.8c-1.3-1.1-2.5-2.3-3.8-3.3c-1-0.8-2.1-1.5-3.2-2c-1.6-0.7-2.6-0.2-3.1,1.5
		c-0.3,1.1-0.4,2.2-0.6,3.3c-0.9,5.9-4,10.2-9.4,12.7c-1.2,0.5-2.3,1.1-3.5,1.6c-3.5,1.4-5.8,3.8-6.8,7.5c-0.2,0.6-0.4,1.2-0.6,1.8
		c-0.9,2.3-2.4,4.1-4.5,5.5c-2.5,1.6-5.1,2.6-8.1,2.8c-1.8,0.2-3.2,0.7-3.6,2.8c-0.2,1-0.8,1.9-1.3,2.8c-1.6,3.1-3.9,5.3-7.3,6.1
		c-1.8,0.4-3.7,0.7-5.8,1.1c-0.2,0.6-0.5,1.3-0.8,2.1c-1.7,4.1-4.4,7.4-8.3,9.6c-7.7,4.3-15.5,1.8-19.4-6c-1.6-3.3-2.5-6.8-2.4-10.4
		c0.1-7.9,0.5-15.8,0.5-23.7c0.1-26,0-52,0-78c0-0.9,0-1.8-0.1-2.9c-1.3,0-2.4,0-3.4,0c-52,0-104,0-156,0c-0.8,0-1.6,0-2.4,0
		c-3.4-0.2-5.9-2.4-6.5-5.7c-0.3-1.7-0.5-3.5-0.5-5.2c0-12,0-24,0-36c0-48.1,0-96.2,0-144.2c0-1,0-2,0-3.5c-2.1,1.2-3.8,2.3-5.6,3.2
		c-1.8,0.9-3.7,1.7-5.5,2.5c0.9,2.5,1.8,4.8,2.5,7.1c3.1,10.6,3.3,21.1-0.8,31.5c-0.4,1-0.3,1.8,0,2.7c1.1,3.2,2.4,6.5,3.1,9.8
		c1.5,6.1,0.2,11.7-3.7,16.7c-0.4,0.6-1,1.1-1.3,1.7c-0.9,1.7-1.9,3.3-2.7,5c-1.4,3.2-2.5,6.6-4.2,9.7c-3.6,6.7-6.1,13.7-6.8,21.3
		c-0.6,6.4-1.1,12.9-1.8,19.3c-0.6,5.3-1.5,10.4-3.6,15.3c-0.7,1.7-1.3,3.4-2,5.1c-0.5,1.1-1.2,2.3-2.1,3.1c-1.1,0.9-1.5,2-1.7,3.3
		c-1,6.5-3.1,12.5-6.3,18.3c-0.7,1.3-1.4,2.7-2.1,4.1c-1.7,3.6-2.4,7.3-1.1,11.2c0.2,0.8,0.4,1.5,0.5,2.3c0.7,3.5,0.4,6.9-1.8,9.9
		c-1.6,2.2-2.3,4.5-1.9,7.2c0.1,0.6,0.1,1.1,0.1,1.7c0.1,3.2-0.7,6-2.8,8.4c-2.5,2.9-5.5,5.1-9.5,5.6c-4.7,0.6-8.9,2.6-12.6,5.4
		c-4.9,3.7-8.8,8.3-11.8,13.7c-1.4,2.6-2.8,5.2-4.4,7.7c-2,3.3-4.8,5.8-8.7,6.7c-4.6,1-7.2,3.7-8.1,8.3c-0.7,3.4-3,5.8-6,7.4
		c-2.3,1.1-4.7,2.1-7.1,2.9c-3.1,0.9-6,2.1-8.9,3.6c-1.9,1-3.9,1.8-6,2.4c-7.6,2-14.1-0.8-17.8-7.7c-0.8-1.5-1.5-3.2-2.3-4.8
		c-0.2-0.4-0.5-0.8-1-1.5c-0.6,3.7-2.2,6.4-4.7,8.6c-3,2.6-4.4,6-4.5,9.9c-0.1,1.5-0.2,3.1-0.6,4.5c-1.9,6.4-9.3,10.2-15.2,5.9
		c-2-1.4-4-0.9-5.9-0.4c-1.9,0.5-3.3,1.9-4.6,3.3c-2.5,2.9-4.1,6.3-4.9,10c-0.7,3.8-1.3,7.7-1.5,11.6c-0.4,6-2.7,10.8-7.9,14
		c-0.3,0.2-0.6,0.5-1.1,0.8c2.5,2.9,4.4,6,5.6,9.5c2.5,7.4,2.2,14.8,0.3,22.2c-1.2,4.8-4.6,6.9-9.5,6.2c-1.1-0.2-2.2-0.3-3.3-0.4
		c-2-0.2-3.3,0.5-4.2,2.3c-1.4,2.9-3.3,5.5-5.7,7.7c-4.5,4-10.9,4.3-15.4,0.6c-3-2.5-4.8-5.7-5.4-9.6c-0.6-3.6,0.3-7,1.6-10.3
		c0.6-1.6,1.3-3.2,2-5c-2-1.2-3.9-2.2-5.7-3.4c-1.8-1.2-3.6-2.5-5.6-3.9c-0.6,2.8-1.3,5.4-1.8,8.1c-1,6-4.2,10.4-9.5,13.3
		c-1.1,0.6-1.8,1.4-2,2.5c-0.4,1.9-0.9,3.7-1,5.6c-0.4,6.1-3.4,10.7-8.5,14c-1,0.7-2.1,1.2-3.3,1.9c0.3,1.3,0.6,2.6,1,3.9
		c1.9,6.5,4.1,13,4.9,19.8c0.6,5.9,0.4,11.7-2.1,17.2c-3.1,6.9-9.5,10.6-17,9.8c-0.8-0.1-1.6-0.1-2.6-0.2c0,1.1,0,1.9,0,2.8
		c0.1,4.5,0.4,8.9,0,13.4c-0.8,7.6-3.4,10.8-10.8,12.7c-8.7,2.2-17.5,3.9-26.3,5.3c-3.4,0.6-6.9,1.3-10.3,1.9c0,1.4-0.1,2.5,0,3.6
		c0.5,3.7,1,7.4,1.6,11.2c0.7,4.6,1.3,9.2,0.7,13.8c-0.5,3.4-1.8,6.3-5,8c-0.5,0.3-1.1,0.9-1.1,1.4c-0.4,3.3-2,6-3.4,8.9
		c-0.6,1.3-0.9,2.8-1.3,4.1c2.5,1.7,4.7,3.1,6.9,4.6c4.2,2.8,7.2,6.5,8.9,11.3c0.9,2.6,2,5.2,3.3,7.7c1.6,3.2,3.9,6,6.4,8.6
		c2.5,2.6,3,6.2,1.3,9c-1.7,2.9-1.6,4.9,0.8,7.3c1.2,1.3,2.6,2.4,3.9,3.5c3.5,2.9,6.5,6.2,8.6,10.2c1,1.8,1.9,3.7,2.6,5.6
		c0.8,2.3,2.2,3.9,4.6,4.5c0.4,0.1,0.8,0.3,1.1,0.4c5.3,2.3,8.3,7.1,7.7,12.8c-0.4,3.3,0.5,6.1,2.2,8.8c1.1,1.8,2.2,3.5,3.1,5.4
		c0.5,1.1,1.1,1.7,2.1,2c1.5,0.5,3.1,0.9,4.5,1.5c2.9,1.2,5.8,2.3,8.5,3.9c4.4,2.5,7.2,6.3,7.9,11.4c0.2,1.3,0.4,2.7,0.7,4
		c0.3,1.2,1.1,1.7,2.1,1.4c1.7-0.6,3.4-1.3,5.1-2c2.2-1,4.6-1.5,7-1.6c7.1-0.1,12.8,2.5,16.5,8.8c2.7,4.5,2.8,11.1-2.8,15.2
		c-0.8,0.6-1.5,1.2-2.2,1.8c-0.4,0.4-0.8,0.9-1.2,1.4c0.4,0.3,0.7,0.5,1,0.6c6.8,3.6,8.8,7.8,7.3,15.4c-0.3,1.6-0.6,3.1-1,4.7
		c5.6,2.8,10.2,6.7,13.2,12.3c1.7,0,3.2,0.1,4.7,0c7.4-0.5,13.3,2.1,17.1,8.7c0.9,1.6,1.9,3.1,2.9,4.7c1.3,2.1,3.3,3.3,5.8,3.3
		c2.4,0,4.8-0.3,7.1-0.8c4.6-1,8.5-3.7,12.3-6.2c3.5-2.3,7.1-4.7,10.8-6.7c2.5-1.4,4.3-3.2,5.4-5.8c1.2-3,3.1-5.6,5.5-7.8
		c4.2-3.9,9.4-4.9,14.6-2.4c2.1,1,4.3,2.3,6,3.9c3.8,3.3,7.3,6.9,10.9,10.5c0.8,0.8,1.6,1.4,2.9,1.3c0.7-0.1,1.4,0.2,2.1,0.2
		c0.8,0,1.6,0,2.3-0.3c5.5-2.7,11.4-4,17.5-5c6.6-1,13.3-1.9,19.9-2.9c2.6-0.4,5.1-1.2,7.5-1.8c0-0.4,0-0.5,0-0.6
		c-0.1-0.4-0.2-0.8-0.4-1.1c-1.9-5.7-1.6-11.3,0.6-16.9c1.5-3.8,3.9-5.3,8-5.1c6.7,0.4,12.5,3,17.8,7c0.9,0.7,1.7,1.4,2.6,2
		c4.1-2.7,8.1-5.4,12.1-7.9c8.4-5.2,17.3-9.7,26.4-13.6c3.3-1.4,5.9-0.9,8.2,1.7c1,1.1,1.6,2.5,2.2,3.9c0.4,0.9,0.6,1.9,0.9,3.2
		c5.4-3.8,10.5-7.3,15.7-10.9c-0.7-0.8-1.2-1.4-1.8-2c-5-5.1-9.3-10.7-13.3-16.7c-4.3-6.5-7.9-13.3-10.3-20.8
		c-0.4-1.1-0.6-2.3-0.7-3.5c-0.1-1.8,0.8-3.1,2.3-3.9c1.5-0.8,2.9-0.3,4,0.7c1.1,1,2.1,2.2,2.8,3.5c2.8,4.7,5.4,9.7,8.4,14.3
		c7.7,11.9,16.8,22.8,26.5,33.1c1,1.1,2.2,2.1,3.5,2.9c1.8,1.2,2.5,0.9,3.1-1.2c0.2-0.6,0.3-1.3,0.3-1.9c0-1.8-0.1-3.5-0.2-5.3
		c-0.4-6-2.1-11.8-3.4-17.6c-0.3-1.4-0.9-2.5-1.8-3.5c-7.3-7.7-13.5-16.3-19.3-25.1c-2.2-3.4-4-6.9-4.8-10.9c-1-5.2,2.1-9,7.4-9.2
		c2.9-0.1,4.8,1.4,6.4,3.5c3.3,4.4,5.7,9.3,7.9,14.2c2.7,5.9,5.2,11.9,7.9,17.8c1.7,3.8,4.3,6.9,7.8,9.2c3.5,2.2,6.9,4.4,10.4,6.4
		c2.9,1.6,5.9,2.9,9.2,3.3c2.7,0.3,3.9-0.7,4.1-3.4c0.3-3.4-0.1-6.7-0.7-10c-1.8-8.5-5-16.5-8.1-24.5c-0.6-1.5-1.5-2.5-2.9-3.3
		c-1.8-1-3.6-2.2-5.2-3.4c-10.9-8-20.5-17.3-29.2-27.7c-3.7-4.4-7.1-9.1-9.5-14.3c-1.1-2.4-1.9-4.9-2-7.6c-0.1-3.5,1.7-5.6,5.2-6.5
		c3.7-0.9,7.4-0.6,10.6,1.5c2.3,1.5,4.6,3.2,6.6,5.1c5.1,4.8,9,10.6,12.8,16.4c5.3,8.3,10.4,16.7,14.2,25.8c1,2.4,2.8,3.6,5.3,3.8
		c3.5,0.2,7-2.1,7.7-5.6c0.5-2.2,0.7-4.6,0.3-6.9c-1.4-9.5-4.5-18.4-9.5-26.7c-2.3-3.9-3.5-8-2.2-12.6c1.6-5.5,4.9-9.3,10.5-10.9
		c4.2-1.2,7.5,0.9,8.4,5.2c0.1,0.5,0.2,1.1,0.2,1.7c0.3,4.6-1.9,8.1-5.1,11.1c-0.6,0.6-1.3,1.1-2,1.7c0.5,0.7,0.8,1.3,1.2,1.7
		c1.6,1.6,3.1,3.3,4.9,4.5c2.5,1.7,4.8,0.8,6.1-1.9c0.5-1.1,0.9-2.2,1.1-3.4c1.1-5.4,1.1-10.8,0.3-16.3c-0.8-0.3-1.7-0.6-2.4-1.1
		c-1.4-1-3.1-1.8-4.1-3.2c-4.8-6.1-2.2-13.4,3.3-17.1c0.7-0.5,1.6-0.7,2.5-0.8c2.2-0.3,3.8,1.3,3.9,3.9c0.1,2.3-0.3,2.7-3,2.6
		c-0.1,0-0.3,0.2-0.5,0.3c-0.5,1.8,0.6,3,2,3.9c3.2,2.1,6.8,2.4,10.6,2.3c0.9-2.1,0.5-4.1,0.2-6c-0.7-3.9-1.4-7.7-2.3-11.5
		c-1.9-7.5-3.5-15.1-7.6-21.9c-0.2-0.4-0.4-0.9-0.6-1.3c-0.3-0.5-0.6-1.1-1-1.8c-1.9,1.6-3.6,3-5.3,4.5c-2.7,2.4-4.7,5.2-5.5,8.8
		c-0.1,0.5-0.3,1.2-0.6,1.5c-0.5,0.5-1.3,1.1-1.9,1.1c-0.9,0-1.2-0.9-1.2-1.8c-0.3-3.5,0.3-6.7,2.5-9.5c1.7-2.1,3.6-4.1,5.4-6.1
		c1.1-1.2,2.3-2.2,3.5-3.3c0.7-0.6,0.8-1.3,0.5-2.2c-0.5-1.4-1-2.9-1.4-4.3c-0.9-2.6-1.3-5.3-1.2-8c0.1-2.4,1-3.8,2.5-4.2
		c1.6-0.4,3.1,0.4,4.3,2.7c0.7,1.4,1.3,2.9,1.9,4.4c0.5,1.3,1.1,2.6,1.7,4c4.2-3.3,7.8-6.9,11.2-10.6c2.9-3.1,5.5-6.5,7.6-10.1
		c1.1-1.9,1.8-3.9,1.6-6.2c-0.1-1,0-1.9,0.1-2.9c0.2-1.7,1-2.5,2.4-2.5c1.4,0,2.3,0.8,2.4,2.4c0.1,1.6,0,3.2-0.3,4.8
		c-0.9,4.1-2.8,7.8-5,11.4c-4.2,6.8-9.3,13-15.6,18c-1.5,1.2-1.6,1.5-0.8,3.3c1,2.1,2,4.2,3.2,6.2c4.5,7.6,9.8,14.6,15.5,21.3
		c3.2,3.8,6.7,7.3,10.7,10.3c1.6,1.2,3.4,2.1,5.2,2.8c1.9,0.7,2.7,0.4,3.5-1.4c1.1-2.2,2-4.5,2.6-6.9c1.6-5.8,1.9-11.8,2.4-17.8
		c0.4-4.5,1-8.9,0.8-13.4c-0.3-6.8-1.3-13.5-2-20.3c-0.1-1.3-0.7-2.2-1.5-3.1c-3.5-4-6.9-8-10.3-12.1c-0.7-0.9-1.3-2-1.7-3.1
		c-0.9-2.8,0.4-5.3,3.3-6.3c2.6-0.9,5.1-0.5,7.3,1.1c1.6,1.2,3,2.6,4.3,4.1c10.8,12.5,21.7,25,33.7,36.4c4.2,4,8.4,7.9,13.3,10.9
		c0.9,0.6,1.9,0.9,3.3,1.6c0.1-1.2,0.3-2,0.1-2.7c-0.6-3.1-1-6.3-2-9.4c-2.7-8.5-5.7-17-8.6-25.4c-0.2-0.7-0.9-1.3-1.5-1.8
		c-1.7-1.6-3.5-3-5.1-4.7c-8-8.6-14.8-18.1-20.2-28.5c-3-5.7-5.5-11.6-6.4-18c-0.3-1.8-0.1-3.5,0.7-5.2c1.2-2.8,3.3-4.1,6.2-4.1
		c2.6,0,4.7,1.2,6.4,2.8c2,1.9,3.9,4,5.5,6.3c2.9,4,5.1,8.5,6.8,13.2c3.2,8.7,6.3,17.4,9.4,26.2c1,2.8,2.7,4.6,5.6,5.4
		c2.4,0.6,3.9,0.1,5-2.1c0.8-1.7,1.4-3.6,1.7-5.4c1.1-6,0.6-12.1-0.2-18.2c-0.3-2.3-0.5-4.6-2-6.5c-0.3-0.4-0.4-0.9-0.6-1.3
		c-0.6-2.1,0.2-4,2-4.9c1.7-0.8,3.1-0.5,4.6,1.3c0.3,0.4,0.6,0.8,0.9,1.1c1.4,1.8,2.8,3.7,4.3,5.4c1.2,1.3,2.5,2.5,3.9,3.5
		c1.9,1.3,3.1,0.9,4.4-1.1c1.1-1.9,1.3-3.9,1.2-6c-0.3-5.7-2-11.1-3.5-16.7c-4.5-0.6-8.3-2.6-11.9-5c-3.1-2-5.5-4.6-7-8
		c-1.8-4.5-0.3-9.6,3.6-12.1c3.7-2.4,8.6-1.5,11.9,2.1c0.8,0.8,1.4,1.7,2,2.7c0.7,1.3,1.4,2.7,1.9,4.1
		C689.6,524.9,690.2,526.9,691,529.3z M531.4,732.1c-2.8-4.7-5.5-9.5-8.4-14.2c-4.1-6.5-8.6-12.7-14.1-18.1c-1.9-1.9-4-3.5-6.3-5.5
		C503.8,704,521.7,727.7,531.4,732.1z M803,399.7c0.1,6.8,3.8,11.3,9.3,14.6c1.4,0.9,2.4,0.4,3-1.2c0.6-1.6,0.4-3.2-0.3-4.7
		c-2.2-4.7-4.5-9.3-6.9-13.9c-0.7-1.3-1.3-1.3-2.5-0.3C804,395.7,803,397.5,803,399.7z M635.5,542.7c0.2,3.1,1,5.5,2.1,7.8
		c3.1,6.6,6.3,13.3,9.6,19.8c1.3,2.6,2.9,5,4.3,7.4c0.2,0.4,0.7,0.7,1,1c0.1-0.9,0-1.6-0.2-2.2c-3.7-10.2-8.3-20.1-13.2-29.8
		C638.4,545.4,637.5,543.9,635.5,542.7z M715.3,495.4c-1.3,1.2-1.6,2.6-1.4,4.1c0.4,2.9,1.4,5.6,3.2,7.9c0.5,0.6,1.1,1.2,1.7,1.6
		c1.4,0.9,2.3,0.6,2.7-1c0.2-1,0.3-2.2,0-3.3c-0.7-2.9-2.2-5.5-4.2-7.7C716.7,496.4,716,496,715.3,495.4z M584.7,684.8
		c-0.6,4.1,0,7.7,2.7,10.9c0.8,0.9,1.8,1.3,3,0.9c1.1-0.4,1.4-1.4,1.5-2.5C592.1,690.2,588.7,685.8,584.7,684.8z M737.3,520.9
		c1,7.8,2.4,15.5,5.8,23C744.8,538.6,741.5,525.6,737.3,520.9z M686.1,528.7c-0.4-2.7-1-4.9-2.2-6.8c-0.8-1.3-2-2.4-3.2-3.4
		c-1.2-0.9-2.6-0.9-3.3-0.3c-0.7,0.6-0.8,2-0.2,3.3c0.1,0.1,0.1,0.3,0.2,0.4C679.3,525.2,682,527.4,686.1,528.7z M507.9,763.7
		c-2.1-6.7-9.2-20.9-13.1-22.3C497.9,749.7,502.8,756.8,507.9,763.7z M549.9,692.8c4-1.8,5.6-4.4,5-7.7c-0.2-1.2-0.8-2.2-2-2.4
		c-1.2-0.3-1.9,0.6-2.4,1.5C549,686.9,548.5,689.7,549.9,692.8z"/>
	<path d="M726.9,471.7c2.3,0.1,4.1,2.2,4,4.8c-0.1,2.2-1.7,3.9-3.7,3.8c-2.2,0-4.2-2.3-4.2-4.7C723,473.5,724.8,471.6,726.9,471.7z"
		/>
	<path d="M671.2,544.9c0,1.7-0.6,3-2.2,3.6c-1.4,0.5-2.8,0.4-4-0.7c-1.5-1.4-2-3.3-1.4-5c0.7-1.8,2.5-2.9,4.1-2.6
		C669.9,540.6,671.3,542.4,671.2,544.9z"/>
	<path d="M780.4,418.6c0,2.8-1.4,4.5-3.5,4.5c-2.1,0.1-4.1-1.9-4.3-4.3c-0.1-2,1.1-3.8,2.9-4.2c1.9-0.5,3.9,0.6,4.6,2.5
		C780.3,417.7,780.4,418.4,780.4,418.6z"/>
</g>
</svg>
