<?xml version="1.0" encoding="utf-8"?>
<!-- Generator: Adobe Illustrator 23.0.4, SVG Export Plug-In . SVG Version: 6.00 Build 0)  -->
<svg version="1.1" id="Layer_1" xmlns="http://www.w3.org/2000/svg" xmlns:xlink="http://www.w3.org/1999/xlink" x="0px" y="0px"
	 viewBox="0 0 1008 1008" style="enable-background:new 0 0 1008 1008;" xml:space="preserve">
<g>
	<path d="M564.1,144.1c1.4-2.2,2.6-4.2,3.9-6.2c0.9-1.4,2.3-2.2,4.1-2c1.9,0.2,3.2,1.3,3.2,3.3c0,1.6-0.1,3.4-0.7,4.9
		c-5.9,14.5-9.2,29.6-11.4,45c-0.6,4.4-1.2,8.9-1.6,13.3c-0.1,1.4,0,2.9,0.3,4.3c0.3,1.5,1.1,1.8,2.4,1.1c1.1-0.6,2.2-1.3,3.1-2.2
		c2.6-2.7,5.2-5.4,7.6-8.3c2.3-2.8,4.4-5.9,6.5-8.9c0.5-0.7,0.9-1.7,1-2.6c1.2-10.9,3.6-21.6,6.6-32.1c1.1-3.7,2.6-7.2,5-10.3
		c3.3-4.1,8.5-4.2,12-0.2c1,1.2,1.7,2.6,1.5,4.2c-0.4,2.5-0.6,5.1-1.5,7.5c-2.5,6.4-5.3,12.6-8.1,18.9c-1.2,2.7-2.6,5.3-3.8,8
		c-2.1,4.5-3,9.2-2.3,14.2c0.9,5.9,1.6,11.9,4,17.4c0.5,1.1,1,2.2,1.8,3.1c1.3,1.8,2.7,2,4.6,0.7c2.9-2,5.3-4.6,7.5-7.4
		c4.6-6,8-12.7,11.7-19.2c2-3.4,2.2-6.6,1.7-10.5c-0.7-5-0.8-10-0.9-15.1c-0.1-10,0.7-20,2.4-29.8c0.9-5.1,2.2-10.2,4.3-15
		c1.1-2.4,2.4-4.7,4.4-6.5c2.4-2.2,4.8-2.5,7.7-0.8c4,2.5,6.2,6.1,6.8,10.8c0.8,6.4-0.1,12.8-1.6,19c-2.4,10.2-5.7,20.1-9.6,29.9
		c-0.7,1.9-1.6,3.7-2.5,5.4c-1.6,3.3-1.5,5.3,0.7,7.7c1.9,2,5.6,3.6,8.5,2c1.9-1,3.7-2.3,5.2-3.8c4.5-4.7,7.9-10.2,10.8-16.1
		c0.7-1.4,0.9-3.1,1.5-4.5c0.8-1.8,1.5-3.7,2.7-5.3c0.9-1.3,2.4-2.4,3.8-3.2c2.9-1.4,5.6,0.5,5.5,3.7c0,1.2-0.5,2.3-0.8,3.5
		c-0.9,3.2-1.8,6.3-2.6,9.4c-0.2,0.9-0.2,1.9-0.1,2.9c0.2,1.6,1.2,2,2.5,1.1c0.8-0.6,1.6-1.4,2.2-2.2c1.5-2.2,2.9-4.6,4.4-6.8
		c1.7-2.6,3.3-5.3,5.2-7.8c0.8-1.1,1.9-2,3-2.6c1.7-1,3.4-0.3,4.1,1.5c0.4,0.9,0.7,2,0.7,3c0.1,2.6-0.1,5.3-0.1,7.9c0,0.5,0,1,0,2.1
		c2.2-2,4.1-3.6,5.8-5.4c0.9-1,1.1-2.3,0.3-3.8c-1.5-2.8-2.4-5.8-1.8-9c0.9-5.3,5.3-9.5,10.9-10.3c5.6-0.8,10.7,1.7,13.1,6.8
		c0.9,1.9,1.4,4.1,1.6,6.2c0.3,2.1,0.1,4.3,0.1,6.5c0,0.9,0.1,1.9,0.1,2.7c2.1,0.7,3.7,0,5.3-0.8c2.2-1.1,4.4-2.3,6.6-3.4
		c0.6-0.3,1.3-0.6,2-0.7c4.2-0.6,6.1,1.6,4.7,5.7c-1,2.9-1.3,5.9-1.1,9.1c0.3-0.6,0.7-1.1,0.9-1.7c1.8-4.9,3.6-9.7,5.4-14.6
		c0.7-1.8,1.4-3.6,2.3-5.2c1.6-2.7,4.6-2.5,6,0.3c0.4,0.8,0.7,1.8,0.8,2.7c0.1,3.3,0,6.5,0,9.8c0,1,0,1.9,0.2,3
		c0.2-0.5,0.5-1,0.7-1.6c1.6-5.3,3.1-10.6,4.9-15.8c1.2-3.5,2.9-6.8,4.4-10.1c0.5-1.1,1.4-2.2,2.2-3.1c2.5-2.7,5.9-3.3,9.2-1.7
		c1.8,0.9,2.8,2.3,3.3,4.2c0.9,3.3,0.6,6.7-0.3,10c-1.4,5.2-2.9,10.3-4.4,15.4c-1.1,4-2.5,7.9-2.8,12.1c-0.1,0.9,0,1.8,0,2.8
		c0.2,0.1,0.3,0.2,0.5,0.2c0.8-0.7,1.7-1.4,2.2-2.3c2.9-4.4,5.6-8.9,8.4-13.4c0.4-0.7,0.5-1.7,0.8-2.5c0.4-1,0.8-2.1,1.5-3
		c1.1-1.4,2.6-1.8,4.3-1.1c1.8,0.7,2.6,1.7,2.3,3.7c-0.3,2.6-1,5.2-1.4,7.8c-0.3,2-0.4,4.1-0.3,6.2c0.2,2.7,1.5,3.6,4.1,2.6
		c1.7-0.6,3.4-1.5,4.6-2.8c2.3-2.4,4.5-5,6.5-7.7c1.8-2.4,3.7-4.8,4.6-7.8c0.6-2,2.7-2,4.5-2c1.7,0.1,2.7,0.8,3,2.5
		c0.4,2.3,0.4,4.6,0.6,6.9c0.1,1.2,0,2.3,0.5,3.6c0.4-0.7,0.8-1.3,1.1-2c3.1-6.5,6.1-13,9.4-19.4c1.8-3.5,4-6.9,6.1-10.3
		c0.9-1.3,2.1-2.4,3.2-3.5c3.6-3.3,10.6-1.9,11.9,4c0.8,3.8,0.7,7.6,0.2,11.4c-1.3,9.3-4.1,18.2-6.7,27.2c-1,3.5-2,7.1-2.9,10.6
		c-0.2,0.7-0.2,1.5,0.1,2.4c0.9-1,1.9-1.9,2.7-2.9c6.4-7.7,11.3-16.3,15.4-25.3c0.5-1,0.6-2.1,0.8-3.2c1-4.4,2.9-8.3,6.6-11.1
		c3.4-2.6,7.1-3.1,11.1-1.5c0.8,0.3,1.7,0.3,2.5,0.4c0.5,0,1-0.1,1.4-0.1c1.9,0,2.5,0.5,2.5,2.4c0,1.9-0.1,3.8-0.3,5.7
		c-0.4,3.5-1,7-1.5,10.4c-0.1,0.6,0,1.2,0,2.2c0.7-0.8,1.3-1.3,1.7-1.9c2.8-4.1,5.6-8.2,8.3-12.3c1.4-2.1,2.8-4.1,4.2-6.1
		c2.6-3.6,6.1-5.6,10.7-5.3c2.2,0.2,4.3,0,6.5,0.2c3.8,0.4,6.4,3.3,6.5,7.1c0,0.7,0,1.4,0,2.2c0,34.9,0,69.8,0,104.6
		c0,41.7,0.1,83.4,0.2,125c0,32.1,0.1,64.2,0.2,96.2c0,32.3,0.1,64.6,0.1,97c0,40,0,80,0.1,120c0,37.9,0.1,75.8,0.2,113.8
		c0,1.1,0,2.2-0.1,3.3c-0.5,3.6-3.3,6.1-6.8,6.3c-0.8,0-1.6,0-2.4,0c-283.4,0-566.7,0-850.1,0c-0.6,0-1.1,0-1.7,0
		c-4.3-0.1-6.8-2.4-7.4-6.6c-0.2-1.3-0.3-2.5-0.3-3.8c0-170.9,0-341.8,0-512.6c0-25,0.1-49.9,0.2-74.9c0-23.7,0.1-47.4,0.1-71
		c0-0.6,0-1.3,0-1.9c0-6.1,4.1-9.3,10.1-8.2c6.9,1.3,13.8,2.6,20.8,3.7c9.8,1.6,19.7,2.5,29.6,3.1c10.2,0.6,20.3,0.4,30.4-0.6
		c12.3-1.2,24.6-2.8,37-3.8c8.8-0.7,17.7-1,26.6-1.2c10-0.2,20,0,30,0.1c10.9,0.1,21.7,0.4,32.6,0.6c8.2,0.1,16.3,0.1,24.5,0.3
		c7.4,0.2,14.9,0.6,22.3,1c7.6,0.3,15.2,0.8,22.8,0.9c10.7,0.1,21.4-0.1,32.2-0.1c32.8-0.1,65.6-0.3,98.4-0.4
		c24.2-0.1,48.3,0,72.5,0.1C549.2,144.1,556.8,144.1,564.1,144.1z M558.2,159.3c-5.8,0-11.4,0-17,0c-24.8,0-49.6-0.1-74.4-0.1
		c-21.6,0-43.2,0.1-64.8,0.2c-7.1,0-14.2,0-21.4,0.1c-8.6,0.1-17.1,0.3-25.7,0.5c-10.6,0.2-21.3,0.2-31.9-0.6
		c-14.5-1.1-29-1.9-43.6-1.8c-4.5,0-9,0.1-13.4-0.1c-8.7-0.2-17.4-0.7-26.1-0.8c-12.1-0.1-24.1,0.1-36.2,0.3
		c-15.5,0.3-31,1.7-46.4,3.6c-13.6,1.7-27.2,2.4-40.9,1.9c-13.9-0.5-27.7-2-41.5-4.3c-2.5-0.4-5-0.8-7.5-1.2
		c-0.7,3.2-0.9,644.7-0.2,647.4c279.3,0,558.6,0,838.2,0c0-1.1,0-2,0-2.9c0-33.7,0-67.4-0.1-101c0-41.4-0.1-82.9-0.2-124.3
		c0-32.2-0.1-64.5-0.2-96.7c0-32.2-0.1-64.3-0.1-96.5c0-73.4-0.1-146.7-0.1-220.1c0-0.8,0-1.6,0-2.4c0-0.4-0.1-0.8-0.2-1.3
		c-2.9,0-5.4,1-7.5,2.7c-2.2,1.8-4.2,3.7-6,5.8c-3.3,3.9-6.5,7.9-9.6,12c-0.6,0.7-1,1.7-1.2,2.6c-0.4,1.9-0.5,3.8-0.9,5.7
		c-1.2,7.3-4,14-9.1,19.5c-2.2,2.3-4.6,4.2-7.7,5.2c-1.8,0.6-3.7,1-5.6,0.4c-2.3-0.7-3.4-2.2-3.5-4.5c-0.1-2.5,0.8-4.7,1.9-6.8
		c4.5-8.4,10.7-15.5,17.4-22.2c2-2,2.3-4.1,2.2-6.9c-5,2.7-9.7,3.2-13.8-1.8c-0.8,1.6-1.5,2.9-2.2,4.2c-3.6,6.7-7.2,13.4-12.2,19.2
		c-1.5,1.8-3.1,3.5-5,4.8c-3.1,2.3-6.2,1.8-8.7-1.2c-0.8-1-1.3-2.2-1.7-3.4c-0.9-2.8-0.7-5.7-0.2-8.5c0.9-4.8,1.9-9.6,2.9-14.3
		c1.9-9.1,3.8-18.1,5.8-27.2c0.2-0.8,0.4-1.6-0.1-2.7c-2.1,2.3-3.4,4.8-4.6,7.3c-3.4,6.9-6.6,13.8-10,20.7
		c-1.7,3.4-3.4,6.9-5.3,10.2c-1.4,2.5-3.5,4.4-6.3,5.2c-2.6,0.8-4.4-0.3-5.1-2.9c-0.2-0.7-0.2-1.4-0.2-2.1c0-2,0.1-4,0.2-6
		c0-0.4-0.1-0.8-0.2-1.3c-2.1,2.3-3.9,4.5-5.9,6.6c-2.7,2.7-5.8,5-9.8,5.7c-4.7,0.9-7.8-0.8-9.4-5.3c-0.4-1.1-0.6-2.2-1.1-3.6
		c-0.5,0.7-0.8,1.1-1.1,1.5c-1.9,2.5-3.7,5-5.7,7.4c-1.8,2.1-4.1,3.9-6.8,4.7c-2.7,0.8-4.8,0-5.9-2.6c-0.5-1.1-0.9-2.5-0.8-3.7
		c0.2-3.3,0.5-6.5,1.1-9.7c1.5-8,3.2-16,4.8-24c0.4-2.1,0.5-4.3,0.8-6.5c-0.2-0.1-0.4-0.1-0.6-0.2c-0.6,1.2-1.3,2.3-1.8,3.6
		c-1.2,3.1-2.3,6.3-3.4,9.5c-2.1,6.1-4.1,12.3-6.3,18.4c-0.6,1.7-1.8,3.2-2.9,4.6c-1.1,1.3-2.6,1.9-4.3,1.3c-1.7-0.6-2.4-2-2.8-3.6
		c-0.1-0.5-0.1-1-0.1-1.4c0.1-2.3,0.2-4.6,0.3-6.9c0-0.7,0.1-1.4,0.1-2.1c-0.9,0.9-1.4,1.9-1.8,3c-1.6,3.7-3.1,7.4-4.8,11
		c-0.5,1.1-1.2,2.1-2,3c-1.6,1.8-3.9,2.4-5.6,1.6c-1.9-0.9-2.4-2.7-2.4-4.6c0-1.8,0.1-3.7,0.2-5.5c0.2-2.9,0.4-5.7,0.6-8.8
		c-0.8,0.3-1.3,0.6-1.9,0.8c-2.7,1.1-5.4,2.3-8.2,3.2c-1.5,0.5-2.3,1.2-3,2.4c-1.2,2.1-2.5,4.3-4.1,6.2c-1.2,1.4-2.8,2.6-4.5,3.5
		c-4.5,2.3-9.5,0.6-11.8-3.9c-0.8-1.6-1.2-3.3-1.9-5.2c-3.4,2.6-5.7,5.8-6.9,9.9c-2,7.1-4,14.1-6.2,21.1c-1.5,4.6-3.7,8.9-6.7,12.7
		c-2,2.6-4.6,4.3-7.7,5.4c-4.5,1.6-8.1-2.5-7.8-6.1c0.1-1.3,0.4-2.7,0.8-4c1.4-4.2,3.3-8.2,5.8-11.8c3.1-4.5,6.2-8.9,9.5-13.2
		c3.1-4.1,5.3-8.6,6.4-13.5c0.6-2.7,1.1-5.4,1.7-8c-2,2.5-3.6,5.2-5.2,7.8c-1.6,2.6-3.6,4.9-6.1,6.7c-2.2,1.7-4.7,2.6-7.6,2.6
		c-2.7-0.1-4.7-1.3-6-3.7c-0.2-0.4-0.5-0.9-0.7-1.1c-2.9,3.7-5.7,7.4-8.7,10.9c-2,2.3-4.5,4.1-7.2,5.5c-4.9,2.5-9.6,2.1-14-1.1
		c-0.6-0.4-1.2-0.9-2-1.4c-1.8,3.1-3.4,6-5.2,8.9c-3.6,5.8-7.1,11.6-11.8,16.6c-2.9,3.1-6.1,5.9-10.1,7.6c-4.4,1.9-8.1,1.2-11.3-2.3
		c-1.3-1.4-2.3-3.1-3.1-4.8c-2.4-5.1-3.3-10.5-3.7-16c-0.1-0.8-0.2-1.5-0.3-2.7c-0.7,0.9-1,1.3-1.4,1.8c-1.7,2.1-3.4,4.3-5.2,6.3
		c-1.9,2.1-4.1,3.8-6.7,5c-1.9,0.9-3.9,1.4-6,1c-4.4-0.8-7.8-4.2-8.4-9c-0.5-4.2-0.9-8.4-0.9-12.7c0.1-7.6,0.9-15.2,2.6-22.6
		C556.7,165.5,557.5,162.4,558.2,159.3z M631.4,170.3c0.2,0,0.4,0.1,0.6,0.1c0.2-0.4,0.4-0.8,0.6-1.2c1.2-3.3,2.4-6.6,3.5-9.9
		c2.9-8.9,5.3-17.9,5.8-27.3c0.1-2.6,0.4-5.2-0.4-8.2C632.8,138.5,631.4,154.3,631.4,170.3z M713.9,162.6c0.4-4.3,0.1-8.1-1.6-11.6
		c-1.2-2.5-3.6-2.7-5.5-0.7c-1.9,1.9-2,5-0.1,7.4C708.4,160,710.9,161.2,713.9,162.6z M711.6,171.1c-3.7-0.4-6.6-1.8-9.5-3.8
		c-0.8,2.3-1.2,4.4-0.8,6.6c0.3,1.7,1,3.1,2.7,3.7c1.7,0.6,3.3,0.1,4.6-1.2C710,175,710.9,173.3,711.6,171.1z M876.8,154.3
		c-1.7-0.6-2.7,0.3-3.7,1.3c-2.3,2.3-3.6,5-4.2,8.2c-0.2,0.8-0.1,1.8,0.2,2.6c0.3,1.1,1,1.5,2,0.9c1.1-0.6,2.2-1.4,2.9-2.4
		c1.9-2.6,2.8-5.5,3-8.7C877,155.6,876.9,155,876.8,154.3z M872.3,187.5c-3.9,2.9-12.6,15.6-13.4,19.5
		C863.9,204.4,871.3,193.6,872.3,187.5z M665.5,214.7c3.8-1.4,9.8-13.7,11.2-20.8C672.3,200.3,667.5,206.5,665.5,214.7z
		 M592.9,173.7c3.7-7.9,8.1-15.5,8.4-24.6C596.8,156.7,594.7,165.2,592.9,173.7z"/>
	<path d="M787.8,150.7c0.1-2.7,2-4.7,4.4-4.6c2.2,0.1,3.6,1.7,3.6,3.9c0,2.4-2.3,4.6-4.6,4.5C789.2,154.4,787.8,152.9,787.8,150.7z"
		/>
</g>
</svg>
