<svg xmlns="http://www.w3.org/2000/svg" viewBox="0 0 1116 534"><defs><style>.cls-1{fill:#086972;}.cls-2{fill:#07395f;}.cls-3{fill:#69c37b;}.cls-4{fill:#119975;}.cls-5{fill:#041235;}.cls-6{fill:#669a50;}.cls-7{fill:#0e7049;}</style></defs><g id="Layer_2" data-name="Layer 2"><g id="Layer_1-2" data-name="Layer 1"><path class="cls-1" d="M.07,128.28Q.07,65.87,0,3.44C0,.63.64,0,3.45,0Q314.83.12,626.24.07l7.43,16.77c9.41,21.18,20,41.65,36.1,58.69C681.84,88.28,696,97.75,713,102.71c18.06,5.28,36.7,5.61,55.25,6.48,19.09.89,38.15,1.69,56.83,6.21,16.84,4.07,32,11.29,44,24.16,10.25,11,16.52,24.34,21.26,38.37,10.14,30,14.42,61.16,18.86,92.31,3.78,26.56,6.82,53.24,12,79.57,3.7,18.64,7.89,37.16,17.09,54.08,8.71,16,21.52,26.62,39.88,29.76,11,1.89,21.91.69,32.67-1.77,31-7.1,58.76-22.07,86.58-36.81,6.13-3.26,11.88-7.28,18.5-9.61q0,72.51.07,145c0,2.7-.42,3.52-3.38,3.52q-359.41-.13-718.84-.08c-2.84-19.5-5.52-39-8.55-58.5-5.7-36.63-11.79-73.19-22.46-108.79-5.94-19.79-13.15-39.06-25.06-56.19-11.51-16.57-26.78-27.13-47.16-30-12.64-1.76-25.13-.82-37.66.61-21.57,2.46-42.82,7.12-64.5,8.93-27,2.25-52.2-2-75-17.44-20.82-14.09-37.49-32.38-52.78-52C38,191.4,18.93,159.9.07,128.28Z"/><path class="cls-2" d="M1115.92,261.75V376.46c-1,.47-2.07.87-3.05,1.41-20.19,11.23-40.51,22.21-61.56,31.77-17.69,8-35.8,14.8-55.28,16.87-13.85,1.47-26.95-.85-38.14-9.86-9.15-7.38-14.3-17.52-18.38-28.22-6.17-16.17-9.66-33.06-12.62-50.05-5.93-33.93-9.38-68.23-15.06-102.2-3.91-23.43-8.61-46.64-17.32-68.88C882.17,135.79,859.86,116,826.84,108c-18.34-4.45-37-5.62-55.66-6.45-12.34-.54-24.66-1.16-36.95-2.4C705.58,96.22,683,82.81,666.1,59.67c-10.92-14.9-18.92-31.4-26.47-48.13C638,7.82,635.75,4.25,635.24.07h144c.29.21.55.58.86.62,13.47,2.05,26.81,4.7,40.13,7.55,26.25,5.63,52,12.56,75.65,25.78a92,92,0,0,1,23.61,18.4c11.13,12.28,16.61,27.41,20.14,43.31,4.28,19.26,5.63,38.94,8.24,58.44,1.83,13.67,4.34,27.14,9.17,40.09,4.72,12.64,12.68,22.88,23.2,31.29,11.21,8.95,24,14.62,37.47,19.11a278.16,278.16,0,0,0,40.41,9.66c9.15,1.59,18.33,3,27.56,4C1095.76,259.39,1105.84,260.6,1115.92,261.75Z"/><path class="cls-2" d="M384.77,533.92H270c-2.93-7.32-4.83-15-9-21.89,0-.18,0-.36,0-.54a34.87,34.87,0,0,0-6-11.47c0-.18,0-.36-.05-.55l-.74-.81h0c-.26-.51-.51-1-.76-1.52v0l-.75-.89c0-.18,0-.36,0-.53l-.75-.84h0a2.87,2.87,0,0,0-1.5-2.25l0,0-.73-.84a49.34,49.34,0,0,0-15.68-17.93l-.84-.73h0l-.76-.75h0l-.75-.75h0l-.84-.74h-.51l-.9-.75h0l-.82-.74-.55,0-.88-.74h0l-1.51-.76h0l-1.51-.76v0l-.76-.75h0l-1.51-.75h0l-.81-.73-.55,0-1-.73-.55,0c-2.31-1.57-4.66-3.07-7.62-3h0a8.79,8.79,0,0,0-3.63-1.83,158.52,158.52,0,0,0-21.69-5.63c-14.39-3-29-5-43.14-9-3.24-.91-6.2-2.66-9.61-3l-.54-.05a26.78,26.78,0,0,0-7.62-3.75v0l-1.51-.76h0a2.88,2.88,0,0,0-2.25-1.51v0l-.83-.74-.55,0-.88-.74h0l-.76-.75h0l-1.5-.77v0l-.76-.75h0l-.76-.75h0l-.76-.75h0l-.76-.75h0l-.76-.75h0l-.76-.75h0l-.75-.89c0-.18,0-.36,0-.53l-.75-.84h0l-.76-.76h0l-.75-.88c0-.19,0-.38,0-.56l-.74-.82h0a2.87,2.87,0,0,0-1.5-2.25h0c-7.52-15-10.86-31.17-13.89-47.44-2.55-13.7-5.17-27.37-9.86-40.54-.82-2.32-1.33-4.82-3.23-6.62,0-.18,0-.36-.05-.54l-.73-.95c0-.19,0-.37,0-.55l-.73-.95c0-.19,0-.37,0-.56l-.74-.81h0l-.76-1.51h0A2.88,2.88,0,0,0,75.85,318v0l-.76-1.51h0l-.76-.76h0l-.76-1.51h0l-.75-.76h0l-.74-.89,0-.53-.74-.83h0l-.75-.76h0l-.75-.76h0l-.76-.76h0l-.74-.85-4.43-4.43-.84-.73h0l-.76-.76h0l-.76-.76h0l-.76-.76h0l-.76-.75h0l-.76-.75h0l-1.51-.76v0l-.76-.76h0l-.76-.76h0l-1.51-.76v0l-.76-.75h0l-.83-.74-.54,0-.89-.74h0l-1.51-.76v0l-.76-.76h0l-1.51-.76h0a5.34,5.34,0,0,0-3.75-2.26v0l-.84-.74H43L42,288l-.54,0-.95-.73-.55,0-.95-.73-.55,0-.95-.73-.54,0L36,285l-.55,0a10,10,0,0,0-4.7-2.2l-.53-.05a34.31,34.31,0,0,0-3.55-2C18,277.15,9,274.34.07,271.49V144.78a5.45,5.45,0,0,1,2.15,2.52c12.78,20.87,25.7,41.64,40,61.56,16.69,23.34,35,45.27,57.42,63.32,20.89,16.77,44.51,26.22,71.69,26.29,22.45.06,44.5-3.49,66.63-6.49,16.32-2.21,32.6-4.41,49.17-1.92,16.89,2.54,30.56,10.07,41,23.64C339.08,328,346,344.22,351.83,361c10.8,31.28,17,63.66,22.52,96.17,2.92,17.22,5.22,34.54,7.54,51.86C383,517.31,384.63,525.54,384.77,533.92Z"/><path class="cls-3" d="M816,.07Q964.34.07,1112.72,0c2.66,0,3.28.5,3.28,3.24q-.13,125.88-.08,251.76c-14.75-1.48-29.5-3-44.17-5.26-22.36-3.38-44.6-7.28-65.51-16.46-22.75-10-39.28-25.59-46-50.35-4.59-16.94-6.36-34.3-8.42-51.62-2-16.36-4.13-32.61-8.76-48.52-7.2-24.75-22.22-42.85-44.7-55.06-17.45-9.47-36-16-55.19-20.9C834.12,4.54,825,2.32,816,.07Z"/><path class="cls-4" d="M262.54,533.92q-129.74,0-259.47.07C.5,534,0,533.49,0,530.92Q.14,404.59.07,278.24c2.23.8,4.44,1.66,6.69,2.4C18.51,284.51,30,288.93,40.88,295c13.1,7.27,24.28,16.61,31.68,29.91,6.15,11.06,8.88,23.24,11.45,35.47,3.53,16.83,5.93,33.91,11.7,50.25,5.72,16.18,15.33,28.68,31.51,35.52a141.72,141.72,0,0,0,21.35,6.9c16.6,4.1,33.62,6.17,50.18,10.48,18.14,4.72,33.17,13.92,44.23,29.39C252,505.44,257.81,519.38,262.54,533.92Z"/><path class="cls-5" d="M635.24.07c.51,4.18,2.71,7.75,4.39,11.47,7.55,16.73,15.55,33.23,26.47,48.13C683,82.81,705.58,96.22,734.23,99.11c12.29,1.24,24.61,1.86,36.95,2.4,18.68.83,37.32,2,55.66,6.45,33,8,55.33,27.83,67.67,59.34,8.71,22.24,13.41,45.45,17.32,68.88,5.68,34,9.13,68.27,15.06,102.2,3,17,6.45,33.88,12.62,50.05,4.08,10.7,9.23,20.84,18.38,28.22,11.19,9,24.29,11.33,38.14,9.86,19.48-2.07,37.59-8.83,55.28-16.87,21-9.56,41.37-20.54,61.56-31.77,1-.54,2-.94,3.05-1.41v9c-6.62,2.33-12.37,6.35-18.5,9.61-27.82,14.74-55.54,29.71-86.58,36.81-10.76,2.46-21.64,3.66-32.67,1.77-18.36-3.14-31.17-13.73-39.88-29.76-9.2-16.92-13.39-35.44-17.09-54.08-5.22-26.33-8.26-53-12-79.57-4.44-31.15-8.72-62.35-18.86-92.31-4.74-14-11-27.36-21.26-38.37-12-12.87-27.15-20.09-44-24.16-18.68-4.52-37.74-5.32-56.83-6.21-18.55-.87-37.19-1.2-55.25-6.48-17-5-31.13-14.43-43.2-27.18-16.12-17-26.69-37.51-36.1-58.69L626.24.07Z"/><path class="cls-5" d="M384.77,533.92c-.14-8.38-1.77-16.61-2.88-24.87-2.32-17.32-4.62-34.64-7.54-51.86-5.52-32.51-11.72-64.89-22.52-96.17C346,344.22,339.08,328,328.1,313.7c-10.46-13.57-24.13-21.1-41-23.64-16.57-2.49-32.85-.29-49.17,1.92-22.13,3-44.18,6.55-66.63,6.49-27.18-.07-50.8-9.52-71.69-26.29-22.47-18.05-40.73-40-57.42-63.32C27.92,188.94,15,168.17,2.22,147.3a5.45,5.45,0,0,0-2.15-2.52v-16.5C18.93,159.9,38,191.4,60.61,220.52c15.29,19.66,32,38,52.78,52,22.79,15.41,48,19.69,75,17.44,21.68-1.81,42.93-6.47,64.5-8.93,12.53-1.43,25-2.37,37.66-.61,20.38,2.85,35.65,13.41,47.16,30,11.91,17.13,19.12,36.4,25.06,56.19,10.67,35.6,16.76,72.16,22.46,108.79,3,19.47,5.71,39,8.55,58.5Z"/><path class="cls-6" d="M816,.07c9.08,2.25,18.16,4.47,27.22,6.76,19.19,4.86,37.74,11.43,55.19,20.9,22.48,12.21,37.5,30.31,44.7,55.06,4.63,15.91,6.81,32.16,8.76,48.52,2.06,17.32,3.83,34.68,8.42,51.62,6.71,24.76,23.24,40.34,46,50.35,20.91,9.18,43.15,13.08,65.51,16.46,14.67,2.22,29.42,3.78,44.17,5.26v6.75c-10.08-1.15-20.16-2.36-30.26-3.44-9.23-1-18.41-2.4-27.56-4a278.16,278.16,0,0,1-40.41-9.66c-13.48-4.49-26.26-10.16-37.47-19.11-10.52-8.41-18.48-18.65-23.2-31.29-4.83-12.95-7.34-26.42-9.17-40.09-2.61-19.5-4-39.18-8.24-58.44-3.53-15.9-9-31-20.14-43.31A92,92,0,0,0,895.86,34c-23.64-13.22-49.4-20.15-75.65-25.78-13.32-2.85-26.66-5.5-40.13-7.55-.31,0-.57-.41-.86-.62Z"/><path class="cls-7" d="M262.54,533.92c-4.73-14.54-10.58-28.48-19.56-41-11.06-15.47-26.09-24.67-44.23-29.39-16.56-4.31-33.58-6.38-50.18-10.48a141.72,141.72,0,0,1-21.35-6.9c-16.18-6.84-25.79-19.34-31.51-35.52-5.77-16.34-8.17-33.42-11.7-50.25-2.57-12.23-5.3-24.41-11.45-35.47C65.16,311.56,54,302.22,40.88,295c-10.85-6-22.37-10.44-34.12-14.31-2.25-.74-4.46-1.6-6.69-2.4V273l23,7.67c2.34.78,4.52,2.17,7.12,2l.54.05c1,2,2.79,2.19,4.69,2.2l.55,0,1,.73.54,0,.95.73.55,0,.95.73.55,0,.95.73.54,0,1,.74h.51l.84.74v0c.64,1.77,2.13,2.13,3.75,2.26h0l1.51.76h0c.25.26.51.51.76.76v0l1.51.76h0l.89.74.54,0,.83.74h0l.76.75v0l1.51.76h0c.25.26.51.51.76.76h0c.25.26.51.51.76.76v0l1.51.76h0l.76.75h0l.76.75h0c.25.26.5.51.76.76h0c.25.26.5.51.76.76h0l.76.76h0l.84.73,4.43,4.43.74.85h0c.25.25.5.51.76.76h0l.75.76h0l.75.76h0c.25.27.5.55.74.83,0,.18,0,.35,0,.53.25.3.5.59.74.89h0l.75.76h0c.25.5.51,1,.76,1.51h0l.76.76h0c.25.5.51,1,.76,1.51v0a2.32,2.32,0,0,0,1.51,2.25h0c.25.5.51,1,.76,1.51h0l.74.81c0,.19,0,.37,0,.56l.73.95c0,.18,0,.36,0,.55l.73.95c0,.18,0,.36.05.54a17.37,17.37,0,0,0,.7,3.64c6.42,15.47,8.81,32,12,48.21,2.33,11.76,4.73,23.51,9.28,34.65,1.18,2.91,1.94,6.25,5,8.1h0a2.29,2.29,0,0,0,1.5,2.25h0l.74.82c0,.18,0,.37,0,.56l.75.88h0l.76.76h0l.75.84c0,.17,0,.35,0,.53l.75.89h0l.76.75h0l.76.75h0l.76.75h0l.76.75h0l.76.75h0l.76.75v0l1.5.77h0l.76.75h0l.88.74.55,0,.83.74v0a2.32,2.32,0,0,0,2.25,1.51h0l1.51.76v0c1.74,2.88,4.58,3.52,7.62,3.75l.54.05c.61,1.26,1.82,1.63,3,2a124.69,124.69,0,0,0,16.19,4.66c12.61,2.49,25.24,4.92,37.82,7.58,7.07,1.5,14,3.43,21.06,5.17h0a11.06,11.06,0,0,0,7.62,3l.55,0,1,.73.55,0,.81.73h0l1.51.75h0l.76.75v0l1.51.76h0l1.51.76h0l.88.74.55,0,.82.74h0l.9.75H231l.84.74h0l.75.75h0l.76.75h0l.84.73a49.34,49.34,0,0,1,15.68,17.93l.73.84,0,0a2.33,2.33,0,0,0,1.5,2.25h0l.75.84c0,.17,0,.35,0,.53l.75.89v0c.25.51.5,1,.76,1.52h0l.73.81c0,.19,0,.37.05.55,1,4.31,2.62,8.34,6,11.47,0,.18,0,.36,0,.54a10.47,10.47,0,0,0,.8,4c2.24,6,4.44,11.92,6.65,17.88Z"/><path class="cls-1" d="M30.23,282.69c-2.6.14-4.78-1.25-7.12-2L.07,273v-1.5c9,2.85,17.91,5.66,26.61,9.23A34.31,34.31,0,0,1,30.23,282.69Z"/><path class="cls-1" d="M268.54,533.92c-2.21-6-4.41-11.93-6.65-17.88a10.47,10.47,0,0,1-.8-4c4.12,6.84,6,14.57,9,21.89Z"/><path class="cls-1" d="M107.35,420.67c-3-1.85-3.79-5.19-5-8.1-4.55-11.14-6.95-22.89-9.28-34.65-3.22-16.26-5.61-32.74-12-48.21a17.37,17.37,0,0,1-.7-3.64c1.9,1.8,2.41,4.3,3.23,6.62,4.69,13.17,7.31,26.84,9.86,40.54C96.49,389.5,99.83,405.71,107.35,420.67Z"/><path class="cls-1" d="M211.57,461.15c-7-1.74-14-3.67-21.06-5.17-12.58-2.66-25.21-5.09-37.82-7.58a124.69,124.69,0,0,1-16.19-4.66c-1.18-.41-2.39-.78-3-2,3.41.3,6.37,2.05,9.61,3,14.17,4,28.75,6,43.14,9a158.52,158.52,0,0,1,21.69,5.63A8.79,8.79,0,0,1,211.57,461.15Z"/><path class="cls-1" d="M261,511.49c-3.33-3.13-4.91-7.16-6-11.47A34.87,34.87,0,0,1,261,511.49Z"/><path class="cls-1" d="M133,441.65c-3-.23-5.88-.87-7.62-3.75A26.78,26.78,0,0,1,133,441.65Z"/><path class="cls-1" d="M219.19,464.14a11.06,11.06,0,0,1-7.62-3C214.53,461.07,216.88,462.57,219.19,464.14Z"/><path class="cls-1" d="M35.46,284.94c-1.9,0-3.73-.17-4.69-2.2A10,10,0,0,1,35.46,284.94Z"/><path class="cls-1" d="M48.1,291.7c-1.62-.13-3.11-.49-3.75-2.26A5.34,5.34,0,0,1,48.1,291.7Z"/><path class="cls-1" d="M77.36,320.2A2.32,2.32,0,0,1,75.85,318,2.88,2.88,0,0,1,77.36,320.2Z"/><path class="cls-1" d="M108.85,422.92a2.29,2.29,0,0,1-1.5-2.25A2.87,2.87,0,0,1,108.85,422.92Z"/><path class="cls-1" d="M123.84,437.16a2.32,2.32,0,0,1-2.25-1.51A2.88,2.88,0,0,1,123.84,437.16Z"/><path class="cls-1" d="M252.08,494.9a2.33,2.33,0,0,1-1.5-2.25A2.87,2.87,0,0,1,252.08,494.9Z"/><path class="cls-1" d="M59.34,299.21l-1.51-.76Z"/><path class="cls-1" d="M74.35,315.72c-.25-.51-.51-1-.76-1.51C73.84,314.71,74.1,315.21,74.35,315.72Z"/><path class="cls-1" d="M51.84,294l-1.51-.76Z"/><path class="cls-1" d="M49.59,292.46l-1.51-.76Z"/><path class="cls-1" d="M78.1,321.72c-.25-.51-.51-1-.76-1.51C77.59,320.71,77.85,321.21,78.1,321.72Z"/><path class="cls-1" d="M118.58,433.42l-1.5-.77Z"/><path class="cls-1" d="M125.33,437.92l-1.51-.76Z"/><path class="cls-1" d="M56.34,297l-1.51-.76Z"/><path class="cls-1" d="M223.57,466.41l-1.51-.75Z"/><path class="cls-1" d="M225.82,467.91l-1.51-.76Z"/><path class="cls-1" d="M227.32,468.66l-1.51-.76Z"/><path class="cls-1" d="M254.33,498.67c-.26-.51-.51-1-.76-1.52C253.82,497.66,254.07,498.16,254.33,498.67Z"/><path class="cls-1" d="M75.85,318c-.25-.51-.51-1-.76-1.51C75.34,317,75.6,317.46,75.85,318Z"/><path class="cls-1" d="M63.92,303.69l-.84-.73Z"/><path class="cls-1" d="M69.09,309l-.74-.85Z"/><path class="cls-1" d="M69.84,309.72c-.26-.25-.51-.51-.76-.76C69.33,309.21,69.58,309.47,69.84,309.72Z"/><path class="cls-1" d="M70.58,310.47l-.75-.76Z"/><path class="cls-1" d="M71.33,311.22l-.75-.76Z"/><path class="cls-1" d="M72.07,312.05c-.24-.28-.49-.56-.74-.83C71.58,311.49,71.82,311.77,72.07,312.05Z"/><path class="cls-1" d="M72.83,313.47c-.24-.3-.49-.59-.74-.89C72.34,312.87,72.58,313.17,72.83,313.47Z"/><path class="cls-1" d="M73.58,314.22l-.75-.76Z"/><path class="cls-1" d="M75.09,316.47l-.76-.76Z"/><path class="cls-1" d="M78.82,322.52l-.74-.81Z"/><path class="cls-1" d="M40,287.21l-.95-.73Z"/><path class="cls-1" d="M80.32,325.53l-.73-.95Z"/><path class="cls-1" d="M37,285.71,36,285Z"/><path class="cls-1" d="M38.47,286.46l-.95-.73Z"/><path class="cls-1" d="M41.47,288l-.95-.73Z"/><path class="cls-1" d="M43,288.72,42,288Z"/><path class="cls-1" d="M109.56,423.75l-.74-.82Z"/><path class="cls-1" d="M110.33,425.19l-.75-.88Z"/><path class="cls-1" d="M111.08,425.94l-.76-.76Z"/><path class="cls-1" d="M111.82,426.77l-.75-.84Z"/><path class="cls-1" d="M112.58,428.19l-.75-.89Z"/><path class="cls-1" d="M113.33,428.93l-.76-.75Z"/><path class="cls-1" d="M114.08,429.68l-.76-.75Z"/><path class="cls-1" d="M114.83,430.43l-.76-.75Z"/><path class="cls-1" d="M115.58,431.18l-.76-.75Z"/><path class="cls-1" d="M116.33,431.93l-.76-.75Z"/><path class="cls-1" d="M117.08,432.67l-.76-.75Z"/><path class="cls-1" d="M44.34,289.47l-.84-.74Z"/><path class="cls-1" d="M119.33,434.18l-.76-.75Z"/><path class="cls-1" d="M120.2,434.92l-.88-.74Z"/><path class="cls-1" d="M121.58,435.68l-.83-.74Z"/><path class="cls-1" d="M50.34,293.22c-.25-.25-.51-.5-.76-.76C49.83,292.72,50.09,293,50.34,293.22Z"/><path class="cls-1" d="M52.72,294.71l-.89-.74Z"/><path class="cls-1" d="M54.09,295.47l-.83-.74Z"/><path class="cls-1" d="M54.84,296.22l-.76-.75Z"/><path class="cls-1" d="M57.09,297.72c-.25-.25-.51-.5-.76-.76C56.58,297.22,56.83,297.47,57.09,297.72Z"/><path class="cls-1" d="M220.7,464.91l-1-.73Z"/><path class="cls-1" d="M222.06,465.67l-.81-.73Z"/><path class="cls-1" d="M57.84,298.47c-.25-.25-.51-.5-.76-.76C57.33,298,57.59,298.22,57.84,298.47Z"/><path class="cls-1" d="M224.32,467.17l-.76-.75Z"/><path class="cls-1" d="M60.09,300l-.76-.75Z"/><path class="cls-1" d="M60.84,300.72l-.76-.75Z"/><path class="cls-1" d="M228.19,469.41l-.88-.74Z"/><path class="cls-1" d="M229.56,470.17l-.82-.74Z"/><path class="cls-1" d="M230.46,470.92l-.9-.75Z"/><path class="cls-1" d="M79.57,324l-.73-.95Z"/><path class="cls-1" d="M232.56,472.42l-.75-.75Z"/><path class="cls-1" d="M233.32,473.17l-.76-.75Z"/><path class="cls-1" d="M234.15,473.9l-.84-.73Z"/><path class="cls-1" d="M250.56,492.67l-.73-.84Z"/><path class="cls-1" d="M61.59,301.47c-.26-.25-.51-.5-.76-.76C61.08,301,61.33,301.22,61.59,301.47Z"/><path class="cls-1" d="M252.8,495.75l-.75-.84Z"/><path class="cls-1" d="M253.56,497.17l-.75-.89Z"/><path class="cls-1" d="M62.34,302.22c-.26-.25-.51-.5-.76-.76C61.83,301.72,62.08,302,62.34,302.22Z"/><path class="cls-1" d="M255,499.47l-.73-.81Z"/><path class="cls-1" d="M63.09,303l-.76-.76Z"/><path class="cls-1" d="M231.81,471.67l-.84-.74Z"/></g></g></svg>